<svg width="806" height="980" viewBox="0 0 806 980" fill="none" xmlns="http://www.w3.org/2000/svg">
<g style="mix-blend-mode:multiply" opacity="0.3">
<path d="M411.729 723.958C406.489 723.958 402.242 722.878 402.242 721.546C402.242 720.214 406.489 719.134 411.729 719.134C416.969 719.134 421.216 720.214 421.216 721.546C421.216 722.878 416.969 723.958 411.729 723.958Z" fill="#888386"/>
</g>
<g style="mix-blend-mode:multiply" opacity="0.3">
<path d="M387.441 697.11C313.759 697.11 254.027 687.47 254.027 675.578C254.027 663.686 313.759 654.045 387.441 654.045C461.124 654.045 520.855 663.686 520.855 675.578C520.855 687.47 461.124 697.11 387.441 697.11Z" fill="#888386"/>
</g>
<path d="M464.749 633.838C464.749 635.111 463.262 636.156 461.446 636.156H448.884V551.648H464.749V633.838Z" fill="#46443E"/>
<path d="M334.915 633.838C334.915 635.111 333.43 636.156 331.615 636.156H319.036V551.648H334.915V633.838Z" fill="#46443E"/>
<path d="M466.513 544.485C466.513 545.761 465.029 546.803 463.213 546.803H456.818V499.547H466.525L466.513 544.485Z" fill="#585F42"/>
<path d="M470.93 662.984C470.93 664.258 469.446 665.303 467.63 665.303H455.068V580.795H470.93V662.984Z" fill="#585F42"/>
<path d="M328.731 662.984C328.731 664.258 327.246 665.303 325.431 665.303H312.869V580.795H328.745L328.731 662.984Z" fill="#585F42"/>
<path d="M327.441 499.547V546.803H321.045C319.23 546.803 317.745 545.761 317.745 544.485V499.547H327.441Z" fill="#585F42"/>
<path d="M318.761 455.511H464.304C466.196 455.511 467.73 457.045 467.73 458.937V507.804C467.73 509.696 466.196 511.23 464.304 511.23H318.761C316.869 511.23 315.335 509.696 315.335 507.804V458.937C315.335 457.045 316.869 455.511 318.761 455.511Z" fill="#7D8051"/>
<path d="M311.541 560.644H474.527C476.419 560.644 477.953 562.178 477.953 564.07V594.527C477.953 596.419 476.419 597.953 474.527 597.953H311.541C309.649 597.953 308.115 596.419 308.115 594.527V564.07C308.115 562.178 309.649 560.644 311.541 560.644Z" fill="#7D8051"/>
<path d="M311.393 565.269H476.412C478.459 565.269 478.228 563.391 477.471 562.04L468.235 543.294C467.21 540.896 466.808 540.762 464.752 540.762L318.49 539.937C316.443 539.937 315.944 541.119 315.244 542.9L308.147 561.172C307.958 562.725 309.346 565.269 311.393 565.269Z" fill="#7D8051"/>
<path d="M488.705 623.645C488.705 623.645 482.573 638.64 479.946 647.421C470.459 649.571 465.431 650.296 455.545 649.925C457.446 638.905 458.045 623.02 458.045 623.02L488.705 623.645Z" fill="#DB7847"/>
<path d="M483.518 640.969C481.12 648.995 479.013 655.059 478.279 659.467C477.457 664.397 484.763 667.792 490.615 671.658C496.265 675.369 499.82 681.781 490.47 682.821C482.538 683.7 452.604 680.537 450.371 675.329C449.492 673.274 450.657 666.81 452.898 662.85C454.04 656.823 454.925 649.92 455.659 640.518C465.546 640.889 475.489 641.252 483.518 640.969Z" fill="#6B1B47"/>
<g style="mix-blend-mode:multiply" opacity="0.8">
<path d="M496.237 678.924C496.26 680.819 494.661 682.35 490.47 682.829C482.539 683.709 452.604 680.545 450.371 675.338C450.129 674.767 450.043 673.859 450.086 672.768C454.956 675.666 469.191 679.252 482.093 679.906C490.904 680.32 495.129 679.495 496.237 678.924Z" fill="#843547"/>
</g>
<path d="M295.562 617.875C295.562 617.875 299.953 633.472 301.557 642.494C310.742 645.706 315.652 646.999 325.519 647.753C324.88 636.59 326.09 620.736 326.09 620.736L295.562 617.875Z" fill="#DB7847"/>
<path d="M298.748 635.679C300.221 643.924 301.723 652.372 302.08 654.522C302.825 659.016 295.63 661.342 287.602 665.462C281.581 668.551 276.376 675.515 285.629 677.202C294.882 678.889 326.944 679.406 328.206 673.882C328.897 670.855 324.76 659.138 326.553 637.932C316.689 637.175 308.632 636.721 298.748 635.679Z" fill="#6B1B47"/>
<g style="mix-blend-mode:multiply" opacity="0.8">
<path d="M281.321 672.4C286.54 675.492 301.592 675.164 308.969 674.835C317.517 674.453 325.071 673.074 328.097 670.738C328.286 672.186 328.357 673.234 328.211 673.879C326.95 679.403 294.891 678.886 285.635 677.199C281.321 676.411 280.15 674.478 280.739 672.326L281.321 672.4Z" fill="#843547"/>
</g>
<path d="M358.974 437.04C358.974 437.04 346.335 439.738 331.88 448.06C314.813 457.887 303.95 465.347 298.263 470.817C292.079 476.77 290.528 482.097 294.123 488.381C299.347 497.517 315.727 489.218 329.81 481.677C342.92 474.663 353.972 468.659 353.972 468.659C353.972 468.659 356.013 452.334 358.974 437.04Z" fill="#DB7847"/>
<g style="mix-blend-mode:multiply" opacity="0.5">
<path d="M298.263 470.817C303.95 465.347 314.822 457.887 331.88 448.06C332.872 447.489 333.852 446.945 334.821 446.43C331.135 451.326 328.166 460.022 330.538 460.511C340.862 454.409 347.229 452.719 356.493 451.2C354.931 460.967 353.969 468.659 353.969 468.659C353.969 468.659 342.918 474.654 329.808 481.677C315.724 489.217 299.345 497.508 294.12 488.381C290.528 482.097 292.079 476.77 298.263 470.817Z" fill="#C5988A"/>
</g>
<path d="M435.397 445.099C435.397 445.099 422.227 439.335 412.968 436.591C408.029 435.129 408.528 429.334 412.283 428.708C412.283 428.708 397.542 430.079 387.947 424.937C387.947 424.937 390.516 431.369 384.175 432.137C372.864 433.508 365.332 435.726 365.332 435.726C365.332 435.726 361.578 463.882 395.992 469.515C430.406 475.148 435.397 445.099 435.397 445.099Z" fill="#DB7847"/>
<g style="mix-blend-mode:multiply" opacity="0.5">
<path d="M368.387 434.932C373.593 433.704 378.864 432.771 384.175 432.137C390.51 431.369 387.947 424.937 387.947 424.937C397.542 430.076 412.283 428.708 412.283 428.708C408.528 429.334 408.029 435.129 412.968 436.591C422.227 439.335 435.397 445.099 435.397 445.099C435.397 445.099 435.397 445.162 435.362 445.279C429.31 446.615 421.193 448.579 402.684 446.863C383.085 445.062 376.475 440.799 368.387 434.932Z" fill="#C5988A"/>
</g>
<path d="M448.41 513.334C444.03 498.939 439.183 484.096 438.086 475.847C436.499 463.888 439.465 446.036 439.465 446.036C439.465 446.036 436.459 444.128 435.051 444.28C435.051 444.28 422.132 463.554 391.473 458.755C370.037 455.4 365.207 435.364 365.207 435.364C365.207 435.364 360.67 436.114 358.794 437.313C358.794 437.313 350.189 514.533 340.18 530.127C330.17 545.721 312.586 550.294 306.328 574.885C300.07 599.475 297.572 613.744 293.195 621.955C290.528 626.957 323.138 633.292 337.53 635.088C351.922 636.884 363.334 638.682 391.49 637.483C419.646 636.284 444.047 633.883 456.564 635.685C469.08 637.486 494.729 632.084 500.362 621.29C500.362 621.29 500.362 619.491 495.983 617.09C491.603 614.689 488.474 608.094 486.596 588.303C485.482 576.555 475.824 557.246 464.349 542.318C454.043 528.916 450.191 519.172 448.41 513.334Z" fill="white"/>
<g style="mix-blend-mode:multiply">
<path d="M358.78 437.302C360.656 436.103 365.192 435.352 365.192 435.352C365.192 435.352 367.725 445.816 377.218 452.885C376.337 453.45 375.397 453.915 374.414 454.272C368.319 451.021 363.85 445.422 360.516 439.295C361.195 444.04 362.888 448.788 364.227 454.929C361.705 454.492 359.236 453.793 356.859 452.845C358.083 443.549 358.78 437.302 358.78 437.302Z" fill="#DED4E7"/>
</g>
<g style="mix-blend-mode:multiply">
<path d="M400.474 538.458C422.372 540.502 443.905 544.539 455.168 567.065C460.307 577.343 473.003 606.489 473.565 634.691C473.639 634.751 473.719 634.808 473.796 634.862C467.373 636.024 461.092 636.321 456.546 635.667C444.03 633.866 419.628 636.267 391.472 637.466C363.316 638.665 351.902 636.869 337.513 635.071C323.124 633.272 290.511 626.937 293.178 621.938C297.557 613.727 302.839 598.961 309.097 574.371C312.523 560.952 329.239 547.511 344.713 543.425C360.658 539.217 394.093 537.647 400.474 538.458Z" fill="#DED4E7"/>
</g>
<path d="M360.302 437.608C360.637 437.45 360.949 437.247 361.229 437.005C364.601 438.296 372.333 441.659 376.178 446.687C376.178 446.687 375.819 450.635 373.229 452.345C373.229 452.345 363.228 443.024 360.302 437.608Z" fill="white"/>
<path d="M356.77 438.247C357.581 438.313 358.38 438.101 359.162 437.939C359.448 442.09 359.545 447.914 357.672 452.214C357.672 452.214 353.912 453.676 351.591 452.394C351.591 452.376 354.769 444.36 356.77 438.247Z" fill="white"/>
<path d="M360.461 434.975C361.01 433.633 364.907 430.778 366.266 429.942C367.625 429.105 371.262 432.64 371.088 436.314C370.914 439.989 361.281 437.134 361.281 437.134C361.281 437.134 359.91 436.314 360.461 434.975Z" fill="white"/>
<g style="mix-blend-mode:multiply">
<path d="M360.462 434.975C360.718 434.489 361.058 434.051 361.467 433.682C361.244 434.97 361.669 436.309 362.466 437.448C361.743 437.271 361.281 437.134 361.281 437.134C361.281 437.134 359.911 436.314 360.462 434.975Z" fill="#DED4E7"/>
</g>
<path d="M361.783 436.914C361.783 436.914 367.316 438.378 369.777 437.693C371.362 437.254 370.734 434.838 370.377 434.647C370.02 434.456 367.522 434.761 366.114 435.061C364.707 435.361 361.646 436.634 361.783 436.914Z" fill="#DED4E7"/>
<path d="M358.275 435.877C357.292 434.81 352.644 433.491 351.08 433.177C349.515 432.863 347.334 437.459 348.776 440.831C350.218 444.203 358.257 438.187 358.257 438.187C358.257 438.187 359.265 436.942 358.275 435.877Z" fill="white"/>
<path d="M357.704 438.153C357.704 438.153 353.024 441.453 350.472 441.67C348.833 441.81 348.582 439.326 348.85 439.021C349.119 438.715 351.557 438.142 352.99 437.927C354.423 437.713 357.747 437.845 357.704 438.153Z" fill="#DED4E7"/>
<path d="M361.701 437.165C361.701 437.165 361.512 434.987 361.024 434.401C360.168 433.902 357.898 434.521 357.464 435.324C357.03 436.126 356.984 437.984 357.501 438.153C358.252 438.404 361.292 438.27 361.701 437.165Z" fill="white"/>
<path d="M318.548 350.796L329.555 348.464C329.685 348.437 329.812 348.52 329.84 348.649L330.421 351.395C330.449 351.525 330.366 351.652 330.236 351.679L319.229 354.011C319.1 354.038 318.972 353.956 318.945 353.826L318.363 351.08C318.336 350.951 318.419 350.824 318.548 350.796Z" fill="#330000"/>
<path d="M314.65 353.205C315.098 355.318 317.38 356.631 319.746 356.123C322.113 355.615 323.669 353.505 323.221 351.392C322.773 349.28 320.492 347.966 318.125 348.472C315.758 348.977 314.205 351.093 314.65 353.205Z" fill="#330000"/>
<path d="M346.057 350.466L335.148 353.222C335.02 353.254 334.889 353.177 334.857 353.048L334.169 350.327C334.137 350.199 334.215 350.068 334.343 350.036L345.252 347.28C345.38 347.247 345.511 347.325 345.543 347.454L346.231 350.174C346.263 350.303 346.185 350.433 346.057 350.466Z" fill="#330000"/>
<path d="M349.821 347.758C350.352 349.851 348.879 352.04 346.532 352.611C344.185 353.182 341.858 351.986 341.33 349.891C340.802 347.795 342.272 345.608 344.619 345.037C346.966 344.466 349.293 345.662 349.821 347.758Z" fill="#330000"/>
<path d="M349.026 361.574L338.117 364.33C337.988 364.363 337.858 364.285 337.826 364.156L337.138 361.435C337.106 361.307 337.183 361.177 337.312 361.144L348.221 358.388C348.349 358.355 348.479 358.433 348.512 358.562L349.199 361.283C349.232 361.411 349.154 361.541 349.026 361.574Z" fill="#330000"/>
<path d="M344.288 361.02C343.759 358.925 345.231 356.747 347.576 356.155C349.921 355.562 352.251 356.779 352.78 358.874C353.31 360.968 351.837 363.146 349.492 363.739C347.147 364.331 344.817 363.114 344.288 361.02Z" fill="#330000"/>
<path d="M320.82 363.206L331.827 360.875C331.956 360.847 332.084 360.93 332.111 361.06L332.693 363.805C332.72 363.935 332.637 364.062 332.508 364.089L321.501 366.421C321.371 366.449 321.244 366.366 321.216 366.236L320.635 363.491C320.607 363.361 320.69 363.234 320.82 363.206Z" fill="#330000"/>
<path d="M316.92 365.616C317.368 367.729 319.649 369.042 322.016 368.534C324.383 368.026 325.939 365.916 325.491 363.803C325.042 361.69 322.761 360.377 320.394 360.882C318.028 361.388 316.475 363.503 316.92 365.616Z" fill="#330000"/>
<path d="M320.238 334.833L337.803 330.922C338.239 330.825 338.67 331.1 338.767 331.535L339.182 333.4C339.279 333.835 339.005 334.267 338.569 334.364L321.004 338.274C320.569 338.371 320.137 338.097 320.04 337.661L319.625 335.797C319.528 335.361 319.802 334.93 320.238 334.833Z" fill="#5A2E05"/>
<path d="M335.275 330.023L321.625 332.786C321.625 332.786 321.625 338.022 322.053 341.003C322.085 341.157 322.148 341.304 322.238 341.433C322.327 341.563 322.442 341.673 322.575 341.757C322.709 341.841 322.857 341.898 323.013 341.923C323.169 341.949 323.328 341.943 323.481 341.905L337.964 338.893C338.072 338.877 338.175 338.838 338.266 338.778C338.357 338.719 338.434 338.64 338.492 338.548C338.549 338.456 338.587 338.352 338.601 338.244C338.614 338.136 338.605 338.026 338.572 337.922C337.893 336.007 336.137 331.202 335.275 330.023Z" fill="#5A2E05"/>
<path d="M468.001 455.917C480.883 457.41 494.755 444.066 498.387 433.648C500.005 429.008 501.895 415.772 496.888 409.8C502.072 407.436 507.7 402.403 510.166 397.238C510.91 395.654 511.287 393.923 511.271 392.173C521.392 390.885 533.757 401.737 538.394 410.14C546.054 424.009 544.041 443.475 535.142 455.9C534.607 456.648 534.049 457.36 533.469 458.038C530.614 459.002 527.69 459.745 524.721 460.262C527.773 453.715 529.186 446.367 528.313 439.166C528.313 440.42 528.627 441.67 527.999 442.921C527.062 445.11 527.062 447.303 526.123 449.487C524.826 453.705 522.69 457.616 519.842 460.987L519.245 461.061C513.612 461.846 506.247 461.555 500.599 461.561C503.586 457.278 505.87 451.954 506.107 446.983C503.223 454.321 499.914 459.26 492.151 461.093C483.706 460.622 474.773 458.809 468.638 456.465C468.421 456.288 468.192 456.102 468.001 455.917Z" fill="#3C2415"/>
<g style="mix-blend-mode:multiply" opacity="0.5">
<path d="M523.294 403.816C523.605 407.256 526.734 411.325 524.233 413.2C522.354 414.765 521.092 409.774 518.6 408.51C514.534 405.066 513.595 407.57 513.906 409.76C514.846 413.186 520.296 429.08 513.906 444.485C512.941 446.815 511.405 443.549 511.091 441.984C512.031 431.033 512.656 420.398 506.086 414.454C504.271 412.766 500.454 412.889 499.52 415.784C499.029 413.48 498.19 411.387 496.865 409.806C502.049 407.442 507.677 402.408 510.143 397.244C510.887 395.66 511.264 393.929 511.248 392.179C521.369 390.891 533.734 401.743 538.371 410.145C540.625 414.299 542.095 418.832 542.708 423.518C542.367 423.528 542.033 423.421 541.763 423.213C538.636 414.765 532.692 405.38 523.294 403.816Z" fill="#3C2415"/>
</g>
<path d="M505.593 381.082C505.593 381.082 514.229 384.188 514.809 390.928C515.497 398.985 506.078 412.724 497.679 410.385C495.343 409.734 492.283 408.073 490.541 404.027C490.53 404.027 506.089 390.854 505.593 381.082Z" fill="#FF5CCD"/>
<g style="mix-blend-mode:multiply" opacity="0.6">
<g style="mix-blend-mode:multiply" opacity="0.6">
<path d="M505.592 381.082C507.322 381.758 508.949 382.675 510.423 383.805C510.466 386.74 508.49 390.534 506.492 393.798C505.022 396.447 499.429 403.068 502.078 405.278C503.791 406.24 507.377 405.278 509.786 404.39C506.455 408.624 501.938 411.559 497.678 410.385C495.343 409.734 492.283 408.073 490.541 404.027C490.53 404.027 506.089 390.854 505.592 381.082Z" fill="#D15CA3"/>
</g>
</g>
<g style="mix-blend-mode:multiply">
<path d="M433.572 446.364C434.283 445.664 435.032 445.002 435.814 444.383C437.221 444.231 439.465 446.024 439.465 446.024C438.754 449.423 438.249 452.862 437.952 456.322C437.061 453.527 437.064 451.055 437.17 448.24C436.745 448.158 436.333 448.023 435.942 447.837C433.841 452.925 427.991 457.364 426.272 457.887C424.559 457.261 421.299 455.714 421.153 453.658C427.54 450.524 431.591 448.091 433.572 446.364Z" fill="#DED4E7"/>
</g>
<path d="M411.806 533.981C409.79 524.322 410.824 514.507 417.887 509.208C419.831 510.706 422.248 511.458 424.699 511.329C423.82 525.379 425.099 529.747 425.099 529.747C416.077 534.047 415.777 540.191 420.12 549.224C416.314 545.861 413.564 541.435 411.806 533.981Z" fill="#4B2505"/>
<path d="M398.784 660.303C451.816 648.412 455.176 611.397 454.882 596.774C459.57 605.95 461.52 629.983 449.566 647.827C438.249 664.72 421.741 674.95 401.459 679.072C380.775 683.266 357.629 680.999 342.986 673.391C319.224 661.046 314.573 641.603 313.694 624.973C318.09 646.762 342.521 672.928 398.784 660.303Z" fill="#4B2505"/>
<g style="mix-blend-mode:multiply" opacity="0.4">
<path d="M443.702 634.274C454.054 620.328 455.048 605.005 454.882 596.774C459.57 605.95 461.52 629.983 449.566 647.827C448.053 650.084 446.419 652.257 444.67 654.336C444.839 647.634 444.516 640.929 443.702 634.274V634.274Z" fill="#694405"/>
</g>
<g style="mix-blend-mode:multiply" opacity="0.4">
<path d="M343.389 658.685C344.401 664.506 345.996 670.211 348.148 675.715C346.387 675.033 344.664 674.257 342.986 673.391C319.224 661.046 314.573 641.603 313.694 624.973C316.22 637.5 325.374 651.47 343.389 658.685Z" fill="#694405"/>
</g>
<path d="M318.325 522.512C321.836 525.69 330.082 530.284 332.203 537.458C334.327 544.21 335.58 549.132 332.203 555.73C328.979 546.269 317.688 545.992 317.688 545.992C317.688 545.992 316.443 535.037 311.293 527.115C315.418 526.224 316.426 525.005 318.325 522.512Z" fill="#4B2505"/>
<path d="M424.405 511.621C424.405 511.621 416.788 511.906 416.788 498.719C416.788 485.532 411.349 446.213 354.369 455.703C306.405 463.697 312.646 501.982 316.86 513.622C320.089 522.541 310.999 527.386 310.999 527.386C310.999 527.386 330.241 530.526 330.241 553.869C330.241 572.823 313.617 577.197 313.617 577.197C313.617 577.197 321.548 582.439 319.204 593.907C316.86 605.376 301.1 633.398 333.222 655.201C363.662 675.863 427.891 666.499 450.194 631.873C461.82 613.824 458.325 600.585 451.953 588.46C446.14 577.4 437.081 568.232 441.695 556.059C441.695 556.059 430.846 562.368 420.597 546.597C411.303 532.311 412.977 517.065 424.405 511.621Z" fill="#8C4500"/>
<g style="mix-blend-mode:multiply" opacity="0.58">
<path d="M375.607 664.363C383.809 664.35 391.976 663.295 399.912 661.223C409.429 658.697 418.521 654.777 426.892 649.591C435.899 643.967 442.88 637.398 447.039 630.594C457.651 613.282 455.716 601.519 449.546 589.197C448.01 586.13 446.14 583.375 444.33 580.709C439.762 573.98 435.808 568.17 438.783 559.922C438.806 559.85 438.81 559.774 438.796 559.701C438.782 559.628 438.749 559.559 438.7 559.502C438.652 559.445 438.59 559.401 438.52 559.374C438.45 559.348 438.374 559.34 438.3 559.351C438.269 559.351 435.071 559.816 430.997 558.331C427.24 556.964 421.941 553.609 418.033 545.395C414.21 537.361 412.474 530.467 412.876 524.905C413.296 519.141 416.017 514.955 421.002 512.466C421.092 512.42 421.163 512.345 421.204 512.253C421.246 512.161 421.254 512.058 421.229 511.96C421.204 511.863 421.146 511.777 421.065 511.717C420.984 511.656 420.885 511.626 420.785 511.629C420.693 511.629 418.983 511.655 417.319 510.042C415.286 508.069 414.213 504.443 414.213 499.558C414.213 492.866 412.834 476.147 400.072 465.398C389.754 456.713 374.428 454.055 354.523 457.501C344.099 459.306 335.506 462.926 328.974 468.262C323.341 472.861 319.435 478.654 317.679 485.006C314.33 497.114 318.424 508.988 320.175 514.079C322.987 522.244 315.355 525.562 315.036 525.702C314.948 525.734 314.873 525.794 314.822 525.872C314.771 525.95 314.745 526.042 314.75 526.136C314.757 526.227 314.791 526.314 314.849 526.385C314.906 526.456 314.985 526.507 315.073 526.532C315.116 526.532 319.512 527.809 323.84 531.774C327.837 535.426 332.582 542.195 332.582 553.701C332.582 571.579 318.484 577.58 318.342 577.637C318.273 577.665 318.213 577.71 318.167 577.768C318.12 577.825 318.089 577.893 318.076 577.966C318.062 578.038 318.067 578.113 318.091 578.184C318.114 578.254 318.154 578.317 318.208 578.368C318.267 578.425 324.311 584.272 322.222 595.004C321.859 596.874 321.105 599.135 320.223 601.756C318.042 608.288 315.327 616.416 316.198 625.33C317.231 635.913 323.05 644.852 334.007 652.663C341.944 658.325 352.319 662.119 364.005 663.638C367.852 664.13 371.728 664.372 375.607 664.363V664.363ZM437.729 560.278C435.04 568.612 439.2 574.736 443.599 581.208C445.392 583.849 447.248 586.579 448.755 589.594C454.794 601.667 456.686 613.184 446.286 630.149C437.164 645.026 416.308 656.055 399.689 660.386C387.984 663.435 375.684 664.252 364.13 662.753C352.576 661.254 342.355 657.511 334.532 651.932C323.803 644.278 318.099 635.548 317.091 625.233C316.235 616.508 318.921 608.477 321.088 602.024C321.973 599.375 322.738 597.085 323.112 595.172C324.982 585.562 320.714 579.807 319.278 578.188C321.829 576.883 324.138 575.153 326.107 573.072C329.476 569.557 333.487 563.342 333.487 553.701C333.487 541.852 328.563 534.858 324.429 531.095C322.06 528.91 319.306 527.186 316.306 526.01C318.476 524.728 323.444 520.902 321.003 513.779C319.29 508.78 315.25 497.074 318.524 485.229C320.323 478.723 327.446 463.074 354.666 458.361C374.305 454.963 389.385 457.553 399.489 466.069C411.971 476.573 413.316 492.983 413.316 499.553C413.316 504.777 414.458 508.526 416.716 510.687C417.48 511.438 418.416 511.989 419.443 512.292C414.901 514.981 412.394 519.192 411.986 524.828C411.572 530.538 413.333 537.59 417.222 545.764C419.457 550.46 423.614 556.613 430.732 559.182C432.968 560.008 435.347 560.38 437.729 560.278Z" fill="#462400"/>
</g>
<path d="M392.044 581.431L371.45 585.599C372.393 590.321 373.903 594.911 375.947 599.269C378.308 604.22 383.758 612.471 386.636 623.134C390.282 636.653 392.212 651.893 393.971 659.061C394.433 660.951 395.355 661.108 398.921 660.415C402.136 659.792 403.047 658.902 402.801 657.1C402.216 652.798 395.304 631.616 393.463 620.807C391.75 610.801 392.366 604.297 392.989 598.575C393.757 591.504 392.989 584.209 392.044 581.431Z" fill="black"/>
<path d="M383.955 538.138L361.581 541.872L333.408 373.262L341.541 371.8L383.955 538.138Z" fill="black"/>
<path d="M417.022 289.476C385.291 290.378 373.363 302.954 365.481 316.658C358.677 328.487 355.845 348.318 348.961 365.211C342.341 381.458 346.963 400.941 367.419 417.457C388.375 434.379 423.454 438.013 447.93 429.131C467.515 422.011 476.038 411.55 483.138 396.439C493.339 374.741 497.778 352.794 488.231 330.023C478.207 306.158 448.752 288.571 417.022 289.476Z" fill="#DB7847"/>
<path opacity="0.8" d="M348.962 365.211C349.607 363.626 350.215 362.019 350.797 360.391C357.757 363.237 363.693 368.123 367.822 374.407C376.706 387.54 374.103 403.919 365.361 415.738C346.663 399.602 342.572 380.899 348.962 365.211Z" fill="url(#paint0_radial_207_28729)"/>
<path opacity="0.8" d="M447.596 405.7C448.85 393.812 457.609 385.053 468.558 381.613C470.398 381.044 472.281 380.622 474.188 380.351C479.218 379.602 484.343 379.795 489.302 380.922C487.576 386.218 485.511 391.398 483.121 396.43C476.517 410.485 468.68 420.512 451.862 427.575C448.61 420.718 446.611 413.58 447.596 405.7Z" fill="url(#paint1_radial_207_28729)"/>
<path opacity="0.8" d="M399.823 389.167C401.439 389.23 405.248 386.749 405.593 383.003C405.879 380.042 398.836 377.929 397.26 379.126C395.684 380.322 396.623 389.038 399.823 389.167Z" fill="url(#paint2_radial_207_28729)"/>
<path d="M397.742 387.965C398.056 388.085 398.208 387.485 398.085 387.168C395.955 381.744 396.709 380.016 397.348 379.477C398.49 378.506 401.202 379.405 403.227 380.653C404.234 381.273 404.974 381.087 405.419 380.824C407.543 379.557 407.361 373.518 407.301 372.319C407.29 372.16 407.218 372.011 407.099 371.904C406.98 371.797 406.824 371.741 406.664 371.748C406.327 371.763 406.461 371.825 406.478 372.162C406.607 374.838 405.907 379.123 404.797 379.78C404.711 379.831 404.451 379.982 403.86 379.62C401.468 378.144 397.759 376.944 396.029 378.406C394.425 379.76 395.064 382.943 396.266 385.789C396.697 386.8 397.12 387.714 397.742 387.965Z" fill="#3C2415"/>
<path d="M375.208 346.713C375.208 346.713 378.348 346.77 380.675 347.681C385.126 349.419 386.619 351.626 386.619 351.626C386.619 351.626 387.995 348.711 386.431 346.699C385.143 345.046 383.758 343.844 380.458 343.59C377.158 343.335 374.62 345.537 375.208 346.713Z" fill="#312415"/>
<path d="M440.767 363.375C440.767 363.375 443.907 363.432 446.234 364.345C450.685 366.081 452.178 368.3 452.178 368.3C452.178 368.3 453.555 365.382 451.99 363.372C450.702 361.716 449.321 360.503 446.02 360.26C442.72 360.017 440.182 362.198 440.767 363.375Z" fill="#312415"/>
<path d="M398.907 407.773C398.907 407.773 400.657 414.288 409.413 414.759C416.893 415.165 420.602 408.972 420.602 408.972L421.833 410.048C420.552 411.895 418.837 413.399 416.839 414.427C414.84 415.455 412.62 415.976 410.373 415.944C401.83 415.898 398.287 410.619 398.907 407.773Z" fill="#371A1A"/>
<path d="M421.907 412.378C421.907 412.378 421.727 409.423 419.109 408.412C419.109 408.412 420.125 406.985 421.844 408.609C424.128 410.753 421.907 412.378 421.907 412.378Z" fill="#371A1A"/>
<path style="mix-blend-mode:multiply" opacity="0.6" d="M427.431 391.105C422.485 384.493 423.799 375.15 430.367 370.236C436.935 365.323 446.269 366.7 451.216 373.312C456.162 379.924 454.848 389.267 448.28 394.181C441.712 399.094 432.378 397.717 427.431 391.105Z" fill="url(#paint3_radial_207_28729)"/>
<path d="M443.159 368.371C442.754 368.545 442.366 370.555 442.152 371.874L441.923 371.811C440.667 371.534 439.368 371.511 438.103 371.743C437.692 370.601 437.007 368.999 436.33 368.774C436.133 369.059 436.536 370.795 436.85 372.014C435.39 372.413 434.005 373.049 432.75 373.896C431.734 372.968 430.241 371.74 429.872 372.183C429.815 372.422 430.883 374.05 431.668 375.038C430.261 376.602 428.833 379.08 429.247 381.281C429.47 380.508 433.013 372.38 440.867 373.522C448.236 374.592 449.94 381.301 450.368 382.732C451.31 378.798 448.424 373.973 443.348 372.225C443.639 370.946 443.925 368.959 443.159 368.371Z" fill="#312415"/>
<path d="M431.044 390.54C427.456 385.745 428.409 378.97 433.171 375.407C437.934 371.844 444.702 372.843 448.29 377.638C451.877 382.434 450.924 389.209 446.162 392.772C441.4 396.335 434.631 395.336 431.044 390.54Z" fill="white"/>
<path d="M432.282 375.723C426.952 380.716 427.857 387.714 432.082 391.922C433.827 393.663 437.698 394.411 440.387 393.041C445.692 390.337 447.031 380.41 441.272 376.054C436.904 372.733 434.612 373.724 432.282 375.723Z" fill="#312415"/>
<path d="M438.906 380.099C438.544 380.463 438.342 380.956 438.342 381.468C438.342 381.981 438.544 382.473 438.906 382.837C439.084 383.017 439.296 383.16 439.53 383.257C439.763 383.354 440.014 383.404 440.267 383.404C440.521 383.404 440.771 383.354 441.005 383.257C441.239 383.16 441.451 383.017 441.629 382.837C441.99 382.473 442.193 381.98 442.193 381.467C442.193 380.954 441.99 380.461 441.629 380.096C441.451 379.917 441.239 379.774 441.005 379.677C440.771 379.579 440.52 379.529 440.267 379.53C440.013 379.53 439.763 379.58 439.529 379.678C439.295 379.776 439.083 379.919 438.906 380.099V380.099Z" fill="white"/>
<path style="mix-blend-mode:multiply" opacity="0.6" d="M362.673 373.265C357.727 366.653 359.041 357.31 365.609 352.397C372.177 347.483 381.511 348.86 386.458 355.472C391.404 362.084 390.09 371.428 383.522 376.341C376.954 381.255 367.62 379.877 362.673 373.265Z" fill="url(#paint4_radial_207_28729)"/>
<path d="M378.399 350.539C377.994 350.713 377.606 352.723 377.392 354.042C377.315 354.022 377.24 353.996 377.163 353.979C375.907 353.701 374.608 353.678 373.343 353.91C372.932 352.768 372.247 351.167 371.57 350.941C371.373 351.227 371.776 352.962 372.09 354.182C370.63 354.58 369.245 355.216 367.99 356.063C366.974 355.135 365.481 353.907 365.112 354.35C365.055 354.587 366.123 356.217 366.908 357.205C365.501 358.77 364.073 361.248 364.487 363.449C364.71 362.672 368.253 354.547 376.107 355.689C383.476 356.76 385.177 363.469 385.608 364.899C386.55 360.965 383.664 356.14 378.588 354.393C378.876 353.114 379.173 351.127 378.399 350.539Z" fill="#312415"/>
<path d="M366.285 372.704C362.698 367.908 363.651 361.133 368.413 357.57C373.176 354.007 379.944 355.007 383.532 359.802C387.119 364.597 386.166 371.373 381.404 374.935C376.642 378.498 369.873 377.499 366.285 372.704Z" fill="white"/>
<path d="M367.522 357.876C362.192 362.869 363.097 369.867 367.322 374.075C369.066 375.817 372.938 376.562 375.627 375.194C380.932 372.491 382.271 362.564 376.512 358.207C372.144 354.901 369.852 355.878 367.522 357.876Z" fill="#312415"/>
<path d="M374.146 362.267C373.784 362.631 373.582 363.123 373.582 363.636C373.582 364.149 373.784 364.641 374.146 365.005C374.324 365.185 374.536 365.327 374.77 365.425C375.004 365.522 375.254 365.572 375.507 365.572C375.761 365.572 376.011 365.522 376.245 365.425C376.479 365.327 376.691 365.185 376.869 365.005C377.229 364.638 377.429 364.145 377.426 363.632C377.423 363.118 377.218 362.627 376.855 362.264C376.677 362.086 376.466 361.945 376.233 361.849C376 361.753 375.751 361.704 375.5 361.704C375.248 361.705 374.999 361.754 374.767 361.851C374.534 361.947 374.323 362.089 374.146 362.267V362.267Z" fill="white"/>
<path d="M394.211 671.09C394.513 672.583 397.223 673.294 400.263 672.68C403.304 672.066 405.522 670.356 405.219 668.863C404.917 667.369 402.207 666.659 399.17 667.272C396.132 667.886 393.911 669.596 394.211 671.09Z" fill="black"/>
<path d="M403.07 668.837L411.983 720.538C411.983 720.538 410.964 722.822 408.417 721.301L396.32 670.239C396.32 670.239 397.034 669.16 399.629 668.583C401.922 668.075 402.813 668.583 403.07 668.837Z" fill="#AEA9A8"/>
<g style="mix-blend-mode:multiply" opacity="0.4">
<path d="M410.15 719.539L401.328 668.36C402.396 668.36 402.89 668.646 403.07 668.831L411.983 720.532C411.983 720.532 410.964 722.816 408.417 721.295L408.303 720.818C409.602 720.772 410.15 719.539 410.15 719.539Z" fill="#AEA9A8"/>
</g>
<path d="M382.765 554.063H382.833C382.871 554.055 382.907 554.039 382.939 554.017C382.971 553.995 382.998 553.966 383.018 553.933C383.039 553.9 383.052 553.863 383.057 553.824C383.063 553.786 383.061 553.747 383.05 553.709L340.414 372.011C340.405 371.974 340.389 371.938 340.366 371.907C340.344 371.876 340.315 371.849 340.283 371.829C340.25 371.809 340.214 371.795 340.176 371.789C340.138 371.783 340.099 371.784 340.061 371.793C340.024 371.801 339.988 371.818 339.957 371.84C339.926 371.863 339.899 371.891 339.879 371.924C339.859 371.957 339.845 371.993 339.839 372.031C339.833 372.069 339.834 372.108 339.843 372.145L382.479 553.835C382.493 553.9 382.529 553.959 382.581 554.001C382.633 554.042 382.698 554.064 382.765 554.063V554.063Z" fill="#FFF4C1"/>
<path d="M378.362 553.823H378.425C378.464 553.816 378.5 553.801 378.533 553.78C378.565 553.758 378.593 553.73 378.614 553.697C378.635 553.664 378.649 553.627 378.656 553.588C378.662 553.55 378.66 553.51 378.651 553.472L338.735 372.368C338.718 372.292 338.671 372.226 338.606 372.185C338.54 372.143 338.461 372.13 338.385 372.147C338.309 372.164 338.244 372.21 338.202 372.276C338.161 372.341 338.147 372.421 338.164 372.497L378.074 553.589C378.086 553.656 378.122 553.717 378.175 553.759C378.228 553.802 378.294 553.825 378.362 553.823V553.823Z" fill="#FFF4C1"/>
<path d="M374.006 554.8H374.066C374.104 554.793 374.141 554.778 374.173 554.757C374.206 554.736 374.234 554.708 374.255 554.675C374.277 554.642 374.291 554.606 374.298 554.567C374.304 554.529 374.303 554.489 374.294 554.451L336.816 372.685C336.809 372.647 336.793 372.612 336.772 372.58C336.75 372.549 336.722 372.522 336.69 372.501C336.658 372.48 336.622 372.465 336.585 372.458C336.547 372.451 336.508 372.451 336.471 372.459C336.433 372.467 336.398 372.482 336.366 372.504C336.335 372.526 336.308 372.553 336.287 372.585C336.266 372.617 336.251 372.653 336.244 372.691C336.237 372.729 336.238 372.767 336.245 372.805L373.72 554.571C373.733 554.637 373.769 554.695 373.822 554.737C373.874 554.779 373.939 554.801 374.006 554.8V554.8Z" fill="#FFF4C1"/>
<path d="M369.361 557.138C369.379 557.141 369.397 557.141 369.415 557.138C369.453 557.132 369.49 557.118 369.523 557.097C369.556 557.076 369.584 557.049 369.606 557.017C369.628 556.985 369.643 556.949 369.65 556.911C369.658 556.873 369.657 556.833 369.649 556.795L335.006 372.996C334.992 372.92 334.947 372.854 334.883 372.811C334.852 372.789 334.816 372.774 334.779 372.767C334.741 372.759 334.703 372.759 334.665 372.766C334.628 372.774 334.592 372.788 334.56 372.809C334.528 372.83 334.501 372.858 334.48 372.889C334.458 372.921 334.443 372.957 334.436 372.994C334.428 373.031 334.428 373.07 334.435 373.108L369.075 556.898C369.086 556.966 369.121 557.027 369.173 557.071C369.226 557.115 369.292 557.139 369.361 557.138V557.138Z" fill="#FFF4C1"/>
<path d="M335.078 432.434C335.078 432.434 322.43 470.603 313.928 485.903C310.362 492.321 299.676 496.378 293.963 488.044C288.25 479.71 289.226 469.646 297.529 455.243C306.314 439.98 324.3 418.79 324.3 418.79C324.3 418.79 331.723 399.151 345.093 399.785C345.093 399.785 359.654 408.064 358.837 411.399C358.02 414.733 346.615 406.345 346.101 407.947C345.587 409.549 359.556 415.281 357.718 418.453C355.879 421.625 344.671 413.057 343.943 413.143C343.214 413.229 355.791 420.897 354.146 424.489C352.502 428.08 340.816 417.942 340.397 418.142C339.977 418.342 350.789 426.071 350.104 428.957C349.487 431.526 345.227 428.943 341.747 426.993C341.747 426.993 340.151 432.868 335.078 432.434Z" fill="#DB7847"/>
<g style="mix-blend-mode:multiply" opacity="0.5">
<path d="M292.039 467.028C292.107 468.77 292.513 476.253 295.179 481.517C298.066 487.199 303.407 490.636 308.432 491.156C303.784 493.648 297.757 493.603 293.946 488.044C289.952 482.191 289.244 475.485 292.039 467.028Z" fill="#C5988A"/>
</g>
<g style="mix-blend-mode:multiply" opacity="0.5">
<path d="M482.304 523.563C482.267 523.426 482.25 523.349 482.25 523.349C482.25 523.349 482.27 523.423 482.304 523.563Z" fill="#C5988A"/>
</g>
<g style="mix-blend-mode:multiply" opacity="0.5">
<path d="M471.618 519.486C471.43 519.798 471.238 520.103 471.047 520.397C471.227 520.094 471.418 519.789 471.618 519.486Z" fill="#C5988A"/>
</g>
<g style="mix-blend-mode:multiply" opacity="0.5">
<path d="M476.317 526.784C475.823 525.313 475.535 524.263 475.535 524.263C475.535 524.263 475.901 525.325 476.317 526.784Z" fill="#C5988A"/>
</g>
<path d="M417.833 566.371C418.852 565.123 421.259 564.872 422.932 566.371C424.662 567.933 424.562 571.51 421.79 573.357C417.756 576.027 414.395 573.979 412.865 571.11C410.718 567.088 408.802 560.041 407.766 555.642C406.236 549.152 404.448 543.414 401.645 540.67C399.932 539.006 396.926 538.426 396.035 540.422C397.177 540.296 398.073 541.544 398.456 542.791C398.202 544.79 396.532 545.264 395.141 545.035C393.611 544.787 392.757 543.151 393.103 541.295C393.611 538.549 398.33 536.802 401.008 538.049C405.259 540.031 406.872 543.04 408.657 547.782C410.972 553.934 412.137 561.669 413.759 566.871C414.207 568.315 415.16 572.483 417.964 572.732C420.494 572.957 421.536 569.489 419.751 569.363C417.833 569.614 416.939 567.741 417.833 566.371Z" fill="black"/>
<path d="M343.654 580.509C342.189 579.798 339.888 580.575 339.032 582.616C338.135 584.746 339.774 587.955 343.086 588.474C347.897 589.228 350.058 585.985 350.206 582.764C350.415 578.231 349.113 571.059 348.154 566.636C346.726 560.121 345.87 554.183 347.243 550.537C348.065 548.324 350.549 546.54 352.219 547.993C351.126 548.353 350.854 549.852 351.046 551.134C352.139 552.847 353.858 552.578 355.02 551.799C356.299 550.942 356.37 549.104 355.254 547.562C353.607 545.278 348.576 545.652 346.689 547.89C343.688 551.442 343.526 554.837 343.954 559.881C344.508 566.417 346.792 573.908 347.568 579.295C347.782 580.792 348.71 584.963 346.284 586.347C344.088 587.598 341.647 584.883 343.212 584.032C345.053 583.45 345.056 581.383 343.654 580.509Z" fill="black"/>
<path d="M344.457 371.383C344.457 371.383 333.907 374.115 330.581 374.523C330.267 372.959 325.888 344.335 325.888 344.335L336.166 341.971L344.457 371.383Z" fill="#9A3B00"/>
<path d="M344.457 371.383C344.457 371.383 333.907 374.115 330.581 374.523C330.267 372.959 325.888 344.335 325.888 344.335L336.166 341.971L344.457 371.383Z" fill="#9A3B00"/>
<path d="M333.487 342.605L341.313 372.188C338.995 372.759 335.831 373.527 333.373 374.038L328.331 343.79L333.487 342.605Z" fill="#381800"/>
<path d="M336.046 343.081L326.176 345.254C325.968 345.3 325.754 345.3 325.546 345.255C325.339 345.209 325.144 345.119 324.975 344.99C324.806 344.862 324.667 344.698 324.568 344.51C324.468 344.323 324.411 344.116 324.4 343.904C324.223 340.643 323.829 333.511 323.543 329.303C323.517 329.033 323.574 328.761 323.706 328.524C324.848 326.565 330.558 325.295 331.894 326.999C331.948 327.078 331.99 327.165 332.017 327.256L337.116 341.146C337.188 341.343 337.217 341.553 337.201 341.762C337.185 341.971 337.124 342.174 337.022 342.358C336.921 342.541 336.781 342.701 336.613 342.826C336.444 342.95 336.251 343.038 336.046 343.081V343.081Z" fill="#9A3B00"/>
<g style="mix-blend-mode:multiply" opacity="0.4">
<path d="M336.205 338.693L337.107 341.146C337.18 341.342 337.209 341.552 337.193 341.76C337.177 341.969 337.117 342.172 337.017 342.355C336.916 342.539 336.777 342.698 336.61 342.824C336.442 342.949 336.25 343.037 336.045 343.081L326.176 345.254C325.968 345.3 325.754 345.3 325.546 345.255C325.339 345.209 325.144 345.119 324.975 344.99C324.806 344.862 324.667 344.698 324.568 344.51C324.468 344.323 324.411 344.116 324.4 343.904C324.357 343.139 324.306 342.156 324.243 341.049C326.664 343.435 334.863 341.708 336.205 338.693Z" fill="#381800"/>
</g>
<path style="mix-blend-mode:screen" d="M432.704 648.209C432.801 648.209 432.894 648.179 432.973 648.124C440.804 642.594 446.84 636.418 450.916 629.74C454.1 624.62 456.144 618.876 456.912 612.896C458.137 602.958 455.199 596.097 455.059 595.809C455.006 595.7 454.913 595.616 454.799 595.574C454.686 595.532 454.56 595.536 454.45 595.585C454.339 595.634 454.251 595.724 454.205 595.836C454.159 595.947 454.158 596.073 454.203 596.186C454.231 596.254 457.186 603.137 455.978 612.833C454.865 621.781 449.872 635.034 432.425 647.359C432.34 647.416 432.275 647.499 432.242 647.596C432.209 647.693 432.209 647.798 432.241 647.896C432.274 647.993 432.337 648.077 432.422 648.134C432.506 648.192 432.608 648.221 432.71 648.215L432.704 648.209Z" fill="url(#paint5_radial_207_28729)"/>
<path d="M405.511 705.249C405.554 705.255 405.598 705.255 405.642 705.249C405.722 705.233 405.799 705.2 405.866 705.153C405.934 705.107 405.992 705.047 406.036 704.978C406.081 704.909 406.111 704.832 406.126 704.751C406.141 704.67 406.139 704.587 406.122 704.507L399.13 672.209C399.113 672.128 399.08 672.051 399.033 671.983C398.987 671.915 398.927 671.857 398.858 671.812C398.789 671.767 398.711 671.736 398.63 671.722C398.549 671.707 398.466 671.708 398.385 671.726C398.304 671.743 398.228 671.777 398.16 671.824C398.092 671.871 398.035 671.931 397.99 672.001C397.946 672.07 397.916 672.148 397.902 672.229C397.888 672.31 397.89 672.394 397.908 672.474L404.9 704.77C404.932 704.907 405.011 705.029 405.122 705.116C405.232 705.203 405.37 705.25 405.511 705.249V705.249Z" fill="white"/>
<path d="M399.064 666.87C402.133 666.248 404.865 666.956 405.168 668.449C405.185 668.543 405.194 668.638 405.194 668.734C404.534 667.509 402.027 666.973 399.235 667.538C396.38 668.109 394.228 669.648 394.202 671.064C394.134 670.945 394.085 670.817 394.056 670.684C393.754 669.217 395.995 667.504 399.064 666.87Z" fill="#5E5959"/>
<path d="M535.307 405.917C538.097 408.452 539.83 411.816 541.272 415.247C542.95 419.244 544.501 423.347 545.303 427.621C546.762 435.415 545.965 444.066 542.591 451.286C542.268 451.971 541.254 451.375 541.571 450.692C544.88 443.617 545.6 435.024 544.064 427.413C543.287 423.55 541.9 419.844 540.406 416.209C538.979 412.741 537.289 409.309 534.474 406.748C533.903 406.237 534.759 405.406 535.307 405.917Z" fill="#3C2415"/>
<g style="mix-blend-mode:multiply" opacity="0.5">
<path d="M365.481 316.658C373.363 302.954 385.291 290.378 417.022 289.476C448.752 288.574 478.207 306.158 488.217 330.017C497.764 352.794 493.316 374.729 483.124 396.438C477.916 407.519 471.943 416.092 461.409 422.687C460.615 421.26 461.123 420.586 460.623 419.119C460.432 416.612 461.765 411.981 463.71 406.391C465.446 399.448 466.833 395.736 467.567 391.925C468.963 384.69 470.002 378.335 469.497 374.952C467.181 373.216 468.069 369.267 469.882 368.202C467.181 367.631 466.222 364.928 467.761 362.415C455.801 362.415 434.215 356.965 419.928 349.302C412.02 345.057 407.198 341.779 400.643 336.186C400.54 336.7 406.29 343.35 407.021 345.054C392.597 342.405 383.039 329.269 379.202 315.728C379.176 315.773 378.691 320.093 379.356 323.056C380.284 327.193 381.703 331.316 384.035 334.862C388.632 341.851 395.712 347.158 403.897 348.94C404.637 349.102 404.326 350.236 403.583 350.082C395.101 348.235 387.775 342.696 383.027 335.464C380.574 331.678 378.918 327.432 378.16 322.985C377.897 321.469 377.226 318.34 377.226 316.301C375.981 320.298 370.642 327.059 360.853 329.389C362.52 324.09 363.219 320.587 365.481 316.658Z" fill="#C5988A"/>
</g>
<path d="M355.597 307.839C358.96 299.232 365.035 291.597 372.818 286.592C375.027 285.185 377.358 283.976 379.781 282.981C384.012 280.968 386.816 281.054 386.816 281.054C382.436 286.684 378.057 311.4 378.057 311.4C378.057 311.4 372.632 326.431 362.414 327.042C357.578 339.975 355.514 345.417 355.514 345.417C350.615 320.493 358.369 305.284 365.506 295.6C367.095 293.432 368.853 291.393 370.762 289.502C368.922 290.898 367.202 292.449 365.623 294.135C358.569 301.684 355.04 311.114 353.392 321.166C352.59 325.902 352.168 330.693 352.128 335.496C352.128 336.255 350.949 336.255 350.951 335.496C350.966 326.283 352.236 316.441 355.597 307.839Z" fill="#3C2415"/>
<path d="M500.739 416.68C501.279 422.853 499.843 429.222 497.167 434.738C495.506 438.164 493.582 441.365 490.641 443.846C487.974 446.042 484.927 447.731 481.651 448.828C478.099 450.055 474.168 450.723 470.45 449.887C469.711 449.721 470.025 448.588 470.764 448.745C474.981 449.693 479.561 448.562 483.443 446.863C487.549 445.068 491.218 442.387 493.721 438.613C497.918 432.243 500.245 424.338 499.574 416.672C499.509 415.918 500.688 415.921 500.753 416.672L500.739 416.68Z" fill="#3C2415"/>
<path d="M425.969 262.793C422.175 261.568 417.941 262.122 414.127 262.967C410.392 263.785 406.772 265.058 403.346 266.756C397.045 269.896 390.022 274.501 387.276 281.316C386.99 282.013 385.848 281.707 386.134 281.005C389.006 273.868 396.126 269.034 402.744 265.725C406.39 263.91 410.253 262.567 414.238 261.728C418.13 260.903 422.418 260.401 426.275 261.645C426.992 261.879 426.686 263.016 425.961 262.787L425.969 262.793Z" fill="#3C2415"/>
<path d="M404.206 259.261C398.639 260.383 394.085 264.726 391.161 269.385C389.871 271.447 388.406 273.582 387.641 275.912C387.019 277.808 386.85 279.852 386.499 281.81C386.371 282.555 385.237 282.239 385.357 281.496C385.72 279.389 385.891 277.177 386.639 275.158C387.596 272.589 389.186 270.168 390.696 267.904C393.708 263.378 398.405 259.23 403.872 258.125C404.614 257.977 404.928 259.11 404.186 259.267L404.206 259.261Z" fill="#3C2415"/>
<path d="M380.087 294.127C381.706 289.419 382.942 286.478 386.996 280.137C399.498 261.808 472.061 267.461 497.376 289.976C521.038 311.017 521.118 333.112 519.24 355.01C516.616 385.615 485.025 417.88 468.737 417.82C468.737 417.82 475.341 408.13 478.13 392.718C471.527 408.515 462.051 416.264 462.051 416.264C476.292 380.239 472.9 365.382 470.973 359.903C463.501 360.189 447.562 356.528 434.369 352.394C417.898 347.238 405.516 338.773 396.529 329.888C399.321 336.072 401.848 338.787 405.316 343.395C390.262 338.639 382.191 323.276 379.05 312.404C378.959 315.079 379.176 317.756 379.699 320.381C380.463 324.587 382.053 328.599 384.378 332.187C388.974 339.176 396.055 344.483 404.24 346.265C404.98 346.425 404.666 347.561 403.926 347.407C395.444 345.56 388.118 340.021 383.37 332.786C380.914 329.003 379.258 324.757 378.502 320.31C377.897 316.81 377.534 312.858 378.248 309.27C378.32 301.929 378.465 298.837 380.087 294.127Z" fill="#3C2415"/>
<g style="mix-blend-mode:multiply" opacity="0.5">
<path d="M484.2 347.504C489.676 341.383 486.678 334.054 489.182 334.679C491.686 334.993 496.479 343.778 500.548 338.148C503.688 333.454 498.886 320.812 501.69 320.812C506.381 320.812 508.59 332.173 512.656 332.487C516.447 332.772 517.278 322.871 517.666 321.386C520.633 332.535 520.187 343.798 519.225 355.01C516.601 385.615 484.309 417.88 468.021 417.82C468.021 417.82 475.327 408.13 478.116 392.719C471.527 408.515 462.051 416.264 462.051 416.264C476.292 380.239 472.9 365.382 470.973 359.903C463.501 360.189 447.562 356.529 434.369 352.395C428.759 350.647 423.32 348.394 418.118 345.662C425.984 347.858 439.137 351.021 447.285 352.831C459.173 355.638 478.881 353.454 484.2 347.504Z" fill="#3C2415"/>
</g>
<path d="M477.399 393.624C477.399 393.624 484 387.086 489.996 390.928C499.737 397.175 493.841 410.24 484.086 413.586C475.404 416.563 468.643 413.095 468.643 413.095C468.643 413.095 474.55 406.474 477.399 393.624Z" fill="#DB7847"/>
<g style="mix-blend-mode:multiply" opacity="0.5">
<path d="M472.663 409.614C472.663 409.614 478.55 412.432 484.911 407.399C489.576 403.704 487.954 396.835 484.991 395.122C481.685 393.227 477.568 397.338 477.568 397.338C477.568 397.338 476.577 404.198 472.663 409.614Z" fill="#C5988A"/>
</g>
<path d="M470.973 359.892L498.247 348.006C498.247 348.006 502.258 346.065 503.406 349.765C504.553 353.465 500.856 354.481 500.856 354.481L472.543 366.472C472.543 366.472 470.545 367.023 469.229 364.688C468.983 364.267 468.833 363.798 468.789 363.313C468.745 362.827 468.809 362.338 468.975 361.881C469.142 361.423 469.407 361.007 469.752 360.663C470.098 360.32 470.514 360.056 470.973 359.892V359.892Z" fill="#FF5CCD"/>
<g style="mix-blend-mode:multiply" opacity="0.6">
<path d="M472.161 363.792L500.474 351.801C500.474 351.801 502.723 351.181 503.169 349.151C503.263 349.349 503.342 349.553 503.406 349.762C504.548 353.459 500.856 354.479 500.856 354.479L472.543 366.47C472.543 366.47 470.545 367.021 469.229 364.685C469.003 364.299 468.857 363.871 468.802 363.426C468.746 362.982 468.782 362.531 468.906 362.101C470.219 364.323 472.161 363.792 472.161 363.792Z" fill="#D15CA3"/>
</g>
<path d="M476.187 358.305L499.005 348.464C499.3 348.337 499.643 348.473 499.77 348.768L499.814 348.87C499.942 349.166 499.806 349.508 499.51 349.636L476.692 359.477C476.397 359.604 476.054 359.468 475.927 359.173L475.882 359.071C475.755 358.775 475.891 358.433 476.187 358.305Z" fill="white"/>
<path d="M472.851 366.461L500.122 354.579C500.122 354.579 504.137 352.634 505.284 356.334C506.432 360.035 502.738 361.054 502.738 361.054L474.427 373.045C474.427 373.045 472.429 373.599 471.11 371.26C470.864 370.84 470.713 370.37 470.669 369.885C470.624 369.399 470.688 368.91 470.854 368.452C471.02 367.994 471.285 367.578 471.631 367.234C471.976 366.89 472.393 366.626 472.851 366.461Z" fill="#FF5CCD"/>
<g style="mix-blend-mode:multiply" opacity="0.6">
<path d="M474.039 370.361L502.349 358.37C502.349 358.37 504.599 357.748 505.045 355.72C505.139 355.917 505.219 356.12 505.284 356.329C506.426 360.026 502.732 361.048 502.732 361.048L474.422 373.039C474.422 373.039 472.423 373.593 471.107 371.255C470.881 370.868 470.736 370.44 470.68 369.996C470.624 369.552 470.659 369.101 470.782 368.671C472.098 370.892 474.039 370.361 474.039 370.361Z" fill="#D15CA3"/>
</g>
<path d="M478.065 364.879L500.883 355.038C501.179 354.91 501.521 355.047 501.649 355.342L501.693 355.444C501.82 355.74 501.684 356.082 501.389 356.21L478.57 366.051C478.275 366.178 477.932 366.042 477.805 365.747L477.761 365.644C477.633 365.349 477.77 365.006 478.065 364.879Z" fill="white"/>
<g style="mix-blend-mode:multiply" opacity="0.5">
<path d="M381.4 287.063C382.372 284.449 384.305 282.305 386.805 281.068C382.425 286.698 378.046 311.414 378.046 311.414C378.046 311.414 375.108 319.542 369.481 324.087C373.141 318.574 375.368 312.076 376.381 306.212C377.877 297.661 379.056 293.244 381.4 287.063Z" fill="#3C2415"/>
</g>
<path d="M461.817 339.504C450.354 338.933 439.048 335.961 428.331 331.967C417.23 327.83 406.496 322.477 396.714 315.768C391.861 312.436 387.21 308.747 383.082 304.536C382.551 303.994 383.382 303.16 383.915 303.702C391.487 311.431 400.72 317.483 410.239 322.545C420.723 328.17 431.853 332.498 443.382 335.436C449.419 336.993 455.593 337.96 461.817 338.322C462.574 338.359 462.576 339.538 461.817 339.501V339.504Z" fill="#7B474C"/>
<path d="M449.675 348.029C446.263 348.232 442.723 347.244 439.477 346.316C434.982 345.021 430.572 343.449 426.272 341.608C417.656 337.959 409.91 332.935 402.713 326.953C398.233 323.188 394.266 318.851 390.913 314.055C390.473 313.435 391.484 312.847 391.929 313.461C394.914 317.731 398.398 321.63 402.307 325.075C406.167 328.438 410.398 331.39 414.624 334.274C421.647 339.067 430.101 342.268 438.192 344.717C441.82 345.819 445.832 347.073 449.675 346.847C450.431 346.801 450.428 347.989 449.675 348.023V348.029Z" fill="#7B474C"/>
<path d="M514.68 403.879C520.407 409.723 523.642 418.679 524.102 426.747C524.544 434.727 521.532 442.849 518.043 449.873C516.53 452.922 514.84 456.054 512.55 458.598C512.042 459.169 511.211 458.312 511.717 457.764C513.55 455.728 514.94 453.265 516.216 450.855C518.046 447.411 519.574 443.816 520.784 440.109C521.955 436.509 522.865 432.74 522.96 428.94C523.065 424.697 522.169 420.449 520.753 416.466C519.237 412.184 517.041 407.958 513.858 404.698C513.327 404.156 514.161 403.322 514.692 403.864L514.68 403.879Z" fill="#7B474C"/>
<path d="M504.836 417.346C505.49 419.658 505.478 422.179 505.407 424.56C505.281 427.989 504.86 431.401 504.148 434.758C502.838 441.014 500.568 448.22 495.298 452.279C494.695 452.742 494.11 451.708 494.701 451.263C499.786 447.349 501.867 440.094 503.086 434.096C503.731 430.955 504.113 427.765 504.228 424.56C504.305 422.276 504.331 419.872 503.705 417.66C503.5 416.929 504.636 416.618 504.847 417.346H504.836Z" fill="#7B474C"/>
<path d="M536.21 522.353L287.845 570.748L287.416 568.721L535.639 520.485L536.21 522.353Z" fill="#EFE8D2"/>
<path d="M534.471 513.719L536.952 519.012L536.992 522.284L532.021 523.24C531.919 522.167 531.728 521.105 531.45 520.063L289.141 567.579C289.218 569.914 290.631 570.297 290.631 570.297L287.736 570.965L286.243 563.122L534.471 513.719Z" fill="#230200"/>
<path d="M439.505 446.943C441.335 447.954 451.348 451.68 467.384 459.945C472.766 462.72 486.513 471.839 491.175 480.116C495.314 488.395 494.838 512.988 494.838 512.988C494.838 512.988 497.901 518.047 494.458 522.124C494.458 522.124 499.12 531.586 495.68 531.586C492.24 531.586 489.208 522.384 489.208 522.384C489.208 522.384 492.725 536.516 488.659 534.64C484.594 532.765 482.25 523.346 482.25 523.346C482.25 523.346 485.676 536.165 482.25 536.165C478.824 536.165 475.535 524.26 475.535 524.26C475.535 524.26 479.501 535.249 475.535 536.165C473.02 536.736 469.108 526.458 469.734 523.346C470.359 520.234 475.444 514.561 475.444 514.561C475.444 514.561 469.974 502.365 469.448 491.501C461.169 487.881 449.44 483.933 439.068 481.129C439.071 481.132 435.26 463.554 439.505 446.943Z" fill="#DB7847"/>
<g style="mix-blend-mode:multiply" opacity="0.5">
<path d="M439.505 446.943C440.647 447.58 444.984 449.267 451.984 452.462C450.465 454.649 448.318 456.222 445.72 456.373C446.971 460.753 446.694 464.653 442.943 468.079C441.027 468.867 441.027 471.456 442.491 472.932C447.559 478.337 460.958 484.067 468.952 486.782C472.663 488.035 475.935 484.869 478.636 485.317C479.778 485.506 480.1 486.671 478.975 487.344C469.588 492.352 474.921 505.025 478.299 511.897C477.06 512.123 476.229 512.611 475.133 513.856C473.971 511.092 469.897 500.814 469.454 491.513C461.175 487.893 449.446 483.944 439.074 481.141C439.071 481.132 435.26 463.554 439.505 446.943Z" fill="#C5988A"/>
</g>
<path d="M437.432 447.218C437.791 447.312 438.161 447.357 438.532 447.352C440.296 450.492 444.082 458.035 443.819 464.356C443.819 464.356 441.761 467.782 438.68 467.442C438.677 467.442 438.38 452.839 437.432 447.218Z" fill="white"/>
<path d="M434.315 445.442C434.886 446.013 435.648 446.361 436.35 446.738C433.909 450.104 430.258 454.646 426.072 456.731C426.072 456.731 422.25 455.446 421.287 452.973C421.287 452.988 428.862 448.865 434.315 445.442Z" fill="white"/>
<path d="M439.239 445.299C440.521 444.619 445.341 444.922 446.922 445.148C448.504 445.373 449.032 450.421 446.545 453.142C444.059 455.862 438.5 447.483 438.5 447.483C438.5 447.483 437.96 445.976 439.239 445.299Z" fill="white"/>
<g style="mix-blend-mode:multiply">
<path d="M439.24 445.299C439.749 445.09 440.291 444.972 440.841 444.951C439.845 445.807 439.317 447.098 439.197 448.482C438.754 447.883 438.489 447.483 438.489 447.483C438.489 447.483 437.961 445.976 439.24 445.299Z" fill="#DED4E7"/>
</g>
<path d="M439.014 447.634C439.014 447.634 442.329 452.302 444.664 453.344C446.163 454.021 447.234 451.763 447.074 451.386C446.914 451.009 444.815 449.653 443.534 448.976C442.252 448.3 439.091 447.332 439.014 447.634Z" fill="#DED4E7"/>
<path d="M436.99 444.597C436.918 443.149 434.195 439.172 433.19 437.916C432.185 436.66 427.583 438.801 426.523 442.324C425.464 445.847 435.497 446.361 435.497 446.361C435.497 446.361 437.073 446.044 436.99 444.597Z" fill="white"/>
<path d="M435.1 445.984C435.1 445.984 429.39 445.524 427.291 444.057C425.944 443.115 427.34 441.048 427.742 440.985C428.145 440.922 430.386 442.041 431.622 442.795C432.859 443.549 435.32 445.767 435.1 445.984Z" fill="#DED4E7"/>
<path d="M438.786 447.771C438.786 447.771 440.036 445.979 440.036 445.202C439.699 444.271 437.558 443.292 436.713 443.629C435.868 443.966 434.64 445.368 434.926 445.827C435.36 446.527 437.769 448.362 438.786 447.771Z" fill="white"/>
<path d="M395.892 558.129L395.532 557.004L392.084 557.495C392.084 557.495 390.656 555.662 386.91 554.4C384.341 553.543 380.107 553.024 375.556 554.189C371.956 555.111 369.772 555.987 367.939 557.258C364.71 559.499 363.633 562.268 363.482 563.893L359.457 564.809L359.171 565.863L364.487 565.16C364.487 565.16 366.2 558.083 376.849 556.23C387.498 554.377 391.652 558.902 391.652 558.902L395.892 558.129Z" fill="#F4A45C"/>
<path d="M396.18 561.363L395.829 558.037L391.807 558.734C391.807 558.734 390.816 557.049 387.844 555.736C385.426 554.668 381.617 553.769 376.561 554.823C366.517 556.918 364.167 561.323 363.768 564.878L359.171 565.791L359.959 569.026L365.852 567.901C365.852 567.901 366.48 560.587 377.129 558.734C387.778 556.881 391.107 562.208 391.107 562.208L396.18 561.363Z" fill="#582A22"/>
<path d="M390.059 585.151C390.082 585.154 390.105 585.154 390.128 585.151C390.166 585.144 390.202 585.128 390.235 585.106C390.267 585.084 390.294 585.055 390.314 585.022C390.335 584.989 390.349 584.952 390.354 584.913C390.36 584.874 390.358 584.835 390.348 584.797L383.781 556.818C383.763 556.743 383.716 556.677 383.65 556.636C383.584 556.595 383.504 556.582 383.429 556.6C383.353 556.618 383.287 556.665 383.246 556.731C383.205 556.797 383.192 556.877 383.21 556.952L389.777 584.931C389.792 584.995 389.828 585.051 389.879 585.091C389.931 585.131 389.994 585.152 390.059 585.151Z" fill="#FFF4C1"/>
<path d="M385.434 585.908H385.497C385.535 585.9 385.572 585.885 385.604 585.863C385.636 585.842 385.663 585.813 385.684 585.78C385.705 585.747 385.719 585.711 385.725 585.672C385.731 585.634 385.729 585.594 385.72 585.557L379.347 556.638C379.34 556.6 379.325 556.563 379.304 556.531C379.282 556.498 379.254 556.47 379.221 556.449C379.188 556.428 379.151 556.414 379.112 556.408C379.073 556.401 379.034 556.403 378.996 556.413C378.958 556.42 378.921 556.435 378.889 556.457C378.857 556.479 378.83 556.507 378.809 556.54C378.788 556.573 378.774 556.61 378.768 556.648C378.762 556.687 378.764 556.726 378.773 556.764L385.146 585.685C385.16 585.75 385.197 585.808 385.25 585.848C385.302 585.889 385.368 585.91 385.434 585.908V585.908Z" fill="#FFF4C1"/>
<path d="M380.612 586.85H380.672C380.711 586.844 380.748 586.829 380.781 586.808C380.814 586.787 380.842 586.759 380.863 586.726C380.885 586.693 380.9 586.657 380.907 586.618C380.914 586.579 380.912 586.54 380.903 586.502L374.936 557.563C374.92 557.488 374.875 557.421 374.81 557.379C374.745 557.337 374.667 557.322 374.591 557.338C374.515 557.354 374.449 557.399 374.406 557.464C374.364 557.529 374.349 557.607 374.365 557.683L380.332 586.622C380.345 586.686 380.38 586.744 380.431 586.786C380.482 586.827 380.546 586.85 380.612 586.85Z" fill="#FFF4C1"/>
<path d="M375.216 587.981H375.27C375.309 587.974 375.346 587.961 375.379 587.94C375.412 587.919 375.441 587.891 375.463 587.859C375.485 587.826 375.5 587.79 375.507 587.751C375.514 587.713 375.513 587.673 375.505 587.635L370.194 559.488C370.187 559.45 370.173 559.414 370.152 559.382C370.131 559.351 370.104 559.323 370.072 559.302C370.041 559.28 370.005 559.265 369.968 559.257C369.931 559.25 369.892 559.249 369.855 559.256C369.817 559.263 369.781 559.278 369.749 559.299C369.717 559.32 369.69 559.347 369.669 559.378C369.647 559.41 369.632 559.445 369.624 559.483C369.616 559.52 369.616 559.559 369.623 559.596L374.936 587.744C374.948 587.81 374.982 587.87 375.033 587.913C375.084 587.956 375.149 587.98 375.216 587.981V587.981Z" fill="#FFF4C1"/>
<path d="M390.076 585.891C389.619 585.891 389.248 585.52 389.248 585.063C389.248 584.605 389.619 584.235 390.076 584.235C390.534 584.235 390.904 584.605 390.904 585.063C390.904 585.52 390.534 585.891 390.076 585.891Z" fill="#2C2A2C"/>
<path d="M385.517 586.787C385.06 586.787 384.689 586.416 384.689 585.959C384.689 585.502 385.06 585.131 385.517 585.131C385.974 585.131 386.345 585.502 386.345 585.959C386.345 586.416 385.974 586.787 385.517 586.787Z" fill="#2C2A2C"/>
<path d="M379.921 586.858C379.921 587.023 379.97 587.184 380.061 587.32C380.153 587.457 380.283 587.563 380.435 587.626C380.587 587.689 380.754 587.705 380.915 587.673C381.076 587.641 381.224 587.561 381.34 587.445C381.457 587.328 381.535 587.18 381.567 587.019C381.599 586.857 381.582 586.69 381.519 586.538C381.455 586.387 381.348 586.257 381.211 586.166C381.074 586.075 380.914 586.027 380.749 586.028C380.64 586.028 380.532 586.049 380.432 586.091C380.331 586.133 380.24 586.194 380.163 586.271C380.086 586.348 380.025 586.44 379.983 586.541C379.942 586.641 379.921 586.749 379.921 586.858V586.858Z" fill="#2C2A2C"/>
<path d="M374.6 587.826C374.6 587.991 374.648 588.151 374.74 588.288C374.831 588.424 374.961 588.531 375.113 588.594C375.264 588.657 375.431 588.673 375.593 588.641C375.754 588.609 375.902 588.53 376.018 588.414C376.134 588.297 376.213 588.149 376.245 587.988C376.277 587.827 376.261 587.66 376.198 587.508C376.135 587.356 376.029 587.227 375.892 587.135C375.755 587.044 375.595 586.995 375.43 586.995C375.321 586.995 375.213 587.016 375.112 587.058C375.011 587.099 374.919 587.161 374.842 587.238C374.765 587.315 374.704 587.407 374.662 587.508C374.62 587.609 374.599 587.717 374.6 587.826V587.826Z" fill="#2C2A2C"/>
<path d="M252.959 336.609C252.197 339.944 252.034 343.535 251.846 346.944C251.755 348.623 251.689 350.308 251.663 351.995C252.771 351.678 253.954 351.744 255.021 352.18C255.958 352.548 256.731 353.241 257.199 354.132C257.667 355.024 257.798 356.054 257.567 357.034C257.082 359.015 255.266 360.688 253.159 360.586H253.128C251.366 360.777 249.785 359.661 249.082 358.033C248.771 357.32 248.641 356.541 248.704 355.765C248.767 354.989 249.022 354.241 249.445 353.588C249.445 351.318 249.499 349.048 249.63 346.776C249.733 345.063 249.865 343.35 250.036 341.657C250.219 339.827 250.538 338 250.661 336.164C250.758 334.682 253.305 335.093 252.959 336.609Z" fill="black"/>
<path d="M163.104 348.492C166.461 345.956 171.486 345.865 175.298 347.33C176.765 347.901 176.317 350.082 175.072 350.068C174.929 351.367 174.749 352.666 174.544 353.962C174.612 354.181 174.629 354.412 174.593 354.639C174.556 354.865 174.468 355.08 174.336 355.267C174.05 356.957 173.765 358.641 173.502 360.32C173.268 361.825 172.965 363.338 172.78 364.854C175.526 364.534 178.661 366.778 177.979 370.033C177.763 371.041 177.2 371.941 176.388 372.577L176.345 372.611C176.291 372.651 176.237 372.694 176.177 372.734C174.721 373.781 172.677 374.018 171.127 373.019C169.219 371.78 168.66 369.053 169.656 367.066C169.723 366.931 169.797 366.799 169.879 366.672C169.862 365.686 169.946 364.701 170.13 363.732C170.55 360.997 170.898 358.224 171.309 355.452C170.641 355.352 169.976 355.238 169.311 355.144C167.923 354.95 166.556 354.787 165.225 354.347C165.047 354.291 164.895 354.174 164.795 354.017C164.695 353.86 164.654 353.672 164.679 353.487C164.704 353.303 164.793 353.133 164.932 353.007C165.07 352.882 165.247 352.81 165.434 352.803C166.833 352.657 168.209 352.803 169.611 352.9C170.299 352.954 170.992 352.991 171.683 353.04C171.894 351.766 172.126 350.499 172.394 349.243C171.377 349.006 170.334 348.901 169.291 348.929C167.424 348.974 165.759 349.522 163.998 350.071C163.144 350.353 162.339 349.071 163.104 348.492Z" fill="black"/>
<path d="M202.94 336.929C204.895 335.327 207.91 335.156 210.234 335.947C211.128 336.252 210.911 337.577 210.163 337.597C210.109 338.379 210.029 339.164 209.937 339.947C209.983 340.077 209.999 340.216 209.982 340.354C209.965 340.491 209.917 340.622 209.84 340.738C209.715 341.757 209.575 342.776 209.458 343.79C209.352 344.697 209.204 345.617 209.129 346.53C210.771 346.273 212.707 347.547 212.373 349.52C212.266 350.13 211.948 350.683 211.476 351.084L211.451 351.104C211.419 351.13 211.388 351.158 211.353 351.181C210.935 351.525 210.423 351.735 209.884 351.786C209.345 351.837 208.803 351.726 208.327 351.467C207.151 350.767 206.751 349.143 207.305 347.926C207.342 347.841 207.385 347.761 207.428 347.684C207.396 347.093 207.424 346.501 207.511 345.917C207.699 344.263 207.845 342.59 208.027 340.926C207.625 340.88 207.222 340.826 206.823 340.786C205.989 340.732 205.161 340.604 204.35 340.404C204.24 340.376 204.143 340.311 204.077 340.218C204.011 340.125 203.981 340.012 203.991 339.899C204.002 339.785 204.053 339.68 204.135 339.601C204.217 339.522 204.325 339.476 204.439 339.47C205.273 339.38 206.114 339.368 206.951 339.433C207.365 339.447 207.782 339.453 208.199 339.467C208.296 338.706 208.408 337.94 208.536 337.169C207.92 337.052 207.291 337.013 206.666 337.052C205.546 337.126 204.559 337.491 203.525 337.865C203.005 338.037 202.494 337.294 202.94 336.929Z" fill="black"/>
<path d="M120.69 303.974C121.384 303.674 122.058 303.249 122.72 302.923C123.656 302.461 124.596 301.998 125.555 301.587C126.46 301.199 127.374 300.83 128.293 300.471C128.715 300.305 129.149 300.102 129.609 299.94C129.446 298.247 131.927 297.801 132.179 299.617C132.607 302.855 133.104 306.084 133.395 309.324C133.546 311.014 133.68 312.693 133.723 314.389C133.723 314.797 133.723 315.228 133.723 315.657C134.258 315.325 134.876 315.152 135.506 315.157C136.135 315.162 136.751 315.345 137.28 315.685C137.652 315.859 137.983 316.108 138.253 316.417C138.522 316.725 138.725 317.087 138.848 317.478C139.61 319.825 137.38 322.24 134.999 321.872C134.518 321.796 134.06 321.615 133.655 321.344C133.251 321.072 132.911 320.715 132.658 320.299C132.361 320.075 132.103 319.804 131.893 319.496C130.979 318.152 131.302 316.422 131.353 314.903C131.392 313.331 131.341 311.758 131.199 310.192C130.947 307.419 130.545 304.662 129.994 301.933C129.809 302.018 129.62 302.101 129.441 302.187C128.473 302.641 127.516 303.114 126.566 303.6C125.686 304.048 124.796 304.476 123.919 304.925C123.157 305.275 122.412 305.664 121.689 306.089C122.309 311.111 122.98 316.125 123.625 321.144C123.752 321.1 123.882 321.064 124.013 321.035C124.482 320.752 125.039 320.653 125.577 320.759C126.114 320.864 126.593 321.167 126.92 321.606C127.081 321.823 127.216 322.059 127.319 322.309C127.632 322.803 127.798 323.377 127.798 323.962C127.798 324.547 127.632 325.12 127.319 325.615C127.183 325.98 126.985 326.319 126.734 326.617C126.448 326.956 126.085 327.223 125.677 327.396C125.268 327.569 124.824 327.644 124.381 327.614C123.938 327.583 123.509 327.449 123.127 327.222C122.746 326.995 122.424 326.681 122.186 326.306C122.05 326.093 121.936 325.868 121.846 325.632C120.684 324.096 120.676 321.92 120.476 320.085C119.942 315.154 119.334 310.235 118.717 305.313C118.557 304.097 119.791 303.614 120.69 303.974Z" fill="black"/>
<path d="M184.942 248.415C185.533 248.313 186.13 248.107 186.698 247.976C187.506 247.793 188.314 247.607 189.127 247.468C189.941 247.328 190.669 247.216 191.443 247.105C191.8 247.056 192.176 246.982 192.556 246.937C192.739 245.6 194.732 245.712 194.583 247.156C194.32 249.726 194.115 252.295 193.744 254.865C193.552 256.192 193.338 257.509 193.07 258.825C193.007 259.145 192.922 259.473 192.85 259.804C193.324 259.647 193.832 259.627 194.316 259.746C194.801 259.866 195.241 260.119 195.588 260.478C195.842 260.68 196.052 260.933 196.203 261.22C196.355 261.508 196.445 261.824 196.467 262.148C196.627 264.095 194.469 265.548 192.699 264.832C192.342 264.684 192.021 264.461 191.759 264.178C191.497 263.894 191.299 263.557 191.18 263.19C190.993 262.962 190.844 262.706 190.737 262.431C190.281 261.229 190.843 259.953 191.163 258.791C191.48 257.587 191.727 256.366 191.902 255.133C192.213 252.95 192.403 250.751 192.473 248.547C192.313 248.578 192.156 248.607 191.999 248.641C191.171 248.815 190.346 249.006 189.524 249.212C188.765 249.395 188.002 249.563 187.24 249.749C186.589 249.879 185.945 250.042 185.31 250.237C184.87 254.234 184.454 258.208 184.048 262.197C184.156 262.188 184.263 262.188 184.371 262.197C184.783 262.062 185.23 262.086 185.625 262.264C186.02 262.442 186.334 262.761 186.506 263.159C186.591 263.355 186.652 263.561 186.686 263.772C186.839 264.211 186.864 264.683 186.759 265.135C186.654 265.586 186.423 265.999 186.092 266.325C185.915 266.582 185.696 266.806 185.444 266.99C185.161 267.199 184.833 267.339 184.486 267.398C184.139 267.457 183.783 267.433 183.447 267.329C183.111 267.225 182.804 267.043 182.552 266.798C182.299 266.553 182.107 266.252 181.993 265.919C181.928 265.734 181.882 265.543 181.856 265.348C181.239 263.95 181.63 262.274 181.813 260.82C182.301 256.923 182.729 253.021 183.155 249.115C183.263 248.121 184.317 247.973 184.942 248.415Z" fill="black"/>
<path d="M211.282 445.956C211.749 442.548 213.156 439.338 215.345 436.686C215.456 436.546 215.597 436.433 215.757 436.355C215.918 436.278 216.094 436.238 216.273 436.238C216.451 436.238 216.627 436.278 216.788 436.355C216.948 436.433 217.089 436.546 217.2 436.686C220.806 440.8 224.7 444.657 228.141 448.911C228.314 448.366 228.6 447.863 228.981 447.436C229.361 447.009 229.828 446.668 230.349 446.434C230.871 446.199 231.436 446.078 232.008 446.077C232.58 446.077 233.146 446.197 233.668 446.43C234.422 446.744 235.068 447.272 235.525 447.95C235.981 448.627 236.229 449.424 236.238 450.241C236.316 451.025 236.135 451.812 235.722 452.482C235.31 453.153 234.688 453.669 233.954 453.953C233.031 454.467 231.878 454.729 230.942 454.332C230.857 454.296 230.776 454.253 230.699 454.204C230.162 454.023 229.669 453.731 229.251 453.347C229.108 453.276 228.987 453.168 228.9 453.033C228.846 452.951 228.795 452.865 228.746 452.779C228.349 452.235 228.087 451.603 227.981 450.938C223.87 447.266 220.25 443.109 216.401 439.172C214.94 441.284 214.006 443.715 213.677 446.261C213.475 447.789 211.068 447.483 211.282 445.956Z" fill="black"/>
<path d="M262.327 383.654C264.723 382.615 267.362 382.264 269.947 382.64C270.081 382.658 270.209 382.706 270.323 382.78C270.436 382.854 270.531 382.953 270.601 383.069C270.67 383.185 270.713 383.316 270.725 383.45C270.738 383.585 270.719 383.721 270.672 383.848C269.421 387.808 268.45 391.842 267.043 395.768C267.465 395.665 267.904 395.652 268.331 395.731C268.758 395.81 269.164 395.978 269.521 396.224C269.879 396.471 270.181 396.79 270.407 397.161C270.632 397.532 270.777 397.946 270.832 398.377C270.924 398.99 270.835 399.617 270.575 400.18C270.314 400.743 269.894 401.217 269.367 401.543C268.889 401.904 268.306 402.097 267.708 402.093C267.109 402.089 266.529 401.889 266.055 401.523C265.361 401.127 264.736 400.484 264.628 399.719C264.622 399.65 264.622 399.58 264.628 399.511C264.538 399.088 264.538 398.651 264.628 398.229C264.617 398.108 264.639 397.986 264.693 397.878C264.725 397.809 264.759 397.741 264.796 397.675C264.992 397.201 265.299 396.782 265.693 396.453C266.458 392.339 267.728 388.35 268.77 384.302C266.824 384.184 264.877 384.535 263.095 385.327C261.992 385.804 261.245 384.119 262.327 383.654Z" fill="black"/>
<path d="M245.217 291.786C247.045 289.506 249.442 287.75 252.166 286.692C252.299 286.631 252.445 286.601 252.592 286.604C252.739 286.608 252.884 286.646 253.014 286.714C253.144 286.783 253.257 286.88 253.344 286.999C253.43 287.118 253.488 287.255 253.513 287.4C254.37 291.714 255.549 295.965 256.228 300.305C257.733 298.972 260.088 299.035 261.322 300.628C261.708 301.16 261.934 301.792 261.975 302.449C262.015 303.106 261.868 303.761 261.55 304.337C261.232 304.913 260.756 305.387 260.179 305.703C259.602 306.019 258.946 306.164 258.29 306.121C257.399 306.138 256.445 305.889 255.931 305.25C255.887 305.191 255.847 305.129 255.811 305.064C255.499 304.731 255.267 304.33 255.132 303.894C255.058 303.788 255.016 303.663 255.012 303.534C255.008 303.454 255.008 303.374 255.012 303.294C254.955 302.746 255.035 302.193 255.246 301.684C253.819 297.496 252.976 293.148 251.866 288.868C249.904 289.817 248.183 291.198 246.832 292.908C246.013 293.933 244.391 292.802 245.217 291.786Z" fill="black"/>
<path d="M272.011 503.887C272.268 503.693 272.508 503.45 272.75 503.247C273.093 502.962 273.438 502.676 273.795 502.408C274.152 502.139 274.478 501.908 274.823 501.668C274.983 501.557 275.146 501.429 275.317 501.314C275.285 501.245 275.268 501.17 275.266 501.095C275.265 501.019 275.279 500.943 275.307 500.873C275.336 500.802 275.379 500.739 275.434 500.686C275.488 500.633 275.553 500.592 275.624 500.565C275.695 500.538 275.771 500.526 275.847 500.529C275.923 500.533 275.997 500.552 276.065 500.586C276.133 500.62 276.194 500.667 276.243 500.725C276.292 500.783 276.329 500.85 276.35 500.923C276.853 502.228 277.384 503.521 277.829 504.846C278.063 505.534 278.28 506.222 278.475 506.922C278.52 507.09 278.56 507.27 278.606 507.447C278.796 507.255 279.036 507.122 279.299 507.061C279.561 507 279.836 507.015 280.09 507.104C280.263 507.139 280.426 507.209 280.569 507.31C280.713 507.412 280.834 507.542 280.924 507.692C281.475 508.592 280.79 509.822 279.762 509.908C279.553 509.925 279.342 509.896 279.145 509.824C278.948 509.751 278.769 509.637 278.62 509.488C278.474 509.424 278.34 509.337 278.223 509.228C277.707 508.763 277.652 508.009 277.538 507.373C277.396 506.714 277.217 506.064 277.001 505.426C276.616 504.298 276.172 503.192 275.671 502.111C275.602 502.165 275.531 502.217 275.465 502.271C275.108 502.558 274.755 502.85 274.409 503.147C274.089 503.433 273.761 503.69 273.441 503.964C273.181 504.192 272.87 504.415 272.63 504.672C273.393 506.702 274.175 508.72 274.946 510.744C274.995 510.714 275.045 510.686 275.097 510.662C275.263 510.496 275.485 510.398 275.72 510.388C275.954 510.377 276.184 510.454 276.365 510.604C276.453 510.678 276.531 510.763 276.599 510.856C276.78 511.03 276.908 511.251 276.968 511.495C277.028 511.738 277.018 511.994 276.939 512.232C276.915 512.399 276.864 512.561 276.787 512.711C276.702 512.881 276.578 513.029 276.425 513.141C276.272 513.254 276.095 513.33 275.907 513.361C275.72 513.393 275.528 513.38 275.347 513.324C275.165 513.268 274.999 513.169 274.863 513.037C274.784 512.963 274.715 512.881 274.655 512.791C274.015 512.269 273.798 511.364 273.513 510.619C272.796 508.62 272.048 506.622 271.297 504.649C271.134 504.152 271.6 503.827 272.011 503.887Z" fill="black"/>
<path d="M227.23 372.868L233.748 365.456L224.678 363.843L227.23 372.868Z" fill="#FF913C"/>
<path d="M281.501 435.983L263.32 428.877L266.452 446.827L281.501 435.983Z" fill="#FF913C"/>
<path d="M212.567 297.864L193.233 286.504L193.53 307.434L212.567 297.864Z" fill="#FFFF3C"/>
<path d="M163.466 415.773L164.788 425.891L172.226 419.938L163.466 415.773Z" fill="#FFFF3C"/>
<path d="M286.931 345.029L271.448 345.049L279.608 358.878L286.931 345.029Z" fill="#FF52B4"/>
<path d="M247.386 475.565L251.829 489.435L261.89 478.169L247.386 475.565Z" fill="#FF52B4"/>
<path d="M130.029 262.145L147.376 263.344L139.325 247.205L130.029 262.145Z" fill="#FF913C"/>
<path d="M207.057 392.096L213.129 408.455L224.563 394.426L207.057 392.096Z" fill="#67AC19"/>
<path d="M243.92 260.518L247.692 270.682L254.795 261.965L243.92 260.518Z" fill="#67AC19"/>
<defs>
<radialGradient id="paint0_radial_207_28729" cx="0" cy="0" r="1" gradientUnits="userSpaceOnUse" gradientTransform="translate(343.032 392.339) rotate(180) scale(31.5334 31.5335)">
<stop stop-color="#FF5F50"/>
<stop offset="0.35" stop-color="#FC6150"/>
<stop offset="0.61" stop-color="#F26950"/>
<stop offset="0.85" stop-color="#E27550"/>
<stop offset="1" stop-color="#D38050"/>
</radialGradient>
<radialGradient id="paint1_radial_207_28729" cx="0" cy="0" r="1" gradientUnits="userSpaceOnUse" gradientTransform="translate(475.998 409.129) rotate(180) scale(29.121 29.121)">
<stop stop-color="#FF5F50"/>
<stop offset="0.35" stop-color="#FC6150"/>
<stop offset="0.61" stop-color="#F26950"/>
<stop offset="0.85" stop-color="#E27550"/>
<stop offset="1" stop-color="#D38050"/>
</radialGradient>
<radialGradient id="paint2_radial_207_28729" cx="0" cy="0" r="1" gradientUnits="userSpaceOnUse" gradientTransform="translate(395.108 378.388) rotate(-164.291) scale(9.45249 9.45248)">
<stop stop-color="#FF716D"/>
<stop offset="0.35" stop-color="#FC726B"/>
<stop offset="0.61" stop-color="#F27565"/>
<stop offset="0.85" stop-color="#E27B5A"/>
<stop offset="1" stop-color="#D38050"/>
</radialGradient>
<radialGradient id="paint3_radial_207_28729" cx="0" cy="0" r="1" gradientUnits="userSpaceOnUse" gradientTransform="translate(436.922 379.77) rotate(-166.901) scale(14.8556 14.8556)">
<stop offset="0.22" stop-color="#7A1727"/>
<stop offset="0.3" stop-color="#7D1D2C"/>
<stop offset="0.4" stop-color="#862C3B"/>
<stop offset="0.52" stop-color="#954753"/>
<stop offset="0.64" stop-color="#AA6B76"/>
<stop offset="0.77" stop-color="#C59AA1"/>
<stop offset="0.91" stop-color="#E6D3D6"/>
<stop offset="1" stop-color="white"/>
</radialGradient>
<radialGradient id="paint4_radial_207_28729" cx="0" cy="0" r="1" gradientUnits="userSpaceOnUse" gradientTransform="translate(372.378 362.114) rotate(-166.901) scale(14.8556 14.8556)">
<stop offset="0.22" stop-color="#7A1727"/>
<stop offset="0.3" stop-color="#7D1D2C"/>
<stop offset="0.4" stop-color="#862C3B"/>
<stop offset="0.52" stop-color="#954753"/>
<stop offset="0.64" stop-color="#AA6B76"/>
<stop offset="0.77" stop-color="#C59AA1"/>
<stop offset="0.91" stop-color="#E6D3D6"/>
<stop offset="1" stop-color="white"/>
</radialGradient>
<radialGradient id="paint5_radial_207_28729" cx="0" cy="0" r="1" gradientUnits="userSpaceOnUse" gradientTransform="translate(444.727 621.866) rotate(180) scale(20.6159 20.616)">
<stop stop-color="white"/>
<stop offset="0.45" stop-color="white"/>
<stop offset="0.51" stop-color="white"/>
<stop offset="0.95" stop-color="white"/>
<stop offset="1" stop-color="white"/>
</radialGradient>
</defs>
</svg>
