<svg width="806" height="980" viewBox="0 0 806 980" fill="none" xmlns="http://www.w3.org/2000/svg">
<path opacity="0.16" d="M424.602 706.085C424.602 712.147 375.308 717.058 314.5 717.058C253.692 717.058 204.398 712.143 204.398 706.085C204.398 700.027 253.692 695.113 314.5 695.113C375.308 695.113 424.602 700.024 424.602 706.085Z" fill="black"/>
<path d="M345.486 670.568C346.779 673.726 370.293 677.093 369.884 673.668C364.594 629.259 359.577 545.79 358.057 534.701L314.5 544.698C314.5 544.698 339.19 655.161 345.486 670.568Z" fill="#FFC19F"/>
<path d="M284.287 697.761C283.732 701.134 264.384 699.902 264.018 696.473C259.272 652.001 247.486 547.255 246.504 536.104H291.183C291.183 536.104 286.987 681.336 284.287 697.761Z" fill="#FFC19F"/>
<path d="M360.294 494.342C360.294 494.342 367.747 555.403 372.704 585.156C361.1 590.254 330.887 598.368 314.408 591.76C313.833 588.269 309.818 553.024 300.761 554.148C297.534 554.548 296.761 583.195 295.644 589.619C279.912 592.279 253.3 592.087 238.75 583.511C240.08 569.246 242.801 503.671 245.431 486.236L360.294 494.342Z" fill="#915D67"/>
<path opacity="0.23" d="M243.057 512.578C248.956 499.817 254.577 489.315 254.577 489.315L359.948 499.32C360.044 499.558 360.195 499.904 360.308 500.171C361.306 508.06 364.26 522.203 365.286 533.458C351.838 539.323 332.608 545.167 315.145 544.224C314.859 542.809 316.142 535.034 315.908 532.272C302.088 532.605 283.413 533.702 268.658 528.44C268.48 531.1 267.273 541.43 267.095 542.59C257.16 540.234 247.932 534.444 241.982 529.218C242.347 523.036 242.65 518.311 243.057 512.578Z" fill="black"/>
<path d="M340.197 692.466C340.325 693.322 371.823 691.686 371.951 690.637C373.026 681.936 373.487 665.961 373.946 662.109L336.744 663.808C337.863 672.845 339.382 686.978 340.197 692.466Z" fill="#D1F2EF"/>
<path d="M382.064 680.529C381.474 678.657 380.31 676.301 379.404 674.14C378.726 672.538 362.82 673.41 362.927 677.322C362.949 678.219 363.02 679.114 363.141 680.002C360.42 680.134 357.467 680.215 354.343 680.222C347.554 680.235 341.456 679.917 337.165 679.402C337.126 685.596 338.079 696.28 338.092 703.163C338.092 703.163 409.6 713.723 420.386 702.996C423.427 699.972 405.106 687.764 382.064 680.529Z" fill="#59A5C6"/>
<path d="M337.986 698.852C338.044 700.38 338.087 701.844 338.089 703.163C338.089 703.163 409.597 713.723 420.383 702.996C420.812 702.571 420.808 701.959 420.436 701.207C401.011 706.212 355.748 701.143 337.986 698.852Z" fill="#1B6F8C"/>
<path d="M377.592 686.632C377.522 686.751 377.429 686.855 377.318 686.936C377.207 687.017 377.08 687.074 376.945 687.104C376.811 687.134 376.672 687.135 376.537 687.109C376.402 687.082 376.273 687.028 376.16 686.949C376.047 686.87 375.952 686.769 375.88 686.652C375.808 686.534 375.761 686.403 375.742 686.267C375.723 686.13 375.733 685.992 375.77 685.859C375.807 685.727 375.872 685.603 375.959 685.497C378.576 681.736 383.307 679.641 387.465 680.38C387.71 680.442 387.921 680.594 388.058 680.807C388.194 681.019 388.245 681.275 388.201 681.523C388.156 681.771 388.019 681.993 387.817 682.144C387.615 682.296 387.364 682.365 387.113 682.338C383.693 681.706 379.78 683.487 377.592 686.632ZM382.707 688.865C382.625 688.975 382.521 689.068 382.401 689.136C382.282 689.204 382.149 689.247 382.012 689.261C381.876 689.276 381.737 689.262 381.606 689.221C381.475 689.179 381.353 689.111 381.25 689.02C381.146 688.929 381.063 688.818 381.004 688.694C380.946 688.569 380.914 688.434 380.91 688.296C380.906 688.158 380.931 688.022 380.983 687.894C381.035 687.766 381.112 687.651 381.211 687.555C384.227 684.109 388.456 682.315 392.822 682.659C393.084 682.68 393.328 682.803 393.499 683.003C393.671 683.203 393.757 683.462 393.738 683.725C393.731 683.856 393.698 683.985 393.64 684.103C393.582 684.221 393.5 684.326 393.401 684.411C393.301 684.497 393.185 684.562 393.059 684.601C392.934 684.64 392.801 684.654 392.671 684.641C390.469 684.471 386.262 684.8 382.707 688.865ZM399.55 686.318C399.535 686.448 399.493 686.574 399.429 686.688C399.364 686.802 399.277 686.902 399.172 686.982C399.068 687.062 398.949 687.12 398.822 687.152C398.695 687.185 398.563 687.192 398.433 687.173C395.108 686.674 390.815 688.471 388.034 691.405C387.848 691.575 387.604 691.669 387.352 691.666C387.1 691.664 386.858 691.567 386.675 691.393C386.492 691.22 386.382 690.984 386.366 690.732C386.35 690.48 386.43 690.232 386.589 690.037C389.785 686.669 394.752 684.672 398.696 685.203C398.956 685.239 399.191 685.376 399.35 685.585C399.51 685.794 399.58 686.058 399.547 686.318H399.55Z" fill="#D3DAE5"/>
<path d="M287.182 692.466C287.053 693.322 255.556 691.686 255.428 690.637C254.354 681.936 253.893 665.961 253.433 662.109L290.635 663.808C289.516 672.845 287.994 686.978 287.182 692.466Z" fill="#D1F2EF"/>
<path d="M245.315 680.529C245.905 678.657 247.069 676.301 247.975 674.14C248.653 672.538 264.557 673.41 264.45 677.322C264.43 678.219 264.358 679.114 264.236 680.002C266.957 680.134 269.912 680.215 273.035 680.222C279.823 680.235 285.923 679.917 290.212 679.402C290.252 685.596 289.3 696.28 289.286 703.163C289.286 703.163 217.779 713.723 206.993 702.996C203.952 699.972 222.276 687.764 245.315 680.529Z" fill="#59A5C6"/>
<path d="M289.396 698.852C289.338 700.38 289.295 701.844 289.293 703.163C289.293 703.163 217.786 713.723 207 702.996C206.571 702.571 206.574 701.959 206.948 701.207C226.366 706.212 271.631 701.143 289.396 698.852Z" fill="#1B6F8C"/>
<path d="M240.266 682.338C240.133 682.372 239.995 682.378 239.86 682.356C239.724 682.334 239.595 682.285 239.48 682.21C239.365 682.136 239.266 682.039 239.19 681.925C239.114 681.811 239.062 681.683 239.038 681.548C239.013 681.413 239.017 681.275 239.049 681.142C239.08 681.008 239.139 680.883 239.221 680.773C239.303 680.664 239.407 680.572 239.526 680.504C239.645 680.437 239.777 680.394 239.914 680.38C244.07 679.641 248.803 681.736 251.418 685.497C251.507 685.603 251.572 685.726 251.611 685.859C251.649 685.992 251.66 686.132 251.641 686.269C251.623 686.406 251.576 686.538 251.504 686.656C251.432 686.774 251.336 686.876 251.223 686.955C251.109 687.034 250.98 687.089 250.844 687.115C250.709 687.142 250.569 687.14 250.434 687.11C250.299 687.079 250.171 687.021 250.06 686.939C249.949 686.857 249.856 686.752 249.787 686.632C247.598 683.487 243.684 681.706 240.266 682.338ZM234.712 684.641C234.581 684.654 234.448 684.64 234.323 684.601C234.198 684.562 234.081 684.497 233.981 684.411C233.882 684.326 233.8 684.221 233.742 684.103C233.684 683.985 233.651 683.856 233.644 683.725C233.625 683.462 233.711 683.203 233.883 683.003C234.054 682.803 234.298 682.68 234.56 682.659C238.926 682.315 243.155 684.109 246.171 687.555C246.321 687.756 246.389 688.006 246.363 688.256C246.336 688.505 246.217 688.736 246.028 688.901C245.839 689.066 245.595 689.154 245.344 689.148C245.094 689.141 244.855 689.04 244.675 688.865C241.117 684.8 236.906 684.471 234.712 684.641ZM228.687 685.203C232.628 684.672 237.598 686.669 240.793 690.037C240.894 690.13 240.975 690.242 241.031 690.367C241.087 690.492 241.116 690.627 241.118 690.765C241.119 690.902 241.092 691.037 241.038 691.164C240.985 691.29 240.906 691.403 240.806 691.498C240.707 691.592 240.589 691.665 240.46 691.711C240.331 691.758 240.194 691.778 240.057 691.769C239.92 691.76 239.787 691.724 239.665 691.661C239.543 691.598 239.435 691.511 239.348 691.405C236.567 688.471 232.276 686.682 228.948 687.173C228.818 687.192 228.686 687.185 228.559 687.152C228.432 687.119 228.313 687.061 228.209 686.981C228.104 686.902 228.017 686.802 227.952 686.688C227.887 686.574 227.846 686.448 227.83 686.318C227.796 686.056 227.866 685.791 228.027 685.581C228.187 685.37 228.425 685.233 228.687 685.198V685.203Z" fill="#D3DAE5"/>
<path d="M206.836 445.666C207.834 455.239 218.186 462.002 229.959 460.777C241.731 459.551 258.316 442.727 257.32 433.162C256.324 423.598 238.121 424.896 226.348 426.123C214.574 427.35 205.839 436.095 206.836 445.666Z" fill="#FFC19F"/>
<path d="M360.456 516.356C287.343 547.331 256.863 514.642 249.361 507.591C262.242 443.493 256.011 413.66 273.182 385.796C303.798 382.056 336.175 389.765 353.991 398.406C342.749 466.79 352.014 486.673 360.456 516.356Z" fill="white"/>
<path d="M265.074 533.458C245.396 529.208 241.82 522.652 234.318 515.606C247.199 451.507 255.789 415.001 272.962 387.136C276.588 386.692 281.395 386.594 285.265 386.471C279.205 423.279 273.945 487.929 265.074 533.458Z" fill="#E53939"/>
<path d="M370.169 520.874C347.901 537.998 331.649 538.962 316.98 537.311C324.462 473.305 309.534 385.736 328.994 390.293C339.813 392.825 356.425 397.655 362.786 400.742C351.542 469.126 361.727 491.192 370.169 520.874Z" fill="#E53939"/>
<path d="M328.473 370.579L325.464 397.512C324.817 403.304 315.132 406.977 303.833 405.715C292.535 404.453 283.897 398.732 284.548 392.942L287.557 366.009L328.473 370.579Z" fill="#E0956C"/>
<path d="M214.283 295.93C215.209 316.796 231.179 332.766 245.48 333.408C259.781 334.049 265.752 318.182 267.18 298.512C268.608 278.841 258.17 262.324 243.865 261.732C224.313 260.928 213.415 276.321 214.283 295.93Z" fill="#F4B18C"/>
<path d="M441.106 257.204C434.69 331.684 368.289 367.926 306.987 355.668C245.686 343.411 211.219 283.647 231.623 213.955C242.951 175.261 297.133 145.377 355.629 157.47C417.891 170.345 446.077 199.47 441.106 257.204Z" fill="#752912"/>
<path d="M415.171 235.044C418.26 248.447 388.009 355.963 372.46 368.568C355.968 381.941 297.148 384.067 285.804 381.798C273.652 379.367 236.243 356.586 229.491 336.91C221.511 313.635 235.837 219.269 242.013 208.565C262.881 172.413 296.876 177.854 340.995 186.68C382.27 194.938 407.158 200.271 415.171 235.044Z" fill="#FFC19F"/>
<path d="M372.616 341.173C371.951 345.639 365.216 348.345 357.56 347.215C349.904 346.084 344.23 341.55 344.89 337.085C345.55 332.619 352.29 329.915 359.944 331.043C367.598 332.172 373.274 336.708 372.616 341.173Z" fill="#FF9797"/>
<path d="M254.445 318.229C253.469 322.124 247.947 324.094 242.108 322.633C236.269 321.172 232.329 316.829 233.305 312.934C234.281 309.039 239.804 307.07 245.641 308.532C251.478 309.993 255.42 314.335 254.445 318.229Z" fill="#FF9797"/>
<path d="M265.466 336.205C264.254 347.929 274.346 360.077 289.873 361.796C305.401 363.515 320.277 356.162 321.698 342.427C322.91 330.706 305.406 330.683 289.694 330.837C274.08 330.992 266.678 324.485 265.466 336.205Z" fill="#5B0000"/>
<path d="M289.652 330.646C297.365 330.571 305.479 330.548 311.675 331.885C305.743 337.492 298.229 339.406 289.489 338.952C283.218 338.619 274.141 335.527 271.476 328.977C275.488 329.005 281.439 330.728 289.652 330.646Z" fill="white"/>
<path d="M273.469 355.077C277.368 351.655 283.298 348.953 290.213 347.889C301.725 346.119 311.991 349.449 314.972 355.482C308.821 360.672 299.456 363.06 289.835 361.996C283.27 361.269 277.682 358.682 273.469 355.077Z" fill="#E27974"/>
<path d="M304.68 319.797C304.44 319.749 304.224 319.618 304.072 319.426C303.92 319.235 303.841 318.996 303.848 318.751C303.97 315.117 301.642 312.285 297.922 311.542C294.201 310.799 290.869 312.54 289.684 315.895C289.593 316.153 289.402 316.364 289.155 316.482C288.908 316.6 288.624 316.615 288.366 316.524C288.108 316.433 287.897 316.243 287.779 315.996C287.661 315.749 287.646 315.465 287.737 315.207C289.255 310.912 293.609 308.573 298.326 309.516C303.017 310.455 306.066 314.192 305.913 318.826C305.903 319.099 305.786 319.357 305.586 319.544C305.386 319.731 305.121 319.831 304.848 319.823L304.68 319.797Z" fill="#C67F75"/>
<path d="M380.86 271.86C380.172 271.648 379.586 271.188 379.216 270.57C374.317 262.389 361.951 256.68 350.42 257.307C350.031 257.336 349.641 257.288 349.271 257.165C348.901 257.041 348.56 256.845 348.267 256.588C347.974 256.331 347.736 256.018 347.565 255.668C347.395 255.317 347.296 254.936 347.275 254.547C347.254 254.158 347.311 253.769 347.443 253.402C347.574 253.035 347.778 252.698 348.041 252.411C348.305 252.124 348.623 251.892 348.977 251.73C349.331 251.567 349.714 251.477 350.104 251.465C363.859 250.726 378.22 257.499 384.235 267.573C384.539 268.081 384.681 268.669 384.643 269.26C384.605 269.851 384.388 270.416 384.022 270.881C383.655 271.346 383.157 271.689 382.591 271.864C382.026 272.039 381.42 272.038 380.855 271.862L380.86 271.86Z" fill="#752912"/>
<path d="M241.352 245.195C240.782 245.177 240.231 244.987 239.771 244.649C239.312 244.311 238.966 243.842 238.779 243.303C238.592 242.764 238.573 242.182 238.725 241.632C238.876 241.082 239.191 240.591 239.628 240.224C248.288 232.953 263.491 231.32 275.777 236.327C276.415 236.646 276.908 237.193 277.16 237.86C277.411 238.527 277.401 239.264 277.132 239.924C276.862 240.584 276.354 241.118 275.708 241.419C275.061 241.719 274.326 241.765 273.647 241.546C263.351 237.335 250.284 238.618 243.252 244.539C242.722 244.985 242.045 245.219 241.352 245.195V245.195Z" fill="#752912"/>
<path d="M275.355 307.906C275.355 307.906 247.49 312.452 241.014 294.33C233.124 272.249 254.713 260.449 265.982 265.893C276.41 270.931 284.051 284.277 275.355 307.906Z" fill="#F9FEFF"/>
<path d="M244.303 268.856C250.575 262.69 257.478 261.747 264.284 263.99C271.242 266.281 277.215 273.745 277.965 280.349C275.584 272.6 269.503 268.711 265.604 266.826C259.398 263.817 250.071 265.566 244.74 271.814C239.997 277.37 238.332 286.806 241.229 294.909C237.054 288.949 237.766 275.283 244.303 268.856Z" fill="#893D2E"/>
<path d="M270.686 287.333C272.4 294.734 268.658 302.603 262.329 304.909C256 307.215 249.483 303.08 247.769 295.685C246.055 288.291 249.797 280.415 256.126 278.11C262.455 275.804 268.974 279.933 270.686 287.333Z" fill="#63190D"/>
<path d="M269.948 285.022C270.424 287.075 269.385 289.258 267.629 289.898C265.873 290.538 264.065 289.4 263.589 287.338C263.114 285.277 264.151 283.102 265.908 282.462C267.666 281.822 269.473 282.969 269.948 285.022Z" fill="#FEFFFE"/>
<path d="M321.491 317.537C321.491 317.537 350.117 333.63 365.113 319.896C383.384 303.162 364.802 283.155 350.059 283.278C336.415 283.395 322.217 292.279 321.491 317.537Z" fill="#F9FEFF"/>
<path d="M372.581 295.275C368.373 286.962 361.203 283.147 352.752 282.271C344.107 281.375 334.299 285.614 330.61 291.31C336.595 285.27 344.969 284.327 350.061 284.289C358.185 284.211 367.667 289.804 370.809 297.779C373.602 304.874 371.324 314.186 364.618 320.327C371.803 316.691 376.965 303.935 372.581 295.275Z" fill="#893D2E"/>
<path d="M355.562 305.23C356.048 307.968 355.712 310.788 354.595 313.335C353.478 315.881 351.631 318.04 349.288 319.537C346.944 321.034 344.21 321.802 341.43 321.745C338.649 321.688 335.949 320.807 333.669 319.215C331.389 317.623 329.633 315.391 328.621 312.8C327.61 310.21 327.39 307.378 327.988 304.662C328.587 301.947 329.977 299.47 331.983 297.544C333.99 295.619 336.522 294.331 339.26 293.845C341.078 293.522 342.941 293.56 344.744 293.958C346.548 294.355 348.255 295.104 349.769 296.161C351.283 297.218 352.573 298.563 353.567 300.119C354.561 301.675 355.239 303.412 355.562 305.23Z" fill="#63190D"/>
<path d="M354.899 302.811C355.034 303.57 354.94 304.353 354.63 305.059C354.32 305.766 353.808 306.364 353.158 306.779C352.508 307.195 351.749 307.408 350.978 307.392C350.207 307.376 349.457 307.131 348.825 306.69C348.193 306.248 347.705 305.629 347.425 304.91C347.145 304.191 347.084 303.406 347.25 302.652C347.416 301.899 347.802 301.212 348.358 300.678C348.915 300.144 349.617 299.787 350.377 299.652C350.881 299.562 351.398 299.573 351.898 299.683C352.399 299.793 352.872 300.001 353.292 300.294C353.712 300.588 354.07 300.961 354.346 301.393C354.622 301.825 354.809 302.306 354.899 302.811V302.811Z" fill="#FEFFFE"/>
<path d="M427.222 343.102C417.432 362.993 394.278 371.986 379.342 366.767C364.406 361.549 379.09 299.483 407.911 299.749C431.907 299.971 436.426 324.405 427.222 343.102Z" fill="#FFC19F"/>
<path d="M410.336 338.721C407.321 347.356 395.831 352.82 388.819 348.837C386.084 347.284 397.334 317.323 402.007 318.274C409.911 319.88 413.35 330.087 410.336 338.721Z" fill="#E0956C"/>
<path d="M258.429 449.149C246.066 449.179 226.431 442.443 220.479 439.535C225.199 428.193 239.646 399.67 246.474 394.027C253.559 388.169 269.933 386.93 276.051 386.945C272.432 408.144 258.429 449.149 258.429 449.149Z" fill="#E53939"/>
<path d="M265.277 381.958C289.331 434.019 310.146 439.207 360.456 403.951C368.009 410.587 369.707 440.998 353.806 449.146C322.884 464.989 269.533 472.105 247.845 391.281C247.036 388.248 259.661 382.584 265.277 381.958Z" fill="#FFC19F"/>
<path d="M211.279 385.989C206.584 406.83 205.792 435.543 207.009 446.163C209.252 465.854 237.24 460.269 236.715 443.743C236.311 431.018 233.958 401.776 232.06 383.027C231.744 379.898 211.979 382.88 211.279 385.989Z" fill="#FFC19F"/>
<path d="M382.669 264.808C331.989 224.05 278.459 199.932 240.605 197.711C259.075 171.776 291.976 153.427 330.447 150.995C391.996 147.111 437.857 185.821 446.431 236.399C452.055 269.579 437.425 294.34 428.36 307.684C415.146 293.105 399.809 278.591 382.669 264.808Z" fill="#E53333"/>
<path d="M240.826 197.038C259.463 171.229 292.478 153.084 330.965 150.907C345.423 150.065 359.92 151.625 373.868 155.525C382.27 168.493 387.527 183.337 388.436 199.382C389.617 220.268 383.367 240.025 371.811 256.683C324.628 220.665 276.01 199.33 240.826 197.038Z" fill="#FFE3E3"/>
<path d="M184.205 163.219C206.535 147.026 256.121 151.848 312.731 197.122C333.18 213.473 353.334 234.454 365.931 252.597C359.874 248.03 350.175 235.628 342.032 230.602C298.192 203.545 239.623 192.341 227.401 212.148C222.964 219.338 222.509 224.07 221.864 230.143C163.744 210.944 160.778 180.2 184.205 163.219Z" fill="#BC2424"/>
<path d="M186.84 172.052C214.223 156.283 257.38 160.634 313.99 205.907C334.438 222.259 352.061 237.194 365.929 252.597C359.873 248.03 350.535 241.993 342.392 236.969C298.552 209.91 240.994 201.121 230.936 222.113C227.812 228.634 227.751 230.381 226.815 236.768C162.031 217.949 168.469 182.632 186.84 172.052Z" fill="#E53333"/>
<path d="M398.09 156.147C396.105 159.56 400.762 165.972 408.494 170.473C416.227 174.973 424.103 175.852 426.089 172.439C428.074 169.026 423.417 162.614 415.685 158.115C407.952 153.617 400.077 152.735 398.09 156.147Z" fill="#E53333"/>
<path opacity="0.53" d="M260.698 312.701C266.075 309.7 276.631 318.37 284.279 332.066C291.926 345.762 293.767 359.298 288.392 362.3L209.742 394.272C206.339 396.17 199.658 390.682 194.818 382.014C189.979 373.346 188.813 364.777 192.215 362.877L260.698 312.701Z" fill="#C6F4EF"/>
<path opacity="0.73" d="M284.279 332.066C291.926 345.762 293.767 359.298 288.392 362.3L209.742 394.272C206.339 396.17 199.658 390.682 194.818 382.014C189.979 373.346 188.813 364.777 192.215 362.877L260.698 312.701C266.075 309.7 276.631 318.37 284.279 332.066ZM266.557 341.959C273.429 354.262 282.575 362.242 286.987 359.785C291.399 357.328 289.404 345.348 282.533 333.04C275.662 320.733 266.515 312.758 262.103 315.216C257.691 317.675 259.682 329.654 266.557 341.959Z" fill="#C6F4EF"/>
<path opacity="0.8" d="M257.13 347.502C271.458 349.331 290.174 357.948 286.532 359.981L259.634 369.693L212.722 388.812C209.896 390.386 204.366 385.838 200.356 378.656C196.346 371.474 195.379 364.373 198.195 362.799L231.653 338.284C231.653 338.284 240.356 345.354 257.13 347.502Z" fill="white"/>
<path opacity="0.73" d="M194.637 382.069C199.44 390.672 206.135 396.082 209.591 394.152C213.047 392.222 211.954 383.678 207.151 375.081C202.348 366.485 195.653 361.07 192.196 362.998C188.74 364.927 189.834 373.467 194.637 382.069Z" fill="#C6F4EF"/>
<path d="M226.135 349.705C229.395 352.631 238.367 354.614 241.531 358.166C241.616 358.316 241.686 358.474 241.739 358.638C233.302 355.135 224.82 355.271 217.508 353.816C211.126 361.811 225.772 361.883 239.044 366.102C230.63 364.737 224.821 364.824 219.111 363.625C213.408 365.469 213.831 369.042 219.363 370.81C223.639 372.177 231.689 373.314 239.488 375.598C240.043 376.082 221.446 375.05 218.301 377.801C217.907 379.843 220.497 382.573 226.188 382.897C229.267 383.063 232.768 382.639 239.435 383.868C244.213 386.89 247.147 391.906 248.776 393.677C255.396 399.352 264.277 390.867 265.401 388.707C268.334 383.093 263.626 367.244 258.44 362.067C249.749 353.389 245.613 348.792 226.853 344.46C222.996 344.864 224.547 348.289 226.135 349.705Z" fill="#FFC19F"/>
<path d="M360.905 447.507C351.394 456.65 321.78 467.304 313.23 467.304C312.458 460.487 308.842 433.841 310.643 425.269C331.757 419.696 345.752 414.13 362.786 400.742C371.971 416.406 372.667 436.195 360.905 447.507Z" fill="#E53939"/>
<path d="M226.002 187.425C231.257 196.684 242.346 199.588 258.587 204.188C255.864 198.276 258.454 190.057 262.971 187.563C263.701 201.22 298.926 205.646 302.808 218.771C290.419 214.74 271.569 211.654 268.419 215.395C262.414 222.525 242.03 223.277 231.696 215.229C223.004 208.451 221.342 193.483 226.002 187.425Z" fill="#752912"/>
</svg>
