<svg width="806" height="980" viewBox="0 0 806 980" fill="none" xmlns="http://www.w3.org/2000/svg">
<path opacity="0.3" d="M558 305.007L523.573 536.218L140.28 566.904L107 287.319L558 305.007Z" fill="#D4B3FF"/>
<g style="mix-blend-mode:multiply" opacity="0.25">
<path d="M335.174 677.521C231.213 677.521 146.936 664.472 146.936 648.376C146.936 632.279 231.213 619.23 335.174 619.23C439.135 619.23 523.412 632.279 523.412 648.376C523.412 664.472 439.135 677.521 335.174 677.521Z" fill="#B0D4E2"/>
</g>
<path d="M254.51 646.273L264.402 646.215L255.371 285.435L245.467 285.492L254.51 646.273Z" fill="#AD7260"/>
<path d="M257.701 646.261L267.593 646.192L258.55 285.412L248.658 285.469L257.701 646.261Z" fill="#CC9966"/>
<path d="M330.423 645.801L339.305 645.744L306.106 435.001L297.223 435.058L330.423 645.801Z" fill="#AD7260"/>
<path d="M333.281 645.79L342.163 645.732L308.963 434.99L300.081 435.047L333.281 645.79Z" fill="#CC9966"/>
<path d="M199.197 646.617L209.089 646.56L242.943 411.108L233.039 411.165L199.197 646.617Z" fill="#AD7260"/>
<path d="M202.376 646.606L212.279 646.537L246.122 411.085L236.229 411.142L202.376 646.606Z" fill="#CC9966"/>
<path d="M342.76 504.318L342.799 510.432L206.583 511.289L206.545 505.175L342.76 504.318Z" fill="#AD7260"/>
<path d="M207.207 511.256L324.674 510.52L297.717 319.361L190.28 320.039L181.054 325.786L207.207 511.256Z" fill="#A8A8A8"/>
<path d="M217.237 511.198L334.704 510.463L307.747 319.304L190.28 320.039L217.237 511.198Z" fill="#C4E9F7"/>
<g opacity="0.75">
<g opacity="0.75">
<path opacity="0.75" d="M172.573 401.109C172.573 388.467 173.721 369.504 182.327 359.735C189.787 351.115 204.705 347.668 215.607 349.391C226.509 351.69 232.821 363.183 237.411 372.377C250.609 366.056 259.789 373.526 264.953 385.019C275.855 381.571 286.184 385.019 289.626 395.362L172.573 401.109Z" fill="white"/>
<path opacity="0.75" d="M331.857 359.747C330.71 352.851 320.611 338.473 314.299 336.175C302.25 331.578 296.512 337.899 297.086 349.392C295.364 345.944 289.053 345.944 285.61 346.518C280.446 347.668 279.298 349.392 279.872 355.138C274.708 352.265 263.232 358.586 267.822 361.459L331.857 359.747Z" fill="white"/>
<path opacity="0.75" d="M194.377 452.251C204.131 453.401 213.886 439.035 219.05 432.714C223.64 426.967 229.378 421.221 237.411 421.796C245.444 422.37 254.051 431.564 260.937 435.587C267.248 439.609 273.56 445.93 281.593 444.781C289.053 443.632 293.069 437.886 299.381 434.438C310.857 428.117 325.775 438.46 336.103 443.632C342.989 447.654 342.989 448.229 344.71 456.274C347.005 466.043 351.022 475.237 353.317 485.006C355.039 491.901 356.186 500.521 351.022 505.118C343.563 510.865 328.07 510.29 319.463 512.014C307.414 514.887 295.938 517.186 283.888 517.186C272.413 517.186 261.511 515.462 250.035 515.462C231.673 516.036 216.755 517.76 198.394 513.738C196.672 513.738 195.525 513.163 194.377 513.163V452.251Z" fill="#4C684A"/>
<path opacity="0.75" d="M184.049 485.581C189.787 487.305 197.82 485.006 203.558 484.432C216.148 482.672 228.478 479.392 240.28 474.663C257.494 467.767 274.134 461.446 291.348 455.125C300.529 452.252 303.971 454.55 312.578 458.573C320.424 462.573 328.703 465.658 337.251 467.767C342.415 468.916 350.448 468.342 355.612 471.215C361.924 474.663 360.203 482.133 361.35 489.603C361.924 493.051 365.941 504.544 363.072 507.992C359.629 511.44 341.841 512.014 336.677 512.589C325.202 513.738 313.726 513.163 302.824 515.462C292.495 517.186 283.315 519.485 272.987 519.485C255.199 519.485 238.559 522.358 220.771 523.507C208.722 524.082 197.246 521.783 185.196 521.783L184.049 485.581Z" fill="#738C5D"/>
<path opacity="0.75" d="M364.793 478.11C353.317 478.685 340.694 481.558 329.218 482.707C314.299 483.857 298.807 484.431 283.888 486.155C266.101 487.879 247.74 491.327 229.952 491.902C220.198 492.476 211.017 493.626 201.262 493.626C195.525 493.626 186.344 491.902 180.606 494.2C180.032 494.775 178.311 494.2 177.163 494.2C177.737 503.969 177.163 525.805 189.787 528.104C197.82 529.828 210.443 526.38 218.476 525.805C233.969 524.081 249.461 524.081 264.38 522.932C286.757 521.783 308.561 521.208 330.939 518.335C341.268 517.186 359.055 520.059 367.088 512.014L364.793 478.11Z" fill="#B4CE55"/>
</g>
</g>
<path d="M342.733 498.188L342.81 510.416L226.08 511.151L226.003 498.922L342.733 498.188Z" fill="#CC9966"/>
<path d="M386.769 400.845L386.632 400.65C386.437 400.385 387.183 400.293 387.297 400.293C387.412 400.293 387.951 400.293 387.883 400.661C387.814 401.029 386.735 401.029 386.735 400.788V400.65L387.148 400.765H387.033L387.699 400.408L387.837 400.604C388.043 400.88 386.953 401.121 386.769 400.845Z" fill="black"/>
<path d="M424.846 355.713C418.534 355.517 414.713 346.128 414.139 343.071C413.412 339.981 413.357 336.771 413.978 333.658C414.552 330.589 416.469 327.532 416.664 324.464C416.847 320.246 415.7 316.223 416.847 311.822C418.19 307.029 421.254 304.351 425.649 302.248C434.061 297.835 447.075 301.674 452.044 310.098C457.013 318.522 453.386 333.658 450.322 342.278C448.704 346.806 443.827 351.989 438.663 353.276C438.61 358.071 439.057 362.859 439.994 367.562C440.947 371.389 443.437 373.308 446.88 374.457L447.258 375.032C445.537 377.905 440.763 379.629 437.699 380.583C432.914 382.307 427.566 383.456 422.78 380.399C420.68 379.054 419.143 377.135 419.533 374.457C419.923 371.779 421.438 372.354 423.733 371.389C429.207 368.998 429.631 361.356 429.471 354.793L424.846 355.713Z" fill="#EDBF9F"/>
<path d="M451.849 338.853C448.027 337.508 448.796 331.762 451.849 330.038C449.37 326.981 448.601 323.533 452.239 320.844C450.127 319.89 447.832 314.339 450.323 312.799C447.075 313.764 442.289 311.845 442.289 307.627C438.273 311.27 432.34 310.121 431.961 304.179C431.009 306.294 426.602 307.052 424.502 306.869C421.438 306.673 419.912 304.57 418.959 301.881C418.765 303.007 418.296 304.067 417.596 304.969C416.896 305.871 415.984 306.586 414.943 307.052C412.452 308.018 410.926 306.098 409.388 304.179C411.878 309.546 404.224 313.569 401.172 308.592C400.607 307.684 400.261 306.657 400.162 305.592C400.062 304.526 400.211 303.453 400.598 302.455C401.55 299.777 403.65 299.203 405.567 297.674C403.65 295.95 400.976 294.031 402.698 291.158C404.04 288.664 407.667 288.285 409.962 289.629C409.994 288.26 410.513 286.947 411.426 285.927C412.34 284.907 413.587 284.247 414.943 284.067C418.569 283.492 419.533 286.756 421.633 288.664C425.845 284.458 431.009 285.216 433.109 290.963C436.93 285.791 442.668 290.009 443.058 294.985C447.258 291.928 450.896 296.134 451.091 300.157C456.634 296.904 463.141 304.57 458.929 309.351C460.651 308.592 463.898 310.5 464.472 312.42C464.862 314.718 462.177 316.442 460.651 317.591C463.52 317.017 464.094 321.809 463.898 323.533C463.715 326.211 461.993 327.555 459.308 327.739C461.798 328.705 460.077 332.532 459.124 334.06C457.977 335.98 455.682 337.129 454.718 338.083L451.849 338.853Z" fill="#352119"/>
<path d="M449.14 337.899C451.631 332.911 458.895 336.175 460.042 340.772C460.241 341.783 460.227 342.825 460 343.83C459.774 344.836 459.341 345.783 458.729 346.612C458.117 347.44 457.338 348.132 456.444 348.642C455.55 349.152 454.559 349.47 453.536 349.575C450.667 349.771 446.271 347.093 447.04 343.829L449.14 337.899Z" fill="#EDBF9F"/>
<path d="M443.402 322.568C443.97 322.096 444.349 321.435 444.47 320.706C444.598 319.986 444.534 319.245 444.286 318.557C444.015 317.806 443.492 317.172 442.806 316.764C442.466 316.537 442.067 316.416 441.658 316.416C441.25 316.416 440.85 316.537 440.511 316.764C440.995 317.1 441.389 317.55 441.658 318.074C441.853 318.465 441.991 318.867 442.163 319.304L442.702 320.752C442.886 321.327 443.093 321.867 443.402 322.568Z" fill="#352119"/>
<path d="M425.615 311.822C424.989 311.371 424.241 311.122 423.47 311.108C422.699 311.094 421.943 311.315 421.3 311.741C420.947 311.981 420.644 312.288 420.41 312.645C420.176 313.002 420.014 313.402 419.934 313.821C419.867 314.207 419.878 314.602 419.967 314.983C420.056 315.364 420.22 315.724 420.451 316.039C420.933 315.396 421.254 314.89 421.598 314.499C421.892 314.174 422.223 313.884 422.585 313.637C423.004 313.358 423.437 313.101 423.882 312.867C424.485 312.563 425.065 312.214 425.615 311.822V311.822Z" fill="#352119"/>
<path d="M428.289 324.292C427.038 326.749 425.628 329.122 424.066 331.394C423.162 332.483 422.338 333.635 421.599 334.842C421.2 335.516 420.972 336.277 420.933 337.06C420.925 337.491 421.027 337.917 421.227 338.299C421.428 338.681 421.721 339.006 422.081 339.244C422.326 339.449 422.609 339.604 422.915 339.698C423.22 339.793 423.541 339.826 423.859 339.795C424.431 339.725 424.979 339.528 425.466 339.221C425.932 338.934 426.359 338.591 426.74 338.198C427.123 337.828 427.462 337.416 427.75 336.968C427 337.68 426.135 338.259 425.191 338.68C424.763 338.88 424.297 338.986 423.825 338.991C423.612 339.001 423.399 338.965 423.201 338.886C423.003 338.806 422.825 338.685 422.677 338.531V338.531C421.702 337.807 421.966 336.566 422.677 335.428C423.389 334.29 424.227 333.256 424.973 332.061C426.494 329.669 427.614 327.045 428.289 324.292V324.292Z" fill="#A55E46"/>
<path d="M432.879 344.979C432.141 345.534 431.335 345.994 430.481 346.346C429.659 346.696 428.811 346.981 427.945 347.197C427.102 347.413 426.232 347.506 425.362 347.472C424.471 347.439 423.616 347.103 422.941 346.519C423.144 346.99 423.46 347.404 423.86 347.724C424.26 348.045 424.733 348.262 425.236 348.357C426.225 348.593 427.255 348.593 428.243 348.357C429.199 348.127 430.111 347.738 430.94 347.208C431.788 346.668 432.461 345.894 432.879 344.979V344.979Z" fill="#A55E46"/>
<path d="M434.991 330.612C434.991 332.095 435.886 333.302 436.999 333.302C438.112 333.302 439.007 332.095 439.007 330.612C439.007 329.13 438.078 327.912 436.999 327.912C435.92 327.912 434.991 329.13 434.991 330.612Z" fill="black"/>
<path d="M419.452 326.981C419.452 328.463 420.348 329.659 421.461 329.659C422.574 329.659 423.469 328.509 423.469 326.981C423.469 325.452 422.574 324.292 421.461 324.292C420.348 324.292 419.452 325.498 419.452 326.981Z" fill="black"/>
<path d="M339.168 373.526C344.71 372.561 347.201 379.652 348.922 383.479C350.07 385.778 351.022 387.892 351.975 390.191C352.548 391.34 353.122 392.294 353.696 393.443C361.247 400.891 375.316 411.832 376.648 412.2C376.648 412.2 386.723 402.27 387.309 400.707L393.678 409.706C391.761 412.383 381.238 423.106 377.99 426.175C375.695 428.278 374.743 426.554 373.021 424.451C371.105 422.348 348.67 395.914 348.291 394.949C348.291 394.949 348.291 394.857 348.291 394.811C343.184 396.443 337.745 400.27 333.246 394.374C329.057 388.651 331.134 375.25 339.168 373.526Z" fill="#EDBF9F"/>
<path d="M307.609 397.719C307.609 397.719 466.354 310.317 310.478 400.73C310.478 400.73 306.943 401.351 307.609 397.719Z" fill="#633E2C"/>
<path d="M299.576 405.131C300.907 405.315 303.397 404.741 301.871 403.017C301.102 402.258 299.381 402.638 298.428 402.638C300.528 401.488 303.019 398.994 299.576 397.661C302.17 395.615 304.82 393.34 308.206 394.983C313.37 397.477 312.027 403.028 308.206 406.097C306.18 407.512 303.789 408.31 301.32 408.395C301.411 407.737 301.291 407.066 300.978 406.48C300.664 405.893 300.174 405.421 299.576 405.131Z" fill="#352119"/>
<path d="M291.543 399.167C294.561 401.466 297.028 399.638 299.576 397.627C303.019 398.96 300.528 401.454 298.428 402.603C299.381 402.603 301.102 402.224 301.871 402.983C303.397 404.706 300.907 405.281 299.576 405.097C300.176 405.383 300.67 405.852 300.987 406.436C301.305 407.02 301.429 407.69 301.343 408.35C300.103 408.416 298.86 408.288 297.659 407.97C293.448 406.821 291.726 402.603 291.153 398.96L291.543 399.167Z" fill="#4C684A"/>
<path d="M335.335 396.121C335.335 398.236 333.613 399.19 331.513 399.19C327.302 399.19 324.433 391.915 329.218 390.95L335.335 396.121Z" fill="#EDBF9F"/>
<path d="M335.335 396.121C335.296 396.842 334.984 397.52 334.462 398.018C333.926 398.455 333.278 398.734 332.592 398.822C331.927 398.957 331.24 398.922 330.592 398.721C329.945 398.52 329.358 398.16 328.885 397.673C327.905 396.729 327.305 395.457 327.198 394.099C327.142 393.468 327.317 392.839 327.692 392.329C328.103 391.841 328.671 391.512 329.298 391.398L328.954 391.306C331.043 392.926 333.154 394.57 335.335 396.121ZM335.335 396.121C333.441 394.225 331.467 392.432 329.482 390.651L329.333 390.524H329.138C328.297 390.626 327.529 391.05 326.995 391.709C326.462 392.368 326.206 393.208 326.28 394.053C326.389 395.649 327.118 397.138 328.311 398.202C328.894 398.75 329.604 399.145 330.377 399.351C331.131 399.532 331.918 399.532 332.672 399.351C333.448 399.203 334.151 398.798 334.669 398.202C334.914 397.918 335.1 397.587 335.214 397.23C335.329 396.872 335.37 396.495 335.335 396.121V396.121Z" fill="#A55E46"/>
<path d="M338.777 392.271C338.02 396.098 334.003 397.443 330.744 394.949C327.988 392.426 325.999 389.175 325.006 385.571C324.433 382.698 327.875 381.732 330.561 381.548L338.777 392.271Z" fill="#EDBF9F"/>
<path d="M338.777 392.271C338.506 393.454 337.817 394.499 336.838 395.213C335.854 395.863 334.656 396.102 333.498 395.88C331.146 395.466 329.562 393.444 328.231 391.49C327.562 390.495 326.971 389.45 326.464 388.364C325.944 387.321 325.588 386.205 325.408 385.054C325.421 384.533 325.6 384.029 325.917 383.616C326.235 383.203 326.675 382.901 327.175 382.755C328.273 382.309 329.436 382.045 330.618 381.974L330.274 381.824C331.651 383.606 333.085 385.341 334.497 387.1C335.908 388.858 337.32 390.57 338.777 392.271ZM338.777 392.271C337.504 390.409 336.195 388.571 334.876 386.743C333.556 384.916 332.236 383.1 330.87 381.307L330.744 381.135H330.526C329.236 381.189 327.964 381.457 326.762 381.928C326.137 382.185 325.577 382.578 325.121 383.077C324.646 383.632 324.4 384.347 324.433 385.077C324.606 386.344 324.994 387.572 325.58 388.708C326.12 389.828 326.746 390.903 327.451 391.926C328.144 392.974 328.965 393.932 329.895 394.777C330.859 395.644 332.056 396.207 333.338 396.397C333.972 396.494 334.619 396.459 335.238 396.295C335.858 396.131 336.438 395.841 336.941 395.443C337.939 394.662 338.596 393.526 338.777 392.271V392.271Z" fill="#A55E46"/>
<path d="M340.889 390.766C340.634 391.354 340.24 391.871 339.74 392.272C339.24 392.673 338.649 392.945 338.02 393.064C334.003 393.639 332.087 389.616 330.561 386.927C329.413 384.824 326.154 379.273 327.497 376.974C328.449 375.055 333.235 375.434 334.956 375.825L340.889 390.766Z" fill="#EDBF9F"/>
<path d="M340.889 390.766C340.611 391.386 340.155 391.91 339.581 392.271C339.036 392.664 338.391 392.895 337.722 392.938C337.065 392.975 336.409 392.875 335.792 392.646C335.176 392.416 334.614 392.062 334.141 391.605C333.187 390.668 332.392 389.581 331.789 388.387L329.849 384.79C329.217 383.594 328.664 382.358 328.197 381.089C327.678 379.932 327.537 378.641 327.795 377.4C328.151 376.365 329.643 376.078 330.905 375.963C332.23 375.88 333.56 375.965 334.864 376.216L334.577 375.975C335.564 378.457 336.643 380.917 337.676 383.388C338.709 385.858 339.787 388.318 340.889 390.766ZM340.889 390.766C340.005 388.226 339.11 385.698 338.169 383.192C337.228 380.687 336.322 378.158 335.323 375.676L335.254 375.469H335.036C333.66 375.182 332.251 375.078 330.848 375.159C330.122 375.19 329.405 375.317 328.713 375.538C328.339 375.664 327.989 375.854 327.68 376.101C327.505 376.239 327.35 376.401 327.221 376.584C327.118 376.75 327.026 376.922 326.946 377.101C326.696 377.841 326.652 378.636 326.82 379.4C326.946 380.097 327.134 380.781 327.382 381.445C327.881 382.744 328.467 384.007 329.138 385.226C329.792 386.445 330.457 387.628 331.18 388.812C331.87 390.039 332.753 391.145 333.797 392.088C334.331 392.563 334.961 392.919 335.644 393.131C336.326 393.343 337.047 393.407 337.756 393.317C338.462 393.221 339.128 392.932 339.68 392.482C340.233 392.032 340.651 391.438 340.889 390.766V390.766Z" fill="#A55E46"/>
<path d="M338.777 375.503C338.915 377.979 338.765 380.463 338.33 382.904C338.135 384.824 338.043 386.352 335.748 386.777C333.258 387.168 332.661 385.398 332.466 383.33C332.087 380.261 332.466 373.94 334.187 371.262C336.677 367.424 342.415 372.986 344.332 375.469" fill="#EDBF9F"/>
<path d="M338.777 375.503C338.803 377.3 338.672 379.096 338.387 380.87C338.284 381.767 338.066 382.606 337.974 383.537C337.964 384.378 337.664 385.19 337.125 385.835C336.481 386.312 335.685 386.537 334.887 386.467C334.512 386.443 334.154 386.303 333.862 386.066C333.57 385.83 333.359 385.508 333.257 385.146C333.012 384.32 332.869 383.467 332.833 382.606C332.833 381.732 332.833 380.847 332.833 379.962C332.864 378.191 333.052 376.426 333.395 374.687C333.571 373.833 333.829 372.998 334.164 372.193C334.432 371.427 334.988 370.797 335.713 370.435C336.506 370.198 337.357 370.255 338.112 370.596C338.925 370.927 339.696 371.355 340.407 371.872C341.868 372.909 343.201 374.117 344.377 375.469C343.326 373.993 342.084 372.663 340.682 371.515C339.978 370.939 339.207 370.449 338.387 370.056C337.502 369.612 336.483 369.514 335.53 369.78C335.067 369.967 334.649 370.249 334.301 370.607C333.953 370.965 333.684 371.392 333.51 371.86C333.132 372.71 332.84 373.595 332.638 374.503C332.248 376.291 332.029 378.111 331.984 379.939C331.955 380.852 331.978 381.765 332.052 382.675C332.081 383.591 332.232 384.499 332.5 385.376C332.674 385.869 332.98 386.307 333.384 386.64C333.803 386.973 334.317 387.166 334.853 387.191C335.348 387.216 335.845 387.157 336.321 387.019C336.819 386.89 337.274 386.632 337.641 386.272C338.259 385.509 338.588 384.553 338.571 383.571C338.571 382.698 338.8 381.778 338.858 380.882C339.018 379.091 338.991 377.288 338.777 375.503V375.503Z" fill="#A55E46"/>
<path d="M352.009 397.271C350.483 397.466 348.761 398.041 347.04 397.466C344.366 396.696 344.745 394.398 343.218 393.064C342.254 391.915 340.154 392.674 338.238 392.294C333.843 391.145 331.169 385.019 337.664 385.399C340.728 385.594 343.792 386.169 346.845 386.169" fill="#EDBF9F"/>
<path d="M352.009 397.27C351.091 397.328 350.173 397.512 349.267 397.546C348.373 397.595 347.481 397.433 346.662 397.075C345.871 396.715 345.253 396.059 344.94 395.248C344.631 394.326 344.13 393.48 343.471 392.765V392.765C343.02 392.281 342.399 391.993 341.738 391.961C341.153 391.961 340.591 391.961 340.051 391.961C339.53 391.981 339.008 391.954 338.491 391.88C337.997 391.778 337.522 391.604 337.079 391.363C336.17 390.878 335.385 390.19 334.784 389.352C334.477 388.998 334.274 388.566 334.197 388.103C334.12 387.641 334.172 387.166 334.348 386.732C334.676 386.375 335.082 386.1 335.534 385.927C335.986 385.753 336.471 385.686 336.953 385.732C337.997 385.732 339.11 385.812 340.201 385.893C342.384 386.126 344.581 386.211 346.776 386.145C344.584 386.019 342.438 385.617 340.258 385.329C339.11 385.192 338.089 385.031 336.942 384.996C336.357 384.974 335.772 385.044 335.209 385.203C334.582 385.371 334.034 385.753 333.659 386.283C333.311 386.85 333.2 387.531 333.35 388.18C333.472 388.772 333.71 389.334 334.05 389.835C334.702 390.812 335.595 391.604 336.643 392.133C337.171 392.416 337.741 392.613 338.33 392.719C338.897 392.787 339.469 392.811 340.04 392.788C341.119 392.788 342.335 392.627 342.84 393.259C343.451 393.89 343.931 394.637 344.252 395.455C344.673 396.365 345.43 397.077 346.363 397.443C347.261 397.776 348.227 397.878 349.175 397.742C350.185 397.719 351.068 397.454 352.009 397.27Z" fill="#A55E46"/>
<path d="M451.849 431.565C453.386 424.279 455.681 416.625 457.403 409.338C458.55 404.557 459.503 399.96 460.455 395.168C461.224 391.72 462.946 388.077 463.141 384.445C463.324 377.158 451.275 373.711 445.537 371.987C443.058 376.779 437.125 379.273 431.961 378.698C427.749 378.124 422.402 376.009 422.402 370.837C421.059 371.607 408.057 374.676 406.14 375.251C403.845 376.009 403.271 377.158 401.745 379.078C400.402 381.181 383.567 400.293 383.567 400.293C385.679 405.27 394.286 411.637 399.255 413.751C399.255 413.751 404.224 404.936 404.798 402.638C404.798 402.638 399.45 428.692 399.634 429.646L451.849 431.565Z" fill="white"/>
<path d="M471.025 641.768C471.409 641.607 471.832 641.563 472.241 641.641C472.712 643.825 473.228 646.503 471.805 648.261C469.04 651.514 465.884 654.559 462.992 657.708C460.967 660.159 458.347 662.047 455.383 663.19C452.526 664.225 450.081 663.363 447.144 662.42C444.848 661.662 443.517 660.811 443.127 658.248C442.737 655.685 444.803 656.467 446.294 655.318L471.025 641.768Z" fill="#352119"/>
<path d="M472.287 643.25C472.104 640.297 470.795 637.09 470.118 634.182C469.235 630.309 468.454 626.298 467.571 622.425C464.989 622.563 462.177 624.207 459.905 624.942C461.351 627.022 461.213 631.746 460.984 634.366C460.849 635.856 460.38 637.295 459.611 638.577C458.842 639.859 457.793 640.95 456.543 641.768C452.182 645.055 445.181 646.767 444.183 652.812C443.885 654.697 443.552 656.34 445.147 657.409C446.927 658.595 449.011 659.241 451.149 659.271C454.752 659.397 459.274 657.582 461.305 654.525L472.287 643.25Z" fill="#633E2C"/>
<path d="M384.463 632.527C387.229 624.678 395.939 625.701 402.491 623.839C405.337 622.965 409.377 622.138 411.351 619.655C412.866 617.621 414.116 612.76 413.451 610.358C415.48 610.169 417.519 610.107 419.556 610.174C419.694 614.196 421.22 627.068 421.851 633.389C411.397 635.056 392.484 635.688 383.464 636.24C383.677 634.973 384.012 633.73 384.463 632.527Z" fill="#633E2C"/>
<path d="M421.851 633.389C422.006 634.555 422.095 635.73 422.115 636.906L383.717 639.136C383.265 638.238 383.175 637.201 383.464 636.239C392.484 635.653 411.397 635.056 421.851 633.389Z" fill="#352119"/>
<path d="M472.666 624.643C467.502 627.517 457.747 633.263 451.435 629.815C450.862 624.643 452.009 618.897 451.435 613.725C450.862 607.979 447.993 603.956 447.419 597.061C446.845 584.993 440.533 574.075 437.664 562.008C434.222 549.366 431.927 536.724 429.058 524.082C427.336 518.335 423.32 492.477 420.451 488.454C419.909 487.572 419.149 486.843 418.244 486.34C417.34 485.837 416.321 485.576 415.287 485.581C418.729 494.775 417.582 509.141 418.729 518.91C419.303 530.403 420.451 541.321 421.025 552.239C421.598 570.627 427.336 597.061 424.467 614.3C418.156 614.875 412.418 615.449 406.106 615.449C405.532 609.128 408.401 597.635 407.827 591.889C407.254 589.591 404.958 587.292 404.958 584.419C404.958 581.546 406.106 578.672 405.532 575.225C404.385 564.306 400.942 552.814 399.22 541.321C397.915 530.115 395.999 518.989 393.483 507.992C391.187 495.925 386.597 485.006 388.892 472.364C392.909 455.125 398.073 438.461 399.22 421.222C408.975 422.509 410.398 382.399 412.406 372.78C415.209 371.776 418.097 371.033 421.036 370.562C419.139 377.903 418.365 385.49 418.741 393.064C422.757 393.639 432.076 395.65 436.092 395.076C436.743 392.219 437.658 389.43 438.824 386.743C440.545 382.721 444.424 375.009 447.293 371.561C447.293 371.561 449.588 371.653 455.475 374.55C443.425 384.318 431.376 426.968 456.037 429.267C450.873 455.125 445.709 478.685 449.726 505.119C453.168 528.679 456.037 552.239 461.201 575.799C461.775 579.822 464.07 584.419 464.07 588.441C464.07 590.74 466.366 598.785 466.939 601.658C467.502 606.255 472.666 624.643 472.666 624.643Z" fill="#336699"/>
<path d="M422.746 503.75C432.305 501.073 439.191 508.727 433.074 517.542C436.896 517.162 439.191 521.76 439.96 524.817C441.107 529.804 436.517 531.333 438.433 535.16C440.35 538.987 446.111 541.32 444.963 546.274C443.816 551.641 438.468 550.101 437.32 545.894C436.551 548.193 431.582 549.342 431.961 549.721L422.746 503.75Z" fill="#D84C4C"/>
<path d="M441.326 514.496C439.253 514.496 437.573 513.38 437.573 512.002C437.573 510.625 439.253 509.508 441.326 509.508C443.398 509.508 445.078 510.625 445.078 512.002C445.078 513.38 443.398 514.496 441.326 514.496Z" fill="#D84C4C"/>
<path d="M422.746 535.574C414.334 535.183 414.334 542.079 416.629 547.825C418.156 551.273 418.534 552.043 417.777 555.112C417.008 557.41 414.713 559.709 415.861 562.387C417.387 566.604 423.515 567.363 427.336 565.834C426.958 565.455 426.568 565.455 426.568 565.064L422.746 535.574Z" fill="#8CCFED"/>
<path d="M389.087 497.648C397.121 493.809 401.711 502.624 399.025 509.899C406.68 510.29 407.827 519.863 399.025 519.093C399.025 522.162 395.973 523.69 393.288 523.69L389.087 497.648Z" fill="#A9BC57"/>
<path d="M464.828 572.707C458.7 572.707 454.878 575.006 455.257 581.901C455.647 587.268 458.321 588.027 462.533 589.176C464.438 589.567 469.418 591.865 469.418 588.797L464.828 572.707Z" fill="#8068AD"/>
<path d="M418.569 434.794C416.274 429.427 423.928 426.37 427.75 430.197C430.045 422.922 441.142 430.197 441.142 435.173C441.521 441.31 434.635 444.758 430.045 444.367L418.569 434.794Z" fill="#F1CB30"/>
<path d="M452.297 572.707C452.297 573.765 453.547 574.627 455.097 574.627C456.646 574.627 457.908 573.765 457.908 572.707C457.908 571.65 456.657 570.788 455.097 570.788C453.536 570.788 452.297 571.673 452.297 572.707Z" fill="#8068AD"/>
<path d="M449.026 579.442C449.026 579.86 449.15 580.269 449.382 580.617C449.614 580.964 449.943 581.235 450.329 581.396C450.715 581.556 451.14 581.597 451.549 581.516C451.959 581.434 452.335 581.233 452.63 580.937C452.926 580.641 453.127 580.265 453.208 579.854C453.29 579.444 453.248 579.019 453.088 578.633C452.928 578.246 452.658 577.916 452.31 577.684C451.963 577.451 451.555 577.327 451.137 577.327C450.577 577.327 450.04 577.55 449.644 577.947C449.248 578.343 449.026 578.881 449.026 579.442Z" fill="#8068AD"/>
<path d="M408.975 548.871C408.955 549.33 409.071 549.784 409.311 550.175C409.55 550.566 409.901 550.877 410.318 551.067C410.735 551.257 411.2 551.318 411.651 551.241C412.103 551.164 412.522 550.954 412.853 550.637C413.185 550.32 413.414 549.911 413.511 549.462C413.608 549.014 413.569 548.547 413.399 548.121C413.229 547.694 412.935 547.329 412.556 547.072C412.176 546.814 411.729 546.677 411.27 546.676C410.976 546.668 410.682 546.719 410.407 546.826C410.132 546.932 409.88 547.092 409.667 547.296C409.454 547.5 409.283 547.744 409.164 548.014C409.045 548.285 408.981 548.576 408.975 548.871Z" fill="#8CCFED"/>
<path d="M405.2 505.532C405.165 506.026 405.28 506.52 405.529 506.948C405.778 507.377 406.151 507.72 406.597 507.934C407.044 508.148 407.545 508.222 408.034 508.147C408.523 508.072 408.979 507.851 409.341 507.513C409.704 507.176 409.957 506.737 410.067 506.253C410.176 505.77 410.139 505.264 409.958 504.803C409.778 504.341 409.462 503.945 409.054 503.665C408.645 503.385 408.162 503.234 407.667 503.233C407.354 503.219 407.041 503.268 406.746 503.377C406.452 503.485 406.182 503.651 405.953 503.865C405.723 504.079 405.538 504.336 405.409 504.623C405.28 504.909 405.208 505.218 405.2 505.532Z" fill="#A9BC57"/>
<path d="M411.27 426.278C411.27 427.427 412.797 428.438 414.713 428.438C416.629 428.438 418.156 427.473 418.156 426.278C418.156 425.083 416.629 424.117 414.713 424.117C412.797 424.117 411.27 425.083 411.27 426.278Z" fill="#F1CB30"/>
<path d="M434.635 406.063C435.599 407.787 435.025 411.809 434.256 413.728C433.677 415.626 432.551 417.31 431.02 418.569C429.489 419.829 427.621 420.607 425.65 420.808C421.059 421.383 415.895 421.003 413.6 416.785C411.683 413.338 412.647 408.361 413.979 404.913L414.552 403.764L434.635 406.063Z" fill="#214F75"/>
<path d="M410.409 588.441C411.537 590.387 413.146 592.01 415.08 593.153C416.949 594.26 418.695 595.563 420.29 597.038C420.454 597.217 420.607 597.405 420.749 597.601C420.875 597.774 420.898 598.003 420.91 597.831C420.921 597.659 420.91 597.831 420.623 597.831C420.378 597.849 420.133 597.849 419.889 597.831C418.844 597.831 417.743 597.636 416.652 597.521C415.562 597.406 414.438 597.279 413.301 597.233C412.723 597.215 412.143 597.242 411.569 597.314C410.891 597.352 410.249 597.629 409.755 598.095L409.48 598.383L409.721 598.704C410.9 600.221 412.495 601.359 414.311 601.98C415.202 602.293 416.134 602.472 417.077 602.509C418.008 602.562 418.942 602.445 419.831 602.164C418.93 602.307 418.012 602.307 417.111 602.164C416.223 602.016 415.356 601.762 414.529 601.405C412.893 600.731 411.486 599.597 410.478 598.141V598.75C410.815 598.509 411.213 598.37 411.626 598.348C412.149 598.308 412.675 598.308 413.198 598.348C414.265 598.348 415.356 598.532 416.446 598.67C417.536 598.808 418.638 598.946 419.797 598.98C420.102 599.002 420.409 599.002 420.715 598.98C420.896 598.959 421.074 598.912 421.243 598.842C421.5 598.74 421.712 598.548 421.839 598.302C421.909 598.155 421.941 597.993 421.931 597.831C421.914 597.713 421.883 597.597 421.839 597.486C421.773 597.314 421.684 597.152 421.575 597.004C421.39 596.759 421.187 596.528 420.967 596.314C419.28 594.824 417.4 593.568 415.379 592.579C414.426 592.047 413.509 591.452 412.636 590.797C411.802 590.105 411.054 589.314 410.409 588.441V588.441Z" fill="#17384F"/>
<path d="M422.746 606.255C421.494 606.152 420.235 606.152 418.982 606.255C417.731 606.255 416.515 606.393 415.31 606.358C414.14 606.359 412.978 606.172 411.867 605.807C410.736 605.389 409.745 604.66 409.01 603.704C409.209 604.332 409.532 604.914 409.96 605.415C410.388 605.917 410.911 606.327 411.5 606.623C412.691 607.202 413.997 607.505 415.321 607.508C417.841 607.427 420.339 607.005 422.746 606.255V606.255Z" fill="#17384F"/>
<path d="M452.296 605.393C453.228 606.363 454.339 607.144 455.567 607.691C456.771 608.258 458.005 608.76 459.262 609.197C460.488 609.64 461.684 610.162 462.843 610.76C463.954 611.319 464.912 612.144 465.631 613.162L465.734 612.484C464.691 613.395 463.533 614.168 462.292 614.782C461.086 615.365 459.749 615.622 458.413 615.529H458.355C457.706 615.49 457.061 615.394 456.428 615.242C455.739 615.073 455.042 614.943 454.339 614.851C453.917 614.789 453.487 614.817 453.077 614.932C452.924 614.979 452.783 615.057 452.662 615.162C452.542 615.267 452.445 615.396 452.377 615.541C452.266 615.802 452.242 616.092 452.308 616.368C452.526 617.102 452.88 617.788 453.352 618.391V618.391C454.134 619.486 455.276 620.271 456.577 620.609C457.775 620.963 459.012 621.172 460.26 621.23C461.493 621.295 462.729 621.256 463.956 621.115C465.176 621.004 466.382 620.777 467.559 620.437C465.163 620.813 462.727 620.864 460.318 620.586C459.144 620.465 457.989 620.207 456.875 619.816C455.812 619.478 454.888 618.8 454.247 617.885V617.885C453.877 617.386 453.597 616.826 453.421 616.23C453.421 616.127 453.421 616.035 453.421 616.046C453.421 616.058 453.421 616.046 453.49 616.046C453.756 616.005 454.027 616.005 454.293 616.046C454.957 616.138 455.616 616.265 456.267 616.426C456.973 616.608 457.696 616.719 458.424 616.759V616.759C459.96 616.869 461.497 616.568 462.877 615.885C464.216 615.246 465.456 614.418 466.561 613.426L466.767 612.932L466.526 612.564C465.692 611.416 464.567 610.511 463.267 609.944C462.048 609.382 460.79 608.909 459.503 608.53C458.241 608.116 456.967 607.76 455.739 607.3C454.492 606.864 453.328 606.219 452.296 605.393V605.393Z" fill="#17384F"/>
<path d="M468.936 622.632C467.961 623.194 466.915 623.623 465.826 623.908C464.764 624.189 463.676 624.362 462.579 624.425C461.48 624.488 460.378 624.454 459.285 624.322C458.17 624.177 457.076 623.899 456.026 623.494C456.892 624.312 457.95 624.897 459.102 625.195C460.255 625.516 461.453 625.644 462.648 625.574C463.833 625.492 464.997 625.212 466.09 624.747C467.207 624.303 468.188 623.574 468.936 622.632V622.632Z" fill="#17384F"/>
<path d="M421.025 489.5C420.65 488.249 419.925 487.133 418.936 486.282C417.926 485.431 416.755 484.794 415.493 484.409C414.285 484.033 413.049 483.749 411.798 483.558L408.091 482.995C410.35 484.055 412.706 484.894 415.126 485.501C416.267 485.846 417.356 486.344 418.362 486.983C419.38 487.673 420.279 488.523 421.025 489.5V489.5Z" fill="#17384F"/>
<path d="M404.959 483.857C406.106 484.857 407.254 485.753 408.401 486.65C409.549 487.546 410.696 488.443 411.844 489.408L412.211 488.523C409.434 488.219 406.639 488.104 403.845 488.178H403.306V488.73C403.325 489.297 403.484 489.851 403.768 490.342C404.052 490.834 404.453 491.247 404.936 491.546C405.803 492.091 406.771 492.459 407.782 492.626C408.748 492.82 409.734 492.901 410.719 492.867C411.696 492.855 412.668 492.72 413.611 492.465C412.655 492.532 411.695 492.513 410.742 492.408C409.804 492.312 408.875 492.139 407.965 491.89C407.089 491.654 406.262 491.265 405.521 490.741C405.181 490.525 404.898 490.228 404.698 489.878C404.498 489.527 404.387 489.133 404.373 488.73L403.822 489.282C406.6 489.282 409.354 489.281 412.097 489.511L413.692 489.626L412.464 488.638C411.283 487.722 410.049 486.878 408.769 486.11C407.495 485.362 406.221 484.627 404.959 483.857Z" fill="#17384F"/>
<path d="M467.915 415.475C468.879 415.475 472.127 446.115 472.127 446.115C471.358 449.563 463.715 452.057 460.456 453.01C456.634 454.16 452.997 455.504 449.175 456.274C445.927 457.033 442.29 457.424 439.421 458.573C438.036 456.927 436.349 455.561 434.452 454.55C438.648 452.398 442.62 449.83 446.306 446.885C448.223 445.356 457.403 439.794 458.551 438.265C460.272 436.346 455.292 418.153 454.144 415.475H467.915Z" fill="#EDBF9F"/>
<path d="M415.872 435.944C424.513 434.197 434.727 433.438 439.971 442.173C442.645 446.425 441.234 451.712 446.329 454.574C451.241 457.47 458.688 453.907 463.761 456.573C468.626 459.274 470.233 465.089 469.877 470.617C469.2 476.812 463.405 479.938 458.149 481.352C448.28 484.305 436.965 485.845 426.717 483.777C417.1 481.811 405.647 475.87 400.793 466.675C396.203 457.654 399.335 448.034 405.946 440.932C408.163 438.626 411.029 437.05 414.162 436.415L415.872 435.944Z" fill="#91584A"/>
<path d="M415.493 433.519C424.146 431.772 434.36 431.013 439.593 439.748C442.278 444 440.855 449.287 445.962 452.148C450.862 455.044 457.116 452.252 462.188 454.918C464.554 456.191 466.502 458.12 467.799 460.475C469.095 462.83 469.686 465.51 469.499 468.192C468.833 474.387 463.038 477.513 457.782 478.926C447.901 481.88 436.597 483.42 426.349 481.351C416.721 479.386 405.28 473.444 400.414 464.25C395.824 455.228 398.968 445.609 405.567 438.506C407.787 436.198 410.657 434.622 413.795 433.99L415.493 433.519Z" fill="#CC9966"/>
<path d="M426.143 453.907C427.21 456.838 435.129 455.93 435.393 452.631C435.955 446.184 420.382 445.644 426.017 454.079L426.143 453.907Z" fill="#EDBF9F"/>
<path d="M429.15 453.286C428.243 455.447 422.562 464.848 421.782 458.768C421.357 456.033 423.217 452.022 424.904 449.907C427.199 447.057 429.287 447.367 432.397 448.436" fill="#EDBF9F"/>
<path d="M429.15 453.286C428.531 454.392 427.845 455.459 427.096 456.481C426.388 457.509 425.589 458.471 424.709 459.354C424.31 459.768 423.834 460.1 423.309 460.331C423.227 460.379 423.134 460.404 423.039 460.404C422.944 460.404 422.851 460.379 422.769 460.331C422.592 460.174 422.468 459.965 422.413 459.734C422.098 458.583 422.098 457.368 422.413 456.217C422.969 453.804 424.077 451.554 425.65 449.643C426.41 448.697 427.51 448.087 428.714 447.942C429.967 447.912 431.217 448.094 432.409 448.482C431.247 447.923 429.989 447.592 428.702 447.505C427.347 447.569 426.072 448.168 425.156 449.172C424.246 450.111 423.49 451.19 422.918 452.367C422.306 453.52 421.836 454.743 421.518 456.01C421.183 457.328 421.223 458.713 421.633 460.009C421.75 460.396 421.983 460.736 422.299 460.986C422.48 461.115 422.69 461.196 422.911 461.222C423.131 461.248 423.355 461.218 423.561 461.136C424.204 460.861 424.773 460.44 425.225 459.906C426.903 457.942 428.231 455.702 429.15 453.286V453.286Z" fill="#A55E46"/>
<path d="M412.957 440.736C413.198 442.242 415.62 443.115 418.374 442.69C421.128 442.265 423.182 440.702 422.964 439.242C422.746 437.782 420.313 436.852 417.548 437.277C414.782 437.702 412.728 439.231 412.957 440.736Z" fill="#352119"/>
<path d="M405.383 451.321C405.613 452.827 408.034 453.7 410.8 453.275C413.565 452.85 415.608 451.287 415.39 449.827C415.172 448.368 412.728 447.437 409.973 447.873C407.219 448.31 405.154 449.816 405.383 451.321Z" fill="#8CCFED"/>
<path d="M406.221 463.388C406.45 464.894 408.872 465.779 411.637 465.354C414.403 464.928 416.446 463.354 416.228 461.848C416.01 460.343 413.565 459.469 410.811 459.895C408.057 460.32 405.945 461.883 406.221 463.388Z" fill="#8068AD"/>
<path d="M414.495 472.812C414.724 474.318 417.146 475.191 419.912 474.766C422.677 474.341 424.72 472.778 424.502 471.318C424.284 469.859 421.851 468.928 419.097 469.353C416.343 469.778 414.265 471.307 414.495 472.812Z" fill="#F1CB30"/>
<path d="M428.61 475.111C428.84 476.617 431.261 477.502 434.027 477.076C436.792 476.651 438.835 475.077 438.617 473.571C438.399 472.066 435.955 471.192 433.201 471.617C430.446 472.043 428.381 473.606 428.61 475.111Z" fill="#A9BC57"/>
<path d="M443.816 472.721C444.057 474.226 446.478 475.1 449.232 474.674C451.987 474.249 454.041 472.686 453.823 471.227C453.605 469.767 451.172 468.848 448.406 469.273C445.64 469.698 443.586 471.261 443.816 472.721Z" fill="#D84C4C"/>
<path d="M472.046 417.245C472.046 415.107 471.403 412.855 471.185 410.602C470.979 407.281 470.233 403.971 469.797 400.649C469.163 394.987 467.685 389.451 465.413 384.226C464.346 381.985 461.787 378.871 459.319 378.48C456.646 378.055 455.475 381.158 454.086 383.295C450.988 388.329 450.127 395.294 449.806 401.075C449.588 404.396 449.485 407.821 449.267 411.142C449.021 413.525 448.987 415.925 449.163 418.314L472.046 417.245Z" fill="white"/>
</svg>
