<svg width="806" height="980" viewBox="0 0 806 980" fill="none" xmlns="http://www.w3.org/2000/svg">
<path opacity="0.2" d="M594.716 686.614H72.0225C65.5306 674.147 62.4591 659.83 64.5975 645.022C66.1716 634.175 87.8848 623.568 82.769 603.812C73.0694 566.364 81.6824 540.8 111.142 500.584C144.585 454.947 166.184 452.42 172.582 421.254C174.782 410.536 172.701 400.11 172.278 389.567C171.434 368.596 178.393 344.878 196.347 329.621C216.023 312.9 243.201 310.383 267.627 310.029C282.551 309.815 297.612 310.063 311.353 313.905C340.437 322.037 360.021 345.014 384.838 360.281C401.916 370.786 421.76 377.69 442.835 380.463C454.782 382.035 467.387 382.365 477.876 387.159C495.842 395.375 503.841 414.823 508.589 433.644C513.336 452.465 516.355 472.692 528.567 487.351C540.318 501.457 559.113 508.558 573.196 520.553C594.998 539.126 604.171 568.559 604.7 598.269C605.23 627.66 596.644 657.248 594.716 686.614Z" fill="#B3EBF5"/>
<path opacity="0.2" d="M88.0237 477.324C101.248 472.307 101.96 494.932 101.918 501.018C106.434 502.698 110.804 504.748 114.984 507.146C112.303 500.235 106.146 496.949 105.73 492.103C105.262 486.669 108.183 480.734 115.288 487.49C120.917 492.842 117.944 503.729 116.466 508.022C121.85 511.247 126.835 515.098 131.316 519.494C129.324 511.062 122.609 506.435 122.703 500.879C122.807 494.803 126.693 488.678 133.732 497.204C139.551 504.252 134.395 516.563 132.433 520.625C135.465 523.765 137.006 525.975 137.17 526.213C140.198 530.509 143.006 534.956 145.585 539.538C143.991 532.08 139.021 526.912 139.727 521.893C140.573 515.869 145.154 510.403 151.055 520.005C155.722 527.601 149.884 538.38 147.241 542.553C151.879 551.241 155.673 560.354 158.571 569.769C159.388 562.666 155.977 551.972 158.749 545.753C160.566 541.671 163.397 541.152 165.469 541.442C167.239 541.69 168.758 542.844 169.677 544.575C174.842 554.356 162.843 567.591 159.069 571.398C161.862 580.825 163.754 590.497 164.719 600.283C165.172 596.615 165.83 591.072 166.058 588.18C166.417 583.62 168.998 577.628 172.476 575.676C172.622 575.594 172.765 575.523 172.906 575.456C175.629 574.171 178.668 575.5 180.161 578.315C186.004 589.334 168.776 601.044 164.996 603.442L165.011 603.616C166.603 624.644 163.417 638.631 163.279 639.216L161.4 638.696C161.432 638.562 164.454 625.242 163.19 605.56C145.706 599.827 142.771 587.107 145.944 583.203C149.221 579.168 156.453 578.866 158.175 587.972C159.165 593.255 161.304 598.507 162.917 601.992C162.025 591.994 160.15 582.108 157.319 572.48C132.91 574.161 133.769 556.841 139.207 553.815C144.709 550.75 148.161 553.951 150.869 561.106C152.262 564.757 154.304 568.125 156.896 571.046C154.079 561.794 150.385 552.833 145.865 544.287C142.4 547.407 133.066 554.703 126.173 549.587C117.563 543.203 122.169 537.767 127.411 536.577C132.225 535.483 137.454 542.281 145.159 542.953C142.286 537.661 139.105 532.543 135.63 527.626C135.573 527.539 132.477 523.105 126.097 517.657C122.961 521.273 114.519 529.724 107.131 525.692C97.8544 520.625 101.839 514.586 106.918 512.652C111.45 510.916 117.192 516.486 124.604 516.412C117.671 510.816 109.887 506.37 101.55 503.243C98.2702 506.963 90.0111 515.013 82.7717 511.06C73.493 505.996 77.4777 499.954 82.5564 498.02C87.1525 496.269 92.9935 502.018 100.557 501.777L100.624 501.554C98.3073 499.818 93.3796 496.135 90.9393 494.516C87.6846 492.358 84.4597 487.438 84.7245 483.224C84.9894 479.011 88.0237 477.324 88.0237 477.324Z" fill="#93E3F1"/>
<path d="M93.828 581.641L64.3507 582.338C53.3493 564.191 45.1719 548.362 45.1719 548.362C78.129 539.287 106.344 541.269 130.116 549.301L144.316 580.143L146.068 555.866C205.354 584.785 232.007 650.158 232.007 650.158C232.007 650.158 129.072 643.497 106.921 634.286C98.3696 630.727 87.2148 617.107 76.7406 601.724C84.2893 593.902 93.828 581.641 93.828 581.641Z" fill="#C4F3FB"/>
<path d="M45.1641 548.354C45.1641 548.354 179.042 598.326 232.007 650.158C232.007 650.158 129.072 643.502 106.925 634.286C98.3742 630.727 87.2193 617.107 76.7451 601.724C84.2889 593.904 93.8226 581.636 93.8226 581.636L64.3503 582.338C53.3415 564.191 45.1641 548.354 45.1641 548.354Z" fill="#9FEEF7"/>
<path d="M39.5779 583.25C44.8348 573.695 56.5243 586.603 59.5364 590.194C63.0218 588.919 66.6062 587.935 70.2531 587.25C65.2363 584.537 59.9893 585.691 57.3287 583.057C54.3587 580.103 53.1014 575.163 60.6353 575.57C66.605 575.892 70.2878 583.754 71.5599 587.022C76.3237 586.22 81.1655 585.985 85.9843 586.323C80.6209 582.38 74.3715 583.02 71.6589 579.714C68.6889 576.098 67.9143 570.563 76.2921 572.041C83.2222 573.263 86.3308 583.062 87.2044 586.425C89.0789 586.582 90.9383 586.886 92.7658 587.332C96.6844 588.335 100.55 589.537 104.346 590.933C99.6958 587.357 94.1988 586.812 92.1173 583.516C89.6101 579.548 89.573 574.062 97.8098 576.743C104.334 578.861 106.282 588.104 106.811 591.871C113.86 594.646 120.626 598.092 127.017 602.163C123.958 597.59 116.622 593.026 115.152 587.989C114.187 584.686 115.588 582.965 116.947 582.102C118.107 581.358 119.575 581.276 120.973 581.834C128.879 584.986 128.438 598.753 128.121 602.872C134.457 607.003 140.387 611.729 145.83 616.986C144.266 614.607 141.892 611.034 140.583 609.218C138.521 606.364 137.049 601.56 138.108 598.673C138.152 598.554 138.199 598.44 138.249 598.329C139.202 596.216 141.65 595.474 143.941 596.377C152.851 599.916 148.592 615.401 147.57 618.697L147.664 618.791C159.076 630.328 164.18 640.119 164.392 640.536L163.031 641.171C162.982 641.076 158.118 631.747 147.567 620.835C134.45 626.219 126.394 620.227 126.31 616.351C126.22 612.343 130.314 608.549 135.863 613.03C139.081 615.627 142.946 617.643 145.629 618.878C140.125 613.463 134.1 608.606 127.644 604.377C114.167 617.576 106.039 606.986 107.72 602.493C109.42 597.942 113.041 598.093 118.194 600.935C120.828 602.391 123.703 603.355 126.681 603.782C120.419 599.768 113.789 596.363 106.881 593.614C106.406 597.175 104.559 606.121 97.9707 606.572C89.7388 607.138 89.7314 601.644 92.2064 598.326C94.4859 595.278 100.938 596.645 105.794 593.19C101.472 591.512 97.0547 590.091 92.5653 588.934C92.4886 588.915 88.4642 587.861 82.0069 587.858C81.9698 591.546 81.2298 600.727 74.8863 602.059C66.9218 603.728 66.2486 598.192 68.2632 594.517C70.0601 591.238 76.2006 591.625 80.5096 587.873C73.6544 588.06 66.8734 589.346 60.4249 591.685C60.3605 595.509 59.5265 604.36 53.3093 605.662C45.3447 607.333 44.669 601.796 46.6837 598.123C48.5077 594.797 54.7992 595.246 59.1131 591.32L59.0414 591.156C56.8139 591.293 52.094 591.603 49.8566 591.873C46.8693 592.235 42.5257 590.963 40.5828 588.361C38.6399 585.76 39.5779 583.25 39.5779 583.25Z" fill="#CCF6FE"/>
<path d="M53.0518 636.838C70.3199 625.289 87.9493 618.759 105.151 615.728C110.484 621.834 117.016 628.999 117.016 628.999L117.055 614.168C183.294 608.368 240.137 650.624 240.137 650.624C202.703 676.496 170.204 684.558 143.256 683.512C141.449 678.398 138.875 670.764 138.875 670.764L134.625 682.857C122.701 681.487 111.061 678.27 100.121 673.321C102.376 667.047 104.73 659.885 104.73 659.885L90.7659 668.622C66.1866 654.942 53.0518 636.838 53.0518 636.838Z" fill="#C4F3FB"/>
<path d="M143.256 683.512C141.449 678.398 138.875 670.764 138.875 670.764L134.625 682.857C122.701 681.487 111.061 678.27 100.121 673.321C102.376 667.047 104.73 659.885 104.73 659.885L90.7659 668.622C66.1866 654.942 53.0518 636.838 53.0518 636.838C130.002 624.659 240.137 650.617 240.137 650.617C202.703 676.496 170.204 684.558 143.256 683.512Z" fill="#9FEEF7"/>
<path d="M553.827 340.528C542.088 332.924 536.697 354.639 535.472 360.539C530.757 361.219 526.106 362.289 521.568 363.738C525.594 357.615 532.23 355.723 533.641 351.125C535.222 345.969 533.641 339.622 525.359 344.677C518.803 348.677 519.419 359.822 519.954 364.281C514.078 366.274 508.459 368.956 503.213 372.272C506.888 364.549 514.35 361.464 515.407 356.075C516.568 350.177 514.088 343.447 505.507 350.22C498.419 355.819 500.842 368.797 501.896 373.132C498.315 375.535 496.362 377.348 496.154 377.547C492.333 381.068 488.692 384.781 485.247 388.672C488.333 381.795 494.214 377.834 494.575 372.835C495.008 366.836 491.716 360.596 484.017 368.648C477.926 375.017 481.329 386.656 483.027 391.244C476.738 398.673 471.177 406.692 466.419 415.188C467.105 408.152 472.624 398.525 471.238 391.933C470.327 387.608 467.699 386.517 465.637 386.366C463.875 386.237 462.172 387.035 460.935 388.516C453.906 396.896 462.756 412.195 465.615 416.661C460.955 425.191 457.116 434.146 454.151 443.405C454.475 439.765 454.99 434.272 455.371 431.427C455.97 426.941 454.72 420.612 451.762 418C451.641 417.891 451.515 417.79 451.394 417.695C449.035 415.887 445.815 416.537 443.786 418.935C435.851 428.359 450.067 443.281 453.225 446.389C453.21 446.443 453.191 446.501 453.176 446.555C447.268 466.551 447.441 480.737 447.451 481.332L449.374 481.221C449.374 481.084 449.218 467.581 454.53 448.814C472.624 446.917 478.104 435.234 475.849 430.797C473.518 426.212 466.588 424.414 463.031 432.858C460.967 437.756 457.819 442.389 455.534 445.419C458.474 435.944 462.341 426.783 467.078 418.07C490.323 424.786 493.093 407.865 488.464 403.805C483.782 399.696 479.777 402.069 475.676 408.42C473.569 411.666 470.893 414.502 467.776 416.79C472.422 408.437 477.855 400.547 483.999 393.23C486.697 396.965 494.211 405.96 501.933 402.458C511.586 398.084 508.262 391.869 503.45 389.627C499.025 387.563 492.56 393.039 484.967 392.087C488.837 387.568 492.969 383.28 497.342 379.248C497.416 379.176 501.332 375.528 508.631 371.6C510.913 375.749 517.318 385.681 525.297 383.323C535.319 380.347 532.722 373.688 528.213 370.759C524.191 368.147 517.484 372.326 510.333 370.707C518.198 366.738 526.647 364.059 535.358 362.771C537.754 367.056 544.065 376.557 551.886 374.246C561.908 371.285 559.311 364.613 554.802 361.685C550.723 359.033 543.882 363.373 536.62 361.563L536.603 361.332C539.204 360.132 544.731 357.612 547.426 356.548C551.023 355.14 555.163 351.055 555.782 346.929C556.401 342.802 553.827 340.528 553.827 340.528Z" fill="#CCF6FE"/>
<path d="M408.445 268.005C419.744 267.663 414.41 284.946 412.794 289.541C415.771 291.989 418.542 294.677 421.08 297.579C420.848 291.657 417.049 287.567 417.992 283.795C419.048 279.564 422.798 275.842 426.407 282.803C429.273 288.316 424.199 295.771 421.966 298.631C425.198 302.472 427.966 306.682 430.213 311.174C430.894 304.29 427.023 299.022 428.538 294.858C430.193 290.29 434.725 286.674 437.829 294.953C440.395 301.797 433.302 309.763 430.763 312.313C431.611 314.074 432.323 315.898 432.894 317.769C434.068 321.806 435.038 325.9 435.799 330.035C436.542 323.984 434.116 318.778 435.953 315.17C438.158 310.835 443.039 307.898 445.006 316.695C446.563 323.654 439.351 330.283 436.267 332.748C437.514 340.525 438.011 348.403 437.752 356.276C440.227 351.12 440.413 342.14 444.125 338.172C446.558 335.56 448.828 335.907 450.313 336.666C451.587 337.316 452.436 338.583 452.679 340.138C454.045 348.88 441.541 355.762 437.693 357.65C437.361 365.505 436.284 373.311 434.475 380.962C435.77 378.308 437.707 374.29 438.631 372.163C440.088 368.807 443.581 364.951 446.731 364.383C446.86 364.36 446.979 364.341 447.112 364.328C449.501 364.065 451.456 365.863 451.855 368.381C453.409 378.234 437.346 382.596 433.864 383.422C433.864 383.466 433.842 383.513 433.832 383.558C429.572 399.869 423.531 409.613 423.276 410.02L421.991 409.137C422.051 409.043 427.795 399.762 431.951 384.553C420.222 375.662 421.308 365.281 424.719 363.155C428.246 360.96 433.792 362.619 432.728 369.953C432.111 374.206 432.357 378.732 432.671 381.785C434.598 373.994 435.753 366.032 436.119 358.014C417.229 352.923 422.377 340.054 427.273 339.183C432.223 338.301 434.007 341.621 434.203 347.735C434.311 350.857 434.982 353.933 436.183 356.816C436.458 349.087 435.993 341.35 434.794 333.71C431.369 335.166 422.419 338.241 418.534 332.584C413.68 325.514 418.573 322.605 422.84 323.068C426.763 323.497 428.953 329.995 434.601 332.515C433.806 327.765 432.731 323.066 431.384 318.443C431.362 318.364 430.174 314.202 426.765 308.422C423.456 310.336 414.885 314.525 410.341 309.55C404.649 303.303 409.225 299.774 413.559 299.63C417.432 299.506 420.33 305.207 425.954 307.082C422.164 301.045 417.435 295.655 411.945 291.116C408.497 293.078 400.164 297.009 395.717 292.133C390.024 285.883 394.6 282.357 398.934 282.213C402.862 282.089 405.782 287.957 411.557 289.747L411.665 289.593C410.366 287.674 407.597 283.609 406.173 281.749C404.273 279.269 403.112 274.708 404.406 271.594C405.701 268.479 408.445 268.005 408.445 268.005Z" fill="#CCF6FE"/>
<g opacity="0.5">
<path opacity="0.5" d="M524.597 461.532L552.03 450.682C555.118 429.676 556.504 411.9 556.504 411.9C522.619 416.386 497.396 429.208 478.616 445.876L477.51 479.822L466.469 458.139C423.077 507.895 423.899 578.504 423.899 578.504C423.899 578.504 516.142 532.257 532.967 515.135C539.461 508.525 544.451 491.629 548.126 473.374C538.147 469.118 524.597 461.532 524.597 461.532Z" fill="#C4F3FB"/>
<path opacity="0.5" d="M556.505 411.9C556.505 411.9 452.575 510.108 423.904 578.501C423.904 578.501 516.148 532.254 532.973 515.132C539.467 508.523 544.457 491.627 548.132 473.371C538.148 469.108 524.597 461.532 524.597 461.532L552.03 450.682C555.119 429.686 556.505 411.9 556.505 411.9Z" fill="#9FEEF7"/>
<path opacity="0.5" d="M583.606 496.49C563.215 492.579 544.437 493.435 527.424 497.348C524.879 505.048 521.644 514.197 521.644 514.197L515.848 500.557C452.577 521.03 416.615 582.107 416.615 582.107C461.141 591.357 494.219 586.115 518.637 574.65C518.318 569.233 517.727 561.201 517.727 561.201L526.335 570.682C536.783 564.769 546.251 557.267 554.401 548.443C549.887 543.543 544.937 537.861 544.937 537.861L561.195 540.468C578.525 518.287 583.606 496.49 583.606 496.49Z" fill="#C4F3FB"/>
<path opacity="0.5" d="M518.617 574.642C518.298 569.226 517.707 561.193 517.707 561.193L526.315 570.674C536.769 564.766 546.244 557.266 554.401 548.443C549.887 543.543 544.937 537.861 544.937 537.861L561.195 540.468C578.52 518.287 583.596 496.49 583.596 496.49C507.977 515.259 416.598 582.099 416.598 582.099C461.121 591.35 494.199 586.107 518.617 574.642Z" fill="#9FEEF7"/>
</g>
<path d="M61.4323 692.303L605.01 692.303C606.191 692.303 607.148 691.344 607.148 690.16V688.107C607.148 686.924 606.191 685.964 605.01 685.964L61.4323 685.964C60.2513 685.964 59.2939 686.924 59.2939 688.107V690.16C59.2939 691.344 60.2513 692.303 61.4323 692.303Z" fill="#0B0101"/>
<path d="M200.708 588.069H350.471V526.344H200.708V588.069Z" fill="#E03268"/>
<path d="M465.524 396.248C463.658 396.38 315.475 396.248 315.475 396.248V537.112H411.532L462.955 485.625L465.524 396.248Z" fill="#FF5B7E"/>
<path d="M203.716 475.395C203.716 475.395 306.483 481.543 306.483 475.395V502.179C306.483 502.179 256.223 511.204 250.567 511.204C244.912 511.204 218.578 525.179 215.088 526.332C211.598 527.485 204.102 496.294 203.716 496.029C203.329 495.763 203.716 475.395 203.716 475.395Z" fill="#F9537F"/>
<path d="M457.688 502.571H473.355C476.523 502.571 479.092 499.997 479.092 496.822V401.999C479.092 398.825 476.523 396.251 473.355 396.251H457.688C454.519 396.251 451.951 398.825 451.951 401.999V496.822C451.951 499.997 454.519 502.571 457.688 502.571Z" fill="#E03268"/>
<path d="M354.149 475.395H475.506C478.101 475.394 480.672 475.905 483.071 476.899C485.469 477.893 487.649 479.351 489.486 481.19C491.322 483.028 492.779 485.211 493.773 487.614C494.768 490.016 495.28 492.592 495.281 495.193V564.995C495.281 592.825 472.746 615.386 444.952 615.386L319.996 616.152C319.996 616.152 328.659 613.839 330.097 611.339C335.98 601.034 351.047 574.548 351.047 573.61C351.047 572.445 354.149 475.395 354.149 475.395Z" fill="#F9537F"/>
<path d="M219.61 491.312V559.328C219.611 562.565 220.249 565.769 221.486 568.759C222.723 571.749 224.536 574.465 226.821 576.753C229.106 579.04 231.818 580.855 234.803 582.092C237.788 583.329 240.986 583.966 244.216 583.964H313.648C316.878 583.966 320.076 583.329 323.061 582.092C326.046 580.855 328.758 579.04 331.043 576.753C333.328 574.465 335.141 571.749 336.378 568.759C337.615 565.769 338.253 562.565 338.254 559.328V491.312C338.255 489.221 338.666 487.151 339.465 485.219C340.265 483.288 341.436 481.533 342.912 480.055C344.387 478.577 346.139 477.405 348.068 476.605C349.996 475.806 352.062 475.394 354.149 475.395V475.395C356.235 475.394 358.302 475.805 360.23 476.604C362.159 477.404 363.911 478.576 365.387 480.054C366.863 481.532 368.035 483.287 368.834 485.219C369.633 487.15 370.045 489.221 370.045 491.312V561.081C370.045 591.63 345.313 616.385 314.803 616.385H243.06C212.551 616.385 187.818 591.623 187.818 561.081V491.312C187.819 489.221 188.231 487.15 189.03 485.219C189.829 483.287 191 481.532 192.477 480.054C193.953 478.576 195.705 477.404 197.634 476.604C199.562 475.805 201.628 475.394 203.715 475.395V475.395C205.802 475.394 207.868 475.806 209.796 476.605C211.724 477.405 213.476 478.577 214.952 480.055C216.428 481.533 217.599 483.288 218.398 485.219C219.198 487.151 219.609 489.221 219.61 491.312V491.312Z" fill="#FF85A5"/>
<path d="M217.627 648.75L215.1 669.071L201.49 670.127L201.701 651.282L217.627 648.75Z" fill="#FFC0BB"/>
<path d="M180.812 685.002L217.989 685.25C218.179 685.254 218.368 685.221 218.545 685.151C218.722 685.081 218.883 684.976 219.019 684.843C219.155 684.709 219.264 684.55 219.337 684.374C219.411 684.199 219.449 684.01 219.449 683.819V682.748C219.439 682.36 219.279 681.991 219.001 681.72C218.724 681.449 218.351 681.297 217.964 681.297L180.784 681.049C180.594 681.045 180.405 681.079 180.228 681.149C180.051 681.219 179.89 681.323 179.754 681.457C179.618 681.59 179.51 681.749 179.436 681.925C179.362 682.101 179.324 682.289 179.324 682.48V683.551C179.334 683.94 179.495 684.309 179.773 684.58C180.051 684.852 180.424 685.003 180.812 685.002V685.002Z" fill="#3D3A55"/>
<path d="M217.483 669.294L218.909 680.293C219.085 681.649 218.322 682.874 217.305 682.867L181.947 682.619C181.032 682.619 180.118 682.046 179.626 680.987C179.133 679.928 179.01 678.271 180.571 676.094C183.7 671.737 194.09 670.737 199.134 667.035L215.602 667.146C216.533 667.161 217.325 668.066 217.483 669.294Z" fill="#E03268"/>
<path d="M201.713 673.443C201.843 673.339 201.934 673.194 201.969 673.031C202.004 672.868 201.982 672.698 201.907 672.55C201.199 671.037 198.998 667.357 194.588 668.086C194.34 668.128 194.165 668.458 194.212 668.8C194.256 669.133 194.489 669.351 194.736 669.311C198.696 668.676 200.56 671.92 201.132 673.187C201.148 673.246 201.177 673.301 201.217 673.347C201.256 673.393 201.306 673.43 201.362 673.454C201.418 673.479 201.478 673.49 201.539 673.488C201.6 673.486 201.659 673.471 201.713 673.443V673.443Z" fill="white"/>
<path d="M198.041 674.834C198.17 674.73 198.261 674.584 198.296 674.421C198.332 674.258 198.311 674.088 198.236 673.939C197.528 672.429 195.325 668.748 190.917 669.475C190.67 669.517 190.492 669.847 190.539 670.189C190.583 670.519 190.814 670.737 191.061 670.685C195.021 670.053 196.885 673.297 197.459 674.561C197.473 674.622 197.5 674.678 197.539 674.726C197.578 674.774 197.628 674.813 197.684 674.839C197.74 674.866 197.801 674.879 197.863 674.878C197.925 674.877 197.985 674.862 198.041 674.834V674.834Z" fill="white"/>
<path d="M194.637 676.129C194.767 676.025 194.857 675.88 194.893 675.717C194.928 675.554 194.906 675.384 194.83 675.236C194.125 673.726 191.922 670.045 187.514 670.772C187.267 670.814 187.088 671.144 187.135 671.486C187.183 671.816 187.413 672.034 187.66 671.982C191.62 671.35 193.484 674.594 194.056 675.858C194.179 676.149 194.427 676.255 194.637 676.129Z" fill="white"/>
<g style="mix-blend-mode:multiply" opacity="0.3">
<path d="M207.868 682.802C210.576 673.944 215.367 672.997 217.993 673.217L218.909 680.293C219.085 681.649 218.323 682.874 217.305 682.867L207.868 682.802Z" fill="#E87B50"/>
</g>
<path d="M243.546 649.181L237.529 668.79L223.679 668.887L226.092 654.573L243.546 649.181Z" fill="#FFC0BB"/>
<path d="M366.259 351.774C366.259 351.774 370.397 330.873 358.307 323.522C346.216 316.172 333.762 317.471 325.434 322.419C317.105 327.366 312.65 343.764 316.825 352.898L344.719 343.062L366.259 351.774Z" fill="#07085B"/>
<path d="M203.784 685.374L240.964 685.622C241.154 685.627 241.343 685.593 241.52 685.523C241.696 685.453 241.858 685.349 241.994 685.216C242.13 685.082 242.238 684.924 242.312 684.748C242.386 684.573 242.424 684.384 242.424 684.194V683.12C242.414 682.732 242.253 682.364 241.975 682.093C241.698 681.823 241.326 681.671 240.939 681.672L203.76 681.424C203.57 681.419 203.381 681.453 203.204 681.523C203.027 681.593 202.866 681.697 202.731 681.83C202.595 681.964 202.487 682.122 202.413 682.298C202.34 682.473 202.302 682.662 202.302 682.852V683.926C202.312 684.313 202.473 684.681 202.75 684.952C203.026 685.222 203.398 685.374 203.784 685.374V685.374Z" fill="#3D3A55"/>
<path d="M240.459 669.656L241.884 680.655C242.06 682.011 241.295 683.236 240.278 683.231L204.923 682.983C204.004 682.983 203.091 682.411 202.601 681.354C202.111 680.298 201.982 678.626 203.546 676.461C206.672 672.101 217.065 671.104 222.109 667.399L238.59 667.518C239.508 667.518 240.3 668.431 240.459 669.656Z" fill="#F9537F"/>
<path d="M224.676 673.807C224.806 673.703 224.896 673.557 224.931 673.394C224.966 673.231 224.944 673.061 224.869 672.912C224.161 671.402 221.958 667.721 217.55 668.448C217.303 668.488 217.125 668.818 217.172 669.162C217.216 669.495 217.449 669.713 217.694 669.658C221.654 669.026 223.518 672.27 224.092 673.535C224.106 673.595 224.134 673.651 224.173 673.7C224.212 673.748 224.262 673.786 224.318 673.813C224.374 673.839 224.435 673.852 224.497 673.851C224.559 673.85 224.62 673.835 224.676 673.807Z" fill="white"/>
<path d="M221.018 675.206C221.148 675.102 221.239 674.956 221.274 674.793C221.309 674.63 221.287 674.46 221.211 674.311C220.503 672.803 218.303 669.12 213.895 669.847C213.648 669.889 213.469 670.219 213.516 670.561C213.561 670.893 213.794 671.112 214.041 671.072C218.001 670.437 219.865 673.681 220.436 674.948C220.558 675.206 220.805 675.323 221.018 675.206Z" fill="white"/>
<path d="M217.613 676.493C217.743 676.389 217.833 676.243 217.869 676.08C217.904 675.917 217.882 675.747 217.806 675.598C217.098 674.088 214.898 670.407 210.487 671.134C210.24 671.176 210.064 671.506 210.111 671.848C210.156 672.181 210.388 672.399 210.636 672.359C214.596 671.724 216.46 674.968 217.031 676.235C217.047 676.294 217.076 676.349 217.115 676.396C217.155 676.442 217.205 676.479 217.26 676.504C217.316 676.529 217.377 676.54 217.438 676.539C217.499 676.537 217.559 676.521 217.613 676.493Z" fill="white"/>
<g style="mix-blend-mode:multiply" opacity="0.3">
<path d="M230.844 683.167C233.551 674.308 238.343 673.359 240.969 673.582L241.885 680.655C242.06 682.011 241.296 683.236 240.278 683.231L230.844 683.167Z" fill="#E87B50"/>
</g>
<path d="M353.478 370.796L355.5 394.135L334.354 393.151L336.791 372.482L353.478 370.796Z" fill="#FFC0BB"/>
<path d="M335.633 382.318L336.791 372.49L353.48 370.804L354.178 378.886C350.861 382.097 344.894 385.435 335.633 382.318Z" fill="#F99893"/>
<path d="M322.667 355.068C323.939 357.63 323.263 360.509 321.16 361.501C319.056 362.493 316.321 361.218 315.049 358.656C313.777 356.095 314.452 353.215 316.556 352.226C318.66 351.236 321.395 352.509 322.667 355.068Z" fill="#F99893"/>
<path d="M324.444 370.414C323.691 369.314 323.045 368.145 322.513 366.922C321.001 363.621 320.115 360.07 319.598 356.958C319.489 356.291 319.35 355.631 319.174 354.974C318.486 352.203 318.358 349.323 318.798 346.502C320.268 336.952 328.156 329.338 337.977 328.016C351.208 326.233 362.866 335.776 363.687 348.414C365.049 347.563 366.623 347.288 368.056 347.809C370.808 348.801 371.998 352.335 370.716 355.685C369.434 359.036 366.165 360.941 363.413 359.941C363.039 359.804 362.686 359.616 362.363 359.383C361.938 370.203 353.433 379.064 342.563 379.558C337.446 379.794 332.423 378.114 328.473 374.846C328.193 374.643 327.924 374.426 327.666 374.196C326.434 373.08 325.35 371.809 324.444 370.414V370.414Z" fill="#FFC0BB"/>
<path d="M343.565 351.566C343.57 351.962 343.693 352.347 343.918 352.672C344.143 352.997 344.46 353.247 344.828 353.391C345.196 353.534 345.599 353.564 345.984 353.476C346.369 353.388 346.719 353.187 346.989 352.899C347.259 352.61 347.437 352.247 347.5 351.857C347.563 351.466 347.507 351.065 347.341 350.707C347.175 350.348 346.906 350.047 346.568 349.842C346.229 349.638 345.838 349.54 345.444 349.56C344.93 349.579 344.444 349.8 344.092 350.176C343.741 350.551 343.551 351.051 343.565 351.566V351.566Z" fill="#333333"/>
<path d="M326.701 353.406C326.706 353.802 326.83 354.187 327.055 354.511C327.28 354.836 327.598 355.086 327.966 355.229C328.334 355.372 328.736 355.401 329.121 355.313C329.506 355.225 329.856 355.024 330.126 354.735C330.396 354.447 330.573 354.084 330.636 353.693C330.698 353.303 330.643 352.902 330.477 352.544C330.311 352.185 330.041 351.884 329.703 351.68C329.365 351.476 328.974 351.377 328.58 351.398C328.065 351.416 327.579 351.638 327.227 352.014C326.875 352.39 326.686 352.891 326.701 353.406V353.406Z" fill="#333333"/>
<path d="M341.088 347.216C342.033 346.923 342.997 346.697 343.974 346.542C344.88 346.401 345.802 346.381 346.714 346.482C347.62 346.581 348.506 346.811 349.347 347.164C349.802 347.303 350.198 347.566 350.659 347.752C351.119 347.938 351.515 348.248 352.013 348.454C351.762 348 351.468 347.57 351.136 347.172C350.782 346.776 350.382 346.425 349.943 346.125C349.039 345.489 347.986 345.095 346.887 344.982C345.789 344.855 344.677 344.999 343.647 345.401C342.65 345.771 341.767 346.397 341.088 347.216V347.216Z" fill="#07085B"/>
<path d="M219.37 621.961H451.914C452.738 621.961 453.406 621.291 453.406 620.465V616.393C453.406 615.567 452.738 614.898 451.914 614.898H219.37C218.546 614.898 217.877 615.567 217.877 616.393V620.465C217.877 621.291 218.546 621.961 219.37 621.961Z" fill="#3D3A55"/>
<path d="M332.394 348.169C331.565 347.494 330.576 347.047 329.523 346.872C328.435 346.672 327.315 346.741 326.26 347.072C325.207 347.392 324.253 347.978 323.491 348.774C323.122 349.151 322.798 349.572 322.528 350.026C322.282 350.479 322.081 350.955 321.927 351.447C322.37 351.147 322.719 350.8 323.112 350.505C323.506 350.21 323.855 349.902 324.283 349.679C325.039 349.174 325.863 348.782 326.731 348.513C327.606 348.239 328.514 348.085 329.431 348.054C330.42 348.021 331.41 348.059 332.394 348.169V348.169Z" fill="#07085B"/>
<path d="M363.373 348.709C364.625 347.566 365.623 347.611 365.623 347.611L364.769 340.932L362.47 336.976C362.47 336.976 353.661 326.434 353.354 326.176C353.047 325.918 346.518 322.647 346.117 322.483C345.716 322.319 336.816 323.971 336.816 323.971C336.816 323.971 320.946 321.437 323.924 329.353C326.901 337.269 338.568 341.039 339.145 340.659C337.205 338.923 336.809 333.834 336.809 333.834C345.293 342.127 360.938 347.846 363.373 348.709Z" fill="#07085B"/>
<path d="M336.601 351.395C336.034 352.301 335.529 353.245 335.089 354.22C334.636 355.191 334.254 356.194 333.948 357.221C333.791 357.749 333.688 358.291 333.641 358.84C333.634 358.988 333.639 359.137 333.656 359.284C333.667 359.367 333.682 359.45 333.703 359.532C333.732 359.62 333.773 359.703 333.824 359.78C333.856 359.825 333.891 359.867 333.926 359.906L334.01 359.981C334.067 360.025 334.124 360.077 334.18 360.117C334.302 360.199 334.428 360.283 334.542 360.35C335.023 360.628 335.531 360.854 336.059 361.025C336.578 361.2 337.109 361.336 337.648 361.432C336.667 361.015 335.724 360.512 334.831 359.929C334.725 359.857 334.633 359.772 334.537 359.696L334.403 359.572L334.336 359.51C334.333 359.498 334.327 359.487 334.319 359.477C334.253 359.284 334.237 359.078 334.272 358.877C334.333 358.372 334.44 357.874 334.591 357.389C334.871 356.397 335.23 355.405 335.581 354.401C335.933 353.396 336.267 352.412 336.601 351.395Z" fill="#F99893"/>
<path d="M332.131 388.384C332.131 388.384 315.573 389.084 306.918 399.638C298.263 410.193 273.711 513.731 273.711 513.731L301.322 510.782C301.322 510.782 337.225 461.596 337.225 460.331C337.225 459.067 332.131 388.384 332.131 388.384Z" fill="#050849"/>
<path d="M364.672 388.548C364.672 388.548 332.977 388.483 332.497 388.516C332.017 388.548 329.577 388.287 328.681 389.227C327.785 390.167 326.24 395.338 330.661 397.87C335.081 400.402 325.698 400.509 337.658 402.619C349.617 404.73 346.033 407.579 355.099 403.887C364.165 400.194 365.331 401.776 365.643 398.505C365.954 395.234 364.672 388.548 364.672 388.548Z" fill="#FFC0BB"/>
<path d="M301.675 435.549C303.514 418.933 307.964 407.79 312.949 400.333C316.652 394.819 322.252 390.866 328.68 389.227C328.71 389.337 330.287 395.241 338.432 396.171C346.654 397.121 364.367 388.518 364.682 388.538C373.839 389.108 381.744 390.832 385.865 395.646C394.087 405.251 421.285 472.322 420.654 481.796C420.023 491.27 412.746 491.27 412.746 491.27L338.249 491.304V508.471L284.217 512.168C285.729 511.176 296.468 482.622 301.675 435.549Z" fill="#07085B"/>
<path d="M295.692 429.029C295.217 429.046 276.025 417.4 276.025 417.4L272.439 418.164L273.711 419.104L271.565 418.566L268.078 419.104C268.078 419.104 279.612 432.744 279.805 433.123C279.998 433.503 285.039 435.452 285.428 435.646C285.816 435.839 295.692 429.029 295.692 429.029Z" fill="#DAEEF7"/>
<path d="M326.404 419.729L324.671 418.638L323.872 419.183V418.164L322.783 417.4L294.867 428.463C294.867 428.463 303.807 434.143 304.099 433.919C304.391 433.696 320.31 430.79 320.6 430.353C320.889 429.917 326.404 419.729 326.404 419.729Z" fill="#DAEEF7"/>
<path d="M325.958 419.213L294.318 429.473L268.803 418.35C268.45 418.196 268.063 418.137 267.68 418.181C267.298 418.224 266.933 418.367 266.623 418.596C266.313 418.825 266.069 419.131 265.915 419.485C265.76 419.838 265.701 420.226 265.744 420.609L270.61 464.158C270.649 464.515 270.775 464.856 270.977 465.152C271.179 465.449 271.451 465.691 271.768 465.857L296.258 478.79L318.449 470.566L319.018 469.726L321.897 469.287L331.2 465.84C331.604 465.688 331.948 465.409 332.179 465.044C332.409 464.679 332.515 464.249 332.48 463.818L328.819 421.123C328.792 420.793 328.691 420.473 328.523 420.187C328.355 419.902 328.125 419.658 327.85 419.475C327.574 419.291 327.261 419.172 326.934 419.127C326.606 419.082 326.273 419.111 325.958 419.213V419.213Z" fill="#FEB546"/>
<path d="M325.958 419.213C326.273 419.111 326.606 419.081 326.933 419.125C327.261 419.17 327.574 419.289 327.85 419.472C328.125 419.655 328.355 419.898 328.524 420.183C328.692 420.468 328.794 420.788 328.822 421.118L332.477 463.759C332.515 464.206 332.406 464.653 332.166 465.031C331.926 465.41 331.568 465.699 331.148 465.854L321.899 469.282L319.028 469.721L318.459 470.562L303.532 476.092C300.099 475.43 296.691 474.79 296.691 474.79L294.325 429.473L325.958 419.213Z" fill="#F4A640"/>
<path d="M289.601 434.678L269.87 426.038L270.499 435.016L289.838 443.993L289.601 434.678Z" fill="#F4A640"/>
<path d="M278.933 508.587C278.933 508.587 212.128 506.474 196.946 520.829C181.764 535.183 196.525 641.178 199.055 651.086C199.055 651.086 208.331 659.726 219.295 656.348C230.259 652.97 226.042 605.687 226.042 605.687C226.042 605.687 224.787 560.514 226.463 554.182C228.138 547.851 251.341 543.206 251.341 543.206C251.341 543.206 287.182 518.296 285.073 518.296C282.965 518.296 278.933 508.587 278.933 508.587Z" fill="#2B1C35"/>
<path d="M338.254 506.566C338.254 506.566 248.82 495.932 236.593 536.46C224.367 576.988 215.078 657.191 215.078 657.191C215.078 657.191 226.884 664.368 242.907 657.191C242.907 657.191 265.571 571.068 274.057 562.624C282.544 554.18 338.244 559.328 338.244 559.328L338.254 506.566Z" fill="#3A2645"/>
<path d="M315.266 480.786C315.62 478.857 316.078 476.948 316.638 475.068C317.194 473.188 317.808 471.333 318.548 469.503L318.63 469.299L318.855 469.287L378.527 466.293C378.305 464.481 377.753 462.7 377.151 460.956C376.518 459.146 375.795 457.368 375.038 455.602C373.516 452.076 371.845 448.613 370.115 445.186C366.65 438.324 362.955 431.576 359.111 424.915L359.173 424.877C363.061 431.514 366.801 438.24 370.31 445.082C372.063 448.507 373.761 451.961 375.312 455.498C376.082 457.264 376.82 459.044 377.471 460.86C378.122 462.675 378.708 464.528 378.928 466.477L378.951 466.673H378.748L319.113 469.989C318.427 471.712 317.833 473.49 317.306 475.278C316.754 477.134 316.302 479.018 315.954 480.923C315.593 482.82 315.389 484.743 315.346 486.674C315.291 488.512 315.495 490.349 315.952 492.13L333.614 491.614L342.576 491.366L351.543 491.215V491.302L342.583 491.659L333.626 492.041L315.709 492.785H315.462L315.39 492.549C314.84 490.638 314.584 488.655 314.63 486.667C314.679 484.692 314.891 482.725 315.266 480.786Z" fill="white"/>
<path d="M296.38 428.853L298.669 476.6L295.177 476.104L292.717 428.865C292.717 428.865 294.563 427.568 296.38 428.853Z" fill="#ED9935"/>
<path d="M293.833 474.021C298.261 475.973 307.245 474.557 307.245 474.557L314.046 472.186C314.997 472.836 315.964 473.493 316.922 474.133C316.828 474.445 316.729 474.755 316.637 475.068C316.078 476.948 315.62 478.857 315.266 480.787C314.897 482.721 314.689 484.683 314.645 486.652C314.645 486.977 314.645 487.299 314.665 487.624L313.707 487.267C312.551 487.5 310.455 487.299 307.552 486.853C304.238 486.429 298.998 485.697 296.706 485.037C295.058 484.561 294.34 483.505 294.036 482.528C292.731 481.731 292.61 480.246 292.766 479.056C292.729 478.983 292.698 478.907 292.672 478.83C292.036 476.846 292.392 476.32 292.717 476.117C292.495 475.901 292.335 475.631 292.251 475.333C291.514 472.384 293.833 474.021 293.833 474.021Z" fill="#FFC0BB"/>
<path d="M292.717 478.907C293.27 479.514 293.926 480.017 294.655 480.395C295.38 480.784 296.148 481.088 296.944 481.3C297.74 481.504 298.554 481.628 299.375 481.669C299.783 481.697 300.194 481.669 300.612 481.669C301.03 481.669 301.424 481.602 301.827 481.553C301.013 481.513 300.209 481.486 299.409 481.387C298.613 481.291 297.823 481.144 297.046 480.945C296.273 480.74 295.518 480.471 294.788 480.142C294.05 479.816 293.354 479.402 292.717 478.907V478.907Z" fill="#F99893"/>
<path d="M294.03 482.535C294.63 483.099 295.325 483.551 296.082 483.872C296.836 484.203 297.626 484.444 298.436 484.591C299.244 484.734 300.065 484.793 300.886 484.767C301.297 484.767 301.703 484.71 302.109 484.683C302.515 484.655 302.916 484.551 303.314 484.472C302.5 484.494 301.693 484.531 300.889 484.494C300.087 484.464 299.288 484.381 298.498 484.246C297.71 484.102 296.936 483.893 296.184 483.621C295.424 483.35 294.7 482.985 294.03 482.535V482.535Z" fill="#F99893"/>
<path d="M292.717 476.124C293.27 476.731 293.926 477.235 294.655 477.612C295.38 478.002 296.148 478.306 296.944 478.517C297.74 478.721 298.554 478.845 299.375 478.887C299.783 478.914 300.194 478.887 300.612 478.887C301.03 478.887 301.424 478.82 301.827 478.77C301.013 478.731 300.209 478.703 299.409 478.604C298.613 478.508 297.823 478.361 297.046 478.163C296.273 477.957 295.518 477.688 294.788 477.359C294.05 477.034 293.354 476.619 292.717 476.124V476.124Z" fill="#F99893"/>
<path d="M344.588 365.338C342.731 365.556 340.925 365.871 339.108 366.126C337.294 366.412 335.465 366.602 333.631 366.694C335.45 367.19 337.373 367.093 339.212 366.843C341.062 366.582 342.87 366.075 344.588 365.338V365.338Z" fill="#F99893"/>
<path d="M448.635 685.481H455.386L438.549 619.233L432.208 620.849L448.635 685.481Z" fill="#3D3A55"/>
<path d="M324.835 685.481H331.587L314.749 619.233L308.408 620.849L324.835 685.481Z" fill="#3D3A55"/>
<path d="M366.394 685.481H359.643L376.48 619.233L382.821 620.849L366.394 685.481Z" fill="#3D3A55"/>
<path d="M530.965 685.617H536.539V605.761H530.965V685.617Z" fill="#FEB546"/>
<path d="M500.094 685.617H505.668V605.761H500.094V685.617Z" fill="#DB962C"/>
<path d="M422.166 605.761H416.593V685.617H422.166V605.761Z" fill="#FEB546"/>
<path d="M453.038 605.761H447.464V685.617H453.038V605.761Z" fill="#DB962C"/>
<path d="M407.826 617.683H545.359V600.464H407.826V617.683Z" fill="#FEB546"/>
<path d="M402.443 601.739H550.745V595.097H402.443V601.739Z" fill="#DB962C"/>
<path d="M506.76 545.926H509.16C508.727 545.681 508.237 545.554 507.74 545.559H447.61C444.464 545.559 441.917 547.491 441.917 549.874V552.617C441.917 555.001 444.469 556.935 447.61 556.935L507.069 556.92L506.76 545.926Z" fill="#2A2C8C"/>
<path d="M472.622 545.569C469.612 545.569 467.177 547.417 467.177 549.698V552.796C467.177 555.075 469.615 556.925 472.622 556.925H510.054V556.231H509.9L500.384 555.549L498.461 549.83C498.461 549.83 502.173 546.67 502.421 546.588C502.668 546.507 509.908 546.259 509.908 546.259H510.061V545.569H472.622Z" fill="#07085B"/>
<path d="M507.623 551.226C507.604 550.28 507.8 549.343 508.194 548.484C508.589 547.624 509.173 546.866 509.903 546.266H473.387C470.625 546.266 468.385 547.965 468.385 550.058V552.446C468.385 554.542 470.612 556.238 473.387 556.238H509.905C509.905 556.238 507.623 555.437 507.623 551.226Z" fill="#DAEEF7"/>
<g style="mix-blend-mode:multiply">
<path d="M468.385 550.053V552.446C468.384 552.755 468.434 553.063 468.531 553.356C469.768 551.072 472.122 548.872 476.617 548.166C487.108 546.514 509.905 546.268 509.905 546.268H473.387C470.625 546.261 468.385 547.96 468.385 550.053Z" fill="#DAEEF7"/>
</g>
<path d="M505.77 568.663H508.493C508.013 568.359 507.456 568.199 506.889 568.204H438.819C435.257 568.204 432.384 570.625 432.384 573.608V577.04C432.384 580.016 435.27 582.444 438.819 582.444L506.114 582.424L505.77 568.663Z" fill="#07085B"/>
<path d="M467.133 568.216C463.727 568.216 460.965 570.53 460.965 573.385V577.263C460.965 580.115 463.727 582.429 467.133 582.429H509.5V581.564H509.324L498.553 580.708L496.377 573.551C496.377 573.551 500.585 569.595 500.852 569.494C501.119 569.392 509.324 569.082 509.324 569.082H509.5V568.219L467.133 568.216Z" fill="#55769F"/>
<path d="M506.75 575.297C506.75 571.113 509.331 569.084 509.331 569.084H467.999C464.873 569.084 462.336 571.21 462.336 573.831V576.807C462.336 579.429 464.873 581.554 467.999 581.554H509.331C509.331 581.554 506.75 580.567 506.75 575.297Z" fill="#DAEEF7"/>
<g style="mix-blend-mode:multiply">
<path d="M462.331 573.831V576.807C462.331 577.193 462.387 577.576 462.497 577.945C463.89 575.086 466.563 572.333 471.654 571.448C483.534 569.38 509.334 569.075 509.334 569.075H468.001C464.873 569.085 462.331 571.21 462.331 573.831Z" fill="#DAEEF7"/>
</g>
<path d="M433.539 557.27H430.816C431.316 557.023 431.866 556.899 432.423 556.905H500.505C504.067 556.905 506.955 558.825 506.955 561.193V563.921C506.955 566.289 504.067 568.209 500.505 568.209L433.185 568.194L433.539 557.27Z" fill="#02CCC0"/>
<path d="M472.191 556.91C475.599 556.91 478.359 558.745 478.359 561.012V564.102C478.359 566.366 475.599 568.202 472.191 568.202H429.807V567.512H429.982L440.759 566.835L442.934 561.156C442.934 561.156 438.727 558.016 438.457 557.932C438.187 557.848 429.982 557.607 429.982 557.607H429.807V556.91H472.191Z" fill="#06BFAD"/>
<path d="M432.557 562.535C432.553 561.566 432.317 560.612 431.867 559.754C431.418 558.895 430.769 558.158 429.976 557.605H471.323C474.454 557.605 476.988 559.291 476.988 561.369V563.74C476.988 565.818 474.454 567.505 471.323 567.505H429.976C429.976 567.505 432.557 566.716 432.557 562.535Z" fill="#DAEEF7"/>
<g style="mix-blend-mode:multiply">
<path d="M476.988 561.374V563.745C476.987 564.053 476.932 564.359 476.824 564.648C475.429 562.379 472.756 560.184 467.667 559.492C455.787 557.853 429.973 557.61 429.973 557.61H471.32C474.458 557.605 476.988 559.291 476.988 561.374Z" fill="#DAEEF7"/>
</g>
<path opacity="0.5" d="M494.489 563.916V561.188C494.489 558.82 491.601 556.9 488.039 556.9H494.506C498.068 556.9 500.956 558.82 500.956 561.188V563.916C500.956 566.285 498.068 568.204 494.506 568.204H488.126C491.648 568.172 494.489 566.265 494.489 563.916Z" fill="#55769F"/>
<path d="M432.878 582.878H429.95C430.487 582.605 431.081 582.465 431.683 582.472H505.079C508.918 582.472 512.031 584.617 512.031 587.263V590.306C512.031 592.952 508.918 595.095 505.079 595.095L432.504 595.08L432.878 582.878Z" fill="#02CCC0"/>
<path d="M474.535 582.484C478.208 582.484 481.185 584.535 481.185 587.064V590.504C481.185 593.034 478.215 595.085 474.535 595.085H428.844V594.316H429.032L440.65 593.557L442.996 587.211C442.996 587.211 438.464 583.704 438.17 583.615C437.875 583.526 429.032 583.25 429.032 583.25H428.844V582.486L474.535 582.484Z" fill="#06B8A6"/>
<path d="M431.806 588.761C431.81 587.688 431.56 586.629 431.077 585.671C430.593 584.714 429.89 583.885 429.024 583.253H473.599C476.973 583.253 479.707 585.138 479.707 587.469V590.115C479.707 592.439 476.985 594.331 473.599 594.331H429.024C429.024 594.331 431.806 593.433 431.806 588.761Z" fill="#DAEEF7"/>
<g style="mix-blend-mode:multiply">
<path d="M479.707 587.461V590.107C479.706 590.452 479.646 590.793 479.529 591.117C478.024 588.582 475.144 586.142 469.659 585.356C456.853 583.523 429.024 583.253 429.024 583.253H473.599C476.973 583.253 479.707 585.138 479.707 587.461Z" fill="#DAEEF7"/>
</g>
</svg>
