<svg width="806" height="980" viewBox="0 0 806 980" fill="none" xmlns="http://www.w3.org/2000/svg">
<path d="M189.664 452.579L175.369 452.883L168.096 453.003C165.668 453.003 163.24 453.003 160.812 453.003H160.323V452.514V440.342V439.798H160.878L175.293 439.864C180.094 439.864 184.895 439.983 189.707 440.038H190.001V440.331C190.001 442.398 189.903 444.443 189.86 446.477L189.664 452.579ZM189.664 452.579L189.501 446.422C189.501 444.399 189.381 442.398 189.359 440.407L189.664 440.701C184.852 440.701 180.05 440.875 175.249 440.875L160.834 440.951L161.379 440.407L161.313 452.579L160.834 452.089C163.208 452.089 165.57 452.089 167.955 452.155L175.118 452.274L189.664 452.579Z" fill="#EBEBEB"/>
<path d="M173.54 467.926L159.255 468.231L152.004 468.351C149.577 468.405 147.149 468.351 144.71 468.405H144.231V467.915L144.166 455.744V455.2H144.71L159.125 455.265C163.937 455.265 168.738 455.385 173.54 455.439H173.844V455.733C173.844 457.8 173.746 459.845 173.703 461.879L173.54 467.926ZM173.54 467.926L173.387 461.77C173.387 459.747 173.267 457.745 173.246 455.755L173.54 456.049C168.738 456.103 163.937 456.223 159.125 456.223L144.71 456.299L145.254 455.755V467.926L144.764 467.437C147.149 467.437 149.511 467.437 151.896 467.502L159.059 467.622L173.54 467.926Z" fill="#EBEBEB"/>
<path d="M205.744 467.926L191.449 468.231L184.198 468.351C181.781 468.405 179.343 468.351 176.915 468.405H176.425V467.915L176.37 455.744V455.2H176.915L191.33 455.265C196.131 455.265 200.932 455.385 205.744 455.439H206.038V455.733C206.038 457.8 205.951 459.845 205.897 461.879L205.744 467.926ZM205.744 467.926L205.592 461.77C205.538 459.747 205.461 457.745 205.45 455.755L205.744 456.049C200.932 456.103 196.131 456.223 191.33 456.223L176.915 456.299L177.459 455.755L177.394 467.926L176.915 467.437C179.288 467.437 181.662 467.437 184.035 467.502L191.199 467.622L205.744 467.926Z" fill="#EBEBEB"/>
<path d="M546.18 268.518L531.896 268.823L524.645 268.942C522.217 268.942 519.779 268.942 517.351 269.007H516.872V268.518L516.806 256.347V255.803H517.351L531.766 255.868C536.578 255.868 541.379 255.999 546.18 256.053H546.485V256.347C546.485 258.413 546.387 260.469 546.344 262.492L546.18 268.518ZM546.18 268.518L546.028 262.372C546.028 260.338 545.908 258.337 545.886 256.347L546.18 256.64C541.379 256.695 536.578 256.814 531.766 256.825L517.351 256.89L517.895 256.347L517.841 268.518L517.351 268.029C519.724 268.029 522.098 268.029 524.482 268.094L531.646 268.213L546.18 268.518Z" fill="#EBEBEB"/>
<path d="M562.217 283.865L547.933 284.17L540.682 284.289C538.254 284.289 535.826 284.289 533.388 284.355H532.909V283.865L532.843 271.694V271.15H533.388L547.802 271.215C552.615 271.215 557.416 271.346 562.217 271.4H562.522V271.694C562.522 273.76 562.424 275.816 562.381 277.839L562.217 283.865ZM562.217 283.865L562.065 277.72C562.065 275.686 561.945 273.684 561.923 271.694L562.217 271.987C557.416 272.042 552.615 272.161 547.802 272.172L533.388 272.238L533.932 271.694L533.91 283.865L533.42 283.376C535.805 283.376 538.167 283.376 540.552 283.441L547.715 283.561L562.217 283.865Z" fill="#EBEBEB"/>
<path d="M131.558 268.529L117.263 268.833L110.012 268.953C107.584 269.007 105.157 268.953 102.729 269.018H102.239V268.529V256.357V255.813H102.772L117.187 255.89C121.988 255.89 126.79 256.009 131.602 256.064H131.896V256.357C131.896 258.424 131.798 260.48 131.754 262.514L131.558 268.529ZM131.558 268.529L131.395 262.383C131.395 260.36 131.275 258.348 131.254 256.357L131.558 256.662C126.746 256.662 121.945 256.825 117.144 256.836L102.772 256.901L103.306 256.357L103.208 268.529L102.772 268.05C105.146 268.05 107.508 268.05 109.893 268.05L117.056 268.17L131.558 268.529Z" fill="#EBEBEB"/>
<path d="M489.642 551.56L503.927 551.256L511.178 551.136C513.605 551.082 516.044 551.136 518.472 551.071H518.951V551.56L519.016 563.732V564.276H518.472L504.057 564.199C499.245 564.199 494.444 564.08 489.642 564.025H489.338V563.732C489.338 561.665 489.436 559.609 489.479 557.575L489.642 551.56ZM489.642 551.56L489.795 557.706C489.795 559.729 489.915 561.741 489.936 563.732L489.642 563.427C494.444 563.373 499.245 563.264 504.057 563.253L518.472 563.188L517.928 563.732L517.982 551.56L518.472 552.039C516.099 552.039 513.725 552.039 511.341 551.984L504.177 551.865L489.642 551.56Z" fill="#EBEBEB"/>
<path d="M505.723 536.213L520.007 535.908L527.258 535.788C529.686 535.734 532.125 535.788 534.553 535.723H534.999V536.213L535.064 548.384V548.928H534.52L520.138 548.83C515.337 548.83 510.524 548.71 505.723 548.656H505.418V548.362C505.418 546.296 505.505 544.24 505.56 542.206L505.723 536.213ZM505.723 536.213L505.875 542.358C505.93 544.381 505.995 546.393 506.017 548.384L505.723 548.079C510.524 548.025 515.337 547.916 520.138 547.905L534.553 547.84L534.008 548.384L534.063 536.213L534.553 536.691C532.179 536.691 529.806 536.691 527.422 536.691L520.258 536.572L505.723 536.213Z" fill="#EBEBEB"/>
<path d="M234.117 268.376H127.116V371.948H234.117V268.376Z" fill="#EBEBEB"/>
<path d="M221.89 280.222H139.343V360.124H221.89V280.222Z" fill="white"/>
<path d="M142.565 280.222H139.343V360.124H142.565V280.222Z" fill="#DBDBDB"/>
<path d="M237.34 268.376H234.117V371.948H237.34V268.376Z" fill="#DBDBDB"/>
<path d="M162.576 330.201C170.415 347.474 200.573 344.342 202.413 323.023C203.349 312.298 195.728 299.256 180.813 299.256H180.747C163.219 300.594 157.209 318.335 162.576 330.201Z" fill="#EBEBEB"/>
<path d="M161.139 294.96C162.834 295.126 164.412 295.898 165.581 297.135C166.79 298.277 168.14 300.398 167.617 302.063C167.487 302.498 167.204 302.422 166.746 302.4C165.189 302.4 164.068 301.312 162.957 300.333C161.85 299.326 160.851 298.207 159.974 296.994C159.853 296.789 159.789 296.556 159.787 296.318C159.786 296.08 159.847 295.845 159.965 295.639C160.084 295.432 160.255 295.261 160.461 295.141C160.667 295.022 160.901 294.96 161.139 294.96Z" fill="#EBEBEB"/>
<path d="M173.464 288.477C174.984 289.471 176.084 290.988 176.556 292.741C177.024 294.122 177.416 296.189 176.381 297.364C176.269 297.471 176.124 297.54 175.969 297.559C175.814 297.579 175.657 297.549 175.521 297.472C174.28 296.885 173.725 295.079 173.235 293.894C172.533 292.459 172.126 290.898 172.037 289.304C172.039 289.137 172.084 288.974 172.167 288.831C172.251 288.687 172.371 288.568 172.515 288.484C172.659 288.401 172.822 288.356 172.988 288.355C173.155 288.354 173.318 288.396 173.464 288.477V288.477Z" fill="#EBEBEB"/>
<path d="M153.638 304.358C156.403 303.749 160.17 304.673 161.259 307.621C161.312 307.83 161.282 308.052 161.174 308.239C161.066 308.426 160.89 308.563 160.682 308.622C159.593 308.902 158.442 308.806 157.415 308.35C156.163 307.969 154.868 307.882 153.638 307.404C152.407 306.925 151.983 304.717 153.638 304.358Z" fill="#EBEBEB"/>
<path d="M187.007 291.545C187.608 290.296 188.46 289.185 189.512 288.281C190.012 287.781 190.687 288.281 190.6 288.967C190.415 290.196 190.448 291.468 190.252 292.719C190.157 293.952 189.84 295.157 189.316 296.276C189.16 296.557 188.922 296.784 188.634 296.928C188.347 297.071 188.022 297.124 187.704 297.079C187.385 297.034 187.088 296.894 186.851 296.677C186.614 296.46 186.448 296.176 186.376 295.863C186.14 294.393 186.36 292.886 187.007 291.545V291.545Z" fill="#EBEBEB"/>
<path d="M152.854 314.974C154.727 314.958 156.537 315.645 157.927 316.899C158.026 317.001 158.101 317.123 158.145 317.258C158.189 317.392 158.203 317.535 158.184 317.675C158.165 317.816 158.114 317.95 158.036 318.068C157.958 318.186 157.854 318.285 157.731 318.357C156.066 319.249 154.389 318.998 152.571 318.835C151.308 318.726 148.477 318.835 148.608 316.921C148.739 315.007 151.493 314.832 152.854 314.974Z" fill="#EBEBEB"/>
<path d="M151.243 330.386C152.887 328.146 155.293 326.308 158.189 326.579C158.366 326.583 158.538 326.633 158.69 326.723C158.842 326.813 158.968 326.941 159.056 327.094C159.144 327.248 159.19 327.421 159.191 327.598C159.191 327.774 159.146 327.948 159.06 328.102C157.536 330.539 154.857 331.583 152.07 331.833C151.9 331.834 151.734 331.79 151.587 331.705C151.44 331.62 151.318 331.498 151.234 331.351C151.15 331.204 151.106 331.037 151.108 330.867C151.109 330.698 151.156 330.532 151.243 330.386Z" fill="#EBEBEB"/>
<path d="M156.12 343.635C156.707 342.142 157.718 340.853 159.027 339.925C160.295 338.717 161.901 337.924 163.632 337.652C164.199 337.587 164.471 338.294 164.307 338.827C163.965 339.65 163.534 340.434 163.023 341.165C162.549 341.941 161.957 342.638 161.27 343.232C160.694 343.779 160.007 344.197 159.256 344.458C158.505 344.719 157.707 344.816 156.915 344.744C156.458 344.69 155.913 344.222 156.12 343.635Z" fill="#EBEBEB"/>
<path d="M173.278 342.993C173.35 342.883 173.447 342.793 173.562 342.73C173.677 342.668 173.806 342.635 173.937 342.635C174.068 342.635 174.197 342.668 174.312 342.73C174.427 342.793 174.525 342.883 174.596 342.993C175.203 344.314 175.311 345.809 174.901 347.203C174.629 348.758 174.106 350.749 172.876 351.804C172.685 351.986 172.451 352.117 172.196 352.183C171.94 352.249 171.672 352.248 171.417 352.18C171.162 352.112 170.929 351.98 170.74 351.796C170.551 351.612 170.413 351.382 170.339 351.129C169.544 348.193 171.678 345.234 173.278 342.993Z" fill="#EBEBEB"/>
<path d="M187.312 342.547C187.391 342.418 187.497 342.309 187.624 342.227C187.75 342.145 187.894 342.093 188.044 342.074C188.193 342.055 188.345 342.07 188.488 342.118C188.631 342.166 188.761 342.246 188.869 342.352C189.997 343.542 190.698 345.072 190.862 346.702C191.025 348.138 191.428 350.042 190.72 351.347C190.606 351.535 190.45 351.695 190.266 351.815C190.081 351.934 189.871 352.011 189.653 352.04C189.435 352.068 189.213 352.047 189.003 351.977C188.794 351.908 188.603 351.793 188.445 351.641C187.356 350.727 186.997 348.595 186.703 347.29C186.309 345.688 186.526 343.997 187.312 342.547V342.547Z" fill="#EBEBEB"/>
<path d="M199.321 335.64C199.928 335.693 200.521 335.851 201.074 336.108C201.669 336.472 202.237 336.879 202.772 337.326C203.64 338.122 204.568 338.849 205.548 339.502C205.758 339.639 205.919 339.84 206.007 340.074C206.096 340.309 206.108 340.565 206.041 340.807C205.975 341.049 205.833 341.263 205.637 341.419C205.441 341.576 205.2 341.666 204.95 341.677C204.172 341.8 203.378 341.768 202.614 341.581C201.849 341.394 201.129 341.057 200.497 340.589C199.813 340.09 199.23 339.466 198.776 338.751C198.416 338.061 198.246 337.288 198.287 336.51C198.275 336.379 198.296 336.246 198.347 336.124C198.397 336.001 198.477 335.893 198.578 335.808C198.679 335.722 198.8 335.663 198.929 335.634C199.058 335.604 199.193 335.607 199.321 335.64Z" fill="#EBEBEB"/>
<path d="M205.603 324.165C206.478 323.947 207.39 323.932 208.272 324.12C209.153 324.309 209.979 324.696 210.688 325.252C211.678 326.025 212.952 327.58 212.462 328.929C212.426 329.077 212.351 329.212 212.243 329.319C212.136 329.427 212 329.502 211.853 329.538C210.713 329.543 209.59 329.263 208.586 328.722C207.029 328.168 205.69 327.906 204.656 326.547C204.532 326.333 204.458 326.095 204.44 325.849C204.422 325.602 204.46 325.356 204.551 325.126C204.642 324.897 204.784 324.691 204.967 324.525C205.149 324.358 205.366 324.235 205.603 324.165V324.165Z" fill="#EBEBEB"/>
<path d="M204.024 312.45C204.6 311.718 205.433 311.232 206.354 311.09C207.822 310.698 209.318 310.418 210.829 310.253C211.635 310.122 212.593 310.949 212.016 311.787C211.209 313.064 210.083 314.11 208.749 314.821C207.323 315.507 205.168 316.214 204.057 314.647C203.836 314.325 203.716 313.944 203.71 313.554C203.704 313.163 203.813 312.779 204.024 312.45V312.45Z" fill="#EBEBEB"/>
<path d="M196.534 301.628C197.046 298.799 200.05 297.527 202.457 296.787C203.458 296.472 203.97 297.712 203.404 298.408C202.838 299.104 202.184 300.018 201.542 300.801C200.9 301.584 200.562 302.345 200.05 303.107C199.803 303.488 199.429 303.77 198.994 303.904C198.56 304.038 198.092 304.014 197.672 303.838C197.253 303.662 196.909 303.344 196.701 302.939C196.493 302.535 196.434 302.071 196.534 301.628Z" fill="#EBEBEB"/>
<path d="M175.249 314.082C175.249 314.865 174.607 313.332 173.812 313.332C173.017 313.332 172.386 314.865 172.386 314.082C172.368 313.884 172.392 313.684 172.456 313.496C172.521 313.307 172.623 313.134 172.758 312.987C172.892 312.84 173.056 312.723 173.239 312.643C173.421 312.563 173.618 312.521 173.817 312.521C174.017 312.521 174.214 312.563 174.396 312.643C174.578 312.723 174.742 312.84 174.877 312.987C175.011 313.134 175.114 313.307 175.178 313.496C175.242 313.684 175.266 313.884 175.249 314.082V314.082Z" fill="#A6A6A6"/>
<path d="M190.165 314.082C190.165 314.865 189.522 313.353 188.738 313.353C187.955 313.353 187.301 314.865 187.301 314.082C187.284 313.884 187.308 313.684 187.372 313.496C187.436 313.307 187.539 313.134 187.674 312.987C187.808 312.84 187.972 312.723 188.154 312.643C188.337 312.563 188.534 312.521 188.733 312.521C188.932 312.521 189.129 312.563 189.312 312.643C189.494 312.723 189.658 312.84 189.792 312.987C189.927 313.134 190.03 313.307 190.094 313.496C190.158 313.684 190.182 313.884 190.165 314.082V314.082Z" fill="#A6A6A6"/>
<path d="M171.112 317.867C171.112 318.541 170.912 319.199 170.538 319.759C170.163 320.319 169.631 320.755 169.008 321.013C168.386 321.27 167.7 321.338 167.039 321.206C166.378 321.075 165.771 320.751 165.294 320.275C164.818 319.799 164.493 319.192 164.362 318.532C164.23 317.871 164.298 317.187 164.556 316.565C164.814 315.942 165.25 315.411 165.811 315.037C166.371 314.663 167.03 314.463 167.704 314.463C168.608 314.463 169.475 314.822 170.114 315.46C170.753 316.099 171.112 316.964 171.112 317.867V317.867Z" fill="white"/>
<path d="M198.864 317.867C198.864 318.541 198.664 319.199 198.289 319.759C197.915 320.319 197.383 320.755 196.76 321.013C196.137 321.27 195.452 321.338 194.791 321.206C194.13 321.075 193.523 320.751 193.046 320.275C192.57 319.799 192.245 319.192 192.114 318.532C191.982 317.871 192.05 317.187 192.308 316.565C192.566 315.942 193.002 315.411 193.563 315.037C194.123 314.663 194.782 314.463 195.456 314.463C196.36 314.463 197.227 314.822 197.866 315.46C198.505 316.099 198.864 316.964 198.864 317.867V317.867Z" fill="white"/>
<path d="M178.515 314.528C178.794 315.019 179.205 315.422 179.702 315.692C180.152 315.929 180.652 316.056 181.161 316.061C181.673 316.07 182.18 315.958 182.641 315.735C183.133 315.464 183.543 315.065 183.828 314.582C183.852 314.916 183.798 315.25 183.672 315.559C183.545 315.869 183.349 316.145 183.099 316.366C182.558 316.821 181.868 317.062 181.161 317.04C180.458 317.042 179.777 316.8 179.234 316.355C178.979 316.128 178.781 315.845 178.656 315.527C178.532 315.21 178.483 314.867 178.515 314.528V314.528Z" fill="#A6A6A6"/>
<path d="M534.662 363.007H427.661V466.578H534.662V363.007Z" fill="#EBEBEB"/>
<path d="M522.435 374.841H439.887V454.744H522.435V374.841Z" fill="white"/>
<path d="M443.11 374.841H439.887V454.744H443.11V374.841Z" fill="#DBDBDB"/>
<path d="M537.884 363.007H534.662V466.578H537.884V363.007Z" fill="#DBDBDB"/>
<path d="M512.256 418.567C510.082 413.126 506.583 408.315 502.076 404.568C499.417 402.273 496.297 400.575 492.926 399.586C489.555 398.597 486.012 398.341 482.533 398.836C480.401 399.117 478.312 399.665 476.317 400.467C464.95 405.025 460.497 416.489 459.496 420.59C458.418 420.443 457.359 420.181 456.338 419.807C455.87 419.339 461.031 397.291 481.728 394.42C482.811 394.271 483.901 394.184 484.994 394.159C490.666 394.04 496.227 395.745 500.857 399.021C509.283 404.829 513.813 414.064 514.433 416.826C514.575 417.348 513.617 417.979 512.256 418.567Z" fill="#A6A6A6"/>
<path d="M512.255 418.566C511.3 418.982 510.322 419.345 509.327 419.654C507.336 415.113 504.317 411.095 500.508 407.918C498.146 405.89 495.378 404.389 492.389 403.515C489.4 402.641 486.259 402.414 483.175 402.849C480.917 403.147 478.716 403.777 476.643 404.72C467.998 408.679 464.144 417.174 462.925 421.242C461.695 421.035 460.497 420.818 459.452 420.622C460.454 416.522 464.896 405.057 476.273 400.5C478.268 399.697 480.357 399.149 482.489 398.868C485.968 398.374 489.512 398.629 492.883 399.618C496.254 400.607 499.374 402.306 502.032 404.6C506.551 408.333 510.065 413.133 512.255 418.566V418.566Z" fill="#C7C7C7"/>
<path d="M509.327 419.622C508.193 419.966 507.036 420.231 505.865 420.416C503.871 416.424 500.925 412.984 497.286 410.398C493.379 407.642 488.557 406.504 483.829 407.222C482.393 407.434 480.984 407.798 479.626 408.31C472.103 411.127 468.434 417.871 466.975 421.895C465.767 421.71 464.362 421.471 462.969 421.232C464.188 417.164 468.042 408.669 476.687 404.71C478.76 403.767 480.961 403.137 483.219 402.839C486.303 402.403 489.444 402.63 492.433 403.504C495.422 404.378 498.19 405.88 500.552 407.907C504.342 411.084 507.346 415.093 509.327 419.622V419.622Z" fill="#DBDBDB"/>
<path d="M505.865 420.416C505.508 420.512 505.132 420.512 504.776 420.416C504.264 420.035 500.225 414.314 494.28 411.399C491.82 410.123 489.055 409.55 486.289 409.745C485.328 409.83 484.376 410.005 483.448 410.267C474.629 412.747 471.472 422.352 470.383 422.352C470.132 422.352 468.804 422.156 467.051 421.884C468.51 417.86 472.179 411.116 479.702 408.299C481.06 407.787 482.469 407.422 483.905 407.211C488.633 406.493 493.455 407.631 497.362 410.387C500.974 412.985 503.894 416.428 505.865 420.416V420.416Z" fill="#EBEBEB"/>
<path d="M518.603 422.113C518.661 423.106 518.517 424.102 518.178 425.038C517.553 426.772 516.286 428.2 514.64 429.03C510.187 431.401 506.605 427.388 506.605 427.388C506.026 428.123 505.304 428.733 504.483 429.182C503.661 429.63 502.757 429.908 501.825 429.998C500.866 430.019 499.921 429.753 499.114 429.233C498.307 428.714 497.674 427.965 497.296 427.083C497.296 427.083 494.531 426.355 494.498 424.168C494.498 421.253 497.764 421.427 497.764 421.427C497.764 421.427 497.231 416.293 501.031 414.988C502.19 414.562 503.458 414.535 504.634 414.912C505.628 415.238 506.521 415.815 507.226 416.587C507.226 416.587 508.118 412.704 511.918 412.573C514.901 412.465 516.654 415.891 516.654 415.891C517.338 415.782 518.038 415.893 518.655 416.208C519.271 416.522 519.771 417.025 520.083 417.642C520.395 418.443 520.418 419.327 520.147 420.143C519.877 420.959 519.331 421.655 518.603 422.113Z" fill="#EBEBEB"/>
<path d="M450.862 418.849C451.111 417.852 451.559 416.916 452.179 416.097C453.324 414.57 455.011 413.539 456.893 413.215C462.01 412.225 464.34 417.283 464.34 417.283C465.137 416.739 466.036 416.362 466.983 416.175C467.93 415.988 468.905 415.995 469.849 416.195C470.804 416.465 471.657 417.014 472.297 417.772C472.937 418.53 473.336 419.462 473.442 420.448C473.442 420.448 475.957 422.003 475.326 424.179C474.476 427.072 471.265 425.908 471.265 425.908C471.265 425.908 470.23 431.14 466.082 431.282C464.804 431.349 463.54 430.989 462.489 430.259C461.608 429.637 460.903 428.797 460.443 427.823C460.443 427.823 458.374 431.379 454.585 430.368C451.602 429.563 450.916 425.647 450.916 425.647C450.206 425.543 449.547 425.218 449.033 424.718C448.519 424.218 448.176 423.569 448.053 422.863C447.98 421.972 448.221 421.083 448.734 420.35C449.246 419.618 449.999 419.087 450.862 418.849V418.849Z" fill="#EBEBEB"/>
<path d="M479.049 405.046C479.049 405.84 478.407 404.307 477.612 404.307C476.817 404.307 476.186 405.84 476.186 405.046C476.169 404.848 476.193 404.648 476.257 404.46C476.321 404.271 476.423 404.098 476.558 403.952C476.693 403.805 476.856 403.688 477.039 403.607C477.221 403.527 477.418 403.486 477.618 403.486C477.817 403.486 478.014 403.527 478.196 403.607C478.379 403.688 478.542 403.805 478.677 403.952C478.812 404.098 478.914 404.271 478.978 404.46C479.042 404.648 479.067 404.848 479.049 405.046V405.046Z" fill="#A6A6A6"/>
<path d="M493.976 405.046C493.976 405.84 493.333 404.318 492.539 404.318C491.744 404.318 491.112 405.84 491.112 405.046C491.095 404.848 491.119 404.648 491.183 404.46C491.247 404.271 491.35 404.098 491.485 403.952C491.619 403.805 491.783 403.688 491.965 403.607C492.148 403.527 492.345 403.486 492.544 403.486C492.743 403.486 492.94 403.527 493.123 403.607C493.305 403.688 493.469 403.805 493.604 403.952C493.738 404.098 493.841 404.271 493.905 404.46C493.969 404.648 493.993 404.848 493.976 405.046V405.046Z" fill="#A6A6A6"/>
<path d="M474.912 408.832C474.912 409.505 474.712 410.163 474.338 410.723C473.963 411.283 473.431 411.719 472.809 411.977C472.186 412.235 471.501 412.302 470.84 412.171C470.179 412.039 469.571 411.715 469.095 411.239C468.618 410.763 468.294 410.156 468.162 409.496C468.031 408.836 468.098 408.151 468.356 407.529C468.614 406.907 469.051 406.375 469.611 406.001C470.172 405.627 470.83 405.427 471.504 405.427C472.408 405.427 473.275 405.786 473.914 406.424C474.553 407.063 474.912 407.929 474.912 408.832V408.832Z" fill="white"/>
<path d="M502.664 408.832C502.664 409.505 502.464 410.163 502.089 410.723C501.715 411.283 501.183 411.719 500.56 411.977C499.937 412.235 499.252 412.302 498.591 412.171C497.93 412.039 497.323 411.715 496.846 411.239C496.37 410.763 496.045 410.156 495.914 409.496C495.782 408.836 495.85 408.151 496.108 407.529C496.365 406.907 496.802 406.375 497.363 406.001C497.923 405.627 498.582 405.427 499.256 405.427C500.16 405.427 501.026 405.786 501.665 406.424C502.305 407.063 502.664 407.929 502.664 408.832V408.832Z" fill="white"/>
<path d="M482.315 405.492C482.594 405.983 483.005 406.386 483.502 406.656C483.967 406.877 484.478 406.985 484.994 406.971C485.531 407.002 486.066 406.879 486.537 406.617C487.007 406.355 487.393 405.965 487.65 405.492C487.681 405.828 487.631 406.166 487.504 406.478C487.377 406.79 487.177 407.068 486.921 407.287C486.379 407.739 485.689 407.976 484.983 407.95C484.284 407.963 483.603 407.724 483.067 407.276C482.812 407.057 482.612 406.782 482.481 406.472C482.351 406.163 482.294 405.827 482.315 405.492Z" fill="#A6A6A6"/>
<path d="M105.309 582.734H340.159L345.037 486.461H100.431L105.309 582.734Z" fill="#EBEBEB"/>
<path d="M329.022 530.524H230.84L229 497.11H331.166L329.022 530.524ZM231.961 529.338H327.911L329.904 498.285H230.252L231.961 529.338Z" fill="#DBDBDB"/>
<path d="M327.215 568.974H234.672L233.17 538.812H329.087L327.215 568.974ZM235.761 567.789H326.039L327.781 539.998H234.433L235.761 567.789Z" fill="#DBDBDB"/>
<path d="M289.381 517.439H272.887L271.798 509.379H290.383L289.381 517.439ZM273.932 516.253H288.347L289.076 510.565H273.192L273.932 516.253Z" fill="#DBDBDB"/>
<path d="M289.381 557.923H272.887L271.798 549.863H290.383L289.381 557.923ZM273.932 556.738H288.347L289.076 551.049H273.192L273.932 556.738Z" fill="#DBDBDB"/>
<path d="M213.54 530.524H115.358L113.518 497.11H215.685L213.54 530.524ZM116.479 529.338H212.429L214.422 498.285H114.748L116.479 529.338Z" fill="#DBDBDB"/>
<path d="M211.722 568.974H119.179L117.677 538.812H213.594L211.722 568.974ZM120.322 567.789H210.611L212.353 539.998H118.94L120.322 567.789Z" fill="#DBDBDB"/>
<path d="M173.899 517.439H157.405L156.316 509.379H174.901L173.899 517.439ZM158.439 516.253H172.854L173.594 510.565H157.71L158.439 516.253Z" fill="#DBDBDB"/>
<path d="M173.899 557.923H157.405L156.316 549.863H174.901L173.899 557.923ZM158.439 556.738H172.854L173.594 551.049H157.71L158.439 556.738Z" fill="#DBDBDB"/>
<path d="M126.376 582.734L124.895 593.219L121.934 614.288H116.131V582.734H126.376Z" fill="#EBEBEB"/>
<path d="M126.376 582.734L124.895 593.219H116.131V582.734H126.376Z" fill="#DBDBDB"/>
<path d="M319.093 582.734L320.573 593.219L323.535 614.288H329.338V582.734H319.093Z" fill="#EBEBEB"/>
<path d="M319.093 582.734L320.573 593.219H329.338V582.734H319.093Z" fill="#DBDBDB"/>
<path d="M332.495 703.197C440.162 703.197 527.443 692.513 527.443 679.333C527.443 666.153 440.162 655.469 332.495 655.469C224.828 655.469 137.546 666.153 137.546 679.333C137.546 692.513 224.828 703.197 332.495 703.197Z" fill="#EBEBEB"/>
<path d="M96 614.288L155.129 614.027L214.247 613.93L332.495 613.745L450.742 613.93L509.871 614.027L569 614.288L509.871 614.56L450.742 614.658L332.495 614.832L214.247 614.647L155.129 614.56L96 614.288Z" fill="#263238"/>
<path d="M204.557 573.651C199.059 573.847 192.93 574.151 188.368 570.594C184.165 567.331 180.42 562.404 180.976 556.781C181.128 555.171 181.498 554.181 183.218 554.866C185.842 555.954 187.867 558.804 189.685 560.827C191.992 563.472 194.544 565.894 197.306 568.06C199.266 569.55 201.378 570.856 203.371 572.302L204.122 572.857L204.405 573.074H204.557C204.603 573.074 204.647 573.085 204.687 573.105C204.727 573.126 204.761 573.157 204.786 573.194C204.794 573.226 204.794 573.26 204.786 573.292C204.796 573.331 204.797 573.371 204.791 573.41C204.785 573.449 204.77 573.487 204.749 573.52C204.727 573.554 204.699 573.583 204.667 573.605C204.634 573.628 204.597 573.643 204.557 573.651Z" fill="#455A64"/>
<path d="M204.83 573.292C199.996 573.205 194.781 573.423 190.916 570.149C189.14 568.583 187.623 566.748 186.419 564.71C185.864 563.797 184.242 561.088 184.884 560.012C186.136 558.065 191.896 566.016 192.701 566.777C195.719 569.513 199.395 571.421 203.371 572.313L204.122 572.868C201.297 572.286 198.587 571.247 196.098 569.79C192.669 567.745 190.763 564.721 188.074 561.904C187.497 561.295 185.755 559.239 185.091 560.512C184.656 561.36 186.278 564.014 186.626 564.58C187.77 566.508 189.197 568.254 190.861 569.757C194.715 573.118 199.92 573.02 204.786 573.205C204.807 573.231 204.822 573.26 204.83 573.292V573.292Z" fill="white"/>
<path d="M207.595 577.002C207.541 577.208 207.497 577.426 207.454 577.632C207.448 577.659 207.437 577.684 207.42 577.705C207.403 577.725 207.38 577.742 207.356 577.752C207.301 577.774 207.239 577.774 207.184 577.751C207.13 577.729 207.086 577.687 207.062 577.632C207.051 577.612 207.046 577.59 207.046 577.567C207.046 577.544 207.051 577.522 207.062 577.502C207.062 577.502 207.062 577.447 207.062 577.415L207.127 577.23C207.127 577.23 207.127 577.23 207.127 577.165C206.158 573.532 205.777 569.747 204.753 566.114C203.774 562.644 202.576 559.239 201.847 555.693C201.4 553.464 199.843 542.249 204.786 543.642C206.964 544.262 208.488 547.438 209.315 549.33C210.401 551.882 211.017 554.609 211.133 557.379C211.482 564.232 208.978 570.454 207.595 577.002Z" fill="#455A64"/>
<path d="M209.174 563.046C209.271 560.484 209.004 557.92 208.379 555.432C208.161 554.562 207.083 550.451 205.69 550.549C204.786 550.603 204.601 552.387 204.601 552.974C204.285 555.465 205.091 558.021 205.581 560.447C206.547 565.385 207.151 570.387 207.388 575.414C207.388 575.729 207.301 576.055 207.269 576.371C207.236 576.686 207.192 576.893 207.16 577.165C207.164 577.255 207.164 577.346 207.16 577.437C207.16 577.502 207.16 577.567 207.16 577.643C207.183 577.695 207.226 577.735 207.279 577.755C207.332 577.775 207.391 577.774 207.443 577.752C207.443 577.556 207.508 577.35 207.53 577.143C207.53 577.317 207.53 577.48 207.53 577.643L207.628 577.121C207.633 577.082 207.633 577.041 207.628 577.002C207.628 576.719 207.628 576.436 207.628 576.164C208.403 571.826 208.919 567.446 209.174 563.046V563.046ZM207.508 574.358C207.367 571.422 207.073 568.496 206.659 565.581C206.321 563.231 205.886 560.904 205.385 558.587C205.071 557.282 204.859 555.955 204.754 554.617C204.754 553.594 204.862 549.82 206.811 552.158C208.216 553.866 208.564 557.477 208.727 559.566C208.896 561.885 208.852 564.215 208.597 566.527C208.379 569.148 207.9 571.759 207.508 574.358V574.358Z" fill="white"/>
<path d="M210.556 592.077C210.491 592.084 210.425 592.084 210.36 592.077C205.33 591.827 198.635 592.294 194.443 588.977C191.362 586.519 188.324 581.667 189.304 577.556C190.393 572.911 196.686 578.48 198.341 579.818C202.668 583.575 206.782 587.57 210.665 591.783L210.73 591.881C210.774 592.011 210.665 592.055 210.556 592.077Z" fill="#455A64"/>
<path d="M210.72 591.936C210.437 591.751 210.143 591.577 209.86 591.381C206.593 589.304 203.327 587.085 200.235 584.713C199.451 584.115 193.79 579.079 192.93 580.874C192.418 581.962 194.291 584.137 194.89 584.931C195.962 586.273 197.254 587.424 198.711 588.335C202.053 590.424 206.125 590.87 209.914 591.881C210.099 591.881 210.273 591.968 210.448 592.012L210.546 592.077C210.665 592.055 210.763 592.012 210.72 591.936ZM200.758 589.075C199.149 588.356 197.676 587.366 196.403 586.149C195.565 585.355 192.581 582.342 193.376 581.113C193.801 580.45 194.149 580.798 194.944 581.189C195.32 581.372 195.684 581.579 196.033 581.809C196.882 582.364 197.655 583.006 198.439 583.626C199.822 584.713 201.215 585.801 202.652 586.889C204.982 588.586 207.388 590.152 209.849 591.707C206.833 590.728 203.654 590.359 200.758 589.075Z" fill="white"/>
<path d="M219.734 581.733C218.424 587.488 215.425 592.721 211.122 596.765L211.024 596.819C210.976 596.834 210.924 596.832 210.877 596.815C210.83 596.797 210.79 596.764 210.763 596.721C210.727 596.683 210.707 596.632 210.707 596.58C210.707 596.527 210.727 596.477 210.763 596.438L211.013 596.177C211.852 589.347 212.766 582.559 213.474 575.707C213.637 574.097 214.9 563.829 218.058 565.493C220.006 566.527 220.137 570.736 220.3 572.629C220.58 575.674 220.39 578.745 219.734 581.733Z" fill="#455A64"/>
<path d="M217.916 572.574C217.742 571.998 217.437 571.411 216.827 571.813C215.597 572.585 215.107 577.415 214.911 578.753C214.062 584.256 212.734 589.553 211.427 594.948L211.101 596.319L210.785 596.721C210.812 596.764 210.852 596.797 210.899 596.815C210.946 596.832 210.998 596.834 211.046 596.819C211.041 596.772 211.041 596.725 211.046 596.678C211.177 596.504 211.329 596.319 211.449 596.134C213.607 593.183 215.29 589.913 216.435 586.443C217.154 584.247 217.643 581.984 217.894 579.688C218.177 577.567 218.548 574.641 217.916 572.574ZM211.46 595.753L211.275 596.025C211.329 595.84 211.395 595.655 211.438 595.471C212.737 591.365 213.766 587.18 214.519 582.94C214.889 580.765 215.118 578.589 215.608 576.468C215.804 575.566 216.239 572.988 216.991 572.574C217.742 572.161 217.731 573.162 217.807 573.738C217.883 574.315 217.807 574.913 217.807 575.304C217.908 582.62 215.686 589.779 211.46 595.753V595.753Z" fill="white"/>
<path d="M211.95 611.492H210.948C210.948 610.611 210.948 609.719 210.883 608.849C210.763 605.271 210.622 601.703 210.415 598.135C210.295 596.101 210.142 594.089 209.936 592.088C209.931 592.019 209.931 591.95 209.936 591.881C209.936 591.718 209.936 591.555 209.936 591.381C209.936 591.207 209.936 591.033 209.859 590.859C209.413 586.331 208.248 581.903 206.408 577.741C205.777 576.36 205.069 575 204.34 573.651L204.122 573.27C204.108 573.236 204.09 573.203 204.067 573.173C204.002 573.031 203.926 572.901 203.85 572.77C203.773 572.64 203.73 572.574 203.675 572.466C201.346 568.387 198.689 564.471 196.163 560.501C195.445 559.413 194.715 558.238 193.986 557.107C193.935 557.043 193.891 556.974 193.855 556.901L193.692 556.65C190.524 551.658 187.41 546.611 184.111 541.705C183.991 541.531 184.285 541.368 184.405 541.542C186.582 544.805 188.934 548.003 191.22 551.223L192.124 552.506L193.931 555.051C195.118 556.759 196.294 558.456 197.448 560.185C200.832 564.983 203.922 569.982 206.702 575.152C206.898 575.544 207.083 575.935 207.279 576.338C207.475 576.74 207.519 576.827 207.617 577.077C207.715 577.328 207.878 577.643 208.009 577.937C210.056 582.973 211.202 588.33 211.395 593.763C211.395 594.133 211.449 594.513 211.46 594.85V595.373C211.454 595.467 211.454 595.561 211.46 595.655C211.46 595.775 211.46 595.895 211.46 596.025C211.46 596.101 211.46 596.199 211.46 596.297C211.46 596.613 211.46 596.939 211.46 597.276C211.601 600.844 211.699 604.411 211.776 607.968C211.863 609.208 211.906 610.35 211.95 611.492Z" fill="#455A64"/>
<path d="M181.934 546.85C179.19 543.152 175.662 535.516 179.756 531.557C180.498 530.799 181.492 530.337 182.55 530.259C183.609 530.181 184.659 530.492 185.505 531.133C187.682 532.677 188.618 535.603 189.304 538.029C191.166 544.501 192.396 551.081 194.748 557.434C194.748 557.434 194.944 557.977 194.998 558.119C195.053 558.26 194.835 558.304 194.781 558.119L194.552 557.499C190.11 554.377 185.2 551.234 181.934 546.85Z" fill="#455A64"/>
<path d="M460.899 557.183C460.442 560.849 459.745 564.482 459.005 568.06C458.58 570.105 458.145 572.15 457.72 574.217C457.263 576.479 456.632 578.774 457.209 581.058C457.224 581.163 457.224 581.269 457.209 581.374C457.179 581.414 457.139 581.446 457.092 581.465C457.046 581.484 456.995 581.49 456.946 581.482C456.896 581.475 456.85 581.453 456.812 581.421C456.773 581.388 456.745 581.345 456.73 581.298V581.145V581.091C456.396 580.493 456.133 579.857 455.946 579.198C455.232 577.466 454.622 575.694 454.117 573.89C453.036 570.243 452.411 566.477 452.255 562.676C452.169 559.246 452.535 555.819 453.344 552.484C453.997 549.83 454.933 545.86 456.915 543.783C458.722 541.945 460.181 544.871 460.736 546.393C461.89 549.809 461.335 553.714 460.899 557.183Z" fill="#455A64"/>
<path d="M457.612 549.406C456.272 549.406 455.303 553.757 454.824 555.595C454.086 558.534 453.702 561.55 453.681 564.58C453.702 570.024 454.64 575.426 456.457 580.558C456.523 580.765 456.588 580.982 456.664 581.178V581.232V581.374C456.678 581.422 456.706 581.466 456.743 581.5C456.781 581.534 456.827 581.556 456.877 581.565C456.927 581.574 456.978 581.569 457.025 581.551C457.072 581.532 457.113 581.501 457.143 581.461C457.056 581.011 456.991 580.565 456.947 580.123C456.893 579.71 456.849 579.307 456.828 578.905C456.637 574.48 456.911 570.047 457.644 565.678C458.363 560.577 459.386 549.417 457.612 549.406ZM456.61 579.764C456.675 580.362 456.773 580.95 456.882 581.537C456.741 581.102 456.61 580.678 456.479 580.254C455.006 575.675 454.156 570.919 453.953 566.113C453.871 563.417 454.068 560.72 454.541 558.064C454.82 556.637 455.184 555.228 455.63 553.844C455.815 553.268 456.784 549.656 457.612 549.83C458.199 549.961 458.33 553.213 458.341 553.278C458.341 553.931 458.341 554.584 458.341 555.236C458.341 556.585 458.232 557.934 458.123 559.272C457.862 562.176 457.448 565.069 457.1 567.973C456.472 571.871 456.308 575.828 456.61 579.764V579.764Z" fill="white"/>
<path d="M481.967 567.321C479.517 572.106 475.38 575.772 471.079 578.915C468.793 580.601 466.42 582.179 464.101 583.799C461.934 585.138 459.909 586.694 458.058 588.444L457.83 588.694C457.353 589.221 456.933 589.797 456.578 590.412C456.568 590.434 456.553 590.452 456.534 590.465C456.514 590.479 456.492 590.487 456.469 590.489C456.446 590.56 456.417 590.629 456.382 590.695H456.294C456.294 590.619 456.294 590.543 456.294 590.467C456.274 590.44 456.263 590.408 456.263 590.374C456.263 590.341 456.274 590.308 456.294 590.282V590.206V589.966C456.991 584.376 460.911 578.72 464.22 574.412C467.53 570.105 471.624 566.287 476.741 564.318C478.026 563.829 480.954 562.469 482.261 563.514C483.567 564.558 482.5 566.298 481.967 567.321Z" fill="#455A64"/>
<path d="M478.178 567.321C477.013 566.157 473.572 569.039 472.734 569.714C470.17 571.807 467.791 574.118 465.625 576.62C461.928 580.49 458.864 584.917 456.545 589.738V589.738L456.425 589.89V590.13C456.421 590.155 456.421 590.181 456.425 590.206C456.405 590.232 456.394 590.265 456.394 590.298C456.394 590.332 456.405 590.364 456.425 590.391L456.588 590.195C457.013 589.673 457.47 589.162 457.927 588.65L458.156 588.411C461.497 585.062 465.05 581.93 468.793 579.035C471.359 576.966 473.728 574.665 475.87 572.161C476.327 571.53 479.158 568.31 478.178 567.321ZM477.089 569.888C474.193 574.695 469.174 578.198 464.906 581.7C461.975 583.977 459.266 586.526 456.817 589.314C459.079 585.023 461.906 581.054 465.222 577.512C467.031 575.428 468.957 573.449 470.992 571.584C472.085 570.563 473.253 569.625 474.487 568.778C475.225 568.259 476.022 567.829 476.86 567.495C478.504 567.092 477.601 569.072 477.1 569.898L477.089 569.888Z" fill="white"/>
<path d="M455.826 601.801C455.801 601.845 455.764 601.881 455.72 601.906C455.676 601.931 455.626 601.944 455.576 601.943L455.641 602.03C455.656 602.046 455.665 602.067 455.665 602.089C455.665 602.112 455.656 602.133 455.641 602.149C455.634 602.158 455.625 602.166 455.614 602.171C455.604 602.176 455.593 602.178 455.581 602.178C455.569 602.178 455.558 602.176 455.548 602.171C455.537 602.166 455.528 602.158 455.521 602.149C450.981 597.537 446.604 591.925 444.351 585.834C443.373 583.257 442.825 580.538 442.728 577.785C442.674 575.892 442.576 572.107 444.187 570.736C447.454 567.974 450.393 579.677 450.829 581.439C451.634 584.703 452.168 587.966 452.908 591.164C453.725 594.699 454.792 598.168 455.859 601.638C455.866 601.695 455.854 601.752 455.826 601.801V601.801Z" fill="#455A64"/>
<path d="M455.826 601.801C455.641 601.507 455.478 601.203 455.314 600.898C452.566 595.992 450.594 590.69 449.468 585.181C448.973 582.395 448.245 579.655 447.29 576.991C447.018 576.349 446.202 573.847 445.113 575.109C444.569 575.761 445.026 580.493 445.244 581.711C445.791 584.488 446.676 587.187 447.878 589.749C449.846 594.069 452.348 598.125 455.325 601.823C455.4 601.938 455.484 602.047 455.576 602.149C455.591 602.133 455.6 602.112 455.6 602.089C455.6 602.067 455.591 602.046 455.576 602.029L455.51 601.942C455.571 601.959 455.636 601.954 455.694 601.928C455.751 601.903 455.798 601.858 455.826 601.801ZM449.294 591.74C447.976 589.259 446.929 586.645 446.169 583.941C445.876 582.868 445.647 581.778 445.483 580.678C445.351 579.81 445.278 578.934 445.265 578.056C445.265 575.881 445.45 575.37 445.81 575.294C446.169 575.218 446.343 575.479 446.975 576.762C447.363 577.592 447.666 578.46 447.878 579.351C448.216 580.613 448.51 581.885 448.782 583.158C449.337 585.703 449.871 588.27 450.589 590.772C451.638 594.364 453.157 597.802 455.108 600.996C452.892 598.083 450.929 594.986 449.239 591.74H449.294Z" fill="white"/>
<path d="M470.393 590.587C469.858 592.838 468.84 594.946 467.41 596.765C464.721 600.485 461.27 603.574 458.33 607.098C457.884 607.62 457.459 608.186 457.046 608.708C457.046 608.762 456.665 609.546 456.665 609.48C456.665 609.415 456.719 609.165 456.817 608.665C457.285 606.196 458.842 598.766 460.769 594.96C461.922 592.552 463.366 590.294 465.07 588.238C465.908 587.291 467.868 585.257 469.337 585.703C470.807 586.149 470.622 589.401 470.393 590.587Z" fill="#455A64"/>
<path d="M467.987 589.075C466.409 588.096 462.348 595.351 461.803 596.286C459.782 599.756 458.223 603.475 457.165 607.348C457.035 607.783 456.926 608.219 456.817 608.665C456.708 609.11 456.665 609.459 456.665 609.469C456.665 609.48 457.002 608.762 457.046 608.697L457.252 608.414C457.612 607.968 457.96 607.522 458.341 607.098C460.105 604.455 461.923 601.845 463.643 599.158C464.891 597.239 465.983 595.224 466.91 593.132C467.106 592.654 468.684 589.499 467.987 589.075ZM467.541 591.12C465.298 597.429 460.715 602.41 457.22 608.012L457.057 608.284C457.057 608.121 457.144 607.947 457.198 607.783C458.145 604.603 459.388 601.519 460.911 598.571C461.841 596.779 462.881 595.046 464.024 593.382C464.613 592.437 465.264 591.533 465.973 590.674C466.289 590.326 467.225 589.38 467.541 589.586C467.857 589.793 467.683 590.707 467.497 591.12H467.541Z" fill="white"/>
<path d="M486.224 538.496C481.542 549.254 469.239 554.257 463.915 564.601V564.656C463.752 564.971 463.6 565.297 463.447 565.624C463.434 565.656 463.412 565.685 463.384 565.707C463.356 565.728 463.323 565.743 463.288 565.748C463.253 565.754 463.218 565.75 463.184 565.738C463.151 565.725 463.122 565.705 463.099 565.678C463.079 565.653 463.069 565.622 463.069 565.591C463.069 565.559 463.079 565.529 463.099 565.504C463.128 565.421 463.165 565.341 463.208 565.265C464.242 558.649 466.455 552.272 469.74 546.436C472.44 541.477 476.12 536.843 481.226 534.232C482.489 533.591 484.939 532.22 486.354 533.297C487.77 534.374 486.801 537.169 486.224 538.496Z" fill="#455A64"/>
<path d="M481.999 538.953C481.411 538.518 480.508 539.051 479.996 539.312C478.716 539.979 477.521 540.797 476.436 541.749C474.219 543.697 472.307 545.967 470.764 548.481C467.991 552.701 465.749 557.245 464.09 562.012C463.73 563.1 463.415 564.188 463.153 565.276C463.153 565.417 463.099 565.548 463.066 565.689C463.091 565.713 463.122 565.732 463.156 565.742C463.189 565.753 463.225 565.756 463.259 565.75C463.294 565.745 463.327 565.732 463.356 565.712C463.385 565.692 463.409 565.665 463.425 565.635C463.556 565.319 463.709 565.015 463.861 564.699C463.865 564.67 463.865 564.641 463.861 564.612C464.776 562.469 465.895 560.418 467.203 558.488C469.364 555.571 471.706 552.792 474.215 550.167C475.216 549.123 484.068 540.465 481.999 538.953ZM481.259 541.444C479.833 543.978 477.623 546.034 475.695 548.177C473.768 550.32 471.787 552.528 469.871 554.703C468.35 556.451 466.98 558.325 465.777 560.305C464.761 561.947 463.901 563.68 463.208 565.482C463.708 563.652 464.318 561.854 465.037 560.098V560.044C466.392 556.937 467.941 553.918 469.675 551.005C469.675 551.005 469.675 550.929 469.729 550.896C471.163 548.288 472.903 545.86 474.912 543.663C476.02 542.484 477.258 541.433 478.602 540.53C480.148 539.53 481.498 538.888 481.869 539.377C482.239 539.867 481.651 540.704 481.259 541.444V541.444Z" fill="white"/>
<path d="M469.86 551.103C468.444 554.138 467.105 557.205 465.777 560.294C465.146 561.741 464.525 563.188 463.904 564.645C463.908 564.674 463.908 564.703 463.904 564.732C463.687 565.254 463.458 565.82 463.229 566.298C461.204 571.019 458.972 575.848 457.731 580.852C457.119 583.506 456.755 586.212 456.643 588.934C456.643 589.205 456.643 589.488 456.643 589.771C456.643 589.923 456.643 590.076 456.643 590.228V590.489C456.556 592.849 456.588 595.21 456.643 597.516C456.697 600.724 456.969 603.911 457.274 607.087C457.263 607.178 457.263 607.269 457.274 607.359V607.794C457.279 607.87 457.279 607.947 457.274 608.023C457.274 608.153 457.274 608.295 457.274 608.425C457.383 609.448 457.47 610.47 457.557 611.503H456.61C455.984 608.379 455.587 605.212 455.423 602.029V601.834C455.423 601.529 455.423 601.214 455.369 600.909C455.314 600.605 455.369 600.148 455.314 599.767C455.314 598.853 455.26 597.94 455.238 597.037C454.973 591.726 455.339 586.403 456.327 581.178L456.425 580.754C456.42 580.692 456.42 580.631 456.425 580.569C456.425 580.471 456.425 580.373 456.49 580.265L456.621 579.775C456.697 579.492 456.784 579.199 456.871 578.916L456.947 578.666C458.454 574.193 460.273 569.831 462.391 565.613C462.75 564.83 463.11 564.069 463.48 563.296L464.1 562.024L465.048 560.098V560.044C466.55 557.02 468.118 554.029 469.599 550.994C469.675 550.853 469.925 551.005 469.86 551.103Z" fill="#455A64"/>
<path d="M260.975 498.6C243.414 508.988 222.053 563.123 223.273 579.21C224.492 595.297 250.926 650.139 275.739 654.349C300.551 658.558 380.899 660.472 401.683 648.116C422.467 635.76 440.78 595.83 441.531 581.396C442.282 566.962 419.593 506.802 403.697 496.784C390.491 488.43 270.752 492.814 260.975 498.6Z" fill="#FFC727"/>
<path opacity="0.6" d="M294.563 540.51C286.735 549.657 273.42 587.825 274.008 599.572C274.596 611.319 288.466 651.27 301.738 654.218C315.009 657.166 358.461 660.081 369.642 650.955C380.823 641.829 390.328 610.71 390.818 600.159C391.308 589.608 378.983 546.155 370.959 538.519C353.18 521.573 311.7 520.474 294.563 540.51Z" fill="white"/>
<path d="M233.55 582.223C229.936 582.06 202.075 585.171 197.916 584.225C193.757 583.278 169.663 579.417 154.791 585.562C133.768 594.264 131.22 613.669 135.368 627.58C139.516 641.492 162.423 685.392 198.319 689.405C234.214 693.419 286.855 659.156 293.148 656.089C299.44 653.022 278.058 584.225 233.55 582.223Z" fill="#FFC727"/>
<g opacity="0.2">
<path opacity="0.2" d="M292.995 647.072C291.34 647.877 289.664 648.627 288.009 649.443C286.354 650.259 284.884 651.053 283.327 651.858C280.134 653.511 276.926 655.124 273.703 656.698C267.243 659.852 260.711 662.869 254.106 665.748C240.943 671.502 227.53 676.625 213.953 681.324C210.192 682.806 206.227 683.711 202.195 684.01C197.874 684.04 193.559 683.676 189.304 682.922C189.288 682.929 189.273 682.94 189.263 682.954C189.253 682.969 189.248 682.986 189.248 683.004C189.248 683.022 189.253 683.039 189.263 683.054C189.273 683.068 189.288 683.079 189.304 683.086C192.946 684.05 196.654 684.744 200.399 685.163C204.056 685.441 207.735 685.114 211.286 684.195C214.781 683.292 218.199 682.02 221.596 680.834C224.993 679.648 228.521 678.354 231.961 677.06C245.563 671.919 258.922 666.183 272.037 659.852C275.717 658.068 279.379 656.256 283.022 654.414C284.808 653.5 286.604 652.608 288.357 651.629C290.11 650.65 291.95 649.508 293.746 648.431C293.927 648.332 294.06 648.165 294.118 647.967C294.175 647.769 294.151 647.557 294.051 647.376C293.952 647.196 293.784 647.063 293.586 647.006C293.388 646.948 293.176 646.972 292.995 647.072V647.072Z" fill="#030402"/>
<path opacity="0.2" d="M235.456 679.072C234.732 678.244 233.905 677.513 232.995 676.896L231.689 676.113C231.83 674.895 231.961 673.677 232.103 672.459C232.315 671.208 232.424 669.942 232.429 668.673C232.43 668.635 232.417 668.597 232.394 668.566C232.371 668.535 232.337 668.512 232.3 668.502C232.262 668.492 232.223 668.495 232.187 668.51C232.151 668.526 232.121 668.552 232.103 668.586V668.586C231.642 669.747 231.277 670.944 231.014 672.165C230.72 673.187 230.437 674.199 230.154 675.221C229.228 674.678 228.281 674.134 227.312 673.677C226.8 673.448 226.3 673.198 225.788 672.959L225.167 672.687C224.884 672.557 224.59 672.502 224.318 672.393C224.231 672.393 224.177 672.491 224.253 672.535C224.329 672.578 224.547 672.828 224.721 672.948L225.385 673.427C225.832 673.742 226.278 674.058 226.713 674.384C227.595 675.036 228.477 675.678 229.37 676.309L229.816 676.646C229.164 678.802 228.755 681.024 228.597 683.27C228.6 683.479 228.677 683.68 228.814 683.837C228.951 683.994 229.14 684.098 229.346 684.129C229.553 684.161 229.764 684.118 229.941 684.008C230.119 683.899 230.252 683.73 230.317 683.531C230.911 681.726 231.312 679.863 231.515 677.973L231.939 678.321C232.806 678.992 233.731 679.581 234.705 680.083C234.838 680.136 234.985 680.142 235.123 680.103C235.261 680.063 235.382 679.98 235.467 679.865C235.553 679.749 235.598 679.61 235.596 679.466C235.594 679.323 235.545 679.184 235.456 679.072V679.072Z" fill="#030402"/>
<path opacity="0.2" d="M251.286 670.305C250.911 669.123 250.474 667.962 249.98 666.824C249.729 666.27 249.468 665.737 249.196 665.149C249.01 664.638 248.753 664.155 248.434 663.714C248.074 663.344 247.563 663.779 247.922 663.996C247.922 664.073 247.976 664.149 247.998 664.236C248.02 664.323 248.129 664.714 248.216 664.943C248.346 665.356 248.477 665.769 248.597 666.183C248.858 667.085 249.076 667.988 249.305 668.891C249.533 669.794 249.751 670.697 249.958 671.61C250.113 672.526 250.422 673.409 250.872 674.221C250.923 674.346 251.018 674.449 251.138 674.511C251.259 674.573 251.397 674.59 251.529 674.558C251.661 674.527 251.777 674.449 251.856 674.339C251.936 674.229 251.973 674.095 251.961 673.96C252.015 672.706 251.785 671.457 251.286 670.305V670.305Z" fill="#030402"/>
<path opacity="0.2" d="M259.179 669.566C258.668 668.704 258.078 667.892 257.415 667.14C256.773 666.444 256.098 665.781 255.423 665.117C254.748 664.454 253.986 663.855 253.246 663.235C252.897 662.948 252.534 662.679 252.157 662.43L251.525 662.017C251.308 661.876 251.068 661.789 250.85 661.658C250.633 661.528 250.687 661.713 250.752 661.789C250.818 661.865 251.025 662.159 251.188 662.322L251.645 662.833C251.961 663.181 252.255 663.54 252.581 663.921C253.246 664.606 253.823 665.356 254.432 666.096C255.006 666.793 255.544 667.519 256.044 668.271C256.599 669.076 257.209 669.849 257.796 670.632C257.94 670.783 258.134 670.877 258.342 670.895C258.549 670.912 258.757 670.853 258.923 670.728C259.09 670.603 259.205 670.421 259.246 670.217C259.288 670.012 259.252 669.8 259.147 669.62L259.179 669.566Z" fill="#030402"/>
<path opacity="0.2" d="M281.64 658.177C281.578 656.923 281.396 655.677 281.095 654.457C280.785 653.33 280.362 652.237 279.832 651.194C279.353 650.193 279.179 649.019 278.635 648.062C278.627 648.048 278.616 648.037 278.603 648.029C278.589 648.021 278.574 648.017 278.559 648.017C278.543 648.017 278.528 648.021 278.514 648.029C278.501 648.037 278.49 648.048 278.482 648.062C278.233 649.084 278.286 650.157 278.635 651.151C278.853 652.238 279.114 653.326 279.321 654.49C279.517 655.687 279.615 656.899 279.615 658.112C279.537 659.359 279.659 660.611 279.974 661.821C280.018 661.959 280.105 662.08 280.223 662.166C280.34 662.251 280.482 662.297 280.627 662.297C280.773 662.297 280.914 662.251 281.032 662.166C281.149 662.08 281.236 661.959 281.281 661.821C281.658 660.646 281.78 659.403 281.64 658.177Z" fill="#030402"/>
<path opacity="0.2" d="M291.395 648.681C290.927 648.018 290.426 647.398 289.903 646.789C289.642 646.488 289.358 646.208 289.054 645.951C288.788 645.68 288.459 645.478 288.096 645.364C288.081 645.362 288.066 645.364 288.052 645.369C288.038 645.374 288.026 645.381 288.015 645.392C288.005 645.402 287.997 645.415 287.992 645.429C287.987 645.443 287.985 645.458 287.987 645.473C288.063 645.808 288.204 646.126 288.401 646.408C288.575 646.745 288.76 647.072 288.956 647.409C289.327 648.05 289.648 648.719 289.914 649.41C290.175 650.095 290.48 650.77 290.709 651.477C290.953 652.257 291.274 653.011 291.667 653.728C291.744 653.86 291.862 653.963 292.003 654.022C292.143 654.081 292.299 654.094 292.448 654.057C292.596 654.02 292.728 653.937 292.825 653.819C292.922 653.701 292.978 653.554 292.984 653.402C292.972 651.699 292.415 650.045 291.395 648.681Z" fill="#030402"/>
</g>
<path opacity="0.6" d="M151.395 621.902C170.458 613.853 221.291 672.317 199.745 681.889C178.199 691.461 127.704 631.898 151.395 621.902Z" fill="white"/>
<path opacity="0.6" d="M180.212 617.783C181.667 613.576 180.079 609.21 176.663 608.03C173.248 606.851 169.299 609.305 167.843 613.512C166.388 617.719 167.976 622.086 171.392 623.265C174.807 624.445 178.756 621.991 180.212 617.783Z" fill="white"/>
<path opacity="0.6" d="M155.641 617.019C159.796 617.019 163.164 612.874 163.164 607.762C163.164 602.65 159.796 598.506 155.641 598.506C151.486 598.506 148.118 602.65 148.118 607.762C148.118 612.874 151.486 617.019 155.641 617.019Z" fill="white"/>
<path opacity="0.6" d="M144.775 613.32C146.18 617.356 144.982 621.446 142.086 622.457C139.19 623.469 135.695 621.011 134.291 616.964C132.886 612.918 134.084 608.839 136.98 607.827C139.876 606.816 143.371 609.274 144.775 613.32Z" fill="white"/>
<path opacity="0.6" d="M140.877 636.412C140.434 636.846 139.903 637.179 139.32 637.391C137.778 634.226 136.465 630.955 135.39 627.602C135.085 626.514 134.813 625.427 134.584 624.339C136.387 624.759 138.031 625.688 139.32 627.015C142.325 630.038 143.055 634.248 140.877 636.412Z" fill="white"/>
<path d="M431.438 582.223C435.053 582.06 462.914 585.171 467.073 584.225C471.232 583.278 495.325 579.417 510.197 585.562C531.221 594.264 533.768 613.669 529.62 627.58C525.472 641.492 502.565 685.392 466.67 689.405C430.774 693.419 378.134 659.156 371.841 656.089C365.548 653.022 386.931 584.225 431.438 582.223Z" fill="#FFC727"/>
<path opacity="0.6" d="M513.594 621.902C494.53 613.853 443.697 672.317 465.243 681.889C486.789 691.461 537.285 631.898 513.594 621.902Z" fill="white"/>
<path opacity="0.6" d="M493.595 623.327C497.01 622.148 498.599 617.781 497.143 613.574C495.688 609.367 491.739 606.913 488.323 608.092C484.908 609.272 483.319 613.639 484.775 617.846C486.231 622.053 490.18 624.507 493.595 623.327Z" fill="white"/>
<path opacity="0.6" d="M509.348 617.019C513.503 617.019 516.871 612.874 516.871 607.762C516.871 602.65 513.503 598.506 509.348 598.506C505.193 598.506 501.825 602.65 501.825 607.762C501.825 612.874 505.193 617.019 509.348 617.019Z" fill="white"/>
<path opacity="0.6" d="M520.214 613.32C518.809 617.356 520.007 621.446 522.903 622.457C525.799 623.469 529.294 621.011 530.698 616.964C532.103 612.918 530.905 608.839 528.009 607.827C525.113 606.816 521.618 609.274 520.214 613.32Z" fill="white"/>
<path opacity="0.6" d="M530.426 624.339C530.197 625.427 529.925 626.514 529.62 627.602C528.546 630.955 527.232 634.226 525.69 637.391C525.107 637.179 524.576 636.846 524.133 636.412C521.956 634.237 522.663 630.038 525.69 627.015C526.98 625.688 528.624 624.759 530.426 624.339Z" fill="white"/>
<g opacity="0.2">
<path opacity="0.2" d="M371.895 647.072C373.55 647.877 375.227 648.627 376.882 649.443C378.537 650.259 379.995 651.053 381.552 651.858C384.753 653.511 387.954 655.121 391.188 656.698C397.633 659.852 404.165 662.869 410.785 665.748C423.948 671.502 437.35 676.625 450.926 681.324C454.692 682.805 458.66 683.71 462.696 684.01C467.013 684.04 471.324 683.676 475.575 682.922C475.684 682.922 475.739 683.053 475.63 683.086C471.984 684.049 468.272 684.743 464.525 685.163C460.867 685.442 457.188 685.115 453.637 684.195C450.132 683.292 446.724 682.02 443.316 680.834C439.908 679.648 436.403 678.354 432.962 677.06C419.36 671.919 406.002 666.183 392.886 659.852C389.199 658.068 385.533 656.256 381.89 654.414C380.104 653.5 378.308 652.608 376.566 651.629C374.824 650.65 372.962 649.508 371.177 648.431C371.016 648.326 370.9 648.164 370.853 647.978C370.805 647.792 370.828 647.595 370.918 647.425C371.007 647.256 371.157 647.125 371.338 647.06C371.519 646.994 371.718 646.999 371.895 647.072V647.072Z" fill="#030402"/>
<path opacity="0.2" d="M397.557 653.391C397.938 653.087 397.72 652.38 397.175 652.554C394.999 653.282 393.002 654.464 391.318 656.023C391.318 654.098 391.568 652.173 391.427 650.248C391.421 650.231 391.41 650.217 391.395 650.206C391.38 650.196 391.363 650.191 391.345 650.191C391.328 650.191 391.31 650.196 391.296 650.206C391.281 650.217 391.27 650.231 391.264 650.248C390.933 651.528 390.689 652.829 390.534 654.142C390.378 655.11 390.276 656.087 390.229 657.068C389.459 657.8 388.732 658.578 388.052 659.395C387.204 660.319 386.536 661.392 386.081 662.56C386.005 662.8 386.277 662.908 386.451 662.821C387.337 662.071 388.167 661.256 388.934 660.385C389.369 659.939 389.816 659.504 390.284 659.069C390.648 661.314 391.507 663.451 392.799 665.323C393.049 665.715 393.757 665.443 393.572 664.975C392.569 662.777 391.838 660.465 391.394 658.09C391.481 658.014 391.568 657.927 391.656 657.862C393.594 656.284 395.64 654.914 397.557 653.391Z" fill="#030402"/>
<path opacity="0.2" d="M412.799 661.212C411.117 662.672 409.722 664.431 408.684 666.4C408.157 667.355 407.695 668.343 407.301 669.359C407.116 669.863 406.963 670.379 406.844 670.903C406.778 671.164 406.724 671.436 406.68 671.697C406.659 671.954 406.659 672.213 406.68 672.47C406.68 672.557 406.789 672.568 406.833 672.47C406.979 672.313 407.113 672.146 407.236 671.969L407.584 671.339C407.856 670.871 408.118 670.403 408.379 669.924C408.88 668.989 409.38 668.065 409.957 667.162C411.122 665.389 412.418 663.725 413.714 662.039C413.785 661.914 413.811 661.768 413.789 661.627C413.766 661.485 413.695 661.355 413.589 661.258C413.482 661.162 413.346 661.105 413.202 661.096C413.058 661.088 412.916 661.129 412.799 661.212Z" fill="#030402"/>
<path opacity="0.2" d="M416.326 662.637C415.635 663.57 415.125 664.626 414.824 665.747C414.422 666.892 414.126 668.072 413.942 669.272C413.626 671.393 413.605 674.068 414.726 675.983C415.031 676.505 415.749 675.983 415.564 675.569C415.415 674.553 415.331 673.529 415.314 672.502C415.353 671.442 415.481 670.387 415.695 669.348C415.902 668.26 416.185 667.172 416.479 666.161C416.861 665.131 417.085 664.049 417.143 662.952C417.138 662.86 417.107 662.77 417.053 662.695C416.998 662.62 416.924 662.563 416.837 662.529C416.751 662.496 416.657 662.488 416.566 662.507C416.475 662.526 416.392 662.571 416.326 662.637V662.637Z" fill="#030402"/>
<path opacity="0.2" d="M447.791 682.835C447.53 681.837 447.355 680.818 447.268 679.79C447.181 678.735 447.203 677.674 447.334 676.624C447.41 676.146 447.508 675.667 447.606 675.2C447.606 674.928 447.726 674.656 447.802 674.395C447.802 674.34 447.932 674.003 447.976 673.786C447.994 673.796 448.015 673.802 448.036 673.802C448.057 673.802 448.078 673.796 448.096 673.786C448.134 673.762 448.166 673.73 448.188 673.69C448.21 673.651 448.221 673.607 448.221 673.563C448.221 673.518 448.21 673.474 448.188 673.435C448.166 673.396 448.134 673.363 448.096 673.34C447.704 673.155 447.443 673.764 447.323 673.992C446.043 676.532 445.543 679.393 445.886 682.215C446.06 683.575 446.386 685.348 447.464 686.316C447.558 686.399 447.673 686.454 447.797 686.474C447.921 686.494 448.048 686.477 448.163 686.427C448.278 686.376 448.376 686.294 448.445 686.189C448.514 686.085 448.552 685.963 448.553 685.837C448.407 684.812 448.152 683.806 447.791 682.835V682.835Z" fill="#030402"/>
</g>
<path d="M293.964 601.399C294.911 626.188 262.391 636.5 247.312 631.648C231.678 626.612 220.42 597.407 221.716 572.194C223.61 534.854 249.043 496.534 264.013 497.741C264.469 497.765 264.91 497.904 265.298 498.144C272.092 502.048 261.672 533.505 265.962 544.491C270.502 556.075 290.85 578.427 293.703 598.397C293.844 599.42 293.921 600.409 293.964 601.399Z" fill="#FFC727"/>
<path opacity="0.2" d="M263.817 498.959C258.298 503.973 253.658 509.873 250.088 516.417C249.99 516.036 249.892 515.644 249.783 515.253C249.587 514.589 248.477 514.687 248.531 515.427C248.605 516.458 248.751 517.483 248.967 518.494L248.901 518.625C247.921 518.342 246.931 518.103 245.929 517.907C245.856 517.893 245.781 517.907 245.718 517.946C245.655 517.986 245.609 518.047 245.59 518.119C245.571 518.191 245.579 518.267 245.614 518.332C245.648 518.398 245.707 518.448 245.777 518.473C246.68 518.777 247.584 519.114 248.477 519.462C243.969 528.691 240.844 538.531 239.201 548.667C238.413 548.689 237.627 548.761 236.849 548.885C236.359 548.972 236.479 549.777 236.969 549.755C237.648 549.731 238.329 549.756 239.005 549.831C238.733 551.506 238.482 553.181 238.275 554.845C237.327 554.888 236.384 555.009 235.455 555.204C234.824 555.346 235.053 556.183 235.608 556.292C236.44 556.377 237.277 556.403 238.112 556.368C237.862 558.652 237.644 560.926 237.513 563.166C236.645 577.256 238.99 591.359 244.372 604.412C243.255 605.166 242.196 606.002 241.204 606.914C240.888 607.196 241.302 607.751 241.65 607.501C242.669 606.746 243.727 606.046 244.819 605.402C245.33 606.62 245.842 607.838 246.419 609.024C245.386 610.007 244.512 611.145 243.828 612.396C243.768 612.505 243.749 612.631 243.775 612.753C243.8 612.875 243.868 612.983 243.967 613.059C244.065 613.135 244.187 613.174 244.312 613.168C244.436 613.162 244.554 613.112 244.644 613.027C245.526 612.222 246.332 611.341 247.159 610.481C251.047 618.211 256.1 625.298 262.14 631.496C262.663 632.029 263.392 631.256 262.946 630.691C257.492 623.922 252.796 616.576 248.945 608.784C250.056 608.009 251.105 607.147 252.08 606.207C252.483 605.761 252.08 604.891 251.449 605.119C250.23 605.627 249.121 606.366 248.183 607.294C247.715 606.305 247.301 605.282 246.876 604.281C247.589 603.961 248.265 603.564 248.89 603.096C249.293 602.77 248.89 602.237 248.433 602.313C247.703 602.458 247.004 602.726 246.365 603.107C241.067 590.485 238.736 576.818 239.549 563.155C239.691 560.849 239.908 558.554 240.159 556.281C241.348 556.35 242.54 556.184 243.665 555.792C244.1 555.585 243.926 554.965 243.545 554.834C242.495 554.569 241.402 554.521 240.333 554.693C240.529 553.17 240.758 551.647 241.008 550.136C241.748 550.255 242.5 550.397 243.262 550.505C243.839 550.592 244.35 549.777 243.697 549.472C242.923 549.115 242.095 548.887 241.248 548.798C242.881 539.348 245.793 530.163 249.903 521.496C250.193 522.116 250.559 522.696 250.992 523.226C251.059 523.289 251.143 523.331 251.234 523.347C251.325 523.363 251.418 523.353 251.504 523.317C251.589 523.282 251.662 523.222 251.714 523.146C251.766 523.07 251.795 522.981 251.797 522.889C251.715 522.147 251.547 521.417 251.297 520.713C252.003 521.137 252.782 521.425 253.594 521.562C253.997 521.562 254.127 521.072 253.899 520.822C253.079 520.064 252.078 519.528 250.992 519.267C254.613 512.144 259.1 505.495 264.35 499.47C264.393 499.397 264.409 499.311 264.397 499.227C264.384 499.143 264.345 499.066 264.283 499.007C264.222 498.948 264.143 498.912 264.058 498.903C263.974 498.894 263.889 498.914 263.817 498.959Z" fill="#030402"/>
<path opacity="0.2" d="M293.735 597.853C292.431 591.076 290.077 584.544 286.757 578.492C283.599 572.412 279.865 566.658 276.163 560.904C274.323 558.054 272.494 555.183 270.72 552.279C268.945 549.374 266.92 546.253 266.049 542.859C265.102 539.15 265.45 535.245 265.472 531.427C265.472 530.688 265.548 529.687 265.635 528.556C266.103 527.468 266.67 526.435 267.029 525.293C267.301 524.466 267.508 523.607 267.737 522.769C268.001 521.873 268.191 520.956 268.303 520.028C268.303 519.974 268.226 519.941 268.216 520.028C268.002 520.982 267.699 521.915 267.312 522.813C266.953 523.65 266.441 524.39 266.071 525.217C266.071 525.325 265.984 525.434 265.94 525.543C266.43 521.04 267.149 515.884 267.225 514.666C267.225 514.459 266.898 514.416 266.866 514.666C265.646 522.28 263.697 529.252 263.676 536.92C263.648 538.723 263.779 540.525 264.068 542.304C264.399 544.048 264.967 545.739 265.755 547.33C267.278 550.344 268.957 553.278 270.785 556.118C277.709 567.376 285.712 578.286 289.881 590.925C292.059 597.451 293.311 604.564 290.589 611.102C288.091 616.715 283.87 621.389 278.537 624.448C272.467 627.886 265.83 630.211 258.94 631.311C255.63 631.972 252.203 631.728 249.021 630.604C246.034 629.463 243.29 627.77 240.932 625.612C230.535 616.42 226.332 602.411 223.196 589.369C222.761 587.585 222.326 584.931 221.901 583.148C221.825 582.854 221.4 582.995 221.455 583.289C222.696 590.772 223.959 599.202 226.539 606.37C228.694 612.696 232.018 618.562 236.337 623.665C240.605 628.57 246.386 632.812 253.006 633.552C256.675 633.965 260.333 633.138 263.893 632.279C267.366 631.471 270.767 630.38 274.062 629.016C280.203 626.566 285.554 622.48 289.533 617.204C291.348 614.709 292.691 611.904 293.496 608.926C294.359 605.294 294.441 601.52 293.735 597.853V597.853Z" fill="#030402"/>
<path d="M425.352 626.807C423.1 628.969 420.408 630.62 417.459 631.648C401.836 636.684 367.257 625.339 371.068 598.397C373.899 578.426 394.269 556.074 398.809 544.49C403.349 532.906 391.46 498.502 400.758 497.719C402.177 497.635 403.598 497.835 404.938 498.306C420.028 503.234 441.324 538.116 443.044 572.172C444.133 592.915 436.708 616.333 425.352 626.807Z" fill="#FFC727"/>
<path opacity="0.2" d="M434.204 565.722C432.752 565.632 431.296 565.661 429.849 565.809C429.925 564.722 429.98 563.699 430.023 562.644C431.026 562.944 432.06 563.127 433.104 563.188C433.714 563.188 433.736 562.394 433.235 562.198C432.219 561.821 431.157 561.579 430.078 561.48C430.078 560.197 430.143 558.903 430.132 557.619C430.087 545.818 427.677 534.146 423.044 523.291C422.086 521.116 420.987 518.788 419.778 516.515C420.431 516.21 421.085 515.895 421.705 515.558C422.326 515.22 421.89 514.144 421.226 514.415C420.562 514.687 419.844 515.035 419.158 515.384C415.108 508.161 409.631 501.243 402.206 498.252C401.814 498.089 401.575 498.72 401.923 498.927C408.597 502.81 413.725 509.205 417.601 516.21C416.512 516.787 415.521 517.385 414.487 517.951C414.139 518.146 414.378 518.755 414.759 518.603C415.848 518.135 417.013 517.689 418.145 517.222C420.079 520.893 421.746 524.699 423.132 528.61C426.774 539.092 428.468 550.151 428.129 561.241L427.214 561.143C426.844 561.143 426.67 561.611 427.062 561.72L428.151 562.035C428.151 563.34 428.009 564.646 427.911 565.94C427.018 566.005 426.136 566.06 425.255 566.06C424.797 566.06 424.819 566.712 425.255 566.756L427.857 566.973C426.583 582.767 421.629 597.897 414.737 612.124L413.344 611.874C412.908 611.798 412.701 612.439 413.159 612.548L414.356 612.896C414.008 613.614 413.66 614.332 413.268 615.072C412.505 614.81 411.765 614.582 411.036 614.365C410.655 614.245 410.524 614.8 410.872 614.941C411.558 615.213 412.212 615.528 412.865 615.855C410.6 620.271 408.183 624.6 405.614 628.842C405.566 628.941 405.558 629.054 405.59 629.158C405.623 629.263 405.693 629.352 405.788 629.406C405.883 629.461 405.995 629.479 406.102 629.455C406.209 629.431 406.303 629.367 406.365 629.277C409.058 625.122 411.598 620.844 413.986 616.442C415.607 617.369 417.275 618.212 418.983 618.966C419.354 619.118 419.658 618.552 419.375 618.291C417.923 617.073 416.258 616.133 414.465 615.518C414.846 614.789 415.227 614.06 415.554 613.342C417.002 613.842 418.406 614.43 419.909 614.952C420.475 615.169 420.845 614.256 420.312 613.973C418.961 613.294 417.531 612.786 416.055 612.461C423.229 598.245 428.368 582.941 429.773 567.136C431.317 567.239 432.868 567.118 434.378 566.778C434.966 566.614 434.835 565.766 434.204 565.722Z" fill="#030402"/>
<path opacity="0.2" d="M370.753 597.853C372.057 591.076 374.411 584.544 377.731 578.492C380.889 572.412 384.623 566.658 388.325 560.904C390.165 558.054 391.994 555.183 393.768 552.279C395.543 549.374 397.568 546.253 398.439 542.859C399.386 539.15 399.038 535.245 399.016 531.427C399.016 530.688 398.94 529.687 398.842 528.556C398.385 527.468 397.818 526.435 397.459 525.293C397.187 524.466 396.98 523.607 396.751 522.769C396.487 521.873 396.297 520.956 396.185 520.028C396.185 519.974 396.261 519.941 396.272 520.028C396.486 520.982 396.789 521.915 397.176 522.813C397.535 523.65 398.047 524.39 398.417 525.217C398.472 525.325 398.504 525.434 398.548 525.543C398.058 521.04 397.339 515.884 397.263 514.666C397.263 514.459 397.59 514.416 397.622 514.666C398.842 522.28 400.791 529.252 400.812 536.92C400.84 538.723 400.709 540.525 400.42 542.304C400.084 544.047 399.517 545.737 398.733 547.33C397.21 550.344 395.531 553.278 393.703 556.118C386.779 567.376 378.776 578.286 374.607 590.925C372.429 597.451 371.177 604.564 373.899 611.102C376.397 616.715 380.618 621.389 385.951 624.448C392.021 627.886 398.658 630.211 405.548 631.311C408.858 631.972 412.285 631.728 415.467 630.604C418.454 629.463 421.198 627.77 423.556 625.612C433.953 616.42 438.156 602.411 441.291 589.369C441.727 587.585 442.162 584.931 442.587 583.148C442.663 582.854 443.088 582.995 443.033 583.289C441.792 590.772 440.529 599.202 437.949 606.37C435.794 612.696 432.47 618.562 428.15 623.665C423.883 628.57 418.101 632.812 411.482 633.552C407.813 633.965 404.155 633.138 400.595 632.279C397.121 631.471 393.721 630.38 390.426 629.016C384.276 626.545 378.924 622.432 374.955 617.127C373.14 614.633 371.797 611.828 370.992 608.85C370.14 605.242 370.058 601.495 370.753 597.853V597.853Z" fill="#030402"/>
<path d="M292.745 359.178C294.367 353.327 290.829 308.992 265.472 307.077C236.294 304.902 211.514 335.358 213.213 361.713C214.911 388.068 240.888 394.714 259.919 394.344L292.745 359.178Z" fill="#FFC727"/>
<path opacity="0.6" d="M271.351 358.841C272.102 356.057 270.491 335.053 258.809 334.161C245.363 333.074 233.931 347.562 234.726 360.07C235.521 372.579 247.453 375.701 256.229 375.527L271.351 358.841Z" fill="white"/>
<path d="M372.32 355.219C371.09 349.27 377.557 305.272 402.99 305.044C432.244 304.783 454.955 336.794 451.471 363.007C447.987 389.221 421.672 394.105 402.707 392.495L372.32 355.219Z" fill="#FFC727"/>
<path opacity="0.6" d="M393.692 356.242C393.126 353.425 396.12 332.562 407.846 332.443C421.324 332.312 431.798 347.475 430.154 359.896C428.51 372.318 416.414 374.646 407.671 373.884L393.692 356.242Z" fill="white"/>
<path d="M266.539 506.171C261.77 504.115 230.535 482.056 227.105 463.37C223.676 444.683 252.723 367.043 269.348 352.652C277.154 345.876 346.245 332.486 389.468 347.812C397.535 350.683 439.451 432.838 437.372 454.82C435.924 469.428 405.439 503.266 397.067 507.498C388.695 511.729 285.08 514.154 266.539 506.171Z" fill="#FFC727"/>
<path d="M320.791 344.342C322.911 340.155 325.787 336.394 329.272 333.248C332.81 330.148 340.769 325.492 343.012 327.407C346.049 329.974 337.513 332.671 327.856 339.632C327.856 339.632 340.758 333.574 343.85 335.869C346.942 338.164 328.51 341.199 328.51 341.199L320.791 344.342Z" fill="#FFC727"/>
<g opacity="0.2">
<path opacity="0.2" d="M333.234 478.837C333.169 467.721 333.151 456.608 333.18 445.499C333.18 423.255 333.278 401.001 333.18 378.747C333.18 372.503 333.082 366.26 333.039 360.006C332.995 353.751 333.039 347.508 332.614 341.275C332.614 341.246 332.602 341.219 332.582 341.198C332.562 341.178 332.534 341.167 332.505 341.167C332.476 341.167 332.448 341.178 332.428 341.198C332.408 341.219 332.396 341.246 332.396 341.275C332.048 346.833 332.004 352.413 331.939 357.982C331.874 363.551 331.819 369.11 331.754 374.679C331.645 385.817 331.623 396.944 331.591 408.082C331.514 430.304 331.297 452.547 331.95 474.769C332.135 481.002 332.32 487.234 332.592 493.456C332.864 499.677 333.3 505.91 333.681 512.132C333.681 512.317 333.975 512.306 333.964 512.132C333.507 501.059 333.311 489.932 333.234 478.837Z" fill="#030402"/>
<path opacity="0.2" d="M340.714 419.003C339.363 418.71 337.99 418.532 336.61 418.47C335.196 418.383 333.777 418.383 332.363 418.47C330.981 418.524 329.62 418.687 328.248 418.829C326.842 418.908 325.454 419.179 324.122 419.633C324.056 419.633 324.046 419.753 324.122 419.775C325.446 420.076 326.803 420.215 328.161 420.188C329.576 420.188 330.992 420.286 332.407 420.275C333.822 420.264 335.162 420.275 336.533 420.123C337.943 420.026 339.343 419.829 340.725 419.536C340.78 419.515 340.827 419.478 340.859 419.429C340.892 419.381 340.909 419.324 340.908 419.265C340.907 419.207 340.887 419.15 340.853 419.103C340.818 419.056 340.77 419.021 340.714 419.003V419.003Z" fill="#030402"/>
<path opacity="0.2" d="M340.79 391.19C340.205 390.808 339.594 390.466 338.961 390.168C338.341 389.831 337.742 389.494 337.099 389.2C336.457 388.906 335.749 388.612 335.064 388.341L335.891 387.949C337.009 387.482 338.099 386.952 339.157 386.361C339.397 386.22 339.299 385.795 339.005 385.828C337.836 385.983 336.689 386.271 335.586 386.687C334.748 386.959 333.942 387.285 333.147 387.634C331.874 387.209 330.6 386.818 329.304 386.448C328.147 386.002 326.904 385.82 325.668 385.915C325.581 385.915 325.613 386.035 325.668 386.056C326.882 386.476 328.071 386.966 329.228 387.525C329.914 387.873 330.622 388.199 331.318 388.525C330.513 388.971 329.729 389.45 328.945 389.939C328.424 390.273 327.922 390.636 327.442 391.027C326.95 391.358 326.5 391.749 326.103 392.191C326.092 392.204 326.086 392.22 326.085 392.237C326.085 392.254 326.09 392.271 326.1 392.285C326.11 392.299 326.124 392.309 326.141 392.313C326.157 392.318 326.175 392.317 326.19 392.311C326.758 392.146 327.309 391.928 327.834 391.658C328.335 391.441 328.825 391.223 329.315 390.984C330.404 390.451 331.569 390.005 332.679 389.483L333.039 389.319C334.225 389.831 335.434 390.266 336.653 390.657C337.295 390.864 337.938 391.005 338.58 391.169C339.252 391.368 339.935 391.524 340.627 391.636C340.686 391.658 340.752 391.655 340.809 391.629C340.866 391.602 340.91 391.554 340.932 391.495C340.953 391.436 340.951 391.37 340.924 391.313C340.898 391.256 340.849 391.212 340.79 391.19Z" fill="#030402"/>
<path opacity="0.2" d="M338.515 374.603C336.612 374.702 334.725 375.005 332.886 375.506C331.983 375.777 331.09 376.093 330.208 376.441C329.794 376.593 329.402 376.789 329.01 376.974C328.597 377.111 328.224 377.346 327.922 377.659C327.912 377.667 327.905 377.677 327.9 377.689C327.895 377.7 327.892 377.712 327.892 377.724C327.892 377.737 327.895 377.749 327.9 377.76C327.905 377.772 327.912 377.782 327.922 377.79C328.286 377.84 328.658 377.811 329.01 377.703C329.478 377.605 329.947 377.518 330.404 377.409L333.18 376.767C335.031 376.354 336.806 375.756 338.624 375.266C338.706 375.246 338.778 375.196 338.825 375.125C338.872 375.054 338.89 374.968 338.877 374.884C338.863 374.8 338.818 374.725 338.751 374.673C338.684 374.621 338.6 374.596 338.515 374.603V374.603Z" fill="#030402"/>
<path opacity="0.2" d="M337.938 354.306C336.116 353.956 334.262 353.795 332.407 353.827C331.503 353.827 330.589 353.827 329.685 353.914L328.215 353.99C327.841 353.947 327.462 354.015 327.127 354.186C327.118 354.192 327.11 354.2 327.105 354.21C327.1 354.219 327.097 354.23 327.097 354.24C327.097 354.251 327.1 354.262 327.105 354.271C327.11 354.281 327.118 354.289 327.127 354.295C327.437 354.483 327.799 354.57 328.161 354.545L329.5 354.686C330.404 354.784 331.318 354.86 332.222 354.915C334.109 355.062 336.007 355.007 337.883 354.752C338.134 354.719 338.221 354.36 337.938 354.306Z" fill="#030402"/>
</g>
<path opacity="0.6" d="M312.091 440.789C302.347 445.564 287.921 484.014 295.586 493.129C303.251 502.244 359.364 503.158 368.989 492.759C378.613 482.361 360.083 445.684 353.093 441.431C346.103 437.178 321.16 436.351 312.091 440.789Z" fill="white"/>
<path d="M291.983 438.896C287.693 438.755 283.894 443.051 283.73 448.229C283.567 453.406 286.996 457.942 291.351 458.084C295.706 458.225 299.441 453.939 299.604 448.762C299.767 443.584 296.283 439.038 291.983 438.896Z" fill="#263238"/>
<path d="M298.319 443.867C298.221 443.704 297.938 443.791 298.003 443.987C300.311 451.329 297.339 460.128 288.792 460.933C288.764 460.933 288.736 460.945 288.715 460.965C288.695 460.986 288.684 461.013 288.684 461.042C288.684 461.071 288.695 461.099 288.715 461.119C288.736 461.139 288.764 461.151 288.792 461.151C298.286 462.032 302.674 451.438 298.319 443.867Z" fill="#263238"/>
<path d="M373.006 438.896C377.296 438.755 381.095 443.051 381.259 448.229C381.422 453.406 377.992 457.942 373.638 458.084C369.283 458.225 365.548 453.939 365.385 448.762C365.222 443.584 368.706 439.038 373.006 438.896Z" fill="#263238"/>
<path d="M366.67 443.867C366.768 443.704 367.051 443.791 366.985 443.987C364.677 451.329 367.65 460.128 376.196 460.933C376.225 460.933 376.253 460.945 376.273 460.965C376.294 460.986 376.305 461.013 376.305 461.042C376.305 461.071 376.294 461.099 376.273 461.119C376.253 461.139 376.225 461.151 376.196 461.151C366.702 462.032 362.315 451.438 366.67 443.867Z" fill="#263238"/>
<path d="M295.216 420.003C294.65 417.708 291.83 417.621 289.99 418.034C287.55 418.497 285.219 419.416 283.12 420.743C281.052 422.233 281.346 425.833 284.34 425.931C286.689 425.869 289.009 425.402 291.199 424.55C293.104 423.897 295.837 422.505 295.216 420.003Z" fill="#263238"/>
<path d="M369.773 420.003C370.339 417.708 373.159 417.621 374.999 418.034C377.439 418.497 379.77 419.416 381.868 420.743C383.937 422.233 383.643 425.833 380.649 425.931C378.3 425.869 375.98 425.402 373.79 424.55C371.885 423.897 369.152 422.505 369.773 420.003Z" fill="#263238"/>
<path d="M332.636 456.539C327.889 456.387 315.957 447.718 317.47 442.801C318.983 437.885 343.959 438.755 347.301 442.529C350.644 446.304 335.304 456.626 332.636 456.539Z" fill="#263238"/>
<path d="M410.084 468.11C411.922 461.481 408.032 454.619 401.397 452.784C394.762 450.948 387.894 454.833 386.056 461.462C384.219 468.091 388.108 474.953 394.743 476.788C401.378 478.624 408.246 474.739 410.084 468.11Z" fill="#FF99BA"/>
<path d="M276.053 473.23C280.745 468.197 280.466 460.317 275.428 455.628C270.39 450.94 262.502 451.219 257.81 456.252C253.117 461.285 253.396 469.166 258.434 473.854C263.472 478.543 271.36 478.263 276.053 473.23Z" fill="#FF99BA"/>
<g opacity="0.2">
<path opacity="0.2" d="M263.904 358.646C260.566 362.438 257.612 366.552 255.086 370.926C252.654 375.356 250.508 379.938 248.662 384.642C247.573 387.274 246.55 389.885 245.69 392.582C245.635 392.735 245.875 392.822 245.951 392.68C247.192 390.505 248.27 388.253 249.392 386.013C250.513 383.772 251.667 381.553 252.799 379.312C255.078 374.853 257.47 370.462 259.974 366.14C261.345 363.691 262.846 361.316 264.47 359.027C264.656 358.722 264.144 358.352 263.904 358.646Z" fill="#030402"/>
<path opacity="0.2" d="M266.158 355.546C263.292 355.368 260.442 356.086 258.003 357.601C256.815 358.318 255.719 359.177 254.737 360.158C253.723 361.173 252.788 362.264 251.939 363.421C251.874 363.497 251.939 363.595 252.048 363.529C253.971 361.605 256.258 360.082 258.776 359.048C261.218 357.993 263.732 357.114 266.3 356.416C266.415 356.397 266.518 356.333 266.587 356.238C266.655 356.144 266.683 356.025 266.664 355.91C266.646 355.795 266.582 355.691 266.487 355.623C266.392 355.555 266.274 355.527 266.158 355.546Z" fill="#030402"/>
<path opacity="0.2" d="M270.85 353.446C269.431 353.045 267.969 352.815 266.495 352.761C264.998 352.688 263.498 352.779 262.021 353.033C259.125 353.581 256.349 354.638 253.822 356.155C253.746 356.155 253.822 356.318 253.888 356.285C256.589 355.308 259.401 354.669 262.26 354.382C263.643 354.197 265.036 354.121 266.43 354.045C267.823 353.968 269.337 354.045 270.785 354.045C270.851 354.032 270.911 353.998 270.956 353.948C271.001 353.899 271.03 353.836 271.037 353.769C271.044 353.703 271.03 353.635 270.997 353.577C270.963 353.519 270.912 353.473 270.85 353.446Z" fill="#030402"/>
<path opacity="0.2" d="M292.865 345.43C290.752 345.43 288.64 345.648 286.539 345.843C284.478 346.02 282.437 346.384 280.442 346.931C278.478 347.523 276.557 348.249 274.694 349.106C273.792 349.529 272.912 349.997 272.059 350.51C271.112 351.064 270.273 351.771 269.348 352.337C269.272 352.337 269.348 352.511 269.424 352.457C270.366 351.949 271.349 351.523 272.364 351.184C273.3 350.803 274.269 350.52 275.227 350.194C277.142 349.574 279.09 349.062 281.063 348.661C283.033 348.215 285.015 347.758 286.964 347.214C288.913 346.67 290.948 346.3 292.908 345.691C292.925 345.688 292.942 345.682 292.957 345.673C292.971 345.664 292.984 345.652 292.994 345.637C293.004 345.623 293.012 345.607 293.015 345.59C293.019 345.573 293.02 345.556 293.017 345.539C293.014 345.522 293.008 345.505 292.999 345.491C292.99 345.476 292.978 345.463 292.963 345.453C292.949 345.443 292.933 345.436 292.916 345.432C292.899 345.428 292.882 345.427 292.865 345.43V345.43Z" fill="#030402"/>
<path opacity="0.2" d="M391.874 348.933C390.381 347.601 388.663 346.544 386.801 345.811C384.67 344.976 382.448 344.396 380.181 344.082C377.873 343.733 375.543 343.777 373.213 343.57C373.061 343.57 373.039 343.82 373.213 343.842C375.392 344.191 377.551 344.656 379.68 345.234C381.811 345.725 383.89 346.42 385.886 347.312C387.573 348.072 389.178 349.001 390.676 350.086C392.169 351.29 393.597 352.572 394.955 353.925C395.005 353.974 395.07 354.004 395.139 354.012C395.209 354.02 395.278 354.005 395.338 353.969C395.398 353.933 395.444 353.878 395.469 353.813C395.494 353.748 395.497 353.677 395.478 353.61C394.641 351.802 393.409 350.204 391.874 348.933V348.933Z" fill="#030402"/>
<path opacity="0.2" d="M411.678 355.122C409.489 353.355 406.773 352.368 403.959 352.315C402.587 352.24 401.21 352.346 399.865 352.631C399.163 352.773 398.477 352.989 397.819 353.272C397.416 353.436 396.73 353.664 396.577 354.132C396.568 354.145 396.564 354.16 396.564 354.175C396.564 354.191 396.568 354.206 396.577 354.219C396.948 354.491 397.666 354.219 398.112 354.219C398.755 354.132 399.397 354.066 400.04 354.012C401.307 353.903 402.582 353.903 403.85 354.012C405.112 354.13 406.364 354.341 407.595 354.643C408.847 354.958 410.045 355.426 411.286 355.785C411.374 355.837 411.479 355.852 411.578 355.826C411.677 355.801 411.762 355.737 411.814 355.649C411.866 355.561 411.881 355.456 411.855 355.357C411.83 355.258 411.766 355.173 411.678 355.122V355.122Z" fill="#030402"/>
<path opacity="0.2" d="M411.645 362.061C409.712 360.098 407.44 358.499 404.939 357.341C403.722 356.762 402.454 356.299 401.15 355.959C399.814 355.559 398.416 355.404 397.024 355.502C396.85 355.502 396.73 355.796 396.937 355.883C398.102 356.362 399.365 356.655 400.573 357.036C401.852 357.43 403.11 357.891 404.34 358.417C406.797 359.491 409.12 360.845 411.264 362.453C411.547 362.659 411.896 362.322 411.645 362.061Z" fill="#030402"/>
<path opacity="0.2" d="M410.132 378.268C407.715 373.754 405.276 369.251 402.642 364.856C401.193 362.358 399.616 359.937 397.916 357.601C397.851 357.514 397.677 357.601 397.721 357.688C399.691 362.3 402.228 366.695 404.612 371.1C406.997 375.505 409.414 380.15 411.918 384.609C413.333 387.133 414.781 389.613 416.371 392.016C416.371 392.093 416.534 392.016 416.501 391.962C414.694 387.257 412.566 382.682 410.132 378.268V378.268Z" fill="#030402"/>
</g>
<path opacity="0.2" d="M307.366 511.087C303.654 510.978 299.963 510.728 296.272 510.271C292.581 509.815 289.087 509.543 285.494 509.184C281.901 508.825 278.341 508.618 274.813 508.031C271.6 507.435 268.503 506.333 265.635 504.768C264.078 503.941 262.576 503.027 261.095 502.081L258.918 500.623C258.134 500.09 257.317 499.634 256.512 499.122C256.381 499.035 256.229 499.242 256.348 499.351C256.947 499.895 257.491 500.439 258.112 500.982C258.733 501.526 259.473 502.07 260.159 502.647C261.411 503.636 262.696 504.583 264.024 505.464C266.716 507.294 269.692 508.669 272.832 509.532C276.416 510.294 280.058 510.753 283.719 510.902C287.443 511.207 291.199 511.413 294.933 511.5C296.969 511.555 299.005 511.5 301.041 511.5C303.077 511.5 305.287 511.5 307.41 511.381C307.449 511.375 307.484 511.354 307.507 511.322C307.531 511.291 307.541 511.251 307.535 511.212C307.529 511.173 307.508 511.138 307.477 511.115C307.445 511.091 307.405 511.081 307.366 511.087V511.087Z" fill="#030402"/>
<path opacity="0.2" d="M406.876 499.253C404.808 501.159 402.627 502.939 400.344 504.583C399.223 505.41 398.06 506.18 396.86 506.889C395.57 507.531 394.162 507.901 392.723 507.977C386.626 508.651 380.529 509.358 374.432 510.011C370.97 510.391 367.508 510.761 364.024 510.913C363.719 510.913 363.632 511.436 363.969 511.479C370.284 512.327 376.653 511.479 382.957 510.816L392.516 509.793C394.048 509.706 395.555 509.372 396.98 508.803C398.262 508.162 399.467 507.377 400.573 506.465C403.136 504.5 405.376 502.147 407.214 499.493C407.301 499.286 407.018 499.123 406.876 499.253Z" fill="#030402"/>
<path d="M327.976 532.667C328.069 534.909 327.901 537.154 327.475 539.357C325.712 547.743 314.313 556.444 314.313 556.444C308.303 555.498 301.781 545.872 301.781 545.872C301.781 545.872 317.503 538.769 319.321 534.462C319.871 533.02 320.318 531.54 320.66 530.035C321.999 524.596 323.36 517.265 325.233 515.83L328.956 517.048C326.528 520.8 327.824 526.543 327.976 532.667Z" fill="#455A64"/>
<g style="mix-blend-mode:multiply" opacity="0.2">
<path d="M328.956 517.015C326.528 520.8 327.867 526.543 327.976 532.667C325.436 532.087 322.978 531.192 320.66 530.002C321.999 524.564 323.36 517.233 325.233 515.797L328.956 517.015Z" fill="black"/>
</g>
<path d="M351.798 555.357C351.798 555.357 339.822 547.482 337.546 539.194C337.032 537.26 336.729 535.276 336.642 533.277C336.283 526.892 337.383 520.757 334.617 516.961L338.254 515.493C340.649 517.102 342.87 527.61 344.852 532.537C344.999 532.935 345.17 533.323 345.363 533.701C347.464 537.888 363.61 543.936 363.61 543.936C363.61 543.936 357.132 553.812 351.798 555.357Z" fill="#455A64"/>
<g style="mix-blend-mode:multiply" opacity="0.2">
<path d="M344.852 532.515C344.274 532.646 343.708 532.754 343.175 532.852C341.02 533.235 338.826 533.356 336.642 533.211C336.283 526.826 337.383 520.692 334.617 516.896L338.254 515.427C340.649 517.124 342.87 527.631 344.852 532.515Z" fill="black"/>
</g>
<path d="M333.866 520.55C334.879 519.517 311.504 490.257 302.565 491.53C293.627 492.803 289.805 512.686 297.121 520.496C303.512 527.326 330.948 523.509 333.866 520.55Z" fill="#455A64"/>
<g style="mix-blend-mode:multiply" opacity="0.2">
<path d="M331.754 520.931C332.843 520.724 301.008 506.562 295.902 514.96C294.214 517.733 297.796 527.675 331.754 520.931Z" fill="black"/>
</g>
<path d="M331.504 520.268C330.415 519.278 352.908 489.301 361.879 490.291C370.851 491.28 375.303 511.044 368.238 519.071C362.054 526.098 334.509 523.139 331.504 520.268Z" fill="#455A64"/>
<g style="mix-blend-mode:multiply" opacity="0.2">
<path d="M333.583 520.55C332.494 520.376 363.861 505.225 369.228 513.459C371.046 516.2 367.78 526.272 333.583 520.55Z" fill="black"/>
</g>
<g style="mix-blend-mode:multiply" opacity="0.2">
<path d="M330.567 518.951C326.898 512.24 319.506 508.248 312.233 506.53C311.95 506.464 311.776 506.889 312.048 507.008C318.972 509.956 325.363 513.132 330.012 519.31C330.06 519.384 330.135 519.435 330.22 519.454C330.306 519.472 330.396 519.456 330.469 519.408C330.543 519.361 330.595 519.286 330.613 519.2C330.631 519.114 330.615 519.025 330.567 518.951Z" fill="black"/>
</g>
<g style="mix-blend-mode:multiply" opacity="0.2">
<path d="M353.594 502.788C349.5 503.973 345.581 506.736 342.336 509.444C339.266 512.011 335.989 515.133 334.225 518.788C334.189 518.837 334.174 518.898 334.183 518.958C334.192 519.019 334.225 519.073 334.274 519.109C334.323 519.145 334.385 519.16 334.445 519.151C334.505 519.141 334.559 519.109 334.595 519.06C337.644 515.992 340.181 512.642 343.599 509.934C346.866 507.367 350.426 505.637 353.931 503.516C354.021 503.467 354.088 503.386 354.12 503.289C354.152 503.192 354.146 503.087 354.103 502.995C354.06 502.902 353.984 502.829 353.889 502.791C353.795 502.752 353.689 502.751 353.594 502.788V502.788Z" fill="black"/>
</g>
<path d="M337.394 520.159C337.094 521.076 336.561 521.9 335.847 522.55C335.134 523.2 334.264 523.654 333.322 523.868C332.401 524.215 331.392 524.255 330.446 523.983C329.501 523.71 328.668 523.14 328.074 522.356C326.76 520.691 326.06 518.624 326.093 516.504C325.091 512.773 329.435 510.445 332.973 510.967C334.022 511.078 335.026 511.447 335.896 512.042C336.766 512.636 337.476 513.437 337.96 514.372C338.896 516.384 338.145 518.222 337.394 520.159Z" fill="#455A64"/>
</svg>
