<svg width="806" height="980" viewBox="0 0 806 980" fill="none" xmlns="http://www.w3.org/2000/svg">
<path d="M384.104 677.501C417.354 676.491 450.853 675.445 483.296 668.092C515.739 660.738 547.446 646.588 570.606 622.728C599.555 592.906 608.821 553.337 606.072 513.024C603.005 468.617 601.825 429.102 575.74 390.49C552.527 356.122 515.73 330.729 474.917 323.26C434.103 315.791 389.797 326.99 358.817 354.518C338.875 372.238 324.964 395.522 308.755 416.689C292.547 437.856 272.402 457.941 246.618 464.639C222.571 470.886 197.213 464.639 173.308 457.853C149.404 451.066 124.604 443.721 100.105 447.841C54.1491 455.558 42.0727 502.436 46.7366 542.333C51.693 584.737 72.645 626.272 108.582 650.558C154.28 681.488 213.988 673.514 266.187 674.701L384.104 677.501Z" fill="#FFE5D6"/>
<path d="M105.611 571.225C103.143 571.225 100.777 570.246 99.0308 568.503C97.2851 566.761 96.3032 564.397 96.3008 561.931V560.407C96.302 559.262 96.0771 558.128 95.6391 557.069C95.201 556.011 94.5584 555.05 93.748 554.24C92.9376 553.43 91.9753 552.788 90.9163 552.35C89.8572 551.912 88.7222 551.688 87.5761 551.689V551.689C85.2621 551.689 83.0429 552.607 81.4067 554.242C79.7705 555.877 78.8512 558.095 78.8512 560.407V573.192C78.8431 574.419 79.0779 575.635 79.5421 576.771C80.0063 577.907 80.6907 578.94 81.5561 579.81C82.4214 580.681 83.4505 581.372 84.5841 581.843C85.7177 582.314 86.9334 582.557 88.1612 582.557H105.611V571.225Z" fill="#8C9E85"/>
<path d="M129.79 600.109C130.664 600.109 131.53 599.937 132.337 599.602C133.144 599.268 133.878 598.777 134.496 598.159C135.113 597.541 135.603 596.808 135.937 596.001C136.27 595.193 136.441 594.328 136.44 593.455V592.392C136.44 590.747 137.094 589.169 138.258 588.006C139.422 586.843 141.001 586.19 142.647 586.19C144.293 586.19 145.872 586.843 147.036 588.006C148.2 589.169 148.854 590.747 148.854 592.392V601.535C148.854 603.3 148.152 604.992 146.903 606.24C145.654 607.488 143.961 608.189 142.195 608.189H129.719L129.79 600.109Z" fill="#8C9E85"/>
<path d="M128.682 638.065C133.525 606.446 135.011 574.405 133.116 542.474C132.859 538.115 132.513 533.676 130.775 529.681C129.037 525.685 125.641 522.141 121.341 521.396C116.163 520.51 110.993 523.93 108.271 528.431C105.549 532.932 104.725 538.292 104.157 543.493C100.504 574.645 100.885 606.107 101.267 637.462L128.682 638.065Z" fill="#A4B59D"/>
<path d="M134.472 685.475L142.026 628.328H85.6078L90.8391 685.475H134.472Z" fill="#F5AB84"/>
<path d="M123.415 539.737C123.529 539.737 123.638 539.692 123.719 539.613C123.801 539.533 123.847 539.425 123.85 539.311V534.607C123.85 534.55 123.838 534.494 123.816 534.442C123.794 534.39 123.762 534.343 123.722 534.303C123.681 534.263 123.633 534.232 123.581 534.211C123.528 534.19 123.472 534.18 123.415 534.181C123.359 534.18 123.303 534.19 123.251 534.211C123.199 534.232 123.151 534.264 123.111 534.303C123.072 534.343 123.04 534.39 123.019 534.443C122.999 534.495 122.988 534.551 122.99 534.607V539.311C122.99 539.424 123.034 539.532 123.114 539.612C123.194 539.692 123.302 539.737 123.415 539.737V539.737Z" fill="white"/>
<path d="M117.989 550.732C118.102 550.732 118.21 550.687 118.29 550.607C118.37 550.528 118.414 550.42 118.414 550.307V547.011C118.416 546.954 118.405 546.898 118.385 546.845C118.364 546.793 118.333 546.745 118.293 546.704C118.253 546.664 118.206 546.632 118.154 546.61C118.102 546.588 118.046 546.577 117.989 546.577C117.874 546.577 117.763 546.622 117.682 546.704C117.6 546.785 117.554 546.896 117.554 547.011V550.307C117.557 550.42 117.604 550.528 117.685 550.608C117.766 550.687 117.875 550.732 117.989 550.732Z" fill="white"/>
<path d="M109.45 561.585C109.56 561.586 109.665 561.545 109.746 561.471C109.826 561.397 109.876 561.296 109.885 561.187L110.222 556.757C110.228 556.701 110.222 556.645 110.206 556.591C110.189 556.538 110.162 556.488 110.125 556.446C110.088 556.404 110.044 556.369 109.993 556.345C109.943 556.321 109.888 556.307 109.832 556.305C109.775 556.299 109.719 556.304 109.665 556.321C109.611 556.337 109.56 556.365 109.517 556.401C109.474 556.437 109.439 556.482 109.414 556.533C109.388 556.583 109.374 556.638 109.37 556.695L109.025 561.125C109.02 561.181 109.026 561.238 109.044 561.292C109.062 561.346 109.09 561.396 109.127 561.439C109.164 561.482 109.21 561.517 109.26 561.542C109.311 561.567 109.367 561.582 109.424 561.585H109.45Z" fill="white"/>
<path d="M124.967 571.269C125.08 571.269 125.188 571.225 125.268 571.145C125.348 571.065 125.392 570.957 125.392 570.844V566.963C125.394 566.907 125.384 566.851 125.363 566.799C125.342 566.747 125.31 566.7 125.271 566.66C125.231 566.62 125.183 566.589 125.131 566.568C125.079 566.547 125.023 566.537 124.967 566.538C124.91 566.537 124.854 566.547 124.801 566.568C124.749 566.589 124.701 566.62 124.66 566.66C124.62 566.699 124.588 566.746 124.566 566.799C124.544 566.851 124.532 566.907 124.532 566.963V570.844C124.535 570.958 124.582 571.066 124.663 571.145C124.744 571.225 124.853 571.269 124.967 571.269V571.269Z" fill="white"/>
<path d="M125.162 557.324C125.219 557.324 125.275 557.312 125.327 557.291C125.379 557.269 125.427 557.236 125.466 557.196C125.506 557.156 125.537 557.108 125.558 557.055C125.579 557.002 125.589 556.946 125.588 556.89V551.848C125.588 551.735 125.543 551.627 125.463 551.548C125.383 551.468 125.275 551.423 125.162 551.423C125.048 551.423 124.939 551.467 124.858 551.547C124.777 551.627 124.73 551.735 124.728 551.848V556.863C124.724 556.922 124.733 556.982 124.753 557.037C124.773 557.093 124.804 557.144 124.845 557.187C124.886 557.231 124.935 557.265 124.99 557.288C125.044 557.312 125.103 557.324 125.162 557.324V557.324Z" fill="white"/>
<path d="M113.334 540.268C113.39 540.27 113.446 540.259 113.498 540.238C113.551 540.217 113.598 540.186 113.638 540.146C113.678 540.107 113.709 540.059 113.73 540.007C113.751 539.955 113.761 539.899 113.76 539.843V537.132C113.761 537.075 113.751 537.019 113.73 536.966C113.709 536.914 113.678 536.866 113.638 536.825C113.599 536.785 113.551 536.753 113.499 536.731C113.447 536.709 113.391 536.698 113.334 536.698C113.277 536.698 113.221 536.709 113.168 536.731C113.115 536.753 113.067 536.785 113.027 536.825C112.987 536.865 112.955 536.913 112.933 536.966C112.911 537.018 112.9 537.075 112.9 537.132V539.843C112.9 539.9 112.911 539.956 112.933 540.008C112.955 540.06 112.987 540.107 113.027 540.147C113.068 540.187 113.116 540.218 113.168 540.239C113.221 540.259 113.277 540.27 113.334 540.268V540.268Z" fill="white"/>
<path d="M116.827 578.242C116.937 578.242 117.043 578.2 117.122 578.124C117.201 578.048 117.248 577.944 117.253 577.835L117.448 572.793C117.45 572.737 117.441 572.68 117.422 572.627C117.402 572.574 117.372 572.525 117.333 572.484C117.294 572.443 117.247 572.41 117.195 572.387C117.144 572.364 117.088 572.351 117.031 572.35C116.919 572.348 116.81 572.389 116.727 572.465C116.645 572.541 116.595 572.646 116.588 572.758L116.393 577.799C116.39 577.856 116.399 577.912 116.419 577.965C116.439 578.018 116.469 578.067 116.508 578.108C116.547 578.15 116.593 578.183 116.645 578.206C116.697 578.229 116.753 578.241 116.809 578.242H116.827Z" fill="white"/>
<path d="M110.426 586.19C110.537 586.19 110.644 586.146 110.724 586.068C110.803 585.99 110.849 585.885 110.851 585.773L111.046 581.343C111.049 581.287 111.04 581.232 111.021 581.179C111.002 581.127 110.972 581.078 110.935 581.037C110.897 580.996 110.851 580.963 110.8 580.939C110.749 580.916 110.695 580.903 110.639 580.9C110.526 580.9 110.417 580.941 110.334 581.017C110.25 581.092 110.197 581.196 110.186 581.308L109.991 585.738C109.989 585.795 109.998 585.852 110.018 585.905C110.037 585.959 110.067 586.008 110.106 586.05C110.145 586.092 110.191 586.126 110.243 586.15C110.295 586.174 110.351 586.187 110.408 586.19H110.426Z" fill="white"/>
<path d="M123.805 609.633C123.862 609.633 123.918 609.622 123.97 609.6C124.022 609.578 124.07 609.546 124.109 609.506C124.149 609.465 124.18 609.417 124.201 609.365C124.222 609.312 124.232 609.256 124.231 609.199V604.937C124.231 604.825 124.186 604.717 124.106 604.637C124.026 604.557 123.918 604.512 123.805 604.512C123.692 604.512 123.582 604.557 123.501 604.636C123.42 604.716 123.373 604.824 123.371 604.937V609.199C123.371 609.256 123.382 609.313 123.404 609.365C123.426 609.418 123.458 609.466 123.498 609.506C123.538 609.546 123.586 609.578 123.639 609.6C123.692 609.622 123.748 609.633 123.805 609.633V609.633Z" fill="white"/>
<path d="M116.437 616.03C116.548 616.03 116.655 615.987 116.735 615.909C116.814 615.831 116.86 615.725 116.863 615.614L117.058 611.742C117.063 611.628 117.023 611.517 116.946 611.433C116.87 611.348 116.764 611.297 116.65 611.29C116.593 611.284 116.535 611.29 116.48 611.307C116.425 611.325 116.375 611.354 116.332 611.393C116.29 611.431 116.256 611.478 116.232 611.531C116.209 611.583 116.197 611.64 116.198 611.698L116.003 615.578C116 615.69 116.041 615.799 116.117 615.882C116.193 615.964 116.298 616.014 116.41 616.021L116.437 616.03Z" fill="white"/>
<path d="M121.287 590.451C121.401 590.449 121.509 590.402 121.589 590.321C121.668 590.24 121.713 590.131 121.713 590.017V587.501C121.713 587.383 121.666 587.271 121.583 587.188C121.5 587.105 121.387 587.058 121.27 587.058C121.152 587.058 121.039 587.105 120.956 587.188C120.873 587.271 120.826 587.383 120.826 587.501V590.017C120.826 590.077 120.838 590.135 120.862 590.19C120.885 590.244 120.92 590.293 120.963 590.334C121.006 590.375 121.057 590.406 121.113 590.426C121.169 590.446 121.228 590.455 121.287 590.451V590.451Z" fill="white"/>
<path d="M112.562 604.982C112.67 604.98 112.773 604.938 112.852 604.864C112.931 604.791 112.979 604.69 112.988 604.583L113.183 601.677C113.191 601.559 113.152 601.444 113.075 601.355C112.998 601.266 112.888 601.211 112.771 601.203C112.653 601.195 112.537 601.234 112.448 601.311C112.359 601.388 112.305 601.497 112.296 601.615L112.101 604.521C112.094 604.635 112.132 604.747 112.206 604.833C112.281 604.919 112.387 604.973 112.5 604.982H112.562Z" fill="white"/>
<path d="M107.171 614.666H107.233C107.29 614.658 107.344 614.639 107.392 614.611C107.441 614.582 107.484 614.544 107.518 614.498C107.552 614.453 107.576 614.401 107.59 614.346C107.603 614.291 107.606 614.234 107.597 614.178L107.207 611.467C107.187 611.356 107.126 611.256 107.035 611.189C106.945 611.121 106.831 611.091 106.719 611.104C106.663 611.112 106.609 611.13 106.56 611.159C106.511 611.188 106.469 611.226 106.435 611.271C106.401 611.317 106.377 611.368 106.363 611.423C106.349 611.478 106.347 611.535 106.356 611.591L106.746 614.302C106.764 614.403 106.816 614.494 106.894 614.56C106.971 614.626 107.069 614.663 107.171 614.666Z" fill="white"/>
<path d="M94.8736 577.471C94.9889 577.471 95.0994 577.426 95.1809 577.344C95.2624 577.263 95.3081 577.152 95.3081 577.037V573.555C95.3081 573.438 95.2614 573.325 95.1783 573.242C95.0951 573.159 94.9824 573.112 94.8648 573.112C94.7472 573.112 94.6345 573.159 94.5513 573.242C94.4682 573.325 94.4214 573.438 94.4214 573.555V577.037C94.4214 577.096 94.4332 577.154 94.4561 577.208C94.4791 577.261 94.5127 577.31 94.5549 577.351C94.5971 577.391 94.6472 577.423 94.7019 577.444C94.7567 577.464 94.8151 577.474 94.8736 577.471Z" fill="white"/>
<path d="M89.2875 570.153C89.3442 570.152 89.4 570.14 89.4518 570.117C89.5036 570.094 89.5503 570.06 89.5891 570.019C89.6279 569.978 89.6581 569.929 89.6779 569.876C89.6976 569.823 89.7066 569.767 89.7042 569.71C89.7042 568.744 89.6333 568.151 89.6067 567.557C89.5801 566.964 89.5446 566.388 89.5092 565.422C89.5093 565.365 89.4977 565.308 89.4751 565.256C89.4525 565.204 89.4194 565.157 89.3778 565.118C89.3363 565.079 89.2872 565.049 89.2335 565.029C89.1798 565.01 89.1228 565.002 89.0658 565.005C89.0092 565.007 88.9533 565.019 88.9015 565.042C88.8497 565.065 88.8031 565.098 88.7642 565.139C88.7254 565.181 88.6952 565.229 88.6754 565.282C88.6557 565.335 88.6467 565.392 88.6491 565.448C88.6491 566.423 88.7112 567.008 88.7467 567.601C88.7821 568.195 88.8087 568.78 88.8442 569.746C88.8465 569.801 88.8597 569.856 88.8832 569.907C88.9068 569.958 88.9401 570.003 88.9813 570.041C89.0224 570.079 89.0707 570.108 89.1232 570.128C89.1758 570.147 89.2316 570.156 89.2875 570.153Z" fill="white"/>
<path d="M85.2179 573.697C85.3316 573.697 85.4408 573.653 85.522 573.573C85.6033 573.494 85.65 573.385 85.6523 573.272V567.522C85.6523 567.407 85.6066 567.296 85.5251 567.215C85.4436 567.133 85.3331 567.088 85.2179 567.088C85.1612 567.088 85.1052 567.099 85.0529 567.121C85.0007 567.143 84.9534 567.175 84.9138 567.215C84.8742 567.256 84.843 567.304 84.8221 567.356C84.8013 567.409 84.7911 567.465 84.7923 567.522V573.272C84.7923 573.328 84.8033 573.383 84.8247 573.435C84.8461 573.486 84.8774 573.533 84.9169 573.573C84.9565 573.612 85.0034 573.643 85.055 573.665C85.1067 573.686 85.162 573.697 85.2179 573.697V573.697Z" fill="white"/>
<path d="M89.0924 559.255C89.149 559.256 89.2053 559.246 89.258 559.225C89.3107 559.205 89.3586 559.173 89.3991 559.134C89.4395 559.094 89.4717 559.047 89.4937 558.995C89.5156 558.943 89.5269 558.887 89.5269 558.83V557.474C89.5269 557.357 89.4802 557.244 89.397 557.161C89.3139 557.078 89.2011 557.031 89.0835 557.031C88.9659 557.031 88.8532 557.078 88.7701 557.161C88.6869 557.244 88.6402 557.357 88.6402 557.474V558.83C88.6401 558.888 88.6519 558.946 88.6749 558.999C88.698 559.052 88.7317 559.101 88.7741 559.14C88.8165 559.18 88.8666 559.211 88.9214 559.231C88.9761 559.251 89.0343 559.259 89.0924 559.255Z" fill="white"/>
<path d="M143.773 595.679C143.83 595.68 143.886 595.67 143.939 595.649C143.991 595.628 144.039 595.597 144.08 595.557C144.12 595.518 144.152 595.47 144.174 595.418C144.196 595.366 144.208 595.31 144.208 595.253V592.737C144.208 592.622 144.162 592.512 144.08 592.43C143.999 592.349 143.888 592.303 143.773 592.303C143.716 592.303 143.66 592.314 143.608 592.336C143.556 592.358 143.509 592.39 143.469 592.431C143.429 592.471 143.398 592.519 143.377 592.572C143.356 592.624 143.346 592.681 143.347 592.737V595.253C143.346 595.31 143.356 595.366 143.377 595.418C143.398 595.47 143.43 595.517 143.469 595.557C143.509 595.597 143.557 595.628 143.609 595.649C143.661 595.67 143.717 595.68 143.773 595.679V595.679Z" fill="white"/>
<path d="M139.863 599.745C139.974 599.746 140.08 599.704 140.161 599.628C140.242 599.552 140.291 599.448 140.297 599.338L140.493 595.466C140.495 595.353 140.454 595.243 140.379 595.159C140.303 595.075 140.198 595.023 140.085 595.014C140.028 595.009 139.97 595.016 139.916 595.034C139.862 595.053 139.812 595.082 139.77 595.12C139.728 595.158 139.694 595.205 139.67 595.257C139.646 595.308 139.633 595.365 139.632 595.422L139.437 599.294C139.434 599.35 139.442 599.407 139.46 599.46C139.479 599.514 139.508 599.563 139.546 599.605C139.584 599.647 139.63 599.682 139.682 599.706C139.733 599.73 139.789 599.743 139.845 599.745H139.863Z" fill="white"/>
<path d="M144.359 603.821C144.415 603.821 144.471 603.81 144.523 603.788C144.576 603.766 144.623 603.734 144.663 603.693C144.702 603.653 144.733 603.605 144.754 603.552C144.775 603.5 144.785 603.444 144.784 603.387V601.066C144.785 601.009 144.775 600.953 144.754 600.9C144.733 600.848 144.702 600.8 144.663 600.759C144.623 600.719 144.576 600.687 144.523 600.665C144.471 600.643 144.415 600.631 144.359 600.631C144.243 600.631 144.133 600.677 144.051 600.759C143.97 600.84 143.924 600.95 143.924 601.066V603.387C143.924 603.502 143.97 603.612 144.051 603.694C144.133 603.775 144.243 603.821 144.359 603.821Z" fill="white"/>
<path d="M102.1 665.584C102.205 665.586 102.306 665.548 102.384 665.478L109.894 659.037C114.824 661.048 118.592 663.192 121.083 665.416C121.16 665.485 121.26 665.523 121.363 665.523C121.466 665.523 121.565 665.485 121.642 665.416L127.849 660.25L137.008 665.177C137.057 665.203 137.112 665.219 137.167 665.224C137.223 665.23 137.279 665.224 137.333 665.208C137.387 665.191 137.436 665.164 137.479 665.129C137.523 665.093 137.558 665.049 137.584 664.999C137.639 664.899 137.651 664.782 137.62 664.673C137.588 664.563 137.515 664.471 137.416 664.415L128.008 659.356C127.932 659.315 127.846 659.298 127.761 659.308C127.675 659.317 127.595 659.353 127.53 659.409L121.385 664.521C118.778 662.288 114.948 660.135 109.982 658.133C109.909 658.102 109.829 658.093 109.751 658.105C109.672 658.118 109.599 658.152 109.539 658.204L102.144 664.548C99.6391 662.139 96.7467 660.168 93.5879 658.718C93.503 658.674 93.4056 658.66 93.3119 658.68C93.2183 658.699 93.1341 658.75 93.0736 658.824L88.4098 664.14C88.3318 664.221 88.2882 664.329 88.2882 664.441C88.2882 664.554 88.3318 664.662 88.4098 664.742C88.4494 664.782 88.4963 664.814 88.548 664.835C88.5998 664.857 88.6552 664.868 88.7113 664.868C88.7673 664.868 88.8227 664.857 88.8745 664.835C88.9262 664.814 88.9732 664.782 89.0127 664.742L93.4461 659.675C96.5378 661.093 99.3489 663.056 101.745 665.469C101.792 665.514 101.848 665.548 101.909 665.567C101.971 665.587 102.036 665.593 102.1 665.584V665.584Z" fill="white"/>
<path d="M102.1 671.006C102.205 671.008 102.306 670.97 102.384 670.9L109.894 664.468C114.824 666.47 118.592 668.614 121.083 670.838C121.16 670.907 121.26 670.945 121.363 670.945C121.466 670.945 121.565 670.907 121.642 670.838L127.849 665.673L137.008 670.599C137.107 670.653 137.223 670.665 137.331 670.634C137.439 670.602 137.53 670.529 137.584 670.431C137.639 670.33 137.651 670.213 137.62 670.104C137.588 669.994 137.515 669.902 137.416 669.846L128.008 664.778C127.932 664.737 127.846 664.721 127.761 664.73C127.675 664.74 127.595 664.775 127.53 664.831L121.385 669.943C118.778 667.711 114.948 665.558 109.982 663.555C109.908 663.529 109.828 663.522 109.75 663.536C109.672 663.55 109.6 663.584 109.539 663.635L102.144 669.97C99.6426 667.559 96.7493 665.591 93.5879 664.149C93.5032 664.107 93.4073 664.094 93.3145 664.111C93.2217 664.129 93.1371 664.176 93.0736 664.246L88.4098 669.562C88.3318 669.643 88.2882 669.751 88.2882 669.863C88.2882 669.976 88.3318 670.084 88.4098 670.165C88.4494 670.204 88.4963 670.236 88.548 670.257C88.5998 670.279 88.6552 670.29 88.7113 670.29C88.7673 670.29 88.8227 670.279 88.8745 670.257C88.9262 670.236 88.9732 670.204 89.0127 670.165L93.4461 665.088C96.5337 666.514 99.3436 668.476 101.745 670.882C101.789 670.931 101.845 670.968 101.907 670.99C101.969 671.012 102.035 671.017 102.1 671.006Z" fill="white"/>
<path d="M101.444 645.109C101.541 645.108 101.635 645.073 101.71 645.011L109.849 638.552C115.169 640.572 119.283 642.717 121.979 644.949C122.055 645.012 122.151 645.046 122.249 645.046C122.348 645.046 122.444 645.012 122.52 644.949L129.241 639.766L139.163 644.71C139.214 644.745 139.272 644.769 139.333 644.779C139.395 644.79 139.457 644.787 139.518 644.771C139.578 644.756 139.634 644.727 139.682 644.688C139.73 644.649 139.769 644.599 139.797 644.544C139.824 644.488 139.84 644.427 139.842 644.365C139.844 644.303 139.832 644.241 139.808 644.184C139.784 644.127 139.748 644.075 139.703 644.033C139.657 643.991 139.603 643.959 139.544 643.939L129.383 638.871C129.31 638.837 129.23 638.823 129.15 638.831C129.071 638.839 128.995 638.868 128.93 638.916L122.263 644.063C119.452 641.813 115.302 639.633 109.92 637.657C109.851 637.632 109.777 637.625 109.704 637.636C109.631 637.647 109.562 637.675 109.504 637.719L101.524 644.09C98.7757 641.643 95.6419 639.667 92.249 638.242C92.1689 638.203 92.0783 638.19 91.9905 638.206C91.9028 638.222 91.8224 638.266 91.7613 638.331L86.725 643.647C86.68 643.687 86.6437 643.736 86.6186 643.79C86.5935 643.845 86.5801 643.905 86.5792 643.965C86.5783 644.025 86.5899 644.085 86.6134 644.14C86.6368 644.196 86.6716 644.246 86.7155 644.287C86.7593 644.328 86.8112 644.36 86.868 644.38C86.9248 644.401 86.9852 644.409 87.0453 644.404C87.1054 644.4 87.1639 644.383 87.2172 644.355C87.2704 644.327 87.3172 644.288 87.3546 644.24L92.1692 639.137C95.4868 640.541 98.5349 642.511 101.178 644.958C101.245 645.039 101.34 645.092 101.444 645.109V645.109Z" fill="white"/>
<path d="M101.444 650.531C101.541 650.53 101.635 650.495 101.71 650.434L109.849 643.983C115.169 645.995 119.283 648.148 121.979 650.38C122.056 650.44 122.152 650.472 122.249 650.472C122.347 650.472 122.442 650.44 122.52 650.38L129.241 645.188L139.163 650.132C139.214 650.167 139.272 650.191 139.333 650.201C139.395 650.212 139.457 650.209 139.518 650.194C139.578 650.178 139.634 650.149 139.682 650.11C139.73 650.071 139.769 650.022 139.797 649.966C139.824 649.91 139.84 649.849 139.842 649.787C139.844 649.725 139.832 649.663 139.808 649.606C139.784 649.549 139.748 649.497 139.703 649.455C139.657 649.413 139.603 649.381 139.544 649.362L129.383 644.302C129.311 644.264 129.23 644.248 129.15 644.256C129.069 644.264 128.993 644.295 128.93 644.347L122.263 649.486C119.452 647.244 115.302 645.056 109.92 643.08C109.851 643.054 109.776 643.047 109.702 643.06C109.629 643.072 109.561 643.104 109.504 643.151L101.524 649.521C98.7637 647.077 95.6178 645.107 92.2135 643.691C92.1325 643.653 92.0414 643.642 91.9535 643.659C91.8657 643.677 91.7859 643.722 91.7258 643.789L86.6896 649.105C86.6116 649.185 86.568 649.293 86.568 649.406C86.568 649.518 86.6116 649.626 86.6896 649.707C86.7293 649.748 86.7768 649.781 86.8293 649.803C86.8819 649.825 86.9384 649.837 86.9955 649.837C87.0525 649.837 87.109 649.825 87.1616 649.803C87.2142 649.781 87.2617 649.748 87.3014 649.707L92.1249 644.577C95.4449 645.978 98.4961 647.945 101.142 650.389C101.179 650.433 101.225 650.469 101.277 650.493C101.329 650.518 101.386 650.531 101.444 650.531V650.531Z" fill="white"/>
<path d="M137.797 674.763H142.097V670.05C142.1 668.828 142.586 667.658 143.45 666.794C144.315 665.931 145.486 665.445 146.708 665.442H185.828C187.049 665.447 188.219 665.934 189.083 666.797C189.947 667.66 190.434 668.829 190.438 670.05V674.763H194.739V670.05C194.727 667.703 193.789 665.457 192.129 663.797C190.469 662.138 188.22 661.201 185.872 661.19H146.752C144.397 661.19 142.137 662.122 140.467 663.782C138.797 665.442 137.853 667.696 137.841 670.05L137.797 674.763Z" fill="#C49A6C"/>
<path d="M192.132 689.072C193.588 689.072 194.984 688.494 196.013 687.466C197.042 686.437 197.621 685.042 197.621 683.588V676.473C197.621 675.018 197.043 673.622 196.014 672.592C194.985 671.562 193.589 670.982 192.132 670.98V670.98C190.675 670.982 189.278 671.562 188.248 672.591C187.217 673.621 186.637 675.017 186.635 676.473V683.561C186.632 684.284 186.773 685 187.048 685.669C187.323 686.337 187.728 686.945 188.239 687.457C188.749 687.969 189.356 688.375 190.024 688.652C190.692 688.929 191.409 689.072 192.132 689.072V689.072Z" fill="#876A4A"/>
<path d="M139.952 689.072C140.672 689.069 141.385 688.923 142.05 688.644C142.715 688.366 143.318 687.959 143.825 687.447C144.332 686.935 144.733 686.329 145.006 685.662C145.279 684.995 145.417 684.281 145.414 683.561V676.473C145.414 675.018 144.836 673.622 143.807 672.592C142.778 671.562 141.381 670.982 139.925 670.98V670.98C138.468 670.982 137.071 671.562 136.04 672.591C135.01 673.621 134.43 675.017 134.428 676.473V683.561C134.425 684.286 134.567 685.005 134.844 685.675C135.12 686.345 135.527 686.954 136.041 687.466C136.554 687.979 137.164 688.384 137.836 688.66C138.507 688.935 139.226 689.076 139.952 689.072Z" fill="#876A4A"/>
<path d="M470.049 674.763H474.367V670.05C474.371 668.829 474.859 667.66 475.722 666.797C476.586 665.934 477.756 665.447 478.977 665.442H518.079C519.301 665.445 520.473 665.931 521.337 666.794C522.201 667.658 522.688 668.828 522.69 670.05V674.763H526.99V670.05C526.979 667.703 526.041 665.457 524.38 663.797C522.72 662.138 520.472 661.201 518.124 661.19H479.004C476.648 661.19 474.388 662.122 472.718 663.782C471.049 665.442 470.105 667.696 470.093 670.05L470.049 674.763Z" fill="#C49A6C"/>
<path d="M524.375 670.953H524.384C527.415 670.953 529.872 673.409 529.872 676.438V683.588C529.872 686.617 527.415 689.072 524.384 689.072H524.375C521.344 689.072 518.886 686.617 518.886 683.588V676.438C518.886 673.409 521.344 670.953 524.375 670.953Z" fill="#876A4A"/>
<path d="M472.203 689.072C473.659 689.072 475.055 688.494 476.084 687.466C477.114 686.437 477.692 685.042 477.692 683.588V676.473C477.692 675.018 477.114 673.622 476.085 672.592C475.056 671.562 473.66 670.982 472.203 670.98V670.98C470.747 670.982 469.351 671.562 468.322 672.592C467.293 673.622 466.715 675.018 466.715 676.473V683.561C466.711 684.284 466.851 685 467.125 685.668C467.399 686.336 467.803 686.944 468.313 687.456C468.823 687.968 469.429 688.375 470.097 688.652C470.765 688.929 471.48 689.072 472.203 689.072Z" fill="#876A4A"/>
<path d="M164.113 663.963H168.414V421.659C168.416 419.816 169.15 418.048 170.455 416.744C171.76 415.44 173.529 414.707 175.374 414.704H489.183C491.028 414.707 492.797 415.44 494.102 416.744C495.407 418.048 496.141 419.816 496.144 421.659V663.963H500.444V421.659C500.441 418.676 499.254 415.815 497.143 413.706C495.032 411.596 492.169 410.41 489.183 410.407H175.374C172.388 410.41 169.526 411.596 167.414 413.706C165.303 415.815 164.116 418.676 164.113 421.659V663.963Z" fill="#C49A6C"/>
<path d="M533.064 524.621C532.772 525.507 526.317 582.513 523.639 606.284C523.297 609.308 523.864 612.364 525.266 615.065C526.668 617.767 528.842 619.99 531.512 621.452L589.518 653.224L592.293 645.321L553.36 602.093L564.887 519.873L536.903 517.711L533.064 524.621Z" fill="#7D406D"/>
<path d="M588.437 639.128L581.494 649.76L589.474 663.821L587.506 676.677C586.521 683.065 590.582 685.829 594.874 681.107C597.889 677.784 599.511 673.478 601.967 669.784L609.681 658.08C610.077 657.476 610.345 656.798 610.47 656.088C610.594 655.377 610.573 654.649 610.407 653.947C610.242 653.245 609.934 652.584 609.505 652.004C609.075 651.425 608.532 650.938 607.908 650.575L588.437 639.128Z" fill="#98464F"/>
<path d="M582.132 519.137C582.132 519.137 588.844 530.806 582.132 548.295C575.42 565.785 556.773 604.751 556.773 604.751L562.022 680.495L548.359 678.467L530.803 604.982L547.96 517.711L582.132 519.137Z" fill="#905480"/>
<path d="M546.045 441.338C548.608 441.338 570.526 438.051 570.801 438.901C568.549 432.043 566.291 425.186 564.027 418.328C559.824 405.561 551.924 395.292 538.774 390.667C541.124 394.92 540.175 400.218 538.535 404.843C536.895 409.468 534.616 413.907 534.447 418.771C534.297 423.254 535.999 427.454 538.349 431.175C540.37 434.382 545.052 437.838 545.992 441.364L546.045 441.338Z" fill="#FF633B"/>
<path d="M548.084 373.647C556.383 369.97 564.044 372.3 570.348 378.449C573.62 381.648 576.112 384.297 576.786 388.762C577.46 393.228 578.506 398.074 582.168 401.237C584.775 403.479 588.241 404.444 591.034 406.394C593.455 408.11 595.334 410.483 596.45 413.232C597.565 415.981 597.871 418.991 597.33 421.908C596.878 424.193 595.884 426.4 595.938 428.73C596.009 432.726 599.085 436.03 602.339 438.361C605.593 440.691 609.326 442.569 611.8 445.723C615.187 450.073 615.568 456.205 613.972 461.467C611.76 468.113 607.708 473.996 602.286 478.434C595.61 483.945 586.592 485.974 577.938 485.682C564.337 485.221 550.212 478.417 544.476 466.083C541.558 459.793 540.335 455.673 544.032 449.533C546.533 445.387 550.336 442.082 552.775 438.015C555.621 433.319 555.834 426.205 554.92 420.96C554.144 416.613 552.409 412.494 549.84 408.901C547.41 405.472 543.633 403.585 541.709 399.828C538.65 393.759 536.602 386.769 539.785 380.416C541.815 377.384 544.705 375.027 548.084 373.647V373.647Z" fill="#FF7642"/>
<path d="M484.439 421.252L479.341 408.529L462.521 406.119L456.749 411.594L470.599 419.365L481.602 428.065L484.439 421.252Z" fill="#FFC494"/>
<path d="M542.046 429.031L539.759 430.803L509.612 453.706L484.218 420.366L475.475 424.885L499.938 470.071C501.527 472.577 503.999 474.397 506.866 475.169C509.733 475.942 512.785 475.612 515.42 474.244L542.02 460.449C551.871 452.351 556.206 439.007 553.653 426.515C553.413 425.31 552.935 423.919 551.755 423.564C550.744 423.263 549.707 423.866 548.829 424.45C546.187 426.169 544.751 427.25 542.046 429.031Z" fill="#8C9E85"/>
<path d="M585.058 518.189C585.328 518.946 585.421 519.755 585.329 520.554C585.237 521.352 584.963 522.119 584.528 522.795C584.093 523.471 583.509 524.039 582.82 524.454C582.131 524.869 581.355 525.12 580.554 525.189L534.953 528.981C534.286 529.06 533.611 528.989 532.976 528.774C532.34 528.56 531.76 528.206 531.279 527.739C530.797 527.273 530.426 526.704 530.192 526.076C529.958 525.448 529.867 524.775 529.925 524.108L532.701 493.195C532.98 490.066 532.9 486.915 532.461 483.803L529.863 465.197C529.365 462.375 529.263 459.498 529.562 456.648C529.97 453.99 531.477 452.28 533.029 450.038C536.008 445.732 538.774 440.079 542.472 436.385L548.847 427.117C549.991 425.46 551.205 422.457 553.661 422.448H566.961C570.964 422.436 574.879 423.616 578.207 425.838C581.534 428.06 584.124 431.223 585.643 434.923L585.732 435.127C587.163 438.592 587.62 442.381 587.053 446.086L578.71 500.655L585.058 518.189Z" fill="#A4B59D"/>
<path d="M538.029 391.615C537.426 396.169 537.923 401.476 537.923 404.374C537.91 405.801 538.213 407.214 538.81 408.511L541.665 414.634C542.15 415.674 542.948 416.538 543.948 417.103C544.948 417.669 546.099 417.908 547.242 417.788L551.675 417.345C553.945 417.105 550.15 432.593 555.878 432.814C557.027 432.786 558.152 432.482 559.159 431.928C561.996 430.582 568.912 426.727 567.609 422.856C567.103 421.323 565.161 419.604 564.39 418.036C563.344 415.892 562.333 413.606 562.563 411.16C562.962 406.73 566.323 404.577 568.673 401.414C569.152 400.766 569.431 399.992 569.473 399.187C569.516 398.382 569.321 397.582 568.912 396.887C565.747 391.5 564.479 397.357 562.909 399.244C561.845 400.484 559.815 401.069 558.547 400.041C558.021 399.549 557.615 398.942 557.359 398.269C555.337 393.919 553.865 388.523 549.707 385.679C547.393 384.067 544.334 382.702 541.842 384.031C539.528 385.263 538.473 388.231 538.029 391.615Z" fill="#FFC494"/>
<path d="M563.432 696.718L561.49 669.031L546.417 669.97L542.64 687.796L530.386 694.255C524.1 697.569 528.498 701.671 533.294 702.229C537.683 702.743 542.081 701.68 546.453 701.573L559.274 701.281C559.851 701.267 560.419 701.136 560.944 700.896C561.469 700.657 561.94 700.314 562.328 699.887C562.717 699.461 563.015 698.96 563.205 698.416C563.395 697.871 563.472 697.293 563.432 696.718V696.718Z" fill="#98464F"/>
<path d="M550.886 386.237C547.933 388.08 544.679 388.009 542.09 390.499C540.769 391.716 539.704 393.185 538.958 394.819C538.212 396.453 537.8 398.219 537.746 400.015C536.032 398.347 534.698 396.33 533.835 394.101C532.972 391.871 532.6 389.482 532.745 387.097C533.25 379.583 537.604 376.287 543.669 373.373C550.452 370.103 556.428 369.545 562.218 375.029C562.784 375.464 563.164 376.097 563.282 376.801C563.335 378.015 561.996 378.786 560.817 379.07C556.481 380.115 554.566 383.934 550.886 386.237Z" fill="#FF7642"/>
<path d="M501.455 503.145L493.12 509.87C493.12 509.87 486.709 525.853 479.687 526.518L475.52 523.638V512.12L481.93 505.032C481.93 505.032 476.167 505.032 477.124 503.109C478.082 501.187 484.466 501.187 484.466 501.187L498.573 498.387L501.455 503.145Z" fill="#FFC494"/>
<path d="M565.694 438.343L540.956 470.478L494.512 498.254L499.885 507.114L546.879 488.703L579.747 449.657C580.987 448.184 581.722 446.351 581.843 444.43C581.965 442.508 581.466 440.598 580.421 438.981V438.981C579.641 437.766 578.579 436.756 577.327 436.036C576.074 435.317 574.667 434.908 573.223 434.846C571.779 434.783 570.342 435.068 569.031 435.677C567.721 436.285 566.576 437.2 565.694 438.343V438.343Z" fill="#A4B59D"/>
<path d="M532.78 493.957C535.174 493.204 537.568 492.442 539.971 491.707L543.518 490.59C544.598 490.166 545.732 489.892 546.887 489.775C546.909 489.708 546.942 489.645 546.985 489.589C556.395 478.762 565.436 467.64 574.108 456.222C576.511 453.033 578.869 449.799 581.334 446.662C581.52 446.423 581.91 446.733 581.742 446.973C577.805 452.918 573.381 458.57 569.018 464.205C564.656 469.84 560.152 475.493 555.514 481.039C552.925 484.14 550.31 487.241 547.65 490.28C547.617 490.321 547.576 490.355 547.53 490.38C547.484 490.405 547.434 490.42 547.382 490.425C547.33 490.43 547.277 490.425 547.227 490.409C547.177 490.393 547.131 490.367 547.091 490.333C546.063 490.921 544.955 491.356 543.802 491.627L540.255 492.779L533.073 495.065C532.39 495.251 532.089 494.152 532.78 493.957Z" fill="#8C9E85"/>
<path d="M532.381 475.626C534.031 474.376 535.724 473.234 537.444 472.082L539.962 470.398C540.388 470.115 540.849 469.84 541.221 469.512C541.594 469.204 542.013 468.956 542.463 468.777C542.788 467.893 543.158 467.027 543.571 466.181C543.961 465.295 544.369 464.409 544.786 463.585C545.637 461.813 546.524 460.079 547.446 458.384C548.333 456.665 549.317 454.973 550.292 453.29C551.245 451.55 552.292 449.864 553.431 448.239C553.48 448.156 553.561 448.096 553.655 448.072C553.749 448.047 553.848 448.062 553.932 448.111C554.015 448.16 554.076 448.241 554.1 448.335C554.124 448.429 554.11 448.528 554.06 448.612C553.121 450.384 551.994 451.996 550.993 453.697C549.991 455.398 549.095 457.011 548.182 458.685C547.269 460.36 546.408 462.052 545.522 463.753C545.096 464.639 544.635 465.463 544.254 466.323C543.873 467.182 543.438 468.095 542.942 468.981C542.969 469.024 542.984 469.075 542.984 469.127C542.984 469.179 542.969 469.229 542.942 469.273C542.628 469.632 542.252 469.932 541.833 470.159C541.384 470.443 540.932 470.738 540.477 471.045L537.941 472.702C536.167 473.845 534.438 474.97 532.621 476.007C532.355 476.131 532.169 475.785 532.381 475.626Z" fill="#8C9E85"/>
<path d="M359.1 447.416H418.099C418.821 447.416 419.522 447.179 420.095 446.74C420.669 446.302 421.081 445.687 421.269 444.991C421.457 444.294 421.409 443.555 421.135 442.889C420.86 442.222 420.372 441.664 419.748 441.302L401.385 430.617L401.288 430.564L396.243 428.411C390.737 426.435 384.715 426.435 379.21 428.411L374.165 430.227C374.099 430.249 374.037 430.279 373.978 430.316L357.327 441.408C356.743 441.796 356.3 442.36 356.061 443.018C355.821 443.676 355.799 444.394 355.998 445.065C356.196 445.737 356.604 446.327 357.162 446.75C357.72 447.173 358.4 447.406 359.1 447.416V447.416ZM400.543 432.123L418.861 442.755C419.157 442.928 419.388 443.192 419.518 443.509C419.648 443.825 419.671 444.176 419.582 444.506C419.493 444.836 419.298 445.128 419.027 445.337C418.756 445.546 418.423 445.66 418.081 445.661H359.1C358.762 445.668 358.431 445.564 358.157 445.366C357.883 445.168 357.68 444.886 357.58 444.563C357.48 444.241 357.488 443.894 357.602 443.576C357.716 443.258 357.931 442.985 358.213 442.799L374.803 431.751L379.751 429.979C384.864 428.145 390.456 428.145 395.569 429.979L400.543 432.123Z" fill="#6E5E4D"/>
<path d="M420.28 568.425C423.286 563.154 420.28 550.794 420.058 545.496L418.702 513.954L414.534 445.803C414.482 444.59 413.963 443.444 413.086 442.604C412.209 441.764 411.041 441.294 409.826 441.293H368.853C367.369 441.293 365.941 441.86 364.861 442.878C363.781 443.896 363.132 445.288 363.046 446.769L361.671 470.141C360.723 486.258 359.446 502.356 358.063 518.446C356.768 533.508 354.011 548.659 353.833 563.694C353.727 573.183 358.878 570.915 364.828 567.601C373.429 562.79 375.122 568.771 382.038 572.031C383.61 572.75 385.343 573.041 387.063 572.876C388.783 572.711 390.43 572.096 391.836 571.092C397.581 567.079 402.059 564.571 407.618 567.194C411.041 568.815 412.3 571.748 417.106 570.782C417.78 570.657 418.416 570.38 418.966 569.971C419.516 569.563 419.966 569.034 420.28 568.425V568.425Z" fill="#FF7642"/>
<path d="M387.704 428.632C387.939 428.632 388.165 428.539 388.331 428.373C388.497 428.207 388.591 427.981 388.591 427.746V418.133C388.543 417.942 388.432 417.772 388.276 417.65C388.12 417.529 387.928 417.463 387.731 417.463C387.533 417.463 387.341 417.529 387.185 417.65C387.029 417.772 386.919 417.942 386.871 418.133V427.773C386.877 427.994 386.966 428.205 387.12 428.364C387.275 428.523 387.483 428.619 387.704 428.632Z" fill="#6E5E4D"/>
<path d="M387.704 418.993C388.757 418.989 389.79 418.704 390.697 418.168C391.603 417.632 392.35 416.864 392.859 415.943C393.369 415.022 393.623 413.981 393.596 412.929C393.568 411.877 393.26 410.851 392.703 409.958C392.146 409.065 391.361 408.336 390.427 407.848C389.494 407.36 388.448 407.129 387.396 407.18C386.344 407.232 385.324 407.563 384.443 408.139C383.562 408.716 382.851 409.517 382.384 410.46C382.295 410.562 382.23 410.683 382.195 410.814C382.16 410.944 382.155 411.081 382.181 411.214C382.207 411.346 382.263 411.471 382.345 411.579C382.426 411.687 382.532 411.775 382.653 411.835C382.774 411.896 382.907 411.928 383.042 411.93C383.178 411.931 383.311 411.901 383.433 411.843C383.556 411.785 383.663 411.699 383.747 411.593C383.831 411.487 383.889 411.363 383.918 411.231C384.249 410.564 384.753 409.998 385.377 409.591C386.001 409.183 386.722 408.95 387.467 408.915C388.211 408.879 388.952 409.043 389.611 409.389C390.271 409.735 390.826 410.251 391.22 410.884C391.613 411.516 391.831 412.242 391.85 412.987C391.868 413.731 391.688 414.467 391.327 415.118C390.965 415.77 390.437 416.313 389.795 416.692C389.154 417.071 388.422 417.272 387.677 417.274C387.546 417.241 387.41 417.238 387.278 417.266C387.146 417.294 387.022 417.352 386.916 417.435C386.81 417.517 386.724 417.623 386.665 417.744C386.606 417.866 386.575 417.998 386.575 418.133C386.575 418.268 386.606 418.401 386.665 418.522C386.724 418.643 386.81 418.749 386.916 418.832C387.022 418.915 387.146 418.972 387.278 419C387.41 419.028 387.546 419.025 387.677 418.993H387.704Z" fill="#6E5E4D"/>
<path d="M403.682 465.676H404.542V564.695H403.682V465.676Z" fill="#FF633B"/>
<path d="M370.573 465.656L371.433 465.673L369.548 564.692L368.688 564.675L370.573 465.656Z" fill="#FF633B"/>
<path d="M382.739 495.035L383.599 495.048L382.442 572.015L381.582 572.002L382.739 495.035Z" fill="#FF633B"/>
<path d="M416.849 563.065C417.32 563.067 417.789 563.001 418.241 562.87C419.74 562.418 420.901 561.205 421.743 559.255C421.765 559.204 421.777 559.148 421.778 559.092C421.778 559.035 421.768 558.979 421.747 558.927C421.726 558.875 421.695 558.827 421.655 558.787C421.616 558.747 421.569 558.715 421.517 558.693C421.465 558.671 421.41 558.659 421.353 558.658C421.297 558.658 421.241 558.668 421.189 558.689C421.137 558.71 421.089 558.741 421.049 558.781C421.008 558.82 420.976 558.867 420.954 558.919C420.218 560.646 419.252 561.674 417.993 562.046C415.333 562.844 411.786 560.46 409.188 558.724C405.846 556.526 401.844 555.555 397.865 555.977C395.69 556.319 393.602 557.083 391.721 558.228C390.111 559.184 388.365 559.889 386.543 560.319C383.138 560.948 380.611 559.557 377.942 558.086C376.181 557.015 374.28 556.192 372.294 555.64C369.208 554.914 366.087 555.242 362.159 556.686C361.467 556.945 360.789 557.241 360.129 557.572C358.152 558.52 356.121 559.512 354.295 558.777C354.236 558.747 354.17 558.731 354.104 558.731C354.038 558.731 353.972 558.747 353.913 558.777C353.856 558.81 353.808 558.856 353.772 558.911C353.737 558.967 353.715 559.03 353.709 559.096L353.612 560.062C353.607 560.12 353.613 560.178 353.63 560.234C353.648 560.29 353.676 560.342 353.714 560.387C353.751 560.431 353.797 560.468 353.849 560.495C353.9 560.523 353.957 560.539 354.015 560.544C354.074 560.55 354.132 560.543 354.188 560.526C354.244 560.509 354.296 560.48 354.341 560.443C354.385 560.405 354.422 560.36 354.45 560.308C354.477 560.256 354.493 560.2 354.499 560.141L354.543 559.716C356.556 560.23 358.657 559.211 360.528 558.307C361.219 557.979 361.867 557.661 362.479 557.421C366.238 556.039 369.208 555.729 372.126 556.411C374.035 556.94 375.862 557.734 377.552 558.768C380.212 560.248 383.023 561.78 386.729 561.089C388.637 560.651 390.464 559.919 392.146 558.919C393.93 557.823 395.913 557.092 397.981 556.766C401.743 556.361 405.529 557.276 408.692 559.353C411.024 561.001 414.074 563.065 416.849 563.065Z" fill="white"/>
<path d="M267.197 541.456C269.671 543.641 272.53 545.348 275.629 546.488C279.797 547.861 279.274 545.372 280.258 549.961C281.517 555.844 280.258 563.402 280.258 569.453V603.662C280.258 609.784 285.888 613.257 291.545 612.663C294.338 612.371 296.865 610.891 299.472 609.589V590.726C301.963 589.477 304.482 588.44 307.31 588.901C311.282 589.548 314.465 593.331 318.482 593.127C321.603 592.959 324.104 590.389 327.047 589.45V608.251C327.464 608.121 327.891 608.026 328.324 607.968C330.603 607.684 332.828 608.614 334.894 609.616C336.96 610.617 339.053 611.724 341.34 611.822C345.658 611.999 348.035 607.445 348.035 603.608V546.417C348.035 547.631 369.182 541.447 370.201 534.243C370.742 530.549 367.958 523.895 367.204 520.156L360.111 485.319C356.966 469.778 353.813 454.235 350.65 438.688C349.654 436.019 347.865 433.717 345.523 432.092C343.18 430.468 340.397 429.597 337.545 429.598H290.508C287.525 429.597 284.62 430.55 282.219 432.319C279.818 434.087 278.046 436.577 277.163 439.424C272.73 453.688 271.985 470.195 269.511 484.884L263.713 519.332C263.065 523.204 260.955 528.865 261.487 532.764C261.948 535.821 264.289 538.922 267.197 541.456Z" fill="#A4B59D"/>
<path d="M344.212 447.808L348.44 546.161L347.581 546.198L343.353 447.845L344.212 447.808Z" fill="#8C9E85"/>
<path d="M286.31 447.822L287.168 447.879L280.683 546.224L279.825 546.168L286.31 447.822Z" fill="#8C9E85"/>
<path d="M299.472 429.563V590.531C301.963 589.282 304.481 588.245 307.31 588.706C311.282 589.344 314.465 593.136 318.482 592.923C321.603 592.755 324.103 590.186 327.047 589.246V429.563H299.472Z" fill="#A67B4C"/>
<path d="M299.472 429.563V590.531C301.963 589.282 304.481 588.245 307.31 588.706C311.282 589.344 314.465 593.136 318.482 592.923C321.603 592.755 324.103 590.186 327.047 589.246V429.563H299.472Z" fill="#8C9E85"/>
<path d="M326.506 431.228C326.674 431.225 326.837 431.173 326.977 431.081C327.116 430.988 327.227 430.858 327.295 430.706C327.377 430.496 327.376 430.263 327.292 430.053C327.208 429.844 327.048 429.675 326.843 429.58L321.798 427.427C316.293 425.452 310.271 425.452 304.765 427.427L299.72 429.199C299.553 429.309 299.428 429.471 299.365 429.66C299.302 429.849 299.305 430.053 299.372 430.241C299.44 430.428 299.569 430.587 299.738 430.693C299.907 430.798 300.107 430.843 300.305 430.821L305.35 429.049C310.464 427.219 316.055 427.219 321.169 429.049L326.169 431.184C326.277 431.224 326.392 431.239 326.506 431.228V431.228Z" fill="#6E5E4D"/>
<path d="M313.259 427.649C313.494 427.649 313.72 427.555 313.886 427.389C314.053 427.223 314.146 426.998 314.146 426.763V417.141C314.098 416.949 313.987 416.779 313.831 416.658C313.676 416.536 313.484 416.47 313.286 416.47C313.088 416.47 312.896 416.536 312.74 416.658C312.585 416.779 312.474 416.949 312.426 417.141V426.789C312.432 427.011 312.521 427.222 312.675 427.381C312.83 427.54 313.038 427.636 313.259 427.649Z" fill="#6E5E4D"/>
<path d="M313.26 418C314.311 417.995 315.341 417.709 316.245 417.173C317.149 416.637 317.893 415.869 318.4 414.949C318.908 414.03 319.161 412.991 319.133 411.941C319.104 410.891 318.796 409.868 318.24 408.977C317.684 408.086 316.9 407.359 315.968 406.872C315.037 406.385 313.993 406.155 312.943 406.206C311.893 406.257 310.876 406.587 309.996 407.162C309.117 407.737 308.407 408.536 307.94 409.477C307.853 409.58 307.79 409.701 307.757 409.831C307.724 409.962 307.721 410.098 307.748 410.23C307.775 410.361 307.832 410.485 307.915 410.592C307.997 410.698 308.103 410.784 308.223 410.844C308.344 410.903 308.477 410.935 308.611 410.936C308.746 410.936 308.879 410.906 309.001 410.848C309.122 410.79 309.228 410.705 309.312 410.599C309.395 410.494 309.454 410.37 309.482 410.239C309.814 409.572 310.318 409.005 310.943 408.598C311.567 408.191 312.289 407.957 313.034 407.922C313.778 407.887 314.519 408.052 315.179 408.399C315.839 408.745 316.394 409.262 316.787 409.895C317.18 410.528 317.397 411.255 317.414 412C317.432 412.745 317.25 413.481 316.888 414.132C316.526 414.783 315.996 415.326 315.353 415.704C314.711 416.081 313.979 416.281 313.233 416.281C313.102 416.249 312.966 416.246 312.834 416.274C312.702 416.302 312.578 416.36 312.472 416.442C312.366 416.525 312.28 416.631 312.221 416.752C312.162 416.873 312.131 417.006 312.131 417.141C312.131 417.276 312.162 417.408 312.221 417.53C312.28 417.651 312.366 417.757 312.472 417.839C312.578 417.922 312.702 417.98 312.834 418.008C312.966 418.036 313.102 418.033 313.233 418H313.26Z" fill="#6E5E4D"/>
<path d="M190.89 499.459H208.269V537.849C208.267 540.23 209.209 542.514 210.889 544.202C212.57 545.889 214.851 546.842 217.233 546.851H267.029C268.212 546.852 269.385 546.62 270.479 546.169C271.573 545.717 272.567 545.054 273.404 544.218C274.242 543.382 274.906 542.389 275.359 541.296C275.813 540.204 276.046 539.032 276.046 537.849V499.459H296.767C297.273 499.457 297.77 499.334 298.218 499.099C298.665 498.864 299.05 498.525 299.339 498.111C299.627 497.696 299.812 497.218 299.877 496.717C299.942 496.216 299.885 495.707 299.711 495.233L278.706 438.768C277.71 436.098 275.92 433.797 273.578 432.172C271.236 430.547 268.452 429.677 265.601 429.678H218.563C215.588 429.686 212.693 430.644 210.301 432.411C207.909 434.179 206.144 436.664 205.263 439.503L187.938 495.401C187.793 495.867 187.759 496.359 187.838 496.84C187.917 497.321 188.108 497.777 188.395 498.171C188.681 498.565 189.056 498.887 189.49 499.111C189.923 499.334 190.403 499.454 190.89 499.459V499.459Z" fill="#C49A6C"/>
<path d="M272.112 448.12L276.442 499.432L275.585 499.504L271.255 448.192L272.112 448.12Z" fill="#A67B4C"/>
<path d="M214.33 448.103L215.184 448.211L208.696 499.528L207.843 499.42L214.33 448.103Z" fill="#A67B4C"/>
<path d="M225.125 430.847C224.996 433.134 225.336 435.423 226.123 437.574C226.91 439.725 228.128 441.693 229.702 443.357C231.277 445.022 233.175 446.347 235.28 447.253C237.385 448.16 239.653 448.627 241.945 448.627C244.237 448.627 246.505 448.16 248.61 447.253C250.715 446.347 252.613 445.022 254.187 443.357C255.762 441.693 256.98 439.725 257.767 437.574C258.554 435.423 258.894 433.134 258.765 430.847C258.765 430.457 258.765 430.059 258.712 429.678H225.169C225.134 430.059 225.125 430.457 225.125 430.847Z" fill="#A67B4C"/>
<path d="M232.866 523.824C247.55 523.829 262.149 521.585 276.153 517.17C276.26 517.134 276.349 517.057 276.4 516.956C276.451 516.855 276.461 516.738 276.428 516.63C276.393 516.523 276.318 516.435 276.218 516.383C276.118 516.332 276.003 516.322 275.896 516.355C254.176 523.191 231.138 524.749 208.695 520.9C208.64 520.89 208.583 520.891 208.528 520.903C208.473 520.915 208.421 520.937 208.375 520.97C208.328 521.002 208.289 521.043 208.259 521.09C208.229 521.137 208.208 521.19 208.199 521.246C208.187 521.301 208.187 521.358 208.198 521.414C208.21 521.469 208.232 521.522 208.265 521.568C208.297 521.615 208.338 521.654 208.387 521.684C208.435 521.714 208.488 521.734 208.544 521.742C216.577 523.13 224.714 523.827 232.866 523.824V523.824Z" fill="white"/>
<path d="M235.907 531.054C249.863 531.083 263.679 528.264 276.507 522.77C276.61 522.721 276.69 522.636 276.731 522.53C276.772 522.425 276.771 522.308 276.729 522.203C276.682 522.099 276.597 522.017 276.49 521.976C276.384 521.934 276.266 521.936 276.161 521.981C254.75 531.131 230.851 532.694 208.429 526.411C208.319 526.379 208.202 526.392 208.102 526.447C208.002 526.502 207.929 526.594 207.897 526.704C207.865 526.813 207.878 526.93 207.933 527.03C207.988 527.13 208.08 527.203 208.189 527.235C217.206 529.788 226.535 531.073 235.907 531.054V531.054Z" fill="white"/>
<path d="M258.712 432.415C258.889 432.413 259.061 432.358 259.206 432.257C259.352 432.156 259.464 432.014 259.527 431.848C259.597 431.633 259.582 431.399 259.484 431.195C259.387 430.991 259.215 430.832 259.004 430.75L250.439 427.667C244.947 425.699 238.942 425.699 233.45 427.667L224.885 430.75C224.75 430.761 224.619 430.803 224.502 430.873C224.386 430.943 224.287 431.039 224.213 431.153C224.14 431.267 224.093 431.396 224.078 431.531C224.062 431.666 224.078 431.803 224.123 431.931C224.169 432.059 224.244 432.174 224.341 432.269C224.439 432.363 224.557 432.434 224.686 432.476C224.815 432.518 224.953 432.529 225.087 432.509C225.222 432.49 225.35 432.439 225.462 432.362L234.036 429.279C239.149 427.445 244.741 427.445 249.854 429.279L258.419 432.353C258.512 432.391 258.611 432.412 258.712 432.415Z" fill="#6E5E4D"/>
<path d="M241.945 427.906C242.18 427.906 242.406 427.812 242.572 427.646C242.738 427.48 242.832 427.255 242.832 427.02V417.407C242.783 417.215 242.673 417.045 242.517 416.924C242.361 416.802 242.169 416.736 241.971 416.736C241.774 416.736 241.582 416.802 241.426 416.924C241.27 417.045 241.159 417.215 241.111 417.407V427.046C241.118 427.268 241.207 427.479 241.361 427.638C241.515 427.797 241.724 427.893 241.945 427.906Z" fill="#6E5E4D"/>
<path d="M241.945 418.266C242.998 418.263 244.031 417.978 244.938 417.442C245.844 416.906 246.591 416.137 247.1 415.216C247.61 414.295 247.864 413.255 247.837 412.203C247.809 411.15 247.501 410.125 246.944 409.231C246.387 408.338 245.602 407.61 244.669 407.121C243.736 406.633 242.689 406.403 241.637 406.454C240.585 406.505 239.566 406.836 238.685 407.413C237.803 407.989 237.092 408.791 236.625 409.734C236.58 409.928 236.601 410.132 236.686 410.312C236.771 410.492 236.914 410.639 237.092 410.728C237.27 410.817 237.473 410.843 237.669 410.803C237.864 410.762 238.04 410.657 238.168 410.505C238.5 409.837 239.004 409.271 239.628 408.864C240.252 408.456 240.974 408.223 241.719 408.188C242.464 408.153 243.204 408.317 243.864 408.664C244.524 409.011 245.079 409.528 245.472 410.161C245.865 410.794 246.082 411.521 246.1 412.266C246.117 413.011 245.936 413.747 245.573 414.398C245.211 415.049 244.681 415.591 244.039 415.969C243.396 416.347 242.664 416.547 241.918 416.547C241.788 416.515 241.651 416.512 241.519 416.54C241.387 416.568 241.264 416.625 241.157 416.708C241.051 416.791 240.965 416.897 240.906 417.018C240.847 417.139 240.816 417.272 240.816 417.407C240.816 417.541 240.847 417.674 240.906 417.795C240.965 417.916 241.051 418.022 241.157 418.105C241.264 418.188 241.387 418.246 241.519 418.273C241.651 418.301 241.788 418.299 241.918 418.266H241.945Z" fill="#6E5E4D"/>
<path d="M222.225 671.875C206.443 671.875 193.648 659.09 193.648 643.319C193.648 627.548 206.443 614.763 222.225 614.763C238.008 614.763 250.803 627.548 250.803 643.319C250.803 659.09 238.008 671.875 222.225 671.875Z" fill="#A4B59D"/>
<path d="M273.874 674.311C261.558 674.311 251.574 664.335 251.574 652.028C251.574 639.722 261.558 629.745 273.874 629.745C286.189 629.745 296.173 639.722 296.173 652.028C296.173 664.335 286.189 674.311 273.874 674.311Z" fill="#905480"/>
<path d="M209.989 640.218H311.743V692.315H209.989V640.218Z" fill="#98464F"/>
<path d="M181.749 640.218H283.503V692.315H181.749V640.218Z" fill="#AB4F59"/>
<path d="M283.503 640.218L268.979 652.028H169.619L181.749 640.218H283.503Z" fill="#98464F"/>
<path d="M311.743 640.218L323.288 652.197H291.394L283.503 640.218H311.743Z" fill="#AB4F59"/>
<path d="M464.667 692.315H486.55L476.247 619.486H456.749L464.667 692.315Z" fill="#8C9E85"/>
<path d="M443.458 640.378C453.211 640.378 461.191 631.004 461.191 619.486C461.191 607.968 453.211 598.594 443.458 598.594C433.704 598.594 425.724 607.959 425.724 619.486C425.724 631.012 433.678 640.378 443.458 640.378ZM443.458 599.453C452.759 599.453 460.304 608.437 460.304 619.486C460.304 630.534 452.732 639.518 443.458 639.518C434.183 639.518 426.611 630.534 426.611 619.486C426.611 608.437 434.156 599.453 443.458 599.453Z" fill="#8C9E85"/>
<path d="M452.981 640.378C462.734 640.378 470.714 631.004 470.714 619.486C470.714 607.968 462.734 598.594 452.981 598.594C443.227 598.594 435.247 607.959 435.247 619.486C435.247 631.012 443.209 640.378 452.981 640.378ZM452.981 599.453C462.291 599.453 469.827 608.437 469.827 619.486C469.827 630.534 462.255 639.518 452.981 639.518C443.706 639.518 436.134 630.534 436.134 619.486C436.134 608.437 443.679 599.453 452.981 599.453Z" fill="#8C9E85"/>
<path d="M417.203 619.486H462.787L464.667 692.315H407.787L417.203 619.486Z" fill="#A4B59D"/>
<path d="M410.181 668.499C416.426 668.503 422.597 667.144 428.262 664.517C433.928 661.89 438.951 658.058 442.98 653.29C447.01 648.522 449.948 642.932 451.591 636.911C453.235 630.89 453.542 624.583 452.493 618.431C452.474 618.314 452.409 618.209 452.313 618.139C452.216 618.069 452.096 618.04 451.978 618.059C451.861 618.078 451.755 618.143 451.686 618.239C451.616 618.335 451.587 618.455 451.606 618.573C452.641 624.633 452.331 630.846 450.7 636.774C449.068 642.701 446.154 648.198 442.164 652.877C438.173 657.556 433.203 661.303 427.605 663.852C422.006 666.401 415.916 667.691 409.764 667.631V667.631C409.65 667.631 409.541 667.675 409.46 667.755C409.379 667.834 409.332 667.942 409.33 668.056C409.328 668.113 409.339 668.169 409.359 668.222C409.38 668.274 409.411 668.322 409.451 668.363C409.491 668.403 409.538 668.435 409.59 668.457C409.642 668.479 409.699 668.49 409.755 668.49L410.181 668.499Z" fill="white"/>
<path d="M378.092 648.688H433.651C440.272 648.688 445.639 654.051 445.639 660.667V680.336C445.639 686.952 440.272 692.315 433.651 692.315H378.092C371.472 692.315 366.105 686.952 366.105 680.336V660.667C366.105 654.051 371.472 648.688 378.092 648.688Z" fill="#7D406D"/>
<path d="M398.344 670.927C408.097 670.927 416.077 661.553 416.077 650.035C416.077 638.517 408.097 629.143 398.344 629.143C388.59 629.143 380.61 638.517 380.61 650.035C380.61 661.553 388.564 670.927 398.344 670.927ZM398.344 630.002C407.654 630.002 415.19 638.986 415.19 650.035C415.19 661.083 407.627 670.067 398.344 670.067C389.06 670.067 381.497 661.083 381.497 650.035C381.497 638.986 389.043 630.002 398.344 630.002Z" fill="#7D406D"/>
<path d="M368.685 648.688H424.244C430.864 648.688 436.231 654.051 436.231 660.667V680.336C436.231 686.952 430.864 692.315 424.244 692.315H368.685C362.065 692.315 356.697 686.952 356.697 680.336V660.667C356.697 654.051 362.065 648.688 368.685 648.688Z" fill="#905480"/>
<path d="M356.697 670.067H436.231V670.927H356.697V670.067Z" fill="#7D406D"/>
<path d="M393.751 668.092H399.169C399.502 668.092 399.832 668.026 400.139 667.899C400.447 667.771 400.726 667.585 400.962 667.349C401.197 667.114 401.384 666.835 401.512 666.527C401.639 666.22 401.705 665.89 401.705 665.558V665.558C401.705 665.225 401.639 664.895 401.512 664.588C401.384 664.28 401.197 664.001 400.962 663.766C400.726 663.531 400.447 663.344 400.139 663.217C399.832 663.089 399.502 663.024 399.169 663.024H393.751C393.079 663.024 392.434 663.291 391.958 663.766C391.483 664.241 391.215 664.886 391.215 665.558V665.558C391.215 666.23 391.483 666.874 391.958 667.349C392.434 667.825 393.079 668.092 393.751 668.092V668.092Z" fill="white"/>
<path d="M551.666 417.345L558.361 412.099C558.361 412.099 559.895 421.208 551.782 423.511L551.666 417.345Z" fill="#F5AB84"/>
<path d="M91.2469 658.443C95.3318 655.489 98.379 651.322 99.9539 646.535C100.628 644.48 100.841 641.848 99.1648 640.502C97.7462 639.376 95.5561 639.775 94.1551 640.909C92.8336 642.158 91.8094 643.687 91.1582 645.383C92.9916 642.515 94.0622 639.227 94.2686 635.83C94.4749 632.433 93.8103 629.04 92.3375 625.971C91.4508 624.199 90.0144 622.365 88.0283 622.268C85.5634 622.144 83.8343 624.695 83.1161 627.052C82.3979 629.409 82.061 632.085 80.2433 633.759C80.8108 630.029 81.3428 626.069 79.8532 622.595C78.3636 619.122 74.0367 616.588 70.7117 618.378C67.9807 619.849 67.165 623.402 67.2714 626.503C67.3778 629.604 68.096 632.776 67.2714 635.761C66.8281 632.74 66.3138 629.559 64.3277 627.212C62.3415 624.864 58.3693 623.995 56.2679 626.219C55.2666 627.477 54.731 629.042 54.7517 630.649C54.4661 635.29 55.6044 639.908 58.0146 643.886C57.0291 642.365 55.7328 641.07 54.2108 640.085C52.6326 639.199 50.4602 639.146 49.1657 640.404C47.7027 641.831 47.9332 644.232 48.4564 646.207C49.8861 651.586 52.6279 656.527 56.4364 660.587L91.2469 658.443Z" fill="#8C9E85"/>
<path d="M98.1541 692.35L103.917 654.97H47.1974L52.0032 693.608L98.1541 692.35Z" fill="#FF7642"/>
<path d="M48.3766 663.281H103.439C103.495 663.282 103.551 663.272 103.604 663.251C103.657 663.23 103.705 663.199 103.745 663.159C103.786 663.12 103.818 663.072 103.84 663.02C103.862 662.968 103.873 662.912 103.873 662.855C103.873 662.74 103.827 662.63 103.746 662.548C103.664 662.467 103.554 662.421 103.439 662.421H48.3766C48.2613 662.421 48.1508 662.467 48.0693 662.548C47.9878 662.63 47.9421 662.74 47.9421 662.855C47.9421 662.912 47.9534 662.968 47.9753 663.02C47.9973 663.072 48.0294 663.12 48.0699 663.159C48.1103 663.199 48.1583 663.23 48.211 663.251C48.2636 663.272 48.3199 663.282 48.3766 663.281Z" fill="white"/>
<path d="M50.2918 683.216H99.3068C99.3634 683.217 99.4197 683.207 99.4724 683.186C99.525 683.165 99.573 683.134 99.6134 683.094C99.6539 683.055 99.686 683.007 99.708 682.955C99.7299 682.903 99.7412 682.847 99.7412 682.79C99.7412 682.733 99.73 682.677 99.7081 682.624C99.6863 682.572 99.6543 682.524 99.614 682.483C99.5736 682.443 99.5257 682.411 99.473 682.389C99.4203 682.367 99.3638 682.356 99.3068 682.356H50.2475C50.1338 682.359 50.0255 682.405 49.946 682.486C49.8664 682.568 49.8219 682.677 49.8219 682.79C49.8216 682.85 49.8338 682.909 49.8579 682.964C49.882 683.019 49.9174 683.068 49.9618 683.108C50.0061 683.148 50.0584 683.178 50.1153 683.197C50.1722 683.215 50.2323 683.222 50.2918 683.216V683.216Z" fill="white"/>
<path d="M181.306 679.858H221.729C221.841 679.858 221.949 679.814 222.03 679.737C222.111 679.659 222.159 679.553 222.164 679.441L222.651 665.513C222.654 665.455 222.646 665.397 222.626 665.342C222.606 665.287 222.576 665.237 222.536 665.194C222.453 665.114 222.341 665.07 222.226 665.07H181.838C181.781 665.069 181.725 665.079 181.672 665.1C181.62 665.121 181.572 665.152 181.531 665.192C181.491 665.231 181.459 665.279 181.437 665.331C181.415 665.383 181.403 665.439 181.404 665.496C181.404 665.611 181.449 665.721 181.531 665.803C181.612 665.884 181.723 665.93 181.838 665.93H221.738L221.268 678.998H181.262C181.205 678.997 181.149 679.007 181.097 679.028C181.045 679.049 180.998 679.08 180.958 679.12C180.918 679.16 180.887 679.207 180.866 679.259C180.845 679.311 180.835 679.367 180.836 679.423C180.834 679.484 180.846 679.544 180.869 679.6C180.893 679.656 180.928 679.706 180.973 679.747C181.017 679.788 181.07 679.819 181.127 679.838C181.185 679.857 181.246 679.864 181.306 679.858Z" fill="white"/>
<path d="M532 521.175C549.647 521.17 567.222 518.946 584.313 514.557C584.41 514.517 584.489 514.443 584.536 514.35C584.583 514.256 584.594 514.149 584.569 514.048C584.543 513.947 584.481 513.858 584.395 513.799C584.309 513.739 584.205 513.712 584.101 513.724C566.515 518.236 548.418 520.448 530.262 520.307V520.307C530.145 520.307 530.032 520.353 529.949 520.436C529.866 520.52 529.819 520.632 529.819 520.75C529.819 520.867 529.866 520.98 529.949 521.063C530.032 521.146 530.145 521.193 530.262 521.193L532 521.175Z" fill="white"/>
<path d="M506.828 503.987C506.928 503.985 507.024 503.951 507.103 503.889C507.189 503.814 507.242 503.708 507.252 503.594C507.262 503.48 507.228 503.367 507.156 503.278L499.947 494.63C499.873 494.545 499.769 494.492 499.656 494.482C499.544 494.472 499.432 494.506 499.344 494.577C499.301 494.613 499.265 494.657 499.239 494.707C499.213 494.757 499.197 494.811 499.192 494.867C499.187 494.923 499.193 494.98 499.21 495.034C499.227 495.087 499.255 495.137 499.291 495.18L506.491 503.827C506.532 503.877 506.583 503.917 506.641 503.945C506.699 503.972 506.763 503.987 506.828 503.987V503.987Z" fill="white"/>
<path d="M476.477 432.991C476.556 432.993 476.633 432.971 476.699 432.929L488.323 425.841C488.408 425.776 488.465 425.681 488.484 425.576C488.503 425.471 488.483 425.362 488.427 425.271C488.371 425.18 488.283 425.113 488.181 425.082C488.078 425.052 487.968 425.06 487.871 425.106L476.256 432.194C476.176 432.242 476.115 432.315 476.081 432.401C476.047 432.488 476.042 432.583 476.067 432.672C476.092 432.762 476.146 432.84 476.22 432.896C476.294 432.952 476.384 432.983 476.477 432.983V432.991Z" fill="white"/>
<path d="M556.552 438.21C557.118 438.209 557.682 438.153 558.237 438.042C564.931 436.739 570.863 430.954 573 423.529C573.015 423.475 573.02 423.418 573.014 423.362C573.008 423.306 572.991 423.252 572.963 423.203C572.936 423.153 572.9 423.11 572.856 423.074C572.812 423.039 572.761 423.013 572.707 422.997C572.653 422.982 572.596 422.977 572.54 422.983C572.484 422.989 572.43 423.006 572.38 423.033C572.331 423.061 572.287 423.097 572.252 423.141C572.217 423.185 572.191 423.236 572.175 423.29C570.127 430.378 564.461 435.96 558.077 437.2C554.442 437.9 551.711 436.154 550.984 432.646C550.354 429.731 551.037 426.984 551.764 424.069L551.977 423.183C552.001 423.072 551.982 422.955 551.922 422.858C551.863 422.761 551.768 422.69 551.658 422.661C551.547 422.637 551.432 422.656 551.336 422.716C551.24 422.775 551.171 422.87 551.143 422.98L550.93 423.866C550.212 426.736 549.467 429.713 550.141 432.832C550.375 434.353 551.155 435.737 552.334 436.726C553.513 437.716 555.012 438.243 556.552 438.21V438.21Z" fill="white"/>
<path d="M545.07 664.069H545.203C549.897 662.553 554.744 661.555 559.655 661.092C559.714 661.087 559.77 661.07 559.822 661.043C559.874 661.016 559.92 660.979 559.957 660.934C559.995 660.889 560.023 660.838 560.04 660.782C560.058 660.726 560.064 660.667 560.059 660.609C560.054 660.551 560.037 660.494 560.01 660.443C559.983 660.391 559.946 660.345 559.901 660.308C559.856 660.27 559.804 660.242 559.748 660.225C559.692 660.207 559.634 660.201 559.576 660.206C554.601 660.679 549.692 661.692 544.937 663.227C544.829 663.264 544.741 663.341 544.689 663.442C544.638 663.543 544.628 663.66 544.662 663.768C544.69 663.854 544.744 663.93 544.817 663.984C544.89 664.038 544.979 664.068 545.07 664.069Z" fill="white"/>
<path d="M574.941 645.206C575.046 645.208 575.147 645.17 575.225 645.1C578.682 642.039 581.669 638.486 584.092 634.556C584.137 634.46 584.146 634.35 584.115 634.247C584.085 634.145 584.017 634.057 583.926 634.001C583.835 633.945 583.726 633.925 583.621 633.944C583.516 633.963 583.421 634.02 583.356 634.105C580.971 637.961 578.035 641.447 574.64 644.453C574.559 644.534 574.514 644.644 574.514 644.759C574.514 644.873 574.559 644.983 574.64 645.064C574.678 645.107 574.724 645.142 574.776 645.166C574.828 645.19 574.884 645.204 574.941 645.206V645.206Z" fill="white"/>
</svg>
