<svg width="806" height="980" viewBox="0 0 806 980" fill="none" xmlns="http://www.w3.org/2000/svg">
<path d="M575.351 714.691C622.18 639.974 639.773 441.711 565.811 452.536C565.811 271.638 429.222 244.71 367.898 293.846C320.623 235.734 240.912 249.448 203.517 294.078C138.888 273.882 76.8791 317.842 53.7283 408.194C31.2257 495.991 43.1196 646.821 116.912 713.583C391.012 713.583 575.351 714.691 575.351 714.691Z" fill="#D1EDFF"/>
<path opacity="0.47" d="M144.615 401.33C144.131 399.121 142.91 397.142 141.152 395.718C139.395 394.293 137.205 393.509 134.943 393.493C134.097 393.492 133.255 393.602 132.437 393.819C131.286 391.271 129.427 389.107 127.081 387.585C124.736 386.063 122.002 385.248 119.205 385.235C117.73 385.234 116.265 385.46 114.859 385.906C113.282 383.211 111.029 380.976 108.322 379.42C105.615 377.863 102.549 377.041 99.4269 377.033C91.6436 377.033 85.0134 382.066 82.4994 389.112C80.6701 388.07 78.6005 387.522 76.495 387.524C69.6713 387.524 64.1494 393.159 64.1494 400.11C64.1494 400.522 64.1691 400.928 64.2083 401.33H144.615Z" fill="#F0FBFF"/>
<path opacity="0.47" d="M302.618 500.661C303.253 498.084 304.738 495.797 306.834 494.168C308.929 492.54 311.513 491.665 314.167 491.685C315.176 491.684 316.18 491.809 317.158 492.058C318.594 489.095 320.839 486.598 323.635 484.856C326.43 483.115 329.661 482.199 332.955 482.215C334.713 482.213 336.463 482.472 338.145 482.984C340.092 479.858 342.805 477.282 346.028 475.501C349.252 473.72 352.877 472.792 356.56 472.807C365.853 472.807 373.771 478.58 376.762 486.661C378.961 485.462 381.428 484.836 383.933 484.841C392.07 484.841 398.684 491.292 398.684 499.272C398.684 499.746 398.658 500.212 398.613 500.675L302.618 500.661Z" fill="#F0FBFF"/>
<path opacity="0.47" d="M615.09 569.569C613.196 568.123 610.903 567.294 608.522 567.194C606.141 567.093 603.786 567.726 601.777 569.008C599.162 560.929 592.262 555.156 584.162 555.156C577.355 555.156 571.395 559.235 568.115 565.333C566.661 564.824 565.131 564.564 563.59 564.564C557.498 564.564 552.243 568.592 549.821 574.404C548.975 574.158 548.097 574.032 547.215 574.031C542.307 574.031 538.205 577.874 537.15 583.007H613.945C614.406 578.506 614.787 574.027 615.09 569.569Z" fill="#F0FBFF"/>
<path opacity="0.47" d="M87.7432 573.74C88.7981 568.592 92.9031 564.764 97.8076 564.764C98.6897 564.764 99.5673 564.89 100.414 565.137C102.836 559.325 108.091 555.297 114.185 555.297C115.725 555.296 117.255 555.556 118.708 556.065C121.988 549.967 127.948 545.889 134.755 545.889C142.855 545.889 149.754 551.661 152.369 559.74C154.239 558.556 156.405 557.924 158.618 557.919C165.72 557.919 171.474 564.371 171.474 572.354C171.474 572.825 171.455 573.294 171.412 573.756L87.7432 573.74Z" fill="#F0FBFF"/>
<path opacity="0.47" d="M480.521 328.664C480.04 326.451 478.821 324.468 477.063 323.041C475.305 321.613 473.114 320.827 470.849 320.81C470.004 320.81 469.163 320.92 468.346 321.138C467.195 318.59 465.336 316.426 462.989 314.904C460.643 313.382 457.908 312.567 455.111 312.555C453.637 312.554 452.171 312.78 450.765 313.225C449.189 310.531 446.935 308.295 444.229 306.738C441.522 305.182 438.455 304.36 435.333 304.353C427.547 304.353 420.917 309.385 418.406 316.431C416.575 315.39 414.505 314.842 412.398 314.844C405.577 314.844 400.053 320.479 400.053 327.43C400.053 327.841 400.072 328.248 400.112 328.65L480.521 328.664Z" fill="#F0FBFF"/>
<path d="M569.074 714.691C569.074 714.691 490.456 640.659 440.958 629.301C391.461 617.944 438.113 663.045 438.113 663.045C438.113 663.045 360.546 596.471 327.615 600.188C291.543 604.241 309.377 640.748 309.377 640.748C309.377 640.748 284.896 614.813 245.062 619.282C198.808 624.471 289.935 713.042 289.935 713.042L569.074 714.691Z" fill="#A1C2F5"/>
<path d="M336.007 712.834C336.007 712.834 290.606 649.458 244.439 646.726C201.106 644.159 227.722 685.715 224.967 683.547C222.212 681.379 185.242 639.91 149.999 651.239C109.769 664.176 170.762 692.652 170.762 692.652C170.762 692.652 87.1484 672.204 80.6024 693.676C75.1703 711.499 105.557 712.831 105.557 712.831L336.007 712.834Z" fill="#B6D2FB"/>
<path d="M563.968 633.901C571.986 659.411 575.545 686.112 574.49 712.831H575.494C576.433 686.321 572.86 659.843 564.927 634.53C563.084 628.664 561.235 621.798 555.811 618.235C555.705 618.165 555.615 618.331 555.713 618.401C560.601 621.935 562.242 628.415 563.968 633.901Z" fill="#466EB6"/>
<path d="M570.954 712.831C560.925 686.862 547.196 662.478 530.191 640.434C530.015 640.207 529.613 640.515 529.79 640.745C546.476 662.743 559.919 687.02 569.708 712.834L570.954 712.831Z" fill="#466EB6"/>
<path d="M566.271 620.188C565.78 620.614 564.069 621.613 563.185 623.298C562.203 624.852 562.063 627.094 562.124 627.032C562.214 627.102 560.929 625.234 561.002 622.824C560.907 620.479 562.172 617.607 563.272 616.839C565.312 614.982 567.896 615.436 568.095 616.659C568.294 617.882 567.296 619.189 566.271 620.188Z" fill="#466EB6"/>
<path d="M557.886 638.552C558.494 638.325 560.186 637.295 562.069 637.34C563.893 637.222 565.905 638.182 565.821 638.204C565.837 638.316 564.838 636.28 562.734 635.192C560.748 633.974 557.644 633.705 556.446 634.308C553.851 635.214 552.998 637.716 553.96 638.485C554.923 639.253 556.525 638.976 557.886 638.552Z" fill="#466EB6"/>
<path d="M560.585 648.327C561.191 648.1 562.883 647.071 564.765 647.113C566.589 646.998 568.604 647.954 568.517 647.98C568.536 648.092 567.535 646.053 565.43 644.967C563.444 643.747 560.341 643.48 559.142 644.081C556.547 644.987 555.694 647.492 556.656 648.257C557.619 649.023 559.224 648.751 560.585 648.327Z" fill="#466EB6"/>
<path d="M537.771 663.132C538.379 662.902 540.071 661.873 541.954 661.918C543.778 661.8 545.79 662.759 545.705 662.782C545.722 662.894 544.723 660.857 542.605 659.769C540.618 658.552 537.515 658.282 536.317 658.885C533.722 659.791 532.869 662.293 533.831 663.062C534.794 663.831 536.41 663.553 537.771 663.132Z" fill="#466EB6"/>
<path d="M530.896 652.689C531.505 652.462 533.196 651.433 535.079 651.477C536.903 651.36 538.915 652.319 538.831 652.341C538.847 652.454 537.849 650.417 535.73 649.329C533.744 648.111 530.64 647.842 529.442 648.445C526.847 649.351 525.994 651.853 526.956 652.622C527.919 653.39 529.535 653.113 530.896 652.689Z" fill="#466EB6"/>
<path d="M570.646 631.604C570.085 631.949 568.25 632.664 567.125 634.187C565.913 635.568 565.419 637.758 565.492 637.705C565.57 637.789 564.594 635.741 565.046 633.388C565.326 631.057 567.01 628.42 568.222 627.837C570.528 626.328 572.992 627.189 573.014 628.426C573.037 629.663 571.824 630.782 570.646 631.604Z" fill="#466EB6"/>
<path d="M575.365 643.141C574.666 643.301 572.374 643.318 570.876 644.639C569.279 645.761 568.471 648.159 568.566 648.131C568.653 648.268 567.674 645.351 568.449 642.723C569.01 640.036 571.302 637.64 572.812 637.489C575.738 636.726 578.642 638.891 578.53 640.395C578.418 641.898 576.852 642.684 575.365 643.141Z" fill="#466EB6"/>
<path d="M579.162 659.702C578.446 659.741 576.182 659.368 574.482 660.417C572.722 661.236 571.527 663.477 571.625 663.466C571.687 663.617 571.207 660.574 572.408 658.114C573.398 655.562 576.07 653.59 577.582 653.696C580.593 653.441 583.093 656.078 582.733 657.533C582.374 658.989 580.702 659.503 579.162 659.702Z" fill="#466EB6"/>
<path d="M553.868 663.676C553.306 663.847 551.446 663.99 550.299 665.155C549.061 666.145 548.542 668.153 548.615 668.128C548.691 668.232 547.731 665.917 548.211 663.732C548.509 661.516 550.248 659.435 551.469 659.225C553.803 658.437 556.289 660.038 556.283 661.261C556.278 662.484 555.046 663.219 553.868 663.676Z" fill="#466EB6"/>
<path d="M552.793 620.176C553.144 620.016 554.098 619.335 555.214 619.273C555.98 619.198 556.752 619.317 557.459 619.618C556.959 618.908 556.282 618.341 555.495 617.974C554.266 617.341 552.409 617.321 551.735 617.728C550.24 618.378 549.844 619.899 550.447 620.308C551.051 620.718 552.007 620.488 552.793 620.176Z" fill="#466EB6"/>
<path d="M557.17 614.774C557.058 615.144 556.513 616.193 556.609 617.315C556.632 618.095 556.851 618.856 557.246 619.529C556.479 619.12 555.832 618.517 555.371 617.781C554.586 616.637 554.322 614.791 554.631 614.053C555.074 612.471 556.511 611.874 556.996 612.423C557.481 612.973 557.372 613.933 557.17 614.774Z" fill="#466EB6"/>
<path d="M526.58 642.782C526.928 642.622 527.885 641.94 529.002 641.882C529.767 641.805 530.54 641.924 531.247 642.227C530.748 641.515 530.07 640.947 529.282 640.58C528.056 639.949 526.196 639.926 525.525 640.336C524.03 640.987 523.632 642.504 524.235 642.917C524.838 643.329 525.809 643.105 526.58 642.782Z" fill="#466EB6"/>
<path d="M531.538 637.466C531.395 637.828 530.77 638.827 530.767 639.954C530.732 640.729 530.889 641.5 531.224 642.198C530.494 641.727 529.899 641.073 529.499 640.302C528.808 639.096 528.693 637.234 529.064 636.524C529.625 634.984 531.112 634.507 531.55 635.093C531.987 635.68 531.805 636.653 531.538 637.466Z" fill="#466EB6"/>
<path d="M501.16 677.842C509.337 685.738 516.466 694.686 521.794 704.638C523.293 707.443 524.558 710.307 525.86 713.185C526.034 713.569 526.702 713.297 526.559 712.904L526.124 711.718C526.037 711.488 525.605 711.499 525.644 711.782C525.7 712.189 525.753 712.596 525.81 713.002L526.559 712.904C524.533 707.698 521.719 702.685 518.702 697.976C509.628 683.858 500.235 676.938 501.169 677.844L501.16 677.842Z" fill="#466EB6"/>
<path d="M511.309 682.125C511.065 682.405 510.186 683.065 509.83 684.041C509.55 684.702 509.446 685.425 509.527 686.139C509.021 685.51 508.692 684.758 508.573 683.959C508.334 682.703 508.82 681.053 509.375 680.554C510.374 679.396 511.856 679.432 512.063 680.086C512.271 680.739 511.802 681.508 511.309 682.125Z" fill="#466EB6"/>
<path d="M505.756 676.347C505.515 676.627 504.634 677.286 504.277 678.262C503.997 678.924 503.893 679.647 503.974 680.361C503.469 679.732 503.14 678.981 503.02 678.184C502.782 676.924 503.267 675.275 503.823 674.776C504.822 673.617 506.303 673.654 506.513 674.31C506.724 674.967 506.253 675.729 505.756 676.347Z" fill="#466EB6"/>
<path d="M499.754 681.39C500.068 681.205 500.902 680.478 501.951 680.307C502.672 680.156 503.419 680.182 504.128 680.383C503.571 679.784 502.869 679.338 502.089 679.09C500.857 678.644 499.103 678.809 498.5 679.267C497.153 680.018 496.943 681.446 497.557 681.757C498.172 682.069 499.044 681.755 499.754 681.39Z" fill="#466EB6"/>
<path d="M505.644 687.659C505.958 687.474 506.791 686.747 507.844 686.576C508.564 686.425 509.31 686.451 510.018 686.652C509.462 686.052 508.761 685.607 507.981 685.359C506.747 684.913 504.993 685.078 504.393 685.536C503.043 686.29 502.832 687.718 503.45 688.029C504.067 688.341 504.934 688.027 505.644 687.659Z" fill="#466EB6"/>
<path d="M509.954 693.014C510.268 692.832 511.101 692.105 512.151 691.934C512.872 691.779 513.619 691.805 514.328 692.01C513.77 691.411 513.068 690.965 512.288 690.717C511.056 690.268 509.303 690.436 508.699 690.89C507.353 691.645 507.139 693.073 507.757 693.384C508.374 693.695 509.255 693.381 509.954 693.014Z" fill="#466EB6"/>
<path d="M513.539 698.363C513.854 698.178 514.684 697.451 515.736 697.28C516.457 697.127 517.205 697.153 517.914 697.356C517.356 696.757 516.653 696.312 515.874 696.063C514.642 695.617 512.888 695.782 512.285 696.24C510.936 696.991 510.725 698.419 511.342 698.73C511.96 699.042 512.827 698.736 513.539 698.363Z" fill="#466EB6"/>
<path d="M515.904 687.985C515.663 688.265 514.782 688.924 514.426 689.9C514.146 690.562 514.041 691.285 514.123 691.999C513.618 691.369 513.289 690.617 513.169 689.819C512.93 688.562 513.416 686.913 513.971 686.414C514.97 685.255 516.452 685.292 516.662 685.945C516.872 686.599 516.401 687.356 515.904 687.985Z" fill="#466EB6"/>
<path d="M519.981 693.858C519.74 694.139 518.859 694.798 518.503 695.774C518.223 696.435 518.118 697.156 518.2 697.869C517.695 697.241 517.365 696.49 517.246 695.693C517.007 694.433 517.493 692.787 518.048 692.287C519.047 691.126 520.529 691.165 520.739 691.819C520.95 692.472 520.478 693.241 519.981 693.858Z" fill="#466EB6"/>
<path d="M504.631 704.425C505.351 704.923 506.029 705.478 506.66 706.085C508.318 707.752 509.55 709.794 510.251 712.037C510.299 712.189 510.316 712.318 510.459 712.413C510.477 712.423 510.497 712.426 510.517 712.421C510.537 712.417 510.554 712.405 510.566 712.388C510.652 712.228 510.566 712.082 510.529 711.917C510.058 710.425 509.336 709.025 508.394 707.777C506.573 705.317 505.223 704.747 504.64 704.411C504.64 704.411 504.62 704.411 504.64 704.411L504.631 704.425Z" fill="#466EB6"/>
<path d="M503.15 705.892C503.388 705.785 504.036 705.331 504.797 705.3C505.319 705.248 505.846 705.326 506.331 705.527C505.987 705.058 505.527 704.687 504.996 704.45C504.154 704.035 502.903 704.021 502.44 704.287C501.421 704.714 501.152 705.709 501.561 705.97C501.971 706.231 502.614 706.096 503.15 705.892Z" fill="#466EB6"/>
<path d="M506.126 702.343C506.05 702.587 505.68 703.272 505.741 704.009C505.76 704.522 505.91 705.021 506.176 705.46C505.66 705.194 505.22 704.8 504.9 704.315C504.367 703.563 504.187 702.352 504.397 701.872C504.698 700.834 505.677 700.441 506.005 700.803C506.333 701.165 506.263 701.802 506.126 702.343Z" fill="#466EB6"/>
<path d="M55.1366 587.383C57.5664 588.786 59.7942 590.665 62.0136 592.345C74.0786 601.504 86.3288 610.365 102.978 628.995C125.24 653.907 141.87 682.192 152.01 713.086C152.375 714.192 154.204 713.718 153.834 712.604C147.177 692.63 137.852 673.646 126.112 656.167C94.3226 608.732 54.7073 587.136 55.1254 587.383H55.1366Z" fill="#466EB6"/>
<path d="M115.246 593.097C117.905 609.832 127.047 624.878 133.349 640.501C150.206 682.276 152.942 713.846 154.457 717.358C154.484 717.434 154.537 717.498 154.605 717.54C154.674 717.582 154.755 717.599 154.835 717.588C154.915 717.578 154.989 717.541 155.045 717.482C155.1 717.424 155.134 717.349 155.141 717.269C155.562 713.995 151.878 691.331 144.555 667.499C132.378 627.879 119.631 612.404 115.821 592.937C115.748 592.572 115.187 592.732 115.246 593.088V593.097Z" fill="#466EB6"/>
<path d="M75.1651 588.236C74.7105 589.103 72.8335 591.456 72.5809 594.264C72.0871 596.96 73.2178 600.11 73.274 599.986C73.4479 600.031 70.4682 598.213 69.155 594.889C67.6118 591.737 67.7297 587.075 68.8604 585.392C70.701 581.675 74.7077 580.808 75.729 582.365C76.7953 583.919 76.0377 586.281 75.1651 588.236Z" fill="#466EB6"/>
<path d="M102.791 614.729C102.449 615.638 100.883 618.177 100.978 620.982C100.827 623.705 102.334 626.692 102.381 626.563C102.558 626.589 99.3932 625.127 97.6788 621.988C95.7625 619.043 95.2995 614.415 96.2086 612.625C97.5694 608.743 101.427 607.433 102.628 608.858C103.866 610.261 103.422 612.696 102.791 614.729Z" fill="#466EB6"/>
<path d="M137.954 627.775C137.247 628.005 134.991 628.317 133.338 629.666C131.624 630.841 130.515 633.051 130.611 633.015C130.678 633.124 130.097 630.704 131.203 628.308C132.095 625.89 134.674 623.5 136.18 623.172C139.155 622.126 141.728 623.646 141.422 624.967C141.116 626.289 139.474 627.183 137.954 627.775Z" fill="#466EB6"/>
<path d="M141.447 635.941C140.74 636.173 138.484 636.482 136.834 637.831C135.117 639.006 134.009 641.217 134.104 641.18C134.171 641.29 133.591 638.869 134.696 636.474C135.588 634.056 138.17 631.663 139.674 631.338C142.648 630.291 145.221 631.812 144.918 633.133C144.615 634.454 142.97 635.349 141.447 635.941Z" fill="#466EB6"/>
<path d="M63.4594 605.571C64.0486 604.875 65.3926 602.485 67.7579 601.198C69.9324 599.773 73.1282 599.473 73.0412 599.562C73.145 599.686 70.415 598 66.9975 598.219C63.6305 598.188 59.5958 600.065 58.552 601.616C55.9959 604.51 56.7703 608.048 58.5267 608.266C60.286 608.533 62.0845 607.027 63.4594 605.571Z" fill="#466EB6"/>
<path d="M80.3664 620.482C80.9557 619.787 82.2996 617.397 84.6649 616.106C86.8395 614.681 90.0353 614.381 89.9511 614.474C90.0549 614.595 87.3249 612.909 83.9046 613.128C80.5376 613.099 76.5056 614.976 75.4591 616.524C72.9058 619.419 73.6774 622.956 75.4338 623.178C77.1931 623.441 78.9916 621.938 80.3664 620.482Z" fill="#466EB6"/>
<path d="M110.372 607.114C111.306 607.158 114.131 606.791 116.601 607.868C119.087 608.71 121.216 611.01 121.09 610.996C121.048 611.147 120.874 608.048 118.683 605.532C116.738 602.92 112.773 600.895 110.846 600.996C106.892 600.715 104.348 603.394 105.192 604.881C106.037 606.367 108.329 606.903 110.372 607.114Z" fill="#466EB6"/>
<path d="M115.319 618.558C116.253 618.603 119.079 618.233 121.548 619.313C124.034 620.154 126.164 622.454 126.037 622.44C125.998 622.592 125.824 619.492 123.63 616.976C121.685 614.365 117.721 612.339 115.793 612.44C111.84 612.16 109.298 614.839 110.14 616.325C110.981 617.812 113.282 618.348 115.319 618.558Z" fill="#466EB6"/>
<path d="M101.896 643.458C102.483 642.762 103.827 640.372 106.192 639.085C108.369 637.66 111.565 637.36 111.478 637.452C111.582 637.573 108.852 635.887 105.431 636.106C102.079 636.078 98.0326 637.955 96.9888 639.503C94.4327 642.398 95.2071 645.935 96.9607 646.156C98.7144 646.378 100.519 644.917 101.896 643.458Z" fill="#466EB6"/>
<path d="M53.5012 593.175C53.9669 592.814 55.1426 591.476 56.8036 590.973C58.3665 590.354 60.4147 590.567 60.3502 590.614C60.3979 590.704 58.9164 589.302 56.7391 589.007C54.6375 588.564 51.8373 589.232 50.9675 590.073C48.9614 591.568 48.9586 593.888 50.0304 594.247C51.1022 594.606 52.435 593.927 53.5012 593.175Z" fill="#466EB6"/>
<path d="M57.9931 583.796C57.9679 584.357 57.5554 586.07 58.1334 587.641C58.5543 589.206 59.9656 590.642 59.9628 590.564C60.0666 590.547 57.9987 590.258 56.4471 588.774C54.8141 587.434 53.6918 584.898 53.8714 583.725C53.9163 581.296 55.8551 579.899 56.8007 580.502C57.7462 581.106 57.9707 582.536 57.9931 583.796Z" fill="#466EB6"/>
<path d="M57.1294 667.096C80.5748 673.959 100.866 688.085 120.37 701.819C133.526 711.075 132.435 712.842 135.173 714.365C135.273 714.421 135.387 714.447 135.502 714.44C135.616 714.432 135.726 714.392 135.818 714.324C135.911 714.256 135.981 714.163 136.022 714.056C136.063 713.949 136.072 713.832 136.048 713.72C135.341 711.37 132.656 709.378 130.832 707.768C128.691 705.903 126.452 704.153 124.127 702.523C119.166 698.997 114.012 695.701 108.902 692.38C98.5067 685.623 87.8587 679.112 76.4951 673.948C70.254 671.089 63.7929 668.736 57.1743 666.913C57.162 666.908 57.1488 666.906 57.1355 666.907C57.1223 666.907 57.1093 666.911 57.0974 666.916C57.0855 666.922 57.0749 666.93 57.0664 666.941C57.0578 666.951 57.0515 666.963 57.0478 666.975C57.0441 666.988 57.043 667.001 57.0448 667.014C57.0465 667.028 57.0509 667.04 57.0578 667.052C57.0647 667.063 57.0739 667.073 57.0848 667.08C57.0956 667.088 57.108 667.093 57.121 667.096H57.1294Z" fill="#466EB6"/>
<path d="M80.1173 663.92C79.775 664.829 78.2122 667.368 78.3076 670.173C78.1533 672.896 79.6628 675.884 79.7105 675.757C79.8873 675.78 76.7195 674.321 75.0051 671.18C73.0888 668.237 72.6258 663.606 73.5377 661.817C74.8985 657.934 78.7537 656.625 79.9574 658.049C81.1611 659.474 80.7514 661.898 80.1173 663.92Z" fill="#466EB6"/>
<path d="M99.7775 674.958C99.4352 675.87 97.8695 678.408 97.9677 681.213C97.8134 683.934 99.3201 686.921 99.3707 686.795C99.5474 686.818 96.3797 685.359 94.6653 682.22C92.7489 679.275 92.286 674.647 93.1979 672.857C94.5587 668.972 98.4139 667.662 99.6148 669.087C100.852 670.49 100.409 672.925 99.7775 674.958Z" fill="#466EB6"/>
<path d="M119.396 687.985C119.053 688.893 117.488 691.432 117.586 694.237C117.432 696.961 118.938 699.948 118.989 699.819C119.166 699.844 115.998 698.383 114.283 695.244C112.367 692.299 111.904 687.67 112.816 685.881C114.177 681.999 118.032 680.689 119.236 682.114C120.439 683.539 120.03 685.937 119.396 687.985Z" fill="#466EB6"/>
<path d="M70.0802 681.6C70.6666 680.905 72.0106 678.515 74.3759 677.227C76.5504 675.802 79.7462 675.502 79.662 675.595C79.7658 675.715 77.0358 674.03 73.6155 674.248C70.2485 674.22 66.2166 676.097 65.17 677.645C62.6167 680.54 63.3883 684.077 65.1448 684.299C66.904 684.562 68.7025 683.056 70.0802 681.6Z" fill="#466EB6"/>
<path d="M90.546 692.997C91.1324 692.301 92.4764 689.912 94.8417 688.624C97.019 687.199 100.212 686.899 100.128 686.989C100.232 687.112 97.5016 685.426 94.0813 685.645C90.7143 685.614 86.6824 687.491 85.6358 689.042C83.0825 691.937 83.8541 695.474 85.6106 695.693C87.3698 695.959 89.1683 694.453 90.546 692.997Z" fill="#466EB6"/>
<path d="M54.8869 670.936C55.3527 670.574 56.5283 669.236 58.1922 668.731C59.755 668.111 61.8033 668.327 61.7359 668.372C61.7836 668.462 60.3021 667.059 58.1248 666.765C56.0233 666.324 53.2231 666.992 52.3533 667.833C50.3471 669.329 50.3443 671.645 51.4161 672.007C52.488 672.369 53.8207 671.676 54.8869 670.936Z" fill="#466EB6"/>
<path d="M59.3789 661.542C59.3536 662.103 58.9412 663.819 59.5192 665.39C59.94 666.955 61.3513 668.389 61.3485 668.31C61.4524 668.293 59.3845 668.007 57.8357 666.523C56.1999 665.183 55.0776 662.644 55.2571 661.474C55.3048 659.045 57.2408 657.648 58.1864 658.249C59.132 658.849 59.3564 660.285 59.3789 661.542Z" fill="#466EB6"/>
<path d="M601.061 711.131H60.7514C59.573 711.131 58.6162 712.66 58.6162 714.545C58.6162 716.43 59.573 717.962 60.7514 717.962H601.061C602.24 717.962 603.196 716.433 603.196 714.545C603.196 712.657 602.24 711.131 601.061 711.131Z" fill="#466EB6"/>
<path d="M275.22 557.703C268.486 542.817 271.412 522.36 274.243 502.605C275.217 495.811 276.137 489.396 276.625 483.396V483.357C276.667 483.194 280.708 466.92 284.055 443.285C287.142 421.473 290.264 388.756 287.562 356.75L288.037 356.711C290.741 388.761 287.621 421.507 284.526 443.358C281.227 466.639 277.254 482.804 277.094 483.452C276.603 489.463 275.691 495.878 274.709 502.672C271.886 522.374 268.968 542.747 275.646 557.51L275.22 557.703Z" fill="#184655"/>
<path d="M288.079 356.324C286.325 360.837 286.07 364.487 285.834 364.56C288.499 363.328 289.608 364.927 292.397 363.746C290.941 358.355 288.079 356.324 288.079 356.324Z" fill="#466EB6"/>
<path d="M318.062 310.737C319.42 333.158 301.381 356.596 288.533 357.3C276.373 357.987 254.959 337.057 253.604 314.639C252.248 292.221 265.576 273.161 283.387 272.087C301.199 271.013 316.706 288.314 318.062 310.737Z" fill="#466EB6"/>
<g style="mix-blend-mode:screen">
<path d="M277.024 278.895C268.16 277.773 260.556 293.388 267.021 296.477C273.774 299.702 288.455 280.348 277.024 278.895Z" fill="#1C1C1C"/>
</g>
<path d="M318.062 310.737C317.405 299.871 313.418 290.205 307.458 283.248C320.065 307.932 306.055 340.751 292.4 346.868C285.722 349.859 277.809 351.401 268.292 346.027C275.051 353.168 282.812 357.623 288.533 357.306C301.381 356.596 319.42 333.152 318.062 310.737Z" fill="#325CAB"/>
<path d="M289.523 357.99L287.433 358.111C287.323 358.117 287.215 358.079 287.133 358.006C287.051 357.933 287.001 357.831 286.995 357.721V357.721C286.989 357.611 287.026 357.504 287.099 357.422C287.172 357.34 287.275 357.29 287.385 357.283L289.475 357.163C289.529 357.159 289.584 357.167 289.636 357.185C289.687 357.202 289.735 357.23 289.775 357.266C289.816 357.303 289.849 357.347 289.873 357.396C289.896 357.445 289.91 357.498 289.913 357.553V357.553C289.919 357.662 289.881 357.77 289.808 357.852C289.735 357.934 289.632 357.984 289.523 357.99Z" fill="#184655"/>
<path d="M447.569 347.525C447.569 347.525 443.377 344.338 438.829 348.17C434.281 352.002 436.073 352.063 433.843 353.993C431.612 355.923 427.883 354.218 426.724 357.92C425.566 361.623 427.117 362.75 427.117 362.75C427.117 362.75 424.648 365.149 425.453 368.66C426.259 372.172 429.783 376.077 433.529 376.795C433.529 376.795 438.018 381.468 443.91 381.76C449.802 382.052 447.897 381.462 450.125 382.158C452.353 382.854 459.331 381.681 459.732 376.916C459.732 376.916 464.766 373.704 462.316 369.031C459.867 364.358 460.321 360.532 459.752 355.101C459.182 349.671 450.406 347.143 447.569 347.525Z" fill="#184655"/>
<path d="M406.074 363.179C403.181 361.435 396.281 354.568 393.944 352.24C393.908 351.959 393.633 350.319 391.747 348.293C390.417 346.863 389.323 343.525 388.523 344.515C387.724 345.505 389.898 348.103 388.947 348.162C387.996 348.22 383.08 343.087 382.353 343.982C381.627 344.877 386.596 349.413 385.746 349.46C384.895 349.508 380.827 344.877 379.803 346.142C378.779 347.407 385.095 351.143 384.545 351.822C383.995 352.501 380.072 350.041 379.244 351.059C378.417 352.077 384.764 354.164 384.261 354.192C383.759 354.22 380.148 354.257 380.148 354.952C380.148 355.738 389.357 356.619 390.529 357.937C393.055 361.659 397.589 368.461 402.033 371.356C407.454 374.896 419.954 382.369 419.954 382.369L425.726 374.31C425.726 374.31 409.502 365.25 406.074 363.179Z" fill="#F7A491"/>
<path d="M389.011 349.831C388.806 350.299 388.699 350.805 388.697 351.317C388.68 351.87 388.789 352.42 389.014 352.925C389.24 353.43 389.576 353.877 389.999 354.234C389.418 353.241 388.776 352.139 389.011 349.831Z" fill="#F48C7F"/>
<path d="M406.054 439.046C406.971 442.412 408.601 447.742 408.601 447.742C408.523 449.22 408.248 455.374 407.928 462.917L418.871 458.199C418.871 458.199 418.329 446.264 418.803 445.501C419.205 444.856 420.015 445.299 423.293 440.353C424.235 438.929 424.353 436.426 424.353 436.426C424.353 436.426 424.474 433.341 423.772 433.061C423.444 432.959 423.09 432.979 422.775 433.117C422.46 433.254 422.205 433.5 422.055 433.809C421.82 434.351 421.915 435.588 421.679 436.126C421.444 436.665 419.858 437.349 419.182 437.333C418.506 437.316 419.028 428.216 419.028 428.216C419.028 428.216 419.336 425.633 419.505 424.786C419.651 424.062 420.248 421.939 420.248 421.939C420.248 421.939 420.936 418.853 419.968 418.654C419.407 418.531 418.043 421.049 417.134 423.703C416.157 426.57 415.638 429.594 415.335 429.563C414.628 429.484 414.872 424.497 414.872 424.497C414.872 424.497 415.515 422.197 415.47 421.131C416.101 419.793 416.477 417.336 415.302 417.165C415.083 417.131 413.618 420.281 413.618 420.281C413.618 420.281 413.057 422.486 412.743 423.515C412.182 425.336 412.148 428.188 411.856 429.45C411.612 430.502 411.357 430.082 411.244 430.126C411.132 430.171 411.273 428.724 411.393 426.732C411.455 425.734 411.309 424.584 411.559 423.442C411.771 422.293 411.898 421.129 411.94 419.961C412.064 417.381 410.448 417.686 409.951 420.057C409.76 420.96 409.561 421.944 409.362 422.943C408.593 426.825 408.716 430.544 408.298 430.586C407.76 430.64 407.939 423.854 407.939 423.854C407.939 423.854 407.01 420.127 406.278 423.627C405.752 426.089 405.534 428.607 405.63 431.122C405.756 432.129 405.136 435.672 406.054 439.046Z" fill="#F8A492"/>
<path d="M407.162 453.865C407.162 453.865 419.558 450.552 419.704 451.551C422.9 473.43 424.286 481.321 424.735 481.536C426.267 482.274 445.823 463.433 449.364 462.098C451.048 461.458 452.919 461.509 454.695 461.514C458.949 461.514 459.788 461.514 459.788 461.514H459.942L460.026 465.512C455.349 469.943 450.767 555.552 449.833 555.521C448.8 555.499 429.37 555.395 430.293 553.776C430.293 553.776 434.99 527.409 438.685 510.038C439.926 504.204 443.391 492.008 443.391 492.008C438.641 494.549 420.083 504.291 417.069 503.146C407.709 499.604 407.162 453.865 407.162 453.865Z" fill="#F47458"/>
<path d="M433.849 690.321C433.849 690.321 434.466 701.426 434.469 701.448C434.696 702.851 435.591 706.343 435.591 707.619C435.591 712.436 414.548 703.533 419.267 701.398C419.693 701.204 421.93 699.743 422.073 698.105C422.289 695.58 422.836 690.47 422.836 690.47L433.849 690.321Z" fill="#F7A491"/>
<path d="M419.317 701.359C419.317 701.359 424.258 702.831 426.789 703.199C429.32 703.566 432.653 700.467 434.443 701.303C436.407 702.225 437.123 710.618 436.214 711.302C435.305 711.987 406.753 712.11 402.406 711.325C399.348 710.775 409.219 704.789 419.317 701.359Z" fill="#184655"/>
<path d="M480.203 691.387C480.203 691.387 480.821 702.492 480.826 702.514C481.051 703.917 481.949 707.409 481.949 708.685C481.949 713.502 460.905 704.599 465.624 702.464C466.051 702.27 468.949 699.718 469.09 698.08C469.306 695.555 469.191 691.536 469.191 691.536L480.203 691.387Z" fill="#F7A491"/>
<path d="M465.672 702.422C465.672 702.422 470.613 703.897 473.141 704.265C475.669 704.632 479.008 701.533 480.798 702.369C482.762 703.291 482.846 711.589 482.846 711.589C482.846 711.589 454.858 712.755 447.976 711.535C445.588 711.112 455.574 705.855 465.672 702.422Z" fill="#184655"/>
<path d="M446.862 531.067L437.968 534.975L419.256 625.969L420.013 694.186L435.013 694.54C435.013 694.54 441.989 634.869 441.989 630.244C441.989 625.618 474.306 549.319 474.306 549.319L446.862 531.067Z" fill="#50BFA5"/>
<path d="M453.728 536.074C453.728 536.074 460.282 606.182 460.282 618C460.282 629.817 465.593 695.962 465.593 695.962L480.63 695.872C480.63 695.872 481.716 675.713 483.326 646.053C483.579 641.407 483.001 632.028 483.326 627.225C485.666 592.637 490.293 560.077 488.096 547.171C487.74 545.095 487.072 539.662 485.77 538.29C475.91 527.917 453.728 536.074 453.728 536.074Z" fill="#3C8F7C"/>
<path d="M443.879 505.918C446.012 495.432 451.455 478.227 453.06 474.325C456.727 465.366 459.814 461.568 459.814 461.568L474.325 461.997C474.325 461.997 474.662 462.089 474.763 462.106C475.95 462.294 475.983 504.543 475.344 520.338C474.704 536.133 471.2 556.694 471.2 556.694L467.058 556.301C466.991 558.433 466.943 559.835 466.943 559.835C445.944 563.538 434.225 553.187 434.225 553.187C434.225 553.187 441.116 519.513 443.879 505.918Z" fill="#466EB6"/>
<path d="M473.576 449.215L474.322 461.997C474.322 461.997 465.366 478.403 460.489 476.277C456.399 474.493 459.665 462.106 459.665 462.106C459.665 462.106 460.29 459.27 461.174 456.005C461.794 453.725 462.296 451.259 462.204 449.464C461.988 445.094 473.576 449.215 473.576 449.215Z" fill="#F7A491"/>
<path d="M462.204 449.464C461.988 445.094 473.576 449.215 473.576 449.215L473.649 450.466C473.311 451.021 472.892 451.523 472.406 451.955C469.387 454.538 464.957 455.781 461.32 455.461C461.87 453.341 462.286 451.119 462.204 449.464Z" fill="#F47458"/>
<path d="M461.601 420.334C461.601 420.334 457.01 427.664 456.814 433.737C456.618 439.809 458.009 443.913 458.009 443.913L472.88 425.178L461.601 420.334Z" fill="#184655"/>
<path d="M455.193 432.536C455.033 434.665 455.905 436.463 457.157 436.561C458.408 436.659 459.528 435.004 459.682 432.875C459.836 430.746 458.969 428.948 457.718 428.853C456.467 428.758 455.353 430.41 455.193 432.536Z" fill="#F48C7F"/>
<path d="M477.909 427.983C478.259 427.902 478.689 445.551 473.68 449.837C468.672 454.123 459.775 454.724 457.064 450.609C454.068 446.056 456.315 427.389 463.821 423.24C471.326 419.092 477.909 427.983 477.909 427.983Z" fill="#F7A491"/>
<path d="M478.919 417.021C482.917 420.343 484.872 422.794 487.675 428.802C491.121 436.202 484.87 444.126 479.539 447.352C474.208 450.578 473.862 454.314 473.862 454.314L473.582 452.022C473.451 451.323 473.451 450.606 473.582 449.907C473.757 449.256 473.999 448.624 474.303 448.022C474.735 447.027 476.127 443.618 476.68 442.715C478.139 440.328 478.425 439.812 477.617 437.605C476.994 435.902 477.563 432.101 476.595 429.296L469.275 427.919C469.275 427.919 464.693 426.943 462.325 424.351C455.543 416.904 468.374 408.068 478.919 417.021Z" fill="#184655"/>
<path d="M475.958 439.574C475.116 441.537 475.352 443.523 476.491 444.014C477.63 444.505 479.238 443.315 480.086 441.355C480.933 439.394 480.692 437.408 479.552 436.914C478.413 436.421 476.803 437.613 475.958 439.574Z" fill="#F7A491"/>
<path d="M495.765 386.697C497.092 389.934 499.036 395.159 499.036 395.159C500.838 397.872 505.223 404.04 507.88 408.132L496.825 409.768C496.825 409.768 490.139 399.695 489.297 399.389C488.587 399.109 488.484 400.175 482.883 398.236C481.267 397.675 479.648 395.757 479.648 395.757C479.648 395.757 479.443 395.431 479.836 394.792C480.229 394.152 479.373 392.009 479.889 392.293C480.406 392.576 481.082 393.619 481.595 393.903C482.109 394.186 481.447 390.402 481.974 389.976C482.502 389.549 480.442 385.706 485.815 381.499C486.245 381.165 487.993 378.234 491.463 381.151C493.355 382.595 494.837 384.506 495.765 386.697Z" fill="#F8A492"/>
<path d="M474.322 461.997C474.322 461.997 488.674 460.951 492.335 459.178C494.558 458.101 508.783 445.994 508.783 445.994L492.61 406.668L505.798 402.461C505.798 402.461 532.231 445.444 530.026 450.322C527.748 455.371 501.261 476.552 496.076 485.581C493.096 490.782 495.921 561.406 494.953 562.06C488.057 565.88 459.067 569.263 459.516 567.044C471.982 505.682 474.322 461.997 474.322 461.997Z" fill="#F47458"/>
<path d="M430.341 374.719L417.333 368.632L413.164 381.213L425.815 388.195L430.341 374.719Z" fill="#E3B25B"/>
<path d="M478.088 394.02C478.088 394.02 478.153 392.315 480.035 390.035C481.242 388.573 482.732 386.562 483.515 387.462C484.297 388.363 481.764 389.734 482.656 389.726C483.548 389.718 488.899 385.72 489.606 386.537C490.313 387.353 485.507 390.464 485.958 390.674C486.41 390.884 490.204 386.626 490.939 387.622C491.674 388.618 486.45 392.391 486.579 392.671C486.778 393.112 490.633 390.147 491.438 391.081C492.244 392.015 486.587 394.629 487.058 394.623C487.53 394.618 490.58 394.192 490.602 394.862C490.625 395.619 483.978 397.269 482.917 398.612C481.856 399.956 467.317 412.595 464.006 411.947C460.695 411.299 446.753 399.459 446.329 395.975C445.906 392.492 447.92 388.402 450.173 388.374C452.426 388.346 465.392 400.806 466.099 400.8C466.806 400.794 478.088 394.02 478.088 394.02Z" fill="#F48C7F"/>
<path d="M407.656 455.136C408.616 456.704 412.387 459.097 412.387 459.097C410.204 463.694 402.49 473.921 402.49 473.921C402.49 473.921 401.107 472.625 401.413 471.195C401.719 469.764 403.096 463.195 401.522 460.622C401.113 459.952 396.587 452.432 393.161 445.638C395.552 444.188 401.245 445.498 403.405 443.77C405.495 447.338 407.339 454.609 407.656 455.136Z" fill="#F7A491"/>
<path d="M409.287 456.853C409.287 456.853 403.605 465.486 402.474 466.454C401.554 467.242 399.882 476.785 401.315 476.934C402.749 477.082 414.73 463.091 414.879 461.262C415.027 459.433 409.287 456.853 409.287 456.853Z" fill="#184655"/>
<path d="M393.507 468.527C393.582 470.311 395.779 474.207 395.779 474.207C391.506 476.905 379.435 481.464 379.435 481.464C379.435 481.464 378.841 479.688 379.834 478.659C380.827 477.629 386.287 471.012 386.172 468.081C386.141 467.318 385.923 461.646 385.123 458.23C387.999 458.23 390.962 457.803 393.776 457.467C393.866 461.484 393.481 467.935 393.507 468.527Z" fill="#F7A491"/>
<path d="M411.658 414.217C411.658 414.217 388.167 426.337 385.269 429.184C383.106 431.313 383.187 460.168 383.187 460.168C383.187 460.168 391.164 462.005 395.403 459.888C395.403 459.888 397.006 440.272 398.119 439.714C399.233 439.156 423.464 433.664 423.464 433.664L424.306 422.006L411.658 414.217Z" fill="#B75742"/>
<path d="M434.693 408.806C434.693 408.806 424.592 416.029 420.257 416.977C416.929 417.7 389.954 422.026 388.91 429.624C388.321 433.927 394.564 452.224 394.564 452.224L406.264 447.893C406.264 447.893 402.99 439.248 403.573 438.297C404.157 437.347 425.992 440.909 432.527 437.736C439.061 434.564 440.265 419.888 440.265 419.888L434.693 408.806Z" fill="#F47458"/>
<path d="M438.012 378.711C438.012 378.711 432.249 376.186 430.341 374.719C428.433 373.252 413.751 409.027 406.265 416.107C416.761 424.39 438.119 433.849 438.119 433.849C438.119 433.849 442.182 426.191 443.17 417.65C444.227 408.604 444.976 403.313 445.939 400.231L453.795 407.243L461.741 394.921C461.741 394.921 451.598 384.823 447.51 382.562C446.382 381.942 438.012 378.711 438.012 378.711Z" fill="#F7CC7F"/>
<path d="M394.043 470.569C394.043 470.569 384.043 475.239 382.421 475.486C381.097 475.685 375.822 483.256 377.135 484.182C378.448 485.107 396.147 479.197 397.284 477.646C398.42 476.095 394.043 470.569 394.043 470.569Z" fill="#184655"/>
<path d="M436.456 372.012C436.456 372.012 434.604 378.646 433.793 379.07C432.982 379.493 431.801 380.248 432.219 382.099C432.637 383.951 436.891 384.181 439.009 383.855C440.331 383.614 441.584 383.082 442.676 382.298L445.008 371.603L436.456 372.012Z" fill="#F7A491"/>
<path d="M438.226 375.552C440.606 375.558 442.904 374.685 444.679 373.101L445.005 371.603L436.453 372.012C436.453 372.012 436.001 373.631 435.445 375.32C436.355 375.537 437.293 375.616 438.226 375.552V375.552Z" fill="#F47458"/>
<path d="M448.68 364.593C448.68 364.593 450.083 360.79 452.213 362.282C454.342 363.774 450.72 369.036 448.815 368.231C446.91 367.426 448.68 364.593 448.68 364.593Z" fill="#F7A491"/>
<path d="M445.162 349.648C445.162 349.648 441.472 348.406 438.675 350.703C435.878 353 431.234 360.605 432.592 367.275C433.95 373.945 438.392 373.794 440.221 373.726C442.05 373.659 445.712 373.401 449.026 368.596C452.339 363.791 454.876 351.457 445.162 349.648Z" fill="#F7A491"/>
<path d="M440.496 367.435L435.815 365.704C435.815 365.704 435.254 367.522 437.303 368.341C439.786 369.336 440.496 367.435 440.496 367.435Z" fill="white"/>
<path d="M489.709 398.87C486.904 399.953 482.297 398.236 480.257 397.114C480.063 396.318 482.824 395.712 484.676 396.063C486.528 396.413 488.98 394.25 492.145 395.88C494 397.779 489.709 398.87 489.709 398.87Z" fill="#F8A492"/>
<path d="M487.069 385.656C491.539 388.918 488.343 388.913 484.303 387.9C486.547 388.955 486.457 389.653 485.899 390.144C485.223 390.722 480.588 390.096 479.875 389.134C479.216 388.242 481.559 385.227 482.487 384.478C483.026 384.004 483.66 383.479 484.266 382.837C485.972 381.028 486.337 380.761 486.991 380.312C488.225 379.446 489.289 380.206 490.902 381.202C492.925 382.795 492.212 384.15 489.168 383.165C489.468 383.384 491.803 384.697 491.32 385.939C490.983 386.795 489.69 386.447 487.069 385.656Z" fill="#F7A491"/>
<path d="M425.961 432.906C424.393 433.439 423.046 436.833 422.875 436.645C422.875 436.645 416.275 439.45 412.213 443.593C412.064 443.961 411.828 444.948 411.587 445.377L417.479 446.76C420.65 444.46 423.932 440.502 424.348 439.599C424.603 439.038 425.347 437.52 425.751 436.713C426.155 435.905 426.996 434.129 427.322 433.79C427.793 433.29 427.325 432.449 425.961 432.906Z" fill="#F7A491"/>
<path d="M203.486 429.453C203.982 438.62 217.099 441.425 226.067 438.951C231.897 437.349 234.375 435.955 233.474 429.599C232.015 419.294 226.128 414.519 219.669 413.759C211.336 412.777 203.073 421.897 203.486 429.453Z" fill="#184655"/>
<path d="M219.108 565.089L226.19 628.162C226.19 628.162 222.731 641.5 223.146 645.29C223.561 649.079 230.845 698.787 230.845 698.787L230.539 701.575V709.807H257.573C257.573 709.807 251.835 707.249 243.811 702.189C243.219 701.813 241.847 700.621 241.518 698.242C239.375 682.921 243.614 631.814 243.614 631.814L246.953 565.294L219.108 565.089Z" fill="#F7A491"/>
<path d="M197.389 578.357C195.862 578.741 193.511 632.973 192.249 635.377C184.235 650.614 182.33 696.944 182.33 696.944L179.939 703.676C182.686 706.001 185.778 705.987 189.241 703.457L188.814 696.164L209.033 638.454L220.096 579.582L197.389 578.357Z" fill="#F7A491"/>
<path d="M237.599 473.304C234.339 468.864 220.882 456.011 219.387 456.011C215.029 456.087 200.725 456.092 197.928 457.509L198.062 482.002C198.52 484.058 208.393 516.083 207.821 523.093L207.888 523.16C216.166 531.123 229.213 530.495 236.788 521.774C236.788 521.774 236.755 512.058 237.911 503.197C239.746 489.326 245.702 484.342 237.599 473.304Z" fill="#F7CC7F"/>
<path d="M249.465 606.118L250.424 568.699C250.597 558.13 248.44 547.654 244.106 538.012L236.811 521.785C233.853 522.722 231.07 523.519 227.964 523.867C221.207 524.621 214.561 523.867 207.843 523.104C207.827 523.326 207.796 523.547 207.751 523.766C206.508 529.278 199.718 541.563 196.856 558.354C193.601 577.414 192.759 603.834 193.166 606.078C211.974 610.463 231.252 610.609 249.465 606.118Z" fill="#E25A44"/>
<path d="M215.001 442.233C215.001 442.233 215.38 451.271 214.564 454.695C213.747 458.12 212.664 458.381 219.656 459.425C222.403 459.834 225.054 460.446 225.054 460.446C225.054 460.446 224.336 455.414 224.213 453.29C224.036 449.792 225.021 438.985 225.021 438.985L215.001 442.233Z" fill="#F7A491"/>
<path d="M220.326 446.729C221.576 447.432 222.937 447.915 224.35 448.157C224.588 443.888 225.035 438.993 225.035 438.993L215.464 442.079C216.631 444.043 218.312 445.651 220.326 446.729V446.729Z" fill="#F47458"/>
<path d="M189.238 703.434C185.548 705.073 181.575 704.085 179.978 703.561L179.448 704.986L177.411 711.749C177.411 711.749 185.512 713.751 189.709 711.443L189.238 703.434Z" fill="#E25A44"/>
<path d="M230.251 711.852H258.351C259.389 711.76 259.641 710.913 259.282 710.391C258.539 709.319 255.259 708.478 251.575 706.767C245.121 707.446 231.555 703.053 230.531 701.558C229.945 704.551 229.675 711.726 230.251 711.852Z" fill="#E25A44"/>
<path d="M235.82 484.989C235.82 484.989 240.575 494.428 241.33 495.404C241.33 495.404 262.147 490.796 270.926 488.047L271.235 487.907C271.409 487.82 271.641 487.789 271.683 487.553C271.874 486.493 272.845 482.931 273.325 481.413C273.457 480.996 273.678 480.613 273.973 480.291C274.627 479.573 277.542 474.804 277.542 474.804C277.542 474.804 278.544 475.178 278.544 476.74C278.544 478.302 276.344 481.278 276.944 481.298H276.958C277.574 481.287 278.183 481.167 278.757 480.945C279.578 480.714 280.437 480.652 281.282 480.762C282.096 480.855 282.609 481.447 282.685 482.322C282.724 482.86 282.621 483.444 282.82 483.926C283.162 484.737 283.661 492.181 282.388 492.902C281.751 493.267 278.322 493.898 276.953 493.921C275.994 493.939 275.051 494.16 274.183 494.568C274.002 494.653 273.814 494.725 273.622 494.784V494.784C267.354 497.309 246.431 506.209 246.431 506.209C246.431 506.209 236.173 509.856 234.675 508.563C233.176 507.269 224.212 489.671 224.212 489.671L235.82 484.989Z" fill="#F7A491"/>
<path d="M213.258 467.98C211.235 476.28 222.027 494.787 222.027 494.787C222.027 494.787 237.402 487.559 240.104 484.445C240.104 484.445 229.661 466.493 228.977 465.394C225.868 460.451 221.659 460.446 218.923 460.78C216.721 461.026 213.258 467.98 213.258 467.98Z" fill="#EDA258"/>
<path d="M216.917 472.302C223.272 464.959 224.021 450.659 218.106 443.049C220.783 438.317 223 438.777 221.51 433.579C218.569 423.327 230.141 414.929 218.83 413.703C207.489 413.072 201.417 421.148 197.332 428.57C195.513 431.956 192.992 434.915 189.936 437.248C183.794 441.837 181.519 451.071 186.364 459.669C181.454 463.411 178.028 472.698 182.582 479.351C183.673 480.95 185.668 482.717 185.797 483.2C185.609 482.608 183.02 499.267 201.976 502.111C221.319 505.014 222.604 486.728 216.917 472.302Z" fill="#184655"/>
<path d="M215.181 420.539C215.181 420.539 211.665 423.033 210.77 427.596C209.875 432.16 214.721 444.454 224.653 445.989C234.586 447.523 235.722 436.881 232.986 430.107C230.251 423.333 224.984 414.977 215.181 420.539Z" fill="#F7A491"/>
<path d="M210.523 435.966C208.233 429.42 208.026 424.242 212.487 421.1C216.948 417.958 220.697 414.929 225.629 418.738L226.679 419.145C226.679 419.145 218.884 422.536 219.044 426.892C219.204 431.248 215.621 436.965 216.586 438.979C217.551 440.993 218.907 445.071 218.907 445.071L216.923 443.868C216.923 443.868 212.812 442.513 210.523 435.966Z" fill="#184655"/>
<path d="M217.899 433.131C219.091 434.735 219.148 436.687 218.025 437.495C216.903 438.303 215.026 437.658 213.833 436.053C212.641 434.449 212.588 432.497 213.71 431.689C214.832 430.881 216.709 431.529 217.899 433.131Z" fill="#F7A491"/>
<path d="M312.006 595.854C309.273 597.032 300.429 592.909 296.083 590.682C291.159 588.157 288.115 586.564 282.085 583.406C278.547 581.552 273.106 580.04 272.029 581.981C271.468 586.272 277.624 590.239 281.451 589.453C283.696 590.157 291.978 596.312 293.92 597.753C297.915 600.713 302.264 603.105 307.755 607.405C313.246 611.705 318.911 614.137 321.658 612.544C324.405 610.951 322.267 602.536 320.488 599.877C318.709 597.218 312.006 595.854 312.006 595.854Z" fill="#E3B25B"/>
<path d="M341.995 655.054C342.738 664.291 334.559 671.755 334.245 680.823C333.947 689.466 347.657 694.231 341.15 704.509C339.36 706.893 333.153 707.984 328.086 707.984C323.019 707.984 323.069 712.554 323.069 712.554H341.049C352.87 709.277 355.008 703.925 356.248 701.53C358.285 697.603 386.113 668.961 350.002 690.955C341.184 696.324 362.37 679.485 362.965 673.525C361.214 666.277 340.996 642.698 341.995 655.054Z" fill="#E3B25B"/>
<path d="M346.167 554.654C343.255 553.168 339.153 553.314 335.438 550.929C331.723 548.545 329.627 545.12 327.688 545.12C325.749 545.12 319.832 548.565 323.544 556.461C323.544 556.461 329.296 567.527 327.688 574.02C326.83 577.49 322.475 583.7 315.623 590.255C308.771 596.811 304.299 614.536 308.917 624.965C313.536 635.393 327.245 641.514 334.397 647.755C341.549 653.996 343.785 665.034 343.785 665.034C340.805 675.463 337.228 687.081 347.062 695.423C356.897 703.765 356.45 706.298 356.45 706.298C350.042 707.936 348.106 707.636 343.039 707.636C337.971 707.636 338.123 712.553 338.123 712.553H349.408C352.05 712.553 354.677 712.147 357.197 711.35C366.88 708.293 368.103 708.402 368.37 705.998C368.67 703.317 358.684 698.254 365.987 690.955C373.291 683.656 378.353 679.485 378.95 673.525C394.298 680.975 416.2 682.91 431.399 672.781C433.335 671.292 425.142 673.673 413.967 674.717C402.791 675.76 389.082 672.333 383.123 663.247C378.611 656.369 380.143 650.288 370.755 636.88C361.366 623.472 354.663 619.453 353.322 609.473C351.981 599.492 350.937 597.854 352.13 583.403C353.322 568.952 354.346 568.152 352.427 562.399C351.529 559.717 348.735 555.964 346.167 554.654Z" fill="#F7CC7F"/>
<path d="M339.683 557.434C339.859 558.068 339.812 558.635 339.178 558.811C338.873 558.896 338.547 558.857 338.271 558.701C337.996 558.546 337.794 558.287 337.709 557.983C337.624 557.678 337.664 557.352 337.819 557.077C337.975 556.801 338.233 556.599 338.538 556.514C339.172 556.337 339.444 556.573 339.683 557.434Z" fill="#854D36"/>
<path d="M307.046 615.924C307.096 617.591 307.29 619.25 307.627 620.883C313.323 625.091 320.94 626.165 321.877 624.667C316.308 617.621 309.481 615.916 307.046 615.924Z" fill="#E3B25B"/>
<path d="M346.761 579.083C347.656 580.648 353.989 578.71 354.66 578.191C355.33 577.672 353.537 568.954 352.275 565.9C351.012 562.845 349.295 563.74 349.295 563.74C350.726 567.465 345.866 577.521 346.761 579.083Z" fill="#E3B25B"/>
<path d="M329.287 545.771C328.844 546.918 328.21 547.173 327.578 546.612C327.175 546.268 326.723 545.984 326.237 545.771C326.049 545.429 326.944 544.907 327.688 544.907C328.431 544.907 329.402 545.49 329.287 545.771Z" fill="#BF6F4E"/>
<path d="M313.361 606.536C310.376 607.826 300.71 603.318 295.965 600.884C290.583 598.126 287.267 596.396 280.668 592.931C276.801 590.906 270.847 589.24 269.677 591.375C269.06 596.065 275.791 600.398 279.975 599.54C282.438 600.309 291.479 607.038 293.603 608.611C297.968 611.848 302.724 614.463 308.723 619.161C314.722 623.859 320.914 626.502 323.919 624.771C326.924 623.04 324.584 613.831 322.64 610.925C320.695 608.02 313.361 606.536 313.361 606.536Z" fill="#F7CC7F"/>
</svg>
