<svg width="806" height="980" viewBox="0 0 806 980" fill="none" xmlns="http://www.w3.org/2000/svg">
<path d="M179.448 385.111C134.447 398.605 92.9599 426.93 69.0559 467.42C45.1519 507.911 41.0262 560.902 63.5845 602.146C83.3451 638.285 121.68 662.394 162.255 669.411C202.83 676.428 245.157 667.435 281.996 649.033C304.909 637.586 325.926 622.621 348.715 610.935C371.503 599.248 397.01 590.725 422.454 593.693C451.44 597.078 477.717 614.957 506.897 615.568C518.717 615.694 530.393 612.978 540.946 607.65C551.499 602.322 560.62 594.536 567.543 584.948C583.479 562.417 585.249 531.788 576.21 505.687C567.171 479.585 548.455 457.728 526.817 440.61C488.624 410.397 441.825 394.113 394.832 383.587C325.696 368.1 247.982 364.556 179.448 385.111Z" fill="#F8FCFF"/>
<path d="M267.441 537.06L290.77 536.688L290.017 560.521C284.626 615.214 281.536 681.602 281.536 681.602C277.738 684.03 275.445 683.906 271.655 681.602C262.554 589.857 267.441 537.06 267.441 537.06Z" fill="#EFAD9C"/>
<path d="M250.001 692.509C266.61 694.281 274.976 690.276 274.976 690.276V692.482L280.775 691.747C280.775 691.747 282.546 687.272 281.828 683.082C281.771 682.581 281.674 682.087 281.536 681.602H271.621C269.142 683.41 266.318 684.688 263.325 685.359C256.623 687.086 249.921 687.928 250.001 692.509Z" fill="#DD4545"/>
<path d="M266.548 687.29C270.611 687.21 279.102 684.127 281.864 683.082C281.795 682.58 281.686 682.085 281.536 681.602C278.287 680.84 274.905 680.84 271.656 681.602C269.177 683.41 266.353 684.688 263.36 685.359C263.13 686.209 263.413 687.352 266.548 687.29Z" fill="#EFAD9C"/>
<path d="M315.816 536.298C318.791 635.636 325.705 681.602 325.705 681.602C321.863 684.003 319.552 683.932 315.807 681.602C304.395 628.513 290.23 560.468 289.247 560.503L290 536.67L315.816 536.298Z" fill="#EFAD9C"/>
<path d="M294.205 692.509C310.814 694.281 319.18 690.276 319.18 690.276V692.482L324.979 691.747C324.979 691.747 326.75 687.272 326.033 683.082C325.952 682.585 325.83 682.096 325.67 681.62H315.807C313.335 683.427 310.517 684.706 307.529 685.376C300.827 687.086 294.116 687.928 294.205 692.509Z" fill="#DD4545"/>
<path d="M310.752 687.29C314.816 687.21 323.306 684.127 326.069 683.082C325.983 682.586 325.862 682.098 325.706 681.62C322.45 680.858 319.063 680.858 315.808 681.62C313.335 683.427 310.518 684.706 307.53 685.376C307.335 686.209 307.618 687.352 310.752 687.29Z" fill="#EFAD9C"/>
<path d="M256.685 601.082C275.383 605.929 312.239 605.167 330.07 598.672C327.573 554.904 318.392 521.333 313.673 511.012C299.978 514.1 285.786 514.275 272.019 511.525C268.495 521.333 256.561 548.764 256.685 601.082Z" fill="#32547C"/>
<path d="M274.994 427.754C275.41 424.015 274.401 420.223 274.773 416.475C275.181 413.274 276.499 410.257 278.569 407.783C280.638 405.308 283.373 403.479 286.45 402.512C292.586 400.607 301.049 402.051 304.422 406.605C310.372 406.907 313.09 411.283 314.028 416.041C314.737 419.585 313.895 423.298 313.869 426.939C313.798 435.728 320.004 444.234 317.667 452.704C317.074 454.601 316.11 456.36 314.832 457.881C313.554 459.402 311.987 460.654 310.221 461.564C306.682 463.369 302.781 464.353 298.809 464.443C293.195 464.727 287.579 463.921 282.271 462.069C279.066 460.944 275.87 459.349 273.878 456.602C270.966 452.606 271.222 447.122 272.356 442.302C273.522 437.509 274.403 432.651 274.994 427.754V427.754Z" fill="#5B3D31"/>
<path d="M254.091 479.488C253.772 478.646 253.471 477.76 253.205 476.83C249.708 465.099 249.31 456.452 247.77 445.35L255.277 443.481C255.277 443.481 260.253 462.042 264.794 474.491C269.859 467.624 277.871 452.039 277.871 452.039C282.607 452.748 288.938 455.654 293.577 456.842C290.46 462.503 282.368 474.349 278.668 479.692C276.95 482.204 274.958 484.516 272.727 486.585C270.071 489.065 266.53 491.723 263.962 491.67C259.128 491.59 254.091 479.488 254.091 479.488Z" fill="#E8A395"/>
<path d="M244.919 440.769C243.547 438.785 242.428 436.636 241.59 434.373C241.475 434.091 241.409 433.791 241.395 433.487C241.39 433.338 241.421 433.19 241.488 433.057C241.555 432.924 241.654 432.809 241.776 432.725C242.254 432.441 242.829 432.831 243.237 433.203C244.371 434.199 245.425 435.284 246.388 436.446C245.565 434.337 244.733 432.228 243.998 430.084C243.854 429.745 243.779 429.381 243.777 429.012C243.775 428.831 243.822 428.652 243.914 428.496C244.006 428.34 244.139 428.212 244.299 428.126C244.463 428.063 244.641 428.043 244.815 428.07C244.989 428.096 245.153 428.167 245.291 428.277C245.568 428.497 245.803 428.768 245.981 429.074C247.176 430.846 248.336 432.618 249.523 434.337C248.758 431.759 248.192 429.126 247.832 426.461C247.769 426.148 247.769 425.825 247.832 425.513C247.864 425.358 247.936 425.215 248.042 425.098C248.148 424.982 248.283 424.895 248.434 424.848C248.581 424.817 248.735 424.824 248.879 424.869C249.023 424.914 249.153 424.995 249.257 425.105C249.471 425.322 249.642 425.578 249.762 425.858C251.074 428.421 252.124 431.111 252.896 433.885C252.665 431.441 252.683 428.981 252.949 426.54C252.993 426.062 253.117 425.504 253.56 425.326C253.747 425.264 253.949 425.266 254.136 425.331C254.322 425.397 254.48 425.523 254.587 425.69C254.802 426.015 254.941 426.384 254.994 426.771C255.904 431.102 256.332 435.52 256.269 439.945C257.552 438.618 259.156 437.645 260.926 437.119C261.483 436.995 262.218 437.066 262.404 437.598C262.442 437.796 262.434 438.001 262.38 438.196C262.326 438.391 262.229 438.572 262.094 438.723L259.314 443.038C258.473 444.436 257.504 445.753 256.419 446.971C255.322 448.189 253.905 449.074 252.329 449.523C251.39 449.762 250.407 449.771 249.464 449.548C248.521 449.326 247.645 448.88 246.911 448.247C245.965 447.34 245.299 446.181 244.99 444.907C244.772 443.538 244.748 442.145 244.919 440.769V440.769Z" fill="#E8A395"/>
<path d="M313.948 471.106C313.063 477.388 310.84 490.155 307.219 499.121C309.671 502.914 311.829 506.889 313.673 511.012C300.03 514.095 285.121 515.512 272.019 511.525C273.172 508.262 274.49 505.06 275.967 501.93C275.967 501.93 276.286 498.838 274.905 489.349C274.807 489.172 274.745 489.083 274.745 489.083C274.089 488.256 273.516 487.366 273.037 486.425V486.425C269.433 479.337 272.488 471.487 275.055 466.694C275.941 458.472 276.782 453.608 277.888 452.075C278.464 451.366 280.261 450.613 282.527 449.993L285.476 449.328C286.449 449.142 287.423 449 288.397 448.885C292.98 448.436 297.598 448.511 302.164 449.107H302.89C307.6 449.275 313.204 450.879 315.727 453.448C315.577 453.492 315.789 458.038 314.329 470.406C314.293 470.397 314.178 470.645 313.948 471.106Z" fill="#FFC612"/>
<path d="M364.935 447.884C364.935 447.884 349.539 459.402 338.269 466.331C330.451 462.919 315.719 453.439 315.719 453.439C311.974 456.416 306.034 464.851 313.577 470.495C320.845 474.925 328.698 478.416 331.823 479.178L332.337 479.346C335.666 480.329 339.508 479.231 343.51 476.847C344.289 476.387 345.068 475.873 345.856 475.315C355.86 468.28 361.553 461.706 369.61 453.98L364.935 447.884Z" fill="#E8A395"/>
<path d="M372.911 453.803C375.126 452.812 377.208 451.547 379.109 450.037C379.352 449.863 379.562 449.647 379.728 449.399C379.816 449.27 379.867 449.12 379.878 448.964C379.889 448.809 379.859 448.653 379.79 448.513C379.534 448.026 378.834 448.052 378.294 448.168C376.81 448.441 375.349 448.823 373.921 449.311C375.691 447.937 377.515 446.555 379.233 445.111C379.527 444.889 379.779 444.616 379.976 444.305C380.072 444.149 380.122 443.969 380.122 443.786C380.122 443.603 380.072 443.424 379.976 443.268C379.868 443.128 379.726 443.018 379.563 442.95C379.4 442.882 379.222 442.857 379.047 442.878C378.689 442.945 378.347 443.077 378.037 443.268C376.116 444.154 374.213 445.04 372.283 445.926C374.269 444.116 376.113 442.155 377.798 440.061C378.005 439.818 378.164 439.538 378.268 439.237C378.326 439.091 378.341 438.933 378.312 438.779C378.283 438.625 378.211 438.482 378.104 438.368C377.998 438.254 377.86 438.172 377.709 438.133C377.558 438.094 377.398 438.099 377.249 438.147C376.958 438.227 376.683 438.356 376.435 438.528C373.988 440.044 371.701 441.805 369.609 443.782C371.064 441.809 372.319 439.696 373.354 437.474C373.558 437.039 373.743 436.49 373.46 436.109C373.327 435.965 373.152 435.866 372.96 435.826C372.768 435.786 372.568 435.808 372.389 435.888C372.043 436.06 371.74 436.308 371.504 436.614C368.49 439.856 365.845 443.422 363.615 447.246C363.205 445.444 362.332 443.779 361.083 442.417C360.676 442.028 360.012 441.7 359.569 442.063C359.436 442.215 359.339 442.395 359.285 442.59C359.232 442.785 359.223 442.99 359.259 443.188C359.304 444.898 359.357 446.608 359.41 448.318C359.405 449.95 359.556 451.579 359.862 453.182C360.167 454.776 360.913 456.252 362.013 457.444C362.694 458.138 363.533 458.656 364.458 458.954C365.384 459.252 366.367 459.321 367.325 459.154C368.605 458.871 369.776 458.225 370.698 457.293C371.591 456.236 372.336 455.062 372.911 453.803V453.803Z" fill="#E8A395"/>
<path d="M302.528 412.922C297.694 404.062 280.704 407.093 279.385 414.136C276.667 428.631 278.739 434.576 282.758 437.996C287.424 441.957 290.266 439.44 290.266 448.681C282.245 476.52 298.234 453.749 300.828 448.894C300.676 442.5 302.038 436.161 304.803 430.394C304.803 430.394 304.555 416.573 302.528 412.922Z" fill="#E8A395"/>
<path d="M278.092 417.512C277.986 416.201 278.243 413.578 280.89 409.972C283.378 406.579 290.629 405.737 296.826 406.88C303.023 408.023 305.679 410.699 305.892 415.137C306.104 419.576 306.547 425.096 306.547 425.096L304.148 426.921C300.394 424.423 300.757 414.881 300.757 414.881C298.976 416.351 296.838 417.324 294.56 417.698C293.934 417.854 293.285 417.887 292.647 417.795C292.327 417.746 292.022 417.625 291.754 417.443C291.486 417.26 291.262 417.021 291.098 416.741C290.079 417.636 288.794 418.172 287.441 418.267C286.088 418.361 284.742 418.009 283.608 417.264C282.754 417.678 281.824 417.914 280.876 417.956C279.927 417.999 278.98 417.848 278.092 417.512V417.512Z" fill="#5B3D31"/>
<path d="M308.53 430.705C307.069 432.477 304.776 432.92 303.395 431.759C302.014 430.598 302.076 428.215 303.536 426.523C304.997 424.83 307.29 424.308 308.671 425.468C310.052 426.629 309.982 428.968 308.53 430.705Z" fill="#E8A395"/>
<path d="M307.715 426.319C307.373 426.149 306.995 426.06 306.613 426.06C306.23 426.06 305.853 426.149 305.511 426.319C305.163 426.455 304.857 426.682 304.625 426.974C304.506 427.138 304.427 427.328 304.397 427.529C304.366 427.729 304.383 427.934 304.448 428.126C304.583 428.416 304.794 428.664 305.059 428.844C305.216 428.957 305.354 429.094 305.466 429.251C305.53 429.369 305.556 429.504 305.539 429.636C305.522 429.769 305.464 429.893 305.373 429.991C305.282 430.089 305.163 430.156 305.032 430.182C304.901 430.208 304.765 430.193 304.643 430.137C304.574 430.107 304.495 430.105 304.424 430.131C304.353 430.158 304.295 430.211 304.262 430.279C304.232 430.347 304.23 430.425 304.257 430.494C304.283 430.564 304.336 430.62 304.404 430.651C304.559 430.725 304.728 430.762 304.9 430.758C305.066 430.757 305.231 430.722 305.383 430.655C305.535 430.588 305.672 430.49 305.785 430.368C305.954 430.176 306.059 429.937 306.086 429.683C306.113 429.429 306.06 429.173 305.936 428.95C305.793 428.729 305.61 428.536 305.396 428.383C305.217 428.259 305.068 428.095 304.962 427.905C304.929 427.8 304.922 427.688 304.942 427.58C304.962 427.472 305.008 427.371 305.077 427.285C305.138 427.202 305.21 427.128 305.289 427.063C305.587 427.05 305.878 427.152 306.104 427.347C306.206 427.457 306.281 427.59 306.324 427.734C306.367 427.879 306.376 428.031 306.352 428.179C306.341 428.254 306.361 428.33 306.405 428.392C306.45 428.453 306.516 428.494 306.591 428.507H306.635C306.703 428.508 306.769 428.484 306.821 428.44C306.873 428.396 306.908 428.335 306.918 428.268C306.956 428.034 306.94 427.795 306.873 427.568C306.806 427.341 306.688 427.132 306.529 426.957C306.404 426.838 306.261 426.742 306.104 426.673C306.53 426.538 306.992 426.57 307.396 426.762C307.633 426.882 307.82 427.083 307.922 427.328C308.024 427.573 308.035 427.847 307.954 428.1C307.938 428.133 307.928 428.169 307.926 428.206C307.924 428.242 307.929 428.279 307.942 428.314C307.954 428.349 307.973 428.381 307.998 428.408C308.023 428.435 308.053 428.457 308.087 428.472C308.121 428.488 308.157 428.498 308.195 428.5C308.232 428.502 308.27 428.497 308.305 428.485C308.34 428.473 308.373 428.453 308.401 428.428C308.429 428.403 308.452 428.373 308.468 428.339C308.602 427.968 308.6 427.561 308.462 427.191C308.324 426.821 308.059 426.512 307.715 426.319V426.319Z" fill="#C16B5B"/>
<path d="M292.443 426.266C292.443 426.492 292.376 426.713 292.251 426.901C292.125 427.089 291.947 427.235 291.738 427.322C291.53 427.408 291.3 427.431 291.078 427.387C290.857 427.342 290.653 427.234 290.494 427.074C290.334 426.914 290.225 426.71 290.181 426.489C290.137 426.267 290.16 426.037 290.246 425.828C290.333 425.619 290.479 425.441 290.667 425.315C290.855 425.19 291.075 425.123 291.301 425.123C291.603 425.125 291.893 425.246 292.106 425.46C292.32 425.674 292.441 425.963 292.443 426.266V426.266Z" fill="#1B1B28"/>
<path d="M290.885 426.372C291.115 426.372 291.301 426.186 291.301 425.956C291.301 425.726 291.115 425.539 290.885 425.539C290.655 425.539 290.469 425.726 290.469 425.956C290.469 426.186 290.655 426.372 290.885 426.372Z" fill="white"/>
<path d="M283.59 426.266C283.592 426.494 283.526 426.717 283.4 426.908C283.275 427.098 283.096 427.248 282.886 427.336C282.675 427.425 282.444 427.449 282.22 427.405C281.996 427.362 281.79 427.253 281.628 427.092C281.467 426.931 281.356 426.726 281.311 426.502C281.266 426.279 281.288 426.047 281.375 425.836C281.462 425.625 281.609 425.444 281.799 425.317C281.988 425.19 282.211 425.123 282.439 425.123C282.743 425.123 283.034 425.243 283.25 425.457C283.465 425.671 283.588 425.962 283.59 426.266V426.266Z" fill="#1B1B28"/>
<path d="M282.024 426.372C282.253 426.372 282.44 426.186 282.44 425.956C282.44 425.726 282.253 425.539 282.024 425.539C281.794 425.539 281.607 425.726 281.607 425.956C281.607 426.186 281.794 426.372 282.024 426.372Z" fill="white"/>
<path d="M284.352 421.783C283.663 421.286 282.826 421.039 281.978 421.08C281.131 421.122 280.322 421.451 279.686 422.013C279.564 422.136 279.488 422.297 279.471 422.47C279.453 422.642 279.495 422.815 279.588 422.961C279.63 423.029 279.686 423.086 279.753 423.129C279.819 423.173 279.894 423.201 279.973 423.212C280.052 423.223 280.132 423.217 280.208 423.193C280.283 423.17 280.353 423.13 280.412 423.076C280.678 422.843 280.989 422.666 281.325 422.555C281.661 422.444 282.016 422.401 282.368 422.429C282.723 422.458 283.068 422.554 283.387 422.713C283.67 422.855 283.944 423.103 284.272 422.917C284.348 422.871 284.412 422.807 284.458 422.731C284.554 422.585 284.596 422.411 284.576 422.237C284.557 422.064 284.477 421.903 284.352 421.783V421.783Z" fill="#5B3D31"/>
<path d="M288.822 421.782C289.631 421.291 290.567 421.051 291.513 421.092C292.458 421.133 293.37 421.454 294.134 422.013C294.275 422.123 294.366 422.285 294.388 422.463C294.409 422.641 294.359 422.82 294.249 422.961C294.139 423.102 293.977 423.193 293.799 423.215C293.622 423.236 293.443 423.186 293.302 423.076C292.654 422.605 291.86 422.379 291.062 422.438C290.66 422.467 290.266 422.56 289.893 422.713C289.566 422.855 289.247 423.094 288.884 422.917C288.795 422.875 288.719 422.811 288.663 422.73C288.61 422.658 288.572 422.576 288.552 422.489C288.532 422.402 288.529 422.311 288.544 422.223C288.558 422.135 288.591 422.05 288.638 421.975C288.686 421.899 288.749 421.834 288.822 421.782V421.782Z" fill="#5B3D31"/>
<path d="M286.423 432.787C285.759 432.791 285.105 432.629 284.519 432.317C284.45 432.28 284.389 432.231 284.339 432.17C284.289 432.11 284.252 432.04 284.229 431.965C284.205 431.89 284.197 431.812 284.205 431.734C284.212 431.656 284.235 431.58 284.271 431.511C284.308 431.442 284.358 431.38 284.418 431.33C284.479 431.28 284.548 431.243 284.623 431.22C284.698 431.197 284.776 431.189 284.854 431.196C284.932 431.203 285.008 431.226 285.077 431.263C285.685 431.559 286.372 431.652 287.037 431.528C287.702 431.403 288.309 431.068 288.769 430.572C288.869 430.462 289.006 430.393 289.154 430.379C289.302 430.364 289.45 430.405 289.569 430.493C289.689 430.581 289.772 430.71 289.802 430.855C289.833 431 289.808 431.152 289.734 431.28C289.327 431.76 288.819 432.143 288.246 432.403C287.674 432.664 287.051 432.795 286.423 432.787V432.787Z" fill="#C16B5B"/>
<path d="M285.007 429.376C284.975 429.377 284.943 429.367 284.917 429.347C284.892 429.328 284.873 429.3 284.865 429.269C284.582 428.295 284.918 427.958 285.246 427.852C285.451 427.807 285.663 427.807 285.868 427.853C286.073 427.899 286.266 427.989 286.432 428.117C286.453 428.125 286.472 428.138 286.487 428.154C286.503 428.17 286.514 428.19 286.521 428.211C286.528 428.232 286.53 428.255 286.528 428.277C286.525 428.299 286.517 428.321 286.505 428.339C286.493 428.358 286.477 428.374 286.458 428.386C286.439 428.398 286.417 428.405 286.395 428.408C286.373 428.41 286.35 428.408 286.329 428.4C286.308 428.393 286.289 428.381 286.273 428.365C286.142 428.262 285.99 428.188 285.828 428.15C285.666 428.112 285.497 428.11 285.334 428.144C285.042 428.233 284.98 428.587 285.157 429.189C285.166 429.228 285.16 429.269 285.14 429.303C285.12 429.337 285.089 429.363 285.051 429.376H285.007Z" fill="#C16B5B"/>
<path d="M201.414 692.11C201.723 693.705 183.778 692.261 182.963 691.747C182.698 691.587 182.556 691.065 182.485 690.418V690.205V690.099C182.397 689.151 182.388 687.786 182.388 687.051C182.388 686.714 182.388 686.502 182.388 686.502L188.966 685.226C190.956 685.618 192.913 686.166 194.818 686.865C195.883 687.25 196.916 687.718 197.908 688.265L198.164 688.415C199.411 689.049 200.448 690.031 201.148 691.242L201.21 691.366C201.313 691.603 201.381 691.854 201.414 692.11V692.11Z" fill="#FD9206"/>
<path d="M201.414 692.11C201.724 693.705 183.778 692.261 182.963 691.747C182.698 691.587 182.556 691.065 182.485 690.418V690.205V690.099C188.637 691.304 194.917 691.724 201.175 691.348C201.292 691.589 201.372 691.846 201.414 692.11V692.11Z" fill="#602323"/>
<path d="M188.93 685.226C187.478 686.759 184.698 686.555 182.352 686.51C182.007 685.189 181.738 683.849 181.546 682.497L181.44 681.903C181.334 681.265 181.245 680.512 181.166 679.688C180.814 676.023 180.705 672.338 180.838 668.658C179.43 665.291 177.128 658.734 174.508 647.057L190.966 649.086C190.966 649.086 190.346 652.754 189.736 668.64C189.688 671.002 189.635 673.07 189.576 674.842C189.576 676.047 189.426 677.81 189.337 679.201C189.293 679.874 189.249 680.459 189.231 680.858C189.236 680.884 189.236 680.911 189.231 680.937C189.072 683.87 188.93 685.226 188.93 685.226Z" fill="#EFAD9C"/>
<path d="M141.928 690.808C140.503 691.57 136.616 673.974 136.891 673.043C136.97 672.742 137.431 672.45 138.033 672.157L138.219 672.078H138.281C139.166 671.723 140.468 671.316 141.176 671.094L141.689 670.926L144.832 676.853C145.039 678.872 145.089 680.904 144.983 682.931C144.917 684.063 144.769 685.188 144.54 686.298C144.54 686.395 144.496 686.493 144.469 686.59C144.232 687.967 143.598 689.245 142.645 690.267L142.539 690.365C142.357 690.54 142.152 690.689 141.928 690.808V690.808Z" fill="#FD9206"/>
<path d="M141.928 690.808C140.503 691.569 136.616 673.974 136.891 673.043C136.97 672.742 137.431 672.45 138.033 672.157L138.219 672.078H138.281C138.929 678.328 140.36 684.471 142.539 690.365C142.357 690.54 142.152 690.689 141.928 690.808V690.808Z" fill="#602323"/>
<path d="M175.837 650.884C175.837 650.884 172.242 656.954 166.293 668.277C165.697 669.408 164.876 670.406 163.88 671.207C162.884 672.009 161.735 672.597 160.503 672.937C158.227 673.566 155.908 674.204 154.96 674.452C153.792 674.762 152.074 675.179 150.72 675.489L149.108 675.87H149.029C146.204 676.57 144.868 676.826 144.868 676.826C142.982 675.878 142.362 673.158 141.725 670.899C142.888 670.184 144.091 669.536 145.328 668.959C145.505 668.879 145.682 668.782 145.859 668.684C146.443 668.401 147.134 668.091 147.895 667.798C151.302 666.395 154.794 665.211 158.351 664.254C158.511 660.613 159.236 653.702 161.804 642.024L175.837 650.884Z" fill="#EFAD9C"/>
<path d="M187.691 551.573C190.866 552.365 193.736 554.079 195.941 556.499C198.146 558.918 199.588 561.936 200.086 565.173C201.086 572.748 196.73 580.483 197.235 588.129C197.43 590.973 198.28 593.879 197.332 596.643C196.447 599.133 194.287 601.073 191.905 602.402C185.867 605.796 178.528 605.946 171.879 604.786C169.36 604.426 166.914 603.663 164.637 602.526C162.411 601.415 160.672 599.523 159.75 597.21C158.865 594.659 159.334 591.788 160.069 589.104C160.804 586.419 161.839 583.743 161.946 580.997C161.964 578.445 161.581 575.907 160.812 573.475C160.047 571.044 159.603 568.524 159.493 565.979C159.41 563.329 160.363 560.751 162.149 558.794C163.473 557.483 165.246 556.726 167.107 556.676C167.924 556.687 168.738 556.767 169.542 556.915C170.001 556.342 170.514 555.814 171.073 555.338C174.049 553.029 177.608 551.593 181.352 551.192C183.471 550.942 185.617 551.071 187.691 551.573V551.573Z" fill="#5B3D31"/>
<path d="M195.854 660.701C193.674 661.679 191.285 662.098 188.903 661.92C186.521 661.742 184.221 660.973 182.211 659.682C179.939 661.4 177.154 662.299 174.308 662.233C171.461 662.167 168.721 661.14 166.531 659.319C164.398 660.374 162.029 660.862 159.652 660.737C157.297 660.515 154.818 659.461 153.738 657.352C156.465 648.625 157.643 639.632 159.05 630.586C163.663 600.506 164.92 598.291 165.372 596.918C165.372 596.918 181.21 592.763 190.71 599.036C190.71 599.036 189.824 608.977 191.055 632.81C191.524 642.157 193.817 651.549 195.854 660.701Z" fill="#5E80BC"/>
<path d="M192.312 600.976L203.52 608.95L214.613 600.79L218.526 604.901C218.526 604.901 209.983 614.806 205.246 617.544C204.918 617.737 204.548 617.848 204.167 617.868C203.787 617.888 203.407 617.817 203.06 617.659C198.58 615.648 185.822 608.153 185.822 608.153L192.312 600.976Z" fill="#EFAD9C"/>
<path d="M227.442 602.261C226.504 601.862 225.017 600.87 224.105 600.409C225.305 600.534 226.511 600.584 227.717 600.56C228.08 600.498 228.514 600.409 228.549 600.01C228.568 599.831 228.52 599.651 228.413 599.505C228.307 599.359 228.15 599.258 227.974 599.222C226.584 599.062 224.848 598.681 223.467 598.46C225.02 598.023 226.509 597.383 227.894 596.555C228.213 596.351 228.487 595.988 228.337 595.669C228.186 595.35 227.876 595.306 227.513 595.385L221.971 596.626L222.856 595.74L225.619 593.153C225.746 593.021 225.821 592.848 225.829 592.665C225.836 592.482 225.776 592.302 225.66 592.161C225.544 592.02 225.38 591.926 225.199 591.898C225.018 591.87 224.834 591.91 224.68 592.01C221.934 593.771 219.326 595.741 216.88 597.902L216.376 598.327C216.375 597.48 216.136 596.651 215.685 595.935C215.342 595.371 214.808 594.949 214.18 594.747C213.834 594.657 213.465 594.704 213.153 594.88C212.965 595 212.82 595.178 212.742 595.388C212.664 595.597 212.656 595.827 212.719 596.041C212.774 596.193 212.855 596.334 212.958 596.457L213.038 596.555L213.127 596.688C213.162 596.738 213.191 596.791 213.215 596.847V596.847C213.215 596.971 213.295 597.104 213.33 597.237C213.366 597.37 213.33 597.281 213.33 597.29C213.33 597.299 213.33 597.397 213.33 597.45C213.33 597.503 213.33 597.707 213.33 597.84C213.33 597.972 213.33 598.362 213.33 598.619C213.209 599.868 213.274 601.128 213.525 602.358C213.834 603.717 214.663 604.901 215.836 605.654C215.932 605.713 216.042 605.743 216.154 605.743C216.857 605.981 217.607 606.047 218.341 605.935C219.074 605.822 219.77 605.534 220.369 605.096C221.597 604.272 222.613 603.171 223.335 601.88C224.432 602.47 225.557 603.002 226.708 603.474C226.883 603.563 227.087 603.581 227.275 603.523C227.463 603.465 227.621 603.337 227.717 603.164C227.783 603.005 227.791 602.828 227.741 602.663C227.691 602.499 227.586 602.356 227.442 602.261V602.261Z" fill="#EFAD9C"/>
<path d="M190.683 599.018L199.253 605.441L193.888 613.956L184.557 608.587L187.673 600.117L190.683 599.018Z" fill="#5E80BC"/>
<path d="M166.115 607.727L156.376 617.473L162.574 629.789L157.864 632.961C157.864 632.961 149.559 622.851 147.665 617.757C147.528 617.4 147.48 617.016 147.523 616.637C147.566 616.258 147.7 615.894 147.913 615.577C150.648 611.502 160.405 600.453 160.405 600.453L166.115 607.727Z" fill="#EFAD9C"/>
<path d="M158.891 642.157C159.44 641.271 160.662 640.004 161.272 639.18C160.948 640.345 160.696 641.528 160.52 642.724C160.52 643.096 160.52 643.539 160.918 643.61C161.093 643.661 161.281 643.644 161.444 643.564C161.608 643.484 161.736 643.346 161.804 643.176C162.184 641.829 162.857 640.182 163.309 638.861C163.48 640.458 163.861 642.025 164.442 643.522C164.584 643.858 164.902 644.195 165.256 644.098C165.611 644 165.69 643.708 165.672 643.336C165.584 641.448 165.487 639.552 165.398 637.656L166.08 638.684L168.16 641.838C168.269 641.983 168.426 642.083 168.603 642.12C168.779 642.156 168.964 642.128 169.121 642.039C169.278 641.95 169.397 641.807 169.457 641.636C169.516 641.466 169.512 641.279 169.444 641.112C168.176 638.104 166.679 635.198 164.964 632.42L164.628 631.853C165.464 631.993 166.322 631.898 167.107 631.578C167.715 631.331 168.217 630.876 168.523 630.294C168.66 629.962 168.66 629.589 168.523 629.257C168.439 629.051 168.289 628.879 168.097 628.766C167.905 628.654 167.681 628.609 167.461 628.637C167.298 628.658 167.141 628.712 167 628.796L166.894 628.858L166.753 628.92L166.576 628.982H166.522C166.39 628.982 166.257 628.982 166.115 629.036H165.903H165.513C165.257 628.999 165.003 628.949 164.752 628.885C163.54 628.56 162.287 628.414 161.033 628.451C159.642 628.524 158.335 629.141 157.395 630.17C157.316 630.252 157.267 630.358 157.253 630.471C156.901 631.124 156.711 631.852 156.699 632.593C156.687 633.335 156.852 634.068 157.182 634.733C157.779 636.085 158.69 637.275 159.838 638.206C159.077 639.192 158.36 640.211 157.687 641.262C157.571 641.421 157.521 641.619 157.548 641.814C157.574 642.009 157.675 642.186 157.828 642.308C157.908 642.369 157.998 642.413 158.095 642.438C158.192 642.464 158.292 642.469 158.391 642.455C158.49 642.441 158.585 642.408 158.671 642.357C158.757 642.305 158.831 642.238 158.891 642.157V642.157Z" fill="#EFAD9C"/>
<path d="M152.321 607.648L159.563 615.338L167.735 607.789L165.345 596.9C165.345 596.9 158.864 599.363 152.321 607.648Z" fill="#5E80BC"/>
<path d="M170.525 562.975C175.173 553.628 192.861 556.1 194.499 563.33C197.872 578.215 195.969 584.443 191.932 588.138C187.275 592.417 182.981 591.611 182.441 595.527C181.45 602.314 173.588 601.073 173.756 595.04C173.464 583.637 168.851 581.13 168.851 581.13C168.851 581.13 168.603 566.83 170.525 562.975Z" fill="#EFAD9C"/>
<path d="M180.431 577.001C180.438 577.225 180.512 577.443 180.643 577.625C180.773 577.808 180.955 577.947 181.165 578.026C181.376 578.105 181.604 578.12 181.823 578.069C182.041 578.017 182.24 577.902 182.393 577.738C182.546 577.573 182.647 577.367 182.682 577.145C182.718 576.924 182.687 576.696 182.594 576.492C182.5 576.288 182.348 576.116 182.157 575.998C181.966 575.881 181.744 575.823 181.52 575.831C181.222 575.845 180.941 575.975 180.737 576.194C180.534 576.412 180.424 576.702 180.431 577.001V577.001Z" fill="#1B1B28"/>
<path d="M181.547 576.646C181.549 576.729 181.575 576.809 181.623 576.877C181.67 576.945 181.737 576.997 181.814 577.026C181.891 577.056 181.976 577.062 182.056 577.043C182.137 577.025 182.21 576.982 182.267 576.922C182.323 576.862 182.36 576.786 182.374 576.704C182.387 576.623 182.376 576.539 182.341 576.464C182.307 576.388 182.251 576.325 182.18 576.282C182.11 576.239 182.028 576.218 181.945 576.221C181.837 576.226 181.734 576.273 181.659 576.352C181.585 576.432 181.545 576.538 181.547 576.646V576.646Z" fill="white"/>
<path d="M190.816 576.859C190.823 577.084 190.897 577.301 191.028 577.483C191.158 577.666 191.34 577.806 191.55 577.885C191.761 577.963 191.989 577.978 192.208 577.927C192.426 577.875 192.625 577.76 192.778 577.596C192.931 577.432 193.032 577.226 193.067 577.004C193.103 576.782 193.072 576.555 192.979 576.35C192.885 576.146 192.733 575.974 192.542 575.857C192.351 575.739 192.129 575.681 191.905 575.69C191.606 575.701 191.324 575.831 191.12 576.05C190.916 576.269 190.806 576.56 190.816 576.859V576.859Z" fill="#1B1B28"/>
<path d="M191.931 576.514C191.935 576.596 191.962 576.675 192.011 576.742C192.06 576.808 192.127 576.859 192.204 576.887C192.281 576.915 192.365 576.92 192.445 576.9C192.525 576.881 192.598 576.838 192.653 576.777C192.709 576.717 192.745 576.641 192.758 576.559C192.771 576.478 192.759 576.395 192.724 576.32C192.69 576.245 192.634 576.183 192.563 576.14C192.493 576.097 192.412 576.076 192.329 576.079C192.275 576.082 192.221 576.095 192.172 576.118C192.122 576.141 192.077 576.174 192.04 576.214C192.003 576.254 191.975 576.301 191.956 576.353C191.937 576.404 191.929 576.459 191.931 576.514V576.514Z" fill="white"/>
<path d="M189.63 572.553C190.287 572.038 191.101 571.762 191.936 571.772C192.772 571.782 193.579 572.076 194.224 572.606C194.34 572.719 194.416 572.866 194.442 573.026C194.467 573.185 194.441 573.349 194.366 573.492C194.326 573.56 194.272 573.619 194.208 573.664C194.143 573.709 194.069 573.739 193.992 573.753C193.914 573.766 193.835 573.763 193.759 573.742C193.683 573.722 193.612 573.685 193.552 573.634C193.002 573.198 192.301 572.997 191.604 573.076C191.256 573.113 190.919 573.218 190.612 573.386C190.338 573.537 190.081 573.785 189.727 573.616C189.648 573.575 189.581 573.514 189.532 573.439C189.448 573.302 189.412 573.14 189.429 572.979C189.447 572.819 189.517 572.669 189.63 572.553V572.553Z" fill="#5B3D31"/>
<path d="M183.406 572.854C182.589 572.394 181.653 572.187 180.718 572.261C179.783 572.336 178.891 572.687 178.156 573.271C178.025 573.387 177.943 573.549 177.928 573.724C177.913 573.899 177.966 574.073 178.077 574.21C178.19 574.342 178.35 574.425 178.523 574.442C178.697 574.458 178.87 574.407 179.006 574.299C179.627 573.809 180.403 573.557 181.193 573.59C181.589 573.601 181.98 573.676 182.353 573.811C182.68 573.935 182.999 574.166 183.353 573.971C183.436 573.923 183.508 573.86 183.566 573.785C183.666 573.64 183.706 573.461 183.676 573.287C183.646 573.113 183.549 572.958 183.406 572.854V572.854Z" fill="#5B3D31"/>
<path d="M188.691 579.969C188.723 579.968 188.754 579.955 188.778 579.934C188.802 579.914 188.818 579.885 188.824 579.854C189.072 578.888 188.727 578.569 188.399 578.481C188.198 578.441 187.99 578.446 187.791 578.497C187.592 578.547 187.406 578.642 187.248 578.773C187.223 578.797 187.208 578.829 187.204 578.864C187.2 578.898 187.208 578.933 187.227 578.962C187.246 578.991 187.274 579.013 187.307 579.023C187.34 579.034 187.375 579.033 187.408 579.021C187.529 578.919 187.671 578.844 187.823 578.8C187.976 578.756 188.136 578.743 188.293 578.764C188.585 578.844 188.665 579.189 188.514 579.783C188.509 579.802 188.507 579.821 188.51 579.84C188.513 579.859 188.519 579.878 188.529 579.895C188.539 579.911 188.552 579.925 188.568 579.937C188.584 579.948 188.602 579.956 188.62 579.96L188.691 579.969Z" fill="#7C3F24"/>
<path d="M195.809 579.712C195.809 580.146 195.137 580.536 194.26 580.598C193.384 580.66 192.658 580.315 192.64 579.871C192.622 579.428 193.313 579.048 194.189 578.985C195.066 578.923 195.792 579.242 195.809 579.712Z" fill="#E58F8F"/>
<path d="M181.352 580.43C181.352 580.864 180.644 581.218 179.767 581.218C178.891 581.218 178.174 580.864 178.174 580.43C178.174 579.996 178.891 579.632 179.767 579.632C180.644 579.632 181.352 579.996 181.352 580.43Z" fill="#E58F8F"/>
<path d="M185.035 581.209C185.318 580.704 186.195 581.156 187.195 581.209C188.196 581.263 189.09 580.775 189.364 581.298C189.71 581.954 188.816 583.566 187.169 583.548C185.522 583.531 184.699 581.865 185.035 581.209Z" fill="#8E4136"/>
<path d="M185.186 582.29C185.521 582.254 185.858 582.236 186.195 582.237C187.121 582.192 188.041 582.407 188.851 582.857C188.594 583.107 188.283 583.293 187.942 583.402C187.601 583.511 187.239 583.539 186.886 583.484C186.532 583.429 186.196 583.293 185.904 583.085C185.612 582.878 185.372 582.606 185.203 582.29H185.186Z" fill="#C16B5B"/>
<path d="M187.221 581.732C186.864 581.779 186.501 581.739 186.163 581.614C185.825 581.489 185.523 581.283 185.282 581.014C185.681 580.864 186.415 581.165 187.221 581.174C188.027 581.183 188.77 580.899 189.16 581.059C188.917 581.321 188.612 581.52 188.274 581.637C187.936 581.755 187.575 581.787 187.221 581.732Z" fill="white"/>
<path d="M195.818 567.76C195.818 567.76 195.898 564.437 192.782 559.086C190.586 555.329 182.556 555.09 176.217 556.508C169.878 557.925 167.213 560.805 167.178 565.368C167.142 569.93 166.886 575.698 166.886 575.698L169.436 577.47C171.552 574.994 172.835 571.912 173.101 568.664C175.36 569.055 177.683 568.81 179.81 567.953C181.936 567.097 183.783 565.665 185.141 563.817C186.175 565.501 187.729 566.801 189.568 567.521C191.578 568.238 193.76 568.321 195.818 567.76V567.76Z" fill="#5B3D31"/>
<path d="M165.009 581.608C166.576 583.38 168.975 583.743 170.321 582.494C171.666 581.245 171.578 578.826 169.984 577.054C168.391 575.282 166.009 574.919 164.628 576.168C163.247 577.417 163.433 579.863 165.009 581.608Z" fill="#EFAD9C"/>
<path d="M165.672 577.054C166.024 576.873 166.413 576.775 166.809 576.768C167.205 576.76 167.597 576.843 167.956 577.01C168.302 577.146 168.607 577.368 168.842 577.657C168.973 577.818 169.064 578.008 169.109 578.211C169.154 578.414 169.15 578.625 169.098 578.826C168.969 579.129 168.761 579.392 168.496 579.588C168.338 579.713 168.2 579.862 168.089 580.031C168.029 580.156 168.007 580.297 168.028 580.434C168.048 580.572 168.11 580.7 168.204 580.802C168.303 580.901 168.43 580.968 168.568 580.992C168.706 581.016 168.848 580.996 168.974 580.935C169.009 580.916 169.046 580.905 169.085 580.901C169.124 580.897 169.163 580.901 169.2 580.913C169.237 580.925 169.271 580.943 169.301 580.968C169.331 580.993 169.355 581.024 169.373 581.059C169.391 581.094 169.402 581.132 169.405 581.171C169.408 581.21 169.403 581.249 169.391 581.286C169.379 581.323 169.359 581.358 169.333 581.387C169.307 581.417 169.275 581.441 169.24 581.457C169.083 581.538 168.911 581.583 168.735 581.59C168.559 581.595 168.384 581.564 168.22 581.5C168.056 581.437 167.906 581.341 167.779 581.218C167.596 581.025 167.478 580.779 167.442 580.516C167.405 580.252 167.452 579.983 167.576 579.747C167.717 579.518 167.896 579.314 168.107 579.145C168.294 579.015 168.444 578.838 168.541 578.631C168.568 578.523 168.57 578.409 168.545 578.3C168.521 578.19 168.471 578.088 168.399 578.002C168.331 577.92 168.254 577.845 168.169 577.781C167.861 577.779 167.564 577.893 167.337 578.1C167.236 578.222 167.164 578.364 167.124 578.517C167.084 578.67 167.078 578.83 167.106 578.986C167.114 579.023 167.114 579.062 167.107 579.1C167.099 579.138 167.085 579.174 167.063 579.206C167.042 579.238 167.014 579.266 166.982 579.287C166.95 579.309 166.914 579.324 166.876 579.331V579.331C166.806 579.331 166.739 579.307 166.684 579.264C166.63 579.22 166.591 579.16 166.575 579.092C166.528 578.851 166.536 578.603 166.597 578.365C166.658 578.128 166.772 577.907 166.929 577.719C167.048 577.585 167.193 577.476 167.354 577.4C166.909 577.285 166.437 577.335 166.026 577.541C165.784 577.673 165.597 577.889 165.501 578.148C165.405 578.407 165.406 578.692 165.504 578.95C165.53 578.985 165.547 579.026 165.556 579.069C165.564 579.112 165.563 579.156 165.553 579.199C165.542 579.241 165.523 579.281 165.496 579.315C165.468 579.349 165.434 579.377 165.395 579.397C165.356 579.416 165.313 579.427 165.269 579.428C165.226 579.43 165.182 579.421 165.142 579.404C165.102 579.387 165.066 579.361 165.037 579.329C165.007 579.296 164.986 579.258 164.973 579.216C164.806 578.832 164.786 578.401 164.915 578.003C165.043 577.605 165.313 577.268 165.672 577.054V577.054Z" fill="#C16B5B"/>
<path d="M394.912 536.732C398.852 636.035 395.16 681.522 395.16 681.522C399.153 683.649 401.455 684.304 405.031 681.726C412.716 627.964 422.118 559.104 423.083 559.068L420.675 535.35L394.912 536.732Z" fill="#EFAD9C"/>
<path d="M426.784 692.039C410.202 694.006 401.791 690.099 401.791 690.099V692.305L395.983 691.64C395.983 691.64 394.133 687.21 394.823 682.993C394.898 682.494 395.014 682.002 395.169 681.522L405.067 681.407C407.56 683.186 410.393 684.431 413.389 685.066C420.1 686.697 426.81 687.458 426.784 692.039Z" fill="#0E2A3A"/>
<path d="M410.184 687.015C406.12 687.015 397.586 684.003 394.814 682.993C394.89 682.494 395.005 682.002 395.16 681.522C398.403 680.697 401.796 680.658 405.058 681.407C407.552 683.184 410.385 684.43 413.38 685.066C413.583 685.899 413.318 687.042 410.184 687.015Z" fill="#EFAD9C"/>
<path d="M397.24 510.958C397.24 510.958 392.326 518.516 391.184 539.186C390.042 559.857 392.371 664.998 392.371 664.998L412.14 666.15L423.34 559.697L420.684 509.505L397.24 510.958Z" fill="#32547C"/>
<path d="M462.321 692.695C445.686 694.254 437.372 690.134 437.372 690.134L437.31 692.34L431.52 691.525C431.52 691.525 429.75 687.033 430.582 682.851C430.673 682.355 430.8 681.867 430.963 681.389L440.843 681.522C443.298 683.366 446.107 684.684 449.094 685.394C455.77 687.193 462.463 688.114 462.321 692.695Z" fill="#0E2A3A"/>
<path d="M445.845 687.264C441.782 687.131 433.335 683.932 430.582 682.834C430.673 682.338 430.801 681.849 430.963 681.372L440.843 681.505C443.299 683.348 446.107 684.666 449.094 685.376C449.271 686.227 448.979 687.361 445.845 687.264Z" fill="#EFAD9C"/>
<path d="M458.984 618.04C453.964 637.532 447.094 662.597 440.64 683.383C436.461 684.863 434.195 684.535 430.963 681.389C430.963 681.389 436.125 648.466 441.162 609.836C436.328 594.526 431.06 578.33 425.837 563.162L419.64 540.126L442.419 535.084C442.419 535.084 451.016 562.692 459.347 600.914C460.564 606.573 460.44 612.438 458.984 618.04V618.04Z" fill="#EFAD9C"/>
<path d="M423.871 561.558L439.293 609.296L430.582 666.797H449.129C449.129 666.797 462.409 612.618 462.321 606.487C462.232 600.356 447.288 533.64 438.842 511.49H417.319L419.391 545.317L423.871 561.558Z" fill="#32547C"/>
<path d="M435.876 427.754C435.46 424.015 436.461 420.223 436.089 416.475C435.46 410.078 430.556 404.426 424.42 402.521C418.285 400.616 409.821 402.06 406.439 406.614C400.498 406.915 397.78 411.292 396.842 416.05C396.134 419.594 396.966 423.306 397.001 426.948C397.072 435.737 390.857 444.243 393.203 452.713C393.795 454.609 394.756 456.369 396.033 457.89C397.31 459.411 398.876 460.663 400.64 461.573C404.183 463.378 408.086 464.362 412.061 464.452C417.675 464.735 423.291 463.929 428.599 462.078C431.795 460.953 434.991 459.358 436.992 456.611C439.905 452.615 439.648 447.131 438.515 442.311C437.348 437.515 436.467 432.654 435.876 427.754V427.754Z" fill="#5B3D31"/>
<path d="M450.086 485.415C446.253 477.795 440.985 461.077 440.985 461.077C436.195 460.979 426.244 463.655 428.44 472.825C431.22 480.852 437.488 488.215 439.4 490.793C439.672 491.195 439.967 491.593 440.286 491.989C440.843 492.707 441.445 493.425 442.056 494.133C450.281 503.197 457.505 508.035 466.164 515.069L471.644 509.612C471.644 509.612 458.373 495.746 450.086 485.415Z" fill="#E8A395"/>
<path d="M433.406 451.889C436.876 454.416 439.748 457.677 441.816 461.44C444.782 467.243 449.9 483.9 449.9 483.9L465.658 502.506C465.658 502.506 465.517 508.628 458.186 509.452C458.186 509.452 443.375 498.147 434.911 486.416C426.447 474.686 427.279 453.953 427.279 453.953L433.406 451.889Z" fill="#42669B"/>
<path d="M466.66 508.548C466.66 508.548 480.966 510.276 481.002 511.765C481.037 513.253 476.035 513.802 476.035 513.802C476.035 513.802 479.302 520.625 477.31 521.422C475.318 522.219 474.654 520.075 474.654 520.075C474.654 520.075 475.3 522.406 473.999 522.804C472.538 523.256 471.591 520.979 471.591 520.979C471.591 520.979 472.06 523.017 470.918 523.416C469.776 523.814 468.82 521.546 468.82 521.546C468.82 521.546 469.254 523.779 468.28 524.053C466.013 524.7 463.26 516.354 463.649 514.254C464.039 512.154 466.66 508.548 466.66 508.548Z" fill="#E8A395"/>
<path d="M497.158 517.004L449.077 531.348C447.92 531.693 447.261 532.912 447.606 534.071L456.325 563.338C456.67 564.496 457.888 565.155 459.045 564.81L507.126 550.466C508.283 550.121 508.942 548.902 508.597 547.743L499.878 518.476C499.533 517.318 498.315 516.659 497.158 517.004Z" fill="#32547C"/>
<path d="M481.919 514.053L464.189 519.413L466.428 526.83L484.158 521.47L481.919 514.053Z" stroke="#32547C" stroke-width="2.00569" stroke-linecap="round" stroke-linejoin="round"/>
<path d="M476.203 515.69C476.07 515.348 475.901 515.021 475.698 514.715C475.496 514.405 475.202 514.167 474.857 514.033C474.685 513.97 474.501 513.952 474.32 513.978C474.139 514.004 473.968 514.075 473.821 514.183C473.652 514.365 473.527 514.584 473.456 514.822C473.385 515.06 473.371 515.312 473.414 515.557C473.466 516.311 473.655 517.05 473.972 517.736C473.6 516.896 473.021 516.165 472.29 515.61C472.134 515.463 471.947 515.353 471.743 515.288C471.54 515.222 471.324 515.202 471.112 515.229C470.954 515.281 470.811 515.37 470.694 515.489C470.577 515.608 470.49 515.752 470.439 515.911C470.34 516.235 470.316 516.578 470.368 516.912C470.438 517.53 470.618 518.13 470.9 518.684C470.744 518.206 470.527 517.751 470.253 517.329C469.983 516.898 469.564 516.583 469.076 516.443C468.832 516.379 468.576 516.389 468.338 516.471C468.1 516.553 467.892 516.703 467.739 516.903C467.625 517.117 467.559 517.353 467.546 517.595C467.532 517.836 467.571 518.078 467.659 518.303C467.827 518.753 467.96 519.215 468.058 519.685C467.947 519.291 467.799 518.908 467.615 518.543C467.434 518.17 467.143 517.861 466.783 517.657C466.601 517.563 466.399 517.513 466.194 517.513C465.989 517.513 465.787 517.563 465.605 517.657C465.426 517.767 465.275 517.919 465.166 518.099C465.057 518.279 464.992 518.483 464.977 518.693C464.944 519.111 465.001 519.531 465.145 519.925L466.03 522.113L477.619 518.879L476.203 515.69Z" fill="#E8A395"/>
<path d="M465.145 519.872C465.001 519.478 464.944 519.058 464.977 518.64C464.992 518.43 465.057 518.226 465.166 518.046C465.275 517.866 465.426 517.714 465.605 517.603C465.787 517.509 465.989 517.46 466.194 517.46C466.399 517.46 466.601 517.509 466.783 517.603C467.143 517.808 467.434 518.117 467.615 518.489C467.799 518.855 467.947 519.238 468.058 519.632C467.96 519.162 467.827 518.7 467.659 518.25C467.571 518.025 467.532 517.783 467.546 517.542C467.559 517.3 467.625 517.064 467.739 516.85C467.892 516.65 468.1 516.5 468.338 516.418C468.576 516.336 468.832 516.326 469.076 516.39C469.564 516.53 469.983 516.845 470.253 517.276C470.527 517.697 470.744 518.153 470.9 518.631C470.618 518.077 470.438 517.477 470.368 516.859C470.316 516.524 470.34 516.182 470.439 515.858C470.49 515.699 470.577 515.555 470.694 515.436C470.811 515.317 470.954 515.228 471.112 515.176C471.324 515.149 471.54 515.169 471.743 515.234C471.947 515.3 472.133 515.41 472.29 515.557C473.021 516.112 473.6 516.843 473.972 517.683C473.655 516.997 473.466 516.258 473.414 515.504C473.371 515.259 473.385 515.007 473.456 514.769C473.526 514.531 473.652 514.312 473.821 514.13C473.968 514.022 474.139 513.951 474.32 513.925C474.501 513.898 474.685 513.917 474.857 513.98C475.202 514.114 475.496 514.352 475.698 514.662C475.901 514.968 476.07 515.294 476.203 515.637" stroke="#C16B5B" stroke-width="0.25" stroke-linecap="round" stroke-linejoin="round"/>
<path d="M396.921 471.106C397.807 477.388 400.02 490.155 403.65 499.121C401.198 502.914 399.04 506.889 397.196 511.012C410.839 514.095 425.748 515.512 438.807 511.525C437.658 508.262 436.343 505.059 434.867 501.93C434.867 501.93 434.548 498.838 435.929 489.349C436.027 489.172 436.089 489.083 436.089 489.083C436.745 488.256 437.318 487.366 437.797 486.425V486.425C441.401 479.337 438.337 471.487 435.779 466.694C434.893 458.472 434.052 453.608 432.937 452.075C432.361 451.366 430.573 450.613 428.307 449.993L425.358 449.328C424.384 449.142 423.402 449 422.428 448.885C417.848 448.436 413.233 448.511 408.67 449.107L407.926 449.248C403.101 450.365 398.825 450.914 395.098 453.466C395.257 453.51 395.036 458.055 396.505 470.424L396.921 471.106Z" fill="#7D98D4"/>
<path d="M409.166 449C409.166 449 420.366 487.984 419.985 527.119C419.985 527.119 398.887 527.828 390.866 520.988C390.866 520.988 399.109 503.082 398.4 493.646C397.692 484.21 391.831 457.869 393.752 454.263C395.806 450.356 409.166 449 409.166 449Z" fill="#42669B"/>
<path d="M431.406 526.242C432.716 485.778 422.473 448.859 422.473 448.859C422.473 448.859 429.635 449.355 433.407 451.889C433.407 451.889 435.071 456.514 436.328 466.419C436.328 466.419 445.757 477.937 436.328 489.579C436.328 489.579 437.213 507.122 444.712 519.632C441.211 523.359 436.489 525.704 431.406 526.242V526.242Z" fill="#42669B"/>
<path d="M433.973 456.319C435.255 459.518 436.095 462.877 436.469 466.304C438.868 469.283 440.26 472.948 440.443 476.77C440.626 480.592 439.591 484.373 437.487 487.568" stroke="#32547C" stroke-width="0.75" stroke-linecap="round" stroke-linejoin="round"/>
<path d="M377.931 482.5C382.358 479.107 391.211 474.065 396.674 470.982C398.145 470.167 399.3 468.881 399.955 467.331C400.61 465.781 400.726 464.056 400.286 462.432C399.268 458.702 397.692 454.99 395.142 453.413C389.529 456.62 377.816 464.931 372.522 468.67C370.039 470.426 367.759 472.453 365.722 474.712C365.262 475.226 364.837 475.758 364.35 476.325C363.66 477.189 363.237 478.236 363.131 479.337C363.026 480.439 363.243 481.547 363.757 482.527L364.173 483.28C365.474 485.517 366.954 487.645 368.6 489.641C369.211 490.323 369.857 490.988 370.556 491.652C379.41 500.123 386.935 504.446 396.063 510.861L401.145 505.031C401.145 505.031 386.891 492.228 377.931 482.5Z" fill="#E8A395"/>
<path d="M396.939 502.515C396.939 502.515 406.51 502.931 408.395 503.631C410.281 504.331 417.851 509.904 417.302 510.808C416.576 511.995 409.626 507.051 409.626 507.051C409.626 507.051 416.496 513.581 415.62 514.423C414.743 515.264 408.325 509.257 408.325 509.257C408.325 509.257 412.539 514.724 411.662 515.459C410.786 516.195 405.633 510.267 405.633 510.267C405.633 510.267 408.997 515.397 408.094 516.204C407.36 516.859 402.871 510.79 402.871 510.79C402.871 510.79 399.117 515.344 392.397 508.336L396.939 502.515Z" fill="#E8A395"/>
<path d="M395.744 452.456C395.744 452.456 367.591 468.927 362.013 478.247C356.435 487.568 387.918 505.944 387.918 505.944C387.918 505.944 392.867 505.253 394.699 498.023L379.303 482.615L400.171 469.246C400.171 469.246 402.411 467.474 401.127 462.264C399.843 457.054 395.744 452.456 395.744 452.456Z" fill="#42669B"/>
<path d="M408.343 412.922C413.177 404.062 430.166 407.093 431.485 414.136C434.194 428.631 432.132 434.576 428.103 437.996C423.446 441.957 420.605 439.44 420.605 448.681C428.617 476.52 412.637 453.749 410.034 448.894C410.191 442.501 408.831 436.161 406.067 430.394C406.067 430.394 406.368 416.573 408.343 412.922Z" fill="#E8A395"/>
<path d="M432.778 417.512C432.884 416.201 432.618 413.578 429.98 409.972C427.492 406.579 420.241 405.737 414.044 406.88C407.847 408.023 405.191 410.699 404.987 415.137C404.784 419.576 404.332 425.096 404.332 425.096L406.731 426.921C410.485 424.423 410.122 414.881 410.122 414.881C411.902 416.353 414.041 417.325 416.319 417.698C416.945 417.854 417.594 417.887 418.232 417.795C418.552 417.746 418.857 417.625 419.125 417.443C419.393 417.26 419.617 417.021 419.781 416.741C420.8 417.636 422.085 418.172 423.438 418.267C424.791 418.361 426.137 418.009 427.271 417.264C428.124 417.677 429.052 417.912 429.999 417.954C430.946 417.997 431.891 417.847 432.778 417.512Z" fill="#5B3D31"/>
<path d="M402.34 430.705C403.792 432.477 406.094 432.92 407.475 431.759C408.856 430.598 408.785 428.215 407.333 426.523C405.881 424.83 403.58 424.308 402.198 425.468C400.817 426.629 400.879 428.968 402.34 430.705Z" fill="#E8A395"/>
<path d="M403.154 426.319C403.497 426.149 403.874 426.06 404.256 426.06C404.639 426.06 405.016 426.149 405.358 426.319C405.692 426.458 405.983 426.685 406.2 426.974C406.331 427.148 406.415 427.352 406.445 427.568C406.474 427.784 406.448 428.004 406.368 428.206C406.233 428.496 406.022 428.744 405.757 428.924C405.598 429.034 405.46 429.172 405.35 429.331C405.286 429.45 405.259 429.586 405.274 429.72C405.288 429.854 405.342 429.981 405.429 430.084C405.523 430.182 405.645 430.249 405.777 430.276C405.91 430.303 406.048 430.289 406.173 430.235C406.241 430.205 406.318 430.203 406.388 430.229C406.458 430.256 406.514 430.309 406.545 430.377C406.561 430.41 406.571 430.446 406.573 430.483C406.575 430.519 406.57 430.556 406.557 430.591C406.545 430.626 406.526 430.658 406.501 430.685C406.476 430.712 406.446 430.734 406.412 430.749C406.257 430.823 406.088 430.859 405.916 430.855C405.75 430.853 405.586 430.818 405.434 430.751C405.281 430.684 405.144 430.587 405.031 430.465C404.861 430.274 404.756 430.034 404.73 429.779C404.705 429.525 404.761 429.269 404.889 429.048C405.026 428.825 405.207 428.632 405.42 428.481C405.604 428.359 405.756 428.195 405.863 428.002C405.891 427.897 405.895 427.786 405.875 427.679C405.855 427.572 405.812 427.47 405.748 427.382C405.683 427.3 405.609 427.225 405.527 427.16C405.229 427.149 404.939 427.251 404.712 427.444C404.614 427.557 404.541 427.69 404.498 427.834C404.456 427.977 404.444 428.128 404.464 428.277C404.477 428.351 404.46 428.427 404.417 428.488C404.374 428.55 404.308 428.592 404.234 428.605H404.181C404.114 428.605 404.049 428.581 403.998 428.537C403.948 428.493 403.915 428.432 403.907 428.365C403.869 428.132 403.884 427.892 403.952 427.665C404.019 427.438 404.137 427.229 404.296 427.054C404.417 426.932 404.562 426.835 404.721 426.771C404.294 426.636 403.833 426.667 403.428 426.859C403.178 426.967 402.977 427.166 402.865 427.415C402.754 427.665 402.74 427.947 402.826 428.206C402.842 428.24 402.852 428.276 402.853 428.313C402.855 428.35 402.849 428.388 402.835 428.422C402.822 428.457 402.802 428.489 402.776 428.516C402.75 428.543 402.719 428.564 402.685 428.578C402.652 428.594 402.616 428.604 402.579 428.606C402.542 428.608 402.505 428.603 402.471 428.591C402.436 428.578 402.404 428.559 402.377 428.534C402.35 428.509 402.328 428.479 402.313 428.445C402.155 428.05 402.155 427.61 402.311 427.215C402.468 426.819 402.769 426.499 403.154 426.319V426.319Z" fill="#C16B5B"/>
<path d="M418.418 426.266C418.416 426.494 418.482 426.717 418.608 426.908C418.733 427.098 418.912 427.248 419.122 427.336C419.332 427.425 419.564 427.449 419.788 427.405C420.012 427.362 420.218 427.253 420.38 427.092C420.541 426.931 420.652 426.726 420.697 426.502C420.742 426.279 420.72 426.047 420.633 425.836C420.546 425.625 420.399 425.444 420.209 425.317C420.02 425.19 419.797 425.123 419.569 425.123C419.265 425.123 418.974 425.243 418.758 425.457C418.543 425.671 418.42 425.962 418.418 426.266Z" fill="#1B1B28"/>
<path d="M419.568 425.956C419.568 426.038 419.593 426.118 419.638 426.187C419.684 426.255 419.749 426.309 419.825 426.34C419.901 426.372 419.985 426.38 420.066 426.364C420.146 426.348 420.221 426.308 420.279 426.25C420.337 426.192 420.377 426.118 420.393 426.037C420.409 425.956 420.4 425.872 420.369 425.796C420.337 425.72 420.284 425.655 420.216 425.609C420.147 425.564 420.067 425.539 419.984 425.539C419.93 425.539 419.876 425.55 419.825 425.571C419.775 425.592 419.729 425.622 419.69 425.661C419.652 425.7 419.621 425.746 419.6 425.796C419.579 425.847 419.568 425.901 419.568 425.956V425.956Z" fill="white"/>
<path d="M427.279 426.266C427.278 426.494 427.344 426.718 427.47 426.909C427.595 427.1 427.775 427.249 427.986 427.337C428.196 427.425 428.429 427.449 428.653 427.405C428.877 427.36 429.083 427.251 429.244 427.089C429.406 426.927 429.515 426.721 429.559 426.497C429.604 426.273 429.58 426.04 429.492 425.83C429.404 425.619 429.255 425.439 429.064 425.313C428.874 425.187 428.65 425.121 428.421 425.123C428.119 425.125 427.83 425.246 427.616 425.46C427.403 425.674 427.282 425.963 427.279 426.266V426.266Z" fill="#1B1B28"/>
<path d="M428.422 425.956C428.424 426.067 428.47 426.173 428.549 426.251C428.629 426.328 428.736 426.372 428.847 426.372C428.957 426.372 429.063 426.328 429.141 426.25C429.219 426.172 429.263 426.066 429.263 425.956C429.263 425.845 429.219 425.739 429.141 425.661C429.063 425.583 428.957 425.539 428.847 425.539C428.736 425.539 428.629 425.583 428.549 425.661C428.47 425.738 428.424 425.844 428.422 425.956V425.956Z" fill="white"/>
<path d="M426.518 421.783C427.203 421.29 428.034 421.044 428.877 421.084C429.719 421.124 430.523 421.449 431.158 422.004C431.282 422.125 431.36 422.286 431.38 422.459C431.399 422.632 431.358 422.806 431.264 422.952C431.222 423.02 431.166 423.077 431.099 423.121C431.033 423.164 430.958 423.192 430.879 423.203C430.801 423.214 430.72 423.208 430.645 423.184C430.569 423.161 430.499 423.121 430.44 423.067C430.174 422.834 429.863 422.657 429.527 422.546C429.191 422.435 428.837 422.392 428.484 422.42C428.129 422.448 427.783 422.544 427.466 422.704C427.182 422.846 426.899 423.094 426.58 422.908C426.503 422.86 426.437 422.797 426.386 422.722C426.297 422.574 426.262 422.4 426.286 422.229C426.31 422.058 426.392 421.9 426.518 421.783V421.783Z" fill="#5B3D31"/>
<path d="M422.047 421.782C421.238 421.291 420.302 421.051 419.356 421.092C418.411 421.133 417.499 421.454 416.735 422.013C416.661 422.065 416.597 422.132 416.549 422.21C416.501 422.287 416.47 422.373 416.456 422.464C416.442 422.554 416.447 422.646 416.47 422.734C416.493 422.822 416.533 422.905 416.589 422.977C416.645 423.049 416.715 423.109 416.795 423.153C416.874 423.198 416.962 423.225 417.053 423.234C417.143 423.244 417.235 423.234 417.322 423.207C417.409 423.18 417.49 423.135 417.559 423.076C418.209 422.603 419.006 422.377 419.807 422.438C420.209 422.467 420.603 422.56 420.976 422.713C421.304 422.855 421.622 423.094 421.985 422.917C422.072 422.872 422.148 422.809 422.207 422.73C422.259 422.658 422.297 422.576 422.317 422.489C422.338 422.402 422.341 422.311 422.326 422.223C422.311 422.135 422.279 422.05 422.231 421.975C422.183 421.899 422.121 421.834 422.047 421.782V421.782Z" fill="#5B3D31"/>
<path d="M424.447 432.787C425.11 432.791 425.765 432.629 426.35 432.317C426.42 432.281 426.481 432.231 426.531 432.171C426.582 432.11 426.619 432.041 426.642 431.966C426.665 431.891 426.673 431.812 426.666 431.734C426.658 431.656 426.635 431.58 426.598 431.511C426.562 431.441 426.512 431.38 426.452 431.33C426.392 431.279 426.322 431.242 426.247 431.219C426.172 431.196 426.093 431.188 426.015 431.195C425.937 431.203 425.862 431.226 425.793 431.263C425.185 431.561 424.497 431.654 423.832 431.53C423.167 431.405 422.56 431.069 422.101 430.572C422.054 430.509 421.996 430.455 421.929 430.415C421.862 430.375 421.788 430.348 421.71 430.336C421.633 430.325 421.554 430.329 421.478 430.348C421.403 430.367 421.331 430.401 421.269 430.448C421.204 430.493 421.149 430.55 421.107 430.617C421.065 430.683 421.037 430.758 421.025 430.836C421.012 430.914 421.016 430.993 421.035 431.069C421.054 431.146 421.088 431.218 421.136 431.28C421.543 431.76 422.051 432.143 422.623 432.403C423.196 432.664 423.818 432.795 424.447 432.787V432.787Z" fill="#C16B5B"/>
<path d="M425.845 429.376C425.879 429.377 425.912 429.367 425.939 429.348C425.966 429.329 425.986 429.301 425.996 429.269C426.279 428.295 425.943 427.958 425.615 427.852C425.41 427.806 425.197 427.807 424.992 427.853C424.787 427.898 424.595 427.989 424.429 428.117C424.404 428.142 424.389 428.174 424.385 428.208C424.381 428.243 424.389 428.277 424.408 428.306C424.426 428.335 424.455 428.357 424.487 428.368C424.52 428.379 424.556 428.378 424.588 428.366C424.719 428.262 424.87 428.188 425.033 428.15C425.195 428.112 425.364 428.11 425.527 428.144C425.819 428.233 425.881 428.587 425.704 429.19C425.695 429.228 425.701 429.269 425.721 429.303C425.741 429.337 425.772 429.363 425.81 429.376H425.845Z" fill="#C16B5B"/>
<path d="M550.802 537.033L572.475 536.688L571.731 560.521C566.339 615.214 563.205 681.602 563.205 681.602C559.407 684.03 557.114 683.906 553.325 681.602C544.259 589.857 550.802 537.033 550.802 537.033Z" fill="#EFAD9C"/>
<path d="M535.928 692.881C544.796 693.472 553.702 693.091 562.488 691.747C562.488 691.747 564.258 687.272 563.541 683.082C563.46 682.585 563.339 682.096 563.178 681.62H553.333C550.854 683.427 548.031 684.706 545.038 685.376C541.31 686.333 537.592 687.016 535.033 688.212C534.548 688.449 534.154 688.84 533.912 689.324C533.67 689.807 533.595 690.357 533.696 690.888C533.798 691.42 534.072 691.903 534.475 692.263C534.878 692.623 535.389 692.84 535.928 692.881Z" fill="#EFAD9C"/>
<path d="M562.691 691.02C557.344 691.298 551.997 691.472 546.649 691.543C546.605 689.355 546.41 687.174 546.065 685.013C546.011 684.821 545.895 684.653 545.734 684.536C545.574 684.419 545.378 684.359 545.179 684.366C542.338 684.738 539.416 685.111 536.866 686.519C535.771 687.079 534.803 687.858 534.023 688.81C533.243 689.761 532.667 690.864 532.333 692.048C532.29 692.222 532.301 692.405 532.365 692.573C532.428 692.74 532.54 692.885 532.687 692.987C532.763 693.094 532.864 693.181 532.982 693.24C533.099 693.299 533.229 693.327 533.36 693.324C543.134 693.471 552.902 693.294 562.665 692.792C563.825 692.739 563.833 690.967 562.691 691.02Z" fill="#0E2A3A"/>
<path d="M597.521 536.298C600.496 635.636 607.392 681.602 607.392 681.602C603.55 684.003 601.257 683.932 597.512 681.602C586.091 628.531 571.926 560.486 570.97 560.521L571.722 536.688L597.521 536.298Z" fill="#EFAD9C"/>
<path d="M580.115 692.881C588.983 693.472 597.889 693.091 606.675 691.747C606.675 691.747 608.445 687.272 607.728 683.082C607.647 682.585 607.526 682.096 607.365 681.62H597.512C595.033 683.427 592.209 684.706 589.216 685.376C585.489 686.333 581.77 687.016 579.203 688.212C578.717 688.45 578.322 688.842 578.081 689.328C577.84 689.813 577.766 690.364 577.87 690.896C577.974 691.428 578.25 691.911 578.656 692.27C579.062 692.628 579.575 692.843 580.115 692.881V692.881Z" fill="#EFAD9C"/>
<path d="M606.879 691.02C601.531 691.298 596.184 691.472 590.837 691.543C590.793 689.355 590.597 687.174 590.252 685.013C590.199 684.821 590.082 684.653 589.922 684.536C589.761 684.419 589.566 684.359 589.367 684.366C586.525 684.738 583.603 685.111 581.054 686.519C579.958 687.079 578.99 687.858 578.21 688.81C577.43 689.761 576.855 690.864 576.521 692.048C576.478 692.222 576.489 692.405 576.552 692.573C576.615 692.74 576.728 692.885 576.875 692.987C576.951 693.094 577.052 693.181 577.169 693.24C577.286 693.299 577.417 693.327 577.548 693.324C587.322 693.471 597.09 693.294 606.852 692.792C608.012 692.739 608.021 690.967 606.879 691.02Z" fill="#0E2A3A"/>
<path d="M611.456 644.842C611.456 594.482 602.045 518.862 597.29 508.548C583.647 511.632 567.402 514.281 553.697 511.525C550.155 521.333 542.294 593.48 542.417 645.799C543.373 646.77 544.512 647.541 545.768 648.067C547.025 648.594 548.373 648.865 549.735 648.865C551.097 648.865 552.445 648.594 553.701 648.067C554.957 647.541 556.096 646.77 557.052 645.799C559.122 647.664 561.793 648.72 564.577 648.776C567.379 648.857 570.117 647.933 572.297 646.171C574.442 648.33 577.348 649.561 580.389 649.6C583.463 649.64 586.433 648.487 588.676 646.383C589.526 647.252 590.546 647.936 591.671 648.394C592.797 648.851 594.004 649.071 595.219 649.041C596.426 648.981 597.607 648.67 598.687 648.129C599.768 647.587 600.724 646.827 601.496 645.896C602.196 646.565 603.035 647.071 603.954 647.377C604.872 647.683 605.847 647.783 606.808 647.668C608.694 647.447 611.456 646.702 611.456 644.842Z" fill="#32547C"/>
<path d="M590.721 518.888C598.113 560.424 599.131 599.638 601.699 639.455" stroke="#0E2A3A" stroke-width="0.75" stroke-linecap="round" stroke-linejoin="round"/>
<path d="M555.626 639.96C555.237 600.037 556.689 560.167 559.982 520.35" stroke="#0E2A3A" stroke-width="0.75" stroke-linecap="round" stroke-linejoin="round"/>
<path d="M569.624 521.298C568.715 561.404 569.223 601.511 571.147 641.617" stroke="#0E2A3A" stroke-width="0.75" stroke-linecap="round" stroke-linejoin="round"/>
<path d="M580.513 520.439C585.069 560.533 587.852 600.778 588.861 641.174" stroke="#0E2A3A" stroke-width="0.75" stroke-linecap="round" stroke-linejoin="round"/>
<path d="M512.431 501.257C512.431 501.257 531.067 496.57 543.568 492.228C545.87 484.015 547.888 461.688 547.888 461.688C552.572 460.669 561.611 459.03 561.168 468.484C559.982 476.892 558.132 492.698 556.742 495.595L556.547 496.1C555.201 499.299 552.731 501.336 548.357 502.931C547.472 503.241 546.587 503.525 545.701 503.817C533.927 507.122 525.241 507.361 514.166 508.743L512.431 501.257Z" fill="#E8A395"/>
<path d="M515.362 501.186C515.362 501.186 506.509 497.553 504.49 497.403C502.471 497.252 493.273 499.175 493.397 500.185C493.565 501.576 501.94 499.999 501.94 499.999C501.94 499.999 492.972 503.046 493.414 504.181C493.857 505.315 502.197 502.541 502.197 502.541C502.197 502.541 496.097 505.74 496.593 506.759C497.089 507.778 504.233 504.57 504.233 504.57C504.233 504.57 499.036 507.813 499.523 508.921C499.913 509.807 506.526 506.192 506.526 506.192C506.526 506.192 508.031 511.906 517.062 508.354L515.362 501.186Z" fill="#E8A395"/>
<path d="M546.932 462.406L543.639 491.998L520.124 498.386C520.124 498.386 517.114 503.286 522.081 509.514C522.081 509.514 548.473 505.385 554.059 500.982C559.646 496.579 562.7 466.65 561.939 454.91L551.837 451.588C548.384 454.538 547.331 457.86 546.932 462.406Z" fill="#DD4545"/>
<path d="M609.038 639.508L595.006 530.025C594.773 528.217 595.252 526.39 596.34 524.928C597.429 523.467 599.042 522.486 600.84 522.193V522.193C602.667 521.895 604.537 522.329 606.045 523.403C607.554 524.476 608.578 526.101 608.897 527.925L610.065 534.606" stroke="#FFC612" stroke-width="3" stroke-linecap="round" stroke-linejoin="round"/>
<path d="M601.858 514.494C601.858 514.494 608.056 496.304 611.234 483.484C605.603 477.078 587.994 463.238 587.994 463.238C589.685 458.755 593.253 450.285 600.938 455.743C607.339 461.325 619.574 471.478 621.3 474.216L621.628 474.65C623.576 477.521 623.939 480.702 622.903 485.238C622.699 486.124 622.451 487.01 622.168 487.949C618.529 499.635 614.023 507.069 609.136 517.107L601.858 514.494Z" fill="#E8A395"/>
<path d="M603.39 511.995C603.39 511.995 595.529 517.462 594.307 519.083C593.085 520.704 589.659 529.44 590.597 529.91C591.854 530.53 595.086 522.636 595.086 522.636C595.086 522.636 592.766 531.815 593.953 532.072C595.139 532.329 597.361 523.805 597.361 523.805C597.361 523.805 596.724 530.672 597.848 530.805C598.972 530.938 600.168 523.194 600.168 523.194C600.168 523.194 600.061 529.325 601.248 529.52C602.222 529.688 602.788 522.157 602.788 522.157C602.788 522.157 608.392 524 610.322 514.494L603.39 511.995Z" fill="#E8A395"/>
<path d="M586.365 465.852L610.322 483.218L603.638 506.475C603.638 506.475 606.108 511.667 614.023 510.905C614.023 510.905 624.93 486.505 624.284 479.417C623.638 472.329 600.256 453.466 589.924 447.698L586.365 465.852Z" fill="#DD4545"/>
<path d="M589.19 494.151C593.059 498.962 594.696 501.079 597.326 508.548C584.214 513.413 567.225 515.069 553.732 511.525C554.445 508.139 555.331 504.791 556.388 501.496C556.388 501.496 556.3 498.386 553.67 489.163C553.555 489.003 553.475 488.915 553.475 488.915C552.713 488.177 552.028 487.363 551.43 486.487V486.487C546.915 479.922 548.907 471.753 550.819 466.667C550.633 458.392 550.819 453.457 551.705 451.8C552.183 451.012 553.865 450.028 556.025 449.142L558.858 448.097C559.797 447.778 560.753 447.512 561.7 447.264C566.182 446.216 570.767 445.675 575.37 445.651L576.087 445.58C580.779 445.12 586.711 445.412 589.978 447.716C589.995 448.265 593.838 465.418 589.19 494.151Z" fill="#DD4545"/>
<path d="M550.607 460.102L550.926 465.87C548.648 469.654 547.654 474.073 548.092 478.469C548.464 482.695 550.828 486.443 553.741 489.526" stroke="#BC2626" stroke-linecap="round" stroke-linejoin="round"/>
<path d="M588.84 440.541C591.91 437.148 591.65 431.907 588.26 428.835C584.869 425.763 579.633 426.024 576.563 429.416C573.493 432.809 573.753 438.05 577.144 441.122C580.534 444.194 585.771 443.934 588.84 440.541Z" fill="white"/>
<path d="M574.82 403.54C570.146 400.793 564.595 399.322 559.301 400.332C554.006 401.343 549.102 405.09 547.428 410.318C545.543 416.21 547.986 422.837 552.076 427.435C556.166 432.034 561.655 435.002 567.029 437.881C568.8 437.775 570.686 437.544 572.465 437.438C577.113 433.894 580.247 428.578 582.443 423.094C583.612 420.438 584.359 417.616 584.656 414.73C584.945 411.818 584.161 408.9 582.452 406.526C580.664 404.284 577.547 402.725 574.82 403.54Z" fill="white"/>
<path d="M573.696 410.486C568.384 401.918 551.562 405.914 550.677 413.029C548.8 427.648 551.199 433.469 555.414 436.659C560.292 440.344 562.983 437.669 563.514 446.883C563.47 453.395 571.801 450.657 574.085 445.66C573.315 434.665 576.98 427.799 576.98 427.799C576.98 427.799 575.874 413.977 573.696 410.486Z" fill="#E8A395"/>
<path d="M549.545 416.431C549.367 415.129 549.474 412.488 551.908 408.741C554.193 405.197 561.373 403.956 567.605 404.736C573.838 405.516 576.662 408.05 577.114 412.462C577.565 416.874 578.344 422.367 578.344 422.367L576.051 424.334C572.165 422.048 571.979 412.506 571.979 412.506C570.275 414.079 568.186 415.173 565.923 415.678C565.307 415.866 564.661 415.932 564.02 415.873C563.698 415.845 563.386 415.744 563.109 415.578C562.831 415.413 562.595 415.186 562.417 414.916C561.451 415.867 560.199 416.475 558.854 416.646C557.509 416.818 556.145 416.543 554.972 415.864C554.149 416.313 553.246 416.594 552.315 416.692C551.383 416.789 550.442 416.7 549.545 416.431V416.431Z" fill="white"/>
<path d="M580.69 427.852C579.336 429.677 577.069 430.279 575.626 429.198C574.183 428.117 574.112 425.778 575.458 423.962C576.803 422.146 579.079 421.534 580.522 422.615C581.965 423.696 582.045 426.035 580.69 427.852Z" fill="#E8A395"/>
<path d="M579.627 423.519C579.272 423.377 578.888 423.319 578.506 423.348C578.124 423.377 577.753 423.493 577.423 423.687C577.097 423.845 576.819 424.087 576.617 424.387C576.505 424.557 576.436 424.751 576.416 424.953C576.396 425.156 576.426 425.36 576.502 425.548C576.652 425.83 576.876 426.065 577.149 426.23C577.316 426.332 577.464 426.464 577.582 426.62C577.66 426.73 577.701 426.862 577.701 426.997C577.701 427.131 577.66 427.263 577.582 427.373C577.495 427.477 577.377 427.551 577.246 427.586C577.114 427.621 576.975 427.615 576.848 427.568C576.777 427.541 576.699 427.543 576.63 427.574C576.561 427.605 576.507 427.662 576.48 427.732C576.453 427.803 576.455 427.881 576.486 427.95C576.517 428.019 576.574 428.073 576.644 428.1C576.802 428.161 576.971 428.188 577.14 428.179C577.31 428.169 577.475 428.124 577.627 428.048C577.78 427.972 577.915 427.866 578.025 427.736C578.183 427.533 578.274 427.286 578.285 427.029C578.296 426.771 578.227 426.517 578.087 426.301C577.932 426.091 577.74 425.911 577.52 425.77C577.332 425.659 577.174 425.504 577.06 425.318C577.021 425.216 577.009 425.106 577.022 424.998C577.036 424.889 577.077 424.786 577.14 424.697C577.193 424.609 577.262 424.531 577.343 424.467C577.489 424.449 577.637 424.46 577.778 424.499C577.92 424.539 578.052 424.606 578.167 424.697C578.275 424.802 578.358 424.93 578.41 425.071C578.462 425.212 578.482 425.363 578.468 425.513C578.46 425.587 578.482 425.662 578.528 425.722C578.574 425.781 578.641 425.821 578.716 425.832H578.769C578.836 425.826 578.899 425.797 578.947 425.75C578.996 425.704 579.026 425.641 579.034 425.575C579.058 425.339 579.027 425.101 578.946 424.879C578.865 424.656 578.735 424.455 578.565 424.29C578.438 424.172 578.287 424.081 578.122 424.024C578.541 423.859 579.006 423.859 579.424 424.024C579.668 424.128 579.867 424.318 579.982 424.557C580.098 424.797 580.123 425.07 580.052 425.327C580.026 425.397 580.028 425.475 580.057 425.545C580.087 425.614 580.142 425.669 580.212 425.699C580.247 425.713 580.284 425.72 580.322 425.72C580.359 425.72 580.397 425.712 580.431 425.697C580.466 425.682 580.497 425.661 580.523 425.633C580.549 425.606 580.57 425.574 580.584 425.539C580.703 425.144 580.671 424.718 580.494 424.345C580.318 423.971 580.009 423.677 579.627 423.519V423.519Z" fill="#C16B5B"/>
<path d="M564.382 424.343C564.398 424.571 564.345 424.798 564.231 424.996C564.117 425.194 563.947 425.353 563.742 425.454C563.538 425.555 563.308 425.593 563.081 425.563C562.855 425.532 562.643 425.435 562.472 425.284C562.301 425.133 562.179 424.934 562.121 424.714C562.063 424.493 562.072 424.26 562.146 424.044C562.221 423.828 562.358 423.639 562.541 423.502C562.723 423.364 562.942 423.284 563.169 423.271C563.472 423.254 563.769 423.357 563.996 423.558C564.223 423.758 564.362 424.041 564.382 424.343V424.343Z" fill="#1B1B28"/>
<path d="M563.214 424.095C563.219 424.15 563.213 424.205 563.195 424.258C563.178 424.31 563.151 424.359 563.114 424.4C563.078 424.441 563.033 424.475 562.984 424.499C562.934 424.522 562.88 424.536 562.825 424.538C562.743 424.543 562.661 424.524 562.59 424.482C562.519 424.441 562.461 424.379 562.425 424.306C562.389 424.232 562.376 424.149 562.386 424.067C562.397 423.986 562.432 423.909 562.487 423.847C562.541 423.785 562.612 423.741 562.692 423.72C562.771 423.699 562.855 423.702 562.933 423.728C563.011 423.755 563.079 423.804 563.129 423.869C563.179 423.934 563.209 424.013 563.214 424.095V424.095Z" fill="white"/>
<path d="M555.529 424.857C555.541 425.082 555.485 425.307 555.37 425.501C555.255 425.695 555.085 425.851 554.881 425.948C554.677 426.046 554.449 426.081 554.226 426.049C554.003 426.016 553.794 425.919 553.626 425.768C553.458 425.617 553.338 425.42 553.282 425.201C553.226 424.982 553.236 424.752 553.311 424.538C553.385 424.325 553.522 424.139 553.702 424.003C553.883 423.868 554.099 423.789 554.325 423.776C554.475 423.766 554.626 423.787 554.768 423.836C554.91 423.886 555.041 423.963 555.153 424.064C555.265 424.164 555.356 424.286 555.421 424.422C555.485 424.559 555.522 424.706 555.529 424.857V424.857Z" fill="#1B1B28"/>
<path d="M554.369 424.609C554.372 424.691 554.351 424.772 554.309 424.842C554.267 424.912 554.204 424.968 554.13 425.003C554.056 425.037 553.973 425.05 553.892 425.038C553.811 425.026 553.736 424.99 553.675 424.935C553.614 424.88 553.571 424.809 553.55 424.729C553.53 424.65 553.533 424.567 553.56 424.489C553.587 424.412 553.636 424.344 553.701 424.294C553.766 424.245 553.845 424.215 553.926 424.21C554.038 424.205 554.146 424.244 554.229 424.319C554.312 424.393 554.362 424.498 554.369 424.609V424.609Z" fill="white"/>
<path d="M556.043 420.329C555.326 419.874 554.477 419.675 553.632 419.765C552.788 419.855 551.999 420.229 551.395 420.826C551.285 420.959 551.225 421.127 551.225 421.3C551.225 421.473 551.285 421.64 551.395 421.774C551.44 421.839 551.5 421.893 551.568 421.934C551.637 421.974 551.714 421.998 551.793 422.006C551.872 422.014 551.952 422.004 552.027 421.977C552.102 421.951 552.17 421.909 552.227 421.853C552.479 421.605 552.778 421.41 553.107 421.28C553.435 421.149 553.786 421.085 554.139 421.091C554.496 421.099 554.847 421.174 555.175 421.313C555.468 421.437 555.76 421.667 556.061 421.464C556.139 421.417 556.204 421.35 556.247 421.269C556.327 421.113 556.351 420.934 556.314 420.762C556.277 420.591 556.181 420.438 556.043 420.329Z" fill="white"/>
<path d="M560.496 420.073C561.275 419.537 562.195 419.244 563.14 419.23C564.085 419.216 565.013 419.481 565.808 419.993C565.953 420.096 566.052 420.252 566.085 420.427C566.118 420.602 566.082 420.783 565.985 420.932C565.883 421.079 565.728 421.179 565.552 421.213C565.377 421.246 565.195 421.209 565.047 421.109C564.372 420.676 563.566 420.497 562.771 420.604C562.371 420.648 561.981 420.762 561.62 420.941C561.302 421.1 560.992 421.357 560.62 421.198C560.531 421.16 560.452 421.103 560.39 421.029C560.277 420.888 560.225 420.708 560.245 420.529C560.265 420.35 560.355 420.186 560.496 420.073V420.073Z" fill="white"/>
<path d="M558.734 431.201C558.074 431.242 557.413 431.117 556.813 430.837C556.741 430.806 556.676 430.76 556.622 430.703C556.568 430.646 556.526 430.579 556.498 430.506C556.47 430.433 556.457 430.355 556.459 430.276C556.462 430.198 556.48 430.12 556.512 430.049C556.579 429.905 556.7 429.793 556.849 429.736C556.998 429.68 557.163 429.684 557.309 429.748C557.93 430.012 558.619 430.068 559.275 429.908C559.931 429.749 560.517 429.382 560.948 428.862C561.037 428.734 561.173 428.646 561.326 428.616C561.479 428.587 561.637 428.617 561.768 428.702C561.899 428.787 561.992 428.92 562.027 429.072C562.062 429.224 562.037 429.383 561.957 429.517C561.575 430.016 561.088 430.425 560.531 430.716C559.975 431.006 559.361 431.172 558.734 431.201V431.201Z" fill="#C16B5B"/>
<path d="M557.132 427.878C557.099 427.878 557.067 427.868 557.04 427.849C557.013 427.83 556.992 427.803 556.981 427.772C556.645 426.815 556.981 426.469 557.273 426.337C557.476 426.28 557.689 426.268 557.897 426.301C558.105 426.335 558.303 426.414 558.478 426.531C558.511 426.552 558.536 426.584 558.548 426.622C558.559 426.659 558.556 426.7 558.54 426.735C558.519 426.769 558.487 426.794 558.45 426.805C558.412 426.817 558.372 426.814 558.336 426.797C558.2 426.7 558.045 426.634 557.882 426.604C557.718 426.573 557.55 426.579 557.389 426.62C557.096 426.735 557.052 427.09 557.265 427.674C557.277 427.712 557.274 427.753 557.258 427.789C557.242 427.825 557.212 427.854 557.176 427.869L557.132 427.878Z" fill="#C16B5B"/>
<path d="M62.292 654.933C60.1849 657.024 59.2465 660.055 58.609 663.731C57.8807 667.946 57.6992 672.237 58.069 676.499C58.2044 678.852 58.7001 681.171 59.5386 683.374C60.3946 685.561 61.9191 687.422 63.8945 688.69C66.8161 690.462 70.4371 690.338 73.8368 690.179C75.6538 690.163 77.464 689.955 79.2373 689.558C81.0226 689.159 82.6384 688.211 83.8588 686.847C85.4966 684.871 85.8331 682.143 86.0278 679.582C86.4882 673.867 86.9132 668.064 86.1252 662.358C85.3992 656.883 83.6374 653.312 77.8296 651.992C72.8275 650.831 66.1521 651.097 62.292 654.933Z" fill="#EFAD9C"/>
<path d="M83.0706 654.641C86.9603 658.508 90.5145 662.699 93.6946 667.169C94.6732 668.42 95.3544 669.877 95.6866 671.431C95.7971 671.874 95.7793 672.339 95.635 672.772C95.4907 673.205 95.2261 673.588 94.872 673.876C93.9867 674.426 92.8269 673.876 91.9239 673.389C86.6761 670.474 81.9829 666.656 78.0596 662.11C78.9715 659.133 80.1578 655.837 83.0706 654.641Z" fill="#EFAD9C"/>
<path d="M95.3766 669.021C96.542 668.604 97.7689 668.385 99.0065 668.374C99.5192 668.321 100.033 668.459 100.45 668.764C100.664 668.99 100.796 669.28 100.827 669.59C100.857 669.9 100.784 670.211 100.618 670.474C100.267 670.998 99.7222 671.361 99.1039 671.484C99.8373 671.717 100.522 672.083 101.122 672.565C101.502 672.839 101.806 673.205 102.008 673.628C102.105 673.84 102.141 674.076 102.111 674.308C102.081 674.539 101.987 674.758 101.84 674.939C101.603 675.173 101.287 675.309 100.954 675.32C100.617 675.316 100.281 675.271 99.9538 675.187C100.139 675.272 100.289 675.418 100.379 675.6C100.47 675.782 100.494 675.99 100.45 676.189C100.358 676.413 100.192 676.599 99.9787 676.716C99.7658 676.832 99.5193 676.871 99.2809 676.826C98.8054 676.725 98.3617 676.509 97.9883 676.197C98.1101 676.403 98.1968 676.628 98.2451 676.862C98.2886 676.977 98.3032 677.101 98.2878 677.223C98.2724 677.345 98.2273 677.461 98.1566 677.562C98.0075 677.687 97.8263 677.767 97.6337 677.794C97.4411 677.82 97.2449 677.792 97.0676 677.712C96.3921 677.516 95.7608 677.191 95.2084 676.756C95.2602 676.79 95.304 676.836 95.3369 676.889C95.3699 676.942 95.3912 677.002 95.3996 677.063C95.4079 677.125 95.4031 677.188 95.3854 677.248C95.3677 677.308 95.3376 677.364 95.2969 677.411C95.2076 677.502 95.0948 677.565 94.9712 677.595C94.8476 677.625 94.7182 677.62 94.5975 677.58C94.3583 677.492 94.143 677.349 93.9689 677.163C93.37 676.6 92.9049 675.91 92.6076 675.143C92.3104 674.377 92.1887 673.553 92.2514 672.733C92.4077 671.897 92.7777 671.116 93.3254 670.465C93.8731 669.814 94.5797 669.317 95.3766 669.021V669.021Z" fill="#EFAD9C"/>
<path d="M61.5924 655.695C58.0688 659.214 54.8824 663.055 52.0751 667.169C51.0998 668.422 50.419 669.879 50.0831 671.431C49.9746 671.874 49.9936 672.338 50.1377 672.771C50.2818 673.204 50.5452 673.587 50.8976 673.876C51.7829 674.425 52.9427 673.876 53.8457 673.389C59.0872 670.472 63.7743 666.654 67.6923 662.11C67.2193 660.653 66.4258 659.32 65.3702 658.21C64.3145 657.099 63.0236 656.24 61.5924 655.695V655.695Z" fill="#EFAD9C"/>
<path d="M50.3756 669.021C49.2104 668.603 47.9834 668.384 46.7457 668.374C46.233 668.321 45.7188 668.459 45.3026 668.764C45.09 668.99 44.9583 669.281 44.9279 669.59C44.8974 669.899 44.9701 670.21 45.1344 670.474C45.4856 670.998 46.03 671.361 46.6483 671.484C45.9149 671.717 45.2306 672.083 44.6298 672.565C44.2504 672.839 43.946 673.205 43.7444 673.628C43.6471 673.84 43.6113 674.076 43.641 674.308C43.6708 674.539 43.7649 674.758 43.9127 674.939C44.1497 675.173 44.4656 675.309 44.798 675.32C45.1356 675.316 45.4714 675.271 45.7984 675.187C45.6135 675.272 45.4632 675.418 45.3729 675.6C45.2826 675.782 45.2578 675.99 45.3026 676.189C45.3943 676.413 45.5606 676.599 45.7735 676.716C45.9864 676.832 46.2329 676.871 46.4713 676.826C46.9624 676.732 47.422 676.516 47.8081 676.197C47.6864 676.403 47.5996 676.628 47.5514 676.862C47.5079 676.977 47.4932 677.101 47.5087 677.223C47.5241 677.345 47.5692 677.461 47.6399 677.562C47.789 677.687 47.9702 677.767 48.1628 677.794C48.3554 677.82 48.5515 677.792 48.7289 677.712C49.4044 677.516 50.0357 677.191 50.5881 676.756C50.5363 676.79 50.4925 676.836 50.4596 676.889C50.4266 676.942 50.4053 677.002 50.3969 677.063C50.3885 677.125 50.3934 677.188 50.4111 677.248C50.4287 677.308 50.4589 677.364 50.4995 677.411C50.5888 677.502 50.7017 677.565 50.8253 677.595C50.9488 677.625 51.0783 677.62 51.199 677.58C51.4381 677.492 51.6534 677.349 51.8275 677.163C52.4264 676.6 52.8916 675.91 53.1888 675.143C53.4861 674.377 53.6078 673.553 53.5451 672.733C53.3847 671.892 53.0081 671.107 52.4523 670.456C51.8965 669.805 51.1807 669.311 50.3756 669.021V669.021Z" fill="#EFAD9C"/>
<path d="M97.4577 692.642L86.5946 691.897C85.1378 691.85 83.6912 691.636 82.2831 691.259C80.8477 690.88 79.593 690.005 78.7417 688.787C78.195 687.796 77.9529 686.665 78.0458 685.537C78.1387 684.408 78.5625 683.332 79.2641 682.444C80.5457 680.866 82.3306 679.777 84.3193 679.36C84.7332 679.267 85.1626 679.267 85.5765 679.36C90.3116 680.317 94.6686 682.625 98.1217 686.005C98.405 684.796 98.9422 683.66 99.6976 682.674C100.063 682.206 100.569 681.868 101.141 681.708C101.713 681.549 102.321 681.577 102.876 681.788C103.272 682.038 103.611 682.368 103.872 682.757C104.132 683.147 104.309 683.586 104.39 684.047C104.921 686.238 104.677 688.546 103.699 690.577C103.185 691.834 102.245 692.869 101.043 693.501C100.435 693.776 99.7527 693.841 99.1036 693.685C98.4546 693.529 97.8756 693.162 97.4577 692.642Z" fill="#EFAD9C"/>
<path d="M59.3171 676.915C59.0802 676.962 58.8549 677.055 58.654 677.189C58.4532 677.323 58.2807 677.495 58.1466 677.696C58.0125 677.897 57.9194 678.122 57.8726 678.359C57.8259 678.596 57.8263 678.84 57.874 679.077C58.6265 682.621 59.7686 686.227 62.5574 688.477C65.603 690.949 69.8614 691.135 73.7834 691.038C77.4044 690.932 81.3619 690.489 83.9116 687.91C86.1427 685.651 86.727 682.355 86.9749 679.13C87.0301 678.684 86.9135 678.233 86.6488 677.869C86.3841 677.506 85.9911 677.256 85.5495 677.172C76.9101 675.335 67.9908 675.248 59.3171 676.915V676.915Z" fill="#5E80BC"/>
<path d="M79.9367 693.439L69.1445 691.977C67.6956 691.847 66.2666 691.55 64.886 691.091C63.5034 690.62 62.3289 689.68 61.566 688.433C61.0778 687.412 60.9015 686.27 61.0589 685.15C61.2164 684.029 61.7008 682.98 62.4514 682.134C63.8356 680.645 65.6893 679.679 67.7014 679.396C68.1169 679.323 68.5434 679.344 68.9497 679.458C73.6141 680.723 77.812 683.314 81.0345 686.918C81.3927 685.731 81.9959 684.632 82.8052 683.693C83.2015 683.25 83.7295 682.947 84.3113 682.827C84.8931 682.707 85.498 682.778 86.0366 683.029C86.4159 683.301 86.7328 683.652 86.9663 684.057C87.1999 684.461 87.3447 684.911 87.3912 685.376C87.7778 687.597 87.3836 689.882 86.2757 691.844C85.6838 693.069 84.6722 694.041 83.4249 694.582C82.7989 694.803 82.1175 694.811 81.4866 694.604C80.8557 694.397 80.3108 693.988 79.9367 693.439Z" fill="#EFAD9C"/>
<path d="M86.6301 683.232C87.2834 684.48 87.6106 685.873 87.5812 687.281C87.5518 688.689 87.1668 690.067 86.4619 691.286" stroke="#C16B5B" stroke-width="0.5" stroke-linecap="round" stroke-linejoin="round"/>
<path d="M89.932 636.336C89.6099 635.695 89.1112 635.159 88.4948 634.791C87.8783 634.424 87.1698 634.241 86.4527 634.263C86.1691 631.97 85.362 629.772 84.0939 627.841C82.8259 625.91 81.1307 624.297 79.1398 623.126C77.0441 621.953 74.6905 621.317 72.2894 621.276C69.8884 621.236 67.5146 621.791 65.3802 622.892C63.2458 623.993 61.4173 625.607 60.058 627.588C58.6988 629.569 57.8511 631.856 57.5908 634.245C56.9434 634.3 56.3203 634.518 55.78 634.879C55.2396 635.24 54.7996 635.732 54.501 636.31C54.1138 637.104 53.9497 637.988 54.0261 638.868C54.1025 639.749 54.4166 640.591 54.9348 641.307C55.4004 641.91 56.0481 642.348 56.7818 642.554C57.5155 642.759 58.296 642.723 59.0073 642.45C60.9728 646.34 64.2409 649.416 68.2413 651.141C68.2817 652.725 68.7201 654.273 69.5162 655.642C69.9247 656.318 70.5226 656.859 71.2356 657.197C71.9486 657.536 72.7453 657.658 73.5268 657.547C74.1102 657.385 74.6508 657.096 75.1099 656.701C75.569 656.306 75.9353 655.814 76.1828 655.261C76.6493 653.915 76.9467 652.517 77.0681 651.097C79.2549 650.486 83.3274 647.314 85.3725 642.423C86.0879 642.712 86.8779 642.759 87.6226 642.558C88.3673 642.356 89.0259 641.917 89.4982 641.307C90.0114 640.594 90.3226 639.756 90.399 638.881C90.4753 638.006 90.314 637.127 89.932 636.336V636.336Z" fill="#EFAD9C"/>
<path d="M66.8072 636.753C66.8216 637.013 66.9128 637.264 67.0693 637.472C67.2258 637.681 67.4406 637.839 67.6865 637.925C67.9325 638.012 68.1986 638.024 68.4512 637.959C68.7038 637.894 68.9316 637.756 69.1058 637.562C69.28 637.368 69.3928 637.127 69.43 636.868C69.4672 636.61 69.4271 636.346 69.3147 636.111C69.2023 635.876 69.0227 635.679 68.7986 635.545C68.5745 635.412 68.3159 635.348 68.0555 635.362C67.7063 635.382 67.3794 635.54 67.1456 635.8C66.9119 636.061 66.7903 636.403 66.8072 636.753Z" fill="#1B1B28"/>
<path d="M68.1093 636.327C68.1115 636.391 68.1264 636.453 68.1533 636.51C68.1801 636.567 68.2182 636.619 68.2653 636.661C68.3125 636.703 68.3677 636.735 68.4276 636.756C68.4875 636.776 68.5509 636.784 68.6139 636.779C68.6775 636.777 68.74 636.762 68.7977 636.735C68.8555 636.709 68.9073 636.671 68.9502 636.624C68.993 636.577 69.0261 636.521 69.0474 636.461C69.0687 636.401 69.0779 636.338 69.0743 636.274C69.079 636.205 69.069 636.136 69.045 636.071C69.021 636.007 68.9836 635.948 68.9351 635.899C68.8866 635.85 68.8283 635.811 68.7639 635.786C68.6995 635.762 68.6306 635.751 68.5617 635.754C68.4928 635.758 68.4255 635.777 68.3643 635.808C68.303 635.84 68.2492 635.885 68.2065 635.939C68.1637 635.993 68.1329 636.056 68.1161 636.123C68.0994 636.19 68.097 636.259 68.1093 636.327V636.327Z" fill="white"/>
<path d="M75.7048 636.416C75.7224 636.768 75.8792 637.1 76.1407 637.336C76.4022 637.573 76.747 637.696 77.0992 637.679C77.4514 637.661 77.7822 637.504 78.0188 637.242C78.2554 636.981 78.3784 636.636 78.3608 636.283C78.3521 636.109 78.3091 635.937 78.2343 635.78C78.1595 635.622 78.0544 635.48 77.9249 635.363C77.7954 635.246 77.6441 635.155 77.4796 635.096C77.3152 635.038 77.1408 635.012 76.9664 635.021C76.792 635.029 76.621 635.072 76.4632 635.147C76.3055 635.222 76.1639 635.327 76.0468 635.457C75.9296 635.586 75.8391 635.738 75.7805 635.902C75.7218 636.067 75.6961 636.241 75.7048 636.416V636.416Z" fill="#1B1B28"/>
<path d="M77.0238 636.008C77.0272 636.072 77.0432 636.135 77.071 636.192C77.0987 636.249 77.1377 636.3 77.1855 636.343C77.2334 636.385 77.2891 636.417 77.3495 636.437C77.4099 636.457 77.4738 636.465 77.5373 636.46C77.6005 636.458 77.6626 636.443 77.7199 636.416C77.7772 636.389 77.8285 636.351 77.8706 636.304C77.9128 636.257 77.945 636.202 77.9653 636.142C77.9856 636.082 77.9936 636.018 77.9888 635.955C77.9819 635.828 77.9252 635.708 77.8308 635.622C77.7363 635.535 77.6119 635.49 77.4842 635.495C77.3558 635.504 77.236 635.562 77.1501 635.658C77.0642 635.754 77.0189 635.88 77.0238 636.008V636.008Z" fill="white"/>
<path d="M74.4747 640.27C74.5111 640.265 74.5453 640.25 74.5735 640.227C74.6017 640.203 74.6227 640.172 74.6341 640.137C74.8997 638.994 74.4924 638.631 74.1117 638.525C73.8725 638.488 73.6281 638.502 73.3947 638.566C73.1613 638.63 72.944 638.743 72.7572 638.897C72.7207 638.924 72.6958 638.963 72.6875 639.008C72.6793 639.052 72.6884 639.098 72.7129 639.136C72.7411 639.173 72.7823 639.198 72.8282 639.207C72.8741 639.215 72.9215 639.206 72.9608 639.18C73.1038 639.053 73.273 638.958 73.4566 638.903C73.6402 638.848 73.8336 638.834 74.0232 638.861C74.3685 638.95 74.457 639.358 74.2976 640.058C74.2924 640.079 74.2914 640.101 74.2948 640.123C74.2981 640.145 74.3058 640.166 74.3173 640.185C74.3288 640.204 74.344 640.221 74.3619 640.234C74.3798 640.247 74.4001 640.256 74.4216 640.261L74.4747 640.27Z" fill="#C17E52"/>
<path d="M63.8857 640.137C63.8857 640.651 64.7091 641.076 65.7361 641.085C66.7631 641.094 67.6041 640.687 67.613 640.199C67.6218 639.712 66.7808 639.26 65.7538 639.251C64.7268 639.242 63.8946 639.623 63.8857 640.137Z" fill="#E58F8F"/>
<path d="M77.5821 640.474C77.5821 640.988 78.4674 641.36 79.4767 641.36C80.486 641.36 81.327 640.873 81.3093 640.359C81.2916 639.845 80.424 639.473 79.4147 639.473C78.4055 639.473 77.5732 639.96 77.5821 640.474Z" fill="#E58F8F"/>
<path d="M76.2542 644.257C76.1933 644.156 76.0954 644.083 75.9812 644.053C75.867 644.023 75.7457 644.039 75.6433 644.098C74.7906 644.714 73.7743 645.064 72.723 645.101C71.6717 645.139 70.6328 644.864 69.7381 644.31C69.26 644.009 68.8528 644.771 69.2954 645.081C70.3233 645.721 71.5174 646.042 72.7273 646.004C73.9372 645.966 75.1088 645.571 76.0948 644.868C76.1942 644.806 76.2661 644.708 76.2957 644.594C76.3253 644.481 76.3104 644.36 76.2542 644.257V644.257Z" fill="#C17E52"/>
<path d="M57.0601 641.457C56.8765 641.458 56.6982 641.396 56.5554 641.28C56.5217 641.238 56.5035 641.186 56.5041 641.133C56.5047 641.079 56.5239 641.027 56.5585 640.986C56.5932 640.945 56.641 640.918 56.6938 640.908C56.7465 640.899 56.8009 640.908 56.8476 640.935C56.9305 640.991 57.032 641.013 57.1309 640.997C57.3129 640.966 57.4752 640.864 57.5824 640.713C57.7449 640.374 57.8093 639.997 57.7683 639.623C57.8047 638.823 57.7181 638.023 57.5116 637.249C57.4391 636.898 57.2446 636.584 56.9627 636.363C56.8531 636.276 56.7174 636.229 56.5776 636.229C56.4377 636.229 56.302 636.276 56.1924 636.363C56.1481 636.405 56.0895 636.428 56.0286 636.428C55.9678 636.428 55.9092 636.405 55.8649 636.363C55.8237 636.32 55.8008 636.263 55.8008 636.203C55.8008 636.144 55.8237 636.087 55.8649 636.044C56.0438 635.866 56.2801 635.758 56.5315 635.738C56.7829 635.719 57.033 635.789 57.2371 635.938C57.5948 636.205 57.8508 636.586 57.9631 637.019C58.1821 637.838 58.2776 638.687 58.2464 639.535C58.2833 639.994 58.1913 640.454 57.9808 640.864C57.8946 640.994 57.7825 641.106 57.6515 641.191C57.5206 641.276 57.3735 641.334 57.2194 641.36L57.0601 641.457Z" fill="#C17E52"/>
<path d="M57.954 640.173C57.683 640.168 57.4199 640.081 57.1999 639.923C56.98 639.764 56.8137 639.542 56.7234 639.287C56.6558 639.109 56.6373 638.917 56.6701 638.729C56.7028 638.542 56.7854 638.367 56.9093 638.223C57.046 638.069 57.2363 637.972 57.4417 637.952C57.6471 637.932 57.8524 637.991 58.016 638.117C58.0497 638.159 58.0679 638.211 58.0673 638.265C58.0667 638.318 58.0475 638.37 58.0128 638.411C57.9782 638.452 57.9304 638.479 57.8776 638.489C57.8249 638.498 57.7705 638.489 57.7238 638.463C57.6497 638.415 57.561 638.394 57.4734 638.406C57.3858 638.417 57.3051 638.459 57.2457 638.525C57.179 638.61 57.135 638.711 57.118 638.818C57.1009 638.925 57.1114 639.034 57.1483 639.136C57.21 639.301 57.3196 639.445 57.4632 639.547C57.6067 639.65 57.7776 639.707 57.954 639.712C58.0135 639.714 58.0698 639.739 58.1111 639.782C58.1523 639.825 58.1754 639.883 58.1753 639.942C58.1754 640.002 58.1523 640.059 58.1111 640.102C58.0698 640.145 58.0135 640.17 57.954 640.173V640.173Z" fill="#C17E52"/>
<path d="M87.3739 641.457H87.2322C87.0781 641.431 86.9311 641.374 86.8001 641.288C86.6691 641.203 86.5571 641.092 86.4708 640.961C86.2603 640.552 86.1683 640.091 86.2052 639.632C86.1741 638.784 86.2696 637.936 86.4885 637.116C86.6008 636.684 86.8569 636.302 87.2145 636.035C87.4186 635.887 87.6688 635.816 87.9202 635.836C88.1716 635.855 88.4078 635.963 88.5868 636.141C88.6131 636.188 88.6224 636.242 88.613 636.295C88.6036 636.348 88.576 636.396 88.5351 636.431C88.4942 636.465 88.4424 636.484 88.3888 636.485C88.3352 636.486 88.2831 636.467 88.2415 636.434C88.1299 636.347 87.9929 636.301 87.8519 636.301C87.711 636.301 87.574 636.347 87.4624 636.434C87.1866 636.659 86.996 636.971 86.9223 637.32C86.717 638.094 86.6275 638.894 86.6567 639.694C86.6226 640.068 86.6899 640.445 86.8515 640.784C86.9573 640.932 87.1157 641.033 87.2942 641.067C87.3959 641.085 87.5003 641.062 87.5863 641.005C87.6077 640.979 87.6345 640.958 87.665 640.943C87.6955 640.928 87.7289 640.921 87.7627 640.92C87.7966 640.92 87.8301 640.927 87.8609 640.941C87.8917 640.955 87.919 640.976 87.9409 641.002C87.9628 641.028 87.9787 641.058 87.9875 641.091C87.9963 641.123 87.9977 641.158 87.9918 641.191C87.9858 641.224 87.9726 641.256 87.953 641.284C87.9334 641.311 87.908 641.334 87.8785 641.351C87.7267 641.441 87.5492 641.479 87.3739 641.457V641.457Z" fill="#C17E52"/>
<path d="M86.4791 640.173C86.4196 640.17 86.3633 640.145 86.3221 640.102C86.2808 640.059 86.2578 640.002 86.2578 639.942C86.2578 639.883 86.2808 639.825 86.3221 639.782C86.3633 639.739 86.4196 639.714 86.4791 639.712V639.712C86.6555 639.707 86.8264 639.65 86.9699 639.547C87.1135 639.445 87.2231 639.301 87.2848 639.136C87.3218 639.034 87.3322 638.925 87.3152 638.818C87.2981 638.711 87.2542 638.61 87.1874 638.525C87.1281 638.459 87.0474 638.417 86.9598 638.406C86.8722 638.394 86.7834 638.415 86.7093 638.463C86.688 638.489 86.6611 638.51 86.6307 638.525C86.6002 638.54 86.5668 638.548 86.5329 638.548C86.4991 638.548 86.4655 638.541 86.4347 638.527C86.404 638.513 86.3766 638.492 86.3548 638.466C86.3329 638.441 86.317 638.41 86.3082 638.377C86.2994 638.345 86.2979 638.31 86.3039 638.277C86.3099 638.244 86.3231 638.212 86.3427 638.184C86.3623 638.157 86.3877 638.134 86.4172 638.117C86.5808 637.991 86.786 637.932 86.9915 637.952C87.1969 637.972 87.3872 638.069 87.5238 638.223C87.646 638.368 87.7276 638.543 87.7603 638.73C87.7929 638.917 87.7755 639.109 87.7098 639.287C87.6184 639.542 87.4518 639.763 87.2321 639.921C87.0123 640.079 86.7498 640.167 86.4791 640.173Z" fill="#C17E52"/>
<path d="M62.8584 624.588C64.815 622.816 68.5954 621.345 71.1628 620.858C73.7324 620.261 76.4318 620.637 78.7413 621.912C81.9639 623.879 83.407 627.999 83.0529 631.764C81.5115 631.445 80.0591 630.791 78.7985 629.848C77.5378 628.905 76.4997 627.696 75.7577 626.307C75.7789 627.45 75.9394 628.587 76.2358 629.691C74.4456 628.187 72.5523 626.81 70.5697 625.571C70.6316 626.262 70.667 627.016 70.729 627.707C68.296 626.238 65.6363 625.184 62.8584 624.588V624.588Z" fill="#5B3D31"/>
</svg>
