<svg width="806" height="980" viewBox="0 0 806 980" fill="none" xmlns="http://www.w3.org/2000/svg">
<path d="M565.473 683.238C565.473 683.238 607.037 621.05 593.168 532.893C580.508 452.435 485.704 402.465 428.669 440.352C401.08 458.681 376.577 393.538 285.004 366.571C217.29 346.636 83.7976 380.332 109.223 517.301C128.557 621.435 41.5989 568.198 62.5442 683.238H565.473Z" fill="#EBF3FA"/>
<path d="M477.769 425.895H180.335V609.153H477.769V425.895Z" fill="#FFF6EE"/>
<path d="M481.573 610.265H180.12V422.989H481.573V610.265ZM184.139 606.247H477.552V427.007H184.139V606.247Z" fill="#B27D59"/>
<path d="M271.598 654.884C271.598 654.884 276.1 649.634 271.875 646.301C271.875 646.301 268.789 644.433 266.273 644.586C266.273 644.586 269.84 650.567 268.685 651.154C267.53 651.741 265.194 644.212 265.194 644.212C265.194 644.212 258.169 643.53 255.91 644.615C255.91 644.615 261.915 649.526 260.65 649.818C259.384 650.111 253.887 646.006 253.887 646.006C253.887 646.006 246.365 646.403 246.713 650.387C247.061 654.372 249.314 655.601 250.304 655.495C251.295 655.389 257.085 653.18 257.209 653.991C257.333 654.802 253.851 657.451 251.411 657.573C251.411 657.573 256.019 662.652 259.08 661.185C262.141 659.719 262.405 657.398 264.314 656.534C266.222 655.67 267.86 655.663 267.065 656.552C266.269 657.44 262.822 658.304 261.729 660.235C260.636 662.167 259.659 663.465 262.837 662.988C266.016 662.512 271.157 660.195 271.383 657.544L271.598 654.884Z" fill="#466AA5"/>
<path d="M249.925 650.494C249.925 650.494 267.679 649.812 271.598 654.884C271.598 654.884 272.464 657.478 275.144 659.841L275.559 660.973C275.559 660.973 272.484 657.732 271.383 657.538C271.372 657.538 273.094 651.251 249.925 650.494Z" fill="#466AA5"/>
<path d="M275.133 659.841C275.133 659.841 278.943 662.656 279.207 667.689L278.515 667.751C278.515 667.751 277.299 662.548 275.1 660.514C272.901 658.481 275.133 659.841 275.133 659.841Z" fill="#466AA5"/>
<path d="M287.34 648.283C287.34 648.283 280.178 644.274 283.521 638.836C283.521 638.836 286.194 635.496 289.062 634.628C289.062 634.628 287.535 642.739 289.062 642.93C290.59 643.12 290.113 633.768 290.113 633.768C290.113 633.768 297.65 630.142 300.618 630.43C300.618 630.43 295.938 638.349 297.466 638.158C298.993 637.968 304.247 629.963 304.247 629.963C304.247 629.963 311.983 628.532 313.224 633.113C314.465 637.693 312.459 639.979 311.313 640.269C310.167 640.559 302.815 640.46 303.005 641.414C303.196 642.369 308.163 643.895 310.932 643.036C310.932 643.036 307.875 650.567 303.865 650.195C299.855 649.823 298.612 647.331 296.129 647.14C293.646 646.95 291.833 647.616 293.075 648.285C294.316 648.954 298.516 648.507 300.523 650.208C302.529 651.909 304.151 652.961 300.427 653.723C296.703 654.485 290.009 654.011 288.679 651.147L287.34 648.283Z" fill="#699FF0"/>
<path d="M309.687 634.541C309.687 634.541 289.632 641.031 287.34 648.274C287.34 648.274 287.436 651.519 285.43 655.24V656.671C285.43 656.671 287.531 651.798 288.677 651.134C288.677 651.145 284.188 644.848 309.687 634.541Z" fill="#466AA5"/>
<path d="M285.43 655.249C285.43 655.249 282.326 659.941 284.1 665.66L284.895 665.438C284.895 665.438 284.124 659.146 285.742 655.983C287.36 652.82 285.43 655.249 285.43 655.249Z" fill="#466AA5"/>
<path d="M275.944 642.755C275.944 642.755 285.387 637.472 280.981 630.302C280.981 630.302 277.456 625.901 273.679 624.764C273.679 624.764 275.694 635.456 273.679 635.706C271.664 635.957 272.296 623.63 272.296 623.63C272.296 623.63 262.35 618.853 258.448 619.229C258.448 619.229 264.615 629.668 262.602 629.418C260.59 629.168 253.665 618.6 253.665 618.6C253.665 618.6 243.468 616.713 241.832 622.751C240.196 628.789 242.838 631.808 244.348 632.185C245.858 632.561 255.553 632.437 255.301 633.695C255.048 634.953 248.502 636.965 244.853 635.833C244.853 635.833 248.881 645.769 254.163 645.266C259.446 644.764 261.086 641.501 264.36 641.242C267.634 640.983 270.024 641.871 268.388 642.75C266.752 643.63 261.212 643.04 258.57 645.284C255.928 647.528 253.787 648.915 258.694 649.92C263.602 650.926 272.415 650.299 274.178 646.525L275.944 642.755Z" fill="#699FF0"/>
<path d="M246.494 624.643C246.494 624.643 272.93 633.195 275.949 642.755C275.949 642.755 275.825 647.032 278.467 651.938V653.825C278.467 653.825 275.699 647.402 274.187 646.529C274.183 646.54 280.099 638.227 246.494 624.643Z" fill="#466AA5"/>
<path d="M278.463 651.938C278.463 651.938 282.539 658.124 280.216 665.653L279.168 665.372C279.168 665.372 280.185 657.079 278.059 652.908C275.934 648.737 278.463 651.938 278.463 651.938Z" fill="#466AA5"/>
<path d="M257.77 663.502C257.77 668.404 259.718 673.104 263.187 676.57C266.655 680.035 271.359 681.982 276.264 681.982C281.168 681.982 285.872 680.035 289.341 676.57C292.809 673.104 294.757 668.404 294.757 663.502H257.77Z" fill="#D86713"/>
<path d="M265.065 663.502C265.065 667.772 266.544 671.91 269.252 675.213C271.959 678.517 275.727 680.782 279.917 681.623C284.106 680.782 287.874 678.517 290.581 675.213C293.289 671.91 294.768 667.772 294.768 663.502H265.065Z" fill="#F1A34F"/>
<path d="M257.515 682.924H295.015C295.013 682.319 294.772 681.74 294.344 681.312C293.916 680.885 293.336 680.645 292.731 680.644H259.794C259.189 680.645 258.61 680.885 258.182 681.313C257.755 681.74 257.515 682.319 257.515 682.924V682.924Z" fill="#D86713"/>
<path d="M280.932 680.651H278.425C285.21 677.913 287.908 671.271 287.908 663.511H292.503C292.503 667.195 291.402 670.795 289.34 673.849C287.278 676.903 284.35 679.272 280.932 680.651V680.651Z" fill="#FFB973"/>
<path d="M275.089 682.924H295.026C295.024 682.319 294.783 681.74 294.355 681.312C293.927 680.885 293.347 680.645 292.742 680.644H276.641C275.375 680.651 275.089 681.665 275.089 682.924Z" fill="#F1A34F"/>
<path d="M257.632 664.072H295.081C295.156 664.072 295.228 664.042 295.281 663.989C295.335 663.935 295.364 663.863 295.364 663.788C295.364 663.713 295.335 663.641 295.281 663.588C295.228 663.535 295.156 663.505 295.081 663.505H257.632C257.557 663.505 257.485 663.535 257.432 663.588C257.379 663.641 257.349 663.713 257.349 663.788C257.349 663.863 257.379 663.935 257.432 663.989C257.485 664.042 257.557 664.072 257.632 664.072Z" fill="#D86713"/>
<path d="M457.106 565.145C457.071 565.3 457.033 565.46 456.995 565.619L394.131 565.599L340.747 565.586H333.387L208.884 565.549C208.884 565.549 208.826 565.411 208.726 565.148C207.931 563.041 204.326 552.908 203.832 540.67C203.708 537.708 203.79 534.742 204.078 531.792C204.156 531.021 204.246 530.241 204.36 529.475C204.562 528.044 204.827 526.613 205.155 525.18C205.155 525.174 205.155 525.167 205.155 525.16C205.468 523.805 205.84 522.456 206.281 521.116C206.419 520.695 206.563 520.276 206.725 519.855C206.891 519.397 207.064 518.938 207.248 518.484C207.348 518.229 207.454 517.977 207.558 517.724C208.443 515.632 209.501 513.616 210.721 511.7C212.233 509.334 213.994 507.137 215.973 505.145C237.408 483.527 263.494 491.364 281.247 496.551C287.416 498.354 292.576 499.838 296.189 499.652C300.536 499.431 303.609 496.589 307.031 492.673C309.691 489.623 312.573 485.924 316.423 482.304L316.436 482.291C317.081 481.686 317.766 481.082 318.458 480.484C325.551 474.461 335.781 469.014 352.83 467.654C365.358 466.655 378.381 467.457 388.983 471.466C398.025 474.884 405.303 480.634 409.007 489.587C409.643 491.124 410.162 492.707 410.558 494.323C412.258 501.249 412.11 509.77 409.532 520.17C408.778 523.213 408.592 525.778 408.867 527.949C409.086 529.871 409.803 531.704 410.946 533.265C411.489 533.994 412.117 534.656 412.817 535.236C420.203 541.416 436.032 540.617 446.827 544.464C454.772 547.308 459.988 552.651 457.106 565.145Z" fill="#EBF3FA"/>
<path d="M336.934 498.744L204.084 531.79C204.304 529.564 204.664 527.355 205.164 525.176C205.164 525.176 205.164 525.165 205.164 525.158C205.477 523.802 205.849 522.454 206.29 521.113L336.934 498.744Z" fill="#F8FBFF"/>
<path d="M387.101 488.579C389.02 488.579 390.575 487.026 390.575 485.109C390.575 483.192 389.02 481.638 387.101 481.638C385.183 481.638 383.628 483.192 383.628 485.109C383.628 487.026 385.183 488.579 387.101 488.579Z" fill="#F8FBFF"/>
<path d="M410.948 533.274L247.381 552.343C245.682 546.898 245.005 541.186 245.386 535.495L410.572 494.323C412.272 501.249 412.123 509.77 409.547 520.17C408.033 526.19 408.767 530.334 410.948 533.274Z" fill="#F8FBFF"/>
<path d="M333.387 565.586L208.884 565.546C208.884 565.546 200.574 545.015 205.158 525.176C205.158 525.176 205.158 525.165 205.158 525.158C216.912 524.624 228.577 527.435 238.796 533.265C259.807 545.204 294.305 536.468 304.291 543.166C314.278 549.864 316.567 556.799 323.993 557.991C330.47 559.03 332.878 564.266 333.383 565.584L333.387 565.586Z" fill="#C1E0E4"/>
<path d="M325.578 563.238C325.578 563.238 308.108 557.38 298.003 560.23C287.897 563.081 255.057 557.973 250.324 560.421V565.551H325.578V563.238Z" fill="#A8D29F"/>
<path d="M252.295 565.145H208.733C207.937 563.039 204.333 552.905 203.839 540.667C203.839 540.667 217.702 538.703 224.179 546.557C230.656 554.412 239.177 552.664 245.26 552.354C251.342 552.044 256.875 558.686 252.295 565.145Z" fill="#A8D29F"/>
<path d="M457.538 563.072C457.423 563.772 457.279 564.498 457.106 565.249H323.936C325.831 550.484 347.523 557.076 354.262 550.34C361 543.604 380.587 550.34 385.641 540.029C390.695 529.719 408.869 528.053 408.869 528.053C409.089 529.975 409.806 531.807 410.949 533.369C411.492 534.097 412.12 534.758 412.819 535.338C420.205 541.518 436.035 540.721 446.83 544.568C450.869 546.006 454.202 548.097 456.122 551.435C457.756 554.301 458.37 558.049 457.538 563.072Z" fill="#FFC6C5"/>
<path d="M228.286 507.843C228.286 507.843 212.492 539.115 224.496 565.143H212.335C212.335 565.143 210.914 536.725 224.338 509.104L228.286 507.843Z" fill="#365DA4"/>
<path d="M222.775 523.076C222.775 523.076 231.901 523.437 237.869 515.266L238.64 515.585C238.64 515.585 233.262 524.531 221.687 525.353L222.775 523.076Z" fill="#365DA4"/>
<path d="M231.536 521.353C231.368 517.94 232.122 514.546 233.719 511.525L234.094 511.717C234.074 511.755 232.176 515.525 232.484 520.974L231.536 521.353Z" fill="#365DA4"/>
<path d="M361.186 490.181C361.186 490.181 370.111 488.254 373.846 478.851L374.673 478.966C374.673 478.966 371.702 488.972 360.708 492.657L361.186 490.181Z" fill="#365DA4"/>
<path d="M369.233 486.327C368.217 483.065 368.098 479.59 368.889 476.266L369.299 476.359C369.299 476.399 368.395 480.524 370.055 485.722L369.233 486.327Z" fill="#365DA4"/>
<path d="M217.012 532.769C213.623 529.384 212.235 523.129 212.599 517.304C212.763 514.633 213.294 511.997 214.179 509.471L214.966 509.773C214.116 512.228 213.602 514.786 213.439 517.379C213.269 519.681 213.481 521.996 214.064 524.23C214.718 526.708 216.013 528.97 217.819 530.789L217.012 532.769Z" fill="#365DA4"/>
<path d="M281.253 496.551C281.253 496.551 275.67 506.107 266.034 506.264C256.398 506.421 257.832 515.89 249.293 517.944C240.755 519.997 235.078 515.729 232.551 511.317C230.024 506.904 213.066 515.082 210.726 511.697C212.238 509.332 213.998 507.135 215.977 505.143C237.412 483.525 263.498 491.362 281.251 496.549L281.253 496.551Z" fill="#E57970"/>
<path d="M212.887 521.984C210.737 521.328 208.796 520.121 207.259 518.482C207.359 518.227 207.465 517.975 207.569 517.722C208.857 519.036 210.648 520.05 212.787 520.71C213.022 520.786 212.951 522.004 212.887 521.984Z" fill="#365DA4"/>
<path d="M209.653 527.65C208.844 529.218 206.002 530.337 204.366 529.473C204.569 528.042 204.834 526.61 205.162 525.178C205.162 525.171 205.162 525.165 205.162 525.158C205.475 523.802 205.847 522.453 206.288 521.113C206.425 520.693 206.57 520.274 206.731 519.853C207.154 520.125 207.507 520.493 207.759 520.928C208.011 521.363 208.156 521.852 208.181 522.354C208.319 524.141 210.846 525.333 209.653 527.65Z" fill="#E57970"/>
<path d="M270.024 513.27C270.024 515.401 268.075 517.126 265.67 517.126C263.265 517.126 259.907 515.47 259.907 513.339C259.907 511.208 264.524 508.709 266.927 508.709C269.33 508.709 270.024 511.139 270.024 513.27Z" fill="#E57970"/>
<path d="M371.736 565.628L357.494 565.611C359.09 554.036 359.826 542.359 359.695 530.676C359.604 521.55 358.954 512.439 357.749 503.393C355.716 488.241 352.779 479.066 352.75 478.975L359.161 476.898C359.278 477.287 373.779 528.432 371.736 565.628Z" fill="#365DA4"/>
<path d="M358.236 507.363C338.743 504.381 328.125 485.558 328.019 485.377L328.923 484.838C328.947 484.88 331.559 489.209 336.413 493.574C339.123 496.042 342.169 498.113 345.462 499.725C349.466 501.625 353.808 502.713 358.236 502.926V507.363Z" fill="#365DA4"/>
<path d="M339.651 496.6L337.975 495.603L337.361 494.917C337.403 494.879 342.375 490.992 341.471 485.171L342.2 485.058C343.557 488.402 339.698 496.558 339.651 496.6Z" fill="#365DA4"/>
<path d="M388.988 471.466C387.068 478.765 372.806 482.054 363.106 480.484C353.406 478.913 347.312 487.946 335.941 488.577C324.569 489.209 318.462 480.484 318.462 480.484C325.556 474.461 335.786 469.014 352.834 467.654C365.363 466.655 378.386 467.457 388.988 471.466Z" fill="#FFA49F"/>
<path d="M463.142 565.249C463.142 565.249 456.352 559.871 442.454 561.927C428.555 563.982 408.494 558.006 400.756 565.249H463.142Z" fill="#82B378"/>
<path d="M418.445 562.45C418.445 562.45 406.918 546.668 400.756 550.456C394.594 554.243 418.445 562.45 418.445 562.45Z" fill="#82B378"/>
<path d="M410.179 561.652C410.179 561.652 399.856 557.18 397.433 558.97C395.01 560.76 410.179 561.652 410.179 561.652Z" fill="#82B378"/>
<path d="M457.538 563.353L421.89 562.002C423.526 562.055 435.753 562.284 441.348 557.437C447.35 552.236 456.122 551.35 456.122 551.35C457.755 554.29 458.369 558.161 457.538 563.353Z" fill="#82B378"/>
<path d="M204.388 565.263C204.388 565.263 209.061 562.135 217.936 563.32C226.812 564.505 252.332 565.4 264.759 564.138C277.186 562.875 302.835 565.245 302.835 565.245L204.388 565.263Z" fill="#82B378"/>
<path d="M470.302 565.25H191.392C191.217 565.25 191.075 565.391 191.075 565.566V565.673C191.075 565.848 191.217 565.989 191.392 565.989H470.302C470.477 565.989 470.619 565.848 470.619 565.673V565.566C470.619 565.391 470.477 565.25 470.302 565.25Z" fill="#2E3552"/>
<path d="M213.306 564.326C213.306 564.326 215.642 554.279 216.852 556.436C218.063 558.593 213.306 564.326 213.306 564.326Z" fill="#82B378"/>
<path d="M214.574 564.153C214.574 564.153 217.517 559.637 218.054 560.221C218.59 560.806 214.574 564.153 214.574 564.153Z" fill="#82B378"/>
<path d="M211.87 563.699C211.845 563.646 210.396 558.91 209.414 559.823C208.432 560.735 211.87 563.699 211.87 563.699Z" fill="#82B378"/>
<path d="M274.761 564.494C274.761 564.335 271.237 557.993 269.971 558.97C268.705 559.947 274.761 564.494 274.761 564.494Z" fill="#82B378"/>
<path d="M275.131 564.494C275.182 564.177 275.814 558.713 274.446 558.868C273.078 559.023 275.182 564.184 275.182 564.184L275.131 564.494Z" fill="#82B378"/>
<path d="M253.084 557.395H226.885L225.675 551.242H251.825L253.084 557.395Z" fill="#B27D59"/>
<path d="M253.532 557.395H227.333L226.121 551.242H252.273L253.532 557.395Z" fill="#E0B594"/>
<path d="M226.885 557.395H234.619V558.148H227.459C227.307 558.148 227.161 558.088 227.053 557.98C226.946 557.873 226.885 557.727 226.885 557.575V557.395V557.395Z" fill="#B27D59"/>
<path d="M258.353 557.395H234.56V558.148H258.353V557.395Z" fill="#D3A07D"/>
<path d="M333.919 509.516H333.387V509.474L333.547 508.071C333.549 508.05 333.559 508.029 333.576 508.014C333.592 508 333.613 507.992 333.635 507.992H333.653C333.685 507.996 333.714 508.01 333.736 508.032C333.758 508.055 333.772 508.084 333.775 508.116L333.919 509.516Z" fill="#2B478B"/>
<path d="M333.443 509.197H333.425L333.556 508.071C333.558 508.05 333.568 508.029 333.584 508.014C333.601 508 333.622 507.992 333.644 507.992H333.662H333.675C333.699 508.018 333.712 508.052 333.713 508.087V508.895C333.715 508.933 333.71 508.971 333.697 509.006C333.685 509.041 333.665 509.074 333.64 509.102C333.615 509.13 333.585 509.153 333.551 509.169C333.517 509.185 333.48 509.195 333.443 509.197V509.197Z" fill="#3F65B2"/>
<path d="M334.254 515.755H333.239V560.521H334.254V515.755Z" fill="#2B478B"/>
<path d="M333.706 515.755H333.239V560.521H333.706V515.755Z" fill="#4365AA"/>
<path d="M335.362 553.375H332.13V565.219H335.362V553.375Z" fill="#2B478B"/>
<path d="M334.057 553.375H332.13V565.219H334.057V553.375Z" fill="#4365AA"/>
<path d="M335.513 510.191C335.513 510.743 334.682 511.192 333.655 511.192C333.578 511.192 333.5 511.192 333.434 511.192C332.516 511.133 331.807 510.71 331.807 510.2C331.807 509.691 332.516 509.268 333.434 509.206C333.509 509.206 333.587 509.206 333.655 509.206C334.682 509.19 335.513 509.638 335.513 510.191Z" fill="#2B478B"/>
<path d="M334.551 510.191C334.551 510.634 334.088 511.02 333.425 511.184C332.507 511.124 331.798 510.701 331.798 510.191C331.798 509.682 332.507 509.259 333.425 509.197C334.088 509.363 334.551 509.744 334.551 510.191Z" fill="#3F65B2"/>
<path d="M335.358 516.637H332.128L330.986 511.157H336.322L335.358 516.637Z" fill="#3F65B2"/>
<path d="M336.613 510.743H330.701V511.268H336.613V510.743Z" fill="#2B478B"/>
<path d="M334.418 510.743H330.701V511.268H334.418V510.743Z" fill="#3F65B2"/>
<path d="M332.66 553.375H334.717L334.414 552.46C334.401 552.42 334.376 552.385 334.342 552.361C334.308 552.336 334.267 552.323 334.225 552.323H333.259C333.207 552.323 333.157 552.338 333.114 552.367C333.071 552.396 333.038 552.437 333.019 552.484L332.66 553.375Z" fill="#365DA4"/>
<path d="M331.37 511.423H335.925L335.037 516.351H332.421L331.37 511.423Z" fill="#F9DDBF"/>
<path d="M331.922 510.249C331.922 510.249 332.268 509.491 332.953 509.516C332.953 509.516 332.509 509.903 332.558 510.249C332.607 510.594 331.922 510.249 331.922 510.249Z" fill="#C7DCF9"/>
<path d="M336.233 510.743H331.077L331.498 510.142H335.832L336.233 510.743Z" fill="#2B478B"/>
<path d="M334.963 510.743H331.077L331.498 510.142H334.562L334.963 510.743Z" fill="#3F65B2"/>
<path d="M331.671 511.596H332.715L333.021 516.196H332.715L331.671 511.596Z" fill="#FFEBD9"/>
<path d="M263.217 528.948H262.873V528.924L262.977 528.011C262.979 527.997 262.986 527.984 262.997 527.974C263.007 527.964 263.021 527.959 263.035 527.958C263.054 527.96 263.071 527.968 263.086 527.98C263.102 527.996 263.113 528.017 263.115 528.04L263.217 528.948Z" fill="#2B478B"/>
<path d="M262.897 528.742L262.984 528.009C262.986 527.995 262.993 527.982 263.003 527.972C263.014 527.962 263.027 527.956 263.042 527.956V527.956C263.057 527.972 263.066 527.993 263.066 528.015V528.543C263.068 528.567 263.065 528.591 263.058 528.614C263.051 528.637 263.039 528.659 263.023 528.677C263.008 528.696 262.988 528.711 262.967 528.722C262.945 528.733 262.922 528.74 262.897 528.742V528.742Z" fill="#3F65B2"/>
<path d="M263.434 533.012H262.773V562.16H263.434V533.012Z" fill="#2B478B"/>
<path d="M263.079 533.012H262.773V562.16H263.079V533.012Z" fill="#4365AA"/>
<path d="M264.154 557.508H262.05V565.221H264.154V557.508Z" fill="#2B478B"/>
<path d="M263.305 557.508H262.05V565.221H263.305V557.508Z" fill="#4365AA"/>
<path d="M264.254 529.389C264.254 529.747 263.713 530.04 263.044 530.04H262.893C262.297 530 261.835 529.725 261.835 529.393C261.835 529.061 262.297 528.786 262.893 528.746C262.944 528.746 262.993 528.746 263.044 528.746C263.713 528.735 264.254 529.028 264.254 529.389Z" fill="#2B478B"/>
<path d="M263.627 529.389C263.627 529.679 263.325 529.927 262.893 530.035C262.297 529.996 261.835 529.721 261.835 529.389C261.835 529.056 262.297 528.782 262.893 528.742C263.325 528.848 263.627 529.098 263.627 529.389Z" fill="#3F65B2"/>
<path d="M264.154 533.586H262.048L261.308 530.018H264.781L264.154 533.586Z" fill="#3F65B2"/>
<path d="M264.969 529.747H261.119V530.091H264.969V529.747Z" fill="#2B478B"/>
<path d="M263.54 529.747H261.119V530.091H263.54V529.747Z" fill="#3F65B2"/>
<path d="M262.396 557.508H263.74L263.545 556.91C263.536 556.884 263.519 556.862 263.497 556.846C263.474 556.83 263.448 556.822 263.421 556.821H262.791C262.758 556.822 262.725 556.832 262.697 556.851C262.67 556.87 262.648 556.897 262.636 556.928L262.396 557.508Z" fill="#365DA4"/>
<path d="M261.556 530.19H264.522L263.943 533.398H262.239L261.556 530.19Z" fill="#F9DDBF"/>
<path d="M261.915 529.426C261.915 529.426 262.137 528.932 262.58 528.948C262.58 528.948 262.296 529.2 262.323 529.426C262.35 529.652 261.915 529.426 261.915 529.426Z" fill="#C7DCF9"/>
<path d="M264.723 529.747H261.365L261.64 529.358H264.462L264.723 529.747Z" fill="#2B478B"/>
<path d="M263.897 529.747H261.365L261.64 529.358H263.635L263.897 529.747Z" fill="#3F65B2"/>
<path d="M261.753 530.303H262.432L262.631 533.298H262.432L261.753 530.303Z" fill="#FFEBD9"/>
<path d="M228.448 558.148L228.005 559.92L226.675 565.141C226.666 565.174 226.647 565.204 226.62 565.225C226.594 565.246 226.56 565.258 226.526 565.258C226.495 565.257 226.464 565.249 226.436 565.236C226.408 565.222 226.384 565.202 226.364 565.178C226.344 565.154 226.329 565.126 226.321 565.096C226.313 565.066 226.311 565.034 226.316 565.004L227.499 558.912L227.648 558.157L228.448 558.148Z" fill="#EDBE9D"/>
<path d="M228 559.909C228.042 559.008 227.497 558.904 227.497 558.904L227.646 558.148H228.448L228 559.909Z" fill="#B27D59"/>
<path d="M234.131 558.148L233.688 559.92L232.358 565.141C232.35 565.174 232.331 565.204 232.304 565.225C232.277 565.246 232.244 565.258 232.21 565.258C232.177 565.259 232.146 565.252 232.116 565.239C232.087 565.226 232.061 565.206 232.04 565.182C232.019 565.158 232.003 565.129 231.994 565.099C231.985 565.068 231.983 565.035 231.988 565.004L233.172 558.912L233.32 558.157L234.131 558.148Z" fill="#EDBE9D"/>
<path d="M233.684 559.909C233.726 559.008 233.181 558.904 233.181 558.904L233.329 558.148H234.132L233.684 559.909Z" fill="#B27D59"/>
<path d="M256.183 558.148L256.626 559.92L257.956 565.141C257.964 565.174 257.983 565.204 258.01 565.225C258.037 565.246 258.07 565.258 258.104 565.258C258.136 565.257 258.166 565.249 258.194 565.236C258.222 565.222 258.247 565.202 258.267 565.178C258.287 565.154 258.301 565.126 258.31 565.096C258.318 565.066 258.32 565.034 258.315 565.004L257.131 558.912L256.983 558.157L256.183 558.148Z" fill="#EDBE9D"/>
<path d="M256.63 559.909C256.588 559.008 257.134 558.904 257.134 558.904L256.985 558.148H256.183L256.63 559.909Z" fill="#B27D59"/>
<path d="M250.499 558.148L250.942 559.92L252.272 565.141C252.281 565.174 252.3 565.204 252.327 565.225C252.354 565.246 252.387 565.258 252.421 565.258C252.453 565.259 252.485 565.252 252.514 565.239C252.543 565.226 252.57 565.206 252.591 565.182C252.612 565.158 252.627 565.129 252.636 565.099C252.645 565.068 252.647 565.035 252.643 565.004L251.459 558.912L251.313 558.157L250.499 558.148Z" fill="#EDBE9D"/>
<path d="M250.947 559.909C250.905 559.008 251.45 558.904 251.45 558.904L251.304 558.148H250.499L250.947 559.909Z" fill="#B27D59"/>
<path d="M233.624 557.395H228.193C227.652 556.595 228.268 554.75 228.448 553.933C228.643 553.047 227.577 551.641 227.255 551.242H231.522C232.101 552.845 233.393 556.148 233.624 557.395Z" fill="#D3A07D"/>
<path d="M252.935 557.395H247.505C246.964 556.595 247.58 554.75 247.759 553.933C247.955 553.047 246.888 551.641 246.567 551.242H250.834C251.413 552.845 252.7 556.148 252.935 557.395Z" fill="#D3A07D"/>
<path d="M386.353 507.868C386.353 507.868 384.728 508.532 384.448 509.761C384.169 510.991 386.574 510.743 386.353 507.868Z" fill="#FFA49F"/>
<path d="M388.168 493.909C388.168 493.909 390.748 496.048 391.854 494.89C392.96 493.732 388.168 493.909 388.168 493.909Z" fill="#FFA49F"/>
<path d="M401.383 519.459C401.383 519.459 397.75 520.196 398.224 521.302C398.699 522.407 401.383 519.459 401.383 519.459Z" fill="#FFA49F"/>
<path d="M379.884 518.734C379.884 518.734 379.981 521.051 382.003 521.014C382.003 521.02 382.657 519.399 379.884 518.734Z" fill="#FFA49F"/>
<path d="M350.821 525.756C350.821 525.756 349.733 527.262 348.647 527.333C347.56 527.404 347.206 528.596 348.647 528.662C350.087 528.729 351.138 526.352 350.821 525.756Z" fill="#FFA49F"/>
<path d="M344.925 521.02C344.925 521.02 345.663 523.089 346.539 522.529C347.414 521.968 344.925 521.02 344.925 521.02Z" fill="#FFA49F"/>
<path d="M590.503 661.409L587.532 673.911L583.083 673.886L582.919 661.409H590.503Z" fill="#FFB27D"/>
<path d="M552.502 661.943L544.05 673.911L540.756 669.685L545.844 660.297L552.502 661.943Z" fill="#FFB27D"/>
<path d="M587.681 673.213C587.498 674.942 587.692 676.691 588.248 678.339C588.248 678.339 588.975 681.661 585.708 681.716C582.441 681.772 581.638 681.468 582.008 679.435C582.379 677.402 583.083 673.897 583.083 673.897L587.681 673.213Z" fill="#FFB27D"/>
<path d="M581.701 683.342H581.712H588.473C588.843 681.608 588.238 678.341 588.238 678.341C584.538 681.885 582.222 678.252 582.222 678.252C581.632 679.765 581.701 683.342 581.701 683.342Z" fill="#599DAD"/>
<path d="M532.887 679.922C532.887 679.922 538.912 673.085 540.763 669.685L545.243 671.979L535.228 681.378L532.885 681.067L532.887 679.922Z" fill="#FFB27D"/>
<path d="M529.186 683.331H537.542C538.278 682.667 538.981 681.338 539.841 679.581C540.333 678.578 541.437 678.031 542.57 677.723V683.331H544.299L545.901 677.366C546.968 675.373 546.165 673.536 545.416 671.957C544.543 671.957 542.011 672.584 537.56 677.694C536.097 679.373 534.483 679.971 532.878 679.922C532.857 679.936 532.835 679.948 532.812 679.958C530.281 681.121 529.454 682.547 529.186 683.331Z" fill="#599DAD"/>
<path d="M576.154 513.27C576.167 513.24 576.176 513.209 576.181 513.177C576.18 513.169 576.18 513.162 576.183 513.154C576.185 513.147 576.189 513.14 576.194 513.135C576.369 512.53 576.571 511.926 576.773 511.334V511.203C577.37 509.513 578.08 507.865 578.898 506.271V506.257C579.357 505.371 579.814 504.563 580.27 503.85C580.339 503.743 580.406 503.628 580.472 503.542C580.494 503.502 580.522 503.465 580.554 503.433C580.586 503.377 580.621 503.323 580.661 503.272C581.082 502.635 581.564 502.042 582.101 501.5C582.516 501.055 583.026 500.711 583.593 500.492C585.316 499.927 587.173 500.21 588.452 500.545C588.195 500.128 587.566 499.88 587.566 499.88C588.386 499.92 590.015 501.076 590.015 501.076C593.903 500.412 595.936 501.384 597.443 503.588C598.229 504.745 598.786 506.041 599.086 507.407V507.42C599.308 508.318 599.47 509.23 599.569 510.149V510.162C599.959 513.899 599.888 518.001 599.471 519.547C598.476 523.313 602.202 525.355 607.396 529.515C617.298 537.473 616.719 545.339 616.719 545.339C616.626 545.379 616.531 545.405 616.424 545.458C616.061 544.424 615.281 542.448 614.378 541.99C614.392 542.085 615.026 544.626 615.159 546.023C611.612 547.744 605.002 551.643 600.036 554.626C599.728 554.801 599.431 554.99 599.137 555.165C599.309 554.398 599.498 553.324 599.338 552.69L598.168 555.743C597.077 556.407 596.109 556.994 595.355 557.464L593.606 558.54C593.728 558.15 593.646 557.49 593.404 556.618V556.611C593.171 555.844 592.897 555.09 592.584 554.352C591.427 551.514 589.423 547.685 587.122 543.826C586.96 543.556 586.785 543.288 586.623 543.02C584.296 539.174 581.7 535.382 579.386 532.56C578.701 531.711 577.973 530.898 577.205 530.124L577.125 530.044C576.832 529.312 576.62 528.55 576.493 527.772C576.184 525.875 576.08 523.95 576.183 522.03C575.875 524.64 575.901 526.48 576.063 527.789C576.109 528.238 576.19 528.682 576.305 529.118C576.004 528.707 575.756 528.261 575.565 527.789C573.975 524.199 574.594 518.513 576.154 513.27Z" fill="#BC3F3F"/>
<path d="M578.841 531.32C578.803 531.338 582.494 533.252 585.269 532.494C587.881 531.781 589.588 528.398 589.55 528.39C588.442 528.168 588.127 526.653 588.149 520.125L587.65 520.225L579.242 521.889C579.242 521.889 579.433 524.531 579.44 527.023C579.437 529.114 579.32 531.096 578.841 531.32Z" fill="#FFB27D"/>
<path d="M579.244 521.889C579.244 521.889 579.435 524.531 579.441 527.023C584.145 526.89 586.632 522.593 587.643 520.225L579.244 521.889Z" fill="#EF9E67"/>
<path d="M589.381 520.52C589.381 520.52 592.569 517.197 593.814 514.043C594.701 511.797 595.253 502.924 586.32 502.419C584.522 502.309 582.722 502.604 581.053 503.28C578.912 504.166 575.638 506.381 577.158 514.522L577.435 517.226L589.381 520.52Z" fill="#BC3F3F"/>
<path d="M541.271 665.988C541.271 665.988 543.505 666.373 545.34 666.513C545.748 666.544 546.134 666.561 546.473 666.561C547.36 666.561 548.947 666.229 550.02 665.981L550.099 665.963C550.567 665.85 550.926 665.76 551.059 665.726L551.115 665.711C551.115 665.711 562.258 653.307 568.509 633.445C568.653 632.982 568.808 632.515 568.97 632.043C572.39 622.075 579.481 609.567 583.219 598.242C583.81 596.44 584.345 594.742 584.826 593.147C584.981 592.634 585.129 592.126 585.269 591.63C588.024 582.068 588.816 575.791 589.554 569.084L567.088 574.796C567.088 574.796 557.654 615.645 541.271 665.988Z" fill="#A8D29F"/>
<path d="M577.772 523.216C577.772 523.216 588.647 525.594 590.026 518.803C591.405 512.012 593.734 507.748 586.85 505.943C579.965 504.138 578.085 506.455 577.074 508.601C576.063 510.747 574.979 522.423 577.772 523.216Z" fill="#FFB27D"/>
<path d="M581.913 504.78C581.913 504.78 583.294 513.35 587.641 515.45C591.988 517.55 594.225 516.726 594.225 516.726C594.225 516.726 592.895 513.625 593.141 508.599C593.141 508.594 584.932 501.435 581.913 504.78Z" fill="#BC3F3F"/>
<path d="M582.523 505.571C582.523 505.571 579.934 506.9 579.04 508.521C578.147 510.143 577.185 513.651 576.17 513.321C576.17 513.321 575.013 507.451 578.165 504.904C581.496 502.188 582.523 505.571 582.523 505.571Z" fill="#BC3F3F"/>
<path d="M545.34 666.513C545.748 666.544 546.134 666.561 546.473 666.561C547.36 666.561 548.947 666.229 550.02 665.981L550.1 665.963L551.059 665.726L551.115 665.711C551.115 665.711 562.258 653.307 568.509 633.445C568.653 632.982 568.808 632.515 568.97 632.043C572.39 622.075 579.481 609.567 583.219 598.242C583.81 596.44 584.346 594.742 584.826 593.147C584.981 592.633 585.13 592.126 585.269 591.63L581.297 588.615C581.297 588.615 569.365 607.919 565.674 626.084C562.61 641.131 549.43 660.654 545.34 666.513Z" fill="#82B378"/>
<path d="M580.88 627.768C580.814 636.601 581.259 656.911 582.412 665.321C582.412 665.321 583.502 666.287 586.211 666.298C588.984 666.298 590.223 665.286 590.223 665.286C593.105 650.667 595.166 638.57 596.663 628.144C597.891 619.592 598.981 612.258 599.819 605.943C600.564 600.351 601.109 595.555 601.371 591.422C601.406 590.862 601.435 590.314 601.462 589.776C601.494 589.067 601.518 588.379 601.533 587.712C601.546 587.047 601.548 586.383 601.544 585.752H601.446L595.865 585.209L578.229 583.49C578.524 598.96 580.918 622.633 580.88 627.768Z" fill="#A8D29F"/>
<path d="M586.211 666.298C587.621 666.379 589.021 666.025 590.224 665.285C593.105 650.666 595.167 638.57 596.663 628.144C597.891 619.592 598.982 612.258 599.819 605.943C600.564 600.351 601.11 595.555 601.371 591.422C601.402 589.386 601.424 587.435 601.446 585.743C601.469 584.05 601.5 582.577 601.546 581.565L595.865 585.2L589.88 589.021C589.88 589.021 598.361 596.729 596.277 611.302C594.194 625.874 589.111 664.233 586.211 666.298Z" fill="#82B378"/>
<path d="M579.783 527.568C579.783 527.568 572.528 526.682 569.484 529.697C565.756 533.402 558.758 554.649 559.035 557.074C559.141 558 562.821 557.568 564.082 556.248C570.366 549.66 577.575 532.496 579.783 527.568Z" fill="#6BB7BF"/>
<path d="M563.985 587.437C570.75 589.194 602.322 592.662 602.595 584.759C602.661 582.832 602.595 580.506 602.442 577.986C601.97 570.18 600.688 560.534 600.074 555.229C599.793 552.792 600.739 541.899 600.01 535.958C599.928 535.191 599.78 534.432 599.567 533.69C598.201 529.209 592.074 527.993 588.927 527.887L579.437 527.563C579.437 527.563 569.635 538.503 568.272 541.866C566.908 545.228 566.461 556.731 565.401 562.304C564.342 567.876 560.695 586.582 563.985 587.437Z" fill="#6BB7BF"/>
<path d="M582.631 560.733C582.631 560.733 587.907 576.927 602.442 577.986C601.969 570.18 600.688 560.534 600.074 555.229C599.793 552.792 600.739 541.899 600.01 535.958C599.822 535.998 599.651 536.105 599.454 536.142C583.447 539.234 581.177 557.357 582.631 560.733Z" fill="#599DAD"/>
<path d="M559.487 557.473C559.487 557.473 569.019 560.594 580.625 555.588C580.625 555.588 583.786 555.289 585.356 555.687C585.356 555.687 585.019 552.553 583.483 551.7C581.947 550.848 575.35 552.693 573.377 552.42C569.07 551.829 561.555 551.366 559.487 557.473Z" fill="#EF9E67"/>
<path d="M567.984 550.187C567.984 550.187 567.097 542.45 570.121 537.783C570.121 537.783 569.05 537.42 568.283 538.632C567.516 539.843 562.163 551.335 564.712 552.181C567.261 553.027 567.984 550.187 567.984 550.187Z" fill="#599DAD"/>
<path d="M581.893 551.474C582.028 551.474 586.393 552.044 587.164 552.582C587.936 553.12 587.255 555.034 585.801 555.215C584.347 555.397 581.893 551.474 581.893 551.474Z" fill="#EF9E67"/>
<path d="M593.819 554.396C593.819 554.396 581.392 553.953 570.12 551.762C570.12 551.762 568.059 551.78 568.303 553.579C568.547 555.377 587.841 565.442 592.083 563.504L593.819 554.396Z" fill="#FFB27D"/>
<path d="M570.127 551.771C570.127 551.771 568.808 550.181 567.99 550.181C567.172 550.181 565.035 551.226 564.718 552.174C564.401 553.122 567.245 552.447 568.309 553.583C569.373 554.719 570.127 551.771 570.127 551.771Z" fill="#FFB27D"/>
<path d="M588.938 527.891C588.938 527.891 599.381 527.916 600.908 531.657C603.697 538.499 594.506 561.203 592.083 563.504C591.039 564.494 586.211 562.935 586.211 556.394C586.211 553.012 586.455 533.198 588.938 527.891Z" fill="#6BB7BF"/>
<path d="M485.913 591.344C485.102 591.71 484.096 592.162 483.191 592.574C482.889 592.024 482.554 591.493 482.189 590.983C482.189 590.983 470.441 571.168 469.457 566.534C469.14 565.024 468.36 562.005 467.449 558.622C465.562 551.618 463.126 543.049 463.126 543.049L462.326 539.58L459.593 527.745C459.593 527.745 464.829 528.281 467.89 529.559C468.903 529.982 469.679 530.487 469.947 531.081C472.197 536.023 474.442 548.497 476.02 557.395C476.907 562.354 477.572 566.206 477.922 567.021C478.9 569.296 481.884 581.822 484.435 588C484.435 588 485.12 590.166 485.913 591.344Z" fill="#D9935C"/>
<path d="M483.181 592.667C483.181 592.667 483.041 593.885 483.456 594.62C483.87 595.356 485.451 596.426 485.726 595.89C486.087 595.172 483.181 592.667 483.181 592.667Z" fill="#D9935C"/>
<path d="M474.079 676.863C474.079 676.863 470.025 680.015 468.375 680.618C466.726 681.22 464.487 681.789 464.487 682.897H472.323C472.323 682.897 474.456 681.909 475.347 682.334C476.79 683.023 477.996 682.917 478.991 682.921C479.986 682.926 480.053 679.586 479.213 678.423C478.373 677.26 477.754 675.47 477.754 675.47L474.079 676.863Z" fill="#163560"/>
<path d="M442.117 532.319C441.76 531.212 441.49 530.416 441.354 530.02L441.259 529.739C441.155 529.842 441.058 529.952 440.969 530.069C439.86 531.46 436.043 537.442 438.909 551.288C439.331 553.326 439.898 555.535 440.638 557.933C440.638 557.933 430.076 556.073 427.092 554.086C426.968 553.776 425.417 549.182 424.235 548.548C423.054 547.915 420.881 547.246 420.382 547.494C419.884 547.742 418.955 551.22 420.382 553.032C421.81 554.843 425.481 556.576 425.481 556.576C425.481 556.576 437.287 566.014 445.489 565.763C452.338 565.54 444.786 540.535 442.117 532.319Z" fill="#D9935C"/>
<path d="M479.368 523.415C474.764 520.586 481.452 514.293 479.368 505.172C477.284 496.051 469.741 497.774 464.179 494.848C460.132 492.717 457.259 494.872 455.995 496.204C450.981 495.836 445.134 502.862 445.134 502.862L454.841 515.709L454.473 531.32C454.473 531.32 462.832 543.755 470.909 543.41C478.987 543.064 487.565 528.447 479.368 523.415Z" fill="#233862"/>
<path d="M452.941 661.524C449.199 672.066 446.834 675.669 446.834 675.669L441.82 676.872C441.82 676.872 443.32 671.237 444.285 660.012C444.95 652.164 444.87 642.805 442.609 633.653C434.851 602.236 438.665 580.272 438.665 580.272L458.48 584.513L459.402 584.713C458.613 593.914 457.664 606.42 456.946 616.203C456.295 624.999 455.838 631.591 455.838 631.591C458.897 640.256 456.388 651.825 452.941 661.524Z" fill="#163560"/>
<path d="M475.571 652.31C478.231 664.699 477.754 675.47 477.754 675.47C477.754 675.47 476.923 676.589 476.18 676.748C475.486 676.857 474.782 676.895 474.079 676.863C474.079 676.863 471.918 666.763 466.899 657.644C461.732 648.257 457.223 640.039 455.532 636.865C448.82 624.27 448.539 577.981 448.539 577.981L468.945 576.969C470.996 580.416 471.891 586.071 472.104 592.501C472.64 608.726 468.823 629.883 468.254 632.944C468.221 633.181 468.268 633.422 468.387 633.629C472.445 641.667 473.855 644.303 475.571 652.31Z" fill="#1C468A"/>
<path d="M439.63 582.593C444.759 582.535 458.72 582.267 462.076 581.151C466.21 579.773 467.157 575.731 467.157 575.299C467.157 575.206 466.82 573.305 466.281 570.371C465.208 568.12 464.674 566.765 464.641 565.331C464.636 564.567 464.737 563.805 464.942 563.068C465.385 561.342 466.308 559.081 467.669 555.315C468.142 554.002 468.481 552.644 468.682 551.262C470.049 542.067 466.571 530.946 462.382 528.356C461.892 528.055 460.724 528.073 460.139 527.953C459.057 527.668 457.221 523.76 457.257 517.465L456.767 517.561L448.565 519.182C448.565 519.182 448.752 521.758 448.756 524.186C448.756 526.206 448.641 528.124 448.18 528.368C447.592 528.418 447.242 528.454 447.242 528.454L447.22 528.485C445.668 528.587 441.519 528.955 440.971 530.073L442.485 534.667L442.928 535.996C441.767 538.486 440.687 541.365 440.153 544.276C440.004 545.092 439.9 545.916 439.843 546.743C439.798 547.412 439.792 548.083 439.825 548.752C440.153 556.252 444.875 560.784 439.796 577.007C439.065 579.337 439.069 581.171 439.63 582.593Z" fill="#D9935C"/>
<path d="M439.63 582.593C442.186 586.055 457.257 586.053 460.613 584.936C464.747 583.556 467.156 575.731 467.156 575.299C467.156 575.206 466.819 573.305 466.281 570.371C465.915 568.348 465.452 565.828 464.951 563.061C462.716 550.936 459.6 534.164 459.6 534.164C459.6 534.164 452.819 540.032 448.295 538.816C443.77 537.6 442.542 534.512 442.542 534.512L442.496 534.66C442.194 535.622 440.55 540.973 440.217 543.72C440.202 543.848 440.184 544.034 440.16 544.278C440.082 545.148 439.969 546.714 439.831 548.754C440.16 556.254 444.881 560.786 439.803 577.009C439.065 579.337 439.069 581.171 439.63 582.593Z" fill="#82B378"/>
<path d="M448.565 519.178C448.565 519.178 448.752 521.754 448.756 524.181C453.34 524.051 455.763 519.873 456.756 517.556L448.565 519.178Z" fill="#CB7D45"/>
<path d="M457.603 516.666C457.603 516.666 460.006 512.871 460.582 509.629C460.994 507.314 459.813 498.729 451.181 499.967C449.443 500.207 447.781 500.835 446.318 501.803C444.444 503.068 441.74 505.79 444.766 513.288L445.551 515.82L457.603 516.666Z" fill="#233862"/>
<path d="M447.034 521.477C447.034 521.477 457.88 521.654 457.895 514.903C457.911 508.151 459.309 503.628 452.385 503.23C445.46 502.831 444.11 505.402 443.56 507.66C443.01 509.917 444.221 521.255 447.034 521.477Z" fill="#D9935C"/>
<path d="M454.963 512.154C459.52 513.326 461.497 512.105 461.497 512.105C461.497 512.105 461.378 505.892 460.653 501.048C460.653 501.048 452.615 500.744 447.528 502.928C446.819 502.317 445.551 501.872 443.873 503.903C441.359 506.949 443.595 512.331 443.595 512.331C444.628 512.453 444.872 508.913 445.413 507.194C445.81 505.927 447.116 504.636 447.778 504.045C448 504.824 450.172 512.406 455.625 514.925C453.939 513.359 452.473 511.57 451.27 509.609C452.327 510.807 453.57 511.797 454.963 512.154Z" fill="#233862"/>
<path d="M453.191 607.049C454.105 615.007 454.566 634.617 451.992 642.01C460.178 641.169 474.988 635.893 479.368 631.378C477.032 622.556 474.713 612.072 474.132 603.551C473.995 601.516 473.78 599.019 473.509 596.189C472.401 584.671 470.362 567.64 468.604 553.57C466.873 539.728 465.418 528.762 465.418 528.762L461.442 528.044C461.442 528.044 455.741 532.696 454.818 548.531C453.896 564.366 451.83 595.199 453.191 607.049Z" fill="#BC3F3F"/>
<path d="M447.244 528.449C447.277 528.429 442.829 528.534 441.259 529.739C439.732 530.908 435.624 538.692 436.223 550.338C435.78 552.256 435.356 554.223 434.979 556.203C433.871 556.474 432.304 556.068 432.304 556.068C432.304 556.068 431.461 564.011 433.19 569.624C433.133 570.472 433.093 571.307 433.069 572.125C432.552 589.333 438.901 613.545 438.901 613.545C438.901 613.545 441.062 594.135 441.982 572.736C442.611 558.082 440.43 548.987 442.948 541.308C444.119 537.693 447.244 528.449 447.244 528.449Z" fill="#BC3F3F"/>
<path d="M442.099 675.971C442.099 675.971 437.604 680.015 435.954 680.622C434.305 681.229 432.066 681.794 432.066 682.901H439.902C439.902 682.901 442.035 681.913 442.928 682.339C444.369 683.028 445.577 682.921 446.572 682.926C447.568 682.93 447.632 679.59 446.794 678.427C445.956 677.264 446.836 675.674 446.836 675.674L442.099 675.971Z" fill="#163560"/>
<path d="M428.551 552.068L425.093 541.689C425.065 541.608 425.007 541.541 424.931 541.503C424.854 541.464 424.766 541.458 424.685 541.485L420.096 543.011C420.056 543.024 420.018 543.045 419.986 543.073C419.954 543.101 419.928 543.135 419.909 543.173C419.89 543.211 419.878 543.253 419.876 543.295C419.873 543.338 419.879 543.38 419.893 543.421L423.351 553.8C423.378 553.881 423.436 553.948 423.512 553.986C423.589 554.024 423.677 554.031 423.758 554.004L428.347 552.478C428.387 552.465 428.425 552.443 428.457 552.416C428.489 552.388 428.516 552.354 428.535 552.316C428.554 552.277 428.565 552.236 428.568 552.193C428.57 552.151 428.565 552.108 428.551 552.068V552.068Z" fill="#163560"/>
<path d="M427.87 552.03L424.567 542.125C424.544 542.054 424.506 541.988 424.457 541.931C424.408 541.874 424.349 541.827 424.281 541.794C424.214 541.76 424.141 541.74 424.066 541.734C423.991 541.729 423.916 541.738 423.845 541.762L419.728 543.13C419.585 543.179 419.466 543.282 419.398 543.418C419.33 543.554 419.319 543.711 419.367 543.855L422.668 553.76C422.691 553.832 422.729 553.898 422.778 553.955C422.827 554.012 422.887 554.059 422.955 554.092C423.022 554.126 423.095 554.146 423.171 554.152C423.246 554.157 423.321 554.147 423.393 554.124L427.507 552.755C427.651 552.707 427.77 552.603 427.838 552.468C427.907 552.332 427.918 552.175 427.87 552.03V552.03Z" fill="#1C468A"/>
<path d="M420.103 547.959C420.103 547.959 421.036 546.034 422.743 546.812C424.45 547.589 423.707 550.504 422.712 551.53C422.24 551.984 421.814 552.483 421.44 553.02L420.103 547.959Z" fill="#D9935C"/>
<path d="M473.509 596.195C472.401 584.677 470.362 567.646 468.604 553.576C467.713 552.884 466.709 552.351 465.636 551.999C465.636 551.999 455.942 580.059 473.509 596.195Z" fill="#A53D38"/>
<path d="M465.418 528.766C465.418 528.766 469.344 529.619 471.29 532.448C473.849 536.171 478.007 564.071 480.204 568.847C482.4 573.622 483.431 575.687 483.431 575.687C483.431 575.687 484.595 583.098 477.224 587.459C477.224 587.459 468.313 571.29 467.15 568.975C465.986 566.66 462.26 533.732 465.418 528.766Z" fill="#BC3F3F"/>
<path d="M485.914 591.344C485.914 591.344 489.239 593.668 489.512 594.474C489.784 595.28 488.545 597.447 487.501 597.407C486.457 597.367 486.73 595.699 486.136 595.161C485.541 594.623 482.824 594.053 483.192 592.574C483.56 591.094 485.914 591.344 485.914 591.344Z" fill="#D9935C"/>
<path d="M517.481 518.715C517.481 518.715 505.137 518.61 502.166 522.772C499.196 526.934 492.681 549.333 496.082 556.784C499.482 564.235 505.835 553.701 509.371 549.138C512.906 544.575 517.481 518.715 517.481 518.715Z" fill="#D86713"/>
<path d="M517.355 516.832V518.108C517.355 518.108 517.007 522.095 521.921 522.677C526.836 523.26 530.566 521.127 530.424 518.046C529.981 515.662 529.496 514.025 529.462 512.065C529.453 511.266 529.512 510.467 529.637 509.677L520.117 509.487L517.311 509.945L517.355 516.832Z" fill="#FFB27D"/>
<path d="M517.317 509.934L517.355 516.832C518.429 517.334 519.601 517.592 520.786 517.589C525.162 517.589 527.993 514.382 529.469 512.052C529.46 511.252 529.518 510.454 529.644 509.664L520.124 509.474L517.317 509.934Z" fill="#E2915A"/>
<path d="M530.373 508.136C529.265 514.076 521.597 513.881 518.281 513.509C517.348 513.405 516.761 513.288 516.761 513.288C515.71 513.006 515.123 511.352 514.85 509.183C514.309 504.891 514.992 498.589 515.719 496.977C516.809 494.553 518.867 491.931 526.594 493.822C534.321 495.714 531.792 500.523 530.373 508.136Z" fill="#FFB27D"/>
<path d="M525.754 683.254C525.754 683.254 526.197 679.71 527.263 677.597C528.33 675.483 535.035 676.83 535.035 676.83C535.035 676.83 536.378 677.982 536.667 683.349L525.754 683.254Z" fill="#233862"/>
<path d="M502.871 683.207C504.45 682.244 503.552 675.063 503.552 675.063C503.552 675.063 496.197 669.184 495.186 673.685C494.175 678.186 488.202 680.206 484.799 680.757C482.451 681.138 481.724 682.438 481.5 683.207H502.871Z" fill="#233862"/>
<path d="M504.857 535.405C504.857 535.405 498.633 548.347 498.773 551.505C498.773 551.505 500.974 549.421 504.857 549.694C508.741 549.966 504.857 535.405 504.857 535.405Z" fill="#BA550F"/>
<path d="M518.282 513.509C517.348 513.405 516.761 513.288 516.761 513.288C515.71 513.007 515.123 511.352 514.85 509.183C516.823 509.669 517.732 511.19 518.104 511.841C518.273 512.129 518.308 512.783 518.282 513.509Z" fill="#E2915A"/>
<path d="M513.27 516.869C513.27 516.869 508.974 509.781 512.314 509.476C515.655 509.17 516.998 511.427 517.481 512.258C517.965 513.088 517.355 516.832 517.355 516.832L513.27 516.869Z" fill="#FFB27D"/>
<path d="M518.102 630.982C517.843 632.293 517.663 633.618 517.563 634.951C516.878 648.274 506.338 678.739 504.454 679.448C501.537 680.556 496.941 678.21 494.539 677.455C493.543 677.138 492.869 676.126 493.091 675.116C498.311 651.136 500.231 616.606 500.929 596.164C501.282 585.869 503.051 578.754 503.051 578.754C503.051 578.754 528.764 571.901 528.91 580.571C529.045 588.235 520.394 618.325 518.102 630.982Z" fill="#2B478B"/>
<path d="M518.102 630.982L500.93 596.155C501.282 585.86 503.051 578.746 503.051 578.746C503.051 578.746 528.764 571.892 528.911 580.562C529.046 588.235 520.394 618.325 518.102 630.982Z" fill="#233862"/>
<path d="M512.383 580.593L525.973 679.019C525.973 679.019 531.94 680.456 536.582 679.304C536.582 679.304 540.561 626.959 540.231 614.303C539.9 601.646 543.086 580.44 539.502 578.101C535.917 575.762 512.383 580.593 512.383 580.593Z" fill="#2B478B"/>
<path d="M541.474 575.306C541.437 574.88 541.402 574.459 541.368 574.041L541.341 573.709C541.317 573.378 541.29 573.044 541.266 572.723L541.246 572.437C541.184 571.603 541.128 570.779 541.078 569.965C541.078 569.874 541.078 569.784 541.062 569.693C541.04 569.354 541.02 569.028 541.002 568.685L540.989 568.463C540.967 568.056 540.945 567.651 540.925 567.25C540.924 567.241 540.924 567.232 540.925 567.223C540.905 566.84 540.887 566.459 540.869 566.08L540.856 565.817C540.84 565.491 540.825 565.168 540.812 564.846C540.812 564.78 540.812 564.713 540.812 564.649C540.794 564.264 540.778 563.883 540.763 563.506V563.351C540.763 563.03 540.738 562.713 540.725 562.397C540.725 562.288 540.725 562.175 540.714 562.069C540.703 561.801 540.694 561.53 540.683 561.265C540.683 561.163 540.683 561.059 540.672 560.959C540.66 560.633 540.649 560.309 540.639 559.989C540.639 559.743 540.621 559.497 540.612 559.256C540.612 559.202 540.612 559.152 540.612 559.098C540.568 557.823 540.528 556.584 540.483 555.375C540.483 555.357 540.483 555.337 540.483 555.32C540.457 554.613 540.432 553.913 540.401 553.226C540.401 553.187 540.401 553.144 540.401 553.102C540.39 552.821 540.377 552.542 540.364 552.263C540.364 552.19 540.364 552.119 540.364 552.041C540.348 551.745 540.335 551.45 540.319 551.155C540.319 551.131 540.319 551.107 540.319 551.082C540.306 550.779 540.288 550.475 540.273 550.179C540.273 550.086 540.273 549.993 540.255 549.902C540.242 549.68 540.231 549.485 540.218 549.282L540.198 548.956C540.182 548.734 540.169 548.526 540.153 548.311C540.153 548.181 540.133 548.05 540.124 547.922C540.109 547.74 540.098 547.556 540.082 547.374C540.082 547.352 540.082 547.33 540.082 547.308C540.062 547.064 540.04 546.823 540.02 546.581C540.02 546.506 540.007 546.429 540 546.36C539.976 546.107 539.951 545.853 539.927 545.602C540.011 545.503 540.096 545.405 540.178 545.303C546.061 538.215 549.089 529.063 546.715 525.674C542.838 520.137 530.48 518.043 530.48 518.043C530.48 520.09 526.033 522.655 522.475 522.422C521.915 522.386 521.362 522.274 520.833 522.088C519.673 519.239 518.878 517.35 518.878 517.35C518.878 517.35 517.463 514.457 512.432 516.123C512.432 516.123 512.279 518.681 512.432 522.498C512.432 522.566 512.432 522.637 512.432 522.719C508.597 526.201 503.997 531.468 503.99 536.512C503.99 543.635 503.893 549.64 503.769 554.695C503.622 560.312 503.421 564.758 503.212 568.264C502.594 578.615 501.909 580.792 502.357 580.783C502.357 580.783 506.298 584.369 516.707 584.303C522.024 584.298 527.327 583.766 532.539 582.715C537.859 581.607 540.712 580.338 540.712 580.338C541.807 580.311 541.567 576.384 541.474 575.306Z" fill="#D86713"/>
<path d="M513.348 491.319C515.905 491.031 518.404 490.359 520.76 489.326C524.014 487.911 528.122 489.468 529.456 490.17C529.408 489.882 529.297 489.608 529.13 489.368C529.13 489.368 529.729 489.793 529.817 490.385C529.879 490.431 529.906 490.462 529.891 490.473C529.875 490.484 530.569 490.349 530.999 490.544C530.999 490.544 530.693 490.502 530.584 490.697C530.572 490.718 530.555 490.736 530.536 490.75C535.614 493.202 536.077 501.223 534.448 503.079C532.482 505.312 530.126 510.34 530.126 510.34C530.126 510.34 529.265 509.152 529.622 507.188C529.979 505.223 528.281 505.223 526.138 504.328C523.994 503.433 525.779 500.935 523.903 499.417C522.028 497.9 515.145 498.793 515.234 497.632C512.687 496.693 513.348 491.581 513.348 491.319Z" fill="#233862"/>
<path d="M531.929 555.14C529.914 563.227 508.12 567.405 503.166 568.255C503.374 564.749 503.576 560.303 503.722 554.686L531.929 555.14Z" fill="#BA550F"/>
<path d="M527.146 557.769C527.354 557.769 531.991 557.076 532.823 556.662C533.654 556.248 537.451 550.852 534.964 549.468C532.477 548.083 525.796 553.619 525.796 553.619L527.146 557.769Z" fill="#FFB27D"/>
<path d="M498.939 559.371C498.939 559.371 516.876 560.343 528.913 557.769C528.913 557.769 529.217 554.294 525.433 552.75C525.433 552.75 506.673 548.777 502.158 549.884C497.642 550.992 498.939 559.371 498.939 559.371Z" fill="#D86713"/>
<path d="M540.129 545.315C536.407 549.8 531.542 553.461 526.177 554.319C515.021 549.286 512.762 532.005 512.385 522.509C512.385 522.509 517.663 541.644 524.85 548.331C526.149 549.543 527.51 550.345 528.915 550.546C528.915 550.546 537.977 547.988 539.876 545.578C539.944 545.476 540.03 545.387 540.129 545.315V545.315Z" fill="#BA550F"/>
<path d="M536.434 534.446C536.434 534.446 530.837 541.46 527.494 535.21C527.49 535.21 530.988 538.61 536.434 534.446Z" fill="#BA550F"/>
<path d="M145.543 661.183L148.507 673.649L152.942 673.623L153.106 661.183H145.543Z" fill="#E49963"/>
<path d="M182.864 661.715L191.294 673.649L194.577 669.434L189.505 660.074L182.864 661.715Z" fill="#E49963"/>
<path d="M160.953 497.362C159.421 496.494 157.585 496.398 156.298 496.476C156.579 496.241 156.917 496.081 157.277 496.011C156.482 495.893 154.704 496.675 154.704 496.675C143.62 492.411 141.889 508.705 142.122 512.49C142.355 516.276 138.405 517.516 132.643 520.507C121.649 526.197 120.685 533.816 120.685 533.816C120.769 533.867 120.86 533.925 120.955 533.989C121.5 533.068 122.622 531.331 123.568 531.072C123.533 531.156 122.46 533.46 122.046 534.778C125.289 537.243 131.356 542.707 135.585 546.579C135.567 545.822 135.596 544.748 135.873 544.18L136.396 547.324C138.66 549.401 140.218 550.868 140.218 550.868C139.939 547.809 154.065 531.664 161.434 526.83C163.229 524.19 163.872 519.521 163.914 519.162C163.604 522.859 162.972 524.932 162.404 526.099C168.647 520.351 165.013 499.668 160.953 497.362Z" fill="#163560"/>
<path d="M160.997 527.061C161.035 527.078 157.45 528.943 154.735 528.204C152.192 527.51 150.523 524.217 150.565 524.217C151.643 523.995 151.953 522.524 151.931 516.167L152.416 516.263L160.605 517.884C160.605 517.884 160.418 520.458 160.414 522.883C160.407 524.912 160.531 526.844 160.997 527.061Z" fill="#E49963"/>
<path d="M160.604 517.875C160.604 517.875 160.418 520.449 160.414 522.874C155.832 522.746 153.409 518.568 152.416 516.254L160.604 517.875Z" fill="#D68D5D"/>
<path d="M151.572 515.363C151.572 515.363 149.182 511.573 148.595 508.324C148.183 506.009 149.362 497.431 157.989 498.667C159.727 498.907 161.388 499.534 162.85 500.503C164.723 501.768 167.428 504.49 164.402 511.981L163.62 514.526L151.572 515.363Z" fill="#163560"/>
<path d="M193.24 666.163L188.9 666.296L184.203 666.44C184.203 666.44 173.341 654.366 167.263 635.013C167.121 634.57 166.973 634.107 166.82 633.647C163.495 623.94 156.581 611.756 152.944 600.729C152.363 598.973 151.835 597.318 151.376 595.755C151.228 595.252 151.082 594.76 150.933 594.275C148.251 584.972 147.473 578.85 146.757 572.318L173.038 572.528C173.038 572.528 177.285 617.134 193.24 666.163Z" fill="#2B478B"/>
<path d="M169.354 557.437C169.289 569.934 171.189 575.295 171.189 575.295C171.189 575.295 159.937 581.007 146.564 576.803C146.407 576.754 136.243 574.435 136.243 574.435C136.465 573.93 139.916 565.54 140.133 565.077C142.957 559.016 142.891 556.157 143.226 554.294C143.846 550.817 143.86 547.219 143.549 543.826C143.022 538.251 141.939 532.743 140.315 527.384C143.959 526.556 147.373 525.1 151.177 523.678C152.048 524.764 154.724 525.893 157.029 525.849C159.689 525.789 160.556 524.651 160.418 523.413C163.258 524.99 165.516 526.483 165.516 526.483C167.93 530.669 172.831 534.736 173.177 541.159C173.259 542.734 169.365 557.087 169.354 557.437Z" fill="#E7F1FD"/>
<path d="M182.745 547.16C180.453 541.693 173.656 529.311 164.209 525.01L167.643 544.254C167.643 544.254 167.199 547.233 169.194 549.687C174.042 555.696 181.284 559.991 181.284 559.991C181.284 559.991 187.318 559.384 196.255 556.409C199.062 555.477 205.093 550.416 205.093 550.416L205.173 546.473C205.173 546.473 197.193 548.081 194.411 548.396C192.831 548.575 189.178 549.04 186.604 549.372C185.807 549.477 184.998 549.317 184.301 548.917C183.603 548.517 183.057 547.9 182.745 547.16Z" fill="#739AF0"/>
<path d="M162.136 520.172C162.136 520.172 151.294 520.349 151.288 513.602C151.281 506.855 149.876 502.332 156.796 501.934C163.716 501.535 165.064 504.107 165.616 506.364C166.168 508.621 164.955 519.951 162.136 520.172Z" fill="#E49963"/>
<path d="M161.735 501.768C161.735 501.768 158.765 509.684 154.198 510.849C149.632 512.014 147.668 510.8 147.668 510.8C147.668 510.8 148.317 503.903 149.042 499.061C149.053 499.067 159.494 498 161.735 501.768Z" fill="#163560"/>
<path d="M160.999 502.41C160.999 502.41 163.216 504.182 163.754 505.896C164.293 507.611 164.539 511.153 165.57 511.033C165.57 511.033 167.806 505.651 165.293 502.616C162.628 499.38 160.999 502.41 160.999 502.41Z" fill="#163560"/>
<path d="M205.166 546.482C205.166 546.482 208.307 541.709 213.833 544.3C214.43 544.721 216.114 546.112 214.212 547.782C212.812 549.014 212.661 548.101 210.579 549.689C208.498 551.277 206.784 551.24 205.086 550.425L205.166 546.482Z" fill="#E49963"/>
<path d="M148.355 672.952C148.539 674.676 148.347 676.42 147.792 678.064C147.792 678.064 147.065 681.369 150.323 681.431C153.582 681.493 154.382 681.185 154.012 679.158C153.642 677.131 152.941 673.621 152.941 673.621L148.355 672.952Z" fill="#E49963"/>
<path d="M154.32 682.844C154.32 682.844 154.251 682.886 154.116 682.952H147.736C147.674 682.92 147.614 682.884 147.557 682.844C147.189 681.185 147.79 678.062 147.79 678.062C151.48 681.442 153.79 677.98 153.79 677.98C154.391 679.424 154.32 682.844 154.32 682.844Z" fill="#9E322A"/>
<path d="M202.431 679.488C202.431 679.488 196.423 672.825 194.577 669.434L190.11 671.722L200.096 681.094L202.433 680.786L202.431 679.488Z" fill="#E49963"/>
<path d="M206.15 682.952H197.949C197.157 682.361 196.417 680.992 195.497 679.156C195.009 678.175 193.908 677.634 192.777 677.337V682.888H191.072L189.456 676.987C188.395 675.036 189.372 673.264 190.121 671.72C190.993 671.72 193.333 672.314 197.771 677.311C199.232 678.952 200.844 679.539 202.442 679.488C202.462 679.503 202.485 679.514 202.508 679.524C205.175 680.726 205.94 682.222 206.15 682.952Z" fill="#9E322A"/>
<path d="M160.407 523.406C160.407 523.406 166.68 538.889 166.864 542.023C167.048 545.157 167.603 593.265 167.603 593.265C167.603 593.265 167.232 595.48 171.475 594.554C175.718 593.628 176.824 592.715 176.824 592.715C176.824 592.715 172.767 563.034 173.873 552.717C174.838 543.731 167.649 529.763 165.774 526.296C165.495 525.782 165.049 525.379 164.51 525.151L160.407 523.406Z" fill="#739AF0"/>
<path d="M188.901 666.296L184.204 666.44C184.204 666.44 173.342 654.366 167.264 635.013C167.122 634.57 166.973 634.107 166.82 633.646C163.495 623.94 156.582 611.756 152.944 600.729C152.363 598.973 151.836 597.318 151.377 595.754C151.228 595.252 151.082 594.76 150.934 594.275L154.804 591.34C154.804 591.34 166.421 610.141 170.019 627.834C173.149 643.204 185.662 661.697 188.901 666.296Z" fill="#233862"/>
<path d="M155.212 629.485C155.278 638.09 154.841 657.87 153.72 666.061H149.559C147.258 666.061 146.112 666.028 146.112 666.028C143.299 651.787 141.298 640.006 139.839 629.854C138.644 621.511 137.582 614.378 136.769 608.221C135.947 602.032 135.375 596.851 135.171 592.474C135.14 591.783 135.115 591.112 135.102 590.463C135.089 589.814 135.084 589.171 135.091 588.554L157.798 586.339C157.508 601.427 155.167 624.483 155.212 629.485Z" fill="#2B478B"/>
<path d="M149.559 666.059C147.258 666.059 146.112 666.025 146.112 666.025C143.299 651.785 141.298 640.004 139.839 629.852C138.644 621.511 137.583 614.378 136.769 608.221C135.947 602.032 135.375 596.851 135.171 592.474L143.503 597.371C143.503 597.371 138.183 599.245 140.214 613.437C142.244 627.628 146.744 664.039 149.559 666.059Z" fill="#233862"/>
<path d="M150.632 592.343C150.632 592.343 149.032 598.118 143.499 597.38C137.966 596.643 130.095 593.325 130.095 593.325C130.095 593.325 132.46 585.858 135.401 576.048C138.961 564.173 143.368 548.863 145.445 539.206C145.943 537.034 146.32 534.836 146.573 532.623L151.164 523.72C151.164 523.72 158.009 539.073 158.379 542.944C158.75 546.816 150.632 592.343 150.632 592.343Z" fill="#739AF0"/>
<path d="M145.106 542.366L151.177 523.72C151.159 523.72 143.523 525.991 139.681 527.929C139.681 527.929 137.281 531.03 135.796 538.158C135.796 538.158 134.226 555.291 137.731 561.559C137.731 561.559 148.799 563.774 166.505 557.687V553.632C166.505 553.632 147.138 554.646 143.173 555.107L145.106 542.366Z" fill="#E49963"/>
<path d="M150.386 551.054C150.14 557.322 148.664 569.487 135.506 575.999C135.47 576.014 135.435 576.034 135.401 576.048C138.961 564.173 143.368 548.863 145.445 539.206C147.852 542.816 150.512 547.603 150.386 551.054Z" fill="#4A82D3"/>
<path d="M151.178 523.72C151.178 523.72 139.944 524.511 137.239 530.534C134.535 536.556 133.673 556.584 137.115 562.483C137.115 562.483 141.857 563.832 150.24 562.261L150.55 562.204C150.55 562.204 153.226 555.661 150.827 554.369C150.827 554.369 143.756 554.739 144.494 552.405C145.233 550.07 151.178 523.72 151.178 523.72Z" fill="#739AF0"/>
<path d="M164.51 554.713C164.51 554.713 166.062 552.845 166.381 550.947C166.7 549.049 167.731 547.625 170.396 547.275C173.06 546.925 174.204 546.887 174.197 547.638C174.191 548.389 172.02 553.618 168.199 556.753C164.377 559.887 164.51 554.713 164.51 554.713Z" fill="#E49963"/>
<path d="M208.471 548.493C208.562 548.519 208.658 548.519 208.748 548.493L256.302 537.128C256.368 537.113 256.43 537.085 256.485 537.046C256.539 537.006 256.586 536.957 256.621 536.899C256.656 536.842 256.68 536.778 256.69 536.712C256.701 536.645 256.698 536.577 256.681 536.512C256.649 536.381 256.567 536.267 256.451 536.196C256.336 536.125 256.197 536.103 256.065 536.133L208.509 547.507C208.401 547.535 208.305 547.596 208.235 547.682C208.165 547.768 208.125 547.875 208.12 547.986C208.116 548.097 208.148 548.207 208.211 548.298C208.275 548.389 208.366 548.458 208.471 548.493V548.493Z" fill="#233862"/>
<path d="M350.298 407.945C348.634 407.947 347.039 408.609 345.864 409.786C344.688 410.962 344.027 412.557 344.027 414.22H356.587C356.587 413.395 356.424 412.578 356.108 411.816C355.792 411.054 355.329 410.362 354.745 409.779C354.16 409.197 353.467 408.735 352.704 408.42C351.941 408.105 351.124 407.943 350.298 407.945Z" fill="#233862"/>
<path d="M395.629 412.818H304.967C303.927 412.818 303.083 413.661 303.083 414.7V415.07C303.083 416.11 303.927 416.953 304.967 416.953H395.629C396.669 416.953 397.513 416.11 397.513 415.07V414.7C397.513 413.661 396.669 412.818 395.629 412.818Z" fill="#2B478B"/>
<path d="M612.705 682.509H48.9889C48.5959 682.509 48.2773 682.828 48.2773 683.22V683.484C48.2773 683.877 48.5959 684.195 48.9889 684.195H612.705C613.098 684.195 613.417 683.877 613.417 683.484V683.22C613.417 682.828 613.098 682.509 612.705 682.509Z" fill="#0B0101"/>
</svg>
