<svg width="806" height="980" viewBox="0 0 806 980" fill="none" xmlns="http://www.w3.org/2000/svg">
<path d="M599.583 684.509C599.583 684.509 663.806 550.211 534.14 550.211C465.631 550.211 491.898 487.151 445.32 441.301C398.742 395.45 228.385 369.783 193.717 458.322C159.049 546.862 255.481 617.439 172.688 605.909C73.1977 592.051 34.1025 684.509 34.1025 684.509H599.583Z" fill="#FBECDB"/>
<path d="M320.85 501.595C321.745 500.679 328.308 498.985 328.308 498.985C328.308 498.985 338.779 477.727 345.406 466.732C347.677 462.96 349.234 448.345 350.826 440.392C350.826 440.392 351.774 433.362 355.099 429.462C357.32 426.861 369.22 425.616 369.22 425.616V425.637C369.598 425.558 369.968 425.479 370.329 425.397C371.484 425.169 372.572 424.493 372.699 423.327C372.699 423.269 372.699 423.209 372.719 423.151C372.851 421.764 372.905 420.369 372.88 418.975C372.882 418.958 372.882 418.94 372.88 418.922C372.848 416.843 372.69 415.299 372.69 415.299H372.728L385.196 413.297C385.367 417.187 385.593 420.084 385.831 422.243C385.919 423.043 386.287 423.787 386.87 424.343C387.454 424.898 388.215 425.23 389.019 425.279L389.77 425.33C389.77 425.33 397.806 425.017 400.883 425.955C404.345 427.013 412.025 435.379 412.025 435.379L411.982 435.413C421.202 444.457 431.045 457.313 430.508 459.765C429.738 463.22 416.667 482.845 411.929 486.451H407.184C407.184 486.451 417.699 462.491 417.836 460.549C417.951 458.88 408.828 452.711 401.268 447.311C401.141 447.691 401.232 448.143 401.427 448.686C402.089 450.523 403.934 453.401 402.517 458.029C399.05 469.348 399.274 470.882 399.274 470.882C399.199 470.937 399.12 470.99 399.033 471.043C398.855 472.543 398.634 474.106 398.345 475.767C398.345 475.767 406.73 485.579 412.567 491.551L393.261 510.811L360.47 491.548C360.47 491.548 361.747 487.988 363.068 484.336C364.271 480.992 365.534 477.582 365.876 476.801C366.035 476.438 366.068 475.248 366.011 473.474C365.743 473.428 362.909 464.977 361.085 459.248C360.831 458.5 360.646 457.729 360.532 456.947V456.93C358.949 464.554 356.966 472.149 354.799 476C350.627 483.415 332.182 502.415 332.182 502.415C331.419 504.045 327.912 504.783 325.445 507.486C325.445 507.486 322.97 510.003 318.273 509.65C317.383 509.611 319.952 502.509 320.85 501.595Z" fill="#BDD8FF"/>
<path d="M383.611 639.892C383.611 639.892 379.884 600.208 384.749 578.234C384.749 578.234 386.493 572.625 383.089 561.693C377.435 543.537 378.998 513.811 381.135 509.647C381.934 508.079 384.263 506.233 387.335 504.343C396.5 498.689 411.354 492.962 411.354 492.962C411.354 492.962 421.7 509.592 421.64 519.959C421.592 529.9 404.437 576.298 403.78 583.429C403.123 590.56 402.779 609.58 391.247 639.885C391.247 639.885 391.681 644.859 392.32 645.895C392.96 646.931 395.65 650.374 398.725 651.526C401.8 652.677 410.594 652.081 411.277 655.274H380.281C380.281 655.274 379.855 650.487 381.051 647.34C382.247 644.193 383.611 639.892 383.611 639.892Z" fill="#BDD8FF"/>
<path d="M372.709 423.156C377.894 422.456 385.187 413.299 385.187 413.299L372.675 414.955C372.675 414.955 372.69 415.078 372.714 415.302C372.833 416.507 372.884 417.718 372.865 418.929C372.868 418.947 372.868 418.965 372.865 418.982C372.892 420.375 372.84 421.769 372.709 423.156V423.156Z" fill="#AFCDFB"/>
<path d="M368.956 415.588C368.956 415.588 383.526 420.447 386.414 411.332C389.301 402.218 393.129 396.71 383.947 393.221C374.766 389.733 371.85 392.637 370.144 395.445C368.438 398.253 365.241 414.087 368.956 415.588Z" fill="#BDD8FF"/>
<path d="M335.108 645.381C335.962 643.503 339.439 638.769 339.439 638.769C348.149 585.922 359.409 585.124 359.62 578.982C359.688 576.955 358.682 570.466 357.378 562.354C354.731 545.883 350.882 522.719 352.248 516.588C352.869 513.809 353.872 510.409 354.965 507.024C357.479 499.256 360.474 491.555 360.474 491.555L394.772 502.223C394.772 502.223 384.034 562.837 382.595 578.195C381.445 590.476 348.014 638.781 348.014 638.781C348.44 641.556 346.219 646.414 346.39 648.975C346.561 651.535 345.023 655.283 345.023 655.283C345.023 655.283 329.993 655.351 329.312 655.283C328.631 655.216 334.254 647.256 335.108 645.381Z" fill="#BDD8FF"/>
<path d="M411.912 486.451C411.912 486.451 416.657 492.44 416.657 493.527C416.657 494.614 415.921 500.069 414.768 500.134C413.616 500.199 413.007 495.513 412.122 494.808C411.236 494.104 408.031 492.782 407.574 491.556C407.117 490.329 407.18 486.451 407.18 486.451H411.912Z" fill="#BDD8FF"/>
<path d="M433.523 655.3L456.277 589.096L440.539 571.069V513.145L406.619 495.097L377.593 479.655L343.048 516.393L350.09 557.536L326.252 597.597L304.737 620.682L320.833 655.3H433.523Z" fill="#BDD8FF"/>
<path d="M304.737 620.682L326.252 597.597L380.228 617.627L433.523 655.3H320.833L304.737 620.682Z" fill="#9FC1F4"/>
<path d="M380.228 617.627L456.277 589.096L433.523 655.3L380.228 617.627Z" fill="#AFCDFB"/>
<path d="M456.277 589.096L400.417 525.577L380.228 617.627L456.277 589.096Z" fill="#77A4E5"/>
<path d="M350.09 557.536L400.417 525.577L380.228 617.627L350.09 557.536Z" fill="#AFCDFB"/>
<path d="M440.539 513.145L400.417 525.577L440.539 571.069V513.145Z" fill="#AFCDFB"/>
<path d="M400.417 525.577L343.048 516.393L350.09 557.536L400.417 525.577Z" fill="#9FC1F4"/>
<path d="M440.539 513.145L400.417 525.577L415.298 499.713L440.539 513.145Z" fill="#77A4E5"/>
<path d="M366.033 474.695L356.681 501.893L415.298 499.713L366.033 474.695Z" fill="#9FC1F4"/>
<path d="M507.729 654.911H253.285C250.72 654.911 248.641 656.988 248.641 659.551V679.21C248.641 681.772 250.72 683.85 253.285 683.85H507.729C510.294 683.85 512.373 681.772 512.373 679.21V659.551C512.373 656.988 510.294 654.911 507.729 654.911Z" fill="#77A4E5"/>
<path d="M239.869 580.008C239.869 580.008 253.064 589.815 255.636 589.219C258.208 588.622 245.992 578.64 245.992 578.64C250.59 576.433 264.879 577.815 264.879 577.815C264.879 577.815 269.638 593.154 271.987 591.945C274.335 590.736 267.078 578.58 267.078 578.58C272.198 578.27 278.478 582.068 278.478 582.068C287.075 588.853 277.913 599.532 277.913 599.532C277.913 599.532 279.676 604.822 285.107 609.63C285.107 609.63 292.859 615.359 293.398 625.599L291.99 625.724C291.99 625.724 289.736 616.093 285.641 611.611C285.487 611.455 285.282 611.243 285.037 610.996C284.378 610.387 283.921 609.933 283.608 609.592C281.592 607.654 278.796 605.18 277.453 604.942C277.502 604.721 277.521 604.495 277.511 604.269C277.492 604.483 277.472 604.704 277.453 604.942C276.994 610.339 266.513 615.054 260.065 616.023C253.617 616.992 255.612 614.34 257.832 610.416C260.053 606.493 267.083 604.733 268.688 602.925C270.293 601.117 266.975 601.112 263.092 602.886C259.208 604.661 258.674 609.378 252.443 612.368C246.211 615.359 236.835 605.016 236.835 605.016C241.801 604.764 248.894 599.376 248.636 597.727C248.379 596.078 236.606 600.571 234.583 600.787C232.56 601.004 227.988 598.499 227.278 590.392C226.569 582.285 239.869 580.008 239.869 580.008Z" fill="#77A4E5"/>
<path d="M309.932 586.098C309.932 586.098 295.358 577.943 302.16 566.864C302.16 566.864 307.6 560.068 313.43 558.32C313.43 558.32 310.321 574.825 313.43 575.214C316.539 575.604 315.567 556.575 315.567 556.575C315.567 556.575 330.919 549.196 336.941 549.778C336.941 549.778 327.421 565.886 330.529 565.506C333.638 565.126 344.325 548.807 344.325 548.807C344.325 548.807 360.066 545.895 362.592 555.214C365.118 564.532 361.038 569.194 358.706 569.778C356.375 570.363 341.412 570.165 341.799 572.108C342.187 574.051 352.292 577.157 357.919 575.409C357.919 575.409 351.702 590.748 343.541 589.971C335.38 589.195 332.854 584.146 327.801 583.756C322.748 583.367 319.058 584.718 321.584 586.088C324.11 587.459 332.652 586.533 336.742 590C340.832 593.467 344.126 595.602 336.549 597.155C328.973 598.708 315.376 597.737 312.648 591.914L312.309 591.193C312.39 591.447 312.504 591.689 312.648 591.914C311.248 592.729 309.147 596.624 307.692 599.607C307.485 600.115 307.16 600.809 306.676 601.754C306.506 602.132 306.361 602.449 306.255 602.689C303.527 609.351 304.954 621 304.954 621L303.337 621.435C299.747 609.811 306.041 600.261 306.041 600.261C310.124 592.7 309.932 586.098 309.932 586.098Z" fill="#77A4E5"/>
<path d="M217.332 534.153C220.662 521.868 241.409 525.707 241.409 525.707C241.409 525.707 255.498 547.208 259.596 547.72C263.693 548.232 251.143 526.989 251.143 526.989C259.083 526.219 279.318 535.947 279.318 535.947C279.318 535.947 278.038 561.03 282.135 560.518C286.233 560.005 282.135 538.25 282.135 538.25C289.82 540.553 296.992 549.511 296.992 549.511C305.957 564.1 286.747 574.851 286.747 574.851C286.747 574.851 286.49 583.552 291.87 593.534C291.87 593.534 300.166 606.123 295.435 621.445L293.301 620.872C293.301 620.872 295.166 605.671 291.646 596.864C291.502 596.542 291.292 596.073 291.03 595.503C290.39 594.251 289.959 593.325 289.685 592.659C287.76 588.728 285.003 583.603 283.16 582.528C283.352 582.229 283.504 581.905 283.61 581.566C283.466 581.874 283.319 582.191 283.16 582.528C279.575 590.207 261.646 591.488 251.656 589.44C241.666 587.392 246.021 584.576 251.398 580.006C256.776 575.436 268.048 576.64 271.368 574.851C274.689 573.063 269.831 571.267 263.171 571.779C256.511 572.291 253.184 578.946 242.424 579.97C231.664 580.994 223.469 560.772 223.469 560.772C230.897 563.076 244.216 558.981 244.729 556.421C245.241 553.86 225.519 554.118 222.445 553.351C219.37 552.584 214.002 546.439 217.332 534.153Z" fill="#9FC1F4"/>
<path d="M249.765 617.309C249.765 626.076 252.83 634.567 258.431 641.315C264.031 648.063 271.815 652.644 280.436 654.267C281.978 654.557 283.536 654.749 285.102 654.841C285.86 654.887 286.625 654.911 287.392 654.911C297.372 654.911 306.944 650.949 314.001 643.898C321.059 636.846 325.024 627.282 325.024 617.309H249.765Z" fill="#BDD8FF"/>
<path d="M287.929 651.603C286.614 651.848 285.285 652.009 283.949 652.083C275.788 651.586 268.124 647.996 262.521 642.045C256.919 636.095 253.799 628.232 253.8 620.062H261.778C261.777 627.54 264.389 634.784 269.164 640.543C273.938 646.301 280.575 650.213 287.929 651.603V651.603Z" fill="#AFCDFB"/>
<path d="M326.264 617.069H248.908V618.223H326.264V617.069Z" fill="#77A4E5"/>
<path d="M163.033 566.059C164.07 566.526 165.355 567.105 166.51 567.632C166.896 566.929 167.324 566.25 167.79 565.598C167.79 565.598 182.808 540.289 184.05 534.36C184.456 532.437 185.452 528.575 186.617 524.262C189.023 515.316 192.139 504.365 192.139 504.365L193.164 499.932L196.655 484.814C196.655 484.814 189.966 485.497 186.054 487.129C184.759 487.673 183.768 488.315 183.424 489.074C180.551 495.388 177.681 511.325 175.665 522.695C174.541 529.032 173.685 533.951 173.237 534.995C171.988 537.901 168.184 553.901 164.915 561.797C164.922 561.787 164.049 564.554 163.033 566.059Z" fill="#D9935C"/>
<path d="M166.527 567.749C166.527 567.749 166.703 569.307 166.173 570.247C165.644 571.187 163.618 572.553 163.274 571.867C162.812 570.951 166.527 567.749 166.527 567.749Z" fill="#D9935C"/>
<path d="M178.155 675.322C178.155 675.322 183.335 679.35 185.44 680.119C187.545 680.888 190.408 681.614 190.408 683.03H180.397C180.397 683.03 177.673 681.768 176.533 682.309C174.69 683.189 173.148 683.052 171.877 683.054C170.607 683.057 170.523 678.794 171.596 677.311C172.669 675.827 173.458 673.536 173.458 673.536L178.155 675.322Z" fill="#163560"/>
<path d="M218.987 490.649C219.444 489.24 219.791 488.216 219.964 487.709C220.043 487.468 220.087 487.351 220.087 487.351C220.218 487.483 220.341 487.623 220.455 487.771C221.874 489.548 226.749 497.193 223.087 514.883C222.548 517.487 221.824 520.31 220.878 523.361C220.878 523.361 234.374 520.98 238.185 518.444C238.343 518.047 240.328 512.176 241.835 511.383C243.341 510.59 246.122 509.719 246.757 510.037C247.392 510.354 248.583 514.794 246.757 517.095C244.931 519.396 240.249 521.615 240.249 521.615C240.249 521.615 225.166 533.672 214.688 533.355C205.944 533.09 215.58 501.141 218.987 490.649Z" fill="#D9935C"/>
<path d="M171.397 479.27C177.28 475.664 168.736 467.617 171.397 455.964C174.058 444.311 183.696 446.51 190.801 442.772C195.974 440.05 199.643 442.803 201.258 444.505C207.665 444.024 215.143 453.011 215.143 453.011L202.742 469.437L203.212 489.392C203.212 489.392 192.534 505.276 182.212 504.836C171.89 504.396 160.924 485.713 171.397 479.27Z" fill="#233862"/>
<path d="M205.16 655.726C209.941 669.189 212.96 673.798 212.96 673.798L219.37 675.335C219.37 675.335 217.445 668.122 216.218 653.793C215.356 643.765 215.472 631.809 218.359 620.134C228.284 579.996 223.397 551.932 223.397 551.932L198.084 557.351L196.905 557.592C197.913 569.35 199.123 585.329 200.033 597.826C200.865 609.065 201.455 617.487 201.455 617.487C197.55 628.551 200.757 643.33 205.16 655.726Z" fill="#163560"/>
<path d="M222.168 554.879C215.614 554.805 197.776 554.463 193.491 553.035C188.198 551.275 186.995 546.109 186.995 545.561C186.995 545.441 187.428 543.017 188.114 539.264C189.485 536.379 190.166 534.655 190.209 532.826C190.217 531.851 190.087 530.88 189.824 529.941C189.256 527.734 188.08 524.837 186.34 520.031C185.736 518.351 185.303 516.616 185.048 514.85C183.302 503.103 187.743 488.884 193.096 485.588C193.722 485.201 195.216 485.225 195.962 485.071C197.345 484.706 199.689 479.712 199.66 471.673L200.283 471.793L210.749 473.865C210.749 473.865 210.509 477.157 210.509 480.256C210.509 482.838 210.658 485.29 211.245 485.6C211.998 485.665 212.448 485.711 212.448 485.711L212.477 485.752C214.471 485.879 219.762 486.35 220.462 487.778L218.537 493.649L217.977 495.359C219.459 498.537 220.838 502.218 221.521 505.937C221.713 506.979 221.846 508.032 221.918 509.089C221.974 509.945 221.981 510.803 221.939 511.659C221.521 521.24 215.487 527.032 221.976 547.756C222.89 550.718 222.883 553.062 222.168 554.879Z" fill="#D9935C"/>
<path d="M222.168 554.88C218.903 559.301 199.645 559.301 195.358 557.873C190.065 556.111 186.997 546.109 186.997 545.561C186.997 545.441 187.43 543.017 188.116 539.264C188.597 536.677 189.177 533.461 189.827 529.934C192.68 514.443 196.664 493.012 196.664 493.012C196.664 493.012 205.326 500.509 211.1 498.948C216.875 497.388 218.456 493.45 218.456 493.45C218.456 493.45 218.475 493.517 218.516 493.642C218.898 494.868 221.001 501.706 221.427 505.216C221.446 505.38 221.47 505.618 221.499 505.937C221.598 507.053 221.74 509.063 221.918 511.659C221.499 521.24 215.465 527.032 221.954 547.756C222.89 550.718 222.883 553.062 222.168 554.88Z" fill="#EE9849"/>
<path d="M210.756 473.856C210.756 473.856 210.516 477.15 210.516 480.249C204.659 480.085 201.563 474.745 200.295 471.786L210.756 473.856Z" fill="#CB7D45"/>
<path d="M199.207 470.646C199.207 470.646 196.137 465.802 195.401 461.657C194.874 458.7 196.383 447.732 207.412 449.311C209.633 449.619 211.756 450.422 213.624 451.66C216.03 453.276 219.473 456.764 215.612 466.326L214.606 469.567L199.207 470.646Z" fill="#233862"/>
<path d="M212.707 476.794C212.707 476.794 198.851 477.034 198.842 468.396C198.832 459.758 197.037 453.99 205.884 453.49C214.731 452.99 216.454 456.269 217.159 459.147C217.864 462.025 216.312 476.512 212.707 476.794Z" fill="#D9935C"/>
<path d="M202.576 464.886C196.753 466.381 194.227 464.821 194.227 464.821C195.262 461.074 196.075 457.27 196.66 453.427C196.66 453.427 205.574 450.302 212.075 453.095C212.982 452.316 214.601 451.747 216.742 454.341C219.957 458.233 217.096 465.109 217.096 465.109C215.778 465.263 215.467 460.743 214.777 458.546C214.267 456.928 212.599 455.281 211.755 454.521C211.483 455.519 208.694 465.205 201.729 468.422C203.883 466.422 205.755 464.138 207.292 461.633C205.944 463.164 204.356 464.426 202.576 464.886Z" fill="#233862"/>
<path d="M204.84 586.125C203.673 596.292 203.084 621.346 206.373 630.792C195.914 629.717 176.99 622.976 171.396 617.216C174.38 605.947 177.351 592.551 178.088 581.662C178.261 579.063 178.535 575.875 178.882 572.257C180.284 557.551 182.902 535.781 185.149 517.807C187.36 500.124 189.22 486.11 189.22 486.11L194.299 485.194C194.299 485.194 201.582 491.142 202.761 511.369C203.94 531.595 206.577 570.985 204.84 586.125Z" fill="#D86713"/>
<path d="M212.44 485.713C212.397 485.687 218.08 485.821 220.086 487.36C222.035 488.855 227.285 498.797 226.518 513.667C227.09 516.117 227.627 518.631 228.108 521.161C229.516 521.504 231.527 520.988 231.527 520.988C231.527 520.988 232.603 531.136 230.408 538.298C230.48 539.382 230.533 540.462 230.565 541.493C231.224 563.479 223.106 594.402 223.106 594.402C223.106 594.402 220.344 569.603 219.17 542.262C218.366 523.541 221.15 511.919 217.933 502.112C216.432 497.513 212.44 485.713 212.44 485.713Z" fill="#D86713"/>
<path d="M219.011 674.183C219.011 674.183 224.754 679.35 226.862 680.119C228.969 680.888 231.83 681.614 231.83 683.03H221.824C221.824 683.03 219.102 681.768 217.96 682.309C216.119 683.189 214.577 683.052 213.304 683.054C212.031 683.057 211.952 678.794 213.023 677.311C214.093 675.827 212.967 673.793 212.967 673.793L219.011 674.183Z" fill="#163560"/>
<path d="M236.32 515.881L240.74 502.619C240.774 502.516 240.849 502.43 240.947 502.381C241.045 502.332 241.158 502.323 241.262 502.357L247.123 504.31C247.174 504.326 247.222 504.353 247.263 504.389C247.304 504.424 247.337 504.467 247.362 504.515C247.386 504.563 247.401 504.616 247.405 504.67C247.409 504.723 247.402 504.778 247.385 504.829L242.965 518.09C242.949 518.142 242.922 518.189 242.886 518.23C242.851 518.271 242.808 518.305 242.76 518.329C242.712 518.353 242.659 518.368 242.605 518.372C242.551 518.376 242.497 518.369 242.446 518.353L236.582 516.4C236.531 516.383 236.483 516.357 236.442 516.321C236.401 516.286 236.368 516.243 236.343 516.195C236.319 516.147 236.304 516.094 236.3 516.04C236.296 515.986 236.303 515.932 236.32 515.881V515.881Z" fill="#163560"/>
<path d="M237.191 515.83L241.409 503.175C241.438 503.083 241.485 502.997 241.548 502.924C241.611 502.85 241.687 502.79 241.774 502.747C241.86 502.704 241.954 502.678 242.051 502.672C242.147 502.666 242.244 502.679 242.335 502.711L247.592 504.466C247.684 504.495 247.769 504.542 247.842 504.605C247.915 504.668 247.975 504.744 248.018 504.83C248.061 504.916 248.086 505.01 248.093 505.106C248.099 505.202 248.086 505.298 248.054 505.389L243.839 518.047C243.81 518.139 243.762 518.224 243.699 518.297C243.637 518.371 243.56 518.43 243.473 518.473C243.387 518.517 243.293 518.542 243.197 518.548C243.1 518.554 243.004 518.541 242.913 518.509L237.656 516.761C237.471 516.699 237.318 516.566 237.231 516.392C237.144 516.217 237.129 516.015 237.191 515.83Z" fill="#1C468A"/>
<path d="M247.113 510.63C247.113 510.63 245.922 508.171 243.745 509.164C241.567 510.157 242.515 513.883 243.786 515.191C245.056 516.499 245.412 517.095 245.412 517.095L247.113 510.63Z" fill="#D9935C"/>
<path d="M178.882 572.265C180.285 557.558 182.902 535.788 185.149 517.814C186.288 516.93 187.571 516.248 188.941 515.8C188.941 515.8 201.325 551.641 178.882 572.265Z" fill="#BA550F"/>
<path d="M189.218 486.107C189.218 486.107 184.204 487.197 181.716 490.812C178.446 495.568 173.136 531.203 170.331 537.314C167.525 543.426 166.205 546.058 166.205 546.058C166.205 546.058 164.72 555.529 174.125 561.099C174.125 561.099 185.513 540.452 186.997 537.485C188.482 534.518 193.253 492.445 189.218 486.107Z" fill="#D86713"/>
<path d="M163.033 566.059C163.033 566.059 158.772 569.028 158.437 570.059C158.103 571.091 159.669 573.858 161.007 573.805C162.345 573.752 161.991 571.624 162.751 570.937C163.512 570.249 166.981 569.516 166.509 567.631C166.038 565.746 163.033 566.059 163.033 566.059Z" fill="#D9935C"/>
<path d="M118.171 473.267C118.171 473.267 133.942 473.132 137.737 478.45C141.531 483.768 149.856 512.383 145.513 521.906C141.17 531.429 133.042 517.965 128.534 512.135C124.025 506.305 118.171 473.267 118.171 473.267Z" fill="#A8D29F"/>
<path d="M118.332 470.86V472.49C118.332 472.49 118.777 477.585 112.497 478.328C106.218 479.071 101.464 476.342 101.634 472.408C102.2 469.365 102.82 467.276 102.861 464.756C102.876 463.734 102.802 462.714 102.64 461.705L114.805 461.465L118.387 462.051L118.332 470.86Z" fill="#FFB27D"/>
<path d="M118.378 462.049L118.332 470.86C116.959 471.5 115.461 471.828 113.946 471.822C108.357 471.822 104.743 467.734 102.852 464.751C102.867 463.729 102.792 462.709 102.631 461.7L114.796 461.459L118.378 462.049Z" fill="#E2915A"/>
<path d="M101.697 459.748C103.109 467.338 112.911 467.088 117.146 466.612C118.349 466.48 119.09 466.328 119.09 466.328C120.432 465.968 121.183 463.852 121.532 461.082C122.223 455.598 121.349 447.547 120.423 445.489C119.027 442.39 116.4 439.041 106.528 441.457C96.6563 443.873 99.8876 450.025 101.697 459.748Z" fill="#FFB27D"/>
<path d="M107.601 683.487C107.601 683.487 107.019 678.955 105.676 676.26C104.334 673.565 95.7467 675.279 95.7467 675.279C95.7467 675.279 94.0312 676.751 93.6631 683.61L107.601 683.487Z" fill="#233862"/>
<path d="M136.836 683.425C134.82 682.196 135.968 673.022 135.968 673.022C135.968 673.022 145.363 665.511 146.655 671.262C147.947 677.013 155.579 679.592 159.924 680.297C162.925 680.778 163.853 682.444 164.142 683.422L136.836 683.425Z" fill="#233862"/>
<path d="M134.298 494.589C134.298 494.589 142.252 511.125 142.074 515.16C142.074 515.16 139.261 512.496 134.298 512.844C129.334 513.193 134.298 494.589 134.298 494.589Z" fill="#82B378"/>
<path d="M117.145 466.614C118.348 466.482 119.089 466.33 119.089 466.33C120.432 465.97 121.183 463.854 121.532 461.084C119.01 461.705 117.855 463.65 117.374 464.479C117.162 464.852 117.114 465.689 117.145 466.614Z" fill="#E2915A"/>
<path d="M123.551 470.908C123.551 470.908 129.039 461.856 124.771 461.462C120.502 461.068 118.787 463.955 118.171 465.015C117.555 466.076 118.332 470.86 118.332 470.86L123.551 470.908Z" fill="#FFB27D"/>
<path d="M117.377 616.701C117.707 618.376 117.937 620.069 118.065 621.772C118.938 638.796 132.407 677.717 134.816 678.626C138.542 680.032 144.411 677.044 147.483 676.065C148.754 675.659 149.612 674.383 149.331 673.077C142.662 642.44 140.21 598.326 139.317 572.207C138.867 559.051 136.608 549.966 136.608 549.966C136.608 549.966 103.761 541.207 103.566 552.286C103.396 562.088 114.446 600.531 117.377 616.701Z" fill="#2B478B"/>
<path d="M117.377 616.701L139.317 572.207C138.867 559.051 136.608 549.966 136.608 549.966C136.608 549.966 103.761 541.207 103.566 552.286C103.396 562.088 114.446 600.531 117.377 616.701Z" fill="#233862"/>
<path d="M124.684 552.324L107.322 678.075C107.322 678.075 99.695 679.912 93.7642 678.441C93.7642 678.441 88.6827 611.561 89.1062 595.392C89.5296 579.224 85.4563 552.117 90.0349 549.141C94.6135 546.164 124.684 552.324 124.684 552.324Z" fill="#2B478B"/>
<path d="M87.5163 545.578C88.8275 530.693 88.5412 517.689 89.5566 507.632C81.8044 498.496 77.8153 486.55 80.8949 482.169C85.8465 475.099 101.635 472.418 101.635 472.418C101.635 475.034 107.315 478.313 111.863 478.015C112.578 477.969 113.284 477.825 113.961 477.587C115.431 473.933 116.441 471.529 116.441 471.529C116.441 471.529 118.251 467.831 124.679 469.959C124.679 469.959 124.874 473.228 124.679 478.104C124.679 478.193 124.679 478.284 124.679 478.373C129.573 482.828 135.449 489.56 135.449 495.994C135.449 505.094 135.571 512.768 135.74 519.225C135.927 526.402 136.185 532.081 136.462 536.56C137.251 549.783 138.127 552.567 137.552 552.557C137.552 552.557 132.518 557.125 119.218 557.053C112.425 557.046 105.649 556.366 98.9905 555.021C92.1863 553.613 88.5508 551.985 88.5508 551.985C87.088 551.963 87.396 546.948 87.5163 545.578Z" fill="#A8D29F"/>
<path d="M123.452 438.267C120.185 437.894 116.992 437.031 113.982 435.706C109.822 433.898 104.575 435.889 102.871 436.786C102.933 436.418 103.075 436.068 103.288 435.761C103.288 435.761 102.522 436.302 102.409 437.06C102.332 437.12 102.296 437.158 102.315 437.173C102.335 437.187 101.449 437.014 100.891 437.264C100.891 437.264 101.283 437.209 101.42 437.459C101.438 437.485 101.459 437.508 101.483 437.528C94.9868 440.654 94.3973 450.908 96.4833 453.278C98.9952 456.13 102.017 462.554 102.017 462.554C102.017 462.554 103.117 461.037 102.66 458.527C102.202 456.017 104.373 456.017 107.113 454.875C109.854 453.733 107.57 450.547 109.967 448.6C112.363 446.652 121.157 447.802 121.034 446.318C124.297 445.131 123.452 438.591 123.452 438.267Z" fill="#233862"/>
<path d="M99.71 519.805C102.284 530.143 130.131 535.475 136.462 536.56C136.195 532.081 135.937 526.402 135.74 519.225L99.71 519.805Z" fill="#82B378"/>
<path d="M105.823 523.161C105.556 523.161 99.6323 522.279 98.5713 521.748C97.5102 521.216 92.6549 514.326 95.8332 512.559C99.0116 510.792 107.538 517.86 107.538 517.86L105.823 523.161Z" fill="#FFB27D"/>
<path d="M141.86 525.209C141.86 525.209 118.943 526.452 103.566 523.161C103.566 523.161 103.176 518.723 108.01 516.751C108.01 516.751 131.979 511.674 137.736 513.087C143.494 514.501 141.86 525.209 141.86 525.209Z" fill="#A8D29F"/>
<path d="M89.2334 507.24C93.9901 512.97 100.207 517.648 107.059 518.744C121.315 512.316 124.2 490.235 124.681 478.114C124.681 478.114 117.944 502.562 108.756 511.106C107.096 512.652 105.356 513.679 103.564 513.946C103.564 513.946 91.9859 510.676 89.5558 507.596C89.4712 507.459 89.3619 507.338 89.2334 507.24V507.24Z" fill="#82B378"/>
<path d="M93.9619 493.364C93.9619 493.364 101.113 502.329 105.383 494.342C105.374 494.342 100.915 498.696 93.9619 493.364Z" fill="#82B378"/>
<path d="M664.002 684.846H0.998492C0.734286 684.845 0.481046 684.74 0.293999 684.554C0.106951 684.367 0.00126947 684.114 0 683.85V683.85C0.000635347 683.586 0.106037 683.332 0.293153 683.145C0.480269 682.958 0.733871 682.853 0.998492 682.853H664.002C664.266 682.853 664.52 682.958 664.707 683.145C664.894 683.332 664.999 683.586 665 683.85V683.85C664.999 684.114 664.893 684.367 664.706 684.554C664.519 684.74 664.266 684.845 664.002 684.846V684.846Z" fill="#0B0101"/>
<path d="M546.328 656.945L542.804 671.781L537.523 671.752L537.33 656.945H546.328Z" fill="#E49963"/>
<path d="M501.914 657.577L491.883 671.781L487.976 666.766L494.013 655.625L501.914 657.577Z" fill="#E49963"/>
<path d="M527.99 461.996C529.814 460.962 531.998 460.849 533.524 460.938C533.129 460.534 532.354 460.385 532.354 460.385C533.302 460.243 535.417 461.183 535.417 461.183C548.597 456.108 550.669 475.5 550.392 480.006C550.116 484.511 554.819 485.98 561.676 489.529C574.758 496.301 575.908 505.37 575.908 505.37C575.807 505.43 575.699 505.497 575.585 505.577C574.938 504.478 573.6 502.415 572.474 502.103C572.518 502.203 573.805 504.944 574.286 506.514C570.437 509.447 563.207 515.948 558.166 520.557C558.188 519.656 558.152 518.377 557.822 517.703L557.201 521.444C554.509 523.916 552.651 525.656 552.651 525.656C552.983 522.016 536.175 502.805 527.405 497.047C525.271 493.907 524.518 488.358 524.456 487.923C524.824 492.32 525.577 494.789 526.25 496.179C518.835 489.353 523.159 464.739 527.99 461.996Z" fill="#163560"/>
<path d="M527.937 497.338C527.892 497.359 532.172 499.578 535.396 498.698C538.423 497.874 540.4 493.952 540.359 493.943C539.077 493.688 538.709 491.928 538.735 484.365L538.156 484.477L528.411 486.401C528.411 486.401 528.633 489.466 528.64 492.351C528.64 494.779 528.493 497.08 527.937 497.338Z" fill="#E49963"/>
<path d="M528.404 486.406C528.404 486.406 528.626 489.471 528.633 492.356C534.085 492.202 536.967 487.233 538.149 484.478L528.404 486.406Z" fill="#D68D5D"/>
<path d="M539.154 483.417C539.154 483.417 542.012 478.907 542.698 475.048C543.179 472.296 541.784 462.085 531.517 463.556C529.453 463.844 527.48 464.591 525.743 465.742C523.512 467.244 520.296 470.492 523.893 479.402L524.826 482.412L539.154 483.417Z" fill="#163560"/>
<path d="M489.566 662.873L494.732 663.03L500.324 663.203C500.324 663.203 513.237 648.835 520.481 625.803C520.642 625.266 520.82 624.725 521.015 624.178C524.98 612.638 533.199 598.129 537.53 585.004C538.218 582.92 538.84 580.947 539.395 579.085C539.57 578.489 539.746 577.902 539.91 577.325C543.102 566.244 544.026 558.969 544.878 551.194L513.6 551.434C513.6 551.434 508.555 604.526 489.566 662.873Z" fill="#2B478B"/>
<path d="M517.981 533.487C518.06 548.359 515.799 554.738 515.799 554.738C515.799 554.738 529.188 561.537 545.102 556.531C545.289 556.473 557.387 553.716 557.387 553.716C557.12 553.112 553.015 543.137 552.755 542.577C549.387 535.365 549.473 531.963 549.076 529.746C548.338 525.608 548.321 521.331 548.689 517.287C549.317 510.654 550.606 504.1 552.539 497.722C548.208 496.736 544.142 495.005 539.628 493.313C538.591 494.604 535.417 495.957 532.65 495.895C529.482 495.825 528.454 494.469 528.618 492.988C525.25 494.866 522.543 496.64 522.543 496.64C519.672 501.624 513.85 506.464 513.429 514.109C513.345 515.989 517.979 533.076 517.981 533.487Z" fill="#E7F1FD"/>
<path d="M499.826 511.395C504.416 506.036 516.309 494.414 528.584 492.988L518.003 513.602C518.003 513.602 517.406 517.136 514.271 519.196C506.589 524.245 496.82 526.472 496.82 526.472C496.82 526.472 490.204 523.586 481.16 516.965C478.323 514.888 473.335 506.961 473.335 506.961L474.68 502.463C474.68 502.463 483.147 507.192 486.174 508.558C487.897 509.334 491.866 511.202 494.662 512.506C495.526 512.909 496.499 513.019 497.431 512.819C498.363 512.618 499.204 512.118 499.826 511.395V511.395Z" fill="#C65447"/>
<path d="M526.583 489.139C526.583 489.139 539.484 489.351 539.493 481.323C539.503 473.296 541.178 467.913 532.937 467.436C524.696 466.96 523.096 470.023 522.439 472.702C521.783 475.38 523.226 488.877 526.583 489.139Z" fill="#E49963"/>
<path d="M527.062 467.239C527.062 467.239 530.594 476.659 536.014 478.058C541.435 479.458 543.786 478.001 543.786 478.001C543.786 478.001 543.016 469.793 542.152 464.03C542.152 464.025 529.725 462.756 527.062 467.239Z" fill="#163560"/>
<path d="M527.937 468.004C527.937 468.004 525.291 470.108 524.656 472.151C524.02 474.195 523.722 478.402 522.49 478.263C522.49 478.263 519.829 471.86 522.82 468.237C525.996 464.398 527.937 468.004 527.937 468.004Z" fill="#163560"/>
<path d="M474.671 502.468C474.671 502.468 472.852 495.917 465.646 496.842C464.818 497.102 462.403 498.064 463.947 500.648C465.085 502.555 465.579 501.571 467.369 504.132C469.159 506.692 471.103 507.272 473.326 506.966L474.671 502.468Z" fill="#E49963"/>
<path d="M542.98 670.952C542.763 673.004 542.993 675.079 543.653 677.034C543.653 677.034 544.517 680.97 540.639 681.042C536.76 681.114 535.81 680.749 536.248 678.337C536.686 675.926 537.523 671.752 537.523 671.752L542.98 670.952Z" fill="#E49963"/>
<path d="M535.882 682.723C535.882 682.723 535.966 682.773 536.123 682.852H543.716C543.79 682.813 543.861 682.77 543.93 682.723C544.368 680.749 543.651 677.034 543.651 677.034C539.26 681.054 536.51 676.933 536.51 676.933C535.808 678.652 535.882 682.723 535.882 682.723Z" fill="#9E322A"/>
<path d="M478.631 678.731C478.631 678.731 485.779 670.797 487.976 666.766L493.291 669.487L481.408 680.64L478.626 680.275L478.631 678.731Z" fill="#E49963"/>
<path d="M474.194 682.857H483.977C484.92 682.153 485.801 680.525 486.893 678.337C487.476 677.171 488.787 676.529 490.132 676.173V682.778H492.16L494.085 675.757C495.35 673.433 494.186 671.324 493.293 669.49C492.259 669.49 489.47 670.197 484.189 676.142C482.452 678.094 480.534 678.787 478.633 678.731C478.609 678.749 478.582 678.764 478.554 678.775C475.366 680.212 474.454 681.982 474.194 682.857Z" fill="#9E322A"/>
<path d="M528.64 492.988C528.64 492.988 521.181 511.414 520.955 515.143C520.729 518.872 520.079 576.121 520.079 576.121C520.079 576.121 520.517 578.765 515.467 577.657C510.417 576.548 509.103 575.462 509.103 575.462C509.103 575.462 513.932 540.149 512.613 527.859C511.295 515.568 522.719 495.542 522.719 495.542L528.64 492.988Z" fill="#C65447"/>
<path d="M494.732 663.03L500.323 663.203C500.323 663.203 513.237 648.835 520.481 625.803C520.641 625.266 520.819 624.724 521.015 624.178C524.98 612.638 533.199 598.128 537.53 585.004C538.218 582.92 538.84 580.947 539.395 579.085C539.57 578.488 539.746 577.902 539.909 577.325L535.304 573.834C535.304 573.834 521.477 596.193 517.197 617.261C513.477 635.55 498.586 657.558 494.732 663.03Z" fill="#233862"/>
<path d="M534.823 619.223C534.744 629.462 535.261 653.002 536.597 662.739H541.548C544.286 662.739 545.653 662.698 545.653 662.698C549 645.753 551.382 631.732 553.111 619.663C554.533 609.748 555.797 601.249 556.771 593.938C557.748 586.574 558.429 580.407 558.672 575.197C558.71 574.377 558.739 573.579 558.754 572.793C558.768 572.007 558.773 571.257 558.768 570.524L531.746 567.879C532.09 585.836 534.867 613.272 534.823 619.223Z" fill="#2B478B"/>
<path d="M541.548 662.748C544.286 662.748 545.652 662.707 545.652 662.707C548.999 645.763 551.381 631.741 553.111 619.672C554.533 609.757 555.796 601.259 556.771 593.947C557.747 586.583 558.428 580.417 558.671 575.207L548.756 581.035C548.756 581.035 555.086 583.266 552.671 600.155C550.255 617.045 544.909 660.356 541.548 662.748Z" fill="#233862"/>
<path d="M540.273 575.024C540.273 575.024 542.176 581.898 548.761 581.02C555.347 580.143 564.711 576.193 564.711 576.193C564.711 576.193 561.898 567.297 558.397 555.634C554.163 541.503 548.918 523.284 546.447 511.792C545.751 508.57 545.277 505.882 545.102 503.956L539.638 493.364C539.638 493.364 531.493 511.635 531.053 516.239C530.613 520.843 540.273 575.024 540.273 575.024Z" fill="#C65447"/>
<path d="M546.849 515.554L539.631 493.364C539.65 493.364 548.737 496.066 553.309 498.374C553.309 498.374 556.167 502.055 557.936 510.546C557.936 510.546 559.803 530.936 555.633 538.394C555.633 538.394 542.46 541.039 521.388 533.788V528.962C521.388 528.962 544.438 530.164 549.156 530.717L546.849 515.554Z" fill="#E49963"/>
<path d="M540.564 525.89C540.86 533.343 542.617 547.826 558.272 555.575C558.316 555.594 558.357 555.618 558.398 555.635C554.163 541.503 548.918 523.284 546.447 511.792C543.569 516.086 540.406 521.776 540.564 525.89Z" fill="#9E322A"/>
<path d="M539.638 493.364C539.638 493.364 553.005 494.306 556.225 501.47C559.444 508.635 560.469 532.47 556.371 539.49C556.371 539.49 550.729 541.096 540.752 539.231L540.383 539.161C540.383 539.161 537.2 531.374 540.054 529.84C540.054 529.84 548.475 530.278 547.589 527.498C546.704 524.719 539.638 493.364 539.638 493.364Z" fill="#C65447"/>
<path d="M523.758 530.246C523.758 530.246 521.922 528.022 521.53 525.75C521.138 523.479 519.923 521.798 516.754 521.382C513.585 520.966 512.221 520.92 512.231 521.812C512.24 522.704 514.819 528.938 519.367 532.66C523.914 536.382 523.758 530.246 523.758 530.246Z" fill="#E49963"/>
<path d="M470.193 503.543C470.081 503.543 469.971 503.512 469.876 503.454L420.141 473.274C420.073 473.233 420.013 473.178 419.966 473.113C419.919 473.049 419.885 472.976 419.866 472.898C419.847 472.82 419.843 472.74 419.855 472.661C419.867 472.582 419.895 472.506 419.937 472.437C419.978 472.369 420.033 472.31 420.097 472.262C420.162 472.215 420.235 472.181 420.313 472.162C420.391 472.143 420.471 472.139 420.551 472.152C420.63 472.164 420.706 472.192 420.774 472.233L470.509 502.415C470.622 502.484 470.709 502.588 470.758 502.712C470.807 502.835 470.814 502.971 470.778 503.098C470.742 503.226 470.666 503.338 470.56 503.419C470.455 503.499 470.326 503.542 470.193 503.543V503.543Z" fill="#9E322A"/>
<path d="M464.727 500.653C464.727 500.653 463.411 498.831 465.258 498.915C467.106 498.999 471.326 500.211 471.326 500.211C471.326 500.211 472.876 505.019 468.519 504.483C468.509 504.483 467.2 501.735 464.727 500.653Z" fill="#E49963"/>
<path d="M398.34 475.772L402.183 459.082L389.587 469.911L398.34 475.772Z" fill="#AFCDFB"/>
</svg>
