<svg width="806" height="980" viewBox="0 0 806 980" fill="none" xmlns="http://www.w3.org/2000/svg">
<path d="M394.73 642.343L270.408 660.211L233.681 512.408L355.911 486.125L394.73 642.343Z" fill="#EF443C"/>
<path d="M498.105 603.628L394.73 642.343L355.911 486.125L461.378 455.827L498.105 603.628Z" fill="#DD3636"/>
<path d="M346.244 649.31L311.805 654.259L272.336 504.095L309.133 496.183L346.244 649.31Z" fill="#F7C341"/>
<path d="M465.648 615.784L432.065 628.36L392.177 475.707L428.36 465.312L465.648 615.784Z" fill="#F7C341"/>
<path d="M306.546 266.515C311.51 275.175 318.753 282.179 326.862 287.822C335.34 293.681 344.8 298.082 354.427 301.542C355.237 301.813 356.842 302.378 357.671 302.657C360.078 303.583 362.691 303.846 365.235 303.417C365.853 303.006 366.369 302.46 366.744 301.819C367.118 301.178 367.341 300.46 367.395 299.719V299.664L367.439 299.442C369.127 290.367 370.341 281.211 371.077 272.01C372.517 252.024 373.69 218.504 355.719 205.379C349.567 200.806 341.711 199.411 334.312 200.786C332.64 201.087 330.892 201.404 329.287 201.938C326.948 202.668 324.761 203.821 322.703 205.139C321.753 205.746 320.59 206.547 319.678 207.212C312.719 212.11 307.062 218.888 303.734 226.729C298.146 239.744 299.55 254.406 306.546 266.515ZM358.328 299.113C358.326 299.14 358.326 299.134 358.328 299.113V299.113ZM325.787 239.505C327.941 235.863 331.269 233.062 335.224 231.561C336.016 231.304 336.841 231.145 337.645 230.932C338.44 230.725 339.212 230.441 339.951 230.083C340.219 229.944 340.607 229.8 340.879 229.676C340.879 229.676 341.962 229.121 342.374 229.558C345.148 232.676 346.862 236.869 348.382 240.945C351.961 251.1 353.892 261.773 355.488 272.462C356.394 278.781 357.133 285.181 357.714 291.576C356.122 290.637 354.528 289.663 353.088 288.726C341.646 281.286 329.384 270.938 324.734 257.798C322.589 251.72 322.57 244.95 325.787 239.505Z" fill="#F7C341"/>
<path opacity="0.06" d="M303.743 226.735C304.716 224.447 305.883 222.247 307.229 220.157C320.921 205.337 338.285 224.54 342.569 229.798L342.362 229.558C341.95 229.121 340.867 229.676 340.867 229.676C340.595 229.8 340.208 229.944 339.94 230.083C339.201 230.441 338.428 230.725 337.633 230.932C336.829 231.145 336.005 231.312 335.213 231.561C331.257 233.062 327.929 235.863 325.775 239.505C325.074 240.694 324.514 241.961 324.107 243.28C312.405 241.089 304.883 250.988 301.987 255.776C299.314 246.282 299.722 236.083 303.743 226.735Z" fill="black"/>
<path d="M338.186 212.213L338.169 212.19L338.186 212.213Z" fill="#5747A5"/>
<path d="M466.009 284.571C468.392 276.391 468.289 267.564 466.009 259.369C465.724 258.275 465.323 256.914 464.978 255.848C464.218 253.527 463.254 251.25 461.903 249.198C460.993 247.766 459.844 246.417 458.74 245.127C453.88 239.383 446.91 235.494 439.253 235.144C417.033 233.945 396.739 260.648 385.214 277.041C379.962 284.633 375.109 292.493 370.675 300.589L370.568 300.779L370.542 300.829C370.115 301.436 369.833 302.134 369.718 302.867C369.602 303.601 369.656 304.351 369.875 305.06C371.576 307 373.767 308.447 376.219 309.25C377.036 309.557 378.638 310.137 379.438 310.437C389.076 313.857 399.198 316.422 409.458 317.245C419.307 318.005 429.347 317.159 438.67 313.593C451.755 308.657 462.116 298.188 466.009 284.571ZM377.948 306.109C377.939 306.124 377.937 306.128 377.948 306.109V306.109ZM430.099 295.361C418.186 302.598 402.145 302.856 388.575 301.382C386.865 301.192 385.022 300.937 383.194 300.658C387.689 296.071 392.314 291.582 397.007 287.261C404.998 279.986 413.25 272.944 422.446 267.339C426.202 265.143 430.181 262.979 434.302 262.32C434.897 262.242 435.385 263.357 435.385 263.357C435.518 263.623 435.727 263.982 435.845 264.258C436.193 265.002 436.611 265.711 437.095 266.374C437.583 267.047 438.123 267.691 438.573 268.394C440.686 272.059 441.49 276.332 440.853 280.514C439.907 286.771 435.609 292.003 430.099 295.361V295.361Z" fill="#F7C341"/>
<path d="M359.942 290.432C359.942 290.432 380.621 284.352 383.312 297.631C384.416 303.079 381.016 309.981 370.09 306.837C359.163 303.692 355.786 298.923 359.942 290.432Z" fill="#F7C341"/>
<path d="M377.571 307.266L255.325 263.693L243.771 296.107L364.686 343.419L377.571 307.266Z" fill="#EF443C"/>
<path d="M377.571 307.266L484.043 345.215L472.491 377.629L364.686 343.419L377.571 307.266Z" fill="#DD3636"/>
<path d="M320.155 325.938L285.113 312.184L297.108 278.531L332.551 291.162L320.155 325.938Z" fill="#EFB83C"/>
<path d="M436.559 366.162L400.67 354.783L413.111 319.876L448.554 332.51L436.559 366.162Z" fill="#EFB83C"/>
<path d="M361.759 296.575C361.759 296.575 339.372 280.189 320.556 317.143C301.74 354.096 248.795 349.526 248.795 349.526L261.994 329.386L247.676 316.755C247.676 316.755 273.537 327.621 292.312 305.566C311.088 283.511 330.438 273.241 361.759 296.575Z" fill="#F7C341"/>
<path d="M384.025 309.52C384.025 309.52 403.257 318.147 396.391 343.049C389.524 367.95 383.091 393.509 400.356 411.707L417.621 429.905L413.667 399.77L437.356 411.836C437.356 411.836 416.696 398.702 417.838 368.748C418.98 338.795 429.302 315.6 384.025 309.52Z" fill="#F7C341"/>
<path opacity="0.06" d="M466.009 284.571C466.701 282.182 467.189 279.74 467.468 277.269C466.239 257.129 440.64 261.02 433.99 262.377L434.302 262.324C434.897 262.246 435.385 263.361 435.385 263.361C435.518 263.627 435.727 263.986 435.845 264.262C436.192 265.006 436.611 265.714 437.095 266.378C437.583 267.051 438.123 267.695 438.573 268.398C440.686 272.062 441.49 276.336 440.853 280.518C440.644 281.883 440.276 283.219 439.757 284.498C450.207 290.198 449.774 302.628 448.987 308.169C457.077 302.512 463.22 294.354 466.009 284.571Z" fill="black"/>
<path d="M355.911 486.125L233.681 512.407L353.744 477.4L461.379 455.827L355.911 486.125Z" fill="#BF3636"/>
<path d="M202.24 376.4C202.304 377.747 202.369 379.094 202.451 380.443H202.641C202.72 379.094 202.787 377.747 202.851 376.4C203.182 369.771 203.421 362.83 203.592 356.184C203.782 348.356 204.174 339.711 204.197 331.927C204.197 329.231 204.168 326.536 204.1 323.84C204.045 321.1 203.735 318.313 202.641 315.754H202.451C201.906 317.048 201.528 318.407 201.326 319.797C201.113 321.135 201 322.486 200.989 323.84C200.923 326.536 200.885 329.231 200.893 331.927C200.917 339.717 201.303 348.343 201.497 356.184C201.679 362.832 201.909 369.78 202.24 376.4Z" fill="#F2BE49"/>
<path d="M192.006 324.29C192.66 326.49 193.251 328.679 194.193 330.796L194.373 330.767C194.643 328.468 194.563 326.207 194.527 323.906C194.548 322.196 194.527 320.498 194.039 318.852C193.87 318.092 193.119 317.633 192.342 317.401L192.152 317.429C191.478 317.882 190.898 318.537 190.963 319.32C190.991 321.036 191.48 322.662 192.006 324.29Z" fill="#F2BE49"/>
<path d="M189.81 357.727C187.972 350.115 186.107 341.664 184.11 334.14C183.42 331.533 182.685 328.94 181.923 326.35C181.163 323.717 180.141 321.106 178.421 318.917L178.244 318.965C178.053 320.356 178.039 321.766 178.204 323.16C178.345 324.506 178.586 325.84 178.926 327.15C179.56 329.77 180.226 332.382 180.925 334.986C182.966 342.51 185.569 350.737 187.788 358.261C189.688 364.631 191.702 371.281 193.735 377.595C194.147 378.88 194.56 380.164 194.985 381.445L195.162 381.397C194.892 380.067 194.607 378.756 194.32 377.437C192.926 370.958 191.351 364.194 189.81 357.727Z" fill="#F2BE49"/>
<path d="M170.365 329.913C171.566 331.87 172.704 333.833 174.165 335.632L174.332 335.558C174 333.266 173.329 331.1 172.706 328.891C172.282 327.232 171.826 325.598 170.925 324.141C170.564 323.447 169.723 323.191 168.911 323.179L168.744 323.251C168.208 323.863 167.819 324.648 168.085 325.385C168.543 327.032 169.436 328.476 170.365 329.913Z" fill="#F2BE49"/>
<path d="M158.475 336.066C159.765 338.434 161.084 340.784 162.435 343.117C166.354 349.859 170.998 357.13 175.087 363.827C178.566 369.491 182.238 375.393 185.837 380.963C186.567 382.103 187.298 383.232 188.041 384.359L188.199 384.268C187.594 383.06 186.981 381.857 186.359 380.658C183.333 374.752 180.061 368.627 176.896 362.78C173.151 355.902 169.161 348.223 165.29 341.47C163.949 339.131 162.573 336.813 161.162 334.516C159.744 332.17 158.084 329.912 155.855 328.246L155.697 328.337C155.872 329.731 156.225 331.097 156.746 332.401C157.23 333.665 157.808 334.89 158.475 336.066V336.066Z" fill="#F2BE49"/>
<path d="M150.919 340.946C152.585 342.525 154.191 344.125 156.064 345.487L156.208 345.373C155.293 343.245 154.084 341.326 152.912 339.352C152.072 337.86 151.202 336.399 149.961 335.221C149.431 334.651 148.553 334.623 147.765 334.813L147.622 334.927C147.265 335.655 147.09 336.513 147.537 337.157C148.413 338.636 149.648 339.798 150.919 340.946Z" fill="#F2BE49"/>
<path d="M141.025 349.967C142.884 351.92 144.767 353.85 146.674 355.755C152.205 361.249 158.572 367.073 164.255 372.475C169.081 377.046 174.156 381.796 179.075 386.246C180.073 387.151 181.076 388.055 182.083 388.955L182.212 388.826C181.315 387.813 180.412 386.81 179.502 385.818C175.049 380.897 170.303 375.826 165.731 370.998C160.333 365.325 154.493 358.939 149.011 353.418C147.111 351.509 145.183 349.626 143.226 347.769C141.248 345.869 139.059 344.121 136.475 343.083L136.346 343.213C136.604 343.878 136.917 344.522 137.282 345.135C138.328 346.893 139.585 348.516 141.025 349.967Z" fill="#F2BE49"/>
<path d="M130.743 353.851C131.971 355.052 133.466 355.857 134.99 356.636C137.007 357.729 138.98 358.859 141.136 359.689L141.244 359.543C139.808 357.725 138.146 356.184 136.494 354.58C135.297 353.357 134.085 352.169 132.575 351.35C131.914 350.929 131.055 351.136 130.348 351.523L130.24 351.67C130.091 352.471 130.15 353.345 130.743 353.851Z" fill="#F2BE49"/>
<path d="M127.769 367.909C130.069 369.315 132.387 370.691 134.723 372.037C141.487 375.915 149.144 379.89 156.033 383.643C161.878 386.808 168.003 390.082 173.91 393.108C175.109 393.726 176.31 394.343 177.52 394.946L177.612 394.788C176.485 394.045 175.351 393.314 174.216 392.584C168.642 388.974 162.746 385.315 157.08 381.834C150.398 377.751 143.104 373.094 136.37 369.182C134.041 367.828 131.691 366.508 129.319 365.222C126.918 363.892 124.351 362.777 121.586 362.444L121.495 362.602C121.917 363.179 122.386 363.719 122.897 364.217C124.363 365.643 126 366.883 127.769 367.909V367.909Z" fill="#F2BE49"/>
<path d="M118.841 374.323C120.336 375.165 121.989 375.556 123.663 375.913C125.896 376.447 128.086 377.03 130.389 377.272L130.456 377.103C128.599 375.718 126.595 374.659 124.592 373.536C123.12 372.664 121.642 371.826 119.971 371.433C119.223 371.197 118.451 371.623 117.864 372.178L117.798 372.349C117.853 373.158 118.132 373.989 118.841 374.323Z" fill="#F2BE49"/>
<path d="M119.607 388.672C122.193 389.432 124.786 390.169 127.397 390.859C134.936 392.854 143.357 394.712 150.985 396.559C157.445 398.103 164.221 399.68 170.703 401.075C172.022 401.362 173.341 401.645 174.663 401.917L174.711 401.74C173.43 401.314 172.146 400.902 170.859 400.492C164.544 398.455 157.899 396.437 151.527 394.543C144.014 392.327 135.757 389.717 128.252 387.68C125.649 386.976 123.036 386.309 120.414 385.681C117.754 385.026 114.982 384.604 112.227 384.999L112.18 385.176C113.288 386.037 114.501 386.753 115.79 387.308C117.026 387.858 118.302 388.314 119.607 388.672V388.672Z" fill="#F2BE49"/>
<path d="M112.643 397.178C114.306 397.604 116.002 397.558 117.712 397.465C120.007 397.404 122.272 397.401 124.562 397.038L124.583 396.848C122.43 395.991 120.213 395.489 117.995 394.923C116.346 394.461 114.703 394.038 112.987 394.087C112.204 394.053 111.57 394.657 111.146 395.35L111.125 395.54C111.387 396.308 111.872 397.038 112.643 397.178Z" fill="#F2BE49"/>
<path d="M117.097 410.839C119.791 410.908 122.487 410.946 125.184 410.938C132.974 410.914 141.6 410.528 149.441 410.332C156.091 410.152 163.033 409.922 169.657 409.591C171.004 409.527 172.351 409.462 173.698 409.38V409.19C172.351 409.109 171.004 409.044 169.657 408.979C163.028 408.649 156.087 408.409 149.441 408.238C141.613 408.048 132.968 407.657 125.184 407.632C122.487 407.632 119.791 407.663 117.097 407.731C114.357 407.786 111.57 408.096 109.011 409.19V409.38C110.304 409.925 111.661 410.303 113.05 410.505C114.389 410.718 115.742 410.829 117.097 410.839V410.839Z" fill="#F2BE49"/>
<path d="M112.571 420.86C114.281 420.841 115.915 420.352 117.544 419.826C119.744 419.173 121.933 418.582 124.049 417.639L124.021 417.449C121.722 417.178 119.461 417.259 117.16 417.293C115.45 417.274 113.751 417.293 112.106 417.784C111.346 417.953 110.884 418.703 110.654 419.48L110.683 419.67C111.135 420.343 111.79 420.922 112.571 420.86Z" fill="#F2BE49"/>
<path d="M128.25 430.903C135.774 428.861 144.001 426.258 151.525 424.04C157.895 422.14 164.545 420.126 170.859 418.091C172.143 417.681 173.428 417.269 174.708 416.841L174.661 416.665C173.331 416.936 172.02 417.221 170.701 417.508C164.215 418.903 157.451 420.478 150.983 422.024C143.372 423.862 134.921 425.726 127.395 427.724C124.789 428.415 122.192 429.144 119.605 429.911C116.971 430.671 114.361 431.693 112.172 433.413L112.219 433.59C113.61 433.78 115.02 433.794 116.415 433.63C117.761 433.489 119.094 433.247 120.405 432.908C123.029 432.27 125.644 431.602 128.25 430.903Z" fill="#F2BE49"/>
<path d="M128.884 437.669L128.81 437.502C126.519 437.834 124.353 438.505 122.143 439.126C120.484 439.552 118.848 440.008 117.393 440.907C116.698 441.27 116.443 442.111 116.43 442.923L116.504 443.09C117.116 443.624 117.9 444.015 118.637 443.749C120.29 443.287 121.734 442.394 123.171 441.469C125.122 440.263 127.083 439.126 128.884 437.669Z" fill="#F2BE49"/>
<path d="M136.37 449.396C143.112 445.476 150.383 440.832 157.08 436.744C162.744 433.265 168.646 429.592 174.216 425.993C175.356 425.264 176.485 424.532 177.612 423.789L177.521 423.63C176.314 424.234 175.113 424.852 173.911 425.469C168.005 428.498 161.88 431.768 156.033 434.935C149.155 438.68 141.476 442.67 134.723 446.54C132.384 447.882 130.065 449.257 127.769 450.667C125.423 452.086 123.165 453.747 121.499 455.975L121.59 456.133C122.984 455.958 124.35 455.606 125.654 455.084C126.919 454.601 128.146 454.022 129.323 453.354C131.688 452.065 134.037 450.746 136.37 449.396Z" fill="#F2BE49"/>
<path d="M138.626 455.63C136.498 456.546 134.579 457.754 132.605 458.926C131.113 459.766 129.652 460.636 128.474 461.877C127.904 462.407 127.876 463.283 128.064 464.073L128.18 464.216C128.908 464.573 129.766 464.748 130.41 464.3C131.887 463.426 133.051 462.191 134.199 460.919C135.778 459.253 137.378 457.648 138.74 455.772L138.626 455.63Z" fill="#F2BE49"/>
<path d="M165.731 447.574C170.302 442.748 175.052 437.673 179.502 432.754C180.408 431.757 181.311 430.755 182.212 429.746L182.082 429.617C181.069 430.514 180.066 431.417 179.075 432.327C174.154 436.78 169.083 441.524 164.255 446.098C158.581 451.494 152.195 457.334 146.674 462.818C144.763 464.718 142.88 466.647 141.025 468.605C139.125 470.583 137.375 472.772 136.34 475.354L136.469 475.485C137.135 475.227 137.778 474.913 138.392 474.548C140.149 473.501 141.77 472.241 143.22 470.798C145.173 468.94 147.101 467.057 149.005 465.149C154.502 459.62 160.325 453.257 165.731 447.574Z" fill="#F2BE49"/>
<path d="M147.833 475.329C146.609 476.524 145.422 477.738 144.603 479.249C144.183 479.91 144.39 480.769 144.778 481.473L144.924 481.584C145.722 481.739 146.596 481.686 147.101 481.088C148.302 479.86 149.108 478.365 149.887 476.841C150.979 474.823 152.11 472.851 152.94 470.695L152.792 470.586C150.977 472.021 149.436 473.68 147.833 475.329Z" fill="#F2BE49"/>
<path d="M188.199 434.314L188.041 434.221C187.298 435.349 186.567 436.482 185.837 437.618C182.227 443.193 178.568 449.088 175.087 454.754C171.004 461.436 166.347 468.73 162.435 475.464C161.079 477.796 159.759 480.147 158.475 482.517C157.145 484.918 156.028 487.485 155.697 490.248L155.855 490.341C156.431 489.919 156.971 489.45 157.47 488.939C158.896 487.473 160.135 485.836 161.162 484.067C162.568 481.766 163.944 479.448 165.29 477.113C169.168 470.349 173.143 462.692 176.896 455.803C180.061 449.958 183.335 443.833 186.359 437.926C186.979 436.724 187.592 435.52 188.199 434.314Z" fill="#F2BE49"/>
<path d="M166.79 487.238C165.918 488.711 165.08 490.189 164.686 491.859C164.451 492.606 164.876 493.379 165.431 493.964L165.602 494.031C166.412 493.978 167.242 493.698 167.576 492.99C168.418 491.492 168.809 489.841 169.167 488.167C169.701 485.935 170.284 483.744 170.525 481.44L170.356 481.373C168.971 483.229 167.913 485.236 166.79 487.238Z" fill="#F2BE49"/>
<path d="M193.737 440.975C191.702 447.293 189.685 453.937 187.79 460.31C185.575 467.822 182.964 476.08 180.928 483.585C180.222 486.185 179.556 488.797 178.929 491.42C178.273 494.08 177.851 496.854 178.247 499.609L178.423 499.657C179.283 498.548 180 497.335 180.555 496.047C181.107 494.811 181.565 493.535 181.925 492.23C182.685 489.644 183.422 487.05 184.112 484.44C186.107 476.903 187.965 468.48 189.812 460.853C191.357 454.393 192.934 447.618 194.328 441.135C194.615 439.816 194.898 438.498 195.17 437.175L194.993 437.128C194.56 438.407 194.15 439.691 193.737 440.975Z" fill="#F2BE49"/>
<path d="M190.291 487.269L190.101 487.248C189.244 489.399 188.74 491.618 188.176 493.835C187.714 495.483 187.29 497.128 187.34 498.844C187.306 499.627 187.91 500.261 188.603 500.685L188.793 500.706C189.553 500.442 190.291 499.959 190.431 499.186C190.857 497.521 190.811 495.825 190.718 494.117C190.657 491.823 190.654 489.557 190.291 487.269Z" fill="#F2BE49"/>
<path d="M202.844 442.174C202.779 440.827 202.713 439.48 202.633 438.131H202.443C202.361 439.48 202.296 440.827 202.232 442.174C201.901 448.801 201.662 455.744 201.489 462.39C201.299 470.218 200.919 478.863 200.885 486.647C200.885 489.343 200.915 492.038 200.982 494.734C201.039 497.474 201.348 500.261 202.443 502.82H202.633C203.177 501.526 203.554 500.167 203.756 498.777C203.97 497.44 204.082 496.088 204.092 494.734C204.16 492.038 204.198 489.343 204.191 486.647C204.166 478.857 203.78 470.231 203.585 462.39C203.404 455.744 203.174 448.79 202.844 442.174Z" fill="#F2BE49"/>
<path d="M213.077 494.287C212.424 492.087 211.833 489.898 210.89 487.782L210.7 487.808C210.429 490.109 210.51 492.368 210.544 494.671C210.525 496.381 210.544 498.08 211.035 499.725C211.204 500.485 211.952 500.945 212.731 501.177L212.921 501.148C213.596 500.696 214.175 500.041 214.111 499.248C214.092 497.542 213.603 495.91 213.077 494.287Z" fill="#F2BE49"/>
<path d="M226.155 491.42C225.522 488.801 224.856 486.189 224.157 483.585C222.114 476.059 219.511 467.834 217.294 460.31C215.394 453.939 213.38 447.287 211.345 440.975C210.934 439.691 210.522 438.407 210.095 437.126L209.918 437.173C210.19 438.503 210.475 439.814 210.762 441.133C212.156 447.62 213.731 454.384 215.278 460.851C217.115 468.463 218.979 476.914 220.978 484.438C221.668 487.045 222.397 489.641 223.165 492.228C223.925 494.861 224.947 497.472 226.667 499.661L226.843 499.613C227.034 498.221 227.047 496.811 226.883 495.416C226.74 494.068 226.497 492.732 226.155 491.42V491.42Z" fill="#F2BE49"/>
<path d="M234.716 488.663C233.515 486.708 232.379 484.746 230.916 482.946L230.747 483.02C231.081 485.312 231.75 487.478 232.373 489.687C232.797 491.346 233.253 492.98 234.154 494.437C234.517 495.131 235.358 495.378 236.17 495.399L236.337 495.327C236.871 494.715 237.262 493.93 236.996 493.193C236.55 491.54 235.647 490.102 234.716 488.663Z" fill="#F2BE49"/>
<path d="M246.607 482.511C245.318 480.144 243.999 477.793 242.649 475.458C238.729 468.719 234.085 461.448 229.995 454.748C226.518 449.084 222.845 443.183 219.246 437.612C218.517 436.472 217.785 435.343 217.042 434.215L216.883 434.308C217.487 435.514 218.105 436.715 218.722 437.918C221.749 443.823 225.021 449.949 228.188 455.795C231.933 462.673 235.921 470.353 239.793 477.105C241.134 479.444 242.51 481.762 243.92 484.059C245.339 486.406 247 488.663 249.228 490.329L249.386 490.236C249.21 488.843 248.858 487.478 248.337 486.174C247.854 484.911 247.275 483.687 246.607 482.511V482.511Z" fill="#F2BE49"/>
<path d="M254.165 477.632C252.498 476.053 250.893 474.453 249.018 473.091L248.875 473.205C249.791 475.333 250.997 477.252 252.172 479.224C253.011 480.717 253.882 482.178 255.122 483.356C255.652 483.926 256.528 483.955 257.317 483.765L257.461 483.651C257.818 482.921 257.993 482.064 257.545 481.42C256.671 479.95 255.436 478.779 254.165 477.632Z" fill="#F2BE49"/>
<path d="M264.056 468.611C262.198 466.657 260.315 464.728 258.408 462.823C252.877 457.326 246.51 451.505 240.827 446.103C236.001 441.532 230.926 436.782 226.007 432.332C225.01 431.426 224.008 430.523 222.999 429.623L222.87 429.752C223.765 430.763 224.673 431.762 225.58 432.759C230.031 437.68 234.777 442.752 239.349 447.579C244.747 453.255 250.587 459.641 256.069 465.16C257.969 467.072 259.898 468.954 261.856 470.809C263.832 472.709 266.023 474.459 268.605 475.496L268.734 475.365C268.477 474.7 268.164 474.057 267.799 473.444C266.755 471.685 265.498 470.062 264.056 468.611Z" fill="#F2BE49"/>
<path d="M274.341 464.727C273.114 463.527 271.618 462.721 270.095 461.942C268.075 460.848 266.105 459.719 263.948 458.889L263.84 459.035C265.274 460.853 266.937 462.394 268.59 463.998C269.785 465.221 270.999 466.409 272.51 467.228C273.169 467.65 274.03 467.442 274.734 467.055L274.843 466.907C274.993 466.107 274.94 465.233 274.341 464.727Z" fill="#F2BE49"/>
<path d="M277.314 450.667C275.014 449.261 272.696 447.885 270.36 446.54C263.596 442.662 255.939 438.687 249.05 434.935C243.206 431.769 237.08 428.494 231.173 425.469C229.974 424.852 228.773 424.234 227.563 423.63L227.47 423.789C228.596 424.532 229.731 425.264 230.867 425.993C236.44 429.603 242.337 433.263 248.003 436.744C254.685 440.827 261.979 445.484 268.713 449.396C271.044 450.75 273.395 452.069 275.766 453.354C278.165 454.684 280.734 455.801 283.497 456.133L283.59 455.975C283.168 455.399 282.699 454.859 282.188 454.36C280.72 452.935 279.084 451.694 277.314 450.667Z" fill="#F2BE49"/>
<path d="M286.243 444.254C284.745 443.413 283.094 443.021 281.42 442.664C279.188 442.13 276.997 441.547 274.692 441.304L274.626 441.475C276.482 442.86 278.489 443.918 280.491 445.039C281.964 445.913 283.442 446.749 285.112 447.142C285.859 447.378 286.632 446.953 287.217 446.4L287.284 446.229C287.229 445.419 286.951 444.589 286.243 444.254Z" fill="#F2BE49"/>
<path d="M285.477 429.906C282.892 429.146 280.295 428.417 277.687 427.719C270.15 425.724 261.727 423.866 254.1 422.019C247.64 420.472 240.865 418.897 234.382 417.503C233.063 417.216 231.745 416.933 230.421 416.659L230.375 416.836C231.656 417.263 232.94 417.676 234.224 418.086C240.54 420.121 247.186 422.141 253.559 424.035C261.069 426.25 269.329 428.859 276.834 430.898C279.436 431.603 282.047 432.27 284.669 432.897C287.329 433.552 290.103 433.974 292.858 433.579L292.906 433.402C291.798 432.541 290.585 431.825 289.296 431.27C288.059 430.72 286.782 430.264 285.477 429.906V429.906Z" fill="#F2BE49"/>
<path d="M292.44 421.4C290.775 420.974 289.079 421.02 287.371 421.113C285.075 421.173 282.811 421.177 280.531 421.54L280.51 421.73C282.661 422.587 284.88 423.089 287.097 423.655C288.744 424.117 290.39 424.54 292.105 424.491C292.888 424.525 293.523 423.921 293.947 423.227L293.967 423.037C293.694 422.27 293.211 421.54 292.44 421.4Z" fill="#F2BE49"/>
<path d="M292.03 408.073C290.692 407.86 289.341 407.748 287.987 407.738C285.291 407.67 282.596 407.632 279.9 407.64C272.11 407.664 263.484 408.05 255.643 408.246C248.993 408.436 242.05 408.656 235.427 408.987C234.08 409.051 232.733 409.116 231.384 409.198V409.388C232.733 409.469 234.08 409.534 235.427 409.599C242.054 409.929 248.995 410.169 255.643 410.34C263.471 410.53 272.116 410.921 279.9 410.946C282.596 410.946 285.291 410.915 287.987 410.847C290.726 410.792 293.514 410.482 296.073 409.388V409.198C294.778 408.653 293.42 408.275 292.03 408.073V408.073Z" fill="#F2BE49"/>
<path d="M292.51 397.72C290.8 397.739 289.168 398.227 287.54 398.753C285.34 399.407 283.151 399.998 281.034 400.94L281.061 401.121C283.362 401.393 285.621 401.311 287.924 401.277C289.634 401.296 291.332 401.277 292.976 400.786C293.736 400.617 294.197 399.867 294.427 399.09L294.401 398.9C293.949 398.235 293.293 397.655 292.51 397.72Z" fill="#F2BE49"/>
<path d="M276.83 387.674C269.304 389.715 261.079 392.318 253.555 394.537C247.184 396.437 240.532 398.451 234.22 400.486C232.936 400.897 231.652 401.309 230.371 401.734L230.417 401.911C231.747 401.641 233.06 401.356 234.378 401.069C240.865 399.673 247.629 398.1 254.096 396.553C261.708 394.716 270.159 392.85 277.683 390.853C280.29 390.163 282.883 389.428 285.473 388.666C288.104 387.906 290.717 386.884 292.906 385.165L292.858 384.988C291.467 384.797 290.056 384.784 288.661 384.948C287.315 385.088 285.981 385.33 284.671 385.67C282.053 386.307 279.439 386.975 276.83 387.674Z" fill="#F2BE49"/>
<path d="M276.199 380.909L276.273 381.076C278.565 380.743 280.731 380.073 282.94 379.451C284.599 379.026 286.233 378.57 287.69 377.669C288.386 377.308 288.64 376.467 288.654 375.655L288.582 375.488C287.97 374.954 287.185 374.563 286.448 374.829C284.795 375.29 283.349 376.183 281.913 377.109C279.961 378.315 277.999 379.451 276.199 380.909Z" fill="#F2BE49"/>
<path d="M268.711 369.18C261.972 373.099 254.699 377.743 248.001 381.832C242.337 385.311 236.436 388.983 230.865 392.582C229.725 393.312 228.594 394.043 227.468 394.786L227.561 394.944C228.767 394.341 229.968 393.724 231.171 393.106C237.076 390.078 243.202 386.806 249.048 383.641C255.926 379.896 263.606 375.906 270.358 372.035C272.697 370.694 275.015 369.318 277.312 367.907C279.659 366.489 281.916 364.829 283.582 362.6L283.489 362.442C282.096 362.618 280.731 362.97 279.427 363.491C278.162 363.975 276.936 364.553 275.758 365.22C273.393 366.512 271.044 367.832 268.711 369.18Z" fill="#F2BE49"/>
<path d="M266.458 362.956C268.586 362.04 270.505 360.831 272.477 359.659C273.97 358.819 275.431 357.949 276.609 356.708C277.179 356.178 277.208 355.3 277.018 354.512L276.904 354.369C276.174 354.012 275.317 353.837 274.673 354.284C273.195 355.16 272.03 356.395 270.885 357.666C269.306 359.332 267.706 360.938 266.344 362.811L266.458 362.956Z" fill="#F2BE49"/>
<path d="M239.351 371.002C234.791 375.83 230.041 380.905 225.581 385.822C224.675 386.819 223.767 387.819 222.872 388.83L223.001 388.959C224.015 388.062 225.017 387.159 226.009 386.249C230.93 381.796 235.999 377.051 240.829 372.478C246.504 367.082 252.89 361.242 258.41 355.758C260.321 353.858 262.204 351.93 264.058 349.973C265.958 347.995 267.708 345.806 268.744 343.222L268.615 343.093C267.95 343.352 267.307 343.665 266.694 344.029C264.937 345.077 263.316 346.336 261.866 347.778C259.913 349.636 257.983 351.519 256.078 353.427C250.58 358.952 244.758 365.319 239.351 371.002Z" fill="#F2BE49"/>
<path d="M257.249 343.248C258.474 342.051 259.662 340.839 260.479 339.329C260.901 338.668 260.694 337.809 260.306 337.102L260.158 336.994C259.362 336.838 258.488 336.891 257.98 337.49C256.781 338.717 255.976 340.212 255.197 341.736C254.102 343.754 252.974 345.726 252.144 347.883L252.29 347.991C254.106 346.556 255.647 344.892 257.249 343.248Z" fill="#F2BE49"/>
<path d="M216.883 384.264L217.042 384.355C217.785 383.229 218.517 382.094 219.246 380.96C222.856 375.385 226.516 369.49 229.997 363.824C234.08 357.142 238.737 349.847 242.649 343.114C244.004 340.784 245.323 338.434 246.607 336.063C247.937 333.661 249.054 331.094 249.386 328.33L249.228 328.239C248.652 328.66 248.112 329.129 247.613 329.641C246.187 331.107 244.947 332.743 243.92 334.513C242.514 336.814 241.138 339.132 239.793 341.467C235.915 348.231 231.94 355.888 228.188 362.777C225.022 368.621 221.747 374.747 218.722 380.654C218.105 381.857 217.487 383.05 216.883 384.264Z" fill="#F2BE49"/>
<path d="M238.292 331.339C239.166 329.867 240.002 328.389 240.395 326.719C240.631 325.97 240.205 325.199 239.652 324.613L239.481 324.547C238.672 324.6 237.842 324.879 237.507 325.588C236.666 327.085 236.274 328.736 235.917 330.41C235.383 332.643 234.8 334.833 234.557 337.138L234.728 337.205C236.113 335.346 237.171 333.342 238.292 331.339Z" fill="#F2BE49"/>
<path d="M211.345 377.602C213.38 371.285 215.399 364.641 217.294 358.268C219.509 350.755 222.118 342.498 224.156 334.993C224.862 332.39 225.528 329.778 226.155 327.157C226.811 324.497 227.232 321.723 226.837 318.968L226.661 318.921C225.8 320.029 225.083 321.242 224.529 322.531C223.977 323.768 223.519 325.044 223.159 326.35C222.399 328.936 221.67 331.533 220.972 334.14C218.977 341.677 217.119 350.1 215.272 357.726C213.725 364.186 212.15 370.962 210.756 377.445C210.469 378.763 210.186 380.082 209.912 381.404L210.089 381.452C210.52 380.171 210.934 378.887 211.345 377.602Z" fill="#F2BE49"/>
<path d="M214.793 331.309L214.983 331.33C215.84 329.177 216.344 326.96 216.91 324.742C217.371 323.095 217.795 321.45 217.746 319.734C217.78 318.951 217.176 318.317 216.482 317.893L216.292 317.872C215.532 318.134 214.793 318.619 214.654 319.392C214.229 321.055 214.274 322.753 214.366 324.461C214.426 326.755 214.43 329.021 214.793 331.309Z" fill="#F2BE49"/>
<path d="M378.44 421.16L375.722 423.881L375.212 424.388L372.984 422.162L371.984 421.16C371.774 420.955 371.491 420.84 371.197 420.842C370.903 420.843 370.622 420.961 370.414 421.169C370.206 421.376 370.088 421.658 370.086 421.952C370.084 422.246 370.198 422.529 370.403 422.739L373.124 425.46L373.633 425.969L371.405 428.196L370.403 429.197C370.198 429.408 370.084 429.691 370.086 429.985C370.088 430.279 370.206 430.56 370.414 430.768C370.622 430.976 370.903 431.093 371.197 431.095C371.491 431.096 371.774 430.982 371.984 430.776L374.703 428.057L375.212 427.548L377.441 429.777L378.44 430.778C378.65 430.988 378.934 431.105 379.231 431.105C379.527 431.105 379.812 430.988 380.021 430.778C380.231 430.568 380.349 430.284 380.349 429.988C380.349 429.691 380.231 429.407 380.021 429.197L377.3 426.478C377.131 426.307 376.962 426.138 376.791 425.969L379.02 423.74L380.021 422.739C380.226 422.529 380.341 422.246 380.339 421.952C380.337 421.658 380.219 421.376 380.011 421.169C379.803 420.961 379.521 420.843 379.227 420.842C378.933 420.84 378.651 420.955 378.44 421.16V421.16Z" fill="#F43737"/>
<path d="M510.228 244.559L507.726 247.063L507.256 247.532L505.21 245.49L504.288 244.568C504.193 244.473 504.079 244.397 503.955 244.346C503.83 244.294 503.696 244.267 503.561 244.268C503.426 244.268 503.292 244.294 503.167 244.346C503.043 244.398 502.929 244.474 502.834 244.569C502.739 244.665 502.663 244.778 502.611 244.903C502.56 245.028 502.533 245.162 502.533 245.297C502.533 245.432 502.56 245.565 502.612 245.69C502.664 245.815 502.739 245.928 502.835 246.024L505.337 248.526L505.806 248.995L503.756 251.045L502.835 251.967C502.647 252.161 502.543 252.421 502.545 252.69C502.547 252.96 502.655 253.219 502.846 253.409C503.037 253.6 503.295 253.708 503.565 253.71C503.835 253.713 504.095 253.608 504.288 253.42L506.793 250.918L507.26 250.449L509.312 252.499L510.232 253.42C510.424 253.613 510.686 253.722 510.959 253.722C511.231 253.722 511.493 253.614 511.686 253.421C511.879 253.229 511.988 252.967 511.988 252.694C511.988 252.422 511.88 252.16 511.687 251.967L509.183 249.463L508.714 248.995L510.766 246.943L511.687 246.024C511.869 245.828 511.967 245.57 511.963 245.304C511.958 245.037 511.85 244.783 511.661 244.594C511.473 244.406 511.218 244.298 510.952 244.293C510.685 244.288 510.427 244.387 510.232 244.568L510.228 244.559Z" fill="#F43737"/>
<path d="M92.475 457.853L89.9708 460.355L89.5034 460.825L87.4514 458.773L86.5299 457.853C86.3362 457.665 86.0763 457.561 85.8064 457.563C85.5365 457.565 85.2783 457.673 85.0874 457.864C84.8966 458.055 84.7884 458.313 84.7864 458.583C84.7843 458.853 84.8885 459.113 85.0764 459.307L87.5901 461.811L88.0575 462.278L86.0074 464.328L85.0859 465.25C84.8929 465.442 84.7844 465.704 84.7842 465.977C84.784 466.249 84.8922 466.511 85.0849 466.704C85.2777 466.897 85.5392 467.006 85.812 467.006C86.0847 467.006 86.3464 466.898 86.5394 466.705L89.0436 464.201L89.5129 463.732L91.563 465.784L92.4845 466.705C92.6775 466.898 92.9392 467.006 93.2119 467.006C93.4847 467.006 93.7462 466.897 93.939 466.704C94.1317 466.511 94.2399 466.249 94.2397 465.977C94.2395 465.704 94.131 465.442 93.938 465.25L91.4338 462.747L90.9664 462.278L93.0165 460.228L93.938 459.307C94.1259 459.113 94.2301 458.853 94.228 458.583C94.2259 458.313 94.1178 458.055 93.927 457.864C93.7361 457.673 93.4779 457.565 93.208 457.563C92.9381 457.561 92.6783 457.665 92.4845 457.853H92.475Z" fill="#F43737"/>
<path d="M390.674 227.569L388.17 230.071L387.702 230.541L385.65 228.489L384.729 227.569C384.535 227.381 384.275 227.277 384.005 227.279C383.735 227.281 383.477 227.389 383.286 227.58C383.096 227.771 382.987 228.029 382.985 228.299C382.983 228.569 383.087 228.829 383.275 229.023L385.78 231.527L386.247 231.994L384.197 234.046L383.275 234.966C383.18 235.061 383.104 235.175 383.052 235.299C383 235.424 382.974 235.558 382.974 235.693C382.974 235.828 383 235.962 383.052 236.086C383.103 236.211 383.179 236.325 383.274 236.42C383.37 236.516 383.483 236.592 383.608 236.643C383.733 236.695 383.866 236.722 384.001 236.722C384.136 236.722 384.27 236.696 384.395 236.644C384.52 236.592 384.633 236.517 384.729 236.421L387.233 233.917C387.389 233.761 387.547 233.605 387.702 233.448L389.752 235.5L390.674 236.421C390.77 236.517 390.883 236.592 391.008 236.644C391.133 236.696 391.266 236.722 391.401 236.722C391.536 236.722 391.67 236.695 391.795 236.643C391.92 236.592 392.033 236.516 392.128 236.42C392.224 236.325 392.3 236.211 392.351 236.086C392.403 235.962 392.429 235.828 392.429 235.693C392.429 235.558 392.402 235.424 392.351 235.299C392.299 235.175 392.223 235.061 392.128 234.966L389.625 232.464L389.156 231.994L391.21 229.944L392.131 229.023C392.229 228.928 392.307 228.814 392.361 228.689C392.414 228.564 392.442 228.429 392.444 228.293C392.445 228.156 392.418 228.021 392.367 227.895C392.315 227.769 392.239 227.654 392.142 227.558C392.046 227.462 391.932 227.385 391.805 227.334C391.679 227.282 391.544 227.256 391.408 227.257C391.272 227.258 391.137 227.286 391.011 227.34C390.886 227.393 390.773 227.471 390.678 227.569H390.674Z" fill="#F43737"/>
<path d="M559.17 449.612L556.666 452.116L556.199 452.584L554.146 450.534L553.227 449.612C553.034 449.419 552.773 449.311 552.5 449.311C552.227 449.31 551.965 449.419 551.772 449.611C551.579 449.804 551.471 450.066 551.471 450.338C551.471 450.611 551.579 450.873 551.771 451.066L554.276 453.57L554.743 454.037L552.693 456.089L551.771 457.011C551.579 457.204 551.471 457.466 551.471 457.738C551.471 458.011 551.579 458.273 551.772 458.465C551.965 458.658 552.227 458.766 552.5 458.766C552.773 458.766 553.034 458.657 553.227 458.464L555.729 455.96L556.199 455.493L558.249 457.543L559.17 458.464C559.364 458.652 559.624 458.756 559.894 458.754C560.163 458.752 560.422 458.644 560.613 458.453C560.803 458.263 560.912 458.004 560.914 457.734C560.916 457.465 560.811 457.205 560.624 457.011L558.121 454.507L557.652 454.037L559.702 451.987L560.624 451.066C560.811 450.872 560.916 450.612 560.914 450.342C560.912 450.072 560.803 449.814 560.613 449.623C560.422 449.432 560.163 449.324 559.894 449.322C559.624 449.32 559.364 449.424 559.17 449.612V449.612Z" fill="#F43737"/>
<path d="M549.733 575.313L547.228 577.817L546.761 578.285L544.709 576.234C544.403 575.927 544.095 575.621 543.787 575.313C543.594 575.125 543.334 575.021 543.064 575.023C542.794 575.025 542.536 575.133 542.345 575.324C542.154 575.515 542.046 575.773 542.044 576.043C542.042 576.313 542.146 576.573 542.334 576.766L544.838 579.271L545.306 579.74L543.255 581.79L542.334 582.712C542.146 582.905 542.042 583.165 542.044 583.435C542.046 583.705 542.154 583.963 542.345 584.154C542.536 584.345 542.794 584.453 543.064 584.455C543.334 584.457 543.594 584.353 543.787 584.165C544.623 583.33 545.458 582.496 546.292 581.661L546.761 581.193L548.811 583.243L549.733 584.165C549.926 584.353 550.186 584.457 550.456 584.455C550.726 584.453 550.984 584.345 551.175 584.154C551.366 583.963 551.474 583.705 551.476 583.435C551.478 583.165 551.374 582.905 551.186 582.712L548.682 580.207L548.214 579.74L550.264 577.688C550.572 577.382 550.878 577.074 551.186 576.766C551.374 576.573 551.478 576.313 551.476 576.043C551.474 575.773 551.366 575.515 551.175 575.324C550.984 575.133 550.726 575.025 550.456 575.023C550.186 575.021 549.926 575.125 549.733 575.313V575.313Z" fill="#F43737"/>
<path d="M87.7511 359.849L85.2488 362.353L84.7795 362.823L82.7294 360.771L81.8079 359.849C81.6149 359.656 81.3533 359.548 81.0805 359.548C80.8077 359.549 80.5462 359.657 80.3535 359.85C80.1607 360.043 80.0526 360.305 80.0527 360.577C80.0529 360.85 80.1614 361.112 80.3544 361.305L82.8567 363.807L83.326 364.276L81.274 366.33L80.3544 367.252C80.1665 367.445 80.0624 367.705 80.0644 367.975C80.0665 368.245 80.1746 368.503 80.3655 368.694C80.5563 368.885 80.8146 368.993 81.0844 368.995C81.3543 368.997 81.6142 368.893 81.8079 368.705L84.3102 366.203L84.7795 365.733L86.8296 367.785L87.7511 368.705C87.846 368.803 87.9594 368.881 88.0848 368.934C88.2101 368.988 88.3448 369.016 88.4811 369.017C88.6174 369.018 88.7526 368.992 88.8787 368.941C89.0048 368.889 89.1194 368.813 89.2158 368.716C89.3122 368.62 89.3885 368.505 89.4401 368.379C89.4918 368.253 89.5179 368.118 89.5169 367.982C89.5158 367.845 89.4877 367.71 89.4341 367.585C89.3805 367.46 89.3025 367.346 89.2046 367.252L86.7023 364.747L86.233 364.28L88.285 362.228L89.2046 361.308C89.3976 361.116 89.5061 360.854 89.5063 360.581C89.5065 360.308 89.3983 360.047 89.2056 359.854C89.0128 359.661 88.7513 359.552 88.4785 359.552C88.2058 359.552 87.9441 359.66 87.7511 359.853V359.849Z" fill="#F2BE49"/>
<path d="M205.514 404.862L203.01 407.37L202.542 407.839L200.49 405.787L199.571 404.866C199.375 404.684 199.117 404.585 198.851 404.59C198.584 404.595 198.33 404.703 198.141 404.892C197.953 405.08 197.844 405.335 197.84 405.601C197.835 405.868 197.934 406.126 198.115 406.321L200.619 408.823L201.089 409.293L199.037 411.343L198.115 412.264C197.922 412.457 197.814 412.719 197.814 412.992C197.815 413.265 197.923 413.526 198.116 413.719C198.309 413.912 198.571 414.02 198.844 414.02C199.116 414.019 199.378 413.911 199.571 413.718L202.073 411.216L202.542 410.746L204.592 412.798L205.514 413.718C205.708 413.906 205.967 414.01 206.237 414.008C206.507 414.006 206.765 413.898 206.956 413.707C207.147 413.516 207.255 413.258 207.257 412.988C207.259 412.718 207.155 412.458 206.967 412.264L204.465 409.76L203.996 409.293L206.048 407.243L206.967 406.321C207.16 406.128 207.269 405.867 207.269 405.594C207.269 405.321 207.161 405.06 206.968 404.867C206.776 404.674 206.514 404.565 206.241 404.565C205.968 404.565 205.707 404.673 205.514 404.866V404.862Z" fill="#F2BE49"/>
<path d="M531.942 338.029L529.438 340.532L528.969 341.001L526.919 338.951C526.611 338.643 526.305 338.335 525.997 338.029C525.804 337.841 525.544 337.737 525.274 337.739C525.004 337.741 524.746 337.849 524.555 338.04C524.364 338.231 524.256 338.489 524.254 338.759C524.252 339.029 524.356 339.289 524.544 339.483L527.048 341.987L527.515 342.454L525.465 344.506L524.544 345.426C524.448 345.521 524.372 345.635 524.321 345.76C524.269 345.884 524.242 346.018 524.242 346.153C524.242 346.288 524.269 346.422 524.32 346.547C524.372 346.671 524.447 346.785 524.543 346.88C524.638 346.976 524.752 347.052 524.876 347.104C525.001 347.155 525.135 347.182 525.27 347.182C525.405 347.182 525.539 347.156 525.664 347.104C525.788 347.053 525.902 346.977 525.997 346.881L528.502 344.377L528.969 343.91L531.021 345.96L531.942 346.881C532.038 346.977 532.151 347.053 532.276 347.104C532.401 347.156 532.535 347.182 532.67 347.182C532.805 347.182 532.939 347.155 533.063 347.104C533.188 347.052 533.301 346.976 533.397 346.88C533.492 346.785 533.568 346.671 533.62 346.547C533.671 346.422 533.698 346.288 533.698 346.153C533.698 346.018 533.671 345.884 533.619 345.76C533.567 345.635 533.492 345.521 533.396 345.426L530.892 342.924L530.424 342.454L532.474 340.404L533.396 339.483C533.584 339.289 533.688 339.029 533.686 338.759C533.684 338.489 533.576 338.231 533.385 338.04C533.194 337.849 532.936 337.741 532.666 337.739C532.396 337.737 532.136 337.841 531.942 338.029V338.029Z" fill="#F2BE49"/>
<path d="M464.146 438.619C477.445 432.881 490.481 437.189 496.708 444.661C503.648 452.991 501.741 459.97 497.164 460.954C491.678 462.132 489.119 456.762 488.528 451.972C487.227 441.429 475.84 438.53 464.146 438.619Z" fill="#F2BE49"/>
<path d="M475.57 404.594C487.421 385.727 507.695 379.816 522.099 383.856C538.158 388.359 541.827 398.866 536.885 404.102C530.961 410.372 523.036 405.812 518.111 400.253C507.276 388.028 490.318 394.287 475.57 404.594Z" fill="#F2BE49"/>
<path d="M368.528 481.609C365.776 464.48 374.608 450.612 385.117 445.581C396.828 439.972 404.369 444.24 404.164 449.841C403.919 456.557 396.933 457.95 391.198 457.228C378.577 455.63 371.864 468.007 368.528 481.609Z" fill="#F2BE49"/>
<path d="M212.648 298.264C196.937 264.739 164.698 250.871 140.121 254.61C112.72 258.775 104.534 275.358 111.621 284.998C120.116 296.554 134.116 290.622 143.369 282.462C163.735 264.501 190.43 278.269 212.648 298.264Z" fill="#F2BE49"/>
<path d="M346.704 485.705C337.747 466.591 319.369 458.685 305.356 460.815C289.736 463.19 285.07 472.645 289.111 478.141C293.954 484.729 301.934 481.347 307.211 476.695C318.82 466.46 334.039 474.305 346.704 485.705Z" fill="#F2BE49"/>
<path d="M338.169 422.492L337.599 415.312C337.41 412.924 336.375 410.683 334.682 408.99C332.988 407.296 330.747 406.262 328.36 406.072L321.18 405.502L328.36 404.932C330.747 404.742 332.988 403.708 334.681 402.015C336.374 400.322 337.409 398.081 337.599 395.694L338.169 388.512L338.739 395.694C338.93 398.081 339.964 400.322 341.657 402.014C343.35 403.707 345.591 404.742 347.977 404.932L355.159 405.502L347.977 406.072C345.59 406.262 343.349 407.297 341.656 408.99C339.963 410.684 338.929 412.925 338.739 415.312L338.169 422.492Z" fill="#F2BE49"/>
<path d="M196.815 248.986L196.245 241.804C196.054 239.417 195.018 237.177 193.325 235.485C191.631 233.793 189.39 232.759 187.003 232.57L179.823 232L187.003 231.43C189.391 231.24 191.632 230.206 193.325 228.512C195.019 226.819 196.053 224.578 196.243 222.19L196.813 215.008L197.383 222.19C197.573 224.578 198.608 226.819 200.301 228.513C201.995 230.206 204.237 231.241 206.625 231.43L213.805 232L206.625 232.57C204.238 232.76 201.997 233.794 200.303 235.487C198.61 237.18 197.575 239.421 197.385 241.808L196.815 248.986Z" fill="#F2BE49"/>
<path d="M418.707 198.482L418.137 191.3C417.947 188.913 416.912 186.671 415.219 184.978C413.526 183.285 411.284 182.25 408.897 182.06L401.717 181.49L408.897 180.92C411.284 180.73 413.525 179.696 415.218 178.003C416.912 176.31 417.946 174.069 418.137 171.682L418.707 164.5L419.277 171.682C419.467 174.069 420.502 176.31 422.195 178.003C423.888 179.696 426.129 180.73 428.516 180.92L435.696 181.49L428.516 182.06C426.129 182.25 423.888 183.285 422.194 184.978C420.501 186.671 419.467 188.913 419.277 191.3L418.707 198.482Z" fill="#F2BE49"/>
<path d="M507.256 544.778L506.686 537.598C506.496 535.211 505.462 532.969 503.769 531.276C502.075 529.582 499.834 528.548 497.447 528.358L490.265 527.788L497.447 527.218C499.834 527.028 502.075 525.994 503.769 524.3C505.462 522.607 506.496 520.366 506.686 517.978L507.256 510.798L507.826 517.978C508.016 520.365 509.05 522.606 510.743 524.3C512.436 525.993 514.677 527.028 517.064 527.218L524.246 527.788L517.064 528.358C514.677 528.548 512.436 529.583 510.743 531.276C509.05 532.97 508.016 535.211 507.826 537.598L507.256 544.778Z" fill="#F2BE49"/>
<path d="M204.191 590.15L203.621 582.97C203.431 580.583 202.397 578.341 200.703 576.648C199.01 574.955 196.768 573.92 194.381 573.73L187.199 573.16L194.381 572.59C196.768 572.4 199.009 571.366 200.703 569.673C202.396 567.98 203.431 565.739 203.621 563.352L204.191 556.17L204.761 563.352C204.951 565.739 205.986 567.98 207.678 569.673C209.371 571.366 211.612 572.4 213.999 572.59L221.181 573.16L213.999 573.73C211.612 573.921 209.371 574.955 207.678 576.648C205.985 578.342 204.951 580.583 204.761 582.97L204.191 590.15Z" fill="#F2BE49"/>
<path d="M347.519 368.269C347.678 367.285 347.01 366.358 346.026 366.198C345.042 366.039 344.115 366.707 343.955 367.691C343.796 368.675 344.464 369.602 345.448 369.762C346.432 369.922 347.359 369.253 347.519 368.269Z" fill="#F2BE49"/>
<path d="M514.286 298.564C514.446 297.58 513.778 296.653 512.794 296.493C511.81 296.334 510.883 297.002 510.723 297.986C510.563 298.97 511.231 299.897 512.215 300.057C513.199 300.217 514.126 299.548 514.286 298.564Z" fill="#F2BE49"/>
<path d="M216.196 263.653C216.355 262.666 215.684 261.737 214.698 261.577C213.711 261.418 212.781 262.088 212.622 263.075C212.462 264.062 213.133 264.992 214.12 265.151C215.107 265.311 216.036 264.64 216.196 263.653Z" fill="#F2BE49"/>
<path d="M326.312 184.57C327.017 183.865 327.017 182.723 326.312 182.018C325.608 181.313 324.465 181.313 323.76 182.018C323.055 182.723 323.055 183.865 323.76 184.57C324.465 185.275 325.608 185.275 326.312 184.57Z" fill="#F2BE49"/>
<path d="M513.173 496.892C514.094 496.511 514.531 495.455 514.15 494.534C513.768 493.613 512.713 493.176 511.792 493.557C510.871 493.939 510.433 494.995 510.815 495.916C511.196 496.837 512.252 497.274 513.173 496.892Z" fill="#F2BE49"/>
<path d="M312.231 441.16C312.936 440.455 312.936 439.312 312.231 438.607C311.526 437.902 310.384 437.902 309.679 438.607C308.974 439.312 308.974 440.455 309.679 441.16C310.384 441.865 311.526 441.865 312.231 441.16Z" fill="#F2BE49"/>
<path d="M222.936 633.915C223.165 632.945 222.564 631.972 221.594 631.743C220.624 631.514 219.651 632.115 219.422 633.086C219.193 634.056 219.794 635.028 220.765 635.257C221.735 635.486 222.707 634.885 222.936 633.915Z" fill="#F2BE49"/>
<path d="M149.053 309.799C149.212 308.815 148.544 307.888 147.56 307.729C146.575 307.569 145.649 308.238 145.489 309.222C145.33 310.206 145.999 311.133 146.983 311.292C147.967 311.451 148.894 310.783 149.053 309.799Z" fill="#F2BE49"/>
<path d="M185.618 522.33C185.849 521.36 185.249 520.387 184.279 520.157C183.309 519.927 182.336 520.527 182.106 521.497C181.876 522.467 182.476 523.439 183.446 523.669C184.416 523.899 185.388 523.3 185.618 522.33Z" fill="#F2BE49"/>
<path d="M63.8202 406.778C64.5251 406.073 64.5251 404.931 63.8202 404.226C63.1153 403.521 61.9724 403.521 61.2675 404.226C60.5626 404.931 60.5626 406.073 61.2675 406.778C61.9724 407.483 63.1153 407.483 63.8202 406.778Z" fill="#F2BE49"/>
</svg>
