<svg width="806" height="980" viewBox="0 0 806 980" fill="none" xmlns="http://www.w3.org/2000/svg">
<path d="M396.245 651.468C396.318 651.442 396.385 651.4 396.442 651.347C396.498 651.294 396.544 651.23 396.575 651.159C404.955 630.56 427.634 620.662 437.322 616.45C438.886 615.77 440.122 615.224 440.935 614.802C444.6 612.896 446.916 609.652 447.112 606.109C447.18 604.475 446.815 602.852 446.054 601.405C445.293 599.958 444.163 598.738 442.778 597.869C435.572 592.812 419.893 598.961 407.179 611.866C389.369 629.952 389.863 647.421 389.873 647.596C389.875 647.687 389.899 647.776 389.944 647.855C389.989 647.934 390.053 648.001 390.13 648.049L395.751 651.458C395.814 651.497 395.884 651.522 395.957 651.53C396.058 651.543 396.159 651.521 396.245 651.468ZM407.992 612.598C420.346 600.063 435.355 593.966 442.181 598.724C443.413 599.493 444.421 600.575 445.1 601.859C445.78 603.143 446.108 604.585 446.052 606.037C445.865 607.709 445.249 609.305 444.264 610.669C443.28 612.034 441.959 613.12 440.431 613.823C439.648 614.235 438.372 614.76 436.879 615.44C427.161 619.673 404.533 629.52 395.803 650.15L390.995 647.225C391.016 644.907 391.788 629.056 407.992 612.598Z" fill="#BA68C8"/>
<path d="M392.797 649.573H392.725C392.585 649.535 392.467 649.443 392.396 649.317C392.325 649.192 392.306 649.043 392.344 648.904C399.426 623.958 423.763 605.285 436.786 603.874C436.857 603.865 436.93 603.871 436.998 603.891C437.067 603.911 437.131 603.944 437.187 603.989C437.243 604.034 437.289 604.09 437.323 604.154C437.356 604.217 437.377 604.286 437.383 604.358C437.392 604.43 437.386 604.502 437.366 604.572C437.347 604.641 437.313 604.706 437.268 604.763C437.223 604.819 437.168 604.866 437.104 604.901C437.041 604.936 436.971 604.958 436.899 604.965C424.031 606.366 400.096 625.565 393.404 649.161C393.372 649.293 393.292 649.408 393.18 649.485C393.068 649.561 392.931 649.592 392.797 649.573V649.573Z" fill="#BA68C8"/>
<path d="M390.367 648.08C390.29 648.068 390.216 648.04 390.151 647.997L386.393 645.494C386.318 645.444 386.257 645.377 386.214 645.298C386.171 645.219 386.148 645.131 386.146 645.041C386.146 644.784 386.033 618.911 401.053 588.661C408.702 573.212 422.96 560.286 434.954 557.824C440.719 556.64 445.691 557.773 449.727 561.213C452.012 563.149 453.145 565.333 453.103 567.701C452.98 574.252 444.003 581.328 434.49 588.826C427.84 594.079 420.963 599.496 416.938 604.904C416.896 604.962 416.843 605.012 416.782 605.049C416.72 605.087 416.652 605.111 416.581 605.122C416.51 605.133 416.437 605.129 416.368 605.111C416.298 605.093 416.233 605.061 416.176 605.017C416.117 604.974 416.067 604.92 416.03 604.858C415.992 604.796 415.967 604.726 415.957 604.655C415.946 604.583 415.95 604.509 415.968 604.439C415.987 604.368 416.019 604.302 416.063 604.244C420.181 598.724 427.109 593.255 433.811 587.961C443.076 580.638 451.889 573.706 452.002 567.681C452.002 565.621 451.065 563.788 449.016 562.047C445.248 558.844 440.595 557.783 435.18 558.895C423.485 561.295 409.556 574.025 402.041 589.156C387.979 617.449 387.278 641.838 387.248 644.773L390.758 647.111C390.878 647.193 390.962 647.319 390.991 647.461C391.019 647.603 390.991 647.752 390.913 647.874C390.848 647.953 390.764 648.015 390.668 648.051C390.572 648.087 390.468 648.097 390.367 648.08Z" fill="#BA68C8"/>
<path d="M393.918 632.702C393.775 632.67 393.651 632.583 393.572 632.46C393.493 632.336 393.466 632.186 393.496 632.043C401.99 592.791 432.617 568.587 440.564 565.24C440.632 565.212 440.704 565.198 440.777 565.198C440.85 565.199 440.923 565.213 440.99 565.241C441.057 565.27 441.119 565.311 441.17 565.363C441.221 565.415 441.262 565.476 441.29 565.544C441.318 565.611 441.332 565.684 441.332 565.757C441.331 565.83 441.317 565.902 441.288 565.97C441.26 566.037 441.219 566.098 441.167 566.15C441.115 566.201 441.054 566.242 440.986 566.27C433.183 569.576 402.968 593.471 394.567 632.301C394.531 632.438 394.443 632.556 394.322 632.63C394.202 632.705 394.057 632.731 393.918 632.702Z" fill="#BA68C8"/>
<path d="M328.114 695.056C283.095 695.056 246.6 673.973 246.6 647.966C246.6 621.959 283.095 600.876 328.114 600.876C373.133 600.876 409.628 621.959 409.628 647.966C409.628 673.973 373.133 695.056 328.114 695.056Z" fill="#E0E0E0"/>
<path d="M327.682 499.055C320.3 518.428 296.396 525.38 280.573 517.985C273.366 514.607 263.751 506.738 264.338 495.223C238.786 523.66 172.93 493.163 194.405 451.336C160.731 454.241 139.266 395.986 181.279 382.72C143.58 362.605 163.14 298.161 211.618 309.336C206.368 294.916 217.013 282.917 228.45 278.622C241.422 273.74 258.531 276.006 263.092 284.802C274.56 249.289 323.265 244.633 344.091 275.594C359.472 257.714 395.154 259.825 396.338 287.027C421.447 265.593 478.696 290.765 462.41 329.028C501.221 324.569 506.08 376.458 475.69 385.903C492.079 391.465 500.511 414.227 497.371 430.933C494.21 447.814 478.171 460.235 459.702 458.742C467.155 484.903 433.358 503.834 414.961 483.811C412.367 524.639 347.128 539.038 327.682 499.055Z" fill="#BA68C8"/>
<path opacity="0.8" d="M327.682 499.055C320.3 518.428 296.396 525.38 280.573 517.985C273.366 514.607 263.751 506.738 264.338 495.223C238.786 523.66 172.93 493.163 194.405 451.336C160.731 454.241 139.266 395.986 181.279 382.72C143.58 362.605 163.14 298.161 211.618 309.336C206.368 294.916 217.013 282.917 228.45 278.622C241.422 273.74 258.531 276.006 263.092 284.802C274.56 249.289 323.265 244.633 344.091 275.594C359.472 257.714 395.154 259.825 396.338 287.027C421.447 265.593 478.696 290.765 462.41 329.028C501.221 324.569 506.08 376.458 475.69 385.903C492.079 391.465 500.511 414.227 497.371 430.933C494.21 447.814 478.171 460.235 459.702 458.742C467.155 484.903 433.358 503.834 414.961 483.811C412.367 524.639 347.128 539.038 327.682 499.055Z" fill="white"/>
<path d="M211.381 512.259C215.88 512.825 220.904 518.243 221.007 522.558C231.24 516.131 239.62 528.223 234.967 537.812C249.174 543.992 239.61 564.035 226.051 556.67C222.366 568.35 204.772 568.711 200.613 557.185C190.37 560.059 178.366 550.563 185.541 540.459C167.865 532.054 181.424 511.97 197.895 519.468C198.957 516.887 200.883 514.755 203.344 513.44C205.805 512.124 208.646 511.707 211.381 512.259V512.259Z" fill="#BA68C8"/>
<path d="M231.621 576.611L231.765 576.971C232.631 576.448 233.63 576.189 234.641 576.223C235.651 576.258 236.63 576.586 237.458 577.167C239.177 578.444 239.692 581.287 238.086 582.749C238.878 583.085 239.565 583.626 240.079 584.315C240.593 585.005 240.914 585.819 241.01 586.673C241.135 587.493 240.968 588.331 240.539 589.04C240.11 589.75 239.446 590.286 238.663 590.556C238.046 590.82 237.379 590.95 236.708 590.936C236.037 590.921 235.377 590.764 234.771 590.474C234.158 591.324 233.353 592.019 232.422 592.5C231.49 592.982 230.459 593.238 229.411 593.247C228.362 593.256 227.326 593.018 226.387 592.552C225.448 592.087 224.631 591.406 224.003 590.567C223.471 590.863 222.877 591.033 222.269 591.063C221.66 591.094 221.053 590.984 220.494 590.742C219.934 590.5 219.438 590.132 219.043 589.668C218.649 589.204 218.366 588.655 218.217 588.064C218.058 587.434 218.049 586.776 218.192 586.142C218.335 585.508 218.626 584.917 219.041 584.418C218.33 584.122 217.752 583.577 217.415 582.884C217.077 582.192 217.004 581.401 217.208 580.658C217.512 579.606 218.189 578.702 219.113 578.114C219.981 577.525 221.042 577.289 222.078 577.455C222.15 576.307 222.65 575.227 223.479 574.43C224.308 573.633 225.406 573.176 226.556 573.15C227.643 573.18 228.698 573.523 229.596 574.136C230.494 574.75 231.197 575.609 231.621 576.611V576.611Z" fill="#BA68C8"/>
<path d="M256.627 597.591C256.732 598.3 256.602 599.023 256.256 599.651C256.764 599.647 257.257 599.826 257.644 600.155C258.031 600.484 258.288 600.941 258.367 601.443C258.363 601.742 258.288 602.036 258.146 602.3C258.004 602.564 257.801 602.789 257.553 602.957C257.054 603.287 256.474 603.476 255.875 603.503C255.747 603.499 255.62 603.528 255.505 603.585C255.386 603.697 255.3 603.84 255.258 603.997C255.07 604.481 254.738 604.896 254.307 605.185C253.876 605.475 253.366 605.624 252.847 605.614C252.328 605.604 251.825 605.435 251.405 605.129C250.986 604.823 250.67 604.396 250.501 603.905C249.834 604.193 249.099 604.286 248.381 604.172C247.874 604.105 247.403 603.873 247.04 603.512C246.677 603.151 246.443 602.681 246.373 602.174C246.325 601.905 246.338 601.628 246.412 601.364C246.485 601.1 246.616 600.856 246.796 600.65C246.975 600.443 247.199 600.28 247.45 600.171C247.701 600.062 247.973 600.011 248.247 600.022C247.937 599.768 247.707 599.429 247.586 599.047C247.465 598.664 247.459 598.255 247.567 597.869C247.692 597.487 247.913 597.143 248.209 596.871C248.504 596.599 248.865 596.407 249.256 596.314C249.647 596.229 250.051 596.229 250.442 596.314C250.833 596.4 251.201 596.568 251.521 596.808C251.791 596.229 252.254 595.762 252.831 595.488C253.408 595.214 254.062 595.149 254.681 595.304C255.202 595.437 255.67 595.728 256.018 596.138C256.367 596.547 256.579 597.055 256.627 597.591Z" fill="#BA68C8"/>
<path opacity="0.8" d="M211.381 512.259C215.88 512.825 220.904 518.243 221.007 522.558C231.24 516.131 239.62 528.223 234.967 537.812C249.174 543.992 239.61 564.035 226.051 556.67C222.366 568.35 204.772 568.711 200.613 557.185C190.37 560.059 178.366 550.563 185.541 540.459C167.865 532.054 181.424 511.97 197.895 519.468C198.957 516.887 200.883 514.755 203.344 513.44C205.805 512.124 208.646 511.707 211.381 512.259V512.259Z" fill="white"/>
<path opacity="0.8" d="M231.621 576.611L231.765 576.971C232.631 576.448 233.63 576.189 234.641 576.223C235.651 576.258 236.63 576.586 237.458 577.167C239.177 578.444 239.692 581.287 238.086 582.749C238.878 583.085 239.565 583.626 240.079 584.315C240.593 585.005 240.914 585.819 241.01 586.673C241.135 587.493 240.968 588.331 240.539 589.04C240.11 589.75 239.446 590.286 238.663 590.556C238.046 590.82 237.379 590.95 236.708 590.936C236.037 590.921 235.377 590.764 234.771 590.474C234.158 591.324 233.353 592.019 232.422 592.5C231.49 592.982 230.459 593.238 229.411 593.247C228.362 593.256 227.326 593.018 226.387 592.552C225.448 592.087 224.631 591.406 224.003 590.567C223.471 590.863 222.877 591.033 222.269 591.063C221.66 591.094 221.053 590.984 220.494 590.742C219.934 590.5 219.438 590.132 219.043 589.668C218.649 589.204 218.366 588.655 218.217 588.064C218.058 587.434 218.049 586.776 218.192 586.142C218.335 585.508 218.626 584.917 219.041 584.418C218.33 584.122 217.752 583.577 217.415 582.884C217.077 582.192 217.004 581.401 217.208 580.658C217.512 579.606 218.189 578.702 219.113 578.114C219.981 577.525 221.042 577.289 222.078 577.455C222.15 576.307 222.65 575.227 223.479 574.43C224.308 573.633 225.406 573.176 226.556 573.15C227.643 573.18 228.698 573.523 229.596 574.136C230.494 574.75 231.197 575.609 231.621 576.611V576.611Z" fill="white"/>
<path opacity="0.8" d="M256.627 597.591C256.732 598.3 256.602 599.023 256.256 599.651C256.764 599.647 257.257 599.826 257.644 600.155C258.031 600.484 258.288 600.941 258.367 601.443C258.363 601.742 258.288 602.036 258.146 602.3C258.004 602.564 257.801 602.789 257.553 602.957C257.054 603.287 256.474 603.476 255.875 603.503C255.747 603.499 255.62 603.528 255.505 603.585C255.386 603.697 255.3 603.84 255.258 603.997C255.07 604.481 254.738 604.896 254.307 605.185C253.876 605.475 253.366 605.624 252.847 605.614C252.328 605.604 251.825 605.435 251.405 605.129C250.986 604.823 250.67 604.396 250.501 603.905C249.834 604.193 249.099 604.286 248.381 604.172C247.874 604.105 247.403 603.873 247.04 603.512C246.677 603.151 246.443 602.681 246.373 602.174C246.325 601.905 246.338 601.628 246.412 601.364C246.485 601.1 246.616 600.856 246.796 600.65C246.975 600.443 247.199 600.28 247.45 600.171C247.701 600.062 247.973 600.011 248.247 600.022C247.937 599.768 247.707 599.429 247.586 599.047C247.465 598.664 247.459 598.255 247.567 597.869C247.692 597.487 247.913 597.143 248.209 596.871C248.504 596.599 248.865 596.407 249.256 596.314C249.647 596.229 250.051 596.229 250.442 596.314C250.833 596.4 251.201 596.568 251.521 596.808C251.791 596.229 252.254 595.762 252.831 595.488C253.408 595.214 254.062 595.149 254.681 595.304C255.202 595.437 255.67 595.728 256.018 596.138C256.367 596.547 256.579 597.055 256.627 597.591Z" fill="white"/>
<path d="M378.013 618.345C376.634 602.071 377.92 595.222 376.263 569.813C376.067 563.293 375.748 556.31 375.234 550.11C373.504 529.253 370.189 522.146 369.839 518.129C369.839 518.129 369.839 493.101 367.955 447.433C367.059 425.958 360.749 419.521 355.601 408.171L292.546 408.871C289.21 437.308 289.406 490.053 289.941 519.077C290.219 533.857 297.003 607.303 297.148 609.126C297.642 615.574 297.148 618.128 294.605 620.868C289.344 626.615 281.695 632.115 275.045 637.141C276.074 639.675 284.063 639.49 288.016 637.512C293.187 634.755 298.11 631.553 302.727 627.944C308.163 623.824 315.133 620.528 315.143 614.379C315.17 614.008 315.229 613.639 315.318 613.277C315.38 609.683 323.307 562.273 323.863 549.986C324.336 539.419 322.833 521.518 322.833 521.518L328.464 485.109C328.464 485.109 332.037 504.05 336.515 522.054C340.169 536.71 346.593 556.042 350.711 574.087C354.716 594.872 360.409 609.641 361.49 620.054C361.809 622.547 364.928 646.947 366.164 652.529C367.399 658.111 379.65 658.122 380.329 648.492C380.772 642.065 378.271 621.404 378.013 618.345Z" fill="#C8856A"/>
<path d="M263.792 643.743C263.463 643.743 262.948 647.461 264.822 649.048C266.953 650.871 273.202 653.868 281.448 652.797C289.694 651.726 294.162 649.192 297.456 646.442C300.751 643.692 305.383 639.809 309.11 638.985C312.579 638.223 316.316 636.657 317.449 635.586C318.581 634.515 318.396 629.787 318.396 629.787L263.792 643.743Z" fill="#263238"/>
<path d="M315.472 611.526C315.472 611.526 316.09 611.526 316.306 612.649C316.563 613.957 316.841 617.799 317.387 619.859C318.149 622.835 318.664 628.943 318.211 631.373C317.758 633.804 312.106 635.493 308.503 636.863C304.256 638.715 300.313 641.198 296.808 644.227C292.937 647.41 284.783 650.603 279.41 650.685C271.174 650.809 265.882 648.625 264.235 645.659C262.176 642.023 263.792 639.922 273.222 635.565C275.003 634.741 281.273 631.044 283.414 629.705C285.678 628.296 287.823 626.705 289.828 624.947C290.833 624.049 291.792 623.1 292.7 622.104C293.643 621.219 294.448 620.199 295.089 619.076C295.191 618.818 295.264 618.53 295.356 618.272C295.623 617.56 295.83 616.826 295.974 616.079C296.128 615.296 296.221 614.153 297.003 613.689C298.072 613.251 299.239 613.112 300.38 613.287C301.602 613.372 302.817 613.544 304.014 613.802C305.404 614.111 307.01 614.235 307.833 615.533C308.382 616.58 308.651 617.75 308.616 618.932C308.616 619.477 308.616 620.034 308.616 620.579C308.616 620.816 308.513 621.239 308.842 621.136C309.172 621.033 309.512 620.219 309.625 619.941C309.882 619.333 310.057 618.674 310.335 618.066C310.651 617.362 311.045 616.696 311.509 616.079C311.95 615.522 312.451 615.014 313.001 614.565C313.562 614.257 314.102 613.913 314.618 613.535C315.095 612.964 315.392 612.265 315.472 611.526V611.526Z" fill="#37474F"/>
<path d="M271.699 636.328C283.589 637.131 287.336 644.433 287.841 648.955C285.137 649.973 282.294 650.571 279.409 650.726C271.174 650.85 265.542 648.667 263.905 645.7C261.98 642.281 263.277 639.51 271.699 636.328Z" fill="#FAFAFA"/>
<path d="M289.519 636.441C289.651 636.441 289.779 636.394 289.879 636.307C289.938 636.259 289.987 636.2 290.023 636.133C290.059 636.066 290.082 635.993 290.089 635.917C290.097 635.842 290.09 635.765 290.068 635.693C290.046 635.62 290.01 635.552 289.961 635.493C288.573 634.067 286.896 632.953 285.042 632.226C283.189 631.5 281.202 631.178 279.214 631.281C279.138 631.288 279.064 631.311 278.997 631.348C278.93 631.384 278.871 631.433 278.823 631.493C278.775 631.552 278.74 631.62 278.718 631.694C278.697 631.767 278.69 631.844 278.699 631.919C278.707 631.995 278.729 632.069 278.766 632.136C278.802 632.203 278.851 632.262 278.911 632.31C278.97 632.358 279.038 632.394 279.112 632.415C279.185 632.436 279.261 632.443 279.337 632.434C281.13 632.353 282.92 632.644 284.594 633.289C286.269 633.934 287.791 634.92 289.066 636.183C289.115 636.259 289.182 636.323 289.261 636.367C289.34 636.412 289.428 636.437 289.519 636.441V636.441Z" fill="#F0F0F0"/>
<path d="M294.625 633.464C294.759 633.466 294.89 633.422 294.996 633.341C295.055 633.293 295.104 633.234 295.14 633.167C295.176 633.1 295.198 633.027 295.206 632.951C295.214 632.876 295.206 632.799 295.184 632.726C295.162 632.654 295.126 632.586 295.078 632.527C293.691 631.099 292.014 629.984 290.16 629.257C288.306 628.531 286.319 628.209 284.33 628.315C284.251 628.317 284.173 628.336 284.101 628.37C284.029 628.404 283.965 628.452 283.912 628.512C283.86 628.572 283.821 628.642 283.797 628.718C283.773 628.794 283.765 628.874 283.774 628.953C283.782 629.032 283.807 629.109 283.846 629.178C283.886 629.247 283.939 629.307 284.003 629.355C284.067 629.402 284.14 629.436 284.218 629.453C284.295 629.471 284.376 629.473 284.454 629.458C286.25 629.38 288.043 629.678 289.718 630.333C291.394 630.987 292.914 631.984 294.183 633.258C294.237 633.323 294.305 633.374 294.381 633.41C294.458 633.445 294.541 633.464 294.625 633.464V633.464Z" fill="#F0F0F0"/>
<path d="M299.371 630.076C299.503 630.077 299.631 630.029 299.731 629.942C299.79 629.894 299.839 629.835 299.875 629.768C299.911 629.701 299.934 629.628 299.941 629.552C299.949 629.477 299.942 629.4 299.92 629.328C299.898 629.255 299.862 629.187 299.814 629.128C298.424 627.703 296.747 626.59 294.893 625.863C293.04 625.137 291.053 624.814 289.066 624.916C288.914 624.934 288.775 625.011 288.678 625.13C288.582 625.25 288.536 625.402 288.551 625.554C288.559 625.63 288.581 625.704 288.618 625.771C288.654 625.838 288.703 625.897 288.763 625.945C288.822 625.993 288.89 626.029 288.964 626.05C289.037 626.071 289.114 626.078 289.189 626.069C290.985 625.994 292.776 626.291 294.451 626.944C296.125 627.596 297.646 628.589 298.918 629.86C298.972 629.928 299.041 629.983 299.119 630.021C299.198 630.058 299.284 630.077 299.371 630.076Z" fill="#F0F0F0"/>
<path d="M304.014 626.687C304.146 626.687 304.274 626.639 304.374 626.553C304.492 626.458 304.568 626.321 304.585 626.171C304.602 626.02 304.56 625.869 304.467 625.75C302.182 622.887 297.034 621.002 292.721 621.476C292.645 621.483 292.572 621.506 292.505 621.542C292.439 621.579 292.38 621.628 292.333 621.688C292.286 621.748 292.252 621.816 292.232 621.889C292.211 621.962 292.206 622.039 292.216 622.114C292.224 622.19 292.247 622.264 292.283 622.331C292.319 622.398 292.369 622.457 292.428 622.505C292.487 622.553 292.556 622.589 292.629 622.61C292.702 622.631 292.779 622.638 292.855 622.629C296.736 622.207 301.533 623.927 303.551 626.461C303.606 626.531 303.677 626.587 303.757 626.627C303.837 626.666 303.925 626.687 304.014 626.687V626.687Z" fill="#F0F0F0"/>
<path d="M362.365 656.927C362.756 662.499 363.672 666.196 365.7 669.441C367.728 672.685 371.486 673.674 375.275 672.675C379.063 671.676 383.902 669.06 384.931 664.229C385.961 659.399 386.558 656.103 385.631 650.943L362.365 656.927Z" fill="#263238"/>
<path d="M377.807 616.357C379.372 616.46 379.866 623.948 380.896 631.435C381.925 639.459 384.406 642.765 385.353 649.336C386.383 656.855 385.209 660.233 382.615 664.785C380.02 669.338 370.693 673.942 365.989 667.474C362.159 662.2 361.933 656.309 362.18 648.78C362.301 642.423 362.06 636.065 361.459 629.736C361.078 624.102 359.76 618.406 361.119 617.788C361.232 618.612 361.346 619.663 361.459 620.477C361.526 621.493 361.709 622.499 362.005 623.474C362.169 623.896 362.519 624.329 362.653 623.649C362.725 623.181 362.725 622.705 362.653 622.238C362.396 620.178 363.446 619.992 364.012 619.817C366.393 619.325 368.799 618.957 371.218 618.715C372.413 618.623 376.541 618.396 377.086 619.065C377.439 619.736 377.626 620.481 377.632 621.239C377.786 622.372 378.054 623.196 378.085 622.845C378.147 622.032 377.972 619.92 377.941 619.416C377.91 618.911 377.828 618.262 377.817 617.768C377.807 617.273 377.9 616.83 377.807 616.357Z" fill="#37474F"/>
<path d="M385.909 653.693C386.238 657.718 385.26 661.742 383.119 665.167C380.515 669.75 370.436 674.344 365.731 667.875C363.395 664.662 362.725 660.831 362.365 656.927C365.083 651.87 381.483 649.47 385.909 653.693Z" fill="#FAFAFA"/>
<path d="M365.68 648.697H365.875C365.937 648.697 373.143 645.608 380.216 647.142C380.366 647.173 380.522 647.144 380.651 647.061C380.78 646.978 380.871 646.849 380.906 646.699C380.922 646.626 380.924 646.549 380.91 646.475C380.897 646.4 380.869 646.329 380.828 646.266C380.786 646.203 380.733 646.148 380.67 646.106C380.608 646.064 380.537 646.034 380.463 646.02C372.989 644.382 365.639 647.523 365.361 647.657C365.224 647.726 365.12 647.845 365.07 647.989C365.02 648.133 365.028 648.291 365.093 648.43C365.154 648.527 365.242 648.604 365.346 648.651C365.45 648.699 365.566 648.715 365.68 648.697V648.697Z" fill="#F0F0F0"/>
<path d="M379.794 641.488C379.905 641.475 380.01 641.432 380.097 641.363C380.184 641.293 380.25 641.201 380.288 641.096C380.334 640.95 380.321 640.792 380.252 640.655C380.182 640.519 380.062 640.414 379.917 640.365C372.866 638.079 365.124 641.714 364.836 641.869C364.768 641.903 364.707 641.951 364.658 642.01C364.609 642.069 364.572 642.137 364.55 642.21C364.528 642.283 364.521 642.36 364.529 642.436C364.538 642.511 364.561 642.585 364.599 642.652C364.673 642.785 364.796 642.884 364.942 642.929C365.088 642.973 365.246 642.958 365.381 642.888C365.443 642.888 372.999 639.325 379.557 641.457C379.632 641.487 379.714 641.497 379.794 641.488V641.488Z" fill="#F0F0F0"/>
<path d="M379.485 636.184C379.613 636.168 379.732 636.11 379.823 636.019C379.915 635.927 379.973 635.808 379.988 635.68C380.003 635.552 379.975 635.422 379.909 635.312C379.842 635.201 379.74 635.117 379.619 635.071C371.867 632.404 364.516 636.369 364.249 636.534C364.18 636.571 364.12 636.623 364.071 636.684C364.023 636.746 363.988 636.817 363.968 636.893C363.948 636.969 363.944 637.048 363.955 637.125C363.967 637.203 363.994 637.277 364.036 637.344C364.077 637.411 364.132 637.468 364.196 637.513C364.26 637.558 364.333 637.589 364.41 637.605C364.487 637.62 364.566 637.62 364.642 637.604C364.719 637.589 364.792 637.557 364.856 637.512C364.918 637.512 372.062 633.681 379.269 636.163C379.339 636.182 379.412 636.188 379.485 636.184V636.184Z" fill="#F0F0F0"/>
<path d="M379.043 631.034C379.151 631.023 379.254 630.981 379.34 630.913C379.425 630.846 379.49 630.755 379.527 630.653C379.576 630.508 379.568 630.349 379.502 630.211C379.437 630.072 379.32 629.965 379.177 629.911C371.908 627.305 364.002 631.363 363.734 631.549C363.604 631.626 363.51 631.751 363.471 631.898C363.433 632.044 363.453 632.2 363.528 632.332C363.608 632.465 363.737 632.562 363.887 632.601C364.038 632.639 364.198 632.617 364.331 632.538C364.393 632.538 372.063 628.572 378.816 631.003C378.889 631.029 378.966 631.039 379.043 631.034V631.034Z" fill="#EBEBEB"/>
<path d="M362.2 408.315C369.407 421.014 369.715 431.427 370.879 469.402C372.042 507.376 371.095 510.6 371.291 515.163C371.486 519.726 374.276 527.893 376.891 550.429C378.45 564.977 378.636 579.64 377.447 594.223C377.447 594.223 375.861 597.869 367.152 598.744C359.163 599.548 355.169 596.602 355.169 596.602C355.169 596.602 343.289 558.493 340.097 544.888C336.906 531.282 328.526 494.193 328.526 494.193L324.408 522.095C324.408 522.095 326.992 534.526 324.789 554.343C323.545 565.855 321.62 577.284 319.024 588.568C314.893 590.12 310.526 590.945 306.114 591.009C302.183 591.055 298.315 590.018 294.934 588.012C294.934 588.012 287.964 535.124 287.728 512.691C287.491 490.258 289.22 436.268 291.073 409.324L362.2 408.315Z" fill="#37474F"/>
<path d="M337.729 521.971C337.729 521.971 341.116 516.986 349.548 515.874C357.979 514.761 362.437 519.283 362.437 519.283C362.437 519.283 346.737 517.81 337.729 521.971ZM363.466 522.589C352.595 524.855 347.623 524.474 342.63 523.547C342.588 523.547 358.247 521.394 363.394 522.589H363.466Z" fill="#C8856A"/>
<path d="M287.944 518.541L287.841 516.11C295.109 515.08 306.721 517.274 309.851 519.025C302.584 518.118 295.244 517.956 287.944 518.541ZM304.714 521.858C299.855 523.217 288.242 523.918 288.242 523.918L288.098 521.641C288.098 521.641 296.406 521.353 304.714 521.858Z" fill="#C8856A"/>
<path d="M375.965 595.86C375.593 596.147 375.201 596.405 374.791 596.633C376.582 561.151 371.517 546.505 368.398 532.961C368.099 531.663 367.811 530.427 367.554 529.253C365.196 518.665 366.02 512.331 365.845 494.893C365.845 489.64 365.742 484.213 365.629 478.414C365.484 471.668 365.196 464.695 364.599 457.815C352.163 456.476 349.322 444.302 345.739 428.924C345.255 426.864 344.71 424.65 344.195 422.415L345.296 422.147C345.852 424.382 346.326 426.566 346.841 428.667C350.433 444.116 353.017 455.271 364.486 456.651C362.952 440.975 359.524 425.814 351.659 414.917L352.575 414.258C364.27 430.469 366.318 455.786 366.792 478.414C366.905 484.182 366.957 489.61 367.008 494.893C367.183 512.269 366.36 518.582 368.686 529.016C368.954 530.19 369.232 531.426 369.53 532.724C372.608 546.206 377.653 560.739 375.965 595.86ZM320.908 454.622L328.578 494.193L324.46 522.095L324.048 495.316L318.901 468.629C318.746 471.287 318.592 474.016 318.437 476.797C317.13 499.744 316.378 517.357 317.614 522.816C321.093 537.771 320.229 547.236 318.643 564.436C318.478 566.177 318.314 568 318.149 569.916C317.295 579.628 316.183 583.563 315.534 589.815C315.174 589.907 314.783 590.01 314.361 590.103C315.009 583.861 316.152 579.731 317.017 569.813C317.192 567.897 317.356 566.074 317.511 564.333C319.065 547.256 319.92 537.853 316.481 523.073C315.174 517.449 315.905 500.877 317.274 476.725C317.521 472.347 317.768 468.104 317.984 464.056L316.893 459.246C311.447 458.01 302.686 453.973 301.008 446.526C309.512 455.116 320.908 454.622 320.908 454.622V454.622Z" fill="#263238"/>
<path d="M307.998 334.755C296.921 336.877 291.598 340.43 285.833 350.204C280.068 359.979 271.421 384.626 271.534 390.167H294.574L307.998 334.755Z" fill="#C8856A"/>
<path d="M293.215 381.382C288.304 380.063 284.681 379.126 282.107 379.188C284.166 377.818 293.431 379.404 293.431 379.404L293.215 381.382Z" fill="#AF6152"/>
<path d="M308.543 334.044C300.699 334.662 294.996 336.846 289.766 343.252C284.536 349.658 284.083 352.141 281.314 359.144C278.544 366.148 276.66 370.814 276.66 370.814C276.66 370.814 281.931 380.259 299.052 378.837L305.146 360.566L308.543 334.044Z" fill="#37474F"/>
<path d="M349.383 331.902C349.383 331.902 359.307 334.518 369.211 338.082C369.211 338.082 380.072 342.48 374.142 374.419C372.639 382.473 369.592 394.194 368.758 404.154C368.284 409.808 368.655 423.445 369.406 435.053C369.406 435.053 351.802 446.671 319.477 443.066C294.1 440.223 289.982 429.058 289.982 429.058C289.982 429.058 291.012 400.467 293.122 381.577C296.159 354.458 301.584 339.287 308.564 333.972L322.977 332.427L349.383 331.902Z" fill="#455A64"/>
<path d="M360.748 311.354C358.341 315.964 355.256 320.185 351.596 323.879C350.505 325.087 348.989 325.826 347.365 325.939L349.826 316.319L351.71 309.686C351.71 309.686 347.458 303.506 348.106 298.573C348.333 296.724 348.821 294.917 349.558 293.206L316.934 288.057C316.934 288.057 315.843 279.22 321.546 273.751C327.002 268.508 333.9 265.933 344.555 268.961C357.557 272.669 362.9 280.713 362.591 286.368C364.582 287.759 365.973 289.853 366.483 292.228C367.131 294.927 367.018 299.53 360.748 311.354Z" fill="#263238"/>
<path d="M357.526 320.253C357.193 320.4 356.849 320.521 356.497 320.614C355.565 320.903 354.581 320.983 353.614 320.851C352.803 320.622 352.061 320.197 351.452 319.615C350.738 319.04 350.131 318.342 349.661 317.555L349.311 335.775C340.519 346.507 310.726 343.561 323.008 332.829L322.647 326.248C321.214 325.887 319.81 325.419 318.447 324.847C316.272 324.042 314.384 322.613 313.017 320.738C311.651 318.864 310.868 316.628 310.767 314.31C310.458 306.761 315.41 291.579 318.478 283.412C318.95 282.181 319.687 281.069 320.638 280.156C321.588 279.243 322.727 278.55 323.975 278.128C329.854 276.696 333.858 281.599 340.54 286.162C343.299 288.057 350.557 290.281 352.708 289.777C351.003 291.236 349.848 293.235 349.435 295.441C349.102 297.055 349.057 298.715 349.301 300.344C349.661 301.786 349.885 303.258 349.97 304.742C349.873 305.422 349.984 306.115 350.289 306.73C350.583 307.051 350.976 307.263 351.405 307.334C351.835 307.405 352.275 307.33 352.657 307.121C353.408 306.69 354.1 306.164 354.716 305.556C355.585 304.794 356.659 304.303 357.804 304.145C358.894 304.11 359.969 304.407 360.888 304.995C361.807 305.583 362.526 306.436 362.952 307.441C363.764 309.495 363.786 311.777 363.013 313.847C362.594 315.238 361.889 316.525 360.944 317.628C360 318.731 358.836 319.625 357.526 320.253V320.253Z" fill="#C8856A"/>
<path d="M322.637 326.227C328.402 327.504 333.683 327.947 337.41 327.257C341.137 326.567 345.214 322.612 347.252 318.224C346.408 321.942 343.299 328.153 337.513 329.718C331.727 331.284 326.601 330.12 322.812 329.348L322.637 326.227Z" fill="#AF6152"/>
<path d="M337.657 291.414L341.332 295.4C341.861 294.884 342.171 294.185 342.198 293.446C342.225 292.708 341.967 291.987 341.476 291.435C341.232 291.173 340.938 290.964 340.61 290.821C340.282 290.677 339.929 290.602 339.571 290.6C339.214 290.598 338.859 290.669 338.53 290.809C338.201 290.949 337.904 291.155 337.657 291.414V291.414Z" fill="#263238"/>
<path d="M318.457 290.116L323.914 290.353C323.952 289.999 323.917 289.64 323.811 289.299C323.705 288.959 323.531 288.643 323.298 288.373C323.066 288.103 322.78 287.883 322.459 287.728C322.138 287.572 321.789 287.484 321.433 287.469C320.693 287.448 319.973 287.71 319.42 288.202C318.867 288.694 318.523 289.379 318.457 290.116V290.116Z" fill="#263238"/>
<path d="M338.285 299.664C338.153 300.078 337.9 300.443 337.561 300.714C337.221 300.985 336.808 301.15 336.375 301.187C335.943 301.224 335.508 301.132 335.127 300.923C334.747 300.713 334.436 300.396 334.235 300.011C334.034 299.625 333.951 299.189 333.997 298.757C334.043 298.325 334.216 297.916 334.494 297.581C334.771 297.247 335.142 297.002 335.558 296.878C335.975 296.754 336.418 296.756 336.834 296.883C337.112 296.97 337.37 297.111 337.594 297.298C337.817 297.485 338.002 297.714 338.137 297.972C338.272 298.231 338.354 298.513 338.38 298.803C338.405 299.094 338.373 299.386 338.285 299.664V299.664Z" fill="#263238"/>
<path d="M322.555 294.885C322.42 295.298 322.167 295.662 321.827 295.931C321.486 296.2 321.074 296.363 320.641 296.399C320.209 296.435 319.776 296.342 319.396 296.132C319.016 295.922 318.706 295.605 318.506 295.219C318.306 294.834 318.223 294.399 318.27 293.967C318.316 293.535 318.489 293.127 318.766 292.793C319.044 292.459 319.414 292.215 319.829 292.09C320.245 291.966 320.688 291.967 321.103 292.094C321.383 292.181 321.642 292.322 321.866 292.51C322.091 292.697 322.276 292.927 322.411 293.187C322.546 293.446 322.628 293.73 322.653 294.022C322.677 294.313 322.644 294.607 322.555 294.885V294.885Z" fill="#263238"/>
<path d="M330.029 294.391L325.211 307.78L318.097 303.043C321.376 299.3 325.454 296.344 330.029 294.391V294.391Z" fill="#AF6152"/>
<path d="M325.18 313.455L325.242 313.394C325.335 313.339 325.443 313.314 325.551 313.321C326.408 313.382 327.268 313.382 328.124 313.321C328.867 313.231 329.592 313.029 330.276 312.724C330.86 312.335 331.473 311.991 332.108 311.694C332.149 311.683 332.191 311.682 332.232 311.689C332.273 311.697 332.312 311.714 332.345 311.739C332.379 311.763 332.407 311.795 332.426 311.832C332.446 311.869 332.457 311.91 332.458 311.952C332.397 312.601 331.429 313.095 330.894 313.373C330.25 313.705 329.553 313.921 328.835 314.012C328.069 314.109 327.294 314.109 326.529 314.012C326.14 313.969 325.755 313.9 325.376 313.806C325.201 313.692 325.098 313.569 325.18 313.455Z" fill="#AF6152"/>
<path d="M353.614 411.652C352.492 411.652 351.38 411.652 350.268 411.714C347.394 411.781 344.518 411.698 341.652 411.467C339.86 411.312 338.079 411.085 336.309 410.766C334.696 410.544 333.103 410.2 331.542 409.736C328.454 408.634 325.437 407.378 322.442 406.121C319.446 404.865 315.544 404.669 312.415 404.401C305.054 403.793 298.486 403.814 291.176 402.702C286.902 402.066 282.741 400.817 278.823 398.994C276.299 397.751 274.145 395.869 272.574 393.535C270.618 390.445 271.657 388.385 274.386 386.521C276.722 384.904 283.527 381.515 293.246 381.371C297.889 382.586 303.324 384.409 308.472 386.088C313.3 387.674 316.965 388.972 321.855 390.208C323.985 390.656 326.178 390.719 328.33 390.394C330.389 390.105 332.15 389.467 334.126 389.147C336.637 388.556 339.192 388.173 341.765 388.004C346.151 388.004 350.639 389.415 353.614 389.817C356.589 390.218 356.394 391.877 354.15 393.102C352.977 393.581 351.703 393.762 350.443 393.628C349.033 393.628 347.623 393.525 346.212 393.628C345.883 393.628 345.234 393.628 345.059 393.947C344.884 394.266 345.337 394.709 345.646 394.853C347.407 395.667 349.363 395.44 351.246 395.43H357.423C358.247 395.43 359.081 395.43 359.904 395.43C361.068 395.502 362.262 395.677 362.91 396.759C363.124 397.078 363.229 397.457 363.209 397.84C363.209 398.159 363.024 398.427 363.384 398.664C363.679 398.811 364.002 398.895 364.331 398.911C364.679 398.986 365.003 399.143 365.278 399.368C365.553 399.594 365.769 399.883 365.909 400.21C366.049 400.536 366.109 400.892 366.084 401.247C366.058 401.602 365.948 401.945 365.762 402.248C365.454 402.68 365.049 403.033 364.578 403.278C364.338 403.387 364.122 403.541 363.94 403.732C363.813 403.911 363.716 404.109 363.652 404.319C363.426 404.856 363.072 405.329 362.622 405.699C361.782 406.316 360.796 406.707 359.76 406.832C358.896 406.986 358.02 407.089 357.145 407.182C355.961 407.316 354.778 407.501 353.583 407.656L352.049 407.831L351.277 407.913C351.029 407.914 350.783 407.952 350.546 408.026C350.691 408.171 351.288 408.109 351.504 408.119L352.605 408.191C353.305 408.243 354.005 408.315 354.664 408.428C355.144 408.497 355.61 408.643 356.044 408.861C356.422 409.024 356.732 409.313 356.92 409.68C357.108 410.046 357.162 410.467 357.073 410.869C356.996 411.018 356.883 411.145 356.745 411.24C356.607 411.336 356.447 411.396 356.281 411.415C355.975 411.48 355.666 411.524 355.354 411.549C354.86 411.652 354.232 411.652 353.614 411.652Z" fill="#C8856A"/>
<path d="M333.992 400.683C332.102 397.376 330.638 393.843 329.638 390.167C331.161 389.848 332.592 389.405 334.137 389.137C336.647 388.545 339.202 388.163 341.775 387.994C346.161 387.994 350.649 389.405 353.625 389.806C356.6 390.208 356.404 391.866 354.16 393.092C352.987 393.571 351.714 393.752 350.454 393.617C349.043 393.617 347.633 393.514 346.223 393.617C345.893 393.617 345.245 393.617 345.07 393.937C344.895 394.256 345.348 394.699 345.656 394.843C347.417 395.657 349.373 395.43 351.257 395.42H357.434C358.257 395.42 359.091 395.42 359.915 395.42C361.078 395.492 362.272 395.667 362.921 396.748C363.134 397.067 363.239 397.447 363.219 397.83C363.219 398.098 363.096 398.334 363.281 398.54C362.832 398.823 362.45 399.199 362.159 399.643L360.182 403.031C361.838 403.212 363.51 403.17 365.155 402.907C364.977 403.053 364.788 403.184 364.589 403.299C364.365 403.406 364.159 403.548 363.981 403.721C362.728 403.982 361.493 404.327 360.285 404.751C359.198 405.376 358.232 406.193 357.434 407.161H357.166C355.982 407.295 354.798 407.481 353.604 407.635L352.07 407.81L351.298 407.893C351.05 407.893 350.804 407.932 350.567 408.006C350.711 408.15 351.308 408.088 351.524 408.099L352.626 408.171C353.326 408.222 354.026 408.294 354.685 408.407C355.036 408.468 355.381 408.561 355.714 408.686C352.235 411.374 347.376 412.651 343.299 410.797C342.78 410.564 342.278 410.296 341.796 409.994C338.337 407.81 336 404.205 333.992 400.683Z" fill="#AF6152"/>
<path d="M347.427 410.488C351.545 410.127 355.22 409.798 361.15 400.271C365.752 392.896 368.171 388.045 372.701 377.725C377.23 367.405 380.597 360.216 380.175 353.644C379.835 348.278 378.466 342.459 369.056 338.823C363.394 342.428 355.591 352.604 351.977 361.802C348.364 370.999 341.971 388.179 341.971 388.179L347.427 410.488Z" fill="#C8856A"/>
<path d="M369.211 338.411C379.012 342.418 382.594 349.844 379.866 360.865C376.829 373.224 368.542 389.703 368.542 389.703C368.542 389.703 363.003 389.961 356.034 385.45C351.788 382.634 348.456 378.639 346.449 373.955C346.449 373.955 349.939 364.15 351.833 358.928C355.57 348.598 362.138 340.09 369.211 338.411Z" fill="#37474F"/>
<path d="M357.362 390.198C357.074 379.095 352.019 372.338 348.158 364.027C344.298 355.715 342.177 350.709 340.756 345.673C339.336 340.636 338.605 333.313 339.294 329.585C339.873 326.739 340.682 323.946 341.714 321.232C342.414 319.378 341.662 319.172 339.902 319.254C338.141 319.336 336.247 320.171 334.61 323.374C332.973 326.577 332.551 328.524 331.779 328.369C331.007 328.215 327.177 323.745 324.944 321.644C322.71 319.542 321.855 319.481 318.396 319.058C315.64 318.648 312.834 318.711 310.098 319.244C308.678 319.687 306.588 321.695 305.733 322.334C304.539 323.261 306.557 324.96 308.822 324.157L311.046 323.364C310.17 324.043 310.232 324.981 310.098 326.145C310.053 326.929 310.299 327.703 310.788 328.318C310.788 328.318 309.965 328.565 309.656 330.038C309.471 330.922 309.506 331.838 309.759 332.705C309.503 332.674 309.244 332.721 309.016 332.841C308.788 332.96 308.602 333.147 308.482 333.375C307.978 334.199 307.309 335.527 310.273 338.226C313.238 340.924 315.421 342.737 317.974 344.849C319.68 346.149 321.167 347.714 322.38 349.483C323.935 351.749 324.439 355.571 325.396 361.719C327.6 375.356 328.022 378.745 330.359 387.077C332.129 393.411 334.209 399.972 341.096 407.069C347.17 413.331 351.206 409.726 353.584 405.235C355.891 400.546 357.178 395.421 357.362 390.198V390.198Z" fill="#C8856A"/>
<path d="M357.362 390.198C357.619 379.898 351.7 371.071 347.664 362.049C345.546 357.533 343.656 352.913 342.002 348.206C339.989 342.342 339.211 336.125 339.717 329.945C340.306 326.899 341.164 323.91 342.28 321.015C343.309 318.028 339.027 318.605 337.483 319.481C334.559 321.16 333.725 324.631 332.335 327.411C332.222 327.648 331.965 328.101 331.862 328.04C328.866 325.681 326.591 322.303 323.379 320.088C322.25 319.464 320.992 319.111 319.703 319.058C317.21 318.717 314.686 318.648 312.178 318.852C309.501 318.852 307.597 320.799 305.744 322.447C307.659 320.902 309.573 319.038 312.199 319.12C314.684 318.99 317.176 319.128 319.631 319.532C320.844 319.611 322.023 319.963 323.08 320.562C326.282 322.849 328.403 326.32 331.553 328.74C332.819 329.276 333.395 326.845 333.859 326.062C334.888 323.93 335.784 321.427 337.915 320.253C338.94 319.741 340.103 319.575 341.23 319.779C341.734 319.903 341.497 320.336 341.415 320.748C339.922 324.867 338.388 329.193 338.553 333.632C338.553 343.819 342.671 353.356 346.985 362.379C351.298 371.401 357.187 379.888 357.372 390.188L357.362 390.198Z" fill="#AF6152"/>
<path d="M319.96 324.682C317.346 323.23 313.784 321.386 311.004 323.446C312.449 322.972 314.01 322.993 315.441 323.508C316.769 323.889 318.622 324.383 319.96 324.682Z" fill="#AF6152"/>
<path d="M317.531 330.285C315.553 328.896 313.157 328.234 310.747 328.41C312.958 329.204 315.226 329.831 317.531 330.285V330.285Z" fill="#AF6152"/>
<path d="M315.626 335.713C313.737 334.583 311.761 333.604 309.717 332.788C311.262 334.455 313.365 335.496 315.626 335.713V335.713Z" fill="#AF6152"/>
<path d="M143.724 418.409C142.319 417.749 140.871 417.185 139.39 416.719C137.819 416.229 136.206 415.884 134.572 415.689C132.816 415.482 131.043 415.451 129.28 415.597C127.302 415.757 125.346 416.123 123.443 416.689C120.877 417.405 118.444 418.532 116.237 420.026C114.293 421.335 112.631 423.019 111.347 424.98C110.14 426.846 109.359 428.956 109.061 431.159C108.762 433.545 108.973 435.968 109.679 438.266C110.246 440.418 111.217 442.442 112.541 444.23C113.654 445.705 114.988 447.001 116.494 448.071C117.869 449.042 119.355 449.844 120.921 450.461L125.255 452.119C126.491 452.588 127.695 453.139 128.858 453.767C129.835 454.279 130.622 455.091 131.103 456.085L134.191 462.728L142.242 460.4L140.8 452.387C140.629 450.98 140.003 449.668 139.019 448.648C138.037 447.669 136.895 446.865 135.643 446.269C134.273 445.599 132.86 445.025 131.411 444.549C129.9 444.05 128.427 443.441 127.005 442.726C125.613 442.027 124.333 441.124 123.207 440.048C122.025 438.866 121.18 437.391 120.756 435.774C120.433 434.721 120.349 433.609 120.509 432.519C120.674 431.5 121.053 430.527 121.621 429.666C122.234 428.758 123.017 427.978 123.927 427.369C124.939 426.686 126.055 426.171 127.232 425.845C128.774 425.36 130.381 425.11 131.998 425.103C133.203 425.118 134.404 425.256 135.581 425.515C136.61 425.752 137.465 425.989 138.185 426.205C138.757 426.423 139.381 426.466 139.977 426.329C140.492 426.214 140.963 425.949 141.329 425.568C141.695 425.187 141.941 424.707 142.036 424.187L143.724 418.409ZM149.469 471.967C149.193 470.999 148.727 470.095 148.099 469.309C147.511 468.552 146.776 467.921 145.937 467.455C144.171 466.512 142.107 466.294 140.183 466.848C139.207 467.125 138.299 467.602 137.516 468.248C136.772 468.856 136.147 469.596 135.673 470.432C134.71 472.176 134.476 474.232 135.025 476.148C135.298 477.098 135.757 477.985 136.376 478.756C136.994 479.526 137.76 480.167 138.628 480.639C140.386 481.567 142.436 481.77 144.342 481.205C145.322 480.924 146.238 480.456 147.039 479.825C147.791 479.232 148.421 478.497 148.892 477.662C149.347 476.827 149.634 475.91 149.736 474.964C149.847 473.953 149.756 472.931 149.469 471.956V471.967Z" fill="#F0F0F0"/>
<path d="M469.657 581.595C470.369 582.87 471.167 584.095 472.046 585.262C473.975 587.839 476.388 590.015 479.149 591.669C480.748 592.631 482.442 593.425 484.204 594.037C486.558 594.902 489.037 595.379 491.544 595.448C493.747 595.513 495.941 595.138 497.999 594.346C499.951 593.577 501.709 592.385 503.146 590.855C504.688 589.199 505.857 587.233 506.574 585.087C507.319 583.131 507.69 581.052 507.666 578.959C507.613 577.223 507.305 575.505 506.749 573.86C506.236 572.365 505.545 570.937 504.69 569.607L502.292 565.961C501.6 564.929 500.984 563.848 500.449 562.727C499.976 561.803 499.817 560.751 499.996 559.729L501.262 552.942L493.84 550.305L490.545 557.216C489.909 558.386 489.667 559.73 489.856 561.048C490.074 562.336 490.506 563.578 491.132 564.725C491.815 565.987 492.582 567.201 493.428 568.36C494.304 569.572 495.092 570.846 495.785 572.171C496.47 573.464 496.956 574.853 497.227 576.291C497.474 577.844 497.311 579.435 496.753 580.905C496.425 581.887 495.883 582.784 495.168 583.532C494.485 584.219 493.664 584.753 492.759 585.097C491.795 585.455 490.77 585.623 489.742 585.592C488.597 585.552 487.464 585.333 486.386 584.943C484.937 584.466 483.57 583.772 482.33 582.883C481.42 582.213 480.581 581.45 479.828 580.607C479.18 579.865 478.645 579.216 478.212 578.65C477.893 578.172 477.442 577.796 476.915 577.568C476.457 577.375 475.952 577.32 475.463 577.412C474.974 577.503 474.523 577.737 474.166 578.083L469.657 581.595ZM494.632 537.544C494.309 538.434 494.165 539.379 494.21 540.325C494.249 541.224 494.466 542.106 494.849 542.92C495.262 543.766 495.839 544.522 496.546 545.144C497.253 545.766 498.075 546.243 498.966 546.546C499.863 546.87 500.816 547.007 501.767 546.948C502.667 546.885 503.549 546.661 504.371 546.288C505.173 545.891 505.892 545.346 506.492 544.682C507.13 543.984 507.621 543.164 507.933 542.272C508.267 541.377 508.404 540.422 508.335 539.47C508.282 538.568 508.051 537.686 507.655 536.875C507.254 536.067 506.702 535.343 506.029 534.743C505.322 534.106 504.496 533.616 503.599 533.301C502.696 532.976 501.737 532.832 500.778 532.878C499.879 532.906 498.996 533.118 498.183 533.503C497.37 533.887 496.645 534.436 496.053 535.113C495.418 535.817 494.934 536.645 494.632 537.544Z" fill="#E0E0E0"/>
<path d="M173.167 604.152C173.998 604.05 174.8 603.78 175.524 603.359C176.248 602.937 176.878 602.373 177.378 601.7L189.412 585.458C189.885 584.818 190.226 584.09 190.415 583.317C190.604 582.544 190.638 581.74 190.513 580.954C190.388 580.168 190.109 579.415 189.69 578.738C189.271 578.061 188.722 577.474 188.074 577.012C186.754 576.063 185.114 575.673 183.509 575.925C181.904 576.178 180.463 577.053 179.498 578.361L171.705 588.918L147.203 565.116C146.038 563.984 144.474 563.357 142.849 563.37C141.225 563.384 139.671 564.037 138.525 565.188C137.955 565.746 137.502 566.411 137.193 567.146C136.884 567.881 136.724 568.67 136.724 569.468C136.724 570.265 136.884 571.054 137.193 571.789C137.502 572.524 137.955 573.19 138.525 573.747L168.102 602.462C168.734 603.075 169.491 603.546 170.32 603.843C171.149 604.139 172.032 604.255 172.91 604.183L173.167 604.152Z" fill="#E6E6E6"/>
<path d="M524.92 330.285C525.779 330.435 526.661 330.406 527.509 330.201C528.358 329.995 529.155 329.617 529.851 329.09L546.724 316.401C547.421 315.908 548.012 315.281 548.462 314.555C548.912 313.829 549.212 313.021 549.343 312.177C549.475 311.333 549.436 310.472 549.228 309.644C549.021 308.815 548.649 308.037 548.135 307.355C547.621 306.674 546.976 306.102 546.237 305.675C545.498 305.247 544.681 304.973 543.834 304.867C542.987 304.762 542.127 304.828 541.306 305.061C540.485 305.294 539.719 305.69 539.054 306.225L528.09 314.465L511.052 282.948C510.239 281.46 508.868 280.357 507.241 279.881C505.615 279.405 503.866 279.595 502.379 280.409C500.892 281.223 499.79 282.595 499.314 284.222C498.838 285.849 499.028 287.599 499.841 289.086L520.431 327.123C520.868 327.93 521.474 328.634 522.208 329.185C522.941 329.736 523.786 330.122 524.683 330.316L524.92 330.285Z" fill="#F0F0F0"/>
<path d="M143.086 317.72C142.961 317.95 142.753 318.124 142.504 318.206C142.256 318.288 141.985 318.273 141.748 318.162L129.919 312.158C129.686 312.033 129.51 311.823 129.428 311.572C129.346 311.32 129.363 311.047 129.476 310.808C129.603 310.577 129.813 310.404 130.064 310.323C130.315 310.243 130.587 310.262 130.825 310.376L142.633 316.381C142.865 316.504 143.041 316.711 143.125 316.96C143.209 317.209 143.195 317.481 143.086 317.72V317.72ZM129.136 313.692L140.965 319.707C141.195 319.832 141.369 320.04 141.451 320.289C141.534 320.538 141.518 320.809 141.408 321.046C140.49 322.852 138.894 324.219 136.969 324.847C135.044 325.474 132.949 325.312 131.144 324.394C129.339 323.476 127.973 321.878 127.345 319.953C126.718 318.027 126.881 315.931 127.798 314.125C127.924 313.902 128.13 313.733 128.373 313.653C128.617 313.573 128.882 313.587 129.116 313.692H129.136ZM147.78 291.589V291.528C147.588 290.331 147.873 289.107 148.573 288.118C148.704 287.983 148.878 287.897 149.066 287.874C149.253 287.852 149.443 287.894 149.602 287.995C149.779 288.06 149.925 288.186 150.016 288.351C150.107 288.515 150.135 288.707 150.097 288.891C149.913 289.463 149.618 289.992 149.229 290.45C148.841 290.908 148.366 291.284 147.832 291.559L147.78 291.589ZM149.201 298.748V298.799C148.464 299.34 147.775 299.943 147.142 300.602C144.054 303.691 142.18 307.533 140.533 310.901C140.389 311.19 140.234 311.499 140.1 311.797L139.647 312.683L135.53 310.623C135.828 310.026 136.127 309.439 136.446 308.841C138.093 305.751 140.152 301.827 140.852 297.45C141.004 296.545 141.079 295.628 141.078 294.71H141.14C142.937 294.89 144.752 294.683 146.463 294.103V294.103V294.154C146.652 294.759 146.89 295.348 147.173 295.915C147.693 296.962 148.378 297.918 149.201 298.748V298.748ZM156.469 272.154C160.658 274.03 164.097 277.257 166.238 281.318C168.379 285.379 169.098 290.04 168.28 294.558C167.462 299.076 165.155 303.189 161.726 306.241C158.298 309.294 153.946 311.108 149.366 311.396C148.421 311.453 147.506 311.754 146.713 312.271C145.919 312.787 145.272 313.5 144.836 314.341C144.784 314.447 144.711 314.541 144.622 314.619C144.533 314.696 144.429 314.755 144.317 314.793C144.205 314.83 144.087 314.845 143.969 314.836C143.852 314.828 143.737 314.796 143.632 314.743L141.109 313.466C141.398 312.879 141.706 312.281 142.026 311.622C143.683 308.234 145.413 304.711 148.274 301.817C148.946 301.142 149.677 300.529 150.457 299.984V299.984C151.67 301.015 153.221 301.561 154.812 301.518C155.247 301.477 155.656 301.293 155.976 300.995C156.297 300.697 156.51 300.302 156.582 299.87C156.666 299.369 156.584 298.854 156.348 298.404C156.112 297.954 155.735 297.593 155.275 297.378C154.519 297.094 153.708 296.989 152.905 297.069C152.101 297.149 151.327 297.414 150.642 297.841V297.841C149.857 297.043 149.213 296.116 148.738 295.102C148.468 294.552 148.248 293.98 148.079 293.392V293.392C150.138 292.362 151.497 290.724 151.723 289.19C151.792 288.652 151.694 288.107 151.441 287.628C151.188 287.148 150.794 286.759 150.311 286.513C149.829 286.267 149.282 286.177 148.746 286.254C148.21 286.331 147.711 286.572 147.317 286.944C146.205 288.036 145.742 290.127 146.071 292.382C145.49 292.599 144.89 292.765 144.28 292.877C143.187 293.085 142.066 293.109 140.965 292.949V292.949C140.904 292.144 140.659 291.364 140.248 290.67C139.837 289.975 139.273 289.384 138.597 288.942C138.153 288.693 137.639 288.599 137.135 288.675C136.631 288.752 136.168 288.994 135.818 289.365C135.51 289.676 135.316 290.083 135.267 290.518C135.218 290.954 135.318 291.393 135.55 291.765C136.451 293.071 137.805 293.996 139.349 294.36V294.36C139.373 295.312 139.308 296.263 139.153 297.203C138.505 301.24 136.672 304.721 134.912 308.11L134.809 308.285C134.521 308.821 134.253 309.315 133.985 309.871L131.473 308.594C131.266 308.477 131.106 308.291 131.02 308.069C130.953 307.839 130.975 307.593 131.082 307.379C131.509 306.528 131.706 305.579 131.651 304.629C131.597 303.678 131.294 302.758 130.773 301.961C128.826 298.909 127.72 295.396 127.568 291.778C127.417 288.16 128.224 284.567 129.909 281.362C132.386 276.786 136.486 273.303 141.402 271.599C146.317 269.895 151.692 270.093 156.469 272.154V272.154ZM154.945 299.633C154.945 299.736 154.853 299.788 154.616 299.829C153.913 299.843 153.219 299.665 152.609 299.314C152.475 299.242 152.362 299.191 152.238 299.108H152.166H152.248C152.971 298.781 153.79 298.737 154.544 298.985C154.676 299.034 154.789 299.122 154.869 299.239C154.948 299.355 154.989 299.493 154.987 299.633H154.945ZM137.022 290.899C136.919 290.683 136.909 290.59 137.022 290.508C137.121 290.4 137.255 290.33 137.4 290.311C137.545 290.292 137.692 290.325 137.815 290.405C138.464 290.868 138.913 291.56 139.071 292.341V292.424H138.999C138.861 292.37 138.727 292.309 138.597 292.238C137.974 291.94 137.443 291.477 137.063 290.899H137.022Z" fill="#EBEBEB"/>
<path d="M533.959 469.917C533.911 470.052 533.836 470.176 533.739 470.281C533.641 470.386 533.522 470.469 533.39 470.525C533.259 470.581 533.117 470.61 532.973 470.608C532.83 470.606 532.689 470.574 532.558 470.514L519.35 465.148C519.085 465.042 518.874 464.834 518.762 464.572C518.65 464.309 518.647 464.013 518.753 463.748C518.86 463.483 519.067 463.271 519.33 463.159C519.592 463.047 519.888 463.044 520.153 463.15L533.372 468.516C533.506 468.565 533.629 468.64 533.733 468.739C533.836 468.837 533.918 468.956 533.973 469.088C534.028 469.219 534.056 469.361 534.053 469.504C534.051 469.647 534.018 469.787 533.959 469.917ZM518.65 466.827L531.869 472.204C532.002 472.252 532.123 472.327 532.226 472.425C532.329 472.523 532.41 472.64 532.465 472.771C532.52 472.901 532.548 473.042 532.546 473.183C532.544 473.325 532.514 473.465 532.456 473.594C531.519 475.434 529.927 476.854 527.994 477.576C526.061 478.297 523.928 478.266 522.016 477.49C520.105 476.713 518.555 475.246 517.672 473.381C516.789 471.515 516.639 469.386 517.25 467.414C517.365 467.158 517.576 466.956 517.837 466.852C518.099 466.748 518.39 466.75 518.65 466.858V466.827ZM536.646 441.521V441.449C536.336 440.186 536.531 438.852 537.191 437.731C537.317 437.573 537.493 437.464 537.691 437.422C537.888 437.381 538.094 437.41 538.272 437.504C538.469 437.555 538.641 437.677 538.754 437.845C538.868 438.014 538.916 438.219 538.89 438.421C538.75 439.055 538.485 439.656 538.111 440.186C537.736 440.717 537.259 441.167 536.707 441.511L536.646 441.521ZM538.807 449.06C538.068 449.71 537.38 450.416 536.748 451.172C533.66 454.797 532.064 459.051 530.572 462.79C530.438 463.119 530.304 463.459 530.18 463.82L529.779 464.85L525.218 463.006C525.496 462.337 525.754 461.688 526.042 461.008C527.524 457.506 529.377 453.17 529.727 448.411C529.815 447.432 529.815 446.446 529.727 445.466H529.789C531.73 445.505 533.655 445.118 535.431 444.333H535.523V444.384C535.783 445.011 536.09 445.616 536.44 446.197C537.082 447.261 537.88 448.223 538.807 449.05V449.06ZM544.233 419.892C547.055 420.88 549.648 422.432 551.853 424.453C554.058 426.474 555.829 428.922 557.059 431.649C558.29 434.376 558.953 437.324 559.01 440.316C559.067 443.307 558.516 446.278 557.39 449.05C555.933 452.598 553.582 455.708 550.565 458.075C547.548 460.442 543.968 461.985 540.177 462.553C539.168 462.698 538.215 463.103 537.41 463.727C536.605 464.352 535.976 465.175 535.585 466.117C535.489 466.354 535.303 466.543 535.068 466.644C534.832 466.744 534.567 466.747 534.329 466.652L531.519 465.509C531.776 464.86 532.054 464.19 532.332 463.449C533.804 459.669 535.338 455.745 538.149 452.377C538.8 451.593 539.524 450.873 540.31 450.224V450.224C541.7 451.219 543.41 451.663 545.108 451.47C545.571 451.392 545.995 451.16 546.312 450.813C546.629 450.466 546.821 450.023 546.858 449.555C546.904 449.011 546.77 448.467 546.476 448.007C546.182 447.547 545.744 447.197 545.231 447.011C543.903 446.465 542.143 446.805 540.321 447.917C539.407 447.134 538.634 446.201 538.035 445.157C537.696 444.593 537.406 444 537.171 443.385C539.229 442.077 540.588 440.234 540.691 438.565C540.733 437.978 540.59 437.394 540.282 436.893C539.974 436.392 539.517 436 538.975 435.773C538.433 435.545 537.833 435.494 537.26 435.625C536.687 435.756 536.17 436.064 535.781 436.505C534.679 437.782 534.37 440.059 534.937 442.448C534.333 442.728 533.706 442.956 533.063 443.128C531.908 443.45 530.709 443.583 529.511 443.519V443.519C529.382 442.656 529.054 441.835 528.554 441.12C528.054 440.405 527.395 439.816 526.629 439.399C526.127 439.175 525.565 439.123 525.031 439.252C524.496 439.38 524.019 439.682 523.674 440.11C523.37 440.469 523.198 440.921 523.187 441.392C523.176 441.862 523.326 442.322 523.612 442.695C524.69 444.019 526.226 444.89 527.916 445.136V445.136C528.034 446.162 528.052 447.197 527.967 448.226C527.627 452.603 525.99 456.466 524.405 460.277L524.312 460.483C524.055 461.08 523.818 461.667 523.581 462.254L520.771 461.111C520.535 461.012 520.344 460.828 520.236 460.596C520.148 460.353 520.148 460.087 520.236 459.844C520.617 458.896 520.743 457.864 520.601 456.851C520.458 455.839 520.052 454.882 519.422 454.076C517.059 450.981 515.557 447.315 515.069 443.451C514.581 439.587 515.124 435.662 516.643 432.076C518.891 426.966 522.968 422.881 528.074 420.627C533.18 418.372 538.944 418.11 544.233 419.892V419.892ZM545.087 449.441C545.087 449.565 544.995 449.627 544.758 449.689C544.003 449.767 543.242 449.639 542.555 449.318C542.411 449.256 542.277 449.205 542.143 449.132H542.061H542.143C542.877 448.697 543.748 448.553 544.583 448.731C544.735 448.78 544.868 448.879 544.959 449.011C545.05 449.143 545.095 449.302 545.087 449.462V449.441ZM525.105 441.717C524.982 441.49 524.961 441.397 525.043 441.294C525.144 441.171 525.284 441.087 525.439 441.055C525.595 441.023 525.757 441.046 525.898 441.119C526.627 441.561 527.167 442.259 527.411 443.076V443.159H527.329L526.876 442.994C526.182 442.744 525.57 442.309 525.105 441.737V441.717Z" fill="#F0F0F0"/>
</svg>
