<svg width="806" height="980" viewBox="0 0 806 980" fill="none" xmlns="http://www.w3.org/2000/svg">
<path d="M176.619 311.503C172.737 322.021 164.14 342.616 152.524 350.361C142.636 356.952 140.402 366.305 145.592 377.259C154.253 395.53 132.914 389.69 135.708 401.145C141.467 424.764 138.153 424.359 132.957 424.947C129.222 425.37 117.202 433.158 148.383 465.765C150.687 468.177 164.769 464.178 166.13 467.182C177.853 493.068 297.38 478.499 336.21 469.742C338.253 469.28 345.47 451.677 346.621 444.197C352.079 457.749 345.735 465.979 345.824 467.385C352.139 465.569 358.459 460.251 359.34 451.302C360.109 443.496 358.662 441.566 353.636 431.59C350.708 425.78 369.804 412.354 350.104 403.713C337.563 398.211 339.579 392.53 343.48 385.115C352.549 367.878 325.12 355.684 323.221 331.079C305.259 323.084 223.78 301.645 176.619 311.503Z" fill="#773220"/>
<path d="M131.619 398.453C130.752 394.098 133.473 392.65 136.869 390.827C141.265 388.47 146.732 385.531 141.445 374.366C136.003 362.891 138.829 353.899 148.377 349.209C158.242 344.363 169.372 336.052 178.03 324.542L174.564 320.023C167.077 332.253 156.882 342.37 147.285 347.083C136.993 352.142 134.191 362.864 139.979 375.067C144.606 384.828 140.673 386.941 136.107 389.391C132.764 391.193 128.975 393.217 130.031 398.759C132.882 413.722 124.689 419.884 121.966 421.651C123.549 421.137 134.935 415.142 131.619 398.453Z" fill="#773220"/>
<path d="M364.694 445.495C366.151 439.551 363.185 436.513 360.203 428.137C359.396 425.866 359.169 421.441 360.494 418.501C362.373 414.342 364.505 409.611 362.649 405.191C361.337 402.053 358.233 399.621 353.169 397.755C348.056 395.87 345.053 393.718 343.989 391.179C342.732 388.18 344.113 384.651 345.903 380.683C350.424 370.681 347.199 361.3 339.917 352.449C333.897 345.138 324.192 337.116 322.667 326.047L319.514 330.136C321.105 341.67 333.146 346.81 339.295 354.283C346.227 362.716 348.519 370.938 344.425 380.019C342.546 384.179 340.982 388.213 342.484 391.804C343.752 394.826 346.968 397.202 352.605 399.28C357.226 400.984 360.019 403.121 361.149 405.818C362.728 409.589 361.508 412.788 359.751 416.649C357.279 422.084 357.789 426.354 358.799 428.962C361.501 435.95 365.07 439.213 364.694 445.495Z" fill="#773220"/>
<path opacity="0.16" d="M325.957 659.797C325.183 666.57 369.061 677.142 423.962 683.41C478.863 689.678 523.994 689.269 524.767 682.498C525.541 675.726 481.663 665.153 426.763 658.883C371.864 652.613 326.73 653.024 325.957 659.797Z" fill="black"/>
<path d="M531.314 563.621L518.277 575.398L517.896 586.117L530.933 574.34L531.314 563.621Z" fill="#E59655"/>
<path d="M531.314 563.621L518.277 575.398L337.776 565.56L350.814 553.784L531.314 563.621Z" fill="#C1783D"/>
<path d="M334.747 668.495C335.805 668.495 336.84 668.189 337.729 667.614C338.617 667.04 339.321 666.221 339.756 665.257L381.258 573.13C381.555 572.472 381.719 571.762 381.741 571.04C381.763 570.319 381.643 569.6 381.387 568.925C381.131 568.25 380.744 567.632 380.249 567.107C379.754 566.581 379.16 566.159 378.502 565.863C375.787 564.615 372.494 565.838 371.239 568.615L329.737 660.746C329.441 661.404 329.276 662.114 329.254 662.836C329.232 663.558 329.353 664.276 329.609 664.951C329.865 665.626 330.251 666.244 330.746 666.769C331.241 667.295 331.835 667.717 332.494 668.013C333.202 668.333 333.97 668.498 334.747 668.495Z" fill="#D39C6A"/>
<path d="M457.001 635.164C457.166 635.166 457.331 635.159 457.495 635.143C458.214 635.081 458.915 634.877 459.555 634.543C460.196 634.209 460.764 633.753 461.228 633.199C461.692 632.645 462.042 632.005 462.257 631.315C462.473 630.626 462.551 629.901 462.486 629.182L450.967 499.521C450.69 496.501 447.946 494.302 445.005 494.53C444.286 494.594 443.587 494.799 442.948 495.133C442.308 495.467 441.741 495.924 441.278 496.478C440.815 497.031 440.466 497.671 440.25 498.36C440.034 499.048 439.956 499.773 440.021 500.491L451.541 630.152C451.661 631.518 452.288 632.79 453.298 633.718C454.309 634.645 455.63 635.161 457.001 635.164V635.164Z" fill="#D39C6A"/>
<path d="M517.098 685.236C517.593 685.236 518.084 685.168 518.56 685.034C519.963 684.646 521.156 683.716 521.875 682.45C522.594 681.184 522.782 679.684 522.396 678.28L493.521 573.5C493.134 572.095 492.204 570.901 490.936 570.181C489.668 569.462 488.167 569.275 486.761 569.663C485.356 570.051 484.162 570.98 483.443 572.248C482.723 573.516 482.537 575.018 482.924 576.423L511.801 681.201C512.122 682.36 512.814 683.381 513.771 684.11C514.727 684.838 515.896 685.234 517.098 685.236V685.236Z" fill="#D39C6A"/>
<path opacity="0.16" d="M332.472 685.443C332.472 692.375 288.659 698 234.598 698C180.537 698 136.725 692.379 136.725 685.443C136.725 678.506 180.545 672.885 234.598 672.885C288.65 672.885 332.472 678.507 332.472 685.443Z" fill="black"/>
<path d="M279.308 667.417L259.799 667.139C258.565 641.234 255.254 588.722 253.576 549.343L286.756 550.059C283.735 586.846 281.497 640.615 279.308 667.417Z" fill="#FFD5C7"/>
<path d="M209.041 638.958C204.042 639.587 188.113 635.076 185.577 633.341C183.443 645.376 181.501 656.149 179.921 664.331L198.787 669.305C201.415 661.377 204.993 650.84 209.041 638.958Z" fill="#FFD5C7"/>
<path d="M314.377 491.912C297.835 476.618 282.234 462.126 278.446 460.756L257.371 476.618C261.959 481.716 286.876 499.495 306.948 508.977C309.911 510.092 324.43 505.114 314.377 491.912Z" fill="#FFD5C7"/>
<path d="M162.942 511.815C164.006 524.083 172.602 530.194 175.019 534.239C185.272 526.688 189.899 532.901 193.162 525.538C193.818 524.059 183.619 512.342 184.917 510.943C194.873 500.21 213.452 486.315 223.427 473.553C215.858 468.904 210.571 467.591 203.212 462.613C185.971 483.797 161.715 497.578 162.942 511.815Z" fill="#FFD5C7"/>
<path d="M286.743 546.257C278.461 552.034 218.572 560.072 199.066 548.37C199.066 548.37 209.06 472.722 214.102 455.815C225.813 453.724 261.694 455.372 275.58 456.63C281.226 471.514 286.743 546.257 286.743 546.257Z" fill="#FBB03B"/>
<path d="M288.099 537.541C288.079 575.393 287.178 614.657 283.385 650.421C275.601 650.436 266.331 651.907 258.558 652C256.747 627.992 256.109 602.532 253.126 578.113C252.582 573.676 249.137 567.569 242.831 567.778C236.525 567.987 232.073 575.637 230.221 580.277C220.188 605.393 214.97 626.209 206.031 650.284C199.048 648.897 188.669 649.452 181.1 647.123C188.331 613.007 195.373 570.311 197.899 535.456C230.623 536.794 255.384 537.166 288.099 537.541Z" fill="#427B84"/>
<path d="M281.714 670.639L258.88 671.08C258.497 668.282 258.141 659.811 257.64 656.513L285.755 656.006C284.252 661.007 282.805 667.956 281.714 670.639Z" fill="white"/>
<path d="M292.075 666.209C291.702 664.716 290.902 662.818 290.288 661.079C289.833 659.794 277.346 659.729 277.247 662.794C277.22 663.497 277.234 664.2 277.288 664.902C275.152 664.877 272.836 664.8 270.393 664.659C265.079 664.351 260.322 663.816 256.989 663.21C256.667 668.054 256.909 676.461 256.596 681.847C256.596 681.847 312.056 693.474 321.006 685.591C323.528 683.368 309.772 672.954 292.075 666.209Z" fill="#E55B30"/>
<path d="M256.718 678.473C256.692 679.671 256.656 680.83 256.596 681.852C256.596 681.852 312.056 693.479 321.006 685.595C321.362 685.282 321.388 684.803 321.13 684.198C305.695 687.197 270.512 681.102 256.718 678.473Z" fill="#963623"/>
<path d="M288.282 670.773C288.153 670.936 287.965 671.04 287.759 671.064C287.554 671.087 287.347 671.028 287.185 670.9C287.023 670.771 286.918 670.583 286.895 670.377C286.871 670.172 286.93 669.965 287.059 669.803C289.277 666.983 293.083 665.567 296.302 666.337C296.503 666.386 296.677 666.512 296.784 666.689C296.892 666.866 296.925 667.078 296.876 667.279C296.827 667.48 296.7 667.653 296.523 667.761C296.347 667.868 296.135 667.901 295.934 667.852C293.295 667.206 290.149 668.416 288.282 670.773ZM292.178 672.762C292.106 672.834 292.02 672.892 291.926 672.932C291.832 672.972 291.73 672.993 291.628 672.993C291.526 672.994 291.424 672.975 291.329 672.936C291.234 672.897 291.148 672.84 291.075 672.769C291.003 672.697 290.945 672.611 290.905 672.517C290.865 672.422 290.844 672.321 290.844 672.219C290.843 672.116 290.862 672.015 290.901 671.92C290.94 671.825 290.997 671.739 291.068 671.666C293.589 669.112 296.983 667.906 300.384 668.38C300.486 668.394 300.583 668.428 300.672 668.479C300.76 668.531 300.838 668.599 300.9 668.681C300.962 668.762 301.007 668.855 301.033 668.954C301.059 669.053 301.065 669.157 301.051 669.258C301.04 669.36 301.007 669.459 300.956 669.549C300.905 669.639 300.836 669.717 300.754 669.779C300.672 669.841 300.578 669.886 300.478 669.911C300.378 669.936 300.274 669.94 300.172 669.923C298.468 669.689 295.159 669.749 292.185 672.762H292.178ZM305.477 671.561C305.459 671.662 305.421 671.759 305.365 671.845C305.309 671.931 305.236 672.005 305.15 672.062C305.065 672.12 304.969 672.159 304.868 672.179C304.768 672.199 304.664 672.198 304.563 672.177C301.981 671.637 298.54 672.835 296.225 675.001C296.074 675.142 295.873 675.217 295.666 675.211C295.46 675.204 295.264 675.115 295.123 674.964C294.982 674.813 294.907 674.612 294.913 674.406C294.92 674.199 295.009 674.004 295.16 673.863C297.818 671.377 301.8 670.047 304.865 670.647C304.966 670.666 305.062 670.705 305.147 670.762C305.233 670.818 305.307 670.891 305.364 670.976C305.422 671.061 305.462 671.156 305.482 671.256C305.503 671.357 305.503 671.46 305.484 671.561H305.477Z" fill="#D3DAE5"/>
<path d="M178.391 667.659L200.741 672.358C201.64 669.681 203.572 661.426 204.68 658.278L177.156 652.529C177.698 657.724 177.821 664.821 178.391 667.659Z" fill="white"/>
<path d="M170.818 664.569C171.298 663.106 172.233 661.27 172.971 659.586C173.517 658.338 185.976 659.178 185.854 662.242C185.83 662.945 185.765 663.646 185.66 664.342C187.791 664.472 190.107 664.565 192.555 664.601C197.877 664.678 202.661 664.49 206.028 664.128C205.997 668.981 205.146 677.35 205.067 682.744C205.067 682.744 148.914 690.316 140.556 681.8C138.202 679.4 152.683 670.012 170.818 664.569Z" fill="#7AA1C1"/>
<path d="M205.19 679.366C205.131 680.562 205.082 681.723 205.067 682.744C205.067 682.744 148.914 690.316 140.556 681.8C140.225 681.462 140.233 680.984 140.533 680.397C155.711 684.512 191.242 680.989 205.19 679.366Z" fill="#4B7E9B"/>
<path d="M153.915 671.152C154.224 671.228 154.534 671.306 154.843 671.406C161.318 673.478 165.117 679.689 163.327 685.271C163.264 685.466 163.188 685.649 163.109 685.836C152.649 685.824 143.543 684.841 140.556 681.796C139.013 680.228 144.705 675.651 153.915 671.152Z" fill="#4B7E9B"/>
<path d="M166.841 665.936C166.641 665.962 166.438 665.91 166.275 665.789C166.113 665.669 166.003 665.49 165.97 665.29C165.937 665.091 165.982 664.886 166.097 664.72C166.212 664.553 166.387 664.437 166.585 664.397C169.851 663.86 173.539 665.548 175.553 668.522C175.61 668.607 175.65 668.702 175.671 668.802C175.691 668.902 175.692 669.006 175.672 669.106C175.653 669.207 175.614 669.302 175.558 669.388C175.501 669.473 175.429 669.547 175.344 669.604C175.259 669.661 175.164 669.701 175.064 669.722C174.963 669.743 174.86 669.743 174.76 669.724C174.659 669.704 174.563 669.665 174.478 669.609C174.393 669.553 174.319 669.48 174.262 669.395C172.579 666.909 169.527 665.474 166.841 665.936ZM162.464 667.686C162.361 667.695 162.257 667.684 162.159 667.652C162.061 667.62 161.97 667.568 161.892 667.5C161.814 667.432 161.751 667.349 161.706 667.256C161.662 667.163 161.637 667.061 161.632 666.958C161.625 666.855 161.639 666.752 161.672 666.655C161.704 666.558 161.756 666.468 161.824 666.39C161.892 666.313 161.974 666.25 162.066 666.205C162.159 666.159 162.259 666.132 162.362 666.126C165.788 665.9 169.085 667.349 171.414 670.08C171.548 670.237 171.614 670.442 171.598 670.648C171.582 670.854 171.485 671.045 171.327 671.179C171.17 671.313 170.966 671.38 170.76 671.363C170.554 671.347 170.363 671.25 170.229 671.092C167.485 667.874 164.19 667.575 162.464 667.686V667.686ZM157.736 668.067C160.832 667.69 164.708 669.305 167.178 671.977C167.248 672.052 167.302 672.14 167.337 672.236C167.372 672.332 167.389 672.435 167.385 672.537C167.38 672.639 167.356 672.74 167.313 672.833C167.271 672.925 167.21 673.009 167.135 673.079C167.059 673.148 166.971 673.202 166.875 673.237C166.779 673.273 166.677 673.289 166.575 673.285C166.472 673.281 166.372 673.257 166.279 673.214C166.186 673.171 166.102 673.11 166.033 673.035C163.881 670.708 160.536 669.264 157.922 669.614C157.82 669.628 157.716 669.621 157.617 669.594C157.518 669.567 157.425 669.52 157.344 669.457C157.264 669.393 157.196 669.314 157.147 669.224C157.097 669.134 157.066 669.035 157.055 668.932C157.043 668.831 157.051 668.728 157.079 668.629C157.106 668.531 157.153 668.439 157.216 668.358C157.28 668.278 157.358 668.211 157.447 668.161C157.536 668.111 157.635 668.079 157.736 668.067V668.067Z" fill="#D3DAE5"/>
<path d="M170.818 664.569C171.298 663.106 172.233 661.27 172.971 659.586C173.517 658.338 185.976 659.178 185.854 662.242C185.83 662.945 185.765 663.646 185.66 664.342C187.791 664.472 190.107 664.565 192.555 664.601C197.877 664.678 202.661 664.49 206.028 664.128C205.997 668.981 205.146 677.35 205.067 682.744C205.067 682.744 148.914 690.316 140.556 681.8C138.202 679.4 152.683 670.012 170.818 664.569Z" fill="#E55B30"/>
<path d="M205.19 679.366C205.131 680.562 205.082 681.723 205.067 682.744C205.067 682.744 148.914 690.316 140.556 681.8C140.225 681.462 140.233 680.984 140.533 680.397C155.711 684.512 191.242 680.989 205.19 679.366Z" fill="#963623"/>
<path d="M166.841 665.936C166.641 665.962 166.438 665.91 166.275 665.789C166.113 665.669 166.003 665.49 165.97 665.29C165.937 665.091 165.982 664.886 166.097 664.72C166.212 664.553 166.387 664.437 166.585 664.397C169.851 663.86 173.539 665.548 175.553 668.522C175.61 668.607 175.65 668.702 175.671 668.802C175.691 668.902 175.692 669.006 175.672 669.106C175.653 669.207 175.614 669.302 175.558 669.388C175.501 669.473 175.429 669.547 175.344 669.604C175.259 669.661 175.164 669.701 175.064 669.722C174.963 669.743 174.86 669.743 174.76 669.724C174.659 669.704 174.563 669.665 174.478 669.609C174.393 669.553 174.319 669.48 174.262 669.395C172.579 666.909 169.527 665.474 166.841 665.936ZM162.464 667.686C162.361 667.695 162.257 667.684 162.159 667.652C162.061 667.62 161.97 667.568 161.892 667.5C161.814 667.432 161.751 667.349 161.706 667.256C161.662 667.163 161.637 667.061 161.632 666.958C161.625 666.855 161.639 666.752 161.672 666.655C161.704 666.558 161.756 666.468 161.824 666.39C161.892 666.313 161.974 666.25 162.066 666.205C162.159 666.159 162.259 666.132 162.362 666.126C165.788 665.9 169.085 667.349 171.414 670.08C171.548 670.237 171.614 670.442 171.598 670.648C171.582 670.854 171.485 671.045 171.327 671.179C171.17 671.313 170.966 671.38 170.76 671.363C170.554 671.347 170.363 671.25 170.229 671.092C167.485 667.874 164.19 667.575 162.464 667.686V667.686ZM157.736 668.067C160.832 667.69 164.708 669.305 167.178 671.977C167.248 672.052 167.302 672.14 167.337 672.236C167.372 672.332 167.389 672.435 167.385 672.537C167.38 672.639 167.356 672.74 167.313 672.833C167.271 672.925 167.21 673.009 167.135 673.079C167.059 673.148 166.971 673.202 166.875 673.237C166.779 673.273 166.677 673.289 166.575 673.285C166.472 673.281 166.372 673.257 166.279 673.214C166.186 673.171 166.102 673.11 166.033 673.035C163.881 670.708 160.536 669.264 157.922 669.614C157.82 669.628 157.716 669.621 157.617 669.594C157.518 669.567 157.425 669.52 157.344 669.457C157.264 669.393 157.196 669.314 157.147 669.224C157.097 669.134 157.066 669.035 157.055 668.932C157.043 668.831 157.051 668.728 157.079 668.629C157.106 668.531 157.153 668.439 157.216 668.358C157.28 668.278 157.358 668.211 157.447 668.161C157.536 668.111 157.635 668.079 157.736 668.067V668.067Z" fill="#D3DAE5"/>
<path d="M178.928 649.496C188.016 651.404 204.102 652.913 208.471 652.868L210.62 640.86C208.201 641.137 182.085 637.671 179.588 637.318L178.928 649.496Z" fill="#679FA8"/>
<path d="M285.825 652.762C276.571 653.563 260.42 653.128 256.089 652.559L255.395 640.379C257.764 640.951 284.105 640.646 286.629 640.592L285.825 652.762Z" fill="#679FA8"/>
<path d="M302.891 471.201C300.766 484.432 279.005 501.409 275.655 499.92C275.655 499.92 252.988 483.05 275.58 456.63C276.455 456.451 302.891 471.201 302.891 471.201Z" fill="#FBB03B"/>
<path d="M184.102 477.175C189.111 489.605 211.891 496.309 214.827 494.119C214.827 494.119 225.859 468.512 222.225 455.519C218.811 455.339 214.87 455.185 207.191 455.96C206.3 455.978 184.102 477.175 184.102 477.175Z" fill="#FBB03B"/>
<path d="M228.727 439.027L228.328 458.357C228.242 462.517 235.041 466.026 243.516 466.202C251.99 466.378 258.929 463.152 259.015 458.992L259.415 439.662L228.727 439.027Z" fill="#E4A78E"/>
<path d="M286.159 530.465C306.648 523.532 316.472 507.775 316.472 507.775C322.813 496.095 305.891 489.21 300.814 497.157C297.298 504.418 287.734 515.542 278.669 522.668C277.101 523.9 284.244 531.109 286.159 530.465Z" fill="#FFD5C7"/>
<path d="M208.32 537.54C215.652 537.817 273.624 537.875 277.229 537.723C277.229 537.723 275.47 503.694 273.475 491.94C260.825 491.209 222.262 491.592 214.193 491.604C211.772 500.433 208.32 537.54 208.32 537.54Z" fill="#427B84"/>
<path opacity="0.33" d="M229.831 526.111L245.483 529.068L260.917 524.261L259.81 505.452H229.555L229.831 526.111Z" fill="black"/>
<path d="M232.976 523.685L248.145 526.18L262.447 522.929L261.92 502.449C261.92 502.449 254.864 503.571 247.205 503.629C235.657 503.716 232.449 503.206 232.449 503.206L232.976 523.685Z" fill="#59979E"/>
<path d="M221.114 496.724L215.647 497.079C214.741 488.676 217.051 464.734 220.31 453.832L225.956 453.408C222.48 464.297 220.252 488.749 221.114 496.724Z" fill="#427B84"/>
<path d="M266.753 496.724L272.22 497.079C273.127 488.676 270.817 464.734 267.558 453.832L261.912 453.408C265.388 464.297 267.616 488.749 266.753 496.724Z" fill="#427B84"/>
<path d="M215.105 527.177C217.806 528.378 224.425 526.384 220.887 523.676C218.425 521.791 208.824 513.971 206.305 513.375C195.916 510.923 190.721 514.103 183.331 516.79C176.508 519.271 166.678 517.767 170.89 524.325C179.723 538.079 200.969 545.186 200.055 542.024C198.75 537.505 198.709 526.079 203.138 524.54C206.014 523.539 211.609 525.62 215.105 527.177Z" fill="#FFD5C7"/>
<path d="M179.536 516.867C186.126 519.717 193.728 523.107 195.371 520.512C197.014 517.918 191.127 504.224 204.706 506.765C208.222 507.423 211.463 509.921 215.112 512.09C238.158 525.784 248.489 544.32 241.695 555.046C234.901 565.772 213.569 564.629 190.524 550.933C176.181 542.409 168.843 533.387 166.983 525.203C165.854 520.238 171.088 513.214 179.536 516.867Z" fill="#822722"/>
<path d="M216.08 522.874C217.776 526.67 209.828 525.092 208.115 522.95C206.986 521.541 206.405 521.451 206.118 521.613C205.873 521.752 205.58 521.807 205.342 521.658C201.899 519.496 197.984 514.096 200.737 512.544C206.633 510.013 211.589 514.826 212.442 515.563C214.258 517.134 214.902 520.232 216.08 522.874Z" fill="#FFD5C7"/>
<path d="M230.317 541.774C227.912 539.668 226.917 536.871 228.094 535.526C229.271 534.182 232.176 534.799 234.581 536.905C236.986 539.012 237.981 541.809 236.804 543.154C235.626 544.498 232.722 543.881 230.317 541.774Z" fill="#FF5D31"/>
<path d="M219.789 522.702C218.556 523.998 219.485 526.779 221.869 528.916C224.252 531.053 227.173 531.733 228.405 530.441C229.636 529.149 228.708 526.363 226.325 524.227C223.941 522.09 221.019 521.404 219.789 522.702Z" fill="#FF5A5A"/>
<path d="M217.486 545.295C216.529 546.806 217.981 549.354 220.729 550.988C223.477 552.621 226.478 552.719 227.435 551.208C228.392 549.697 226.94 547.148 224.192 545.516C221.444 543.885 218.441 543.785 217.486 545.295Z" fill="#FCBC1D"/>
<path d="M200.693 545.295C199.736 546.806 201.188 549.354 203.936 550.988C206.684 552.621 209.685 552.719 210.642 551.208C211.599 549.697 210.147 547.148 207.399 545.516C204.651 543.885 201.649 543.785 200.693 545.295Z" fill="#8FEF94"/>
<path d="M184.199 535.494C183.242 537.005 184.694 539.553 187.442 541.185C190.19 542.817 193.192 542.917 194.148 541.407C195.105 539.897 193.653 537.347 190.905 535.714C188.157 534.081 185.156 533.982 184.199 535.494Z" fill="#89D8E5"/>
<path d="M176.947 522.581C175.99 524.092 177.442 526.641 180.19 528.274C182.938 529.907 185.939 530.006 186.896 528.494C187.853 526.983 186.4 524.435 183.653 522.81C180.907 521.185 177.909 521.071 176.947 522.581Z" fill="#CE8BF2"/>
<path d="M263.509 525.72C262.778 525.4 260.62 519.24 266.712 513.951C269.886 511.198 277.38 511.07 285.546 515.687C286.295 516.11 284.65 517.006 283.703 517.878C282.756 518.75 268.094 528.214 269.306 526.513C270.5 524.835 273.79 522.725 270.299 522.007C266.127 521.149 265.392 526.546 263.509 525.72Z" fill="#FFD5C7"/>
<path d="M265.805 522.467C266.763 524.004 276.546 519.434 275.588 517.892C274.63 516.35 272.588 516.505 270.13 517.444C267.346 518.514 264.85 520.933 265.805 522.467Z" fill="#C68C75"/>
<path d="M294.243 491.983C294.243 491.983 256.761 527.061 250.635 532.865C249.849 533.609 249.701 534.868 250.304 535.676C250.907 536.485 252.034 536.535 252.818 535.792C258.928 530.004 288.022 502.964 296.337 494.988C297.119 494.237 297.259 492.978 296.652 492.175C296.065 491.409 295.012 491.334 294.243 491.983Z" fill="#895959"/>
<path d="M253.435 530.215C251.236 532.173 247.111 536.441 244.452 539.049C244.112 539.384 243.833 540.296 244.351 541.181C244.868 542.066 246.181 541.773 246.526 541.446C249.264 538.85 251.275 537.407 255.384 533.378C256.851 531.941 254.473 529.29 253.435 530.215Z" fill="#B2A8A8"/>
<path d="M245.543 547.982C243.91 549.645 241.673 550.286 239.549 550.523C237.425 550.76 235.29 550.669 233.183 551.175C231.075 551.681 228.908 552.929 227.832 555.057C228.614 550.454 229.811 545.522 233.051 542.301C235.685 539.682 239.201 538.669 242.548 537.752C244.937 537.099 247.964 536.782 248.233 540.086C248.439 542.537 247.262 546.222 245.543 547.982Z" fill="#FFF8F3"/>
<path d="M256.968 521.037C256.843 522.423 259.25 523.772 262.344 524.049C265.439 524.327 268.048 523.43 268.168 522.043C268.287 520.657 265.884 519.306 262.789 519.029C259.695 518.752 257.085 519.65 256.968 521.037Z" fill="#FFD5C7"/>
<path d="M277.381 513.831C274.041 515.532 274.074 519.589 263.122 518.961C261.501 518.867 260.371 520.945 261.785 523.236C262.657 524.231 261.177 524.791 262.756 527.13C263.736 528.579 264.88 529.145 264.908 529.925C265.026 533.185 267.725 532.508 267.922 533.892C268.199 535.875 270.018 536.398 271.111 536.56C274.207 537.017 279.917 533.808 286.55 530.667C290.681 528.709 290.08 519.742 289.019 518.624C284.654 514.014 279.581 512.711 277.381 513.831Z" fill="#FFD5C7"/>
<path d="M361.09 564.427L509.918 574.697L522.012 562.966L543.162 354.685H383.273L372.211 362.59L361.09 564.427Z" fill="#DD9F62"/>
<path d="M350.029 565.981L509.918 574.697L532.1 362.59H372.211L350.029 565.981Z" fill="#FBC275"/>
<path d="M359.536 555.815L502.726 563.621L522.593 373.665H379.402L359.536 555.815Z" fill="white"/>
<path d="M455.076 482.409C455.388 482.51 455.659 482.709 455.849 482.976C460.407 489.445 462.92 497.85 463.128 507.277C463.322 516.151 461.506 524.855 459.705 532.206C458.76 536.049 457.662 540.134 456.032 544.011C455.706 544.776 454.792 545.185 454.045 544.819C453.676 544.661 453.384 544.364 453.232 543.992C453.081 543.62 453.083 543.203 453.237 542.832C454.783 539.152 455.842 535.206 456.757 531.478C458.512 524.329 460.281 515.865 460.093 507.342C459.906 498.519 457.58 490.704 453.371 484.727C453.187 484.467 453.09 484.156 453.093 483.837C453.097 483.519 453.2 483.21 453.388 482.953C453.577 482.697 453.842 482.506 454.145 482.409C454.447 482.311 454.774 482.311 455.076 482.409Z" fill="#768930"/>
<path d="M480.606 447.156C476.808 446.434 466.568 451.21 461.862 458.14C457.156 465.069 456.077 472.018 459.452 473.66C462.827 475.302 476.614 471.185 481.32 464.255C486.026 457.326 489.068 448.767 480.606 447.156Z" fill="#FFD226"/>
<path d="M447.33 438.63C443.885 440.164 442.144 447.967 443.864 455.823C445.583 463.679 450.089 469.564 453.916 468.961C457.743 468.358 463.524 459.117 461.799 451.263C460.075 443.408 455.007 435.213 447.33 438.63Z" fill="#FFD226"/>
<path d="M465.289 476.077C466.523 478.351 475.652 481.637 482.242 480.783C488.832 479.929 491.177 475.317 490.726 472.827C490.275 470.337 483.891 468.581 477.302 469.434C470.713 470.287 462.541 471.009 465.289 476.077Z" fill="#FFD226"/>
<path d="M457.433 476.652C455.704 479.58 459.362 486.317 465.788 491.305C472.215 496.292 479.558 498.366 482.188 495.938C484.818 493.51 481.701 486.561 475.275 481.574C468.848 476.587 461.286 470.129 457.433 476.652Z" fill="#FFD226"/>
<path d="M455.429 471.812C451.574 472.073 446.651 478.205 444.927 485.438C443.204 492.672 444.901 499.065 448.717 499.719C452.532 500.374 457.949 494.521 459.67 487.287C461.391 480.052 464.018 471.231 455.429 471.812Z" fill="#FFD226"/>
<path d="M424.317 478.624C425.875 481.619 434.336 483.539 442.975 482.538C451.614 481.537 458.189 478.079 457.661 474.815C457.132 471.551 448.826 469.144 440.191 470.144C431.556 471.144 420.847 471.948 424.317 478.624Z" fill="#FFD226"/>
<path d="M424.215 456.516C423.284 459.715 429.025 465.996 437.109 470.119C445.194 474.242 453.385 475.299 455.393 472.476C457.4 469.653 452.158 463.083 444.068 458.959C435.978 454.836 426.292 449.388 424.215 456.516Z" fill="#FFD226"/>
<path d="M448.17 469.054C445.562 472.719 445.967 478.52 450.904 481.038C455.842 483.556 461.959 482.624 464.567 478.958C467.175 475.292 465.377 469.312 460.439 466.796C455.502 464.279 450.778 465.39 448.17 469.054Z" fill="#D88E19"/>
<path d="M469.773 516.706C464.276 518.154 461.547 526.512 462.213 527.765C463.074 529.389 471.39 535.725 481.094 530.578C490.062 525.824 493.341 514.758 492.643 514.976C480.428 518.793 479.573 514.123 469.773 516.706Z" fill="#6AAF4A"/>
<path d="M437.727 531.265C444.976 533.106 452.409 528.475 452.781 527.014C453.014 526.094 452.053 518.196 444.804 516.354C437.556 514.513 430.246 518.926 426.918 518.85C426.179 518.825 430.48 529.422 437.727 531.265Z" fill="#6AAF4A"/>
<path d="M459.359 406.975C458.859 406.365 458.056 405.969 457.157 405.891C456.594 405.847 456.027 405.917 455.492 406.097C454.956 406.278 454.463 406.565 454.042 406.942C452.504 408.262 450.617 410.899 450.361 415.954C450.36 416.037 450.391 416.116 450.447 416.176C450.503 416.236 450.581 416.272 450.663 416.277C450.745 416.281 450.826 416.253 450.888 416.199C450.951 416.146 450.99 416.07 450.997 415.988C451.24 411.16 453.013 408.67 454.463 407.43C454.821 407.11 455.24 406.866 455.694 406.711C456.148 406.556 456.629 406.495 457.108 406.53C457.838 406.593 458.482 406.905 458.873 407.383C459.151 407.705 459.31 408.112 459.324 408.537C459.338 408.962 459.206 409.379 458.949 409.718C458.504 409.392 458.354 408.405 457.338 408.25C456.563 408.132 455.813 408.577 455.795 409.359C455.795 409.607 455.866 409.849 455.999 410.059C456.132 410.268 456.321 410.436 456.545 410.543L456.604 410.565C457.899 411.208 458.917 410.768 459.442 410.12C459.791 409.666 459.974 409.106 459.959 408.533C459.943 407.96 459.732 407.41 459.359 406.975Z" fill="#726565"/>
<path d="M455.43 399.128C454.67 398.573 453.628 398.354 452.564 398.532C451.243 398.748 450.089 399.502 449.277 400.675C447.89 402.661 446.504 406.268 447.71 412.183C447.731 412.281 447.79 412.366 447.874 412.421C447.957 412.475 448.059 412.495 448.157 412.475C448.255 412.455 448.341 412.397 448.397 412.314C448.452 412.232 448.473 412.13 448.455 412.032C447.295 406.381 448.601 402.974 449.899 401.111C450.592 400.116 451.592 399.458 452.687 399.282C453.55 399.143 454.386 399.305 454.982 399.741C455.399 400.03 455.704 400.453 455.847 400.94C455.989 401.427 455.961 401.948 455.765 402.417C455.154 402.174 454.687 401.076 453.465 401.201C452.534 401.295 451.802 402.033 452.014 402.942C452.089 403.228 452.243 403.487 452.458 403.689C452.674 403.892 452.942 404.029 453.232 404.086L453.309 404.093C454.997 404.449 456.041 403.638 456.455 402.733C456.723 402.106 456.768 401.405 456.582 400.749C456.395 400.092 455.988 399.52 455.43 399.128V399.128Z" fill="#726565"/>
<path d="M413.074 425.032C413.074 425.032 420.775 426.196 422.161 426.117C423.548 426.038 424.643 425.456 424.607 424.817C424.571 424.178 423.416 423.726 422.03 423.805C420.643 423.884 413.074 425.032 413.074 425.032Z" fill="#AD9F9F"/>
<path d="M420.089 424.158C420.38 429.891 428.837 437.371 439.638 437.371C450.439 437.371 457.14 430.873 457.27 423.576C457.436 414.27 451.438 409.782 439.638 410.945C428.89 412.01 419.836 419.17 420.089 424.158Z" fill="#FCD638"/>
<path d="M436.759 404.44C435.65 407.683 436.593 411.372 436.593 411.372C436.593 411.372 441.884 409.619 443.48 406.58C445.076 403.541 443.978 400.925 442.371 400.367C439.979 399.531 437.926 401.047 436.759 404.44Z" fill="#9DEAFC"/>
<path d="M426.94 410.106C431.494 412.553 437.101 412.15 437.101 412.15C437.101 412.15 435.548 404.086 431.388 401.001C427.229 397.916 423.168 398.813 422.039 400.976C420.355 404.202 422.179 407.547 426.94 410.106Z" fill="#9DEAFC"/>
<path d="M426.168 432.936C425.715 427.161 426.091 420.976 427.248 414.934C428.659 413.967 430.191 413.192 431.806 412.628C429.885 420.319 429.386 428.458 430.401 435.586C428.856 434.937 427.426 434.043 426.168 432.936V432.936Z" fill="#726565"/>
<path d="M439.645 437.371C438.801 437.366 437.958 437.308 437.121 437.197C434.947 429.883 435.092 418.492 437.555 411.269C438.238 411.139 438.942 411.023 439.645 410.939C440.89 410.786 442.146 410.736 443.399 410.788C443.329 410.97 443.242 411.145 443.14 411.311C439.883 416.591 439.627 431.508 442.505 437.118C441.561 437.283 440.604 437.368 439.645 437.371Z" fill="#726565"/>
<path d="M446.619 422.295C446.662 422.538 446.775 422.763 446.945 422.942C447.114 423.121 447.333 423.246 447.573 423.302C447.813 423.358 448.064 423.342 448.296 423.257C448.527 423.171 448.728 423.02 448.874 422.821C449.02 422.622 449.104 422.384 449.116 422.138C449.128 421.892 449.068 421.647 448.942 421.435C448.817 421.223 448.631 421.052 448.41 420.944C448.188 420.836 447.939 420.796 447.695 420.828C447.358 420.88 447.055 421.063 446.853 421.339C446.651 421.614 446.567 421.958 446.619 422.295Z" fill="#726565"/>
<path d="M451.393 421.715C451.436 421.958 451.549 422.183 451.719 422.362C451.888 422.54 452.107 422.666 452.347 422.722C452.587 422.777 452.838 422.762 453.069 422.676C453.3 422.59 453.501 422.439 453.647 422.24C453.793 422.041 453.877 421.804 453.89 421.558C453.902 421.312 453.842 421.067 453.716 420.855C453.591 420.643 453.406 420.472 453.184 420.364C452.963 420.256 452.714 420.215 452.47 420.247C452.133 420.299 451.83 420.483 451.628 420.758C451.426 421.034 451.341 421.378 451.393 421.715V421.715Z" fill="#726565"/>
<path d="M446.662 417.446C446.8 417.862 446.385 418.371 445.733 418.586C445.081 418.801 444.445 418.637 444.308 418.223C444.17 417.808 444.585 417.298 445.237 417.083C445.888 416.868 446.525 417.03 446.662 417.446Z" fill="#726565"/>
<path d="M452.057 416.655C452.021 417.09 452.542 417.486 453.224 417.547C453.906 417.608 454.489 417.302 454.526 416.867C454.563 416.431 454.041 416.035 453.359 415.972C452.676 415.91 452.094 416.219 452.057 416.655Z" fill="#726565"/>
<path d="M450.731 427.619C451.377 427.539 451.981 427.26 452.462 426.822C452.942 426.383 453.274 425.806 453.411 425.17C453.419 425.138 453.421 425.105 453.415 425.073C453.41 425.041 453.399 425.009 453.382 424.981C453.365 424.953 453.343 424.929 453.316 424.91C453.29 424.89 453.26 424.876 453.228 424.869C453.196 424.861 453.163 424.86 453.13 424.865C453.098 424.87 453.067 424.881 453.039 424.898C453.011 424.915 452.987 424.938 452.967 424.964C452.948 424.991 452.934 425.021 452.926 425.052C452.796 425.652 452.462 426.187 451.982 426.569C451.502 426.951 450.905 427.155 450.292 427.147C449.305 427.131 448.13 426.544 447.796 424.942C447.792 424.908 447.781 424.876 447.764 424.848C447.746 424.819 447.722 424.795 447.694 424.776C447.666 424.758 447.634 424.746 447.601 424.741C447.568 424.736 447.534 424.739 447.502 424.749C447.437 424.762 447.381 424.801 447.345 424.857C447.309 424.912 447.296 424.979 447.309 425.044C447.637 426.601 448.804 427.622 450.286 427.645C450.435 427.647 450.584 427.638 450.731 427.619Z" fill="#7C7B7B"/>
<path d="M442.77 425.338C442.838 425.864 443.706 426.184 444.711 426.052C445.716 425.92 446.468 425.391 446.4 424.865C446.332 424.34 445.464 424.021 444.459 424.151C443.454 424.282 442.701 424.814 442.77 425.338Z" fill="#FF8F8F"/>
<path d="M455.419 423.69C455.487 424.215 456.355 424.534 457.36 424.404C458.365 424.273 459.118 423.741 459.049 423.217C458.979 422.693 458.113 422.372 457.108 422.503C456.103 422.633 455.354 423.164 455.419 423.69Z" fill="#FF8F8F"/>
<path d="M517.815 586.117L518.277 575.398L337.776 565.56L337.315 576.28L517.815 586.117Z" fill="#D88D44"/>
<path d="M154.89 402.422C159.54 419.06 175.987 429.27 188.179 427.415C200.372 425.56 202.473 411.796 200.03 395.727C197.587 379.657 185.71 368.091 173.523 369.987C156.864 372.579 150.519 386.776 154.89 402.422Z" fill="#FBD3C7"/>
<path d="M169.657 405.778C170.731 412.824 176.637 417.769 182.853 416.824C189.068 415.878 193.233 409.399 192.16 402.353C191.087 395.307 185.181 390.363 178.969 391.307C172.758 392.251 168.586 398.731 169.657 405.778Z" fill="#E4A68D"/>
<path d="M336.147 400.162C331.914 416.915 315.727 427.527 303.49 425.977C291.253 424.427 288.813 410.726 290.853 394.593C292.894 378.459 304.481 366.609 316.713 368.201C333.431 370.378 340.127 384.419 336.147 400.162Z" fill="#FBD3C7"/>
<path d="M320.57 403.895C319.673 410.966 313.891 416.057 307.656 415.264C301.421 414.471 297.091 408.1 297.988 401.029C298.885 393.958 304.666 388.868 310.901 389.66C317.136 390.451 321.466 396.825 320.57 403.895Z" fill="#E4A68D"/>
<path d="M324.864 335.493C331.645 389.899 292.399 426.508 246.547 427.081C200.694 427.653 162.432 388.439 166.418 335.321C168.637 305.832 199.227 282.33 243.036 282.065C288.891 281.789 320.042 296.802 324.864 335.493Z" fill="#773220"/>
<path d="M310.699 324.558C314.964 333.699 313.226 414.819 303.999 426.235C294.21 438.348 253.986 450.328 245.502 450.434C236.415 450.547 196.742 440.75 188.893 427.67C179.604 412.19 174.664 340.11 177.456 331.488C186.901 302.372 212.118 301.074 245.117 300.662C275.986 300.277 299.638 300.838 310.699 324.558Z" fill="#FBD3C7"/>
<path d="M213.007 415.199C213.038 417.588 212.36 419.933 211.058 421.936C209.756 423.94 207.889 425.513 205.693 426.455C203.498 427.398 201.072 427.668 198.723 427.232C196.373 426.796 194.206 425.673 192.495 424.005C190.784 422.337 189.606 420.199 189.11 417.862C188.614 415.524 188.823 413.092 189.709 410.873C190.596 408.654 192.12 406.748 194.09 405.395C196.06 404.043 198.386 403.305 200.776 403.275C203.979 403.234 207.067 404.468 209.361 406.704C211.655 408.94 212.966 411.996 213.007 415.199V415.199Z" fill="#FFC0C0"/>
<path d="M302.285 412.441C302.316 414.83 301.637 417.175 300.336 419.179C299.034 421.182 297.167 422.755 294.971 423.698C292.775 424.64 290.349 424.91 288 424.474C285.651 424.038 283.483 422.915 281.772 421.247C280.062 419.578 278.884 417.44 278.388 415.103C277.892 412.765 278.101 410.333 278.987 408.114C279.874 405.895 281.399 403.989 283.369 402.637C285.339 401.285 287.666 400.547 290.055 400.517C293.258 400.477 296.346 401.71 298.639 403.946C300.933 406.182 302.244 409.238 302.285 412.441V412.441Z" fill="#FFC0C0"/>
<path d="M250.903 398.553C250.724 398.554 250.55 398.493 250.412 398.379C250.274 398.264 250.181 398.105 250.149 397.929C249.68 395.303 247.578 393.63 244.796 393.662C242.013 393.694 239.889 395.458 239.552 398.044C239.539 398.142 239.507 398.237 239.457 398.324C239.408 398.41 239.342 398.485 239.263 398.546C239.184 398.607 239.094 398.651 238.998 398.677C238.902 398.703 238.802 398.71 238.703 398.697C238.605 398.684 238.51 398.652 238.423 398.602C238.337 398.553 238.262 398.487 238.201 398.408C238.14 398.329 238.096 398.239 238.07 398.143C238.044 398.047 238.037 397.947 238.05 397.848C238.481 394.536 241.249 392.191 244.776 392.148C248.303 392.105 251.043 394.32 251.641 397.661C251.676 397.859 251.631 398.063 251.516 398.228C251.401 398.393 251.226 398.506 251.028 398.541L250.903 398.553Z" fill="#C68C75"/>
<path d="M297.414 351.804C296.887 351.785 296.385 351.57 296.006 351.202C290.971 346.35 281.123 344.675 273.079 347.32C272.809 347.416 272.523 347.456 272.238 347.439C271.953 347.423 271.674 347.349 271.417 347.223C271.161 347.097 270.932 346.922 270.744 346.706C270.556 346.49 270.414 346.239 270.324 345.968C270.235 345.697 270.201 345.41 270.224 345.125C270.246 344.84 270.326 344.563 270.458 344.309C270.589 344.055 270.77 343.83 270.99 343.647C271.209 343.465 271.463 343.327 271.737 343.244C281.334 340.087 292.799 342.135 298.985 348.112C299.297 348.414 299.51 348.803 299.597 349.228C299.683 349.654 299.638 350.096 299.467 350.495C299.297 350.894 299.01 351.232 298.643 351.465C298.277 351.698 297.848 351.813 297.414 351.797V351.804Z" fill="#773220"/>
<path d="M193.465 353.627C193.031 353.645 192.602 353.531 192.235 353.3C191.867 353.069 191.579 352.732 191.407 352.334C191.235 351.935 191.188 351.494 191.272 351.068C191.357 350.642 191.568 350.252 191.879 349.949C198.05 343.945 209.504 341.862 219.109 344.98C219.377 345.067 219.625 345.206 219.84 345.389C220.054 345.572 220.23 345.795 220.358 346.046C220.486 346.298 220.563 346.571 220.585 346.852C220.607 347.133 220.573 347.416 220.486 347.683C220.399 347.951 220.26 348.2 220.077 348.414C219.894 348.628 219.671 348.804 219.419 348.932C219.168 349.06 218.895 349.137 218.614 349.159C218.333 349.181 218.05 349.147 217.783 349.06C209.731 346.436 199.88 348.137 194.869 353.021C194.492 353.39 193.992 353.606 193.465 353.627V353.627Z" fill="#773220"/>
<path d="M189.979 307.626C201.835 300.96 224.156 297.117 244.241 296.505C266.075 295.84 288.658 298.197 300.837 305.619C308.893 310.528 319.329 348.657 315.432 345.613C310.969 342.131 303.924 339.111 295.479 336.695C294.346 332.493 288.269 322.103 287.094 320.736C287.571 322.954 288.445 330.807 288.868 334.992C278.33 332.555 266.308 330.986 254.594 330.51C254.746 326.047 252.418 320.302 252.4 319.998C251.073 321.364 248.479 327.671 247.366 330.354C245.603 330.354 243.86 330.379 242.137 330.43C226.348 330.911 214.693 332.252 205.423 334.312C205.659 320.526 205.638 316.22 205.748 317.157C204.119 320.117 202.143 328.59 202.114 335.105C198.904 335.924 195.743 336.928 192.649 338.112C192.267 334.117 191.227 327.656 191.088 326.56C189.874 327.334 187.734 336.25 187.011 340.55C182.217 342.849 177.968 345.479 173.594 348.397C168.812 351.585 180.412 313 189.979 307.626Z" fill="#773220"/>
<path d="M228.313 394.995C228.313 394.995 205.611 403.036 196.493 391.242C185.382 376.861 201.314 364.725 211.955 366.66C221.801 368.453 230.949 376.654 228.313 394.995Z" fill="#F9FEFF"/>
<path d="M194.176 372.514C198.257 367.035 203.918 365.166 210.133 365.597C216.489 366.03 223.046 370.321 225.005 374.899C221.435 369.786 215.502 368.059 211.821 367.391C205.959 366.318 198.406 369.173 195.138 374.544C192.227 379.322 192.712 386.329 196.79 391.613C192.059 388.087 189.924 378.224 194.176 372.514Z" fill="#773220"/>
<path d="M222.607 379.747C223.421 381.618 223.662 383.688 223.3 385.695C222.937 387.702 221.988 389.557 220.571 391.024C219.155 392.492 217.335 393.506 215.341 393.94C213.348 394.373 211.271 394.205 209.373 393.458C207.475 392.711 205.842 391.418 204.679 389.742C203.516 388.066 202.876 386.083 202.84 384.044C202.804 382.004 203.374 380 204.477 378.285C205.58 376.569 207.167 375.219 209.038 374.405C210.28 373.865 211.616 373.575 212.97 373.551C214.324 373.527 215.669 373.77 216.929 374.266C218.189 374.762 219.339 375.501 220.313 376.442C221.288 377.382 222.067 378.506 222.607 379.747Z" fill="#63190D"/>
<path d="M221.723 378.135C221.949 378.654 222.015 379.228 221.915 379.785C221.814 380.342 221.551 380.857 221.158 381.264C220.765 381.672 220.26 381.953 219.707 382.073C219.154 382.194 218.577 382.147 218.051 381.94C217.524 381.733 217.071 381.374 216.748 380.909C216.425 380.444 216.247 379.894 216.237 379.328C216.227 378.762 216.385 378.206 216.692 377.729C216.998 377.253 217.438 376.879 217.957 376.653C218.653 376.35 219.441 376.336 220.147 376.614C220.853 376.892 221.42 377.439 221.723 378.135V378.135Z" fill="#FEFFFE"/>
<path d="M262.955 393.999C262.955 393.999 286.119 400.599 294.475 388.245C304.656 373.194 287.99 362.086 277.493 364.69C267.781 367.1 259.165 375.857 262.955 393.999Z" fill="#F9FEFF"/>
<path d="M295.605 369.41C291.186 364.199 285.42 362.698 279.244 363.513C272.93 364.345 266.656 369.042 264.99 373.734C268.23 368.406 274.044 366.31 277.675 365.415C283.457 363.975 291.174 366.348 294.774 371.502C297.977 376.087 297.94 383.117 294.202 388.642C298.7 384.819 300.205 374.839 295.605 369.41Z" fill="#773220"/>
<path d="M286.341 377.952C287.154 379.822 287.395 381.891 287.032 383.898C286.669 385.905 285.72 387.759 284.303 389.227C282.887 390.694 281.067 391.708 279.075 392.141C277.082 392.574 275.005 392.407 273.108 391.66C271.21 390.912 269.577 389.62 268.414 387.944C267.251 386.269 266.611 384.286 266.575 382.247C266.539 380.208 267.109 378.204 268.211 376.489C269.314 374.773 270.901 373.424 272.771 372.61C274.013 372.07 275.349 371.779 276.703 371.755C278.057 371.731 279.402 371.974 280.662 372.47C281.922 372.966 283.072 373.706 284.047 374.646C285.021 375.587 285.8 376.71 286.341 377.952V377.952Z" fill="#63190D"/>
<path d="M285.457 376.339C285.683 376.858 285.749 377.432 285.649 377.989C285.548 378.546 285.285 379.06 284.892 379.467C284.499 379.874 283.994 380.155 283.441 380.275C282.888 380.395 282.312 380.349 281.786 380.142C281.26 379.934 280.807 379.576 280.484 379.111C280.162 378.646 279.984 378.096 279.974 377.531C279.964 376.965 280.122 376.409 280.428 375.933C280.734 375.457 281.174 375.083 281.693 374.857C282.037 374.707 282.408 374.627 282.783 374.62C283.159 374.614 283.532 374.681 283.882 374.819C284.231 374.956 284.551 375.161 284.821 375.422C285.091 375.683 285.307 375.995 285.457 376.339V376.339Z" fill="#FEFFFE"/>
<path d="M242.759 420.776C243.899 420.864 245.044 420.893 246.187 420.864C253.099 420.703 258.989 418.557 261.941 415.127C262.032 415.022 262.101 414.9 262.144 414.768C262.188 414.636 262.206 414.497 262.195 414.359C262.185 414.22 262.148 414.085 262.086 413.961C262.024 413.837 261.938 413.727 261.833 413.636C261.619 413.455 261.344 413.366 261.065 413.386C260.787 413.406 260.527 413.535 260.342 413.744C257.809 416.69 252.367 418.607 246.135 418.754C239.858 418.892 234.286 417.219 231.585 414.361C231.491 414.255 231.377 414.168 231.248 414.107C231.12 414.046 230.981 414.011 230.839 414.005C230.698 413.998 230.556 414.021 230.423 414.07C230.29 414.12 230.168 414.195 230.065 414.293C229.962 414.39 229.879 414.508 229.823 414.638C229.766 414.768 229.736 414.908 229.734 415.05C229.733 415.192 229.76 415.333 229.814 415.464C229.868 415.595 229.948 415.714 230.049 415.814C232.669 418.579 237.283 420.352 242.759 420.776Z" fill="#934341"/>
<path d="M207.521 276.116C207.352 258.518 217.504 246.611 235.781 256.653C214.706 265.111 209.346 289.334 208.911 287.471C208.8 286.995 208.734 286.534 208.633 286.061C208.547 286.412 208.461 286.762 208.348 287.106C207.469 289.752 199.018 278.32 173.515 282.435C187.484 259.863 202.752 265.745 207.521 276.116Z" fill="#FBB03B"/>
<path d="M179.898 307.338C196.69 286.434 223.572 275.734 251.803 278.718C278.086 281.497 301.73 295.511 316.667 317.174C300.653 299.517 273.89 290.993 251.828 289.085C226.998 286.933 196.783 291.849 179.898 307.338Z" fill="#FBB03B"/>
</svg>
