<svg width="806" height="980" viewBox="0 0 806 980" fill="none" xmlns="http://www.w3.org/2000/svg">
<path d="M345.986 459.392C346.292 458.79 346.43 458.118 346.386 457.445C346.341 456.771 346.116 456.123 345.733 455.567C345.564 455.417 345.426 455.234 345.328 455.03C345.257 454.787 345.257 454.528 345.328 454.285C345.481 453.553 345.455 452.795 345.254 452.075C345.052 451.355 344.681 450.693 344.17 450.147C343.66 449.6 343.025 449.184 342.321 448.933C341.616 448.683 340.861 448.605 340.12 448.707C339.955 447.907 340.58 447.151 340.657 446.329C340.663 446.039 340.604 445.751 340.483 445.487C340.362 445.223 340.184 444.99 339.96 444.804C339.737 444.619 339.474 444.486 339.193 444.416C338.911 444.346 338.617 444.341 338.333 444.4C338.206 443.406 337.809 442.466 337.184 441.682C336.56 440.898 335.733 440.3 334.792 439.953C333.852 439.606 332.834 439.524 331.85 439.715C330.866 439.906 329.953 440.363 329.21 441.036C328.794 441.398 328.421 442 328.706 442.472C328.758 442.553 328.83 442.621 328.914 442.669C328.417 442.926 327.943 443.226 327.5 443.567C326.218 444.53 325.005 445.581 323.871 446.713C322.817 447.654 321.998 448.828 321.48 450.143C321.232 450.802 321.173 451.517 321.308 452.208C321.444 452.899 321.769 453.538 322.248 454.055C323.269 454.796 324.506 455.181 325.767 455.151C325.331 455.812 325.043 456.559 324.923 457.342C324.871 457.728 324.942 458.121 325.125 458.465C325.307 458.809 325.594 459.087 325.943 459.26C326.073 459.29 326.196 459.346 326.305 459.424C326.557 459.644 326.447 460.071 326.228 460.334C326.009 460.597 325.713 460.805 325.625 461.134C325.428 461.813 326.206 462.339 326.853 462.613L329.945 463.928C329.755 464.115 329.613 464.344 329.531 464.598C329.449 464.851 329.429 465.12 329.473 465.382C329.517 465.645 329.624 465.893 329.784 466.105C329.945 466.317 330.154 466.488 330.394 466.602C330.139 467.037 329.975 467.519 329.911 468.018C329.848 468.518 329.887 469.026 330.025 469.51C330.163 469.995 330.399 470.446 330.716 470.837C331.034 471.229 331.428 471.551 331.875 471.786L331.71 471.303C332.228 471.874 332.903 472.278 333.651 472.465C334.816 472.802 336.015 473.015 337.225 473.101C338.189 473.199 339.162 473.102 340.087 472.816C342.28 472.06 343.508 469.813 344.001 467.599C344.288 466.696 344.221 465.717 343.815 464.86C343.616 464.547 343.323 464.306 342.978 464.17C342.634 464.034 342.255 464.011 341.896 464.104C343.755 463.042 345.197 461.381 345.986 459.392V459.392Z" fill="#59333D"/>
<path d="M333.673 437.562C331.986 439.006 330.085 440.178 328.037 441.036L327.565 446.186C333.651 444.181 335.833 440.499 335.833 440.499L333.673 437.562Z" fill="#D89830"/>
<path d="M340.076 300.921C340.229 316.537 357.07 329.161 377.826 329.161C398.581 329.161 415.423 316.537 415.576 300.921H340.076Z" fill="#822343"/>
<path d="M213.569 300.921C213.745 316.537 233.788 329.161 258.523 329.161C283.259 329.161 303.258 316.537 303.477 300.921H213.569Z" fill="#822343"/>
<path d="M344.352 451.688C340.986 451.216 337.313 461.747 336.129 475.215C334.945 488.683 336.732 499.982 340.087 500.42C343.442 500.858 347.137 490.371 348.31 476.903C349.483 463.435 347.718 452.17 344.352 451.688Z" fill="#E5DCC7"/>
<path d="M346.896 479.007C345.328 478.459 342.159 483.851 339.813 491.061C337.466 498.272 336.852 504.529 338.42 505.077C339.988 505.625 343.157 500.223 345.492 493.023C347.828 485.823 348.464 479.544 346.896 479.007Z" fill="#D8CDB6"/>
<path d="M170.491 538.972H166.094C163.539 538.972 161.467 541.042 161.467 543.596V545.328C161.467 547.882 163.539 549.952 166.094 549.952H170.491C173.046 549.952 175.118 547.882 175.118 545.328V543.596C175.118 541.042 173.046 538.972 170.491 538.972Z" fill="#D34052"/>
<path d="M194.985 292H201.695C203.076 292 204.401 292.549 205.378 293.525C206.354 294.501 206.903 295.825 206.903 297.206V303.496H189.777V297.206C189.777 295.825 190.326 294.501 191.302 293.525C192.279 292.549 193.604 292 194.985 292V292Z" fill="#F4BD51"/>
<path d="M231.957 292H238.667C240.048 292 241.373 292.549 242.35 293.525C243.326 294.501 243.875 295.825 243.875 297.205V303.496H226.705V297.205C226.705 296.518 226.841 295.838 227.105 295.203C227.37 294.569 227.757 293.993 228.246 293.509C228.734 293.025 229.313 292.643 229.95 292.384C230.587 292.125 231.269 291.994 231.957 292V292Z" fill="#F4BD51"/>
<path d="M403.307 292H410.017C411.399 292 412.723 292.549 413.7 293.525C414.677 294.501 415.225 295.825 415.225 297.206V303.496H398.099V297.206C398.099 295.825 398.648 294.501 399.625 293.525C400.601 292.549 401.926 292 403.307 292V292Z" fill="#F4BD51"/>
<path d="M449.05 292H455.761C457.142 292 458.466 292.549 459.443 293.525C460.42 294.501 460.969 295.825 460.969 297.206V303.496H443.853V297.206C443.853 295.827 444.4 294.505 445.375 293.529C446.349 292.553 447.671 292.003 449.05 292V292Z" fill="#F4BD51"/>
<path d="M498.653 400.906C499.335 400.392 499.817 399.658 500.017 398.828C500.217 397.999 500.122 397.125 499.749 396.358C499.425 395.561 498.857 394.887 498.127 394.432C497.396 393.977 496.54 393.765 495.682 393.826C496.082 393.046 496.21 392.154 496.045 391.292C495.881 390.43 495.432 389.648 494.772 389.07C494.142 388.542 493.349 388.245 492.527 388.231C491.704 388.217 490.902 388.487 490.254 388.994C489.903 387.624 488.347 387.032 487.053 386.944C485.732 386.856 484.407 387.035 483.158 387.472C481.908 387.909 480.761 388.594 479.783 389.487C479.443 389.729 479.184 390.067 479.037 390.457C478.891 390.848 478.864 391.273 478.961 391.679C478.759 391.398 478.471 391.191 478.14 391.09C477.809 390.989 477.454 390.999 477.13 391.12C475.943 391.388 474.847 391.962 473.95 392.785C473.698 393.015 473.523 393.618 473.852 393.673C472.669 394.264 471.629 395.106 470.804 396.139C469.904 397.299 469.471 398.752 469.587 400.215C469.619 400.935 469.861 401.631 470.284 402.215C470.707 402.799 471.291 403.247 471.966 403.503C471.675 403.552 471.416 403.715 471.245 403.955C471.074 404.196 471.006 404.494 471.056 404.785C471.105 405.075 471.268 405.335 471.509 405.505C471.749 405.676 472.048 405.744 472.339 405.694C471.629 406.694 471.092 407.805 470.749 408.982C470.38 410.286 470.481 411.679 471.034 412.916C471.234 413.428 471.597 413.86 472.066 414.147C472.535 414.434 473.085 414.56 473.632 414.505C473.548 414.58 473.481 414.673 473.438 414.778C473.394 414.882 473.375 414.995 473.38 415.108C473.408 415.477 473.563 415.826 473.819 416.094C474.915 417.376 476.494 417.42 477.952 417.53C478.755 417.501 479.55 417.69 480.255 418.075C480.959 418.461 481.546 419.03 481.954 419.721L495.221 413.223C495.451 414.012 496.405 413.957 497.008 413.705C498.51 413.059 500.1 412.346 500.901 410.801C501.521 409.282 501.722 407.624 501.482 406.001C501.442 404.949 501.224 403.911 500.835 402.933C500.648 402.452 500.355 402.02 499.977 401.668C499.599 401.317 499.146 401.056 498.653 400.906V400.906Z" fill="#6D3029"/>
<path d="M498.664 407.788C498.679 408.079 498.577 408.363 498.382 408.579C498.186 408.795 497.913 408.924 497.623 408.939C497.332 408.953 497.047 408.852 496.831 408.656C496.615 408.461 496.486 408.188 496.471 407.898C496.137 408.539 495.62 409.067 494.986 409.416C494.352 409.765 493.629 409.919 492.908 409.859C491.44 409.796 490.047 409.195 488.994 408.171C488.08 407.233 487.374 406.113 486.921 404.884C486.823 405.213 486.253 404.961 486.044 404.676C485.35 403.705 484.912 402.574 484.772 401.388C484.69 401.05 484.723 400.694 484.866 400.376C485.009 400.059 485.254 399.798 485.562 399.635C485.152 399.671 484.74 399.587 484.378 399.392C484.015 399.198 483.718 398.901 483.522 398.539C482.756 397.461 482.215 396.24 481.931 394.948C481.646 393.657 481.624 392.321 481.867 391.021C482.108 389.75 482.886 388.271 484.301 388.096C484.133 387.84 484.007 387.559 483.928 387.263C482.365 387.661 480.923 388.436 479.729 389.52C479.389 389.762 479.129 390.1 478.982 390.49C478.836 390.881 478.809 391.306 478.906 391.712C478.705 391.431 478.416 391.224 478.085 391.123C477.755 391.022 477.4 391.033 477.075 391.153C475.888 391.421 474.792 391.996 473.896 392.819C473.644 393.049 473.468 393.651 473.797 393.706C472.614 394.298 471.574 395.139 470.749 396.172C469.85 397.332 469.416 398.786 469.532 400.249C469.564 400.969 469.807 401.664 470.229 402.248C470.652 402.832 471.237 403.28 471.911 403.536C471.62 403.585 471.361 403.748 471.19 403.989C471.02 404.229 470.952 404.528 471.001 404.818C471.051 405.109 471.213 405.368 471.454 405.539C471.695 405.709 471.993 405.777 472.284 405.728C471.575 406.728 471.037 407.839 470.694 409.015C470.325 410.32 470.426 411.712 470.979 412.949C471.18 413.461 471.542 413.894 472.011 414.18C472.48 414.467 473.031 414.593 473.578 414.538C473.493 414.614 473.427 414.707 473.383 414.811C473.339 414.915 473.32 415.028 473.326 415.141C473.353 415.511 473.508 415.859 473.764 416.127C474.861 417.41 476.439 417.453 477.898 417.563C478.7 417.534 479.496 417.723 480.2 418.109C480.905 418.495 481.492 419.063 481.9 419.755L495.167 413.256C495.397 414.045 496.351 413.99 496.954 413.738C498.456 413.092 500.046 412.38 500.846 410.834C501.049 410.444 501.196 410.027 501.285 409.596C500.336 409.11 499.455 408.502 498.664 407.788Z" fill="#562420"/>
<path d="M492.831 456.805C495.144 499.292 513.729 518.589 519.584 521.735C525.439 524.88 524.233 503.522 519.584 492.212C513.564 477.67 509.519 444.269 505.33 442.537C501.142 440.806 492.338 447.787 492.831 456.805Z" fill="#EDB984"/>
<path d="M522.709 503.992C522.007 506.042 521.031 507.346 519.781 507.674C514.825 509 514.299 492.617 510.209 473.703C506.865 458.164 500.002 446.46 502.82 441.277C498.434 442.373 492.414 449.255 492.831 456.794C495.145 499.28 513.729 518.578 519.584 521.723C523.761 523.97 524.375 513.997 522.709 503.992Z" fill="#E79B69"/>
<path d="M514.507 486.689C522.391 495.927 541.008 539.75 541.918 541.986C542.828 544.221 541.512 546.248 538.223 545.273C534.934 544.298 512.029 519.707 510.527 505.483C508.948 490.535 514.507 486.689 514.507 486.689Z" fill="#EDB984"/>
<path d="M512.161 486.755C511.382 489.44 505.495 491.544 508.093 505.439C510.692 519.334 536.754 546.314 540.493 547.673C544.232 549.032 515.845 501.79 512.161 486.755Z" fill="#E79B69"/>
<path d="M543.629 548.1C543.76 546.741 542.982 542.621 541.491 538.5C540.91 536.9 536.491 532.923 534.912 533.492L531.184 539.081C531.546 546.84 531.886 548.363 533.103 548.944C535.471 550.16 543.475 549.744 543.629 548.1Z" fill="#E79B69"/>
<path d="M145.371 397.07C145.157 396.344 144.77 395.68 144.243 395.136C143.716 394.592 143.065 394.184 142.345 393.947C142.56 393.76 142.731 393.527 142.846 393.266C142.96 393.005 143.015 392.721 143.007 392.436C142.998 392.151 142.927 391.871 142.797 391.617C142.668 391.363 142.483 391.141 142.257 390.967C141.779 390.648 141.237 390.438 140.668 390.351C140.1 390.264 139.52 390.302 138.968 390.462C139.106 389.818 138.986 389.145 138.634 388.588C138.281 388.03 137.724 387.633 137.082 387.482C135.777 387.235 134.426 387.444 133.256 388.073C132.182 387.739 131.049 387.632 129.931 387.76C128.814 387.888 127.735 388.249 126.765 388.819C126.564 388.917 126.404 389.084 126.315 389.29C126.249 389.498 126.403 389.783 126.622 389.75C125.098 390.179 123.699 390.968 122.543 392.051C121.447 393.038 120.658 394.714 121.557 395.832C121.261 395.744 117.84 396.533 119.364 398.199C119.012 398.116 118.642 398.153 118.313 398.303C117.984 398.454 117.715 398.711 117.549 399.032C117.383 399.353 117.329 399.72 117.395 400.076C117.462 400.431 117.645 400.754 117.917 400.994C117.39 402.714 117.917 404.982 119.605 405.552C119.07 406.412 118.698 407.363 118.509 408.358C118.417 408.854 118.461 409.366 118.634 409.84C118.808 410.314 119.105 410.733 119.495 411.053C119.745 411.182 119.965 411.361 120.142 411.579C120.265 411.843 120.296 412.14 120.23 412.423C120.072 413.199 120.193 414.006 120.57 414.703C121.03 415.349 122.16 415.525 122.554 414.845C122.598 415.236 122.664 415.624 122.752 416.007C123.456 416.053 124.152 415.834 124.703 415.393C125.107 417.987 126.338 420.381 128.212 422.22L140.185 404.172C141.089 404.134 141.946 403.758 142.585 403.119C143.225 402.479 143.601 401.623 143.639 400.72C144.306 400.406 144.844 399.871 145.16 399.205C145.476 398.54 145.55 397.785 145.371 397.07V397.07Z" fill="#8E4438"/>
<path d="M136.172 406.188C134.67 407.174 132.565 406.188 131.545 404.698C130.602 405.147 130.339 402.276 131.984 400.775C129.791 400.928 131.227 397.75 131.48 397.564C130.054 397.564 129.287 395.887 129.122 394.463C128.958 393.038 127.478 392.359 128.026 390.901C127.992 390.942 127.949 390.976 127.901 390.998C127.853 391.021 127.8 391.033 127.746 391.033C127.693 391.033 127.64 391.021 127.592 390.998C127.543 390.976 127.501 390.942 127.467 390.901C127.417 390.785 127.391 390.66 127.391 390.534C127.391 390.408 127.417 390.283 127.467 390.167C127.547 389.515 127.716 388.877 127.971 388.271C127.551 388.42 127.144 388.603 126.754 388.819C126.553 388.918 126.394 389.085 126.304 389.29C126.239 389.498 126.392 389.772 126.611 389.75C125.087 390.179 123.688 390.969 122.533 392.052C121.436 393.038 120.647 394.715 121.546 395.832C121.25 395.745 117.829 396.534 119.353 398.199C119.001 398.116 118.631 398.153 118.302 398.304C117.974 398.455 117.705 398.711 117.538 399.032C117.372 399.353 117.318 399.721 117.384 400.076C117.451 400.432 117.635 400.755 117.906 400.994C117.38 402.714 117.906 404.983 119.594 405.553C119.059 406.412 118.688 407.363 118.498 408.358C118.407 408.854 118.45 409.366 118.624 409.84C118.797 410.314 119.094 410.733 119.485 411.054C119.734 411.183 119.954 411.362 120.132 411.58C120.254 411.843 120.285 412.14 120.219 412.424C120.062 413.2 120.182 414.006 120.559 414.703C121.02 415.349 122.149 415.525 122.544 414.845C122.587 415.236 122.653 415.624 122.741 416.007C123.445 416.053 124.142 415.834 124.693 415.393C125.097 417.987 126.327 420.381 128.201 422.22L137.335 408.358C136.862 407.683 136.472 406.955 136.172 406.188V406.188Z" fill="#77362F"/>
<path d="M140.865 456.564C143.189 498.382 161.774 517.384 167.618 520.474C173.462 523.564 172.267 502.546 167.618 491.412C161.599 477.1 157.498 443.041 153.255 441.343C149.011 439.644 140.372 447.688 140.865 456.564Z" fill="#EDB984"/>
<path d="M170.754 503.039C170.052 505.055 169.065 506.326 167.826 506.666C162.87 507.97 162.344 491.839 158.243 473.221C154.954 457.879 148.047 446.405 150.864 441.31C146.479 442.405 140.459 449.156 140.865 456.586C143.189 498.403 161.774 517.405 167.618 520.496C171.806 522.676 172.42 512.901 170.754 503.039Z" fill="#E79B69"/>
<path d="M162.553 485.977C170.447 495.072 189.053 538.216 189.963 540.407C190.873 542.599 189.547 544.605 186.268 543.695C182.99 542.785 160.075 518.49 158.573 504.54C156.994 489.768 162.553 485.977 162.553 485.977Z" fill="#EDB984"/>
<path d="M160.195 486.042C159.428 488.683 153.529 490.755 156.138 504.442C158.748 518.129 184.799 544.681 188.538 546.007C192.277 547.333 163.879 500.847 160.195 486.042Z" fill="#E79B69"/>
<path d="M192.375 547.311C192.507 545.974 191.027 541.021 189.536 536.977C189.412 536.612 189.216 536.276 188.959 535.989C188.702 535.701 188.389 535.469 188.039 535.306C187.69 535.144 187.311 535.053 186.925 535.041C186.54 535.029 186.156 535.095 185.797 535.235L179.218 537.558C179.58 545.229 180.622 547.574 181.839 548.177C184.207 549.372 192.211 548.933 192.375 547.311Z" fill="#E79B69"/>
<path d="M197.726 540.079C197.43 539.651 194.294 539.136 190.533 536.452C190.271 536.279 189.967 536.178 189.654 536.159C189.34 536.139 189.027 536.202 188.745 536.34C188.462 536.478 188.221 536.687 188.045 536.947C187.868 537.207 187.762 537.508 187.737 537.821L187.683 540.671C188.998 541.876 195.796 543.509 196.893 543.06C197.149 542.925 197.376 542.739 197.558 542.514C197.741 542.288 197.875 542.028 197.953 541.749C198.031 541.47 198.051 541.178 198.012 540.89C197.973 540.603 197.876 540.327 197.726 540.079Z" fill="#E79B69"/>
<path d="M154.318 443.063C148.255 434.658 133.651 427.721 133.651 427.721C133.651 427.721 122.083 432.269 117.972 437.967L159.636 477.308C159.636 477.308 158.77 449.233 154.318 443.063Z" fill="#EDB984"/>
<path d="M150.097 438.472C145.082 434.233 139.557 430.636 133.651 427.765C133.651 427.765 122.083 432.313 117.972 438.011L121.678 441.507C123.87 441.671 126.063 441.77 128.355 441.77C137.225 441.77 145.075 440.477 150.097 438.472Z" fill="#E79B69"/>
<path d="M339.67 422.253C339.439 421.35 338.982 420.521 338.341 419.844C337.7 419.167 336.897 418.665 336.008 418.385C336.623 417.37 336.98 416.22 337.046 415.035C337.113 413.851 336.889 412.668 336.392 411.591C335.82 410.461 335.016 409.466 334.031 408.671C333.046 407.876 331.904 407.298 330.679 406.977C328.245 406.298 325.614 406.539 323.07 406.309C320.526 406.078 317.961 405.487 315.845 406.593C315.187 406.944 314.639 407.437 313.97 407.788C312.773 408.26 311.526 408.591 310.253 408.774C309.367 408.939 308.522 409.279 307.769 409.774C307.016 410.268 306.37 410.908 305.867 411.656C305.443 412.374 305.308 413.227 305.49 414.04C305.671 414.854 306.154 415.569 306.843 416.04C306.16 416.151 305.53 416.474 305.042 416.964C304.554 417.454 304.232 418.085 304.124 418.768C304.034 420.086 304.394 421.395 305.143 422.483C305.469 423.17 305.955 423.769 306.559 424.231C307.164 424.692 307.87 425.002 308.619 425.135L315.735 441.343C316.031 443.008 317.818 444.258 319.715 444.63C321.634 444.869 323.581 444.644 325.395 443.973C325.931 443.836 326.432 443.586 326.864 443.239C327.056 443.075 327.185 442.851 327.231 442.604C327.277 442.356 327.236 442.101 327.116 441.88C328.828 441.878 330.472 441.21 331.699 440.017C332.811 438.884 333.736 437.582 334.44 436.159C335.164 434.877 335.833 433.255 334.868 432.105C334.681 431.897 334.44 431.688 334.418 431.425C334.418 430.954 335.021 430.691 335.515 430.527C336.351 430.305 337.109 429.858 337.708 429.234C337.977 428.936 338.133 428.553 338.147 428.152C338.161 427.751 338.033 427.357 337.784 427.042C338.511 426.496 339.072 425.76 339.405 424.914C339.738 424.069 339.83 423.148 339.67 422.253Z" fill="#683E47"/>
<path d="M339.67 422.253C339.439 421.35 338.982 420.521 338.341 419.844C337.7 419.167 336.897 418.665 336.008 418.385C336.623 417.37 336.98 416.22 337.046 415.035C337.113 413.851 336.889 412.668 336.392 411.59C335.417 409.642 333.752 408.127 331.721 407.338C332.017 409.157 331.458 411.13 331.151 412.993C330.745 415.404 330.822 417.957 329.956 420.215C329.543 421.376 328.863 422.424 327.97 423.273C327.076 424.123 325.996 424.75 324.815 425.105C323.634 425.459 322.386 425.53 321.172 425.313C319.959 425.095 318.813 424.595 317.829 423.853C317.453 424.684 316.863 425.401 316.12 425.93C315.376 426.46 314.506 426.783 313.597 426.866C312.663 426.91 311.734 426.72 310.893 426.312C310.052 425.904 309.327 425.292 308.784 424.532C308.421 424.74 307.998 424.817 307.585 424.752C307.172 424.686 306.794 424.481 306.514 424.171C305.913 423.524 305.503 422.724 305.33 421.858C305.187 421.354 304.957 420.763 304.475 420.686C304.435 420.681 304.394 420.681 304.354 420.686C304.562 421.318 304.841 421.925 305.187 422.494C305.513 423.181 305.999 423.78 306.603 424.242C307.208 424.703 307.914 425.013 308.663 425.146L315.779 441.354C316.075 443.019 317.862 444.269 319.759 444.641C321.677 444.88 323.625 444.655 325.438 443.984C325.975 443.847 326.476 443.597 326.908 443.249C327.099 443.086 327.229 442.862 327.275 442.615C327.321 442.367 327.28 442.112 327.16 441.891C328.872 441.889 330.516 441.221 331.743 440.028C332.855 438.895 333.78 437.593 334.484 436.17C335.208 434.888 335.876 433.266 334.912 432.116C334.725 431.907 334.484 431.699 334.462 431.436C334.462 430.965 335.065 430.702 335.559 430.538C336.395 430.316 337.153 429.869 337.751 429.244C338.021 428.947 338.177 428.564 338.191 428.163C338.205 427.761 338.077 427.368 337.828 427.053C338.549 426.501 339.103 425.76 339.428 424.913C339.753 424.066 339.837 423.145 339.67 422.253V422.253Z" fill="#59333D"/>
<path d="M298.653 495.269C304.935 486.327 323.213 471.27 325.735 471.687C328.256 472.103 309.595 504.628 305.483 505.011C301.372 505.395 295.013 500.453 298.653 495.269Z" fill="#E79B69"/>
<path d="M314.957 451.994C306.547 459.271 294.037 499.412 295.155 502.206C296.273 505 303.466 505.099 305.155 501.932C306.843 498.765 321.119 464.311 321.119 464.311L314.957 451.994Z" fill="#E79B69"/>
<path d="M323.158 446.395C319.244 446.767 308.97 456.104 308.225 458.153C304.449 466.378 302.841 475.432 303.554 484.453L332.313 483.149L342.4 453.463C342.4 453.463 327.083 446.055 323.158 446.395Z" fill="#EDB984"/>
<path d="M323.158 446.394C319.595 446.734 310.768 454.493 308.663 457.43C312.369 459.621 319.913 460.169 328.235 458.449C333.064 457.545 337.691 455.782 341.896 453.243C339.287 451.994 326.678 446.055 323.158 446.394Z" fill="#E79B69"/>
<path d="M355.525 535.805C352.444 518.447 340.953 499.642 340.953 499.642L342.368 477.013C342.368 477.013 347.411 453.77 344.889 451.249C342.368 448.729 308.378 468.334 303.335 478.131C298.291 487.928 303.335 488.212 303.335 488.212C303.335 488.212 311.547 503.883 300.341 516.77L355.525 535.805Z" fill="#EFE7D5"/>
<path d="M355.525 535.805C352.444 518.447 340.953 499.642 340.953 499.642L342.368 477.012C342.368 477.012 347.411 453.769 344.889 451.249C344.648 451.008 344.122 450.975 343.365 451.107C339.962 458.292 335.273 464.796 329.528 470.295C320.274 479.336 309.793 484.968 301.24 486.294C301.348 486.791 301.607 487.243 301.982 487.586C302.357 487.93 302.83 488.149 303.335 488.212C303.335 488.212 311.547 503.883 300.341 516.77L355.525 535.805Z" fill="#E5DCC7"/>
<path d="M303.992 489.495C305.923 488.291 307.918 487.194 309.968 486.207C307.619 486.988 305.219 487.611 302.786 488.07C302.986 488.153 303.196 488.209 303.411 488.234C303.411 488.234 303.609 488.673 303.992 489.495Z" fill="#D8CDB6"/>
<path d="M344.166 477.835C343.931 473.394 344.104 468.941 344.681 464.531C336.999 471.811 328.261 477.888 318.761 482.558C327.533 479.709 334.66 479.501 335.91 482.383C337.434 485.9 329.55 492.716 318.301 497.582C314.427 499.292 310.385 500.592 306.24 501.461C306.174 507.091 304.084 512.509 300.352 516.727L303.28 517.735C305.867 508.124 313.948 501.1 323.542 501.1C335.208 501.1 344.681 511.499 344.681 524.332C344.674 526.809 344.305 529.271 343.585 531.641L355.525 535.805C352.444 518.447 340.953 499.642 340.953 499.642L344.166 477.835Z" fill="#D8CDB6"/>
<path d="M343.99 471.259C345.481 463.15 344.933 456.345 342.773 456.06C340.613 455.775 337.653 462.12 336.194 470.229C334.736 478.339 335.251 485.155 337.411 485.44C339.571 485.725 342.499 479.38 343.99 471.259Z" fill="#D27558"/>
<path d="M344.56 454.077C340.175 456.718 337.762 460.652 339.308 473.966C341.501 482.733 382.069 544.616 382.069 544.616L385.282 544.342C385.282 544.342 354.713 471.599 344.56 454.077Z" fill="#EDB984"/>
<path d="M377.508 526.128C371.127 521.142 359.866 504.617 349.143 483.872C345.273 476.377 341.885 469.133 339.122 462.558C338.693 466.353 338.755 470.187 339.308 473.966C341.501 482.733 382.069 544.615 382.069 544.615L385.282 544.341C385.282 544.341 382.113 536.857 377.508 526.128Z" fill="#E79B69"/>
<path d="M230.126 528.178H240.147V544.703H223.92V534.38C223.92 533.566 224.08 532.759 224.392 532.007C224.704 531.254 225.161 530.57 225.738 529.994C226.314 529.418 226.998 528.962 227.751 528.65C228.504 528.338 229.311 528.178 230.126 528.178V528.178Z" fill="#EA943D"/>
<path d="M240.893 528.178H243.173C244.819 528.178 246.398 528.831 247.561 529.994C248.725 531.158 249.379 532.735 249.379 534.38V544.703H240.893V528.178V528.178Z" fill="#F4BD51"/>
<path d="M239.062 306.98H231.08V535.366H239.062V306.98Z" fill="#EA943D"/>
<path d="M241.759 306.98H237.461V535.366H241.759V306.98Z" fill="#F4BD51"/>
<path d="M241.748 314.202H235.882V365.817H241.748V314.202Z" fill="#EA943D"/>
<path d="M310.746 565.502C286.625 562.149 248.831 551.256 245.476 545.35C242.121 539.443 256.44 519.049 263.676 515.389C270.913 511.729 292.809 514.83 292.809 514.83C294.426 512.599 296.526 510.761 298.952 509.452C301.377 508.143 304.067 507.397 306.821 507.269C316.064 506.984 340.153 519.586 351.358 527.991C358.377 533.383 364.441 539.913 369.296 547.311L310.746 565.502Z" fill="#EFE7D5"/>
<path d="M354.428 530.435C350.042 537.909 332.763 537.109 315.351 528.463C306.35 524.003 299.047 518.304 294.519 512.737C293.876 513.373 293.289 514.062 292.765 514.797C292.765 514.797 286.109 513.855 278.928 513.625C302.852 522.512 320.472 535.169 318.334 541.964C316.195 548.758 294.914 547.136 270.803 538.249C263.897 535.73 257.184 532.712 250.717 529.219C246.561 535.608 243.721 542.369 245.432 545.317C248.787 551.191 286.548 562.116 310.702 565.47L369.252 547.278C365.124 540.998 360.134 535.328 354.428 530.435Z" fill="#E5DCC7"/>
<path d="M454.127 306.98H446.145V535.366H454.127V306.98Z" fill="#EA943D"/>
<path d="M456.879 306.98H453.798V535.366H456.879V306.98Z" fill="#F4BD51"/>
<path d="M555.909 541.865H158.298V547.07H555.909V541.865Z" fill="#EA943D"/>
<path d="M555.558 541.865H542.532V547.07H555.558V541.865Z" fill="#F4BD51"/>
<path d="M461.287 528.178H438.985V544.703H461.287V528.178Z" fill="#EA943D"/>
<path d="M461.813 528.178H450.585V544.703H461.813V528.178Z" fill="#F4BD51"/>
<path d="M429.951 297.874C432.363 315.112 442.143 329.051 451.879 329.051C461.616 329.051 467.602 315.112 465.344 297.874H429.951Z" fill="#BA3158"/>
<path d="M190.391 542.731C226.376 563.969 293.149 573.502 311.36 573.064C329.572 572.626 420.214 545.777 420.214 545.777L190.391 542.731Z" fill="#A02A4C"/>
<path d="M232.308 559.727C264.51 569.086 299.047 573.36 311.36 573.064C314.847 572.987 320.998 571.968 328.651 570.28C318.443 564.648 304.837 559.859 289.541 557.021C265.935 552.648 244.412 554.029 232.308 559.727Z" fill="#B22D59"/>
<path d="M194.108 527.126H204.886C206.791 527.126 208.617 527.882 209.964 529.228C211.311 530.574 212.067 532.4 212.067 534.304V545.755H186.915V534.304C186.915 533.36 187.101 532.426 187.463 531.554C187.825 530.683 188.355 529.891 189.023 529.224C189.691 528.558 190.484 528.029 191.356 527.669C192.229 527.309 193.164 527.125 194.108 527.126V527.126Z" fill="#F4BD51"/>
<path d="M452.493 533.964H415.423V543.596H452.493V533.964Z" fill="#F4BD51"/>
<path d="M411.092 533.964H201.662V543.596H411.092V533.964Z" fill="#F4BD51"/>
<path d="M204.129 306.98H192.551V535.366H204.129V306.98Z" fill="#F4BD51"/>
<path d="M421.936 527.126H396.783V545.766H421.936V527.126Z" fill="#F4BD51"/>
<path d="M413.998 306.98H402.419V535.366H413.998V306.98Z" fill="#F4BD51"/>
<path d="M204.129 315.802H192.551V359.11H204.129V315.802Z" fill="#EA943D"/>
<path d="M180.994 297.874C180.056 297.88 179.129 298.084 178.275 298.472C177.42 298.861 176.658 299.425 176.037 300.128C175.416 300.832 174.95 301.658 174.671 302.554C174.392 303.45 174.305 304.394 174.416 305.326C178.451 336.667 208.318 335.166 218.273 333.204C231.759 330.53 266.1 309.249 266.1 309.249C266.1 309.249 285.759 328.974 336.381 328.974C359.154 328.974 383.199 305.249 383.199 305.249C383.199 305.249 398.285 330.563 417.309 330.563C436.332 330.563 437.976 297.874 437.976 297.874H180.994Z" fill="#D34052"/>
<path d="M296.098 496.464C302.951 487.357 322.906 471.259 325.516 471.555C328.125 471.851 306.185 505.746 302.085 506.129C297.984 506.513 292.195 501.647 296.098 496.464Z" fill="#EDB984"/>
<path d="M325.647 471.665C320.318 479.95 303.247 499.96 299.958 499.905C298.2 499.774 296.554 498.993 295.342 497.713C293.149 502.382 298.357 506.48 302.085 506.097C306.087 505.757 327.116 473.451 325.647 471.665Z" fill="#E79B69"/>
<path d="M318.75 448.444C320.647 442.965 319.989 430.812 319.989 430.812L328.388 427.59L330.307 448.247C327.401 451.271 319.255 453.452 318.75 448.444Z" fill="#D27558"/>
<path d="M315.253 448.773C326.327 444.323 328.169 433.431 328.41 429.497C328.651 425.563 325.066 415.251 316.656 415.755C309.595 416.204 307.885 424.247 308.159 428.993C309.014 442 315.253 448.773 315.253 448.773Z" fill="#EDB984"/>
<path d="M331.403 417.311C331.206 416.738 330.888 416.215 330.471 415.776C329.242 414.379 327.681 413.313 325.932 412.675L316.799 412.259C316.048 413.171 315.424 414.181 314.946 415.261C314.716 415.779 314.597 416.339 314.597 416.905C314.597 417.471 314.716 418.031 314.946 418.549C315.068 418.785 315.236 418.995 315.441 419.164C315.646 419.334 315.883 419.46 316.138 419.536C316.393 419.612 316.661 419.635 316.925 419.605C317.189 419.575 317.445 419.491 317.676 419.36C317.226 419.828 316.911 420.41 316.767 421.043C316.622 421.676 316.652 422.337 316.854 422.954C316.978 423.225 317.166 423.463 317.401 423.646C317.636 423.829 317.912 423.954 318.205 424.009C318.499 424.063 318.801 424.047 319.086 423.961C319.372 423.875 319.633 423.721 319.847 423.513C319.726 424.045 319.753 424.6 319.925 425.117C320.097 425.635 320.408 426.096 320.823 426.45C321.253 426.761 321.765 426.939 322.296 426.96C322.826 426.982 323.351 426.846 323.805 426.571C323.579 427.033 323.479 427.548 323.516 428.062C323.552 428.575 323.724 429.07 324.013 429.496C324.308 429.883 324.714 430.168 325.178 430.313C325.641 430.459 326.139 430.457 326.601 430.307C326.515 430.503 326.477 430.715 326.489 430.928C326.501 431.141 326.562 431.348 326.669 431.533C326.776 431.717 326.925 431.874 327.103 431.991C327.282 432.107 327.485 432.18 327.697 432.203C328.142 432.186 328.574 432.049 328.947 431.806C329.319 431.563 329.619 431.223 329.813 430.822C330.227 430 330.487 429.108 330.581 428.192C331.06 425.179 331.382 422.143 331.546 419.097C331.594 418.498 331.546 417.895 331.403 417.311V417.311Z" fill="#683E47"/>
<path d="M138.738 600.405C138.738 600.405 128.114 532.627 130.756 525.69C133.398 518.753 157.761 514.567 160.963 524.298C164.164 534.029 148.299 632.031 142.817 669.608L140.843 670.298C140.843 670.298 134.944 626.519 136.326 618.169C137.707 609.818 138.738 600.405 138.738 600.405Z" fill="#EDB984"/>
<path d="M142.751 629.062C142.751 615.177 144.658 603.046 147.509 596.449C146.029 589.535 146.084 579.003 148.003 567.267C150.656 550.983 156.094 537.317 161.335 532.561C161.522 528.463 161.434 525.581 161.006 524.277C157.805 514.546 133.475 518.721 130.8 525.668C128.124 532.616 138.738 600.383 138.738 600.383C138.738 600.383 137.641 609.764 136.293 618.103C134.944 626.443 140.81 670.233 140.81 670.233L142.816 669.608C143.463 665.225 144.275 659.877 145.163 654.003C143.482 645.798 142.673 637.437 142.751 629.062V629.062Z" fill="#E79B69"/>
<path d="M132.686 601.665C132.686 601.665 148.485 535.125 146.117 528.298C143.749 521.471 123.585 517.033 119.539 526.589C117.237 532.013 116.875 573.25 122.006 597.819C117.456 622.947 124.199 653.126 123.761 669.531L125.811 670.211C125.811 670.211 134.988 627.221 134.089 619.024C133.19 610.827 132.686 601.665 132.686 601.665Z" fill="#EDB984"/>
<path d="M124.956 619.429C125.543 610.968 126.96 602.584 129.188 594.4C127.379 588.537 126.25 580.066 126.25 570.631C126.25 552.944 141.337 545.087 142.872 554.697C145.317 541.92 147.005 530.862 146.161 528.298C143.782 521.471 123.629 517.033 119.583 526.589C117.281 532.013 116.919 573.25 122.05 597.819C117.5 622.947 124.243 653.126 123.805 669.531L125.855 670.211C125.855 670.211 127.489 662.54 129.309 653.126C129.071 653.268 128.796 653.337 128.519 653.324C125.011 653.094 123.432 637.905 124.956 619.429Z" fill="#E79B69"/>
<path d="M158.737 496.76L120.362 501.691L119.923 514.48L158.408 503.423L158.737 496.76Z" fill="#7C5557"/>
<path d="M158.408 502.129C169.142 525.537 158.408 618.815 158.408 618.815L112.226 620.12C112.226 620.12 111.251 530.085 117.763 516.112C124.276 502.14 158.408 502.129 158.408 502.129Z" fill="#E5DCC7"/>
<path d="M152.06 546.325C149.801 545.843 147.345 571.431 146.577 603.474C146.446 608.953 146.38 614.158 146.358 619.155L154.351 618.925C154.527 614.542 154.68 609.928 154.79 605.183C155.568 573.173 154.329 546.796 152.06 546.325Z" fill="#D8CDB6"/>
<path d="M127.467 576.296C127.467 538.632 139.527 509.943 149.22 509.943C157.991 509.943 161.96 533.197 162.662 565.305C163.759 540.101 163.55 513.252 158.452 502.129C158.452 502.129 124.309 502.129 117.807 516.112C111.305 530.095 112.27 620.12 112.27 620.12L131.48 619.572C128.677 605.32 127.333 590.82 127.467 576.296V576.296Z" fill="#D8CDB6"/>
<path d="M139.889 431.151L136.238 415.13L127.401 415.568C127.961 420.673 127.873 425.828 127.138 430.91C132.192 434.483 136.929 436.762 139.889 431.151Z" fill="#D27558"/>
<path d="M120.745 505.647C113.377 504.748 117.029 483.927 117.029 483.927C117.029 483.927 112.643 473.856 111.831 457.879C110.932 440.038 112.149 433.452 124.265 430.143C129.451 428.718 151.117 446.175 156.884 459.413C162.136 471.467 164.022 488.289 163.462 492.069C162.903 495.85 159.614 499.587 157.136 499.74C143.99 500.628 121.984 505.8 120.745 505.647Z" fill="#EFE7D5"/>
<path d="M126.151 442.844C131.489 442.89 136.805 442.152 141.929 440.652C134.626 434.077 127.061 429.365 124.265 430.132C117.061 432.105 113.728 435.25 112.38 441.211C116.886 442.318 121.511 442.866 126.151 442.844V442.844Z" fill="#E5DCC7"/>
<path d="M156.884 459.413C156.61 458.789 156.292 458.164 155.963 457.528C158.156 469.506 157.059 478.722 152.334 480.541C145.602 483.105 139.867 467.051 132.499 447.666C129.934 440.915 122.511 436.795 121.623 431.009C111.996 434.581 111.009 441.452 111.832 457.89C112.632 473.867 117.029 483.938 117.029 483.938C117.029 483.938 113.378 504.759 120.746 505.658C121.963 505.811 143.99 500.639 157.191 499.762C159.669 499.598 163.035 495.752 163.517 492.091C164 488.431 162.136 471.479 156.884 459.413Z" fill="#E5DCC7"/>
<path d="M132.444 459.972C131.578 446.712 126.513 435.261 121.173 435.502C115.833 435.743 112.906 447.655 114.594 460.98C116.129 473.221 121.009 482.185 125.559 481.878C130.109 481.571 133.234 472.158 132.444 459.972Z" fill="#D27558"/>
<path d="M146.72 427.009C139.045 429.902 130.35 427.919 128.815 423.349C127.28 418.779 125.789 402.046 128.091 399.306C130.394 396.566 139.133 395.755 143.825 398.649C148.518 401.542 146.72 427.009 146.72 427.009Z" fill="#EDB984"/>
<path d="M166.719 677.816H139.308C139.308 677.816 138.935 663.713 142.598 663.57C143.935 663.515 151.873 671.734 151.873 671.734C151.873 671.734 167.421 676.096 166.719 677.816Z" fill="#EDB984"/>
<path d="M137.795 675.273H166.971L167.092 678.999H137.916L137.795 675.273Z" fill="#935567"/>
<path d="M151.336 670.068L156.281 671.866L154.329 677.4H150.645L151.336 670.068Z" fill="#935567"/>
<path d="M158.792 672.162L162.366 672.863L161.511 676.709L158.956 677.071L158.792 672.162Z" fill="#935567"/>
<path d="M146.106 664.962L148.935 667.406L146.303 676.841L142.641 676.216L146.106 664.962Z" fill="#935567"/>
<path d="M128.223 673.378C127.828 670.814 127.127 667.899 126.03 666.803C125.855 666.507 125.69 666.321 125.548 666.332C125.479 666.32 125.409 666.32 125.34 666.332H125.109C124.013 666.277 120.724 673.236 120.724 673.236C120.724 673.236 115.801 676.666 116.469 678.09H130.855C131.633 676.841 128.804 673.992 128.223 673.378Z" fill="#EDB984"/>
<path d="M132.62 675.898H115.362L115.439 679H132.708L132.62 675.898Z" fill="#935567"/>
<path d="M119.024 676.709C119.067 675.513 119.58 674.381 120.453 673.56C121.325 672.74 122.486 672.296 123.684 672.326C124.901 672.312 126.08 672.754 126.987 673.565C127.894 674.377 128.464 675.498 128.585 676.709H130.778V676.654C130.668 674.855 129.868 673.167 128.545 671.943C127.221 670.718 125.476 670.05 123.673 670.079C122.795 670.057 121.922 670.211 121.105 670.532C120.287 670.852 119.543 671.333 118.914 671.946C118.286 672.559 117.787 673.291 117.446 674.1C117.105 674.908 116.929 675.777 116.93 676.654V676.709H119.024Z" fill="#935567"/>
<path d="M130.602 399.876C130.356 399.212 129.984 398.601 129.506 398.079C129.059 397.477 128.477 396.989 127.806 396.654C126.206 396.008 124.375 397.344 123.695 399.065C123.137 400.914 123.05 402.873 123.443 404.763C123.889 408.029 124.518 411.267 125.328 414.462L129.944 416.653C130.222 411.612 130.493 406.758 130.756 402.089C130.83 401.348 130.779 400.6 130.602 399.876Z" fill="#77362F"/>
<path d="M129.013 412.369C127.642 409.914 125.438 408.522 124.09 409.278C122.741 410.034 122.752 412.632 124.09 415.086C125.427 417.541 127.664 418.933 129.013 418.177C130.361 417.42 130.383 414.823 129.013 412.369Z" fill="#EDB984"/>
<path d="M151.862 501.308C149.9 502.404 149.735 504.595 149.615 506.678C149.489 509.322 149.533 511.972 149.746 514.611C150.108 520.091 150.667 525.658 149.231 531.049C148.913 532.244 152.06 531.794 152.356 530.677C153.617 525.953 153.376 521.077 153.047 516.244C152.871 513.669 152.652 511.094 152.674 508.573C152.668 507.417 152.723 506.261 152.838 505.11C152.926 504.234 152.959 502.842 153.825 502.36C154.351 502.053 154.647 501.461 154.077 501.067C153.507 500.672 152.411 500.99 151.862 501.308Z" fill="#7C5557"/>
<path d="M152.871 501.834C154.307 507.122 154.924 512.599 154.702 518.074C154.702 519.279 157.783 518.633 157.816 517.658C158.055 512.04 157.434 506.419 155.974 500.99C155.722 499.971 152.597 500.847 152.871 501.834Z" fill="#7C5557"/>
<path d="M506.284 443.063C500.221 434.658 485.616 427.721 485.616 427.721C485.616 427.721 474.049 432.269 469.938 437.967L511.602 477.308C511.602 477.308 510.725 449.233 506.284 443.063Z" fill="#EDB984"/>
<path d="M504.245 440.63C498.028 433.978 487.568 428.718 485.869 427.896H485.364C483.731 428.565 473.709 432.806 469.938 438.033L476.341 444.082C478.161 444.203 480.036 444.268 481.965 444.268C491.241 444.247 499.41 442.767 504.245 440.63Z" fill="#E79B69"/>
<path d="M498.653 599.671C498.653 599.671 481.681 531.18 483.72 524.156C485.759 517.132 509.683 512.902 513.795 522.764C517.907 532.627 511.207 631.637 509.179 669.608L507.26 670.309C507.26 670.309 497.272 626.059 497.875 617.632C498.478 609.205 498.653 599.671 498.653 599.671Z" fill="#EDB984"/>
<path d="M505.352 628.645C504.047 614.619 504.826 602.345 507.063 595.693C504.936 588.713 504.004 578.061 504.87 566.204C505.966 549.766 510.166 535.937 514.957 531.137C514.76 526.994 514.398 524.079 513.861 522.764C509.749 512.902 485.814 517.143 483.785 524.167C481.757 531.191 498.719 599.682 498.719 599.682C498.719 599.682 498.543 609.161 497.94 617.588C497.337 626.015 507.326 670.266 507.326 670.266L509.245 669.564C509.486 665.082 509.793 659.702 510.133 653.795C507.687 645.596 506.085 637.169 505.352 628.645V628.645Z" fill="#E79B69"/>
<path d="M484.63 601.665C484.63 601.665 503.543 535.125 501.46 528.298C499.377 521.471 479.455 517.033 474.959 526.589C472.405 532.013 470.124 573.25 474.115 597.819C468.457 622.991 473.709 653.17 472.547 669.608L474.564 670.287C474.564 670.287 485.737 627.297 485.211 619.1C484.685 610.903 484.63 601.665 484.63 601.665Z" fill="#EDB984"/>
<path d="M476.067 619.429C477.054 610.932 478.861 602.55 481.461 594.4C479.926 588.537 479.191 580.066 479.63 570.631C480.441 552.944 495.901 545.087 496.987 554.697C500.035 541.92 502.228 530.862 501.46 528.298C499.399 521.471 479.455 517.033 474.959 526.589C472.405 532.013 470.124 573.25 474.115 597.819C468.457 622.991 473.709 653.17 472.547 669.608L474.564 670.287C474.564 670.287 476.549 662.616 478.808 653.203C478.565 653.344 478.287 653.412 478.007 653.4C474.554 653.094 473.687 637.905 476.067 619.429Z" fill="#E79B69"/>
<path d="M510.692 496.76L472.317 501.691L471.889 514.48L510.363 503.423L510.692 496.76Z" fill="#7C5557"/>
<path d="M510.363 502.129C521.097 525.537 518.038 619.385 518.038 619.385L464.137 620.152C464.137 620.152 463.161 530.117 469.619 516.145C476.077 502.173 510.363 502.129 510.363 502.129Z" fill="#E5DCC7"/>
<path d="M482.941 575.179C485.759 537.92 496.274 508.332 506.416 509.099C509.223 509.307 511.701 511.839 513.773 516.167C513.016 510.359 511.92 505.516 510.363 502.129C510.363 502.129 476.22 502.129 469.718 516.112C463.216 530.095 464.236 620.12 464.236 620.12L484.093 619.561C482.174 607.528 481.615 592.022 482.941 575.179Z" fill="#D8CDB6"/>
<path d="M479.827 594.619C479.827 559.979 477.075 531.904 473.676 531.904C470.277 531.904 467.525 559.979 467.525 594.619C467.525 603.66 467.712 612.241 468.052 620.01L479.312 619.692C479.641 612.01 479.827 603.54 479.827 594.619Z" fill="#E5DCC7"/>
<path d="M499.234 564.407C497.984 564.407 493.851 596.066 493.489 619.298L498.061 619.199C498.346 596.022 500.473 564.407 499.234 564.407Z" fill="#D8CDB6"/>
<path d="M491.844 431.151L488.193 415.13L479.422 415.568C479.982 420.673 479.893 425.828 479.158 430.91C484.147 434.483 488.884 436.762 491.844 431.151Z" fill="#D27558"/>
<path d="M472.7 505.647C465.343 504.748 468.995 483.927 468.995 483.927C468.995 483.927 464.609 473.856 463.786 457.879C462.898 440.038 464.104 433.452 476.22 430.143C481.417 428.718 503.083 446.175 508.839 459.413C514.091 471.467 515.988 488.289 515.483 492.069C514.979 495.85 511.624 499.587 509.146 499.74C495.956 500.628 473.939 505.8 472.7 505.647Z" fill="#E5DCC7"/>
<path d="M474.4 504.88C471.407 497.713 480.058 487.347 493.697 481.626C501.153 478.525 508.554 477.495 514.222 478.339C513.144 471.845 511.339 465.493 508.839 459.402C504.936 450.438 493.752 439.546 485.32 433.891C487.778 437.985 489.625 442.415 490.803 447.041C495.265 464.158 490.386 480.257 479.915 482.985C475.88 484.081 471.604 482.93 467.624 480.224C468.381 482.613 468.951 483.917 468.951 483.917C468.951 483.917 465.3 504.738 472.657 505.636C473.317 505.597 473.973 505.506 474.619 505.362C474.538 505.205 474.465 505.044 474.4 504.88V504.88Z" fill="#EFE7D5"/>
<path d="M484.4 459.972C483.533 446.712 478.479 435.261 473.139 435.502C467.8 435.743 464.861 447.655 466.561 460.98C468.085 473.221 472.975 482.185 477.525 481.878C482.075 481.571 485.189 472.158 484.4 459.972Z" fill="#D27558"/>
<path d="M498.686 427.009C491.066 429.902 482.305 427.919 480.77 423.349C479.235 418.779 477.744 402.046 480.047 399.306C482.349 396.566 491.088 395.755 495.791 398.649C500.495 401.542 498.686 427.009 498.686 427.009Z" fill="#EDB984"/>
<path d="M534.068 677.816H506.712C506.712 677.816 505.615 663.713 509.288 663.57C510.615 663.515 518.981 671.734 518.981 671.734C518.981 671.734 534.682 676.096 534.068 677.816Z" fill="#EDB984"/>
<path d="M505.023 675.273H534.199L534.506 678.999H505.319L505.023 675.273Z" fill="#935567"/>
<path d="M518.29 670.068L523.323 671.866L521.656 677.4H517.972L518.29 670.068Z" fill="#935567"/>
<path d="M525.844 672.162L529.463 672.863L528.805 676.709L526.272 677.071L525.844 672.162Z" fill="#935567"/>
<path d="M512.797 664.962L515.757 667.406L513.597 676.841L509.902 676.216L512.797 664.962Z" fill="#935567"/>
<path d="M477.327 673.378C477.053 670.814 476.516 667.899 475.496 666.803C475.332 666.507 475.178 666.321 475.036 666.332C474.967 666.321 474.897 666.321 474.828 666.332C474.751 666.32 474.674 666.32 474.597 666.332C473.501 666.277 469.861 673.236 469.861 673.236C469.861 673.236 464.773 676.666 465.376 678.09H479.762C480.584 676.841 477.887 673.992 477.327 673.378Z" fill="#EDB984"/>
<path d="M481.615 675.898H464.357L464.291 679H481.549L481.615 675.898Z" fill="#935567"/>
<path d="M467.975 676.709C468.085 675.5 468.648 674.377 469.55 673.565C470.453 672.752 471.629 672.31 472.843 672.326C474.043 672.299 475.206 672.742 476.083 673.562C476.96 674.381 477.482 675.511 477.536 676.709H479.729C479.734 676.691 479.734 676.672 479.729 676.654C479.729 675.772 479.552 674.899 479.208 674.087C478.864 673.274 478.359 672.539 477.725 671.926C477.091 671.312 476.339 670.833 475.516 670.515C474.692 670.198 473.813 670.05 472.931 670.079C471.131 670.048 469.39 670.716 468.073 671.943C466.756 673.169 465.966 674.858 465.87 676.654C465.87 676.654 465.87 676.654 465.87 676.709H467.975Z" fill="#935567"/>
<path d="M485.682 404.27C485.944 403.698 486.089 403.08 486.11 402.451C486.005 401.821 485.76 401.223 485.394 400.699C485.028 400.176 484.55 399.741 483.994 399.426C483.428 399.11 482.996 398.601 482.777 397.991C482.711 397.695 482.777 397.388 482.689 397.092C482.459 395.931 481.077 395.558 479.959 395.536C479.256 395.469 478.549 395.602 477.919 395.92C476.505 396.753 476.34 398.791 476.351 400.5C476.362 402.21 476.351 403.898 476.351 405.596C476.322 406.204 476.399 406.813 476.582 407.393C476.667 407.676 476.831 407.929 477.054 408.123C477.277 408.317 477.55 408.444 477.843 408.489C477.395 408.777 477.059 409.208 476.888 409.711C476.717 410.215 476.721 410.761 476.9 411.262C477.282 412.253 477.895 413.139 478.687 413.848L481.877 417.135L482.777 416.292C483.237 414.988 484.005 413.837 484.52 412.566C484.82 411.942 484.988 411.263 485.015 410.571C485.041 409.879 484.925 409.189 484.673 408.544C484.527 408.324 484.433 408.072 484.399 407.81C484.406 407.628 484.446 407.45 484.52 407.284L485.682 404.27Z" fill="#562420"/>
<path d="M480.967 412.369C479.608 409.914 477.393 408.522 476.044 409.278C474.696 410.034 474.707 412.632 476.044 415.086C477.382 417.541 479.619 418.933 480.967 418.177C482.316 417.42 482.338 414.823 480.967 412.369Z" fill="#EDB984"/>
<path d="M503.817 501.308C501.854 502.404 501.69 504.595 501.569 506.678C501.447 509.322 501.495 511.973 501.712 514.611C502.063 520.091 502.622 525.658 501.186 531.049C500.868 532.244 504.014 531.794 504.321 530.677C505.582 525.953 505.341 521.077 505.001 516.244C504.826 513.669 504.617 511.094 504.628 508.573C504.628 507.423 504.683 506.261 504.793 505.11C504.881 504.234 504.924 502.842 505.78 502.36C506.317 502.053 506.602 501.461 506.043 501.067C505.484 500.672 504.365 500.99 503.817 501.308Z" fill="#7C5557"/>
<path d="M504.826 501.834C506.259 507.123 506.881 512.599 506.668 518.074C506.613 519.279 509.738 518.633 509.782 517.658C510.018 512.04 509.393 506.419 507.929 500.99C507.677 499.971 504.552 500.847 504.826 501.834Z" fill="#7C5557"/>
<path d="M148.178 540.495C147.827 539.914 144.034 538.599 139.571 534.534C138.266 533.35 136.216 533.953 136.139 535.553L135.975 538.983C137.532 540.725 145.711 544.21 147.06 543.903C148.408 543.596 148.803 541.525 148.178 540.495Z" fill="#EDB984"/>
<path d="M510.385 541.865H115.812V547.07H510.385V541.865Z" fill="#F4BD51"/>
<path d="M148.167 541.865H126.217V547.07H148.167V541.865Z" fill="#EA943D"/>
<path d="M105.79 450.438C94.9025 490.985 107.49 509.494 112.369 512.485C117.248 515.477 122.675 495.083 121.513 484.278C120.022 470.372 136.797 448.356 122.971 435.666C120.011 432.905 108.104 441.803 105.79 450.438Z" fill="#EDB984"/>
<path d="M120.998 495.532C119.66 497.494 112.928 496.628 111.579 496.935C106.218 498.195 106.349 486.568 108.169 468.443C109.661 453.594 116.184 440.499 120.614 435.567C115.855 436.597 107.731 443.238 105.79 450.405C94.9025 490.952 107.49 509.461 112.369 512.452C115.844 514.622 119.528 505.11 120.998 495.532Z" fill="#E79B69"/>
<path d="M112.38 481.309C120.164 490.448 141.095 538.972 142.268 541.701C143.442 544.43 142.005 546.753 138.234 545.306C134.462 543.86 108.937 515.335 107.533 500.563C106.13 485.791 112.38 481.309 112.38 481.309Z" fill="#EDB984"/>
<path d="M106.843 490.042C105.903 493.615 105.642 497.332 106.075 501C107.5 515.773 134.506 543.892 138.233 545.317C141.961 546.741 110.439 505.822 106.843 490.042Z" fill="#E79B69"/>
<path d="M142.071 546.698C142.203 545.273 140.755 539.991 139.286 535.739C139.183 535.36 139 535.007 138.751 534.703C138.502 534.399 138.191 534.151 137.839 533.975C137.487 533.799 137.102 533.699 136.709 533.682C136.316 533.665 135.924 533.731 135.558 533.876L128.98 536.353C129.309 544.484 131.052 547.761 132.269 548.287C134.133 548.988 141.896 548.429 142.071 546.698Z" fill="#EDB984"/>
<path d="M136.403 549.065C135.261 546.175 133.707 543.465 131.787 541.021L130.449 545.306C130.449 545.306 132.543 549.865 133.475 549.975C134.407 550.084 136.688 549.865 136.403 549.065Z" fill="#EDB984"/>
<path d="M141.391 548.769C140.243 545.883 138.684 543.178 136.764 540.736L135.438 545.01C135.438 545.01 137.532 549.569 138.464 549.689C139.396 549.81 141.72 549.536 141.391 548.769Z" fill="#EDB984"/>
<path d="M145.404 547.531C144.257 544.641 142.699 541.932 140.777 539.487L139.44 543.761C139.44 543.761 141.545 548.331 142.477 548.44C143.409 548.55 145.678 548.298 145.404 547.531Z" fill="#EDB984"/>
<path d="M500.133 540.495C499.782 539.914 496 538.599 491.526 534.534C490.222 533.35 488.171 533.953 488.094 535.553L487.941 538.983C489.487 540.725 497.666 544.21 499.026 543.903C500.385 543.596 500.758 541.525 500.133 540.495Z" fill="#EDB984"/>
<path d="M500.122 541.865H478.171V547.07H500.122V541.865Z" fill="#EA943D"/>
<path d="M457.756 450.438C446.869 490.985 459.445 509.494 464.335 512.485C469.225 515.477 474.641 495.083 473.479 484.278C471.977 470.372 488.752 448.356 474.926 435.666C471.966 432.905 460.059 441.803 457.756 450.438Z" fill="#EDB984"/>
<path d="M472.964 495.532C471.626 497.494 464.894 496.628 463.534 496.935C458.173 498.195 458.315 486.568 460.124 468.443C461.616 453.594 468.15 440.499 472.569 435.567C467.81 436.597 459.686 443.238 457.756 450.405C446.869 490.952 459.445 509.461 464.335 512.452C467.799 514.622 471.494 505.11 472.964 495.532Z" fill="#E79B69"/>
<path d="M464.335 481.309C472.13 490.448 493.05 538.972 494.234 541.701C495.419 544.43 493.96 546.753 490.2 545.306C486.439 543.86 460.892 515.335 459.499 500.563C458.107 485.791 464.335 481.309 464.335 481.309Z" fill="#EDB984"/>
<path d="M458.798 490.042C457.863 493.616 457.603 497.332 458.03 501C459.467 515.773 486.461 543.892 490.2 545.317C493.938 546.741 462.405 505.822 458.798 490.042Z" fill="#E79B69"/>
<path d="M494.026 546.698C494.169 545.273 492.71 539.991 491.241 535.739C491.139 535.36 490.958 535.007 490.709 534.703C490.461 534.399 490.151 534.151 489.8 533.975C489.449 533.799 489.065 533.699 488.673 533.682C488.281 533.665 487.889 533.731 487.524 533.876L480.946 536.353C481.264 544.484 483.007 547.761 484.235 548.287C486.088 548.988 493.851 548.429 494.026 546.698Z" fill="#EDB984"/>
<path d="M488.369 549.065C487.221 546.175 485.663 543.466 483.742 541.021L482.404 545.306C482.404 545.306 484.509 549.865 485.43 549.975C486.351 550.084 488.643 549.865 488.369 549.065Z" fill="#EDB984"/>
<path d="M493.346 548.769C492.204 545.883 490.649 543.177 488.73 540.736L487.393 545.01C487.393 545.01 489.498 549.569 490.419 549.689C491.34 549.81 493.675 549.536 493.346 548.769Z" fill="#EDB984"/>
<path d="M497.359 547.531C496.213 544.643 494.659 541.934 492.743 539.487L491.406 543.761C491.406 543.761 493.5 548.331 494.432 548.44C495.364 548.55 497.644 548.298 497.359 547.531Z" fill="#EDB984"/>
<path d="M396.071 537.514H206.355V540.046H396.071V537.514Z" fill="#EA943D"/>
<path d="M109.321 443.764C110.066 443.841 110.801 443.929 111.513 443.994C116.959 444.452 122.431 444.496 127.883 444.126C127.152 440.854 125.415 437.892 122.916 435.655C120.789 433.661 113.794 437.934 109.321 443.764Z" fill="#E79B69"/>
<path d="M158.254 484.563C159.351 469.934 144.001 445.726 143.211 447.458C143.211 447.458 151.84 464.509 150.886 490.382L158.254 484.563Z" fill="#E5DCC7"/>
<path d="M162.213 490.327C162.903 487.555 162.432 485.078 156.939 486.185C151.446 487.292 133.99 495.434 133.311 498.239C132.631 501.045 148.968 497.385 154.45 496.267C159.932 495.149 161.533 493.1 162.213 490.327Z" fill="#EFE7D5"/>
<path d="M558.891 538.972H554.494C551.939 538.972 549.867 541.042 549.867 543.596V545.328C549.867 547.882 551.939 549.952 554.494 549.952H558.891C561.446 549.952 563.518 547.882 563.518 545.328V543.596C563.518 541.042 561.446 538.972 558.891 538.972Z" fill="#D34052"/>
<path d="M513.806 538.972H509.409C506.854 538.972 504.782 541.042 504.782 543.596V545.328C504.782 547.882 506.854 549.952 509.409 549.952H513.806C516.361 549.952 518.433 547.882 518.433 545.328V543.596C518.433 541.042 516.361 538.972 513.806 538.972Z" fill="#D34052"/>
<path d="M115.899 538.972H111.503C108.947 538.972 106.876 541.042 106.876 543.596V545.328C106.876 547.882 108.947 549.952 111.503 549.952H115.899C118.455 549.952 120.526 547.882 120.526 545.328V543.596C120.526 541.042 118.455 538.972 115.899 538.972Z" fill="#D34052"/>
<path d="M121.272 541.821H119.781C118.382 541.821 117.248 542.955 117.248 544.353V544.572C117.248 545.97 118.382 547.103 119.781 547.103H121.272C122.671 547.103 123.805 545.97 123.805 544.572V544.353C123.805 542.955 122.671 541.821 121.272 541.821Z" fill="#F4BD51"/>
<path d="M128.289 412.752C127.544 411.404 126.162 410.757 125.208 411.294C124.254 411.831 124.112 413.343 124.824 414.691C125.537 416.039 126.951 416.686 127.905 416.149C128.859 415.612 129.035 414.089 128.289 412.752Z" fill="#D27558"/>
<path d="M129.023 414.834C128.846 414.427 128.522 414.102 128.116 413.923C127.709 413.745 127.25 413.726 126.831 413.87C126.468 414.141 126.227 414.543 126.16 414.99C126.092 415.437 126.203 415.893 126.469 416.259C126.527 416.483 126.636 416.692 126.787 416.868C126.939 417.043 127.128 417.183 127.341 417.274C127.555 417.366 127.786 417.408 128.018 417.397C128.25 417.385 128.476 417.321 128.679 417.209C128.882 417.097 129.057 416.941 129.191 416.751C129.324 416.561 129.412 416.343 129.449 416.114C129.485 415.885 129.469 415.651 129.401 415.429C129.333 415.207 129.215 415.004 129.056 414.834H129.023Z" fill="#EDB984"/>
<path d="M460.563 444.729C460.387 444.97 460.223 445.2 460.069 445.441L459.795 445.88C459.73 445.978 459.675 446.088 459.609 446.197C461.703 446.471 463.841 446.712 466.045 446.888C470.787 447.257 475.547 447.338 480.299 447.129C480.195 444.953 479.662 442.82 478.731 440.851C477.799 438.881 476.488 437.116 474.871 435.655C472.624 433.551 464.97 438.384 460.563 444.729Z" fill="#E79B69"/>
<path d="M513.882 491.379C514.42 488.563 513.323 486.207 506.712 487.336C500.1 488.464 484.717 495.587 484.18 498.404C483.643 501.22 498.149 498.667 504.76 497.538C511.372 496.409 513.334 494.196 513.882 491.379Z" fill="#EFE7D5"/>
<path d="M491 479.347C498.028 469.725 496.022 453.046 496.022 453.046C496.022 453.046 500.956 462.602 499.432 468.695C498.91 470.987 497.882 473.132 496.423 474.975C494.964 476.818 493.111 478.312 491 479.347V479.347Z" fill="#E5DCC7"/>
<path d="M480.409 413.355C479.499 411.722 478.04 410.801 477.119 411.305C476.198 411.81 476.242 413.497 477.119 415.174C477.996 416.851 479.499 417.727 480.409 417.223C481.319 416.719 481.319 414.988 480.409 413.355Z" fill="#D27558"/>
<path d="M480.672 415.042C480.156 414.111 479.246 413.628 478.632 413.946C478.018 414.264 477.953 415.316 478.479 416.248C479.005 417.179 479.904 417.661 480.518 417.343C481.132 417.026 481.198 415.974 480.672 415.042Z" fill="#EDB984"/>
<path d="M421.892 327.889C408.175 327.889 396.882 314.739 395.347 297.874H384.865C377.19 311.901 354.889 321.983 328.585 321.983C302.282 321.983 280.002 311.846 272.316 297.874H268.205C262.306 310.553 243.743 318.871 222.483 317.271C204.853 315.956 190.084 308.153 183.308 297.874H180.994C180.056 297.88 179.129 298.084 178.275 298.472C177.42 298.861 176.658 299.425 176.037 300.128C175.416 300.832 174.95 301.658 174.671 302.554C174.392 303.45 174.305 304.394 174.416 305.326C178.451 336.667 208.318 335.166 218.273 333.204C231.759 330.53 266.1 309.249 266.1 309.249C266.1 309.249 285.759 328.974 336.381 328.974C359.154 328.974 383.199 305.249 383.199 305.249C383.199 305.249 398.285 330.563 417.309 330.563C420.646 330.591 423.89 329.46 426.486 327.363C424.978 327.704 423.438 327.881 421.892 327.889V327.889Z" fill="#B73047"/>
<path d="M276.198 299.496C276.198 295.507 273.325 292.274 269.773 292.274C266.22 292.274 263.347 295.507 263.347 299.496C263.347 303.485 266.231 306.718 269.773 306.718C273.314 306.718 276.198 303.485 276.198 299.496Z" fill="#B73047"/>
<path d="M272.032 300.307C271.966 299.755 271.742 299.234 271.387 298.807C271.032 298.379 270.561 298.063 270.031 297.897C269.501 297.73 268.933 297.721 268.398 297.869C267.862 298.018 267.381 298.318 267.012 298.733C266.643 299.149 266.401 299.662 266.318 300.211C266.234 300.761 266.31 301.322 266.538 301.829C266.766 302.336 267.136 302.766 267.603 303.067C268.07 303.369 268.614 303.529 269.17 303.529C269.976 303.478 270.729 303.111 271.265 302.507C271.801 301.904 272.077 301.113 272.032 300.307V300.307Z" fill="#EA943D"/>
<path d="M393.9 299.496C393.9 295.507 391.027 292.274 387.475 292.274C383.922 292.274 381.061 295.507 381.061 299.496C381.061 303.485 383.933 306.718 387.475 306.718C391.016 306.718 393.9 303.485 393.9 299.496Z" fill="#B73047"/>
<path d="M389.777 300.307C389.712 299.755 389.488 299.234 389.133 298.807C388.778 298.379 388.307 298.063 387.777 297.897C387.246 297.73 386.679 297.721 386.144 297.869C385.608 298.018 385.126 298.318 384.757 298.733C384.388 299.149 384.147 299.662 384.063 300.211C383.979 300.761 384.056 301.322 384.284 301.829C384.512 302.336 384.882 302.766 385.349 303.067C385.816 303.369 386.36 303.529 386.916 303.529C387.722 303.478 388.475 303.111 389.011 302.507C389.547 301.904 389.822 301.113 389.777 300.307V300.307Z" fill="#EA943D"/>
<path d="M538.958 533.723C542.247 538.676 541.469 542.018 540.975 543.355C540.482 544.692 536.019 544.955 534.397 544.605C532.774 544.254 533.552 541.953 533.552 541.953L537.258 541.262L536.842 540.166C536.842 540.166 532.818 537.098 532.917 533.723C533.015 530.348 537.434 531.378 538.958 533.723Z" fill="#EDB984"/>
<path d="M541.984 546.018C541.776 544.539 541.041 544.046 539.934 544.177C538.826 544.309 538.563 545.043 538.772 546.533C538.98 548.024 539.539 548.955 540.646 548.823C541.754 548.692 542.203 547.508 541.984 546.018Z" fill="#EDB984"/>
<path d="M538.476 546.577C538.256 545.087 537.533 544.594 536.425 544.725C535.318 544.857 535.044 545.591 535.263 547.081C535.482 548.572 536.02 549.514 537.138 549.383C538.256 549.251 538.684 548.068 538.476 546.577Z" fill="#EDB984"/>
<path d="M534.035 545.668C533.695 544.035 532.938 543.476 531.842 543.629C530.746 543.783 530.537 544.55 530.877 546.194C531.217 547.837 531.853 548.857 532.96 548.725C534.068 548.594 534.375 547.3 534.035 545.668Z" fill="#EDB984"/>
<path d="M560.58 541.92H560.459C559.635 541.92 558.968 542.587 558.968 543.41V545.525C558.968 546.348 559.635 547.016 560.459 547.016H560.58C561.403 547.016 562.071 546.348 562.071 545.525V543.41C562.071 542.587 561.403 541.92 560.58 541.92Z" fill="#F4BD51"/>
<path d="M514.617 541.92H514.497C513.673 541.92 513.005 542.587 513.005 543.41V545.525C513.005 546.348 513.673 547.016 514.497 547.016H514.617C515.441 547.016 516.108 546.348 516.108 545.525V543.41C516.108 542.587 515.441 541.92 514.617 541.92Z" fill="#F4BD51"/>
<path d="M317.676 430.801C317.676 429.485 318.125 428.379 318.772 428.335C319.419 428.291 319.869 429.321 319.869 430.636C319.869 431.951 319.419 433.036 318.827 433.08C318.235 433.124 317.698 432.116 317.676 430.801Z" fill="#5A4949"/>
<path d="M309.113 431.502C309.058 430.176 309.518 429.069 310.122 429.025C310.725 428.981 311.218 430.012 311.284 431.327C311.35 432.642 310.878 433.748 310.275 433.792C309.672 433.836 309.157 432.817 309.113 431.502Z" fill="#5A4949"/>
<path d="M315.648 423.963L319.781 424.806C320.04 424.871 320.267 425.028 320.418 425.248C320.57 425.468 320.635 425.736 320.603 426.001L320.505 427.097C320.502 427.219 320.472 427.34 320.419 427.45C320.365 427.56 320.288 427.658 320.194 427.735C320.099 427.813 319.989 427.87 319.87 427.902C319.752 427.933 319.628 427.939 319.507 427.919L315.395 427.097C315.13 427.036 314.897 426.879 314.741 426.657C314.585 426.434 314.517 426.161 314.551 425.891L314.639 424.795C314.64 424.671 314.668 424.548 314.722 424.436C314.776 424.323 314.853 424.224 314.949 424.145C315.045 424.065 315.158 424.008 315.278 423.976C315.399 423.945 315.525 423.94 315.648 423.963V423.963Z" fill="#683E47"/>
<path d="M306.657 425.87L310.341 424.576C310.58 424.528 310.83 424.575 311.035 424.708C311.24 424.841 311.384 425.05 311.437 425.289L311.777 426.385C311.874 426.622 311.876 426.888 311.782 427.127C311.688 427.365 311.506 427.559 311.273 427.667L307.611 428.949C307.372 429.001 307.123 428.956 306.917 428.825C306.712 428.693 306.567 428.486 306.514 428.248L306.152 427.152C306.055 426.914 306.053 426.648 306.147 426.41C306.241 426.171 306.424 425.977 306.657 425.87V425.87Z" fill="#683E47"/>
<path d="M313.992 432.609C313.992 432.609 314.112 432.861 314.266 433.244C313.279 434.768 312.073 437.431 314.858 437.562C314.846 437.637 314.828 437.71 314.803 437.781C310.067 438.274 313.18 433.518 313.992 432.609Z" fill="#D27558"/>
<path d="M312.457 439.787L319.035 438.548C319.035 438.548 318.871 443.129 316.108 443.282C313.345 443.436 312.457 439.787 312.457 439.787Z" fill="#2D171A"/>
<path d="M318.246 440.324C318.366 439.831 318.443 439.328 318.476 438.822L312.994 439.852C313.165 440.482 313.447 441.076 313.827 441.606L318.246 440.324Z" fill="#FAF0DB"/>
<path d="M137.17 409.99C137.17 408.533 136.479 407.426 135.723 407.547C134.966 407.667 134.374 408.938 134.418 410.407C134.462 411.875 135.109 412.971 135.865 412.85C136.622 412.73 137.214 411.459 137.17 409.99Z" fill="#5A4949"/>
<path d="M136.315 401.805L131.677 403.788C131.489 403.874 131.343 404.03 131.267 404.222C131.191 404.414 131.193 404.627 131.271 404.818L131.896 406.341C131.934 406.436 131.99 406.523 132.061 406.596C132.132 406.669 132.217 406.727 132.311 406.767C132.405 406.806 132.506 406.827 132.608 406.827C132.71 406.828 132.811 406.808 132.905 406.769L137.543 404.785C137.73 404.699 137.877 404.544 137.953 404.352C138.028 404.16 138.027 403.946 137.949 403.755L137.335 402.221C137.296 402.126 137.239 402.039 137.167 401.966C137.094 401.894 137.008 401.836 136.913 401.797C136.818 401.758 136.716 401.739 136.613 401.74C136.51 401.742 136.409 401.763 136.315 401.805Z" fill="#8E4438"/>
<path d="M145.689 409.311C145.689 407.842 145.064 406.769 144.308 406.9C143.551 407.032 142.948 408.347 142.959 409.815C142.97 411.283 143.595 412.357 144.352 412.215C145.108 412.072 145.7 410.768 145.689 409.311Z" fill="#5A4949"/>
<path d="M147.839 403.065L143.146 401.87C143.048 401.848 142.947 401.846 142.849 401.865C142.751 401.884 142.657 401.923 142.575 401.979C142.493 402.036 142.423 402.109 142.37 402.194C142.317 402.279 142.283 402.374 142.269 402.473L141.929 404.106C141.878 404.306 141.906 404.518 142.009 404.698C142.111 404.878 142.279 405.011 142.477 405.07L147.17 406.275C147.267 406.296 147.368 406.297 147.465 406.277C147.563 406.258 147.656 406.218 147.738 406.162C147.82 406.106 147.889 406.033 147.943 405.949C147.996 405.865 148.031 405.771 148.047 405.673L148.398 404.04C148.446 403.837 148.415 403.623 148.311 403.442C148.207 403.261 148.038 403.126 147.839 403.065V403.065Z" fill="#8E4438"/>
<path d="M139.429 410.144C141.183 413.552 141.94 415.755 141.041 416.938C140.683 417.308 140.247 417.593 139.766 417.773C139.284 417.953 138.768 418.023 138.256 417.979V418.078C138.256 418.078 141.26 418.67 142.269 417.388C143.277 416.105 141.929 413.98 139.429 410.144Z" fill="#D27558"/>
<path d="M134.045 418.407L133.398 419.404C133.519 419.492 136.271 421.475 141.402 421.092L141.282 420.587C139.99 420.738 138.682 420.622 137.437 420.247C136.192 419.872 135.038 419.245 134.045 418.407Z" fill="#D27558"/>
<path d="M139.144 422.385C139.144 422.757 138.376 423.009 137.488 422.955C136.6 422.9 135.887 422.56 135.909 422.188C135.931 421.815 136.633 422.188 137.521 422.286C138.409 422.385 139.166 422.012 139.144 422.385Z" fill="#D27558"/>
<path d="M489.75 410.572C489.63 409.114 488.906 408.051 488.16 408.216C487.415 408.38 486.899 409.684 487.064 411.141C487.228 412.599 487.908 413.662 488.654 413.508C489.399 413.355 489.882 412.084 489.75 410.572Z" fill="#5A4949"/>
<path d="M488.401 402.451L483.895 404.709C483.8 404.757 483.715 404.824 483.646 404.906C483.577 404.988 483.525 405.083 483.493 405.185C483.462 405.287 483.451 405.395 483.461 405.501C483.472 405.607 483.504 405.711 483.555 405.805L484.268 407.284C484.31 407.377 484.371 407.46 484.446 407.529C484.521 407.598 484.609 407.652 484.705 407.687C484.801 407.721 484.903 407.736 485.005 407.731C485.107 407.726 485.206 407.701 485.298 407.657L489.805 405.388C489.902 405.342 489.989 405.276 490.06 405.195C490.131 405.114 490.185 405.019 490.217 404.916C490.25 404.813 490.262 404.705 490.251 404.598C490.241 404.49 490.208 404.387 490.156 404.292L489.432 402.813C489.39 402.72 489.329 402.637 489.254 402.568C489.179 402.499 489.09 402.446 488.994 402.412C488.898 402.379 488.795 402.365 488.694 402.371C488.592 402.378 488.492 402.405 488.401 402.451V402.451Z" fill="#562420"/>
<path d="M498.215 409.366C498.116 407.908 497.436 406.867 496.69 407.053C495.945 407.24 495.419 408.577 495.517 410.045C495.616 411.513 496.307 412.544 497.052 412.357C497.798 412.171 498.313 410.834 498.215 409.366Z" fill="#5A4949"/>
<path d="M499.991 403.01L495.221 402.1C495.123 402.087 495.023 402.093 494.927 402.119C494.832 402.145 494.742 402.19 494.664 402.251C494.586 402.313 494.522 402.389 494.474 402.476C494.427 402.563 494.398 402.659 494.388 402.758L494.136 404.402C494.102 404.606 494.147 404.815 494.261 404.987C494.374 405.16 494.549 405.283 494.75 405.333L499.508 406.254C499.607 406.267 499.708 406.261 499.804 406.235C499.901 406.21 499.991 406.165 500.07 406.103C500.148 406.042 500.214 405.966 500.263 405.878C500.311 405.791 500.342 405.695 500.353 405.596L500.594 403.941C500.631 403.739 500.589 403.529 500.477 403.356C500.365 403.183 500.191 403.06 499.991 403.01V403.01Z" fill="#562420"/>
<path d="M492.009 410.593C493.971 413.88 494.86 416.072 494.026 417.277C493.691 417.668 493.273 417.978 492.803 418.187C492.332 418.395 491.821 418.496 491.307 418.483V418.571C491.307 418.571 494.333 418.976 495.265 417.639C496.066 416.467 494.772 414.275 492.009 410.593Z" fill="#D27558"/>
<path d="M487.151 419.152L486.57 420.248C486.691 420.324 489.553 422.144 494.651 421.453L494.509 420.949C493.224 421.171 491.908 421.126 490.642 420.817C489.377 420.508 488.188 419.941 487.151 419.152Z" fill="#D27558"/>
<path d="M492.469 422.823C492.469 423.195 491.745 423.491 490.846 423.491C489.947 423.491 489.224 423.184 489.224 422.823C489.224 422.461 489.947 422.823 490.846 422.823C491.745 422.823 492.469 422.45 492.469 422.823Z" fill="#D27558"/>
<path d="M330.833 431.809C331.93 429.442 331.721 426.943 330.252 426.231C328.783 425.519 326.667 426.856 325.515 429.212C324.364 431.568 324.616 434.077 326.086 434.79C327.555 435.502 329.682 434.132 330.833 431.809Z" fill="#EDB984"/>
<path d="M329.901 431.59C330.712 429.924 330.526 428.171 329.495 427.667C328.465 427.163 326.963 428.105 326.206 429.771C325.449 431.436 325.57 433.19 326.601 433.683C327.631 434.176 329.09 433.255 329.901 431.59Z" fill="#D27558"/>
<path d="M328.673 432.74C328.72 432.465 328.69 432.183 328.585 431.924C328.481 431.666 328.307 431.441 328.082 431.276C327.857 431.111 327.59 431.012 327.312 430.99C327.034 430.967 326.755 431.023 326.507 431.15C326.259 431.278 326.051 431.471 325.907 431.71C325.762 431.949 325.688 432.223 325.691 432.502C325.693 432.781 325.774 433.053 325.923 433.289C326.072 433.524 326.284 433.714 326.535 433.836C326.964 433.965 327.426 433.923 327.825 433.719C328.224 433.514 328.528 433.164 328.673 432.74V432.74Z" fill="#EDB984"/>
<path d="M318.114 476.651C320.877 474.251 322.95 470.711 324.331 470.81C325.713 470.909 328.322 475.577 324.978 477.287C322.246 478.494 319.373 479.352 316.426 479.84L318.114 476.651Z" fill="#EDB984"/>
<path d="M318.158 475.884C320.549 472.706 321.623 465.55 322.544 465.572C323.465 465.594 322.698 474.108 321.842 475.051C320.987 475.993 317.15 477.166 318.158 475.884Z" fill="#EDB984"/>
<path d="M319.638 473.889C325.625 471.15 327.708 465.55 328.41 465.43C329.112 465.309 328.07 469.988 325.033 472.443C321.996 474.898 319.638 473.889 319.638 473.889Z" fill="#EDB984"/>
<path d="M320.198 475.643C326.403 473.539 329.824 467.566 330.658 467.512C331.491 467.457 329.122 472.322 325.745 474.35C324.108 475.424 322.142 475.882 320.198 475.643V475.643Z" fill="#EDB984"/>
<path d="M320.581 478.032C327.226 475.544 330.044 471.018 330.559 471.029C331.074 471.04 329.462 474.47 326.568 476.344C324.841 477.609 322.715 478.208 320.581 478.032V478.032Z" fill="#EDB984"/>
</svg>
