<svg width="806" height="980" viewBox="0 0 806 980" fill="none" xmlns="http://www.w3.org/2000/svg">
<path d="M399.542 438.858C399.542 438.858 446.315 406.829 452.948 385.901C459.582 364.974 474.76 338.33 513.949 326.916C553.137 315.501 573.044 281.885 586.633 318.67C586.633 318.67 571.78 301.546 549.343 324.063C526.906 346.58 525.643 394.463 480.13 407.148C431.306 420.754 399.542 438.858 399.542 438.858Z" fill="black"/>
<path d="M448.839 412.115C448.658 412.114 448.482 412.055 448.338 411.946C448.193 411.838 448.087 411.686 448.034 411.513C447.982 411.34 447.986 411.155 448.047 410.985C448.107 410.814 448.22 410.668 448.37 410.566C464.809 399.57 477.896 384.335 490.551 369.605C504.064 353.878 518.035 337.612 535.95 326.826C536.143 326.71 536.373 326.676 536.59 326.73C536.808 326.784 536.995 326.923 537.111 327.115C537.226 327.307 537.261 327.538 537.206 327.755C537.152 327.973 537.014 328.16 536.821 328.276C519.139 338.916 505.257 355.078 491.834 370.706C479.103 385.525 465.939 400.847 449.308 411.969C449.169 412.064 449.006 412.115 448.839 412.115V412.115Z" fill="white"/>
<path d="M473.174 399.082C472.968 399.068 472.774 398.977 472.632 398.826C472.49 398.675 472.412 398.476 472.412 398.269C472.412 398.061 472.49 397.862 472.632 397.711C472.774 397.56 472.968 397.469 473.174 397.456C477.633 397.456 483.02 396.342 488.23 395.264C490.537 394.789 492.778 394.327 494.85 393.978C494.955 393.959 495.063 393.961 495.167 393.984C495.272 394.007 495.37 394.051 495.457 394.113C495.544 394.175 495.618 394.254 495.674 394.345C495.73 394.436 495.768 394.537 495.784 394.643C495.82 394.855 495.77 395.072 495.645 395.247C495.52 395.423 495.331 395.541 495.119 395.577C493.068 395.909 490.843 396.378 488.559 396.85C483.269 397.948 477.803 399.082 473.174 399.082Z" fill="#121212"/>
<path d="M490.877 381.958C490.67 381.956 490.473 381.875 490.324 381.732C490.175 381.59 490.085 381.396 490.074 381.19C490.062 380.984 490.128 380.782 490.26 380.623C490.392 380.464 490.579 380.362 490.784 380.336L493.922 379.986C496.735 379.674 496.735 379.674 499.119 379.388L504.373 378.753C504.479 378.736 504.588 378.741 504.692 378.768C504.796 378.795 504.893 378.844 504.978 378.91C505.063 378.977 505.132 379.06 505.183 379.155C505.234 379.25 505.265 379.354 505.274 379.461C505.287 379.567 505.279 379.675 505.25 379.778C505.221 379.881 505.172 379.977 505.106 380.061C505.04 380.145 504.958 380.215 504.865 380.268C504.771 380.32 504.669 380.353 504.562 380.365L499.315 380.997C496.921 381.29 496.921 381.29 494.102 381.602L490.966 381.935L490.877 381.958Z" fill="#121212"/>
<path d="M505.094 365.499C504.894 365.488 504.704 365.406 504.559 365.268C504.413 365.13 504.321 364.944 504.299 364.745C504.277 364.546 504.327 364.345 504.439 364.178C504.551 364.012 504.718 363.891 504.911 363.836C506.494 363.484 508.077 363.148 509.66 362.809C512.772 362.144 515.977 361.456 519.116 360.674C519.226 360.64 519.341 360.628 519.456 360.64C519.57 360.652 519.681 360.687 519.781 360.744C519.882 360.8 519.969 360.876 520.039 360.968C520.109 361.059 520.159 361.164 520.187 361.275C520.215 361.387 520.22 361.503 520.201 361.617C520.183 361.73 520.141 361.839 520.079 361.936C520.017 362.033 519.936 362.116 519.841 362.18C519.745 362.245 519.638 362.289 519.525 362.31C516.369 363.105 513.141 363.793 510.012 364.461C508.436 364.794 506.857 365.126 505.28 365.489C505.219 365.497 505.156 365.5 505.094 365.499Z" fill="white"/>
<path d="M463.379 391.154C463.163 391.154 462.956 391.069 462.803 390.916C462.65 390.763 462.564 390.556 462.564 390.34C462.564 389.372 462.548 388.345 462.531 387.254C462.438 381.705 462.318 374.799 464.549 370.317C464.597 370.221 464.663 370.136 464.743 370.066C464.824 369.996 464.917 369.943 465.018 369.909C465.119 369.875 465.226 369.862 465.333 369.869C465.439 369.877 465.543 369.905 465.638 369.953C465.734 370 465.819 370.066 465.889 370.147C465.959 370.227 466.012 370.321 466.046 370.422C466.08 370.523 466.093 370.63 466.086 370.736C466.078 370.842 466.05 370.946 466.002 371.042C463.947 375.168 464.064 381.854 464.153 387.228C464.153 388.315 464.193 389.366 464.193 390.34C464.193 390.556 464.108 390.763 463.955 390.916C463.802 391.069 463.595 391.154 463.379 391.154V391.154Z" fill="#121212"/>
<path d="M475.073 373.429C475.009 373.427 474.946 373.42 474.883 373.406C474.665 373.355 474.475 373.22 474.356 373.03C474.237 372.84 474.198 372.61 474.248 372.391L476.775 361.296C476.799 361.189 476.843 361.087 476.906 360.997C476.969 360.907 477.049 360.83 477.142 360.771C477.235 360.712 477.338 360.672 477.446 360.653C477.555 360.634 477.666 360.637 477.773 360.661C477.989 360.71 478.176 360.842 478.295 361.029C478.414 361.216 478.454 361.442 478.408 361.658L475.884 372.757C475.844 372.944 475.743 373.112 475.595 373.234C475.448 373.356 475.264 373.425 475.073 373.429V373.429Z" fill="white"/>
<path d="M492.765 352.814C492.675 352.812 492.585 352.798 492.499 352.771C492.287 352.699 492.111 352.546 492.011 352.346C491.911 352.145 491.894 351.913 491.964 351.7L494.491 344.093C494.525 343.987 494.581 343.89 494.653 343.806C494.726 343.721 494.815 343.653 494.914 343.603C495.013 343.553 495.121 343.523 495.232 343.515C495.343 343.507 495.454 343.521 495.56 343.556C495.665 343.591 495.763 343.646 495.847 343.719C495.931 343.791 496 343.88 496.049 343.979C496.099 344.078 496.129 344.186 496.137 344.297C496.145 344.408 496.131 344.519 496.096 344.625L493.57 352.232C493.513 352.401 493.405 352.548 493.261 352.653C493.116 352.757 492.943 352.813 492.765 352.814V352.814Z" fill="white"/>
<path d="M509.839 342.666C509.709 342.665 509.58 342.636 509.463 342.58C509.363 342.53 509.274 342.462 509.201 342.378C509.128 342.295 509.072 342.197 509.036 342.092C509.001 341.987 508.987 341.875 508.994 341.765C509.002 341.654 509.031 341.545 509.081 341.446L513.194 333.196C513.299 333.006 513.474 332.863 513.682 332.798C513.891 332.733 514.116 332.751 514.311 332.849C514.506 332.946 514.656 333.116 514.729 333.321C514.802 333.527 514.793 333.752 514.703 333.951L510.597 342.197C510.527 342.338 510.419 342.457 510.285 342.54C510.151 342.623 509.996 342.666 509.839 342.666V342.666Z" fill="white"/>
<path d="M279.071 449.535C281.352 458.037 287.024 462.283 292.224 468.597C298.339 476.038 298.841 486.605 308.367 471.43C310.432 468.141 304.54 461.701 302.758 459.573C295.959 451.514 290.11 442.7 285.325 433.305C278.532 419.912 268.896 406.705 263.736 392.384C258.825 378.752 250.226 364.365 240.527 353.914C237.039 350.154 236.168 343.657 233.109 339.284C230.276 335.244 217.847 308.944 216.793 308.757C210.506 307.654 215.43 318.942 216.544 321.14C217.924 323.853 218.09 326.942 218.872 329.761C220.288 334.835 224.391 338.739 227.423 342.579C230.788 346.852 231.879 353.775 234.359 358.666C240.73 371.208 246.642 383.241 251.869 396.355C257.036 409.322 267.307 419.031 274.555 430.602C278.382 436.677 277.305 442.941 279.071 449.535Z" fill="#6E0105"/>
<path d="M360.782 352.924C360.49 352.926 360.206 352.827 359.978 352.645C359.844 352.539 359.732 352.408 359.649 352.26C359.566 352.111 359.513 351.947 359.494 351.778C359.474 351.609 359.488 351.437 359.534 351.273C359.581 351.11 359.659 350.956 359.765 350.823C360.34 350.101 374.089 333.121 396.732 335.604C397.074 335.643 397.387 335.815 397.602 336.084C397.817 336.352 397.917 336.695 397.879 337.037C397.834 337.376 397.66 337.683 397.394 337.897C397.128 338.11 396.79 338.213 396.45 338.185C375.263 335.824 361.926 352.266 361.796 352.435C361.675 352.588 361.521 352.711 361.345 352.796C361.17 352.881 360.977 352.925 360.782 352.924V352.924Z" fill="#121212"/>
<path d="M325.591 378.42C323.011 378.454 320.509 377.544 318.555 375.859C316.164 373.778 315.639 370.968 317.149 368.341C318.811 365.415 323.08 363.075 327.021 364.418C333.421 366.593 334.924 369.432 335.057 371.43C335.207 373.685 333.674 375.833 330.957 377.179C329.285 377.993 327.45 378.417 325.591 378.42V378.42ZM324.69 366.636C323.63 366.664 322.593 366.952 321.671 367.473C320.748 367.995 319.967 368.735 319.396 369.628C318.781 370.699 318.432 372.305 320.257 373.898C323.117 376.385 327.21 376.135 329.81 374.849C331.529 373.997 332.55 372.75 332.47 371.597C332.357 369.911 330.066 368.185 326.186 366.869C325.703 366.711 325.198 366.632 324.69 366.636V366.636Z" fill="#121212"/>
<path d="M436.173 331.673C434.484 331.673 433.038 331.095 432.07 329.981C430.76 328.465 429.829 325.389 432.852 319.341C434.707 315.624 439.359 314.27 442.621 315.181C445.54 315.983 447.146 318.35 446.917 321.499C446.548 326.486 442.687 329.954 439.026 331.171C438.108 331.489 437.145 331.659 436.173 331.673V331.673ZM440.556 317.509C438.511 317.509 436.15 318.543 435.173 320.501C433.341 324.159 432.925 327.002 434.032 328.282C434.79 329.153 436.39 329.323 438.208 328.717C440.962 327.806 444.05 325.1 444.326 321.319C444.506 318.905 443.123 317.994 441.932 317.682C441.485 317.564 441.025 317.506 440.562 317.509H440.556Z" fill="#121212"/>
<path d="M326.681 373.529C321.528 360.991 327.702 346.563 340.477 341.31C353.251 336.056 367.788 341.958 372.949 354.497C378.109 367.035 371.931 381.463 359.16 386.716C346.389 391.97 331.835 386.068 326.681 373.529Z" fill="white"/>
<path d="M349.528 389.927C339.26 389.927 329.578 383.942 325.484 374.024C320.068 360.84 326.572 345.625 339.988 340.109C353.405 334.593 368.743 340.827 374.149 354.001C379.556 367.174 373.069 382.393 359.652 387.916C356.441 389.242 353.002 389.926 349.528 389.927V389.927ZM327.882 373.033C332.76 384.887 346.572 390.499 358.665 385.515C370.758 380.531 376.62 366.845 371.752 354.988C366.884 343.131 353.052 337.539 340.972 342.506C328.893 347.474 323.017 361.176 327.885 373.033H327.882Z" fill="#121212"/>
<path d="M392.61 347.085C387.456 334.547 393.63 320.12 406.408 314.866C419.186 309.613 433.723 315.531 438.877 328.053C444.031 340.575 437.879 355.019 425.088 360.272C412.297 365.526 397.773 359.624 392.61 347.085Z" fill="white"/>
<path d="M415.455 363.484C405.188 363.484 395.505 357.499 391.412 347.581C385.992 334.397 392.496 319.182 405.912 313.666C412.332 310.992 419.548 310.963 425.989 313.586C429.152 314.856 432.028 316.747 434.448 319.148C436.868 321.548 438.783 324.408 440.079 327.56C441.376 330.713 442.028 334.093 441.996 337.501C441.965 340.909 441.251 344.277 439.897 347.405C437.833 352.175 434.419 356.239 430.076 359.096C425.733 361.952 420.65 363.478 415.452 363.484H415.455ZM393.809 346.593C398.691 358.454 412.499 364.043 424.596 359.075C430.406 356.712 435.05 352.151 437.517 346.384C438.732 343.572 439.373 340.546 439.4 337.483C439.428 334.42 438.842 331.383 437.676 328.55C436.511 325.717 434.791 323.146 432.616 320.989C430.441 318.832 427.857 317.132 425.015 315.99C419.203 313.627 412.694 313.655 406.903 316.067C394.807 321.054 388.948 334.733 393.813 346.593H393.809Z" fill="#121212"/>
<path d="M333.554 652.67C333.554 652.67 303.07 555.856 501.819 442.28C501.819 442.28 486.9 479.334 488.825 507.247C490.75 535.161 333.554 652.67 333.554 652.67Z" fill="#FFDABA"/>
<path d="M532.136 471.633C532.136 471.633 512.409 502.422 517.702 530.352L330.505 653.061C330.505 653.061 332.427 556.816 532.136 471.633Z" fill="#FFCA9C"/>
<path d="M552.349 504.843C552.349 504.843 323.765 600.603 333.87 652.579C333.87 652.579 550.906 553.444 582.666 546.705L576.369 544.321L575.039 539.858L570.653 539.237L570.051 534.754L567.215 534.538L565.326 530.166L565.42 527.173L562.005 527.985L560.542 522.801L557.1 521.651L558.74 517.76L554.49 516.833L555.401 511.28L551.368 511.157L552.349 504.843Z" fill="#E4A773"/>
<path d="M592.359 542.705L597.346 550.502C597.346 550.502 386.797 631.612 356.171 655.861L336.104 649.933C336.104 649.933 516.808 559.303 592.359 542.705Z" fill="#6E0105"/>
<path d="M329.7 657.297C329.7 657.297 361.936 559.316 163.181 445.744C163.181 445.744 178.1 482.801 176.175 510.715C174.25 538.628 329.7 657.297 329.7 657.297Z" fill="#FFDABA"/>
<path d="M132.864 475.101C132.864 475.101 152.598 505.9 147.301 533.813L334.498 656.529C334.498 656.529 332.58 560.277 132.864 475.101Z" fill="#FFCA9C"/>
<path d="M112.651 508.305C112.651 508.305 341.241 604.065 331.13 656.048C331.13 656.048 114.094 556.913 82.3335 550.173L88.6344 547.782L89.9644 543.327L94.3567 542.699L94.9585 538.223L97.7881 538.007L99.6767 533.635L99.5836 530.642L103.005 531.45L104.461 526.263L107.903 525.123L106.27 521.222L110.52 520.301L109.612 514.725L113.645 514.602L112.651 508.305Z" fill="#E4A773"/>
<path d="M72.6481 546.173L67.6406 553.96C67.6406 553.96 278.196 635.09 308.816 659.329L328.889 653.394C328.889 653.394 148.192 562.771 72.6481 546.173Z" fill="#6E0105"/>
<path d="M301.122 656.004C301.122 656.004 318.053 669.587 335.37 668.011C352.686 666.435 363.915 653.248 363.915 653.248C363.915 653.248 358.422 645.028 348.364 641.431C337.478 637.547 319.027 640.643 311.546 647.931C304.065 655.219 301.122 656.004 301.122 656.004Z" fill="#6E0105"/>
</svg>
