<svg width="806" height="980" viewBox="0 0 806 980" fill="none" xmlns="http://www.w3.org/2000/svg">
<path d="M328.167 703.998C184.28 703.998 67.6365 680.48 67.6365 651.467C67.6365 622.455 184.28 598.937 328.167 598.937C472.054 598.937 588.697 622.455 588.697 651.467C588.697 680.48 472.054 703.998 328.167 703.998Z" fill="#DDDDDD"/>
<path d="M485.613 673.22C486.052 673.22 486.478 673.077 486.829 672.814C487.18 672.551 487.435 672.181 487.557 671.76L575.41 369.906C575.544 369.395 575.473 368.853 575.212 368.394C574.952 367.936 574.523 367.596 574.016 367.449C573.509 367.302 572.964 367.359 572.499 367.607C572.033 367.855 571.682 368.275 571.522 368.777L483.667 670.629C483.579 670.931 483.562 671.249 483.618 671.559C483.675 671.868 483.803 672.16 483.991 672.411C484.18 672.663 484.425 672.867 484.707 673.007C484.988 673.147 485.299 673.22 485.613 673.22Z" fill="#6B3E25"/>
<path d="M549.96 473.516C550.493 473.501 551.02 473.394 551.517 473.202C553.843 472.276 554.554 469.602 554.891 468.315C561.242 444.341 567.041 419.874 572.104 395.597C572.274 394.785 572.593 393.692 572.932 392.536C574.198 388.187 575.785 382.779 573.58 379.741C571.788 377.275 566.609 375.797 560.526 374.257C559.022 373.875 557.726 373.546 556.888 373.268C545.812 369.566 534.539 366.483 523.12 364.032C512.901 361.839 502.016 360.199 491.927 363.05C490.134 363.556 487.836 364.338 485.95 365.934C481.201 369.954 481.29 376.619 481.368 382.498C481.368 383.004 481.383 383.51 481.386 383.993C481.467 395.283 478.366 406.538 475.369 417.423C472.349 428.381 469.228 439.714 469.238 451.292C469.238 452.868 469.322 454.68 470.299 456.243C471.777 458.611 474.562 459.344 477.055 459.845C500.51 464.561 524.34 469.091 547.882 473.308C548.565 473.45 549.262 473.519 549.96 473.516Z" fill="#925024"/>
<path d="M586.262 422.437L587.274 420.12C516.275 389.003 440.074 371.444 362.608 368.351L362.509 370.88C438.897 373.885 516.268 391.712 586.262 422.437Z" fill="#773D1D"/>
<path d="M582.437 443.562L583.381 441.214C517.045 414.54 447.146 397.749 375.925 391.38L375.7 393.91C446.674 400.254 516.33 416.983 582.437 443.562V443.562Z" fill="#773D1D"/>
<path d="M576.901 463.903L577.734 461.515C512.058 438.623 443.088 426.575 373.536 425.847L373.511 428.376H374.485C443.439 429.162 511.806 441.161 576.901 463.903V463.903Z" fill="#773D1D"/>
<path d="M595.127 399.25L596 396.875C543.787 377.715 488.995 366.485 433.45 363.559C427.357 363.235 421.436 363.114 415.984 365.112L416.855 367.487C421.864 365.651 427.274 365.765 433.308 366.084C488.603 368.996 543.149 380.176 595.127 399.25V399.25Z" fill="#773D1D"/>
<path d="M543.887 651.935C544.196 651.935 544.501 651.864 544.778 651.728C545.055 651.592 545.298 651.394 545.487 651.15C545.676 650.906 545.807 650.621 545.869 650.319C545.931 650.017 545.924 649.704 545.846 649.405C534.75 607.385 519.853 566.46 501.338 527.136C501.109 526.651 500.696 526.276 500.191 526.094C499.685 525.912 499.128 525.939 498.642 526.168C498.156 526.396 497.781 526.809 497.599 527.314C497.417 527.819 497.444 528.376 497.672 528.862C516.085 567.961 530.899 608.654 541.93 650.437C542.046 650.867 542.301 651.247 542.654 651.518C543.008 651.789 543.441 651.935 543.887 651.935Z" fill="#6B3E25"/>
<path d="M396.966 636.985C397.404 636.985 397.831 636.843 398.182 636.58C398.532 636.316 398.788 635.947 398.91 635.526L486.775 333.671C486.909 333.161 486.838 332.619 486.578 332.16C486.317 331.701 485.888 331.362 485.381 331.215C484.874 331.068 484.33 331.124 483.864 331.372C483.398 331.621 483.048 332.041 482.887 332.543L395.032 634.395C394.957 634.65 394.934 634.918 394.963 635.182C394.992 635.446 395.073 635.702 395.201 635.935C395.329 636.169 395.502 636.374 395.71 636.54C395.918 636.707 396.156 636.83 396.411 636.904C396.592 636.956 396.778 636.983 396.966 636.985V636.985Z" fill="#6B3E25"/>
<path d="M455.252 615.701C455.561 615.7 455.866 615.629 456.143 615.493C456.421 615.357 456.663 615.16 456.852 614.915C457.041 614.671 457.172 614.387 457.234 614.085C457.297 613.782 457.289 613.47 457.212 613.171C446.118 571.149 431.22 530.223 412.703 490.9C412.593 490.654 412.435 490.432 412.239 490.248C412.042 490.064 411.811 489.921 411.558 489.827C411.306 489.734 411.037 489.692 410.768 489.703C410.499 489.714 410.234 489.78 409.991 489.894C409.747 490.009 409.529 490.171 409.348 490.371C409.168 490.572 409.03 490.806 408.941 491.06C408.853 491.314 408.816 491.584 408.833 491.852C408.85 492.121 408.92 492.384 409.04 492.625C427.451 531.724 442.264 572.416 453.296 614.198C453.411 614.629 453.665 615.01 454.018 615.282C454.372 615.553 454.806 615.701 455.252 615.701Z" fill="#6B3E25"/>
<path d="M532.329 531.121C496.949 545.146 457.544 547.883 420.351 539.788C413.916 538.389 407.372 538.136 401.773 534.668C396.174 531.2 391.476 525.854 390.05 519.427C388.279 511.435 391.891 502.943 397.703 497.165C403.515 491.388 411.245 487.97 419.039 485.446C453.592 474.257 491.608 478.868 526.024 490.482C535.514 493.682 547.621 499.424 549.297 510.775C550.871 521.438 540.832 527.749 532.329 531.121Z" fill="#925024"/>
<path d="M460.88 545.697C462.466 545.697 464.069 545.67 465.689 545.616C480.806 545.11 497.407 542.305 516.438 537.043C529.173 533.522 541.946 528.814 549.107 518.288C549.223 518.124 549.304 517.938 549.348 517.741C549.391 517.545 549.394 517.342 549.358 517.144C549.322 516.946 549.247 516.757 549.137 516.588C549.027 516.42 548.885 516.275 548.718 516.161C548.552 516.048 548.365 515.969 548.167 515.929C547.97 515.889 547.767 515.888 547.569 515.927C547.372 515.966 547.184 516.044 547.017 516.156C546.85 516.269 546.707 516.413 546.596 516.581C539.984 526.297 527.806 530.747 515.628 534.117C474.038 545.614 442.768 545.573 417.222 533.99C417.04 533.904 416.842 533.856 416.641 533.847C416.44 533.838 416.239 533.869 416.05 533.939C415.861 534.008 415.688 534.115 415.54 534.252C415.393 534.389 415.274 534.554 415.191 534.737C415.108 534.92 415.062 535.118 415.056 535.319C415.05 535.521 415.085 535.721 415.157 535.909C415.229 536.096 415.339 536.268 415.478 536.413C415.617 536.559 415.784 536.675 415.969 536.755C429.068 542.695 444.155 545.697 460.88 545.697Z" fill="#A56549"/>
<path d="M469.959 287.515C470.626 287.532 471.287 287.386 471.883 287.088C477.386 284.184 472.22 271.953 469.445 265.381C469.068 264.485 468.742 263.714 468.554 263.22C467.562 260.574 466.512 258.032 464.6 255.983C462.322 253.524 459.115 252.211 456.303 251.177C450.198 248.923 443.928 247.147 437.548 245.864C432.784 244.908 427.296 244.256 422.732 246.649C420.102 248.025 418.117 250.231 416.462 252.194C412.506 256.883 409 261.933 405.99 267.278C405.902 267.434 405.848 267.607 405.832 267.786C405.816 267.964 405.838 268.144 405.897 268.314C405.956 268.483 406.05 268.638 406.174 268.768C406.297 268.898 406.446 269.001 406.612 269.069C413.622 271.933 421.17 273.175 428.471 274.381C434.293 275.34 440.325 276.332 445.975 278.143C449.726 279.347 453.427 280.951 457.006 282.504C457.622 282.77 458.237 283.038 458.852 283.301C459.338 283.511 460.029 283.86 460.829 284.267C464.243 285.997 467.509 287.515 469.959 287.515Z" fill="#E5AE57"/>
<path d="M390.949 362.775C384.734 371.925 381.147 382.585 378.252 393.257C377.12 397.431 376.077 401.669 375.91 405.989L343.301 396.361C342.727 405.603 343.253 414.88 344.866 423.998C345.858 429.588 347.293 435.199 350.227 440.061C352.782 444.28 356.368 447.78 360.649 450.233C363.246 451.715 366.137 452.806 369.129 452.866C373.234 452.945 377.133 451.096 380.616 448.918C392.862 441.273 401.937 429.28 408.134 416.244C414.331 403.209 417.857 389.086 420.907 374.983C422.725 366.58 426.329 350.787 415.113 347.035C405.539 343.828 395.576 355.96 390.949 362.775Z" fill="#A6995A"/>
<path d="M484.732 290.883C482.414 286.582 478.819 283.124 474.994 280.093C454.911 264.187 427.613 259.196 402.246 262.826C397.252 263.539 392.199 264.597 387.848 267.147C383.496 269.697 379.894 273.949 379.241 278.948C378.614 283.817 380.872 288.722 384.251 292.289C387.63 295.856 392.027 298.267 396.457 300.384C411.802 307.72 428.408 312.149 445.228 314.446C452.929 315.508 460.679 316.172 468.448 316.435C473.174 316.589 477.262 316.126 480.852 312.779C487.193 306.852 488.922 298.646 484.732 290.883Z" fill="#BA743A"/>
<path d="M448.02 310.336C450.568 315.645 454.559 320.131 459.538 323.28C461.191 324.32 462.973 325.233 464.279 326.685C465.585 328.137 466.304 330.335 465.416 332.07C465.026 332.829 464.375 333.419 463.74 333.988L453.615 343.052C450.83 345.551 448.01 348.071 444.773 349.96C441.636 351.792 438.161 352.996 434.617 353.798C433.858 353.97 433.06 354.119 432.339 353.864C431.453 353.55 430.876 352.71 430.4 351.898C426.767 345.708 425.4 338.415 425.198 331.241C425.036 325.63 425.595 319.845 428.124 314.833C430.653 309.822 435.452 305.691 441.034 305.152C443.499 306.526 446.808 307.796 448.02 310.336Z" fill="#C17161"/>
<path d="M292.224 590.822C297.53 589.423 302.502 586.976 306.847 583.625C309.493 581.584 311.933 579.188 314.978 577.807C325.964 572.819 329.837 587.066 323.63 593.997C320.34 597.657 316.674 600.691 313.611 604.606C311.513 607.29 310.731 609.023 307.161 608.307C304.721 607.819 302.352 606.557 300.357 605.095C295.821 601.758 292.631 596.476 292.224 590.822Z" fill="#C7DDD5"/>
<path d="M418.178 657.809C418.206 658.439 418.231 659.089 418.001 659.676C417.581 660.751 416.437 661.338 415.351 661.735C408.665 664.186 400.712 662.788 395.264 658.194C394.589 657.624 393.93 656.987 393.591 656.17C393.201 655.234 393.275 654.182 393.353 653.172C393.811 647.253 394.27 641.333 394.73 635.412C394.918 633.018 395.113 630.582 395.996 628.344C396.879 626.105 398.527 624.043 400.806 623.3C402.886 622.614 405.162 623.079 407.263 623.699C409.994 624.504 412.723 625.604 414.784 627.567C418.502 631.109 417.452 635.133 417.388 639.611C417.295 645.654 417.912 651.786 418.178 657.809Z" fill="#C7DDD5"/>
<path d="M409.116 645.462C413.06 645.462 419.457 644.897 424.304 641.733C428.051 639.292 427.595 635.816 427.198 632.75C427.086 631.913 426.975 631.048 426.932 630.185C426.028 611.898 429.091 593.457 432.053 575.62C435.652 553.933 439.378 531.51 436.06 509.052C434.485 498.39 431.554 490.649 426.836 484.689C420.738 476.986 411.435 473.025 403.135 474.601C397.389 475.688 392.017 479.331 388.01 484.856C379.421 496.692 379.768 512.348 381.239 526.089C381.839 531.675 382.603 537.329 383.342 542.785C384.545 551.669 385.788 560.854 386.334 569.928C386.772 577.204 386.775 584.638 386.777 591.825L386.8 640.243C386.8 640.518 386.889 640.785 387.054 641.005C387.22 641.224 387.452 641.384 387.716 641.46C393.941 643.23 400.993 645.254 408.091 645.424L408.124 644.159L408.091 645.424C408.418 645.462 408.759 645.462 409.116 645.462Z" fill="#5A525D"/>
<path d="M298.325 579.886C314.685 544.094 334.308 509.884 356.946 477.688C361.226 471.616 365.552 465.798 371.374 461.66C379.08 456.173 388.443 454.245 396.586 453.084C409.332 451.263 422.943 450.729 440.72 451.351C454.878 451.857 471.484 453.011 487.297 457.875C504.004 463.01 517.66 471.743 526.803 483.126C527.008 483.496 527.137 483.903 527.183 484.323C526.902 491.955 523.946 499.501 518.632 506.164C513.752 512.278 506.988 517.406 499.586 520.606C489.532 524.952 478.667 526.201 468.937 526.201C463.613 526.172 458.294 525.852 453.005 525.243C435.548 523.333 418.382 519.346 401.872 513.368C375.148 541.789 342.036 579.198 330.308 606C330.217 606.207 329.362 607.517 328.919 607.517C328.702 607.518 328.489 607.463 328.301 607.356C316.859 600.943 306.531 591.892 298.464 581.181C298.325 580.998 298.239 580.781 298.215 580.553C298.19 580.325 298.228 580.094 298.325 579.886V579.886Z" fill="#5A525D"/>
<path d="M526.15 494.464C526.292 494.464 526.434 494.44 526.568 494.393C526.792 494.315 526.989 494.175 527.138 493.991C527.286 493.806 527.38 493.583 527.408 493.348C530.175 470.042 530.712 446.525 529.013 423.117C527.864 407.344 525.368 386.998 516.184 369.488C506.398 350.842 488.899 335.611 468.17 327.701C468.007 327.638 467.833 327.609 467.659 327.616C467.485 327.624 467.314 327.667 467.157 327.744C464.039 329.261 460.966 330.921 457.994 332.537C455.022 334.154 452.002 335.793 448.937 337.273C447.691 337.875 446.279 338.558 445.14 339.641C444.43 340.35 443.797 341.131 443.249 341.97C442.91 342.456 442.591 342.914 442.236 343.331C440.7 345.165 438.092 347.687 435.402 347.768C432.711 347.849 430.417 345.477 428.772 343.739C428.597 343.554 428.428 343.359 428.266 343.164C427.544 342.342 426.722 341.411 425.481 340.969C423.841 340.382 422.117 340.933 420.976 341.3C415.865 342.939 410.668 344.93 408.215 349.577C407.19 351.522 406.818 353.663 406.496 355.868C403.58 375.898 403.965 396.452 404.327 416.327C404.58 429.525 404.833 443.172 404.107 456.524C404.096 456.726 404.134 456.928 404.217 457.113C404.301 457.297 404.428 457.459 404.587 457.585C404.746 457.71 404.934 457.796 405.133 457.834C405.332 457.872 405.537 457.862 405.732 457.804C409.724 456.615 414.014 456.357 418.166 456.109C438.654 454.882 461.877 453.488 482.112 461.978C499.072 469.091 513.273 482.283 525.257 494.089C525.374 494.207 525.513 494.301 525.666 494.365C525.819 494.429 525.984 494.463 526.15 494.464V494.464Z" fill="#7F673D"/>
<path d="M443.575 346.923C442.899 346.594 442.193 346.331 441.466 346.137C440.484 345.884 439.763 346.405 438.735 346.564C439.398 344.035 440.864 341.545 442.314 340.422C443.689 339.36 445.198 338.543 446.658 337.753C447.076 337.526 447.494 337.301 447.909 337.07C452.601 334.447 456.835 331.078 460.444 327.096C461.003 326.479 461.52 325.831 461.492 325.272C461.441 324.212 459.409 323.6 458.535 323.385C458.275 323.321 458.043 323.176 457.87 322.972C457.698 322.768 457.595 322.514 457.575 322.247C457.556 321.981 457.622 321.715 457.764 321.488C457.905 321.261 458.115 321.085 458.363 320.984C462.542 319.289 467.673 321.012 469.805 324.824C470.817 326.658 471.265 328.933 471.103 331.589C470.888 335.155 469.676 338.95 467.395 343.182C464.603 348.375 460.946 353.054 456.581 357.019C456.348 357.231 456.043 357.349 455.728 357.348C455.667 357.353 455.605 357.353 455.543 357.348C455.358 357.321 455.18 357.252 455.025 357.147C454.869 357.043 454.738 356.905 454.642 356.744C452.407 352.99 449.291 350.015 445.117 347.637C444.63 347.344 444.113 347.105 443.575 346.923V346.923Z" fill="#C7DDD5"/>
<path d="M416.331 337.501C418.563 331.708 423.606 327.448 430.162 325.817C430.433 325.749 430.718 325.773 430.974 325.885C431.229 325.996 431.441 326.189 431.576 326.433C431.711 326.677 431.761 326.959 431.719 327.234C431.677 327.51 431.545 327.764 431.344 327.957C429.899 329.392 428.847 331.175 428.289 333.133C427.731 335.091 427.686 337.16 428.157 339.141C428.519 340.545 429.137 341.88 429.792 343.292C430.38 344.557 432.07 346.676 432.149 346.95C432.149 346.95 429.051 346.816 428.567 346.75C427.965 346.798 427.21 346.821 426.61 347.074C426.311 347.157 426.02 347.265 425.74 347.397C425.659 347.403 425.58 347.424 425.507 347.458C425.203 347.629 424.919 347.834 424.661 348.068C424.502 348.194 424.351 348.329 424.208 348.472L423.358 349.573C423.297 349.666 423.241 349.762 423.191 349.861C422.97 350.188 422.765 350.519 422.563 350.84C422.563 350.84 420.305 355.634 419.869 355.634C419.7 355.634 415.047 349.816 414.936 345.892C414.846 343.031 415.32 340.18 416.331 337.501V337.501Z" fill="#C7DDD5"/>
<path d="M373.723 404.386C375.807 404.386 377.837 403.804 378.988 401.8C380.689 398.836 378.09 395.377 376.191 392.853C375.796 392.327 375.432 391.841 375.161 391.429C365.405 376.529 355.237 364.726 344.076 355.341C337.141 349.459 329.503 344.459 321.337 340.456C321.09 340.337 320.81 340.301 320.541 340.354C320.272 340.407 320.027 340.547 319.844 340.751C319.66 340.956 319.549 341.214 319.526 341.488C319.502 341.761 319.569 342.035 319.715 342.267C329.989 358.657 336.75 376.998 339.57 396.131C339.717 397.143 340.684 397.578 342.935 398.223C344.329 398.621 346.334 399.106 348.888 399.665C353.536 400.677 359.15 401.747 363.249 402.529C365.793 403.015 367.805 403.397 368.425 403.541L368.64 403.591C369.984 403.925 371.873 404.386 373.723 404.386Z" fill="#D8C5AF"/>
<path d="M366.739 401.478C366.963 401.478 367.179 401.393 367.343 401.241C367.507 401.088 367.607 400.879 367.623 400.656C368.088 394.075 367.162 387.469 364.904 381.269C364.823 381.048 364.658 380.868 364.445 380.769C364.232 380.67 363.988 380.66 363.767 380.74C363.546 380.821 363.367 380.986 363.267 381.199C363.168 381.412 363.158 381.655 363.238 381.876C365.412 387.84 366.304 394.195 365.856 400.527C365.847 400.643 365.861 400.76 365.898 400.871C365.935 400.981 365.993 401.083 366.069 401.172C366.145 401.26 366.238 401.332 366.342 401.384C366.446 401.436 366.56 401.467 366.676 401.476L366.739 401.478Z" fill="#A08C78"/>
<path d="M359.302 398.893C359.528 398.893 359.745 398.806 359.909 398.651C360.074 398.496 360.172 398.284 360.185 398.058C360.652 389.92 359.797 381.76 357.654 373.895C357.572 373.696 357.419 373.533 357.225 373.438C357.032 373.343 356.81 373.322 356.602 373.379C356.393 373.436 356.213 373.567 356.095 373.747C355.976 373.927 355.927 374.145 355.958 374.358C358.049 382.04 358.881 390.009 358.423 397.957C358.411 398.192 358.492 398.422 358.648 398.597C358.805 398.772 359.024 398.879 359.259 398.893H359.302Z" fill="#A08C78"/>
<path d="M354.351 397.94C354.567 397.94 354.775 397.862 354.937 397.719C355.099 397.576 355.203 397.38 355.229 397.166C356.471 387.294 355.498 377.271 352.382 367.822C352.308 367.598 352.148 367.414 351.938 367.308C351.728 367.203 351.485 367.185 351.261 367.259C351.038 367.333 350.853 367.492 350.748 367.702C350.642 367.912 350.624 368.155 350.698 368.378C353.596 377.169 354.592 386.476 353.619 395.681C353.592 395.751 353.575 395.825 353.569 395.901L353.47 396.958C353.448 397.19 353.518 397.42 353.665 397.601C353.812 397.781 354.024 397.896 354.255 397.922L354.351 397.94Z" fill="#A08C78"/>
<path d="M349.202 396.763C349.432 396.763 349.652 396.673 349.817 396.514C349.982 396.355 350.079 396.137 350.088 395.908L350.156 394.016C350.16 393.887 350.136 393.758 350.085 393.639C349.965 382.573 348.298 371.578 345.134 360.973C345.101 360.862 345.046 360.758 344.973 360.668C344.899 360.578 344.809 360.503 344.706 360.447C344.604 360.392 344.492 360.357 344.376 360.346C344.26 360.334 344.143 360.344 344.032 360.378C343.92 360.411 343.816 360.466 343.726 360.539C343.636 360.612 343.561 360.703 343.505 360.805C343.45 360.907 343.415 361.02 343.403 361.135C343.391 361.251 343.402 361.368 343.436 361.479C346.767 372.641 348.412 384.236 348.316 395.883C348.314 396.116 348.404 396.34 348.567 396.508C348.729 396.675 348.951 396.771 349.184 396.776L349.202 396.763Z" fill="#A08C78"/>
<path d="M344.061 394.872H344.111C344.228 394.866 344.342 394.837 344.447 394.786C344.552 394.736 344.646 394.665 344.723 394.579C344.801 394.492 344.861 394.391 344.899 394.281C344.937 394.171 344.954 394.054 344.947 393.938C344.147 379.49 340.678 365.316 334.713 352.131C334.665 352.024 334.597 351.928 334.512 351.848C334.427 351.768 334.328 351.705 334.219 351.663C334.109 351.622 333.993 351.602 333.877 351.606C333.76 351.609 333.645 351.636 333.539 351.684C333.432 351.732 333.336 351.8 333.257 351.886C333.177 351.971 333.115 352.071 333.074 352.18C333.033 352.289 333.014 352.405 333.018 352.522C333.022 352.638 333.049 352.753 333.098 352.859C338.973 365.846 342.39 379.809 343.177 394.039C343.191 394.265 343.29 394.476 343.454 394.631C343.618 394.785 343.835 394.872 344.061 394.872V394.872Z" fill="#A08C78"/>
<path d="M338.998 395.097C339.078 394.897 339.207 394.721 339.374 394.585C339.541 394.449 339.74 394.358 339.952 394.32L419.297 380.266C426.666 378.96 434.283 377.609 441.375 374.986C441.538 374.926 441.712 374.9 441.886 374.909C442.059 374.919 442.229 374.964 442.385 375.042C442.54 375.12 442.677 375.229 442.789 375.363C442.9 375.497 442.982 375.652 443.031 375.818C444.165 379.722 445.274 383.64 446.344 387.43C447.415 391.219 448.521 395.132 449.655 399.028C454.994 417.391 460.517 436.379 471.053 452.705C473.288 456.168 475.794 459.573 478.219 462.864C482.601 468.814 486.674 477.536 490.321 481.806C490.575 482.115 491.248 482.58 491.154 483.193C491.129 483.357 491.071 483.515 490.985 483.657C490.899 483.799 490.785 483.922 490.651 484.021C490.517 484.119 490.364 484.19 490.203 484.229C490.041 484.268 489.873 484.275 489.709 484.25C473.45 481.746 456.637 479.155 439.938 478.662C421.117 478.108 397.54 480.984 391.733 485.629C390.453 486.64 389.686 486.387 389.584 486.387C389.302 486.387 389.027 486.292 388.805 486.118C388.582 485.944 388.424 485.7 388.357 485.426C386.169 476.555 383.572 467.17 379.406 458.632C377.279 454.278 374.72 450.084 372.283 446.161C362.625 430.629 351.308 412.686 339.16 396.311C339.032 396.139 338.95 395.937 338.922 395.725C338.894 395.513 338.92 395.297 338.998 395.097V395.097Z" fill="#EDE1C8"/>
<path d="M469.21 472.044C469.428 472.044 469.638 471.964 469.8 471.819C469.963 471.674 470.066 471.475 470.091 471.259C470.116 471.043 470.06 470.825 469.934 470.648C469.809 470.47 469.622 470.345 469.41 470.296L467.747 469.906C467.664 469.888 467.579 469.88 467.494 469.883C455.873 467.553 443.953 468.366 432.379 469.142C432.144 469.158 431.925 469.266 431.77 469.443C431.615 469.621 431.537 469.852 431.553 470.087C431.569 470.322 431.677 470.541 431.854 470.696C432.032 470.851 432.263 470.929 432.498 470.913C444.563 470.098 457.037 469.256 468.998 472.026C469.068 472.04 469.139 472.046 469.21 472.044V472.044Z" fill="#A08C78"/>
<path d="M431.964 467.755H432.07L433.118 467.626C433.23 467.614 433.337 467.58 433.435 467.525C444.399 465.737 455.533 465.218 466.616 465.98C466.732 465.988 466.849 465.973 466.959 465.935C467.07 465.898 467.172 465.84 467.26 465.763C467.348 465.687 467.42 465.594 467.472 465.489C467.524 465.385 467.554 465.271 467.562 465.155C467.57 465.039 467.555 464.922 467.518 464.812C467.481 464.701 467.422 464.599 467.346 464.511C467.269 464.423 467.176 464.351 467.072 464.299C466.967 464.248 466.854 464.217 466.737 464.209C455.063 463.405 443.335 464.005 431.805 465.997C431.57 466.017 431.352 466.13 431.2 466.31C431.049 466.491 430.975 466.724 430.995 466.959C431.015 467.193 431.127 467.411 431.308 467.562C431.488 467.714 431.722 467.788 431.957 467.768L431.964 467.755Z" fill="#A08C78"/>
<path d="M428.207 461.219C428.405 461.22 428.598 461.167 428.767 461.064C428.954 460.946 429.096 460.768 429.169 460.558L460.115 456.784C460.231 456.77 460.344 456.733 460.446 456.676C460.548 456.618 460.638 456.541 460.71 456.449C460.782 456.357 460.836 456.251 460.867 456.138C460.899 456.025 460.908 455.907 460.893 455.791C460.879 455.675 460.842 455.563 460.785 455.461C460.727 455.359 460.65 455.269 460.558 455.197C460.466 455.124 460.36 455.071 460.247 455.04C460.134 455.008 460.016 454.999 459.9 455.013L428.448 458.848C427.461 458.97 427.182 459.526 427.089 459.86C427.037 460.068 427.048 460.286 427.122 460.488C427.195 460.689 427.327 460.863 427.501 460.988C427.707 461.137 427.954 461.218 428.207 461.219V461.219Z" fill="#A08C78"/>
<path d="M427.557 457.655C427.601 457.657 427.646 457.657 427.691 457.655L457.869 453.101C457.986 453.086 458.098 453.047 458.199 452.987C458.3 452.928 458.389 452.849 458.459 452.755C458.53 452.661 458.581 452.554 458.609 452.44C458.638 452.326 458.643 452.207 458.626 452.091C458.608 451.975 458.568 451.864 458.506 451.764C458.445 451.663 458.365 451.576 458.27 451.507C458.175 451.439 458.067 451.389 457.952 451.362C457.838 451.335 457.72 451.332 457.604 451.351L427.425 455.904C427.19 455.922 426.972 456.032 426.818 456.21C426.664 456.389 426.587 456.621 426.605 456.856C426.622 457.09 426.732 457.309 426.911 457.462C427.089 457.616 427.322 457.693 427.557 457.675V457.655Z" fill="#A08C78"/>
<path d="M424.378 449.797C424.532 449.797 424.682 449.756 424.816 449.679C424.949 449.603 425.06 449.492 425.137 449.36L453.589 444.649C453.821 444.611 454.029 444.482 454.166 444.292C454.303 444.101 454.358 443.863 454.32 443.631C454.281 443.399 454.153 443.192 453.962 443.055C453.77 442.919 453.533 442.863 453.301 442.901L422.294 448.037C422.06 448.056 421.842 448.167 421.689 448.347C421.537 448.527 421.462 448.759 421.481 448.994C421.5 449.229 421.611 449.447 421.791 449.599C421.971 449.752 422.204 449.827 422.439 449.807L424.378 449.797Z" fill="#A08C78"/>
<path d="M421.495 445.161C421.541 445.165 421.587 445.165 421.634 445.161C431.167 443.661 440.771 441.812 450.175 439.661C450.397 439.603 450.588 439.46 450.707 439.264C450.826 439.067 450.863 438.832 450.812 438.608C450.761 438.384 450.625 438.189 450.432 438.063C450.239 437.938 450.005 437.892 449.78 437.936C440.414 440.076 430.853 441.918 421.358 443.413C421.123 443.431 420.905 443.542 420.751 443.72C420.598 443.899 420.522 444.132 420.54 444.367C420.558 444.601 420.669 444.819 420.848 444.973C421.027 445.126 421.26 445.202 421.495 445.184V445.161Z" fill="#A08C78"/>
<path d="M418.019 438.708C418.068 438.713 418.117 438.713 418.166 438.708C427.635 437.14 437.151 435.134 446.453 432.748C446.566 432.719 446.672 432.668 446.765 432.598C446.858 432.528 446.936 432.441 446.995 432.34C447.054 432.24 447.093 432.129 447.109 432.014C447.126 431.899 447.119 431.782 447.09 431.669C447.061 431.557 447.01 431.451 446.94 431.358C446.87 431.265 446.782 431.187 446.682 431.128C446.582 431.069 446.471 431.03 446.356 431.014C446.24 430.997 446.123 431.004 446.01 431.033C436.761 433.406 427.294 435.402 417.875 436.963C417.64 436.982 417.422 437.093 417.269 437.273C417.117 437.452 417.042 437.685 417.061 437.92C417.08 438.155 417.192 438.372 417.371 438.525C417.551 438.677 417.784 438.752 418.019 438.733V438.708Z" fill="#A08C78"/>
<path d="M413.82 431.155H413.86L414.923 431.107C415.108 431.098 415.286 431.031 415.43 430.915C424.482 429.475 433.569 427.649 442.459 425.484C442.575 425.459 442.685 425.411 442.782 425.344C442.879 425.276 442.961 425.189 443.024 425.089C443.087 424.989 443.13 424.877 443.149 424.76C443.168 424.643 443.163 424.524 443.135 424.409C443.107 424.294 443.057 424.186 442.986 424.091C442.916 423.996 442.827 423.916 442.725 423.855C442.623 423.795 442.51 423.756 442.392 423.74C442.275 423.725 442.156 423.732 442.042 423.763C432.714 426.04 423.17 427.932 413.678 429.397C413.443 429.415 413.225 429.525 413.071 429.704C412.917 429.882 412.841 430.115 412.859 430.349C412.877 430.584 412.987 430.802 413.166 430.956C413.345 431.109 413.577 431.186 413.812 431.168L413.82 431.155Z" fill="#A08C78"/>
<path d="M413.447 424.802C413.502 424.802 413.556 424.797 413.609 424.787L438.085 420.279C438.316 420.237 438.521 420.104 438.655 419.911C438.789 419.718 438.84 419.479 438.798 419.248C438.755 419.017 438.623 418.812 438.429 418.678C438.236 418.545 437.997 418.494 437.766 418.536L413.288 423.044C413.053 423.065 412.836 423.178 412.685 423.359C412.534 423.54 412.461 423.774 412.482 424.009C412.503 424.244 412.617 424.46 412.798 424.612C412.979 424.763 413.212 424.836 413.447 424.815V424.802Z" fill="#A08C78"/>
<path d="M408.263 414.425C408.329 414.425 408.394 414.417 408.458 414.402L414.518 413.031C414.748 412.979 414.947 412.838 415.072 412.639C415.197 412.441 415.239 412.2 415.187 411.971C415.134 411.742 414.994 411.543 414.795 411.418C414.596 411.292 414.355 411.251 414.126 411.303L408.068 412.674C407.854 412.721 407.665 412.845 407.537 413.023C407.409 413.201 407.352 413.42 407.376 413.637C407.4 413.855 407.504 414.056 407.668 414.201C407.832 414.347 408.044 414.426 408.263 414.425V414.425Z" fill="#A08C78"/>
<path d="M405.691 404.426C405.772 404.426 405.853 404.415 405.932 404.393C413.164 402.369 420.575 400.639 427.954 399.26C428.186 399.217 428.39 399.083 428.523 398.889C428.656 398.695 428.706 398.457 428.663 398.225C428.62 397.994 428.486 397.79 428.292 397.657C428.098 397.524 427.859 397.474 427.628 397.517C420.193 398.908 412.731 400.649 405.448 402.688C405.242 402.745 405.064 402.876 404.947 403.055C404.829 403.233 404.781 403.448 404.81 403.66C404.839 403.872 404.943 404.066 405.104 404.207C405.266 404.348 405.472 404.425 405.686 404.426H405.691Z" fill="#A08C78"/>
<path d="M401.958 399.832C402.043 399.833 402.129 399.821 402.211 399.797C408.033 398.078 413.949 396.695 419.93 395.653C420.049 395.637 420.163 395.598 420.266 395.537C420.369 395.477 420.458 395.396 420.529 395.3C420.6 395.203 420.65 395.094 420.678 394.978C420.705 394.861 420.709 394.741 420.688 394.623C420.668 394.505 420.623 394.393 420.558 394.293C420.493 394.193 420.409 394.107 420.309 394.04C420.21 393.974 420.099 393.928 419.981 393.905C419.864 393.883 419.743 393.885 419.626 393.91C413.582 394.962 407.603 396.361 401.72 398.099C401.517 398.161 401.342 398.293 401.228 398.472C401.115 398.651 401.069 398.865 401.1 399.074C401.13 399.284 401.235 399.476 401.395 399.615C401.556 399.754 401.761 399.831 401.973 399.832H401.958Z" fill="#A08C78"/>
<path d="M393.82 476.346C393.976 476.345 394.131 476.325 394.283 476.287C404.819 473.691 415.588 472.15 426.431 471.689C426.666 471.679 426.887 471.576 427.046 471.403C427.206 471.23 427.29 471.001 427.28 470.766C427.27 470.532 427.168 470.31 426.995 470.151C426.822 469.992 426.592 469.908 426.357 469.918C415.53 470.38 404.775 471.905 394.247 474.471C394.106 474.372 393.945 474.306 393.775 474.277C393.605 474.249 393.431 474.259 393.265 474.307C393.022 474.382 392.819 474.549 392.698 474.772C392.576 474.995 392.548 475.257 392.617 475.501C392.694 475.756 392.854 475.978 393.072 476.131C393.29 476.284 393.553 476.36 393.82 476.346V476.346Z" fill="#A08C78"/>
<path d="M389.304 472.661C389.372 472.661 389.44 472.654 389.506 472.639C400.922 469.983 412.5 468.075 424.165 466.929C424.4 466.906 424.616 466.791 424.766 466.609C424.916 466.427 424.988 466.193 424.965 465.958C424.942 465.723 424.827 465.507 424.645 465.357C424.462 465.207 424.228 465.136 423.993 465.158C412.25 466.317 400.596 468.24 389.104 470.916C388.892 470.965 388.705 471.09 388.579 471.268C388.454 471.446 388.398 471.663 388.423 471.879C388.448 472.095 388.551 472.295 388.714 472.439C388.876 472.584 389.086 472.664 389.304 472.664V472.661Z" fill="#A08C78"/>
<path d="M390.169 467.187C390.247 467.187 390.324 467.176 390.399 467.157C400.822 464.365 411.437 462.351 422.158 461.131C422.393 461.104 422.607 460.986 422.755 460.801C422.902 460.616 422.97 460.38 422.944 460.146C422.917 459.911 422.798 459.696 422.613 459.549C422.428 459.401 422.193 459.334 421.958 459.36C411.149 460.589 400.447 462.619 389.939 465.431C389.731 465.487 389.551 465.616 389.432 465.795C389.312 465.974 389.262 466.19 389.29 466.402C389.319 466.615 389.423 466.811 389.585 466.952C389.747 467.094 389.954 467.172 390.169 467.172V467.187Z" fill="#A08C78"/>
<path d="M385.281 461.207C385.344 461.207 385.407 461.2 385.468 461.187C397.366 458.629 409.539 456.575 421.623 455.08C421.74 455.066 421.852 455.029 421.954 454.971C422.056 454.913 422.146 454.836 422.218 454.744C422.29 454.652 422.343 454.546 422.375 454.433C422.406 454.32 422.415 454.202 422.401 454.086C422.386 453.97 422.349 453.857 422.291 453.755C422.234 453.653 422.156 453.564 422.064 453.492C421.972 453.42 421.866 453.366 421.753 453.335C421.64 453.304 421.522 453.295 421.406 453.309C409.271 454.809 397.054 456.874 385.096 459.444C384.883 459.49 384.694 459.614 384.566 459.79C384.439 459.967 384.381 460.185 384.403 460.402C384.426 460.619 384.529 460.82 384.691 460.966C384.852 461.112 385.063 461.193 385.281 461.194V461.207Z" fill="#A08C78"/>
<path d="M385.026 457.812C385.07 457.815 385.115 457.815 385.16 457.812L386.813 457.559C387.021 457.525 387.211 457.418 387.347 457.256C397.677 454.754 408.156 452.914 418.72 451.749C418.837 451.736 418.949 451.7 419.052 451.644C419.155 451.588 419.245 451.512 419.318 451.421C419.391 451.329 419.446 451.225 419.479 451.112C419.511 451 419.522 450.882 419.509 450.766C419.496 450.65 419.46 450.537 419.404 450.435C419.348 450.332 419.272 450.242 419.18 450.168C419.089 450.095 418.984 450.041 418.872 450.008C418.759 449.975 418.642 449.965 418.525 449.978C407.164 451.233 395.901 453.261 384.816 456.049C384.605 456.101 384.42 456.228 384.297 456.406C384.173 456.585 384.12 456.802 384.146 457.018C384.173 457.233 384.278 457.431 384.441 457.574C384.604 457.717 384.814 457.796 385.031 457.795L385.026 457.812Z" fill="#A08C78"/>
<path d="M383.469 452.785C383.545 452.785 383.621 452.775 383.694 452.755C394.118 450.013 404.77 448.227 415.518 447.42C415.753 447.402 415.972 447.292 416.125 447.114C416.279 446.935 416.356 446.703 416.338 446.469C416.321 446.234 416.211 446.015 416.032 445.862C415.854 445.708 415.622 445.631 415.387 445.649C404.529 446.465 393.768 448.27 383.239 451.04C383.031 451.095 382.852 451.224 382.732 451.402C382.613 451.58 382.562 451.796 382.59 452.008C382.617 452.221 382.721 452.416 382.882 452.558C383.043 452.7 383.249 452.779 383.464 452.78L383.469 452.785Z" fill="#A08C78"/>
<path d="M383.044 446.363H383.107C383.73 446.319 384.345 446.201 384.94 446.011C385.081 445.968 385.209 445.888 385.312 445.781C394.126 443.479 403.193 442.279 412.303 442.209C412.538 442.208 412.763 442.113 412.928 441.945C413.093 441.778 413.185 441.552 413.183 441.318C413.181 441.083 413.086 440.858 412.919 440.693C412.752 440.528 412.526 440.437 412.291 440.438C402.314 440.513 392.393 441.922 382.791 444.628C382.583 444.683 382.403 444.813 382.284 444.992C382.165 445.171 382.116 445.387 382.145 445.6C382.174 445.813 382.28 446.008 382.443 446.148C382.605 446.289 382.814 446.365 383.029 446.363H383.044Z" fill="#A08C78"/>
<path d="M380.168 441.825H380.209L381.829 441.754C382.003 441.746 382.17 441.687 382.311 441.584C382.452 441.482 382.56 441.34 382.621 441.177C391.893 438.721 401.512 437.843 411.076 438.58C411.192 438.588 411.309 438.574 411.42 438.538C411.531 438.501 411.633 438.444 411.722 438.368C411.81 438.292 411.883 438.199 411.936 438.095C411.988 437.991 412.02 437.877 412.029 437.761C412.038 437.645 412.023 437.528 411.987 437.417C411.951 437.306 411.893 437.204 411.817 437.115C411.741 437.027 411.648 436.954 411.544 436.902C411.44 436.849 411.326 436.818 411.21 436.809C400.667 435.998 390.065 437.108 379.92 440.085C379.715 440.144 379.538 440.276 379.423 440.456C379.307 440.636 379.26 440.851 379.291 441.062C379.322 441.274 379.428 441.467 379.59 441.606C379.752 441.745 379.959 441.821 380.173 441.82L380.168 441.825Z" fill="#A08C78"/>
<path d="M375.434 438.789C375.51 438.788 375.586 438.779 375.66 438.761C386.775 435.872 398.216 434.42 409.701 434.441V434.441C409.936 434.441 410.161 434.347 410.327 434.181C410.494 434.015 410.587 433.79 410.587 433.555C410.587 433.32 410.494 433.095 410.327 432.929C410.161 432.763 409.936 432.67 409.701 432.67H409.448C397.899 432.671 386.397 434.141 375.219 437.046C375.01 437.1 374.828 437.228 374.706 437.407C374.585 437.585 374.533 437.802 374.561 438.016C374.588 438.23 374.693 438.427 374.855 438.569C375.017 438.711 375.226 438.79 375.442 438.789H375.434Z" fill="#A08C78"/>
<path d="M372.817 434.88C372.875 434.879 372.934 434.873 372.991 434.862C384.073 432.654 395.3 431.254 406.585 430.673C406.701 430.667 406.815 430.639 406.92 430.588C407.025 430.538 407.12 430.468 407.198 430.382C407.276 430.295 407.336 430.194 407.375 430.085C407.414 429.975 407.431 429.859 407.425 429.742C407.419 429.626 407.39 429.512 407.34 429.407C407.29 429.302 407.22 429.208 407.133 429.13C407.047 429.052 406.946 428.991 406.836 428.953C406.726 428.914 406.61 428.897 406.494 428.903C395.126 429.487 383.817 430.898 372.655 433.122C372.437 433.163 372.242 433.284 372.109 433.461C371.976 433.638 371.914 433.858 371.936 434.079C371.958 434.299 372.061 434.503 372.226 434.651C372.391 434.799 372.605 434.88 372.827 434.878L372.817 434.88Z" fill="#A08C78"/>
<path d="M369.147 430.14C369.323 430.14 369.495 430.087 369.641 429.988C369.787 429.89 369.901 429.75 369.967 429.586C369.982 429.552 369.994 429.516 370.002 429.48C381.626 427.942 393.445 426.766 405.142 425.979C405.377 425.963 405.596 425.855 405.751 425.677C405.906 425.5 405.984 425.269 405.969 425.034C405.953 424.799 405.844 424.58 405.667 424.425C405.49 424.27 405.258 424.192 405.023 424.208C393.189 425.005 381.229 426.199 369.471 427.75C368.904 427.825 368.238 428.309 368.154 428.959C368.125 429.189 368.174 429.423 368.293 429.622C368.413 429.822 368.595 429.976 368.812 430.059C368.918 430.107 369.031 430.135 369.147 430.14V430.14Z" fill="#A08C78"/>
<path d="M365.881 425.243C366.109 425.24 366.327 425.149 366.491 424.99C368.01 423.558 370.323 423.219 372.771 422.991C382.922 422.01 393.232 421.203 403.415 420.591C403.65 420.577 403.87 420.47 404.027 420.295C404.183 420.119 404.263 419.888 404.249 419.653C404.236 419.419 404.129 419.199 403.953 419.043C403.777 418.886 403.547 418.806 403.312 418.82C393.105 419.432 382.772 420.242 372.601 421.226C369.835 421.494 367.189 421.883 365.261 423.702C365.135 423.825 365.049 423.981 365.013 424.153C364.977 424.324 364.993 424.502 365.058 424.665C365.124 424.827 365.236 424.966 365.38 425.065C365.525 425.164 365.695 425.218 365.871 425.22L365.881 425.243Z" fill="#A08C78"/>
<path d="M365.906 420.201C366.184 420.202 366.456 420.119 366.686 419.963C366.805 419.882 366.902 419.773 366.969 419.646C367.036 419.519 367.071 419.378 367.071 419.234C368.698 418.728 370.443 418.546 372.133 418.354L401.712 415.022C401.829 415.009 401.941 414.974 402.044 414.917C402.146 414.861 402.237 414.785 402.31 414.693C402.383 414.602 402.437 414.497 402.47 414.385C402.502 414.272 402.512 414.155 402.499 414.038C402.486 413.922 402.451 413.809 402.394 413.707C402.338 413.605 402.262 413.514 402.17 413.441C402.079 413.368 401.974 413.314 401.861 413.281C401.749 413.249 401.631 413.239 401.515 413.252L371.941 416.583C369.627 416.836 367.235 417.114 364.998 418.101C364.805 418.185 364.648 418.335 364.555 418.524C364.462 418.713 364.44 418.929 364.491 419.133C364.552 419.352 364.663 419.554 364.818 419.721C364.972 419.888 365.164 420.016 365.377 420.094C365.546 420.161 365.725 420.197 365.906 420.201V420.201Z" fill="#A08C78"/>
<path d="M360.365 416.12C360.537 416.121 360.705 416.071 360.849 415.978C360.993 415.884 361.106 415.751 361.175 415.594C361.33 415.247 362.208 415.131 362.497 415.088L398.059 410.408C398.29 410.375 398.498 410.252 398.639 410.067C398.78 409.881 398.842 409.648 398.811 409.417C398.781 409.186 398.661 408.976 398.477 408.833C398.293 408.69 398.061 408.625 397.829 408.653L362.264 413.338C361.621 413.421 360.11 413.621 359.555 414.878C359.508 414.984 359.483 415.099 359.48 415.215C359.477 415.331 359.497 415.447 359.539 415.555C359.582 415.664 359.645 415.763 359.725 415.846C359.806 415.93 359.902 415.998 360.008 416.044C360.121 416.095 360.242 416.121 360.365 416.12Z" fill="#A08C78"/>
<path d="M359.575 410.203C359.717 410.202 359.857 410.169 359.985 410.109C360.113 410.048 360.226 409.96 360.317 409.852C360.37 409.791 360.414 409.724 360.449 409.652L395.976 405.42C396.211 405.392 396.425 405.272 396.572 405.086C396.718 404.9 396.785 404.664 396.757 404.429C396.729 404.194 396.609 403.98 396.423 403.834C396.237 403.688 396.001 403.621 395.766 403.649L359.735 407.929C359.463 407.973 359.212 408.103 359.019 408.3C358.826 408.497 358.702 408.751 358.664 409.024C358.619 409.233 358.644 409.451 358.736 409.644C358.827 409.837 358.98 409.995 359.17 410.092C359.295 410.16 359.434 410.198 359.575 410.203Z" fill="#A08C78"/>
<path d="M355.94 405.625C356.05 405.625 356.159 405.609 356.264 405.577C356.444 405.522 356.601 405.411 356.714 405.262C356.827 405.112 356.889 404.93 356.892 404.742L393.958 401.302C394.075 401.291 394.188 401.258 394.291 401.203C394.395 401.149 394.486 401.075 394.561 400.985C394.636 400.896 394.692 400.792 394.727 400.68C394.762 400.569 394.774 400.452 394.763 400.335C394.753 400.219 394.719 400.106 394.665 400.003C394.611 399.899 394.536 399.808 394.447 399.733C394.357 399.658 394.253 399.602 394.142 399.567C394.03 399.533 393.913 399.52 393.796 399.531L356.388 403.009C356.129 403.011 355.873 403.069 355.637 403.179C355.402 403.289 355.194 403.449 355.026 403.647C354.871 403.864 354.788 404.124 354.788 404.391C354.788 404.657 354.871 404.917 355.026 405.134C355.128 405.283 355.264 405.406 355.423 405.491C355.582 405.576 355.76 405.622 355.94 405.625V405.625Z" fill="#A08C78"/>
<path d="M401.269 282.035C404.886 276.536 411.84 274.431 416.756 273.325C427.225 270.97 436.011 271.003 443.616 273.429C452.445 276.245 459.31 282.536 461.965 290.138C462.911 289.31 464.116 288.837 465.372 288.799C467.56 288.754 469.795 290.052 471.065 292.106C472.078 293.763 472.544 295.88 472.379 298.225C472.14 301.541 470.778 304.678 468.519 307.119C467.271 308.462 465.927 309.368 464.524 309.811C464.036 309.959 463.534 310.057 463.026 310.104C462.461 310.17 462.327 310.185 462.013 310.489C461.444 311.053 460.92 313.071 460.573 314.407C460.378 315.166 460.196 315.857 460.001 316.39C458.956 319.274 457.771 322.543 455.586 325.146C453.402 327.749 450.402 329.271 447.529 329.271C447.408 329.271 447.276 329.271 447.165 329.271C445.924 331.442 443.383 335.09 441.168 336.668C435.796 340.503 429.483 339.375 425.835 340.172C422.557 340.888 413.769 337.999 411.24 330.726C407.921 321.182 401.147 310.413 399.418 300.459C398.3 294.036 397.753 287.368 401.269 282.035Z" fill="#EDA085"/>
<path d="M422.026 404.224C424.593 401.871 427.992 400.831 430.326 400.252C434.347 399.259 438.49 398.841 442.628 399.01C437.467 396.341 431.645 394.996 426.724 394.33C423.94 393.958 420.143 393.445 418.398 390.409C418.287 390.217 418.229 389.999 418.229 389.777C418.229 389.555 418.287 389.337 418.398 389.144C418.511 388.952 418.673 388.793 418.867 388.683C419.062 388.574 419.282 388.517 419.505 388.52C424.977 388.593 430.521 388.811 435.981 389.167C442.31 389.582 448.977 390.257 454.673 393.485C459.011 395.942 462.393 399.66 465.76 403.574C469.648 408.092 473.485 412.744 477.189 417.431C477.502 417.393 477.817 417.474 478.072 417.659C478.823 418.217 479.455 418.919 479.932 419.724C480.409 420.528 480.721 421.42 480.849 422.346C481.194 424.421 480.702 426.547 479.482 428.261C477.834 430.504 474.954 431.802 472.01 431.802C471.845 431.802 471.681 431.802 471.503 431.784C468.478 432.832 465.248 433.149 462.076 432.709C458.905 432.27 455.883 431.086 453.258 429.255C451.605 428.066 450.164 426.639 448.772 425.26C447.142 423.647 445.605 422.126 443.783 420.983C442.041 419.89 439.955 419.078 437.014 418.352C431.257 416.93 425.299 416.503 419.398 417.087C419.185 417.108 418.97 417.074 418.774 416.989C418.577 416.904 418.405 416.771 418.274 416.601C417.262 415.291 417.7 413.444 418.76 412.364C418.401 409.528 419.614 406.432 422.026 404.224Z" fill="#EA9F81"/>
<path d="M464.342 437.861L473.258 404.892C473.302 404.729 473.377 404.577 473.481 404.444C473.584 404.311 473.713 404.2 473.86 404.118C474.007 404.035 474.169 403.983 474.336 403.964C474.504 403.945 474.673 403.959 474.835 404.006C485.492 407.099 496.329 409.537 507.284 411.307L508.168 411.446C498.357 401.813 490.641 390.26 485.502 377.511C482.507 370.053 481.371 364.285 481.819 358.811C482.35 352.302 485.11 345.966 490.775 342.04C493.714 340.016 498.075 340.375 502.042 341.865C505.568 343.188 508.552 345.472 511.251 347.741C532.332 365.474 546.153 391.345 549.168 418.716C550.081 426.993 549.707 433.459 547.991 439.065C545.743 446.401 541.027 452.186 535.05 454.913C531.825 456.385 528.059 457.106 523.196 457.19H522.3C518.431 457.189 514.573 456.799 510.782 456.026C502.125 454.255 493.838 450.661 485.823 447.188C479.148 444.291 472.245 441.299 465.236 439.422C464.915 439.33 464.643 439.118 464.477 438.83C464.391 438.685 464.335 438.525 464.312 438.359C464.289 438.192 464.299 438.023 464.342 437.861Z" fill="#A6995A"/>
<path d="M367.987 692.674C368.493 692.674 369.006 692.665 369.526 692.648C392.308 691.89 411.367 677.458 423.35 665.482C423.856 664.964 424.648 664.182 424.889 663.082C425.142 661.918 424.697 660.825 424.4 660.099L419.829 648.868C419.723 648.607 419.533 648.389 419.29 648.249C419.046 648.108 418.763 648.053 418.484 648.091C418.205 648.129 417.947 648.259 417.751 648.46C417.554 648.661 417.43 648.922 417.399 649.201C416.801 654.408 411.564 658.237 406.846 658.928C401.859 659.662 396.604 656.722 394.614 652.098C394.528 651.898 394.392 651.724 394.219 651.592C394.046 651.46 393.842 651.375 393.626 651.345C393.411 651.315 393.191 651.341 392.989 651.421C392.786 651.5 392.607 651.631 392.47 651.799C384.276 661.877 374.868 670.905 364.461 678.68C364.046 678.991 363.62 679.299 363.195 679.611C359.872 682.036 356.436 684.546 355.128 688.598C355.034 688.883 355.044 689.192 355.156 689.47C355.269 689.748 355.477 689.977 355.743 690.116C359.011 691.829 363.028 692.674 367.987 692.674Z" fill="#925024"/>
<path d="M306.544 624.466C306.804 624.467 307.057 624.387 307.27 624.238C307.483 624.089 307.645 623.878 307.734 623.634C308.746 620.869 309.931 617.985 311.083 615.198C312.234 612.41 313.442 609.478 314.47 606.66C314.537 606.473 314.56 606.273 314.536 606.075C314.512 605.878 314.441 605.689 314.33 605.524C314.219 605.359 314.071 605.222 313.897 605.125C313.724 605.028 313.529 604.973 313.331 604.965C306.341 604.682 299.54 600.602 296.004 594.573C295.809 594.245 295.624 593.908 295.434 593.562C294.551 591.968 293.548 590.164 291.807 589.051C290.288 588.085 288.556 587.842 287.027 587.627C281.782 586.898 276.601 586.109 271.586 585.35C266.572 584.591 261.393 583.812 256.145 583.074C255.894 583.039 255.638 583.08 255.411 583.192C255.184 583.304 254.995 583.481 254.87 583.702C254.745 583.922 254.689 584.175 254.709 584.427C254.729 584.679 254.825 584.92 254.983 585.118C268.6 602.1 286.114 615.55 306.04 624.327C306.197 624.408 306.368 624.456 306.544 624.466V624.466Z" fill="#925024"/>
<path d="M455.809 289.239C449.337 286.884 442.568 284.661 436.498 281.443C430.427 278.225 422.228 272.675 415.394 273.391C420.264 271.532 429.423 271.069 434.584 271.797C440.373 272.617 446.155 274.059 451.245 276.935C454.634 278.808 457.58 281.39 459.88 284.504C460.454 285.298 462.877 288.341 462.135 289.348C461.145 290.694 456.903 289.636 455.809 289.239Z" fill="#F6DFC8"/>
<path d="M411.686 274.669C411.686 274.669 402.347 277.353 399.788 284.001C397.229 290.649 399.535 300.871 399.535 300.871C399.535 300.871 405.929 277.993 411.686 274.669Z" fill="#F6DFC8"/>
<path d="M456.827 287.358C455.903 288.406 456.03 289.989 456.275 291.363C456.929 295.018 458.024 298.58 459.536 301.972C459.763 297.74 460.042 293.301 462.32 289.719C462.5 289.691 462.434 289.278 462.614 289.251C460.787 288.589 459.025 287.759 457.351 286.771C457.268 286.976 456.974 287.194 456.827 287.358Z" fill="#F6DFC8"/>
<path d="M369.088 689.625C373.128 689.625 377.58 688.921 382.444 687.515C398.871 682.699 413.483 673.087 424.406 659.914C424.555 659.732 424.626 659.499 424.603 659.265C424.58 659.031 424.466 658.816 424.284 658.667C424.102 658.517 423.869 658.446 423.635 658.469C423.401 658.492 423.185 658.607 423.036 658.788C412.341 671.686 398.034 681.097 381.95 685.812C371.607 688.813 363.218 688.506 357.037 684.909C356.937 684.835 356.822 684.782 356.701 684.755C356.579 684.727 356.453 684.726 356.331 684.75C356.208 684.775 356.093 684.825 355.991 684.897C355.89 684.97 355.805 685.063 355.742 685.17C355.678 685.278 355.639 685.397 355.625 685.521C355.611 685.645 355.624 685.77 355.662 685.889C355.7 686.008 355.763 686.117 355.846 686.21C355.93 686.302 356.032 686.376 356.145 686.427C359.798 688.562 364.127 689.625 369.088 689.625Z" fill="#753017"/>
<path d="M309.323 622.055C309.528 622.055 309.726 621.985 309.884 621.855C310.042 621.726 310.15 621.547 310.191 621.347C310.232 621.147 310.202 620.939 310.107 620.758C310.013 620.578 309.858 620.435 309.67 620.355C305.248 618.476 300.937 616.148 296.9 613.927C283.023 606.29 267.61 596.903 260.337 582.122C260.287 582.016 260.216 581.92 260.129 581.842C260.041 581.763 259.939 581.703 259.828 581.664C259.717 581.625 259.6 581.609 259.482 581.616C259.365 581.623 259.25 581.653 259.145 581.705C259.039 581.757 258.945 581.829 258.868 581.918C258.79 582.007 258.732 582.11 258.695 582.221C258.658 582.333 258.643 582.451 258.652 582.568C258.661 582.685 258.694 582.799 258.747 582.904C266.245 598.147 281.932 607.71 296.044 615.478C300.122 617.722 304.478 620.072 308.977 621.984C309.086 622.031 309.204 622.055 309.323 622.055V622.055Z" fill="#753017"/>
<path d="M280.524 593.012H280.623C280.739 592.999 280.851 592.964 280.953 592.908C281.055 592.852 281.145 592.777 281.218 592.686C281.291 592.595 281.345 592.491 281.378 592.38C281.41 592.268 281.42 592.151 281.408 592.035L280.81 586.574C280.785 586.339 280.667 586.124 280.483 585.976C280.299 585.828 280.063 585.759 279.828 585.785C279.593 585.81 279.378 585.928 279.23 586.112C279.082 586.296 279.013 586.531 279.039 586.766L279.636 592.228C279.661 592.445 279.766 592.645 279.93 592.79C280.094 592.935 280.306 593.014 280.524 593.012Z" fill="#753017"/>
<path d="M275.583 592.148C275.787 592.148 275.985 592.078 276.143 591.948C276.302 591.819 276.41 591.64 276.451 591.44C276.811 589.655 276.912 587.827 276.752 586.014C276.732 585.779 276.618 585.562 276.437 585.41C276.257 585.259 276.023 585.186 275.788 585.207C275.553 585.227 275.336 585.341 275.184 585.521C275.033 585.702 274.96 585.936 274.98 586.17C275.127 587.814 275.036 589.47 274.71 591.088C274.686 591.202 274.686 591.319 274.708 591.433C274.73 591.547 274.775 591.656 274.839 591.752C274.903 591.849 274.986 591.932 275.082 591.997C275.178 592.062 275.287 592.107 275.401 592.13C275.461 592.143 275.522 592.149 275.583 592.148V592.148Z" fill="#753017"/>
<path d="M270.726 591.581C270.926 591.581 271.12 591.513 271.276 591.388C271.432 591.264 271.542 591.09 271.586 590.895C271.994 589.13 272.19 587.322 272.171 585.51C272.169 585.275 272.074 585.05 271.906 584.886C271.739 584.721 271.512 584.63 271.277 584.632C271.043 584.634 270.818 584.729 270.653 584.897C270.489 585.064 270.397 585.29 270.399 585.525C270.414 587.198 270.23 588.866 269.85 590.496C269.823 590.609 269.819 590.726 269.838 590.841C269.857 590.956 269.898 591.066 269.959 591.165C270.021 591.264 270.101 591.35 270.195 591.418C270.29 591.486 270.397 591.534 270.51 591.561C270.581 591.576 270.653 591.582 270.726 591.581V591.581Z" fill="#753017"/>
<path d="M388.653 670.653C388.805 670.653 388.955 670.614 389.087 670.54C389.22 670.466 389.331 670.359 389.411 670.229C389.49 670.1 389.535 669.952 389.54 669.8C389.546 669.648 389.513 669.498 389.443 669.362C387.922 666.419 385.575 663.983 382.689 662.353C382.588 662.296 382.476 662.259 382.36 662.246C382.245 662.232 382.128 662.241 382.015 662.272C381.903 662.304 381.798 662.357 381.707 662.429C381.615 662.501 381.539 662.59 381.482 662.692C381.425 662.793 381.388 662.905 381.375 663.02C381.361 663.136 381.37 663.253 381.401 663.365C381.433 663.477 381.486 663.582 381.558 663.673C381.63 663.765 381.72 663.841 381.821 663.898C383.929 665.087 385.723 666.762 387.053 668.783L387.021 668.836C386.963 668.937 386.925 669.048 386.911 669.164C386.896 669.279 386.905 669.396 386.935 669.508C386.966 669.621 387.019 669.725 387.09 669.817C387.162 669.909 387.251 669.986 387.352 670.043L388.215 670.536C388.349 670.612 388.5 670.653 388.653 670.653V670.653Z" fill="#753017"/>
<path d="M382.856 674.573C383.01 674.571 383.16 674.528 383.293 674.45C383.425 674.372 383.535 674.261 383.612 674.127C383.688 673.994 383.729 673.843 383.729 673.689C383.73 673.536 383.691 673.384 383.615 673.25C382.28 670.906 380.401 668.918 378.135 667.452C377.938 667.325 377.698 667.281 377.468 667.33C377.238 667.38 377.037 667.518 376.91 667.715C376.782 667.913 376.738 668.152 376.788 668.382C376.837 668.612 376.976 668.812 377.173 668.94C379.199 670.25 380.88 672.028 382.074 674.123C382.152 674.261 382.265 674.376 382.403 674.456C382.541 674.535 382.697 674.575 382.856 674.573V674.573Z" fill="#753017"/>
<path d="M374.781 679.359C374.934 679.356 375.084 679.313 375.216 679.236C375.348 679.158 375.457 679.047 375.533 678.914C375.61 678.782 375.651 678.632 375.652 678.479C375.653 678.326 375.615 678.175 375.541 678.041C374.917 676.948 374.052 676.012 373.011 675.305C371.969 674.598 370.78 674.138 369.534 673.961C369.301 673.93 369.065 673.993 368.879 674.136C368.692 674.278 368.57 674.489 368.539 674.722C368.508 674.955 368.571 675.191 368.714 675.377C368.857 675.563 369.068 675.686 369.301 675.716C370.275 675.855 371.204 676.214 372.017 676.766C372.831 677.319 373.507 678.05 373.994 678.904C374.072 679.044 374.186 679.16 374.325 679.24C374.463 679.32 374.621 679.361 374.781 679.359V679.359Z" fill="#753017"/>
<path d="M442.317 375.195C431.964 379.888 420.814 380.568 409.552 382.094C386.189 385.261 362.99 389.418 339.955 394.565" stroke="#F9F2DE" stroke-width="7" stroke-linecap="round" stroke-linejoin="round"/>
<path d="M439.745 321.468C439.888 321.472 440.026 321.42 440.13 321.322C440.233 321.225 440.294 321.09 440.299 320.948C440.303 320.806 440.251 320.667 440.153 320.564C440.055 320.46 439.921 320.399 439.778 320.395C438.049 320.26 436.394 319.636 435.007 318.595C433.62 317.554 432.559 316.14 431.946 314.519C431.892 314.393 431.791 314.293 431.666 314.239C431.54 314.184 431.398 314.18 431.269 314.226C431.14 314.273 431.034 314.366 430.972 314.488C430.909 314.61 430.896 314.751 430.934 314.883C431.621 316.699 432.812 318.282 434.366 319.447C435.921 320.612 437.775 321.31 439.713 321.46L439.745 321.468Z" fill="#A84A4A"/>
<path d="M419.419 412.462C419.496 412.462 419.572 412.449 419.644 412.422C428.636 409.052 438.543 409.045 447.539 412.401C447.618 412.436 447.703 412.453 447.788 412.454C447.874 412.454 447.959 412.438 448.038 412.404C448.117 412.371 448.188 412.322 448.248 412.26C448.307 412.199 448.353 412.126 448.384 412.046C448.414 411.966 448.428 411.88 448.424 411.795C448.421 411.709 448.4 411.625 448.363 411.548C448.326 411.471 448.273 411.402 448.209 411.346C448.144 411.289 448.069 411.247 447.987 411.22C438.701 407.755 428.475 407.761 419.193 411.238C419.055 411.29 418.938 411.389 418.865 411.518C418.792 411.648 418.767 411.798 418.794 411.944C418.821 412.09 418.898 412.222 419.012 412.316C419.126 412.411 419.27 412.463 419.419 412.462V412.462Z" fill="#A84A4A"/>
<path d="M419.563 408.533C419.682 408.533 419.798 408.5 419.9 408.437C423.95 405.89 428.916 404.408 434.672 404.031C440.143 403.674 445.674 404.365 450.367 405.088C450.53 405.109 450.695 405.065 450.827 404.965C450.959 404.866 451.046 404.72 451.071 404.557C451.096 404.394 451.057 404.228 450.961 404.094C450.866 403.959 450.721 403.868 450.559 403.838C445.803 403.105 440.181 402.404 434.596 402.768C428.625 403.16 423.459 404.706 419.229 407.367C419.113 407.441 419.024 407.55 418.976 407.678C418.928 407.806 418.922 407.946 418.96 408.078C418.999 408.209 419.079 408.325 419.188 408.407C419.298 408.489 419.431 408.533 419.568 408.533H419.563Z" fill="#A84A4A"/>
<path d="M473.832 403.374C473.925 403.157 474.099 402.987 474.318 402.899C474.536 402.811 474.78 402.814 474.997 402.906C491.09 409.771 508.747 412.139 526.082 409.756C526.315 409.722 526.551 409.783 526.74 409.924C526.928 410.065 527.053 410.275 527.087 410.507C527.12 410.74 527.06 410.977 526.919 411.165C526.778 411.353 526.568 411.478 526.335 411.512C524.426 411.773 522.516 411.977 520.604 412.124C522.306 413.682 523.502 415.714 524.039 417.957C524.066 418.07 524.071 418.188 524.052 418.303C524.034 418.417 523.993 418.528 523.932 418.627C523.872 418.726 523.792 418.812 523.697 418.88C523.603 418.949 523.496 418.998 523.383 419.025C523.315 419.04 523.246 419.047 523.176 419.047C522.977 419.047 522.783 418.98 522.627 418.856C522.471 418.733 522.361 418.561 522.315 418.367C521.717 415.882 520.167 413.732 517.999 412.377C517.964 412.353 517.93 412.327 517.898 412.298C516.236 412.383 514.573 412.425 512.911 412.425C499.636 412.425 486.498 409.741 474.288 404.532C474.075 404.438 473.907 404.263 473.822 404.046C473.737 403.83 473.74 403.588 473.832 403.374Z" fill="#BFB866"/>
<path d="M328.366 606.549C347.69 571.821 371.697 539.91 399.712 511.712C400.087 507.22 401.681 502.916 404.324 499.263C404.462 499.073 404.669 498.944 404.902 498.907C405.134 498.87 405.371 498.926 405.562 499.063C405.753 499.201 405.881 499.408 405.918 499.64C405.956 499.872 405.9 500.11 405.762 500.3C403.748 503.083 402.383 506.281 401.767 509.66C404.324 507.12 406.912 504.61 409.531 502.129C409.702 501.968 409.93 501.881 410.165 501.888C410.4 501.894 410.623 501.994 410.784 502.165C410.946 502.335 411.033 502.563 411.026 502.798C411.019 503.033 410.919 503.255 410.749 503.417C407.542 506.452 404.382 509.534 401.269 512.66C411.668 517.039 422.927 519.318 433.827 521.514C441.388 523.032 449.207 524.62 457.019 524.962C461.801 525.172 466.557 524.909 470.167 524.653C478.9 524.041 489.116 522.908 498.695 519.154C508.509 515.309 516.323 508.997 520.697 501.383C522.115 498.917 523.229 496.22 524.32 493.614C524.364 493.507 524.43 493.409 524.512 493.327C524.595 493.245 524.693 493.18 524.8 493.135C524.908 493.091 525.023 493.068 525.14 493.068C525.256 493.069 525.371 493.092 525.479 493.136C525.587 493.181 525.684 493.246 525.766 493.329C525.849 493.411 525.914 493.509 525.958 493.617C526.003 493.724 526.026 493.839 526.025 493.956C526.025 494.072 526.002 494.187 525.957 494.295C524.851 496.951 523.71 499.701 522.234 502.266C517.66 510.229 509.529 516.811 499.343 520.803C489.542 524.643 479.158 525.797 470.291 526.422C467.567 526.611 464.198 526.809 460.641 526.809C459.424 526.809 458.183 526.786 456.94 526.733C448.992 526.384 441.104 524.79 433.475 523.249C422.304 520.995 410.754 518.661 400.044 514.064C400.006 514.046 399.97 514.024 399.935 514.003C372.476 541.832 348.922 573.253 329.915 607.409C329.838 607.547 329.726 607.662 329.589 607.742C329.452 607.822 329.297 607.864 329.138 607.864C328.988 607.864 328.841 607.826 328.71 607.753C328.609 607.696 328.519 607.62 328.447 607.529C328.374 607.438 328.321 607.334 328.289 607.222C328.257 607.11 328.247 606.993 328.26 606.878C328.274 606.762 328.31 606.65 328.366 606.549V606.549Z" fill="#403744"/>
<path d="M431.582 303.605C432.228 305.485 433.756 306.664 434.997 306.236C436.237 305.809 436.721 303.942 436.075 302.062C435.43 300.183 433.901 299.007 432.66 299.432C431.42 299.857 430.934 301.726 431.582 303.605Z" fill="#1A1A1A"/>
<path d="M408.433 305.911C408.271 303.931 409.2 302.239 410.509 302.132C411.817 302.025 413.009 303.544 413.171 305.524C413.333 307.504 412.403 309.196 411.095 309.303C409.786 309.41 408.595 307.891 408.433 305.911Z" fill="#1A1A1A"/>
<path d="M421.631 319.687C422.319 319.668 422.994 319.495 423.606 319.181C425.598 318.214 427.339 316.799 428.691 315.047C428.792 314.913 428.835 314.744 428.812 314.578C428.788 314.412 428.699 314.263 428.565 314.162C428.43 314.061 428.262 314.018 428.096 314.042C427.929 314.066 427.779 314.154 427.679 314.288C426.446 315.886 424.86 317.175 423.044 318.055C422.284 318.422 421.325 318.644 420.885 318.179C420.664 317.944 420.578 317.544 420.497 317.081C419.558 311.804 418.837 306.424 418.348 301.089C418.333 300.921 418.251 300.766 418.122 300.658C417.992 300.551 417.825 300.499 417.657 300.514C417.489 300.53 417.335 300.611 417.227 300.741C417.119 300.87 417.067 301.037 417.083 301.205C417.574 306.575 418.3 311.991 419.247 317.301C419.338 317.807 419.462 318.518 419.958 319.047C420.177 319.265 420.438 319.434 420.727 319.545C421.015 319.655 421.323 319.703 421.631 319.687V319.687Z" fill="#A84A4A"/>
<path d="M423.464 327.195C424.497 327.198 425.527 327.073 426.53 326.823C430.58 325.811 433.898 322.563 434.797 318.756C434.83 318.617 434.808 318.471 434.733 318.349C434.659 318.228 434.539 318.14 434.401 318.107C434.262 318.073 434.116 318.096 433.994 318.17C433.872 318.245 433.785 318.364 433.751 318.503C432.941 321.93 429.934 324.852 426.266 325.776C422.844 326.638 418.898 325.839 415.708 323.638C415.591 323.557 415.446 323.526 415.306 323.552C415.165 323.578 415.041 323.658 414.96 323.776C414.879 323.893 414.848 324.038 414.874 324.178C414.9 324.318 414.981 324.443 415.098 324.523C417.554 326.235 420.47 327.166 423.464 327.195V327.195Z" fill="#A84A4A"/>
<path d="M427.924 333.839C428.017 333.839 428.108 333.818 428.192 333.779C428.276 333.74 428.351 333.682 428.41 333.611C428.79 333.171 429.277 332.836 429.824 332.639C430.371 332.443 430.96 332.39 431.534 332.488C431.695 332.511 431.859 332.471 431.992 332.376C432.125 332.281 432.215 332.139 432.246 331.978C432.276 331.818 432.243 331.652 432.153 331.516C432.064 331.379 431.925 331.283 431.766 331.246C430.972 331.104 430.154 331.173 429.394 331.446C428.635 331.719 427.96 332.186 427.438 332.801C427.361 332.894 427.312 333.006 427.297 333.125C427.281 333.244 427.3 333.366 427.351 333.474C427.402 333.583 427.483 333.675 427.584 333.74C427.686 333.804 427.804 333.839 427.924 333.839V333.839Z" fill="#A84A4A"/>
<path d="M435.655 299.835C435.992 299.835 436.316 299.835 436.627 299.835C439.09 299.802 441.907 299.64 444.173 298.122C444.242 298.076 444.301 298.016 444.347 297.947C444.393 297.878 444.425 297.8 444.441 297.719C444.457 297.637 444.457 297.554 444.44 297.472C444.424 297.391 444.391 297.313 444.345 297.244C444.299 297.176 444.239 297.116 444.17 297.07C444.101 297.024 444.023 296.993 443.941 296.977C443.86 296.961 443.776 296.961 443.694 296.977C443.613 296.994 443.536 297.026 443.467 297.072C441.49 298.395 438.89 298.54 436.609 298.57C434.161 298.605 431.293 298.542 428.603 297.836C428.521 297.811 428.435 297.802 428.35 297.81C428.264 297.819 428.182 297.844 428.107 297.886C428.032 297.927 427.966 297.983 427.913 298.051C427.86 298.118 427.822 298.196 427.8 298.279C427.778 298.362 427.774 298.448 427.786 298.533C427.799 298.617 427.829 298.699 427.874 298.771C427.919 298.844 427.978 298.907 428.048 298.957C428.118 299.006 428.197 299.04 428.281 299.058C430.764 299.703 433.349 299.835 435.655 299.835Z" fill="#A84A4A"/>
<path d="M404.423 305.963C404.467 305.967 404.511 305.967 404.555 305.963C407.971 305.241 411.051 303.409 413.316 300.752C413.369 300.689 413.41 300.616 413.436 300.537C413.461 300.458 413.471 300.374 413.464 300.292C413.458 300.209 413.435 300.128 413.397 300.054C413.359 299.98 413.307 299.914 413.243 299.861C413.18 299.807 413.107 299.766 413.028 299.741C412.949 299.715 412.865 299.705 412.782 299.712C412.699 299.719 412.619 299.742 412.545 299.78C412.471 299.817 412.405 299.869 412.351 299.933C410.268 302.373 407.435 304.055 404.294 304.716C404.14 304.748 404.003 304.835 403.91 304.962C403.817 305.088 403.774 305.245 403.79 305.401C403.806 305.557 403.88 305.702 403.997 305.807C404.114 305.912 404.266 305.969 404.423 305.969V305.963Z" fill="#A84A4A"/>
<path d="M408.825 282.523C408.959 282.524 409.089 282.482 409.197 282.404C414.093 278.863 420.91 277.95 426.562 280.092C426.719 280.152 426.893 280.146 427.047 280.077C427.2 280.008 427.319 279.881 427.378 279.724C427.438 279.567 427.432 279.393 427.363 279.24C427.294 279.087 427.167 278.968 427.01 278.908C420.968 276.632 413.685 277.59 408.453 281.38C408.345 281.458 408.265 281.569 408.224 281.696C408.183 281.823 408.183 281.959 408.224 282.086C408.265 282.213 408.346 282.324 408.454 282.402C408.562 282.481 408.692 282.523 408.825 282.523V282.523Z" fill="#A84A4A"/>
<path d="M415.247 284.458C415.334 284.46 415.42 284.444 415.5 284.41C418.254 283.285 421.309 283.13 424.163 283.973C424.324 284.021 424.497 284.004 424.645 283.924C424.793 283.845 424.903 283.71 424.951 283.549C425 283.388 424.982 283.215 424.903 283.067C424.823 282.92 424.688 282.809 424.527 282.761C421.393 281.818 418.028 281.987 415.004 283.242C414.868 283.298 414.756 283.4 414.687 283.53C414.618 283.66 414.596 283.811 414.626 283.955C414.656 284.099 414.736 284.228 414.851 284.32C414.966 284.412 415.11 284.461 415.257 284.458H415.247Z" fill="#A84A4A"/>
<path d="M461.181 306.643C461.336 306.643 461.486 306.586 461.602 306.482C461.718 306.379 461.791 306.236 461.809 306.082C462.075 303.878 462.856 301.768 464.09 299.922C465.324 298.076 466.976 296.547 468.911 295.457C468.985 295.417 469.049 295.363 469.101 295.298C469.153 295.233 469.192 295.158 469.216 295.078C469.239 294.998 469.246 294.914 469.237 294.831C469.228 294.748 469.202 294.668 469.162 294.595C469.122 294.522 469.068 294.457 469.002 294.405C468.937 294.353 468.863 294.314 468.782 294.291C468.702 294.268 468.618 294.26 468.535 294.269C468.452 294.279 468.372 294.304 468.299 294.344C466.187 295.534 464.384 297.204 463.038 299.22C461.692 301.235 460.84 303.539 460.55 305.945C460.532 306.112 460.58 306.28 460.685 306.411C460.79 306.542 460.943 306.627 461.11 306.646L461.181 306.643Z" fill="#A84A4A"/>
<path d="M392.777 298.091C399.971 295.016 407.923 294.169 415.604 295.657C415.705 295.679 415.802 295.717 415.89 295.771C415.931 295.752 415.973 295.737 416.017 295.726C416.244 295.667 416.486 295.701 416.688 295.82C416.891 295.939 417.038 296.134 417.098 296.361C417.334 297.268 417.53 298.186 417.685 299.116C419.099 298.37 420.733 298.15 422.295 298.496C422.191 297.54 422.117 296.555 422.041 295.539C421.949 295.441 421.88 295.324 421.839 295.197C421.77 294.973 421.792 294.731 421.901 294.523C422.011 294.316 422.197 294.16 422.421 294.089C435.108 290.128 448.512 289.629 461.475 289.146C461.591 289.142 461.707 289.16 461.816 289.201C461.925 289.241 462.025 289.303 462.111 289.382C462.196 289.461 462.265 289.557 462.313 289.662C462.362 289.768 462.389 289.882 462.393 289.999C462.398 290.115 462.379 290.231 462.339 290.34C462.298 290.449 462.236 290.549 462.157 290.634C462.078 290.72 461.983 290.788 461.877 290.837C461.771 290.885 461.657 290.913 461.54 290.917C456.657 291.099 451.711 291.284 446.773 291.656C447.886 296.28 448.524 301.066 446.198 305.037C444.173 308.516 439.966 310.777 434.982 311.086C434.609 311.109 434.245 311.121 433.888 311.121C431.838 311.121 430.058 310.739 428.59 309.983C426.233 308.769 424.36 306.426 423.312 303.391C422.981 302.421 422.727 301.428 422.553 300.418C421.798 300.142 420.988 300.05 420.19 300.152C419.393 300.255 418.631 300.547 417.971 301.005L417.936 301.028C418.027 301.86 418.09 302.695 418.118 303.532C418.179 305.424 418.118 308.217 416.817 310.615C415.146 313.724 411.478 315.751 407.676 315.751C407.37 315.751 407.063 315.751 406.757 315.71C403.089 315.391 399.523 313.322 396.974 310.034C394.888 307.347 393.452 303.861 392.706 299.68C392.523 299.587 392.379 299.433 392.298 299.245C392.209 299.028 392.21 298.785 392.299 298.569C392.389 298.353 392.56 298.181 392.777 298.091V298.091ZM429.413 308.409C430.848 309.148 432.688 309.454 434.883 309.318C439.277 309.047 442.94 307.112 444.679 304.142C446.735 300.636 446.061 296.146 444.993 291.8C437.837 292.407 430.711 293.459 423.826 295.516C424.001 298.177 424.226 300.575 424.998 302.814C425.894 305.417 427.463 307.405 429.413 308.409ZM398.389 308.958C400.636 311.857 403.75 313.681 406.924 313.957C410.357 314.258 413.792 312.543 415.278 309.788C416.11 308.24 416.457 306.272 416.369 303.59C416.299 301.505 416.02 299.432 415.536 297.403C415.448 297.417 415.358 297.417 415.27 297.403C408.291 296.052 401.07 296.72 394.457 299.328C394.459 299.34 394.459 299.352 394.457 299.363C395.156 303.264 396.477 306.487 398.389 308.958V308.958Z" fill="#1A1A1A"/>
<path d="M244.579 441.969C244.586 441.845 244.626 441.726 244.692 441.622C244.759 441.518 244.852 441.433 244.961 441.374C250.229 438.63 256.037 437.079 261.972 436.831C267.908 436.583 273.825 437.645 279.304 439.94C280.466 440.394 281.557 441.013 282.544 441.777C282.69 441.898 282.783 442.073 282.801 442.262C282.82 442.452 282.763 442.641 282.643 442.789C282.625 442.809 282.607 442.824 282.589 442.842C282.589 443.871 282.589 444.906 282.572 445.938C283.467 445.04 284.413 444.196 285.407 443.408C288.763 440.77 292.006 440.084 294.542 441.481C296.454 442.533 297.686 444.698 298.015 447.58C298.458 451.558 297.372 455.557 294.978 458.766C292.446 462.118 288.695 464.232 285.706 465.7C284.075 466.499 282.344 467.217 280.534 467.316C280.314 467.329 280.094 467.329 279.871 467.316C279.42 468.891 278.841 470.427 278.139 471.907C276.785 474.726 274.277 478.535 270.014 480.675C267.736 481.821 265.237 482.317 262.772 482.446C261.385 482.513 259.996 482.487 258.613 482.368C258.562 482.388 258.509 482.404 258.456 482.413C258.223 482.449 257.987 482.471 257.752 482.484C255.271 482.616 252.664 481.518 250.664 479.448C249.001 477.748 247.725 475.464 246.65 472.259C243.313 462.441 243.989 451.564 244.579 441.969Z" fill="#E4D3AA"/>
<path d="M284.321 462.936C287.002 461.621 290.353 459.746 292.485 456.918C294.41 454.346 295.285 451.138 294.93 447.945C294.831 447.08 294.449 444.983 293.039 444.207C291.115 443.144 288.394 445.006 287.316 445.853C285.473 447.309 283.81 448.979 282.364 450.829C282.154 454.07 281.805 457.303 281.306 460.5C281.122 461.684 280.904 462.934 280.633 464.216C281.889 464.085 283.174 463.5 284.321 462.936Z" fill="#E4D3AA"/>
<path d="M265.589 459.665C269.072 459.673 272.542 459.248 275.919 458.4C280.476 457.246 283.275 455.336 284.526 452.561C284.634 452.316 284.64 452.039 284.543 451.789C284.446 451.54 284.255 451.339 284.01 451.23C283.766 451.121 283.488 451.114 283.238 451.209C282.988 451.305 282.785 451.495 282.676 451.739C281.709 453.91 279.339 455.448 275.433 456.437C263.701 459.414 250.414 456.733 240.754 449.44C240.539 449.288 240.274 449.226 240.014 449.266C239.754 449.306 239.52 449.446 239.361 449.656C239.203 449.866 239.132 450.129 239.164 450.39C239.197 450.65 239.329 450.889 239.534 451.054C244.676 454.898 250.612 457.545 256.909 458.802C259.767 459.376 262.674 459.665 265.589 459.665Z" fill="#FC4848"/>
<path opacity="0.66" d="M196.408 477.761C196.408 477.642 196.437 477.526 196.494 477.421C196.551 477.317 196.632 477.229 196.732 477.164C196.535 467.551 199.01 458.068 201.433 448.885C202.147 446.166 202.886 443.353 203.539 440.588C205.921 430.522 208.348 415.749 201.888 403.718C201.831 403.612 201.802 403.493 201.803 403.373C201.805 403.253 201.836 403.135 201.895 403.03C201.955 402.925 202.039 402.837 202.142 402.774C202.244 402.711 202.36 402.674 202.481 402.668L222.952 402.802C223.072 402.808 223.189 402.844 223.292 402.907C223.394 402.97 223.479 403.058 223.539 403.163C223.598 403.268 223.63 403.386 223.631 403.506C223.633 403.627 223.603 403.746 223.546 403.852C217.094 415.885 219.514 430.666 221.893 440.724C222.549 443.487 223.286 446.289 224 449.021C226.412 458.202 228.898 467.683 228.7 477.298C228.778 477.467 228.819 477.649 228.823 477.835C228.826 478.02 228.791 478.205 228.719 478.376C228.648 478.547 228.542 478.702 228.408 478.83C228.274 478.959 228.115 479.058 227.941 479.122H227.908C227.76 479.116 227.618 479.063 227.502 478.973C227.385 478.882 227.3 478.757 227.257 478.616H209.151C209.002 478.615 208.857 478.569 208.736 478.482H198.15C198.107 478.624 198.022 478.748 197.905 478.839C197.789 478.93 197.647 478.982 197.499 478.988H197.469C196.988 478.707 196.611 478.277 196.395 477.764L196.408 477.761Z" fill="#B4CCC2"/>
<path d="M266.903 675.712C269.14 675.72 271.371 675.492 273.56 675.031C279.327 673.797 283.939 670.938 286.921 666.767C288.87 664.033 290.053 660.829 290.348 657.485C290.642 654.142 290.038 650.78 288.597 647.748C287.156 644.716 284.931 642.124 282.152 640.239C279.373 638.355 276.14 637.246 272.788 637.028C267.389 636.674 262.326 638.862 259.575 642.73C256.355 647.256 257.008 653.833 261.002 657.088C263.187 658.859 266.369 659.395 269.303 658.452C271.998 657.587 273.925 655.684 274.591 653.236C274.708 652.803 274.656 652.342 274.447 651.946C274.237 651.55 273.885 651.248 273.462 651.101L270.591 650.104C270.15 649.96 269.67 649.995 269.254 650.201C268.838 650.406 268.52 650.767 268.367 651.205C268.215 651.643 268.24 652.124 268.438 652.543C268.637 652.962 268.991 653.287 269.427 653.448L270.353 653.769C269.768 654.384 269.032 654.836 268.219 655.08C266.447 655.649 264.491 655.363 263.243 654.346C260.686 652.259 260.321 647.792 262.463 644.782C264.475 641.951 268.439 640.291 272.558 640.562C277.929 640.911 283.086 644.41 285.394 649.269C287.703 654.129 287.166 660.334 284.032 664.7C278.582 672.345 267.252 673.392 258.441 671.042C244.518 667.328 232.191 656.623 224.592 641.673C218.392 629.477 215.185 614.628 214.785 596.273C214.294 571.721 218.605 547.311 227.475 524.41C230.631 516.297 235.269 506.062 243.146 498.86C251.024 491.659 261.569 488.742 270.027 491.423C273.527 492.531 276.185 494.477 277.509 496.9C278.775 499.237 278.805 502.784 276.628 504.674C274.937 506.141 272.072 506.159 270.361 504.709C268.649 503.26 268.204 500.424 269.384 498.519C269.513 498.321 269.601 498.099 269.644 497.867C269.686 497.634 269.681 497.395 269.629 497.165C269.578 496.934 269.481 496.716 269.344 496.524C269.206 496.331 269.032 496.168 268.831 496.044C268.629 495.92 268.405 495.837 268.172 495.801C267.938 495.765 267.699 495.775 267.47 495.833C267.24 495.89 267.025 495.993 266.836 496.135C266.647 496.277 266.488 496.455 266.369 496.66C264.288 500.024 265.047 504.846 268.065 507.406C271.082 509.966 275.965 509.935 278.95 507.345C282.159 504.562 282.876 499.339 280.618 495.203C278.846 491.975 275.471 489.432 271.095 488.046C266.09 486.46 260.494 486.498 254.912 488.155C249.643 489.755 244.802 492.522 240.752 496.25C232.332 503.945 227.467 514.656 224.169 523.128C215.131 546.461 210.739 571.333 211.241 596.349C211.651 615.248 214.985 630.598 221.43 643.276C225.134 650.609 230.16 657.197 236.256 662.707C242.706 668.462 249.862 672.418 257.519 674.462C260.58 675.283 263.734 675.703 266.903 675.712Z" fill="#A05E3D"/>
<path d="M154.661 675.712C157.823 675.706 160.972 675.29 164.027 674.475C171.689 672.431 178.845 668.474 185.29 662.719C191.219 657.427 196.347 650.709 200.119 643.289C206.561 630.61 209.895 615.26 210.307 596.361C210.807 571.346 206.415 546.474 197.377 523.14C194.087 514.668 189.214 503.958 180.794 496.263C176.744 492.534 171.904 489.767 166.634 488.168C161.053 486.511 155.458 486.473 150.451 488.059C146.075 489.445 142.693 491.987 140.931 495.215C138.67 499.351 139.387 504.575 142.597 507.358C145.584 509.951 150.469 509.978 153.481 507.416C156.494 504.853 157.258 500.034 155.18 496.67C155.061 496.466 154.902 496.287 154.713 496.145C154.524 496.003 154.308 495.9 154.079 495.843C153.849 495.786 153.611 495.775 153.377 495.811C153.143 495.847 152.919 495.93 152.718 496.054C152.517 496.178 152.342 496.341 152.205 496.534C152.068 496.726 151.971 496.944 151.919 497.175C151.868 497.406 151.863 497.644 151.905 497.877C151.947 498.109 152.036 498.331 152.165 498.529C153.342 500.434 152.894 503.267 151.188 504.719C149.482 506.171 146.609 506.151 144.918 504.684C142.743 502.794 142.761 499.248 144.037 496.91C145.361 494.487 148.019 492.541 151.52 491.433C159.977 488.755 170.527 491.674 178.4 498.871C186.272 506.068 190.915 516.305 194.074 524.42C202.942 547.321 207.252 571.732 206.761 596.283C206.361 614.638 203.154 629.487 196.955 641.683C189.36 656.633 177.018 667.339 163.105 671.052C154.294 673.402 142.964 672.355 137.514 664.71C134.39 660.331 133.843 654.124 136.152 649.279C138.46 644.435 143.619 640.931 148.988 640.572C153.107 640.302 157.071 641.961 159.086 644.792C161.225 647.802 160.858 652.269 158.304 654.356C157.058 655.368 155.104 655.659 153.327 655.09C152.514 654.846 151.778 654.394 151.193 653.78L152.119 653.458C152.555 653.298 152.91 652.973 153.108 652.553C153.306 652.134 153.331 651.653 153.179 651.215C153.026 650.777 152.708 650.417 152.292 650.211C151.876 650.005 151.396 649.97 150.955 650.114L148.085 651.111C147.661 651.258 147.31 651.561 147.101 651.957C146.892 652.353 146.841 652.814 146.958 653.246C147.621 655.695 149.548 657.597 152.243 658.462C155.18 659.406 158.359 658.882 160.544 657.098C164.538 653.843 165.194 647.266 161.974 642.74C159.22 638.872 154.157 636.689 148.758 637.038C145.406 637.257 142.174 638.365 139.395 640.25C136.616 642.135 134.391 644.727 132.951 647.759C131.51 650.791 130.906 654.153 131.201 657.496C131.496 660.84 132.679 664.044 134.628 666.777C137.6 670.948 142.222 673.807 147.988 675.041C150.183 675.5 152.419 675.724 154.661 675.712V675.712Z" fill="#A05E3D"/>
<path d="M120.387 488.196H315.505C316.847 488.196 318.135 487.663 319.085 486.714C320.034 485.765 320.567 484.478 320.567 483.136C320.567 481.795 320.034 480.508 319.085 479.559C318.135 478.61 316.847 478.077 315.505 478.077H120.387C119.044 478.077 117.756 478.61 116.807 479.559C115.857 480.508 115.324 481.795 115.324 483.136C115.324 484.478 115.857 485.765 116.807 486.714C117.756 487.663 119.044 488.196 120.387 488.196Z" fill="#5A525D"/>
<path d="M203.668 579.645H218.876C219.094 579.645 219.271 579.028 219.271 578.266C219.271 577.505 219.094 576.888 218.876 576.888H203.668C203.45 576.888 203.273 577.505 203.273 578.266C203.273 579.028 203.45 579.645 203.668 579.645Z" fill="#5A525D"/>
<path d="M203.668 583.789H218.876C219.094 583.789 219.271 583.172 219.271 582.41C219.271 581.649 219.094 581.029 218.876 581.029H203.668C203.45 581.029 203.273 581.649 203.273 582.41C203.273 583.172 203.45 583.789 203.668 583.789Z" fill="#5A525D"/>
<path d="M203.668 588.391H218.876C219.094 588.391 219.271 587.773 219.271 587.012C219.271 586.251 219.094 585.631 218.876 585.631H203.668C203.45 585.631 203.273 586.251 203.273 587.012C203.273 587.773 203.45 588.391 203.668 588.391Z" fill="#5A525D"/>
<path d="M210.685 466.362H210.697C210.779 466.361 210.86 466.343 210.935 466.31C211.01 466.277 211.078 466.229 211.135 466.17C211.191 466.111 211.236 466.041 211.265 465.965C211.295 465.888 211.309 465.807 211.307 465.725C211.011 450.969 211.084 436.006 211.525 421.253C212.006 405.104 213.094 388.13 220.478 373.696C223.263 368.265 228.141 361.222 235.638 358.518C235.716 358.49 235.788 358.447 235.849 358.391C235.91 358.336 235.96 358.269 235.995 358.194C236.03 358.119 236.05 358.038 236.054 357.956C236.058 357.874 236.046 357.791 236.018 357.713C235.99 357.636 235.947 357.564 235.892 357.503C235.836 357.442 235.769 357.392 235.694 357.357C235.62 357.322 235.539 357.302 235.456 357.298C235.374 357.294 235.291 357.306 235.213 357.334C227.333 360.177 222.245 367.488 219.364 373.119C211.862 387.791 210.758 404.917 210.274 421.21C209.834 435.981 209.768 450.964 210.059 465.732C210.059 465.815 210.074 465.897 210.105 465.973C210.137 466.049 210.182 466.119 210.241 466.178C210.299 466.236 210.368 466.283 210.444 466.314C210.52 466.346 210.602 466.362 210.685 466.362V466.362Z" fill="#A6995A"/>
<path d="M197.301 376.306C197.317 378.952 198.501 381.446 199.866 383.713C202.069 387.366 204.791 390.682 207.946 393.555C210.353 395.749 213.692 398.407 212.93 393.12C211.874 385.784 203.696 378.997 197.301 376.306Z" fill="#A6995A"/>
<path d="M226.916 381.835C231.329 382.422 235.372 384.608 238.276 387.98C235.527 387.583 232.776 387.186 230.007 386.968C227.44 386.768 224.865 386.728 222.293 386.685C220.451 386.654 213.616 387.345 216.008 383.884C217.661 381.499 224.468 381.519 226.916 381.835Z" fill="#A6995A"/>
<path d="M216.511 365.497C214.74 360.754 211.203 356.879 206.639 354.683C206.892 354.796 207.758 360.587 208.009 361.313C208.768 363.483 209.781 365.553 210.793 367.604C212.932 371.879 215.372 376.066 216.504 380.758C215.719 379.296 217.438 375.856 217.608 373.966C217.873 371.097 217.499 368.204 216.511 365.497V365.497Z" fill="#A6995A"/>
<path d="M253.783 379.435C254.306 379.435 254.81 379.244 255.201 378.898C255.593 378.553 255.845 378.076 255.91 377.558C256.303 374.154 255.675 370.71 254.105 367.664C259.312 367.207 264.309 365.426 268.786 363.827C269.179 363.687 269.522 363.437 269.774 363.105C270.026 362.774 270.176 362.377 270.205 361.962C270.235 361.547 270.143 361.132 269.941 360.768C269.739 360.405 269.436 360.108 269.067 359.914C265.3 357.929 261.396 356.214 257.385 354.781C256.522 354.472 255.507 354.123 254.393 353.787L254.75 353.519C257.919 351.146 262.261 347.893 263.61 342.934C263.691 342.637 263.707 342.326 263.657 342.022C263.607 341.718 263.492 341.428 263.319 341.172C263.147 340.917 262.922 340.701 262.659 340.54C262.396 340.379 262.101 340.277 261.795 340.24C257.141 339.715 252.43 340.094 247.921 341.356C241.486 343.149 236.783 346.643 234.639 351.191C232.272 356.238 233.373 362.094 237.676 367.252C239.8 369.802 242.344 371.838 244.802 373.809C247.26 375.78 249.819 377.829 252.859 379.235C253.148 379.37 253.464 379.438 253.783 379.435V379.435Z" fill="#DB4949"/>
<path d="M248.946 443.675C248.488 443.511 247.961 443.253 247.903 442.772C247.832 442.185 248.498 441.808 249.06 441.629C251.867 440.728 254.852 440.576 257.796 440.43C263.445 440.149 275.834 438.613 279.879 443.352C274.621 449.919 255.563 446.048 248.946 443.675Z" fill="#753017"/>
</svg>
