<svg width="806" height="980" viewBox="0 0 806 980" fill="none" xmlns="http://www.w3.org/2000/svg">
<g opacity="0.5">
<path opacity="0.5" d="M512.113 634.785C629.539 634.785 641.994 368.276 548.173 309.633C487.402 271.643 444.879 290.454 371.617 287.686C296.124 284.836 300.533 244.533 205.192 245.004C114.638 245.46 62.7349 348.811 57.0165 402.196C47.997 486.391 55.5683 634.785 130.68 634.785H512.113Z" fill="#C5F1FF"/>
</g>
<path d="M469.579 522.477C469.579 522.477 464.34 513.439 470.78 508.686C470.78 508.686 467.26 507.008 465.907 507.17C464.554 507.332 457.313 513.558 457.009 520.273C456.705 526.988 469.579 522.477 469.579 522.477Z" fill="#184655"/>
<path d="M454.44 520.183C454.44 520.183 453.285 516.552 447.513 517.376C441.74 518.2 426.84 521.715 424.577 536.298C422.315 550.882 429.298 563.251 436.38 561.425C443.462 559.6 454.44 520.183 454.44 520.183Z" fill="#EA684E"/>
<path d="M467.804 519.907C467.804 519.907 482.933 511.925 496.019 525.849C509.105 539.774 499.369 556.839 492.342 556.984C485.314 557.128 467.804 519.907 467.804 519.907Z" fill="#EA684E"/>
<path d="M467.84 521.022C467.84 521.022 476.764 513.877 489.953 525.25C503.142 536.623 496.878 552.45 493.69 555.74C490.502 559.031 478.934 566.85 473.898 565.285C468.863 563.719 467.84 521.022 467.84 521.022Z" fill="#E24C24"/>
<path d="M460.882 520.133C460.882 520.133 457.666 517.777 452.543 518.089C449.734 518.261 446.358 519.235 442.608 521.84C432.043 529.199 422.979 548.945 436.385 561.425C449.791 573.905 463.784 559.262 463.784 559.262L460.882 520.133Z" fill="#E24C24"/>
<path d="M462.302 519.449C462.302 519.449 470.08 516.485 475.419 523.01C480.759 529.534 495.615 564.129 466.593 566.984C466.593 566.984 452.935 569.659 449.775 562.267C446.616 554.875 450.901 523.638 462.302 519.449Z" fill="#EA684E"/>
<path d="M459.48 567.756C457.277 567.617 454.919 567.175 452.971 566.121C446.884 567.831 441.268 566.379 436.282 561.804C434.164 562.283 432.012 561.595 430.043 559.811C426.041 556.185 422.518 547.266 424.237 536.244C426.523 521.568 441.245 517.924 447.476 517.036C449.566 516.737 451.311 516.974 452.667 517.739C454.116 517.663 455.569 517.795 456.98 518.13C458.462 512.051 464.5 506.995 465.866 506.827L465.948 507.512C464.959 507.63 458.841 512.68 457.576 518.622L457.501 518.975L457.151 518.882C455.669 518.492 454.134 518.34 452.605 518.432H452.499L452.409 518.38C451.177 517.654 449.551 517.43 447.572 517.713C441.498 518.581 427.134 522.134 424.917 536.344C423.24 547.115 426.636 555.792 430.504 559.296C432.352 560.969 434.354 561.587 436.292 561.098L436.475 561.049L436.614 561.178C441.485 565.712 446.971 567.139 452.916 565.424L453.056 565.385L453.182 565.455C458.161 568.243 466.443 566.667 466.526 566.652C469.008 566.44 471.448 565.874 473.77 564.971L473.886 564.924L474.004 564.963C478.349 566.307 487.948 560.264 492.118 556.724L492.213 556.646H492.334C495.28 556.585 498.666 553.384 500.581 548.863C501.787 546.002 505 535.901 495.78 526.089L496.295 525.618C502.709 532.444 504.542 541.234 501.228 549.131C499.248 553.835 495.674 557.182 492.497 557.329C488.631 560.586 478.839 567.02 473.942 565.653C471.603 566.551 469.149 567.116 466.652 567.332C464.286 567.749 461.879 567.891 459.48 567.756V567.756Z" fill="black"/>
<path d="M473.994 565.606L473.811 564.942C473.914 564.914 484.119 561.899 483.575 546.81L484.263 546.785C484.848 562.45 474.102 565.588 473.994 565.606Z" fill="black"/>
<path d="M448.42 554.259C448.378 532.631 458.024 522.046 458.122 521.941L458.637 522.412C458.542 522.515 449.082 532.912 449.123 554.259H448.42Z" fill="black"/>
<path d="M431.728 536.952L431.084 536.694C437.923 518.867 452.416 517.742 452.561 517.734L452.605 518.421C452.463 518.442 438.403 519.554 431.728 536.952Z" fill="black"/>
<path d="M459.505 554.717L458.988 555.175L463.289 560.016L463.805 559.558L459.505 554.717Z" fill="black"/>
<path d="M457.929 557.375L457.415 557.832L461.716 562.672L462.23 562.216L457.929 557.375Z" fill="black"/>
<path d="M274.397 557.135H238.306C235.782 557.135 233.362 556.133 231.577 554.35C229.792 552.567 228.789 550.148 228.789 547.627V516.701H283.914V547.624C283.914 548.873 283.668 550.11 283.19 551.264C282.712 552.418 282.011 553.466 281.128 554.349C280.244 555.233 279.195 555.933 278.04 556.411C276.885 556.889 275.647 557.135 274.397 557.135V557.135Z" fill="#7FC6A6"/>
<path d="M224.078 520.691L232.348 526.092C232.538 526.216 232.792 526.163 232.916 525.974L233.612 524.909C233.736 524.72 233.683 524.466 233.493 524.342L225.223 518.941C225.034 518.818 224.78 518.871 224.656 519.06L223.959 520.125C223.836 520.314 223.889 520.568 224.078 520.691Z" fill="#7FC6A6"/>
<path d="M287.476 518.942L279.205 524.343C279.016 524.467 278.963 524.721 279.086 524.91L279.783 525.975C279.907 526.164 280.161 526.217 280.35 526.093L288.62 520.692C288.81 520.569 288.863 520.315 288.739 520.126L288.043 519.061C287.919 518.872 287.665 518.819 287.476 518.942Z" fill="#7FC6A6"/>
<path d="M543.403 570.877H130.237V730.238H543.403V570.877Z" fill="#FEBAC7"/>
<g opacity="0.8">
<path opacity="0.8" d="M380.629 394.768H378.998V398.996H380.629V394.768Z" fill="#210B06"/>
</g>
<g opacity="0.8">
<path opacity="0.8" d="M420.23 394.768H418.599V398.996H420.23V394.768Z" fill="#210B06"/>
</g>
<g opacity="0.8">
<path opacity="0.8" d="M459.833 394.768H458.202V398.996H459.833V394.768Z" fill="#210B06"/>
</g>
<g opacity="0.8">
<path opacity="0.8" d="M499.436 394.768H497.805V398.996H499.436V394.768Z" fill="#210B06"/>
</g>
<path d="M399.413 358.706C398.006 358.364 396.885 358.922 396.032 359.736C396.032 358.819 395.805 356.389 395.805 356.389L372.426 358.191C372.426 358.191 372.903 372.723 383.714 372.139L386.886 371.881V371.866C388.947 371.644 390.553 371 391.798 370.102C391.845 370.113 391.893 370.119 391.942 370.12H391.996C398.402 369.17 401.42 365.47 401.57 362.221C401.655 360.465 400.786 359.041 399.413 358.706ZM400.065 362.184C399.985 363.93 398.518 366.948 393.705 368.256C395.014 366.484 395.609 364.363 395.862 362.524C396.431 361.415 397.539 359.803 399.057 360.168C399.709 360.328 400.114 361.137 400.065 362.184V362.184Z" fill="white"/>
<path d="M381.637 398.368C378.503 397.487 374.037 399.187 371.123 404.967L371.099 405.013C371.084 405.06 371.074 405.109 371.068 405.158C369.824 406.056 368.708 407.377 367.85 409.262L366.618 412.194C362.665 422.267 376.323 427.283 376.323 427.283L385.376 405.678C385.376 405.678 383.144 404.712 382.284 404.411C383.314 403.86 384.209 402.974 384.325 401.53C384.441 400.085 383.361 398.852 381.637 398.368ZM382.825 401.409C382.696 402.954 380.817 403.507 379.583 403.698C377.758 403.36 375.555 403.257 373.457 403.955C376.21 399.812 379.544 399.354 381.23 399.835C382.237 400.101 382.879 400.739 382.825 401.409Z" fill="white"/>
<path d="M421.137 398.368C418.003 397.487 413.54 399.187 410.623 404.967L410.599 405.013C410.585 405.06 410.575 405.109 410.568 405.158C409.324 406.056 408.208 407.377 407.35 409.262L406.118 412.194C402.165 422.267 415.823 427.283 415.823 427.283L424.886 405.678C424.886 405.678 422.655 404.712 421.794 404.411C422.825 403.86 423.719 402.974 423.835 401.53C423.951 400.085 422.861 398.852 421.137 398.368ZM422.325 401.409C422.196 402.954 420.317 403.507 419.083 403.698C417.258 403.36 415.055 403.257 412.957 403.955C415.71 399.812 419.044 399.354 420.73 399.835C421.737 400.101 422.379 400.739 422.325 401.409V401.409Z" fill="#FEC786"/>
<path d="M460.637 398.368C457.506 397.487 453.04 399.187 450.123 404.967L450.1 405.013C450.085 405.06 450.076 405.109 450.071 405.158C448.824 406.056 447.708 407.377 446.85 409.262L445.621 412.194C441.668 422.267 455.326 427.283 455.326 427.283L464.389 405.678C464.389 405.678 462.158 404.712 461.297 404.411C462.328 403.86 463.222 402.974 463.338 401.53C463.454 400.085 462.361 398.852 460.637 398.368ZM461.825 401.409C461.696 402.954 459.818 403.507 458.586 403.698C456.759 403.36 454.555 403.257 452.46 403.955C455.21 399.812 458.545 399.354 460.23 399.835C461.238 400.101 461.879 400.739 461.825 401.409V401.409Z" fill="white"/>
<path d="M500.137 398.368C497.006 397.487 492.54 399.187 489.623 404.967L489.6 405.013C489.585 405.06 489.576 405.109 489.572 405.158C488.324 406.056 487.211 407.377 486.35 409.262L485.106 412.189C481.153 422.262 494.811 427.277 494.811 427.277L503.874 405.673C503.874 405.673 501.642 404.707 500.782 404.406C501.812 403.855 502.707 402.969 502.823 401.525C502.939 400.08 501.856 398.852 500.137 398.368ZM501.325 401.409C501.199 402.954 499.318 403.507 498.086 403.698C496.259 403.36 494.056 403.257 491.961 403.955C494.713 399.812 498.045 399.354 499.73 399.835C500.738 400.101 501.38 400.739 501.325 401.409V401.409Z" fill="#FEC786"/>
<path d="M364.566 365.99C363.752 369.136 365.548 373.562 371.395 376.348C371.411 376.357 371.427 376.365 371.444 376.371C371.49 376.385 371.538 376.393 371.586 376.397C372.511 377.623 373.859 378.714 375.766 379.525V379.538L378.727 380.705C388.891 384.435 393.617 370.684 393.617 370.684L371.802 362.097C371.802 362.097 370.882 364.347 370.602 365.22C370.027 364.19 369.12 363.327 367.674 363.242C366.228 363.157 365.017 364.259 364.566 365.99ZM367.581 364.736C369.128 364.831 369.725 366.698 369.944 367.923C369.646 369.754 369.591 371.958 370.321 374.038C366.115 371.379 365.587 368.06 366.025 366.366C366.285 365.351 366.911 364.697 367.594 364.736H367.581Z" fill="#FEBAC7"/>
<path d="M396.624 379.566C395.248 379.116 394.086 379.587 393.174 380.339C393.233 379.422 393.205 376.992 393.205 376.992H369.754C369.754 376.992 369.105 391.516 379.928 391.768H383.111V391.753C385.172 391.694 386.834 391.176 388.146 390.375C388.193 390.39 388.241 390.4 388.29 390.404H388.342C394.805 389.95 398.099 386.493 398.498 383.266C398.722 381.492 397.967 380.004 396.624 379.566ZM397.006 383.084C396.792 384.819 395.083 387.718 390.195 388.648C391.638 386.982 392.396 384.912 392.79 383.099C393.442 382.036 394.674 380.524 396.155 380.998C396.795 381.207 397.135 382.043 397.006 383.084Z" fill="white"/>
<path d="M484.333 338.785C484.333 338.785 485.364 324.284 491.007 327.098C496.651 329.912 501.233 348.388 501.844 348.939C502.454 349.49 502.274 366.376 502.274 366.376L495.721 363.072C495.721 363.072 493.968 322.713 484.333 338.785Z" fill="#258D8C"/>
<path d="M490.634 308.763C490.634 308.763 503.261 320.048 506.701 339.402C510.142 358.757 499.262 364.445 499.262 364.445C499.262 364.445 497.713 323.756 490.634 308.763Z" fill="#7FC6A6"/>
<path d="M514.051 367.048C514.051 367.048 516.161 325.852 526.817 308.003C526.817 308.003 508.111 319.152 501.91 348.427C501.56 350.075 501.354 351.908 501.088 353.672C500.807 355.35 500.674 357.05 500.691 358.752C500.766 361.618 501.163 364.082 501.282 365.889C502.292 381.51 514.051 367.048 514.051 367.048Z" fill="#258D8C"/>
<path d="M513.688 349.558C514.4 343.682 516.658 338.101 520.231 333.38C522.823 329.979 525.823 327.394 528.163 329.24C533.368 333.339 534.409 358.788 534.409 358.788C534.409 358.788 528.531 341.169 525.959 342.333C523.387 343.497 520.998 367.416 520.998 367.416L511.386 368.212L513.688 349.558Z" fill="#7FC6A6"/>
<path d="M500.568 365.611C500.174 356.617 501.302 347.987 503.918 339.959C506.015 333.537 509.072 327.469 512.986 321.961C519.663 312.563 526.645 307.918 526.719 307.875L526.889 308.132C526.82 308.176 519.875 312.795 513.231 322.149C507.103 330.78 499.985 345.322 500.862 365.593L500.568 365.611Z" fill="#21111D"/>
<path d="M499.107 364.442C499.107 364.342 498.705 354.143 497.447 342.237C496.288 331.261 494.141 316.554 490.489 308.83L490.77 308.696C494.437 316.461 496.592 331.204 497.751 342.206C499.011 354.117 499.408 364.329 499.413 364.432L499.107 364.442Z" fill="#21111D"/>
<path d="M495.555 363.08C495.555 363.013 495.256 356.386 494.267 349.658C492.978 340.819 491.131 335.847 488.907 335.278C487.592 334.941 486.09 336.148 484.441 338.865L484.183 338.702C485.912 335.855 487.533 334.601 488.992 334.977C491.381 335.587 493.262 340.512 494.584 349.614C495.561 356.352 495.857 363.003 495.872 363.065L495.555 363.08Z" fill="#21111D"/>
<path d="M511.541 368.23L511.231 368.191L513.535 349.54C514.25 343.637 516.517 338.03 520.107 333.288C522.364 330.324 524.372 328.71 526.067 328.496C526.456 328.443 526.851 328.471 527.228 328.578C527.606 328.685 527.957 328.868 528.26 329.117C530.451 330.844 532.177 336.365 533.391 345.531C534.293 352.333 534.561 358.719 534.564 358.783H534.254C534.254 358.526 533.157 333.357 528.07 329.348C527.799 329.125 527.485 328.961 527.147 328.865C526.81 328.769 526.456 328.745 526.108 328.792C524.498 328.996 522.563 330.566 520.357 333.463C516.797 338.166 514.549 343.729 513.842 349.583L511.541 368.23Z" fill="#21111D"/>
<path d="M521.518 345.213L519.499 349.126L519.776 349.269L521.795 345.356L521.518 345.213Z" fill="#21111D"/>
<path d="M521.54 347.868L519.519 351.532L519.792 351.683L521.813 348.018L521.54 347.868Z" fill="#21111D"/>
<path d="M499.143 321.88L498.859 322.009L500.585 325.796L500.869 325.667L499.143 321.88Z" fill="#21111D"/>
<path d="M499.405 324.882L499.132 325.033L500.602 327.684L500.875 327.533L499.405 324.882Z" fill="#21111D"/>
<path d="M489.528 328.509L489.386 328.787L492.325 330.283L492.467 330.006L489.528 328.509Z" fill="#21111D"/>
<path d="M490.689 330.183L490.527 330.449L492.267 331.506L492.429 331.24L490.689 330.183Z" fill="#21111D"/>
<path d="M492.373 362.025C492.373 362.025 492.922 392.137 500.993 391.431H514.708C522.779 392.137 523.328 362.025 523.328 362.025C515.69 360.871 500.011 360.871 492.373 362.025Z" fill="#EF3A4C"/>
<path d="M520.114 365.91L511.293 375.216L511.519 375.431L520.34 366.124L520.114 365.91Z" fill="#21111D"/>
<path d="M517.481 371.842L512.624 377.422L512.859 377.627L517.716 372.047L517.481 371.842Z" fill="#21111D"/>
<path d="M528.152 391.773H362.023V394.768H528.152V391.773Z" fill="#F99247"/>
<path d="M528.152 391.506H362.023V392.044H528.152V391.506Z" fill="black"/>
<path d="M483.359 362.571H468.917C468.731 362.571 468.58 362.722 468.58 362.908V391.107C468.58 391.293 468.731 391.444 468.917 391.444H483.359C483.545 391.444 483.696 391.293 483.696 391.107V362.908C483.696 362.722 483.545 362.571 483.359 362.571Z" fill="#B9DAF4"/>
<g opacity="0.8">
<path opacity="0.8" d="M482.784 368.227H469.492V389.165H482.784V368.227Z" fill="#210B06"/>
</g>
<path d="M483.678 361.486H468.598C468.588 361.486 468.58 361.494 468.58 361.504V362.552C468.58 362.562 468.588 362.57 468.598 362.57H483.678C483.688 362.57 483.696 362.562 483.696 362.552V361.504C483.696 361.494 483.688 361.486 483.678 361.486Z" fill="#4B4B4C"/>
<path d="M483.699 375.056H473.164V378.956H483.699V375.056Z" fill="#7FC6A6"/>
<path d="M427.044 349.048H410.156C409.97 349.048 409.819 349.199 409.819 349.385V391.15C409.819 391.337 409.97 391.488 410.156 391.488H427.044C427.23 391.488 427.381 391.337 427.381 391.15V349.385C427.381 349.199 427.23 349.048 427.044 349.048Z" fill="#B9DAF4"/>
<g opacity="0.8">
<path opacity="0.8" d="M426.322 357.365H410.878V388.144H426.322V357.365Z" fill="#210B06"/>
</g>
<path d="M427.19 347.614H410.01C409.904 347.614 409.819 347.699 409.819 347.804V349.017C409.819 349.122 409.904 349.208 410.01 349.208H427.19C427.296 349.208 427.381 349.122 427.381 349.017V347.804C427.381 347.699 427.296 347.614 427.19 347.614Z" fill="#FAC78D"/>
<path d="M427.381 367.401H415.143V373.135H427.381V367.401Z" fill="#FEC786"/>
<path d="M459.011 342.338H442.124C441.938 342.338 441.787 342.489 441.787 342.676V391.151C441.787 391.337 441.938 391.488 442.124 391.488H459.011C459.198 391.488 459.349 391.337 459.349 391.151V342.676C459.349 342.489 459.198 342.338 459.011 342.338Z" fill="#B9DAF4"/>
<g opacity="0.8">
<path opacity="0.8" d="M458.29 351.968H442.846V387.613H458.29V351.968Z" fill="#210B06"/>
</g>
<path d="M459.127 340.492H442.008C441.886 340.492 441.787 340.591 441.787 340.714V342.117C441.787 342.239 441.886 342.338 442.008 342.338H459.127C459.25 342.338 459.349 342.239 459.349 342.117V340.714C459.349 340.591 459.25 340.492 459.127 340.492Z" fill="#FAC78D"/>
<path d="M459.349 363.59H447.11V370.233H459.349V363.59Z" fill="#FEBAC7"/>
<path d="M410.09 391.774H409.548V349.115H427.381V349.653H410.09V391.774Z" fill="black"/>
<path d="M442.276 391.488H441.737V342.068H459.127V342.606H442.276V391.488Z" fill="black"/>
<path d="M380.629 399.686C380.629 399.47 380.543 399.262 380.39 399.109C380.236 398.956 380.029 398.87 379.812 398.87C379.595 398.87 379.388 398.956 379.234 399.109C379.081 399.262 378.995 399.47 378.995 399.686V400.521C378.995 400.738 379.081 400.946 379.235 401.1C379.389 401.253 379.597 401.339 379.815 401.339C380.032 401.339 380.24 401.253 380.394 401.1C380.548 400.946 380.634 400.738 380.634 400.521V400.521V399.686H380.629Z" fill="#210B06"/>
<path d="M420.233 399.686C420.221 399.477 420.13 399.281 419.977 399.137C419.825 398.993 419.624 398.913 419.414 398.913C419.205 398.913 419.004 398.993 418.851 399.137C418.699 399.281 418.608 399.477 418.596 399.686V399.686V400.52C418.596 400.737 418.683 400.946 418.836 401.099C418.99 401.253 419.198 401.339 419.416 401.339C419.633 401.339 419.841 401.253 419.995 401.099C420.149 400.946 420.235 400.737 420.235 400.52V400.52V399.686H420.233Z" fill="#210B06"/>
<path d="M459.836 399.686C459.824 399.477 459.733 399.281 459.58 399.137C459.428 398.993 459.227 398.913 459.017 398.913C458.808 398.913 458.607 398.993 458.454 399.137C458.302 399.281 458.211 399.477 458.199 399.686V399.686V400.52C458.199 400.737 458.286 400.946 458.439 401.099C458.593 401.253 458.801 401.339 459.019 401.339C459.236 401.339 459.444 401.253 459.598 401.099C459.752 400.946 459.838 400.737 459.838 400.52V399.686H459.836Z" fill="#210B06"/>
<path d="M499.437 399.686C499.437 399.47 499.35 399.262 499.197 399.109C499.044 398.956 498.836 398.87 498.62 398.87C498.403 398.87 498.195 398.956 498.042 399.109C497.889 399.262 497.803 399.47 497.803 399.686V399.686V400.521C497.803 400.738 497.889 400.946 498.043 401.1C498.196 401.253 498.405 401.339 498.622 401.339C498.84 401.339 499.048 401.253 499.202 401.1C499.355 400.946 499.442 400.738 499.442 400.521V399.686H499.437Z" fill="#210B06"/>
<path d="M549.707 562H123.937V570.877H549.707V562Z" fill="#FEC786"/>
<path d="M277.343 559.028H173.827V561.997H277.343V559.028Z" fill="#617FC3"/>
<path d="M277.343 559.028H173.827V561.997H277.343V559.028Z" fill="#F15F46"/>
<path d="M268.903 557.135H240.5V559.028H268.903V557.135Z" fill="#49263E"/>
<path d="M215.724 557.135H187.32V559.028H215.724V557.135Z" fill="#49263E"/>
<g style="mix-blend-mode:multiply">
<g style="mix-blend-mode:multiply">
<path d="M271.665 606.957H148.549V579.997H271.665V606.957ZM151.381 604.125H268.825V582.842H151.384L151.381 604.125Z" fill="#FEBAC7"/>
</g>
</g>
<g style="mix-blend-mode:multiply">
<g style="mix-blend-mode:multiply">
<path d="M271.665 641.622H148.549V614.661H271.665V641.622ZM151.381 638.789H268.825V617.504H151.384L151.381 638.789Z" fill="#FEBAC7"/>
</g>
</g>
<g style="mix-blend-mode:multiply">
<g style="mix-blend-mode:multiply">
<path d="M271.665 676.283H148.549V649.323H271.665V676.283ZM151.381 673.451H268.825V652.168H151.384L151.381 673.451Z" fill="#FEBAC7"/>
</g>
</g>
<g style="mix-blend-mode:multiply">
<g style="mix-blend-mode:multiply">
<path d="M271.665 710.947H148.549V683.987H271.665V710.947ZM151.381 708.115H268.825V686.829H151.384L151.381 708.115Z" fill="#FEBAC7"/>
</g>
</g>
<g style="mix-blend-mode:multiply">
<g style="mix-blend-mode:multiply">
<path d="M407.661 710.947H293.441V579.997H407.661V710.947ZM296.281 708.115H404.819V582.837H296.281V708.115Z" fill="#FEBAC7"/>
</g>
</g>
<g style="mix-blend-mode:multiply">
<g style="mix-blend-mode:multiply">
<path d="M521.72 710.947H417.161V579.997H521.72V710.947ZM420.003 708.115H518.88V582.837H420.003V708.115Z" fill="#FEBAC7"/>
</g>
</g>
<g style="mix-blend-mode:multiply">
<g style="mix-blend-mode:multiply">
<path d="M228.302 590.798H187.542V593.952H228.302V590.798Z" fill="#FEBAC7"/>
</g>
</g>
<g style="mix-blend-mode:multiply">
<g style="mix-blend-mode:multiply">
<path d="M228.302 626.564H187.542V629.718H228.302V626.564Z" fill="#FEBAC7"/>
</g>
</g>
<g style="mix-blend-mode:multiply">
<g style="mix-blend-mode:multiply">
<path d="M228.302 662.33H187.542V665.484H228.302V662.33Z" fill="#FEBAC7"/>
</g>
</g>
<g style="mix-blend-mode:multiply">
<g style="mix-blend-mode:multiply">
<path d="M228.302 698.096H187.542V701.25H228.302V698.096Z" fill="#FEBAC7"/>
</g>
</g>
<g style="mix-blend-mode:multiply">
<g style="mix-blend-mode:multiply">
<path d="M391.195 652.27V618.399H387.401V652.27H391.195Z" fill="#FEBAC7"/>
</g>
</g>
<g style="mix-blend-mode:multiply">
<g style="mix-blend-mode:multiply">
<path d="M437.106 652.273V618.402H433.313V652.273H437.106Z" fill="#FEBAC7"/>
</g>
</g>
<path d="M549.707 561.466H123.937V562.53H549.707V561.466Z" fill="#1D1D1B"/>
<path d="M549.707 570.344H123.937V571.407H549.707V570.344Z" fill="#1D1D1B"/>
<path d="M543.936 570.877H542.872V730.24H543.936V570.877Z" fill="#1D1D1B"/>
<path d="M130.77 570.877H129.706V730.24H130.77V570.877Z" fill="#1D1D1B"/>
<path d="M262.187 506.986C273.17 500.651 275.092 483.432 266.479 468.527C257.867 453.622 241.981 446.676 230.997 453.012C220.014 459.347 218.092 476.566 226.705 491.471C235.318 506.376 251.204 513.322 262.187 506.986Z" fill="#258D8C"/>
<path d="M263.454 506.256C274.437 499.921 276.359 482.702 267.746 467.797C259.134 452.892 243.248 445.946 232.265 452.282C221.281 458.617 219.359 475.836 227.972 490.741C236.585 505.646 252.471 512.592 263.454 506.256Z" fill="#7FC6A6"/>
<path d="M254.464 508.797C244.893 508.797 234.271 502.059 227.792 490.843C223.604 483.598 221.746 475.582 222.563 468.275C223.38 460.968 226.79 455.203 232.16 452.106C243.223 445.723 259.268 452.716 267.921 467.693C272.109 474.941 273.967 482.957 273.15 490.261C272.333 497.566 268.924 503.336 263.553 506.433C260.786 508.011 257.65 508.827 254.464 508.797ZM241.26 450.149C238.142 450.121 235.073 450.921 232.366 452.466C227.112 455.497 223.777 461.13 222.973 468.329C222.169 475.528 224.004 483.477 228.148 490.647C236.69 505.429 252.482 512.355 263.352 506.096C268.604 503.065 271.941 497.432 272.745 490.235C273.549 483.039 271.715 475.088 267.568 467.917C261.164 456.815 250.684 450.149 241.26 450.149Z" fill="black"/>
<path d="M316.111 495.168L304.986 480.896L283.955 503.583C283.955 503.583 272.985 489.357 266.061 481.926L251.887 486.337C253.137 488 259.448 496.59 260.951 499.373C260.951 499.373 277.959 526.313 285.056 526.357C296.619 526.424 316.111 495.168 316.111 495.168Z" fill="#F59F73"/>
<path d="M256.657 475.168C256.583 475.529 256.404 475.861 256.141 476.121C255.879 476.381 255.545 476.557 255.182 476.628C254.819 476.698 254.444 476.659 254.103 476.516C253.762 476.373 253.471 476.132 253.268 475.824C253.064 475.516 252.956 475.154 252.958 474.785C252.96 474.416 253.071 474.056 253.278 473.75C253.485 473.444 253.779 473.206 254.121 473.066C254.463 472.927 254.839 472.892 255.201 472.966C255.686 473.065 256.112 473.353 256.385 473.766C256.658 474.179 256.756 474.683 256.657 475.168V475.168Z" fill="#258D8C"/>
<path d="M247.133 485.235C248.118 484.929 248.668 483.882 248.361 482.898C248.054 481.914 247.007 481.364 246.022 481.671C245.036 481.978 244.487 483.024 244.793 484.008C245.1 484.993 246.148 485.542 247.133 485.235Z" fill="#258D8C"/>
<path d="M442.238 414.048C440.898 407.096 436.96 402.011 433.442 402.688C429.925 403.365 428.154 409.55 429.497 416.502C430.68 422.632 433.878 427.316 437.035 427.864L448.438 487.032C448.511 487.343 448.701 487.614 448.969 487.787C449.237 487.961 449.562 488.025 449.876 487.964C450.19 487.904 450.468 487.725 450.652 487.464C450.837 487.204 450.913 486.882 450.865 486.566L439.462 427.398C442.184 425.712 443.418 420.181 442.238 414.048Z" fill="#49263E"/>
<path d="M366.468 724.938L382.24 725.016L380.129 703.74L363.283 701.23L366.468 724.938Z" fill="#FE9F73"/>
<path d="M382.402 726.872H367.878L361.99 720.299L351.22 726.872H348.901C348.451 726.864 348.017 727.035 347.693 727.347C347.369 727.658 347.183 728.086 347.175 728.536C347.166 728.985 347.337 729.419 347.649 729.743C347.962 730.066 348.39 730.252 348.839 730.261H382.598C382.719 730.259 382.833 730.209 382.917 730.123C383.001 730.036 383.048 729.92 383.046 729.8V727.544C383.049 727.37 382.982 727.202 382.862 727.077C382.741 726.951 382.576 726.878 382.402 726.872V726.872Z" fill="#F99247"/>
<path d="M382.284 726.893V720.78C382.284 720.78 379.838 717.407 376.114 719.13C376.114 719.13 370.481 723.224 365.515 718.267L353.164 723.875C353.164 723.875 349.783 725.034 348.868 726.893H382.284Z" fill="#7FC6A6"/>
<path d="M382.397 720.78H382.149V726.859H382.397V720.78Z" fill="black"/>
<path d="M371.055 720.847C370.797 720.849 370.539 720.835 370.282 720.805L370.321 720.548C372.344 720.73 374.366 720.188 376.026 719.019L376.168 719.227C374.669 720.276 372.885 720.841 371.055 720.847V720.847Z" fill="black"/>
<path d="M379.271 725.749L379.134 725.541L380.709 724.452L380.845 724.66L379.271 725.749Z" fill="black"/>
<path d="M378.142 725.443L378.003 725.232L379.58 724.143L379.717 724.354L378.142 725.443Z" fill="black"/>
<path d="M347.69 729.967C347.492 729.793 347.333 729.58 347.224 729.34C347.116 729.1 347.06 728.839 347.061 728.576C347.056 728.1 347.241 727.64 347.574 727.299C347.907 726.958 348.362 726.763 348.839 726.756H382.23C382.356 726.758 382.481 726.784 382.597 726.834C382.714 726.884 382.819 726.956 382.907 727.047C382.996 727.138 383.065 727.245 383.112 727.362C383.159 727.48 383.182 727.605 383.18 727.732V729.421H382.923V727.732C382.925 727.543 382.852 727.361 382.72 727.226C382.588 727.091 382.408 727.013 382.219 727.011H348.839C348.636 727.013 348.435 727.055 348.248 727.135C348.06 727.215 347.891 727.331 347.749 727.476C347.606 727.621 347.494 727.793 347.419 727.982C347.343 728.171 347.306 728.373 347.309 728.576C347.308 728.803 347.356 729.027 347.449 729.233C347.543 729.44 347.679 729.624 347.85 729.773L347.69 729.967Z" fill="black"/>
<path d="M348.95 726.939L348.726 726.831C348.754 726.769 349.432 725.348 351.955 724.256C354.434 723.172 365.355 718.213 365.453 718.162L365.553 718.393C365.445 718.445 354.534 723.404 352.052 724.49C349.622 725.541 348.958 726.924 348.95 726.939Z" fill="black"/>
<path d="M420.653 724.939L436.424 725.016L430.358 695.836L414.403 690.375L420.653 724.939Z" fill="#FE9F73"/>
<path d="M436.586 726.872H422.062L416.174 720.299L405.404 726.872H403.085C402.862 726.868 402.641 726.908 402.434 726.99C402.227 727.071 402.037 727.193 401.877 727.347C401.554 727.66 401.367 728.087 401.36 728.537C401.352 728.986 401.523 729.42 401.835 729.743C402.148 730.067 402.576 730.253 403.026 730.261H436.784C436.905 730.259 437.02 730.209 437.104 730.123C437.188 730.036 437.234 729.92 437.233 729.8V727.544C437.235 727.37 437.168 727.202 437.047 727.076C436.926 726.95 436.761 726.877 436.586 726.872V726.872Z" fill="#F99247"/>
<path d="M436.457 726.893V720.78C436.457 720.78 434.012 717.407 430.272 719.13C430.272 719.13 424.642 723.224 419.676 718.267L407.345 723.875C407.345 723.875 403.964 725.034 403.049 726.893H436.457Z" fill="#7FC6A6"/>
<path d="M436.581 720.78H436.333V726.859H436.581V720.78Z" fill="black"/>
<path d="M425.237 720.847C424.979 720.849 424.72 720.835 424.464 720.805L424.502 720.548C426.526 720.73 428.548 720.188 430.208 719.019L430.35 719.227C428.851 720.275 427.067 720.841 425.237 720.847Z" fill="black"/>
<path d="M433.455 725.749L433.318 725.541L434.893 724.452L435.029 724.66L433.455 725.749Z" fill="black"/>
<path d="M432.326 725.443L432.187 725.232L433.762 724.143L433.901 724.354L432.326 725.443Z" fill="black"/>
<path d="M401.869 729.967C401.67 729.793 401.512 729.58 401.403 729.34C401.295 729.1 401.239 728.839 401.24 728.576C401.235 728.1 401.419 727.64 401.753 727.299C402.086 726.958 402.541 726.763 403.018 726.756H436.408C436.535 726.758 436.66 726.784 436.776 726.834C436.892 726.884 436.998 726.956 437.086 727.047C437.174 727.138 437.244 727.245 437.291 727.362C437.338 727.48 437.361 727.605 437.359 727.732V729.421H437.101V727.732C437.103 727.543 437.031 727.361 436.899 727.226C436.767 727.091 436.587 727.013 436.398 727.011H403.023C402.82 727.013 402.619 727.055 402.431 727.135C402.244 727.215 402.075 727.331 401.932 727.476C401.79 727.621 401.678 727.793 401.603 727.982C401.527 728.171 401.49 728.373 401.492 728.576C401.492 728.803 401.54 729.027 401.633 729.233C401.726 729.44 401.863 729.624 402.034 729.773L401.869 729.967Z" fill="black"/>
<path d="M403.134 726.939L402.91 726.831C402.938 726.769 403.613 725.348 406.139 724.256C408.618 723.172 419.539 718.213 419.637 718.162L419.737 718.393C419.629 718.445 408.718 723.404 406.237 724.49C403.806 725.541 403.139 726.924 403.134 726.939Z" fill="black"/>
<path d="M396.542 581.418C396.542 581.418 365.36 520.231 364.43 520.231C363.806 520.231 355.052 526.848 349.225 531.303L350.362 527.765L326.061 487.459L316.583 493.083C316.583 493.083 317.557 507.368 324.36 513.938C328.653 518.073 336.505 526.763 341.719 532.616C338.149 543.862 335.964 547.333 341.886 631.937C341.886 631.937 350.604 636.793 365.551 633.879C380.497 630.964 389.244 627.81 397.748 630.48C406.252 633.15 396.542 581.418 396.542 581.418Z" fill="white"/>
<path d="M371.215 485.295C371.215 485.295 387.528 497.53 392.62 498.915C397.712 500.3 439.97 480.778 439.97 480.778L432.919 468.934L397.356 478.755L380.588 467.542L371.215 485.295Z" fill="#FE9F73"/>
<path d="M330.383 455.986C330.383 455.986 328.615 455.149 321.827 459.516C315.727 463.44 297.211 481.324 297.211 481.324C297.211 481.324 298.67 494.836 314.604 500.146L320.456 493.889C320.456 493.889 321.451 505.359 326.736 511.735C332.022 518.11 347.332 533.741 347.332 533.741C347.332 533.741 370.115 534.833 383.237 522.088L373.212 473.399C373.212 473.399 356.08 455.311 355.534 455.921C354.988 456.532 330.383 455.986 330.383 455.986Z" fill="#EF3A4C"/>
<path d="M337.127 456.895C337.673 456.895 361.366 450.885 367.744 454.163C374.122 457.44 391.731 470.641 391.731 470.641C391.731 470.641 389.669 488.698 377.264 493.068L363.472 478.384L337.127 456.895Z" fill="#EF3A4C"/>
<path d="M347.332 533.741C347.332 533.741 342.229 586.915 347.332 619.692C352.434 652.469 361.925 713.123 361.925 713.123C361.925 713.123 374.383 719.935 385.984 713.123C385.984 713.123 375.418 592.366 377.601 575.63L383.25 574.901C383.25 574.901 401.658 681.455 414.416 714.598C414.416 714.598 431.54 719.423 436.594 710.01C436.594 710.01 407.855 558.871 403.479 546.494C399.104 534.117 383.25 522.093 383.25 522.093C383.25 522.093 356.081 524.271 347.332 533.741Z" fill="#49263E"/>
<path d="M444.904 478.098C444.193 478.502 443.456 478.904 442.701 479.295L438.97 481.324L427.716 479.594L430.267 469.987C434.733 465.85 437.689 463.087 439.529 462.16C440.122 461.861 440.766 461.545 441.431 461.225C442.25 460.836 443.101 460.453 443.92 460.087C444.693 459.755 445.435 459.454 446.103 459.212C446.594 459.03 447.096 458.876 447.605 458.751V458.751C447.882 458.679 448.167 458.647 448.453 458.656H448.476C449.667 458.753 450.669 459.129 451.053 459.807C451.324 460.296 451.272 460.942 450.739 461.756L450.78 461.776C451.141 461.956 453.682 463.36 451.844 466.259C451.844 466.259 453.994 467.392 452.288 469.75L452.244 469.81C452.244 469.81 453.401 470.497 452.571 472.191C451.862 473.618 448.77 475.899 444.904 478.098Z" fill="#FE9F73"/>
<path d="M437.581 463.762C437.63 463.775 437.682 463.775 437.731 463.763C437.78 463.75 437.825 463.725 437.862 463.69C437.882 463.669 439.243 462.402 444.907 459.925C447.817 458.651 449.314 458.852 450.061 459.243C450.272 459.345 450.459 459.491 450.609 459.671C450.759 459.851 450.87 460.06 450.932 460.286C450.947 460.362 450.992 460.43 451.057 460.474C451.121 460.518 451.201 460.534 451.278 460.52C451.316 460.513 451.352 460.499 451.385 460.478C451.417 460.457 451.445 460.43 451.467 460.398C451.489 460.366 451.504 460.33 451.512 460.292C451.519 460.255 451.52 460.216 451.512 460.178C451.432 459.865 451.286 459.573 451.083 459.322C450.881 459.071 450.626 458.867 450.337 458.723C449.09 458.064 447.185 458.288 444.668 459.387C438.844 461.939 437.504 463.213 437.452 463.267C437.425 463.294 437.403 463.327 437.388 463.362C437.373 463.398 437.365 463.436 437.365 463.475C437.365 463.513 437.373 463.551 437.388 463.587C437.403 463.623 437.425 463.655 437.452 463.682C437.487 463.72 437.531 463.748 437.581 463.762Z" fill="#F07162"/>
<path d="M445.716 464.145C445.779 464.161 445.845 464.157 445.904 464.132L450.912 462.044C450.982 462.012 451.037 461.954 451.066 461.883C451.094 461.811 451.093 461.731 451.063 461.66C451.033 461.588 450.977 461.532 450.905 461.501C450.834 461.471 450.754 461.47 450.682 461.498L445.678 463.589C445.642 463.604 445.609 463.625 445.582 463.652C445.555 463.68 445.533 463.712 445.518 463.748C445.503 463.783 445.496 463.822 445.496 463.86C445.496 463.899 445.503 463.937 445.518 463.973C445.535 464.015 445.562 464.053 445.596 464.083C445.631 464.113 445.672 464.134 445.716 464.145V464.145Z" fill="#F07162"/>
<path d="M446.814 468.52C446.876 468.54 446.942 468.54 447.003 468.52L452.01 466.429C452.082 466.399 452.139 466.342 452.169 466.27C452.198 466.197 452.198 466.116 452.168 466.044C452.138 465.972 452.081 465.915 452.008 465.885C451.936 465.856 451.855 465.856 451.783 465.886L446.776 467.977C446.74 467.991 446.708 468.013 446.68 468.04C446.653 468.067 446.631 468.1 446.616 468.135C446.601 468.171 446.594 468.209 446.594 468.248C446.594 468.286 446.601 468.325 446.616 468.36C446.636 468.4 446.664 468.434 446.698 468.462C446.732 468.489 446.772 468.509 446.814 468.52Z" fill="#F07162"/>
<path d="M447.338 472.071C447.4 472.087 447.466 472.082 447.526 472.058L452.533 469.97C452.6 469.936 452.653 469.879 452.679 469.808C452.706 469.738 452.705 469.66 452.676 469.59C452.647 469.521 452.593 469.465 452.524 469.434C452.455 469.403 452.377 469.399 452.306 469.424L447.299 471.514C447.227 471.545 447.169 471.602 447.139 471.675C447.109 471.747 447.109 471.828 447.139 471.901C447.157 471.942 447.185 471.979 447.219 472.008C447.253 472.038 447.294 472.059 447.338 472.071V472.071Z" fill="#F07162"/>
<g style="mix-blend-mode:multiply" opacity="0.5">
<g style="mix-blend-mode:multiply" opacity="0.5">
<path d="M352.983 560.9C353.712 561.629 361.366 573.594 377.588 575.625L383.237 574.896C383.237 574.896 393.877 627.249 395.13 632.86C395.13 632.86 388.172 579.474 393.261 572.19C393.261 572.19 398.73 561.266 400.735 550.887C400.735 550.887 394.455 566.528 380.139 568.91C369.203 570.736 352.983 560.9 352.983 560.9Z" fill="#4CB7D8"/>
</g>
</g>
<path d="M347.332 533.741C347.332 533.741 362.278 537.773 369.569 535.224C376.859 532.675 383.227 522.093 383.227 522.093L386.041 524.392C386.041 524.392 376.862 537.183 371.205 538.481C365.549 539.779 346.917 538.481 346.917 538.481L345.054 533.769L347.332 533.741Z" fill="white"/>
<path d="M368.656 537.05C368.656 537.05 367.381 559.994 368.656 564.366C370.041 563.676 371.516 563.186 373.037 562.908C373.037 562.908 368.826 539.964 370.568 536.131C372.31 532.297 368.656 537.05 368.656 537.05Z" fill="white"/>
<path d="M374.658 535.801C374.658 535.801 386.023 555.781 386.827 560.262C385.283 560.26 383.747 560.476 382.263 560.903C382.263 560.903 375.82 538.484 372.548 535.835C369.275 533.185 374.658 535.801 374.658 535.801Z" fill="white"/>
<path d="M285.13 509.291C285.164 509.317 285.204 509.331 285.246 509.333C285.289 509.335 285.33 509.324 285.366 509.302C285.402 509.279 285.429 509.247 285.446 509.208C285.462 509.169 285.466 509.126 285.458 509.085L284.154 503.163C284.148 503.137 284.137 503.112 284.122 503.09C284.106 503.068 284.087 503.049 284.064 503.035C284.042 503.02 284.016 503.01 283.99 503.006C283.964 503.001 283.936 503.001 283.91 503.007C283.884 503.013 283.859 503.024 283.837 503.039C283.815 503.054 283.796 503.074 283.782 503.097C283.767 503.119 283.757 503.144 283.753 503.171C283.748 503.197 283.749 503.224 283.754 503.25L285.058 509.172C285.068 509.219 285.093 509.261 285.13 509.291Z" fill="#EF7162"/>
<path d="M250.56 485.341C251.439 485.683 255.495 489.718 256.897 491.301H256.915L263.826 499.476L272.4 488.966C272.4 488.966 264.128 479.493 262.806 478.221C261.484 476.949 255.631 474.156 253.176 474.014C248.722 473.757 250.132 475.343 250.132 475.343C245.481 475.513 248.07 477.804 248.07 477.804C243.891 477.588 245.921 480.219 245.921 480.219C243.664 480.335 243.378 481.136 243.532 481.785C243.592 482.018 243.706 482.235 243.864 482.417C244.022 482.599 244.221 482.741 244.445 482.833C245.491 483.278 248.122 484.39 250.552 485.341H250.56Z" fill="#F59F73"/>
<path d="M250.374 481.172C250.412 481.202 250.438 481.244 250.45 481.29C250.462 481.337 250.458 481.386 250.439 481.43C250.417 481.484 250.375 481.527 250.321 481.55C250.268 481.573 250.207 481.574 250.153 481.553C248.568 480.917 245.916 480.449 245.89 480.444C245.833 480.434 245.782 480.401 245.748 480.354C245.715 480.306 245.701 480.247 245.711 480.19C245.721 480.133 245.753 480.082 245.801 480.048C245.849 480.014 245.908 480.001 245.965 480.011C246.076 480.029 248.689 480.49 250.315 481.144C250.337 481.149 250.357 481.159 250.374 481.172V481.172Z" fill="#EF7162"/>
<path d="M252.163 479.03C252.202 479.062 252.229 479.108 252.239 479.158C252.248 479.209 252.24 479.261 252.215 479.305C252.186 479.357 252.138 479.394 252.081 479.41C252.025 479.426 251.964 479.419 251.913 479.39C250.701 478.742 249.398 478.28 248.047 478.021C247.993 478.007 247.947 477.973 247.916 477.927C247.886 477.88 247.874 477.823 247.884 477.768C247.893 477.714 247.923 477.664 247.967 477.63C248.011 477.596 248.067 477.58 248.122 477.585C249.525 477.85 250.878 478.33 252.135 479.007C252.145 479.013 252.155 479.02 252.163 479.03Z" fill="#EF7162"/>
<path d="M253.828 476.262C253.867 476.298 253.891 476.347 253.898 476.4C253.904 476.452 253.891 476.505 253.861 476.549C253.832 476.593 253.787 476.625 253.736 476.639C253.685 476.653 253.631 476.648 253.583 476.626C252.485 476.091 251.312 475.729 250.104 475.552C250.075 475.549 250.047 475.54 250.022 475.526C249.997 475.512 249.975 475.493 249.957 475.47C249.939 475.447 249.926 475.421 249.919 475.393C249.911 475.365 249.909 475.336 249.913 475.307C249.917 475.277 249.927 475.249 249.942 475.223C249.957 475.197 249.977 475.174 250.001 475.156C250.025 475.138 250.053 475.125 250.082 475.118C250.111 475.111 250.141 475.109 250.171 475.114C251.431 475.295 252.655 475.674 253.797 476.237L253.828 476.262Z" fill="#EF7162"/>
<path d="M314.665 500.375L314.547 500.341C314.397 500.3 299.644 495.964 297.01 481.36L296.99 481.252L311.163 468.028L311.442 468.329L297.433 481.411C299.951 495.001 313.153 499.489 314.542 499.924L324.128 489.754L324.427 490.034L314.665 500.375Z" fill="black"/>
<path d="M339.763 602.786C339.763 602.528 338.43 577.1 337.997 559.084C337.59 542.225 340.989 533.756 341.474 532.636C340.214 531.264 326.38 516.22 322.796 512.491C319.015 508.557 317.036 497.913 316.954 497.462L317.356 497.388C317.376 497.498 319.397 508.364 323.092 512.208C326.831 516.099 341.719 532.291 341.868 532.459L341.961 532.562L341.902 532.685C341.863 532.768 337.974 541.125 338.407 559.074C338.843 577.084 340.16 602.51 340.172 602.765L339.763 602.786Z" fill="black"/>
<path d="M342.747 529.302C331.135 518.076 324.966 509.528 324.899 509.443L325.234 509.204C325.293 509.289 331.45 517.811 343.033 529.006L342.747 529.302Z" fill="black"/>
<path d="M412.558 588.342C412.527 588.187 409.308 572.636 406.329 558.82C403.399 545.232 401.984 543.469 401.925 543.402L401.897 543.361C396.101 532.325 383.242 522.348 383.11 522.247L383.051 522.201L383.036 522.126C382.984 521.869 377.815 497.522 377.062 493.109C375.413 483.456 369.612 475.322 369.553 475.24L369.885 475C369.944 475.083 375.812 483.296 377.467 493.042C378.199 497.326 383.108 520.481 383.422 521.969C384.389 522.726 396.611 532.431 402.25 543.149C402.451 543.407 403.902 545.616 406.731 558.732C409.708 572.543 412.929 588.102 412.96 588.257L412.558 588.342Z" fill="black"/>
<path d="M361.845 526.316L361.701 525.929C368.659 523.331 383.072 521.897 383.216 521.882L383.257 522.291C383.113 522.304 368.762 523.733 361.845 526.316Z" fill="black"/>
<path d="M385.482 487.148L385.152 486.906C390.146 480.14 391.373 471.831 391.514 470.747L372.638 457.209L372.877 456.874L391.947 470.551V470.67C391.927 470.765 390.875 479.841 385.482 487.148Z" fill="black"/>
<path d="M313.449 427.468C313.604 432.272 313.725 437.059 313.707 441.832C313.707 444.222 313.65 446.603 313.56 448.977L313.48 450.757L313.364 452.531L313.305 453.416L313.222 454.299L313.06 456.081C312.794 458.582 312.916 461.11 313.421 463.574C313.94 466.057 314.932 468.417 316.343 470.526C317.742 472.6 319.502 474.408 321.538 475.863C323.513 477.295 325.683 478.439 327.981 479.259C326.006 477.929 324.141 476.444 322.402 474.818C320.727 473.225 319.286 471.405 318.121 469.411C316.995 467.442 316.199 465.302 315.763 463.077C315.339 460.829 315.208 458.535 315.371 456.254L315.48 454.451L315.534 453.542L315.565 452.634C315.585 452.028 315.606 451.421 315.614 450.816V449.001C315.591 446.583 315.503 444.168 315.323 441.765C314.987 436.966 314.362 432.192 313.449 427.468V427.468Z" fill="#49263E"/>
<path d="M310.733 425.83C310.733 425.83 304.806 420.464 311.101 413.041C315.137 408.288 319.09 411.344 322.203 410.742C325.316 410.139 332.339 406.846 336.774 410.953C341.209 415.06 342.443 418.296 346.659 422.117C350.782 425.843 373.818 442.344 375.472 459.032C375.491 459.203 375.507 459.375 375.519 459.546C376.666 474.362 363.386 481.597 349.009 485.397C340.618 487.617 330.102 483.971 326.695 480.163C319.384 471.993 315.66 459.693 315.003 446.34C314.812 442.478 315.495 430.688 310.733 425.83Z" fill="#49263E"/>
<path d="M385.767 713.141L380.786 651.089C377.843 623.766 377.093 583.826 377.085 583.427H377.495C377.495 583.828 378.253 623.748 381.193 651.058L386.175 713.11L385.767 713.141Z" fill="black"/>
<path d="M243.167 507.244C225.591 498.619 222.105 480.608 222.071 480.428L222.476 480.354C222.509 480.534 225.963 498.343 243.35 506.874L243.167 507.244Z" fill="black"/>
<path d="M209.828 438.101H80.8438V443.629H209.828V438.101Z" fill="#49263E"/>
<path d="M122.603 466.993C121.073 465.466 119.057 464.522 116.903 464.323L103.843 463.131V511.84H117.9C119.866 511.84 121.752 511.06 123.142 509.672C124.532 508.283 125.314 506.399 125.314 504.435V473.538C125.314 471.084 124.339 468.73 122.603 466.993V466.993ZM118.913 507.873C118.332 507.873 117.763 507.7 117.28 507.377C116.796 507.055 116.419 506.596 116.197 506.059C115.974 505.522 115.916 504.932 116.029 504.362C116.143 503.792 116.423 503.268 116.834 502.857C117.245 502.447 117.769 502.167 118.339 502.053C118.91 501.94 119.501 501.998 120.038 502.221C120.576 502.443 121.035 502.82 121.358 503.303C121.681 503.786 121.853 504.354 121.853 504.935C121.853 505.321 121.777 505.703 121.63 506.059C121.482 506.415 121.265 506.739 120.992 507.012C120.719 507.285 120.395 507.501 120.038 507.649C119.682 507.797 119.299 507.873 118.913 507.873V507.873Z" fill="white"/>
<path d="M110.234 434.577H103.843V463.744H110.234V434.577Z" fill="#FEC786"/>
<path d="M132.615 491.953V456.967L137.728 457.034V481.551C137.728 481.551 136.834 491.953 132.615 491.953Z" fill="white"/>
<path d="M135.362 434.366H132.615V456.967H135.362V434.366Z" fill="#FEC786"/>
<path d="M85.8398 456.49V507.751C85.8398 507.751 94.2744 490.469 94.0193 456.49H85.8398Z" fill="white"/>
<path d="M89.7388 433.889H85.8398V456.49H89.7388V433.889Z" fill="#FEC786"/>
<path d="M148.975 456.49V507.751C148.975 507.751 157.409 490.469 157.154 456.49H148.975Z" fill="white"/>
<path d="M152.874 433.889H148.975V456.49H152.874V433.889Z" fill="#FEC786"/>
<path d="M170.603 435.681H168.814V483.374H170.603V435.681Z" fill="white"/>
<path d="M171.402 432.331H168.019V454.932H171.402V432.331Z" fill="#FEC786"/>
<path d="M174.358 482.315H165.06C164.794 482.315 164.53 482.367 164.284 482.469C164.038 482.57 163.815 482.719 163.627 482.907C163.439 483.095 163.289 483.319 163.188 483.564C163.086 483.81 163.034 484.073 163.034 484.339V497.234C163.034 497.499 163.086 497.763 163.188 498.009C163.289 498.254 163.439 498.477 163.627 498.665C163.815 498.853 164.038 499.002 164.284 499.104C164.53 499.206 164.794 499.258 165.06 499.257H174.358C174.624 499.258 174.887 499.206 175.133 499.104C175.379 499.002 175.602 498.853 175.791 498.665C175.979 498.477 176.128 498.254 176.23 498.009C176.331 497.763 176.383 497.499 176.383 497.234V484.339C176.383 484.073 176.331 483.81 176.23 483.564C176.128 483.319 175.979 483.095 175.791 482.907C175.602 482.719 175.379 482.57 175.133 482.469C174.887 482.367 174.624 482.315 174.358 482.315ZM166.307 496.108C166.287 496.265 166.211 496.409 166.092 496.514C165.973 496.618 165.821 496.676 165.663 496.676C165.505 496.676 165.352 496.618 165.233 496.514C165.115 496.409 165.038 496.265 165.018 496.108V485.315C165.007 485.224 165.015 485.131 165.042 485.043C165.069 484.955 165.115 484.874 165.176 484.804C165.236 484.735 165.311 484.68 165.395 484.642C165.479 484.604 165.571 484.585 165.663 484.585C165.755 484.585 165.846 484.604 165.93 484.642C166.014 484.68 166.089 484.735 166.15 484.804C166.211 484.874 166.256 484.955 166.283 485.043C166.311 485.131 166.319 485.224 166.307 485.315V496.108ZM169.008 496.108C168.988 496.265 168.911 496.409 168.793 496.514C168.674 496.618 168.522 496.676 168.363 496.676C168.205 496.676 168.053 496.618 167.934 496.514C167.815 496.409 167.739 496.265 167.719 496.108V485.315C167.708 485.224 167.716 485.131 167.743 485.043C167.77 484.955 167.815 484.874 167.876 484.804C167.937 484.735 168.012 484.68 168.096 484.642C168.18 484.604 168.271 484.585 168.363 484.585C168.456 484.585 168.547 484.604 168.631 484.642C168.715 484.68 168.79 484.735 168.851 484.804C168.912 484.874 168.957 484.955 168.984 485.043C169.011 485.131 169.019 485.224 169.008 485.315V496.108ZM171.708 496.108C171.688 496.265 171.612 496.409 171.493 496.514C171.375 496.618 171.222 496.676 171.064 496.676C170.906 496.676 170.753 496.618 170.635 496.514C170.516 496.409 170.44 496.265 170.42 496.108V485.315C170.408 485.224 170.416 485.131 170.443 485.043C170.47 484.955 170.516 484.874 170.577 484.804C170.638 484.735 170.713 484.68 170.797 484.642C170.881 484.604 170.972 484.585 171.064 484.585C171.156 484.585 171.247 484.604 171.331 484.642C171.415 484.68 171.49 484.735 171.551 484.804C171.612 484.874 171.658 484.955 171.685 485.043C171.712 485.131 171.72 485.224 171.708 485.315V496.108ZM174.409 496.108C174.421 496.2 174.413 496.293 174.386 496.381C174.359 496.469 174.313 496.55 174.252 496.619C174.191 496.688 174.116 496.743 174.032 496.781C173.948 496.819 173.857 496.839 173.765 496.839C173.673 496.839 173.582 496.819 173.498 496.781C173.414 496.743 173.339 496.688 173.278 496.619C173.217 496.55 173.171 496.469 173.144 496.381C173.117 496.293 173.109 496.2 173.121 496.108V485.315C173.109 485.224 173.117 485.131 173.144 485.043C173.171 484.955 173.217 484.874 173.278 484.804C173.339 484.735 173.414 484.68 173.498 484.642C173.582 484.604 173.673 484.585 173.765 484.585C173.857 484.585 173.948 484.604 174.032 484.642C174.116 484.68 174.191 484.735 174.252 484.804C174.313 484.874 174.359 484.955 174.386 485.043C174.413 485.131 174.421 485.224 174.409 485.315V496.108Z" fill="white"/>
<path d="M200.96 435.681H199.172V483.374H200.96V435.681Z" fill="white"/>
<path d="M201.759 432.331H198.375V454.932H201.759V432.331Z" fill="#FEC786"/>
<path d="M185.4 435.681H184.377V483.374H185.4V435.681Z" fill="white"/>
<path d="M186.166 432.331H183.609V454.932H186.166V432.331Z" fill="#FEC786"/>
<path d="M184.885 481.993C179.043 482.83 182.532 496.783 182.532 496.783C182.323 484.8 184.885 484.8 184.885 484.8C184.885 484.8 187.446 484.8 187.237 496.783C187.24 496.783 190.729 482.83 184.885 481.993Z" fill="white"/>
<path d="M200.066 489.885C202.076 489.885 204.003 489.088 205.423 487.668C206.844 486.248 207.643 484.323 207.643 482.315H192.49C192.49 484.323 193.288 486.248 194.709 487.668C196.13 489.088 198.057 489.885 200.066 489.885Z" fill="white"/>
<path d="M86.1956 433.889H85.4844V507.754H86.1956V433.889Z" fill="#1D1D1B"/>
<path d="M104.199 434.577H103.487V511.83H104.199V434.577Z" fill="#1D1D1B"/>
<path d="M132.974 434.366H132.263V491.95H132.974V434.366Z" fill="#1D1D1B"/>
<path d="M149.33 433.889H148.619V506.866H149.33V433.889Z" fill="#1D1D1B"/>
<path d="M168.374 432.331H167.663V454.932H168.374V432.331Z" fill="#1D1D1B"/>
<path d="M183.965 432.331H183.254V454.932H183.965V432.331Z" fill="#1D1D1B"/>
<path d="M198.731 432.331H198.02V454.932H198.731V432.331Z" fill="#1D1D1B"/>
<path d="M493.638 548.765C493.94 548.999 494.313 549.123 494.695 549.115C495.029 549.037 495.338 548.875 495.592 548.644C496.568 547.942 497.69 547.469 498.875 547.261C500.06 547.052 501.276 547.114 502.434 547.441C504.776 548.124 507.214 549.89 509.391 548.804C511.36 547.823 511.752 545.07 513.515 543.767C514.589 542.979 516.038 542.833 517.094 542.022C517.965 541.352 518.465 540.317 518.932 539.321L521.668 533.484C522.645 531.398 523.617 528.919 522.514 526.9C521.957 525.87 520.967 525.193 519.996 524.552C518.336 523.45 516.151 522.371 514.478 523.452C512.806 524.534 512.775 527.121 511.182 528.295C510.33 528.921 509.211 529.009 508.16 529.127C506.297 529.336 504.243 529.848 503.263 531.444C502.699 532.351 502.562 533.504 501.856 534.302C500.15 536.236 496.298 534.99 494.898 537.163C494.602 537.624 494.481 538.175 494.21 538.649C493.569 539.776 492.244 540.284 491.025 540.726C489.221 541.375 486.247 543.255 488.368 545.413C488.93 545.982 489.835 545.927 490.505 546.298C491.675 546.929 492.51 548.047 493.638 548.765Z" fill="#2D968C"/>
<path d="M514.484 536.323C513.894 536.396 513.306 536.439 512.716 536.465C512.384 536.465 512.046 536.483 511.714 536.465L512.677 535.798L514.52 534.428L515.437 533.744L516.332 533.023L518.118 531.586L516.249 532.912L515.316 533.576L514.36 534.202L512.446 535.453L511.492 536.033C511.585 535.829 511.683 535.631 511.783 535.433C512.041 534.918 512.335 534.403 512.641 533.888C512.948 533.373 513.286 532.896 513.641 532.423C514.004 531.952 514.397 531.505 514.819 531.086C514.349 531.458 513.905 531.86 513.489 532.291C513.077 532.729 512.68 533.182 512.312 533.659C511.943 534.135 511.593 534.629 511.263 535.137C510.933 535.644 510.618 536.166 510.325 536.705L510.307 536.743C510.049 536.903 509.791 537.065 509.518 537.22L508.523 537.781C507.861 538.152 507.204 538.538 506.534 538.896L504.666 539.884C504.756 539.573 504.854 539.261 504.954 538.955C505.212 538.182 505.503 537.438 505.83 536.702C506.162 535.963 506.538 535.245 506.957 534.552C507.383 533.858 507.867 533.202 508.405 532.59C507.802 533.149 507.249 533.758 506.75 534.41C506.253 535.068 505.797 535.756 505.385 536.47C504.974 537.186 504.597 537.922 504.253 538.677C503.996 539.266 503.738 539.856 503.521 540.479H503.501L502.47 540.994C501.044 541.698 499.607 542.377 498.159 543.031C498.159 542.982 498.177 542.936 498.184 542.889C498.251 542.539 498.329 542.194 498.422 541.859C498.603 541.17 498.844 540.497 499.14 539.848C499.435 539.196 499.811 538.582 500.259 538.023C500.488 537.746 500.739 537.488 501.009 537.25C501.286 537.015 501.583 536.805 501.898 536.622C501.561 536.77 501.237 536.947 500.932 537.153C500.627 537.365 500.34 537.601 500.073 537.858C499.544 538.385 499.081 538.976 498.697 539.617C498.311 540.258 497.98 540.93 497.708 541.628C497.571 541.978 497.45 542.33 497.334 542.688C497.249 542.964 497.172 543.232 497.102 543.515C496.131 543.946 495.154 544.362 494.169 544.764L492.056 545.611C491.348 545.881 490.642 546.154 489.93 546.417C489.219 546.679 488.51 546.932 487.794 547.189C487.078 547.446 486.356 547.678 485.66 547.894H485.637C485.619 547.894 485.598 547.895 485.578 547.913C485.322 548.029 485.121 548.239 485.015 548.498C484.909 548.758 484.905 549.048 485.005 549.31C485.105 549.572 485.301 549.787 485.553 549.909C485.806 550.032 486.095 550.055 486.364 549.972C487.108 549.689 487.815 549.406 488.528 549.107C489.242 548.809 489.948 548.507 490.654 548.201C491.361 547.895 492.059 547.57 492.76 547.253L494.845 546.27C495.853 545.786 496.852 545.288 497.842 544.776C498.661 544.934 499.47 545.06 500.292 545.163C501.297 545.286 502.307 545.372 503.32 545.42C504.33 545.465 505.342 545.457 506.351 545.397C507.357 545.334 508.358 545.201 509.345 545C508.35 545.119 507.348 545.168 506.346 545.147C505.348 545.123 504.352 545.048 503.362 544.921C502.372 544.794 501.39 544.629 500.416 544.426C499.975 544.334 499.535 544.231 499.097 544.125C500.406 543.438 501.703 542.724 502.988 541.98L503.408 541.738C503.454 541.757 503.503 541.769 503.552 541.772C504.583 541.831 505.596 541.831 506.611 541.8C507.627 541.769 508.637 541.692 509.642 541.581C510.647 541.467 511.645 541.302 512.634 541.087C513.618 540.868 514.586 540.582 515.53 540.229C514.565 540.5 513.583 540.704 512.59 540.84C511.6 540.97 510.604 541.049 509.606 541.079C508.609 541.107 507.614 541.096 506.619 541.048C506.021 541.017 505.42 540.972 504.815 540.912L504.959 540.824L506.923 539.629C507.578 539.228 508.212 538.798 508.858 538.386L509.822 537.763C510.041 537.616 510.258 537.464 510.474 537.315L510.935 537.258C511.556 537.217 512.152 537.147 512.739 537.057C513.327 536.967 513.932 536.851 514.52 536.715C515.106 536.573 515.684 536.402 516.252 536.2C516.818 536.002 517.369 535.765 517.901 535.489C517.346 535.701 516.777 535.873 516.198 536.004C515.633 536.141 515.06 536.248 514.484 536.323V536.323Z" fill="#7FC6A6"/>
<path d="M498.123 554.277C501.473 554.499 503.885 555.704 505.908 556.836C507.24 557.589 508.741 557.99 510.272 558.003C511.802 558.015 513.31 557.639 514.654 556.909C522.47 552.64 534.224 544.035 527.495 538.512C526.485 537.709 525.238 537.26 523.947 537.235C522.656 537.211 521.392 537.611 520.352 538.375C515.945 541.517 513.479 538.069 509.786 540.659C507.565 542.245 505.008 543.297 502.313 543.733C496.308 544.648 489.526 545.937 492.366 550.799C492.968 551.804 493.807 552.647 494.811 553.254C495.814 553.86 496.952 554.211 498.123 554.277V554.277Z" fill="#258D8C"/>
<path d="M518.653 547.146C518.068 547.058 517.488 546.945 516.914 546.811C516.589 546.736 516.262 546.651 515.942 546.554L517.048 546.165L519.189 545.336L520.256 544.919L521.31 544.463L523.413 543.549L521.261 544.321L520.184 544.713L519.094 545.065L516.916 545.763L515.844 546.067C515.989 545.897 516.136 545.732 516.282 545.567C516.679 545.13 517.092 544.708 517.522 544.303C517.954 543.898 518.406 543.515 518.877 543.155C519.351 542.796 519.848 542.471 520.367 542.182C519.814 542.413 519.279 542.683 518.764 542.99C518.248 543.299 517.748 543.634 517.267 543.994C516.785 544.357 516.313 544.738 515.862 545.14C515.411 545.542 514.971 545.951 514.54 546.402L514.512 546.438C514.216 546.523 513.919 546.608 513.626 546.695L512.517 546.971C511.778 547.154 511.043 547.349 510.301 547.519L508.24 547.975C508.412 547.699 508.587 547.424 508.755 547.156C509.206 546.489 509.688 545.84 510.201 545.217C510.716 544.592 511.269 544 511.858 543.443C512.453 542.888 513.094 542.384 513.775 541.937C513.046 542.316 512.35 542.757 511.695 543.253C511.041 543.755 510.419 544.298 509.832 544.877C509.245 545.459 508.685 546.069 508.155 546.705C507.742 547.202 507.348 547.707 506.972 548.237H506.951L505.83 548.454C504.268 548.756 502.702 549.03 501.132 549.275L501.194 549.146C501.349 548.827 501.519 548.513 501.709 548.207C502.068 547.59 502.478 547.005 502.936 546.458C503.394 545.908 503.92 545.416 504.5 544.996C504.794 544.788 505.105 544.605 505.428 544.447C505.759 544.292 506.104 544.168 506.459 544.077C506.095 544.13 505.736 544.217 505.387 544.334C505.037 544.459 504.698 544.61 504.371 544.787C503.717 545.154 503.111 545.601 502.568 546.118C502.025 546.634 501.527 547.195 501.078 547.795C500.854 548.093 500.637 548.402 500.434 548.719C500.279 548.961 500.135 549.198 499.993 549.453C498.942 549.611 497.889 549.752 496.834 549.878L494.571 550.135C493.816 550.207 493.061 550.284 492.309 550.349C491.556 550.413 490.798 550.475 490.043 550.519C489.288 550.563 488.528 550.609 487.799 550.632H487.776C487.755 550.631 487.734 550.631 487.714 550.632C487.422 550.659 487.154 550.801 486.967 551.026C486.78 551.252 486.69 551.542 486.718 551.833C486.745 552.124 486.887 552.393 487.113 552.579C487.338 552.766 487.628 552.856 487.92 552.828C488.714 552.756 489.466 552.671 490.239 552.571C491.012 552.47 491.767 552.367 492.53 552.259C493.293 552.151 494.051 552.022 494.811 551.904L497.081 551.507C498.182 551.309 499.277 551.093 500.369 550.866C501.117 551.24 501.864 551.572 502.627 551.896C503.565 552.282 504.518 552.633 505.48 552.944C506.443 553.251 507.42 553.509 508.41 553.717C509.396 553.922 510.396 554.059 511.402 554.129C510.411 553.977 509.432 553.759 508.472 553.475C507.515 553.185 506.574 552.848 505.652 552.463C504.733 552.078 503.83 551.659 502.944 551.204C502.544 550.998 502.145 550.781 501.753 550.562C503.2 550.241 504.64 549.898 506.075 549.533L506.544 549.412C506.584 549.442 506.628 549.465 506.675 549.481C507.66 549.813 508.629 550.078 509.618 550.32C510.608 550.563 511.597 550.753 512.597 550.913C513.597 551.072 514.605 551.17 515.612 551.232C516.619 551.282 517.628 551.262 518.633 551.173C517.63 551.178 516.629 551.114 515.636 550.982C514.647 550.844 513.665 550.657 512.695 550.421C511.726 550.184 510.769 549.909 509.824 549.597C509.257 549.409 508.691 549.206 508.134 548.989L508.296 548.943L510.507 548.312C511.244 548.098 511.971 547.856 512.703 547.63L513.798 547.282C514.056 547.2 514.298 547.112 514.545 547.025L515.004 547.092C515.615 547.218 516.208 547.308 516.808 547.38C517.409 547.452 518.012 547.499 518.612 547.522C519.213 547.545 519.816 547.537 520.416 547.496C521.014 547.452 521.608 547.366 522.194 547.238C521.602 547.296 521.007 547.312 520.413 547.287C519.825 547.27 519.237 547.223 518.653 547.146Z" fill="#7FC6A6"/>
<path d="M491.67 549.357C491.582 548.99 491.573 548.608 491.644 548.236C491.714 547.865 491.863 547.512 492.079 547.202C493.515 545.143 497.916 544.308 502.3 543.639C504.978 543.209 507.52 542.163 509.724 540.583C511.528 539.329 513.002 539.465 514.577 539.609C516.267 539.764 518.014 539.924 520.293 538.299L520.408 538.464C518.071 540.129 516.285 539.967 514.559 539.808C513.012 539.669 511.569 539.535 509.84 540.747C507.61 542.344 505.039 543.401 502.331 543.837C497.989 544.499 493.636 545.315 492.244 547.316C492.042 547.603 491.903 547.93 491.838 548.275C491.773 548.62 491.782 548.975 491.866 549.316L491.67 549.357Z" fill="black"/>
<path d="M508.26 557.867C507.42 557.668 506.611 557.352 505.858 556.93C503.866 555.812 501.462 554.613 498.127 554.383V554.183C501.514 554.407 503.944 555.627 505.954 556.757C507.27 557.505 508.756 557.904 510.27 557.916C511.784 557.929 513.276 557.555 514.605 556.829L514.7 557.005C512.735 558.081 510.44 558.389 508.26 557.867V557.867Z" fill="black"/>
<path d="M488.309 545.477C487.678 544.838 487.438 544.169 487.59 543.494C487.889 542.181 489.613 541.128 491.002 540.626C492.11 540.224 493.489 539.725 494.133 538.594C494.25 538.376 494.352 538.15 494.437 537.917C494.54 537.634 494.67 537.362 494.824 537.104C495.571 535.935 497.014 535.721 498.408 535.515C499.676 535.327 500.985 535.131 501.784 534.228C502.153 533.754 502.433 533.218 502.609 532.644C502.758 532.206 502.949 531.783 503.181 531.382C504.261 529.65 506.531 529.207 508.162 529.024L508.361 529.003C509.343 528.895 510.358 528.782 511.134 528.21C511.909 527.639 512.301 526.743 512.695 525.862C513.121 524.915 513.561 523.934 514.437 523.367C515.79 522.492 517.63 522.852 520.063 524.464C521.132 525.175 522.063 525.844 522.614 526.848C523.697 528.826 522.849 531.225 521.772 533.522L521.589 533.437C522.643 531.187 523.478 528.844 522.436 526.946C521.921 525.981 520.998 525.327 519.952 524.629C517.592 523.063 515.829 522.706 514.54 523.532C513.713 524.068 513.306 524.979 512.873 525.942C512.466 526.848 512.048 527.783 511.25 528.37C510.451 528.957 509.386 529.088 508.379 529.199L508.178 529.222C506.598 529.397 504.379 529.825 503.346 531.485C503.123 531.876 502.936 532.286 502.789 532.711C502.605 533.307 502.314 533.865 501.929 534.356C501.086 535.314 499.738 535.515 498.434 535.708C497.019 535.917 495.687 536.115 494.989 537.207C494.84 537.451 494.717 537.71 494.62 537.979C494.529 538.22 494.422 538.455 494.301 538.682C493.623 539.874 492.203 540.389 491.064 540.801C489.987 541.192 488.08 542.207 487.781 543.525C487.644 544.13 487.868 544.735 488.446 545.327L488.309 545.477Z" fill="black"/>
<path d="M489.051 550.696L489.036 550.498C489.105 550.498 496.091 550.006 499.97 549.375L500.003 549.574C496.115 550.205 489.121 550.691 489.051 550.696Z" fill="black"/>
<path d="M503.957 550.184L503.908 549.988L506.552 549.329H506.58C510.447 550.678 514.536 551.274 518.628 551.085V551.286C514.519 551.474 510.413 550.877 506.529 549.527L503.957 550.184Z" fill="black"/>
<path d="M487.229 547.49L487.162 547.303C487.229 547.277 493.839 544.898 497.019 543.44C497.163 542.828 498.519 537.467 501.874 536.522L501.928 536.715C498.56 537.665 497.218 543.474 497.205 543.533V543.582L497.158 543.603C493.978 545.06 487.296 547.467 487.229 547.49Z" fill="black"/>
<path d="M501.617 541.548L501.527 541.367L503.436 540.425C503.601 539.946 505.256 535.33 508.333 532.539L508.467 532.688C505.274 535.582 503.627 540.479 503.612 540.528L503.596 540.567L501.617 541.548Z" fill="black"/>
<path d="M527.626 544.643L527.461 544.527C527.915 543.879 528.171 543.113 528.196 542.323H528.397C528.375 543.155 528.107 543.962 527.626 544.643V544.643Z" fill="black"/>
<path d="M526.596 544.939L526.431 544.821C526.887 544.175 527.142 543.409 527.165 542.619H527.366C527.347 543.452 527.079 544.26 526.596 544.939V544.939Z" fill="black"/>
<path d="M515.465 524.016V523.815C515.537 523.815 517.269 523.815 517.875 524.209L517.764 524.377C517.215 524.014 515.483 524.016 515.465 524.016Z" fill="black"/>
<path d="M515.904 524.861V524.667C515.979 524.667 517.708 524.667 518.316 525.061L518.205 525.229C517.656 524.861 515.922 524.861 515.904 524.861Z" fill="black"/>
<path d="M505.992 545.036C505.721 545.248 505.385 545.359 505.042 545.353C504.74 545.283 504.461 545.137 504.232 544.928C503.354 544.296 502.344 543.87 501.278 543.683C500.212 543.496 499.117 543.552 498.076 543.847C495.965 544.46 493.772 546.051 491.806 545.073C490.033 544.189 489.683 541.71 488.087 540.541C487.121 539.83 485.817 539.696 484.866 538.968C484.093 538.365 483.632 537.423 483.212 536.537L480.748 531.28C479.869 529.405 478.993 527.16 479.988 525.358C480.488 524.441 481.382 523.813 482.253 523.241C483.748 522.252 485.714 521.279 487.219 522.252C488.724 523.226 488.765 525.556 490.188 526.611C490.961 527.178 491.963 527.255 492.909 527.361C494.584 527.549 496.434 528.012 497.326 529.444C497.841 530.257 497.957 531.295 498.591 532.018C500.137 533.759 503.598 532.636 504.848 534.593C505.106 535.008 505.224 535.505 505.469 535.932C506.047 536.947 507.24 537.405 508.335 537.801C509.953 538.386 512.639 540.077 510.726 542.019C510.211 542.534 509.407 542.487 508.804 542.817C507.76 543.386 507.01 544.393 505.992 545.036Z" fill="#116D6A"/>
<path d="M487.227 533.839C487.758 533.901 488.286 533.942 488.817 533.965C489.118 533.965 489.42 533.981 489.721 533.978L488.853 533.376L487.193 532.142L486.369 531.527L485.562 530.878L483.957 529.591L485.637 530.783L486.477 531.38L487.338 531.947L489.062 533.072L489.92 533.587C489.835 533.404 489.747 533.226 489.662 533.049C489.422 532.575 489.165 532.109 488.889 531.656C488.611 531.2 488.31 530.759 487.987 530.335C487.662 529.91 487.308 529.509 486.928 529.132C487.351 529.468 487.751 529.831 488.126 530.219C488.5 530.61 488.854 531.021 489.185 531.45C489.515 531.877 489.832 532.32 490.128 532.778C490.425 533.237 490.708 533.695 490.974 534.189L490.989 534.225C491.226 534.369 491.463 534.516 491.7 534.655L492.595 535.17C493.193 535.505 493.783 535.85 494.399 536.174L496.079 537.063C495.996 536.782 495.911 536.504 495.821 536.228C495.589 535.542 495.326 534.865 495.033 534.199C494.734 533.534 494.395 532.887 494.017 532.263C493.638 531.64 493.207 531.049 492.729 530.497C493.269 531.002 493.768 531.55 494.218 532.137C494.665 532.731 495.076 533.35 495.447 533.993C495.816 534.637 496.156 535.301 496.478 535.981C496.715 536.512 496.937 537.042 497.138 537.593H497.156L498.076 538.051C499.359 538.685 500.653 539.296 501.957 539.885L501.934 539.758C501.874 539.444 501.802 539.133 501.72 538.824C501.556 538.206 501.341 537.603 501.076 537.021C500.808 536.435 500.47 535.883 500.068 535.379C499.862 535.128 499.636 534.895 499.393 534.681C499.144 534.468 498.875 534.278 498.591 534.114C498.895 534.247 499.187 534.406 499.462 534.591C499.736 534.783 499.994 534.996 500.235 535.227C500.711 535.701 501.126 536.232 501.472 536.808C501.82 537.382 502.119 537.985 502.364 538.61C502.488 538.924 502.601 539.241 502.702 539.565C502.776 539.823 502.846 540.052 502.908 540.309C503.781 540.696 504.66 541.07 505.547 541.432L507.448 542.204C508.085 542.462 508.737 542.694 509.361 542.931C509.984 543.167 510.649 543.399 511.286 543.621C511.922 543.842 512.574 544.058 513.208 544.254H513.226C513.245 544.258 513.263 544.264 513.28 544.272C513.408 544.314 513.525 544.382 513.626 544.471C513.726 544.559 513.808 544.668 513.865 544.789C513.923 544.91 513.955 545.041 513.96 545.175C513.966 545.309 513.944 545.443 513.896 545.568C513.849 545.693 513.776 545.808 513.683 545.904C513.59 546.001 513.478 546.078 513.355 546.13C513.231 546.182 513.099 546.209 512.964 546.209C512.83 546.209 512.697 546.181 512.574 546.128C511.904 545.871 511.268 545.613 510.623 545.356C509.979 545.098 509.335 544.815 508.711 544.54C508.088 544.264 507.446 543.971 506.815 543.687L504.938 542.799C504.031 542.364 503.135 541.916 502.24 541.455C501.503 541.599 500.774 541.713 500.034 541.803C499.13 541.916 498.231 541.991 497.308 542.032C496.399 542.071 495.488 542.065 494.579 542.011C493.673 541.953 492.773 541.833 491.883 541.653C492.78 541.759 493.682 541.803 494.584 541.785C495.483 541.763 496.38 541.696 497.272 541.584C498.161 541.468 499.047 541.326 499.924 541.136C500.321 541.054 500.717 540.961 501.112 540.863C499.933 540.24 498.765 539.597 497.607 538.934L497.231 538.716C497.189 538.732 497.144 538.741 497.099 538.744C496.166 538.798 495.262 538.798 494.344 538.77C493.427 538.741 492.522 538.674 491.618 538.571C490.713 538.469 489.813 538.321 488.922 538.129C488.037 537.931 487.167 537.673 486.317 537.356C487.185 537.6 488.07 537.783 488.964 537.905C489.854 538.023 490.751 538.095 491.649 538.121C492.548 538.147 493.453 538.139 494.339 538.093C494.875 538.064 495.416 538.023 495.952 537.972L495.821 537.892L494.053 536.815C493.466 536.452 492.891 536.069 492.311 535.698L491.445 535.137C491.247 535.003 491.051 534.866 490.858 534.732L490.443 534.681C489.881 534.645 489.348 534.581 488.806 534.501C488.265 534.421 487.734 534.315 487.206 534.192C486.678 534.068 486.157 533.914 485.644 533.739C485.136 533.559 484.64 533.346 484.16 533.1C484.664 533.29 485.181 533.446 485.706 533.566C486.208 533.682 486.716 533.773 487.227 533.839V533.839Z" fill="#7FC6A6"/>
<path d="M501.957 550.006C498.95 550.204 496.77 551.293 494.948 552.308C493.748 552.985 492.396 553.346 491.019 553.358C489.641 553.37 488.283 553.031 487.072 552.375C480.037 548.531 469.456 540.788 475.514 535.814C476.425 535.088 477.55 534.682 478.715 534.66C479.879 534.637 481.019 535 481.957 535.69C485.923 538.522 488.142 535.415 491.469 537.75C493.466 539.178 495.767 540.125 498.192 540.518C503.604 541.342 509.704 542.5 507.147 546.878C506.604 547.783 505.847 548.542 504.942 549.088C504.037 549.633 503.012 549.948 501.957 550.006V550.006Z" fill="#116D6A"/>
<path d="M483.475 543.579C483.99 543.499 484.523 543.399 485.039 543.281C485.333 543.211 485.626 543.134 485.915 543.051L484.918 542.701L482.99 541.955L482.029 541.579L481.08 541.169L479.189 540.348L481.127 541.051L482.093 541.404L483.075 541.72L485.036 542.348L486.003 542.621C485.871 542.469 485.745 542.32 485.606 542.173C485.25 541.779 484.879 541.401 484.49 541.035C484.103 540.67 483.696 540.326 483.271 540.005C482.846 539.681 482.398 539.388 481.931 539.127C482.427 539.337 482.91 539.58 483.374 539.854C483.835 540.134 484.289 540.435 484.722 540.76C485.155 541.084 485.58 541.429 485.987 541.79C486.394 542.15 486.789 542.521 487.175 542.928C487.185 542.937 487.194 542.947 487.201 542.959V542.959C487.459 543.036 487.734 543.113 488 543.185L488.997 543.443C489.662 543.608 490.324 543.785 490.992 543.937L492.85 544.346C492.695 544.089 492.538 543.852 492.375 543.61C491.971 543.01 491.535 542.426 491.087 541.864C490.624 541.302 490.126 540.769 489.597 540.268C489.061 539.769 488.483 539.315 487.871 538.911C488.527 539.252 489.153 539.648 489.742 540.096C490.331 540.548 490.891 541.037 491.419 541.558C491.949 542.083 492.452 542.633 492.93 543.206C493.301 543.654 493.656 544.104 493.996 544.586H494.017L495.025 544.782C496.43 545.053 497.84 545.299 499.254 545.521C499.233 545.482 499.215 545.441 499.197 545.405C499.055 545.116 498.903 544.836 498.741 544.558C498.418 544.003 498.049 543.477 497.638 542.984C497.225 542.489 496.752 542.046 496.231 541.666C495.965 541.48 495.685 541.315 495.393 541.172C495.096 541.034 494.787 540.923 494.471 540.84C494.799 540.887 495.122 540.963 495.437 541.069C495.751 541.18 496.056 541.316 496.349 541.476C496.935 541.806 497.478 542.209 497.965 542.673C498.454 543.137 498.902 543.642 499.305 544.182C499.509 544.439 499.702 544.73 499.885 545.013C500.024 545.232 500.155 545.446 500.282 545.675C501.227 545.817 502.178 545.933 503.116 546.059L505.152 546.288C505.833 546.352 506.51 546.422 507.191 546.478C507.871 546.535 508.549 546.592 509.229 546.633C509.909 546.674 510.592 546.713 511.249 546.736H511.327C511.59 546.761 511.832 546.889 512 547.092C512.168 547.296 512.249 547.557 512.224 547.82C512.199 548.082 512.07 548.324 511.867 548.492C511.663 548.66 511.401 548.741 511.139 548.716C510.425 548.649 509.745 548.572 509.051 548.484C508.358 548.397 507.675 548.301 506.99 548.203C506.304 548.106 505.621 547.99 504.928 547.884L502.885 547.529C501.895 547.357 500.909 547.164 499.926 546.95C499.254 547.284 498.578 547.586 497.893 547.871C497.048 548.215 496.189 548.53 495.316 548.816C494.45 549.095 493.57 549.33 492.68 549.519C491.797 549.708 490.902 549.835 490.002 549.9C490.894 549.766 491.775 549.569 492.638 549.311C493.5 549.052 494.347 548.749 495.177 548.402C496.005 548.058 496.817 547.681 497.615 547.269C497.975 547.083 498.333 546.891 498.687 546.692C497.386 546.4 496.089 546.09 494.795 545.76L494.373 545.649C494.336 545.676 494.296 545.698 494.254 545.714C493.368 546.012 492.494 546.252 491.605 546.468C490.716 546.684 489.822 546.859 488.922 547.001C488.022 547.143 487.116 547.24 486.206 547.289C485.301 547.335 484.393 547.317 483.49 547.235C484.391 547.24 485.292 547.182 486.186 547.063C487.077 546.937 487.961 546.774 488.835 546.548C489.708 546.321 490.569 546.084 491.412 545.804C491.927 545.634 492.442 545.451 492.932 545.258L492.785 545.217L490.796 544.65C490.133 544.457 489.476 544.236 488.819 544.032L487.835 543.721C487.608 543.646 487.384 543.566 487.16 543.489L486.747 543.551C486.196 543.664 485.665 543.744 485.124 543.808C484.583 543.873 484.039 543.914 483.498 543.937C482.956 543.958 482.413 543.95 481.872 543.914C481.334 543.877 480.799 543.803 480.271 543.692C480.804 543.744 481.34 543.757 481.874 543.734C482.41 543.711 482.944 543.659 483.475 543.579V543.579Z" fill="#7FC6A6"/>
<path d="M507.765 545.57C507.844 545.239 507.852 544.895 507.788 544.561C507.725 544.227 507.591 543.91 507.397 543.631C506.108 541.769 502.142 541.025 498.194 540.423C495.783 540.036 493.494 539.093 491.51 537.67C489.899 536.543 488.559 536.666 487.142 536.795C485.621 536.934 484.049 537.078 481.988 535.616L481.882 535.762C483.987 537.264 485.595 537.117 487.149 536.975C488.533 536.849 489.84 536.718 491.396 537.82C493.404 539.257 495.719 540.21 498.158 540.603C502.065 541.198 505.985 541.932 507.237 543.734C507.42 543.992 507.545 544.287 507.603 544.598C507.662 544.909 507.653 545.229 507.577 545.536L507.765 545.57Z" fill="black"/>
<path d="M492.837 553.232C493.594 553.053 494.321 552.769 494.999 552.388C496.803 551.384 498.957 550.294 501.97 550.096L501.957 549.916C498.908 550.117 496.721 551.203 494.911 552.233C493.727 552.907 492.389 553.267 491.026 553.278C489.663 553.289 488.319 552.952 487.124 552.298L487.036 552.457C488.807 553.426 490.874 553.702 492.837 553.232Z" fill="black"/>
<path d="M510.791 542.078C511.358 541.502 511.564 540.902 511.438 540.294C511.18 539.112 509.616 538.165 508.366 537.719C507.369 537.356 506.126 536.908 505.549 535.891C505.442 535.695 505.35 535.491 505.273 535.281C505.181 535.026 505.064 534.78 504.926 534.547C504.253 533.497 502.954 533.303 501.697 533.118C500.555 532.948 499.377 532.773 498.658 531.962C498.328 531.535 498.077 531.052 497.919 530.536C497.783 530.142 497.61 529.762 497.403 529.4C496.429 527.84 494.378 527.441 492.919 527.276L492.739 527.258C491.855 527.16 490.935 527.06 490.242 526.545C489.549 526.03 489.193 525.224 488.837 524.431C488.453 523.576 488.064 522.693 487.268 522.183C486.052 521.395 484.395 521.72 482.204 523.172C481.24 523.81 480.4 524.413 479.908 525.319C478.934 527.098 479.697 529.258 480.666 531.326L480.831 531.249C479.88 529.225 479.132 527.114 480.057 525.404C480.534 524.536 481.346 523.947 482.297 523.321C484.42 521.913 486.013 521.591 487.162 522.335C487.907 522.816 488.276 523.622 488.665 524.505C489.031 525.319 489.407 526.161 490.126 526.691C490.845 527.222 491.803 527.338 492.703 527.436L492.883 527.456C494.306 527.616 496.303 528.002 497.233 529.495C497.435 529.847 497.603 530.217 497.733 530.6C497.899 531.136 498.161 531.638 498.506 532.08C499.279 532.943 500.48 533.11 501.653 533.296C502.926 533.484 504.127 533.664 504.745 534.645C504.878 534.868 504.989 535.104 505.078 535.348C505.157 535.565 505.253 535.776 505.364 535.979C505.974 537.055 507.25 537.523 508.276 537.889C509.247 538.239 510.963 539.153 511.234 540.34C511.355 540.886 511.154 541.429 510.634 541.96L510.791 542.078Z" fill="black"/>
<path d="M510.123 546.777L510.136 546.597C510.072 546.597 503.784 546.154 500.292 545.588L500.264 545.766C503.763 546.335 510.059 546.772 510.123 546.777Z" fill="black"/>
<path d="M496.702 546.316L496.746 546.141L494.365 545.544L494.339 545.557C490.858 546.77 487.176 547.306 483.493 547.135V547.315C487.191 547.485 490.888 546.949 494.386 545.734L496.702 546.316Z" fill="black"/>
<path d="M511.762 543.891L511.822 543.721C511.762 543.7 505.809 541.555 502.949 540.255C502.817 539.704 501.599 534.879 498.568 534.027L498.519 534.202C501.552 535.057 502.761 540.286 502.771 540.34V540.384L502.812 540.402C505.686 541.702 511.7 543.868 511.762 543.891Z" fill="black"/>
<path d="M498.81 538.541L498.89 538.378L497.171 537.529C497.025 537.099 495.535 532.943 492.762 530.43L492.641 530.564C495.517 533.172 496.999 537.578 497.022 537.622V537.658L498.81 538.541Z" fill="black"/>
<path d="M475.403 541.329L475.55 541.223C475.142 540.64 474.912 539.95 474.888 539.238H474.708C474.728 539.989 474.97 540.716 475.403 541.329V541.329Z" fill="black"/>
<path d="M476.316 541.592L476.463 541.489C476.054 540.905 475.825 540.215 475.803 539.503H475.623C475.64 540.253 475.881 540.98 476.316 541.592Z" fill="black"/>
<path d="M486.343 522.757V522.577C486.278 522.577 484.714 522.577 484.173 522.932L484.273 523.082C484.768 522.757 486.327 522.757 486.343 522.757Z" fill="black"/>
<path d="M485.949 523.52V523.339C485.882 523.339 484.317 523.339 483.779 523.692L483.877 523.844C484.372 523.517 485.931 523.52 485.949 523.52Z" fill="black"/>
<path d="M510.636 561.943H492.579C490.102 561.943 487.65 561.455 485.362 560.508C483.074 559.561 480.995 558.173 479.243 556.423C477.492 554.673 476.103 552.596 475.155 550.31C474.208 548.023 473.72 545.573 473.721 543.098H529.503C529.503 545.573 529.015 548.024 528.067 550.311C527.119 552.598 525.729 554.676 523.977 556.426C522.225 558.176 520.145 559.564 517.856 560.511C515.567 561.457 513.114 561.944 510.636 561.943V561.943Z" fill="#BC4D26"/>
<path d="M510.636 561.943H492.579C490.102 561.943 487.65 561.455 485.362 560.508C483.074 559.561 480.995 558.173 479.243 556.423C477.492 554.673 476.103 552.596 475.155 550.31C474.208 548.023 473.72 545.573 473.721 543.098H529.503C529.503 545.573 529.015 548.024 528.067 550.311C527.119 552.598 525.729 554.676 523.977 556.426C522.225 558.176 520.145 559.564 517.856 560.511C515.567 561.457 513.114 561.944 510.636 561.943V561.943Z" fill="#4CB7D8"/>
<path d="M529.497 542.519H473.713V543.68H529.497V542.519Z" fill="black"/>
<path d="M301.11 312.301H114.733V380.81H301.11V312.301Z" fill="#F99247"/>
<path d="M205.088 317.208H119.256V375.903H205.088V317.208Z" fill="#C5F1FF"/>
<path d="M205.354 376.17H118.988V316.951H205.354V376.17ZM119.522 375.635H204.821V317.476H119.522V375.635Z" fill="#21111D"/>
<path d="M137.293 348.932L136.955 348.515L165.815 324.933L166.153 325.347L137.293 348.932Z" fill="#21111D"/>
<path d="M144.877 351.152L144.537 350.74L162.001 336.249L162.342 336.664L144.877 351.152Z" fill="#21111D"/>
<path d="M295.719 317.208H209.887V375.903H295.719V317.208Z" fill="#C5F1FF"/>
<path d="M295.985 376.17H209.624V316.951H295.987L295.985 376.17ZM210.152 375.635H295.451V317.476H210.152V375.635Z" fill="#21111D"/>
<path d="M227.923 348.932L227.588 348.515L256.448 324.933L256.783 325.347L227.923 348.932Z" fill="#21111D"/>
<path d="M235.51 351.152L235.17 350.74L252.634 336.249L252.972 336.664L235.51 351.152Z" fill="#21111D"/>
</svg>
