<svg width="806" height="980" viewBox="0 0 806 980" fill="none" xmlns="http://www.w3.org/2000/svg">
<path d="M353.67 608.937C433.019 621.113 461.733 675.214 524.077 642.069C586.422 608.925 541.946 526.075 542.335 486.075C542.725 446.075 567.519 406.769 535.312 356.102C503.105 305.435 194.583 153.617 174.098 309.758C153.612 465.898 73.8617 474.227 116.22 547.628C158.578 621.028 274.334 596.736 353.67 608.937Z" fill="#D2F5FF"/>
<path d="M549.078 533.381C549.139 531.287 549.139 529.18 549.078 527.074L548.384 524.029C549.261 542.416 546.242 561.497 535.653 576.876C524.698 592.815 506.683 602.897 487.087 600.718C465.092 598.282 447.09 584.182 427.614 575.037C408.517 566.087 387.861 564.078 367.047 566.185C345.503 568.389 324.689 574.587 303.753 579.81C283.462 584.864 262.892 588.772 241.895 587.762C205.379 585.996 168.243 571.007 144.714 542.294C126.456 519.987 117.121 489.691 120.869 460.991L120.2 462.209C117.449 485.807 123.389 510.477 135.841 530.775C155.182 562.313 189.97 581.199 225.913 586.715C245.498 589.722 265.143 588.565 284.533 584.754C307.051 580.322 328.912 573.065 351.479 568.985C373.388 565.04 396.454 563.981 417.682 571.53C438.448 578.921 455.866 593.655 477.325 599.415C486.892 601.984 497.031 602.544 506.537 599.634C514.776 597.044 522.273 592.513 528.398 586.422C542.566 572.541 548.506 552.803 549.078 533.381Z" fill="#73C7FF"/>
<path d="M547.192 449.387C536.237 436.066 529.226 419.408 522.75 403.591C517.784 391.414 512.843 379.238 506.002 368.023C500.237 358.597 493.122 350.068 484.884 342.708C468.439 327.986 447.71 317.831 425.764 314.884C403.818 311.938 382.542 317.32 362.616 326.099C341.985 335.146 322.863 347.189 302.524 356.833C292.386 361.796 281.787 365.752 270.877 368.644C260.299 371.311 249.064 372.918 238.231 370.811C227.179 368.656 217.357 362.069 214.411 350.696C211.368 338.909 215.628 326.342 220.753 315.822C230.855 295.122 247.141 278.233 265.618 264.851C276.725 256.881 288.517 249.912 300.856 244.029L299.894 243.883C293.322 247.13 286.911 250.62 280.663 254.354C261.188 266.007 243.185 280.705 230.003 299.31C223.455 308.552 217.71 318.939 214.752 329.922C211.891 340.479 211.855 352.607 219.304 361.338C225.926 369.119 236.503 371.944 246.338 372.297C257.293 372.735 268.247 370.324 278.581 367.073C300.211 360.254 319.856 348.577 339.782 337.995C359.914 327.317 381.093 317.295 404.074 315.043C427.055 312.79 450.327 319.39 469.705 331.798C479.48 338.048 488.257 345.737 495.741 354.604C503.993 364.346 510.128 375.572 515.326 387.225C524.856 408.583 531.965 431.865 547.106 450.069L547.192 449.387Z" fill="#73C7FF"/>
<path d="M528.802 479.276C532.593 461.65 524.903 445.045 511.628 442.188C498.352 439.332 484.518 451.305 480.727 468.931C476.937 486.557 484.627 503.162 497.902 506.019C511.178 508.876 525.012 496.903 528.802 479.276Z" fill="#B8EDFF"/>
<path d="M494.536 673.29C494.536 678.088 419.666 681.984 327.318 681.984C234.969 681.984 160.1 678.088 160.1 673.29C160.1 668.492 234.969 664.596 327.318 664.596C419.666 664.596 494.536 668.492 494.536 673.29Z" fill="#E1F9FF"/>
<path d="M449.512 412.747C463.06 410.592 473.625 406.221 473.114 403.006C472.602 399.791 461.197 398.842 447.638 400.985C434.078 403.128 423.525 407.511 424.048 410.726C424.572 413.941 435.965 414.89 449.512 412.747Z" fill="#2E66C6"/>
<path d="M452.189 404.443C461.282 401.521 470.216 399.572 473.125 402.848C473.125 402.848 468.561 385.216 462.523 369.448C464.337 385.131 455.805 399.268 452.189 404.443Z" fill="#DEEFFF"/>
<path d="M436.89 555.408C478.883 568.924 511.479 582.026 506.124 598.66C500.768 615.293 459.517 629.101 417.524 615.634C375.531 602.166 342.874 585.545 348.229 568.912C353.585 552.279 394.896 541.892 436.89 555.408Z" fill="#B8EDFF"/>
<path d="M273.554 373.429C317.373 411.018 339.015 457.618 321.95 477.515C304.885 497.411 233.253 513.18 189.458 475.615C145.664 438.05 156.01 385.277 180.415 354.093C204.819 322.909 229.76 335.852 273.554 373.429Z" fill="#B8EDFF"/>
<path d="M205.282 670.051C205.161 670.049 205.041 670.024 204.929 669.978C204.827 669.932 204.734 669.866 204.657 669.784C204.58 669.702 204.52 669.606 204.48 669.501C204.441 669.395 204.422 669.283 204.426 669.171C204.43 669.058 204.456 668.948 204.503 668.846L265.363 533.125C265.47 532.943 265.641 532.806 265.843 532.741C266.044 532.677 266.263 532.688 266.456 532.774C266.65 532.859 266.806 533.013 266.893 533.206C266.981 533.399 266.995 533.617 266.933 533.819L206.073 669.552C206.006 669.704 205.894 669.833 205.754 669.922C205.613 670.011 205.449 670.056 205.282 670.051Z" fill="#3E2E53"/>
<path d="M231.634 625.229L239.412 651.311L261.577 650.167L254.542 621.795L231.634 625.229Z" fill="#F8A085"/>
<path d="M236.333 640.986L239.412 651.311L261.577 650.167L259.021 639.877L236.333 640.986Z" fill="white"/>
<path d="M393.546 672.693C393.362 672.69 393.183 672.63 393.035 672.521C392.887 672.412 392.776 672.259 392.718 672.085L350.895 531.08C350.83 530.862 350.854 530.627 350.961 530.426C351.068 530.226 351.25 530.075 351.467 530.008C351.575 529.976 351.688 529.966 351.8 529.979C351.912 529.991 352.02 530.025 352.118 530.08C352.217 530.134 352.303 530.207 352.373 530.295C352.443 530.383 352.495 530.484 352.526 530.592L394.361 671.658C394.425 671.875 394.401 672.108 394.294 672.306C394.187 672.505 394.005 672.653 393.789 672.718L393.546 672.693Z" fill="#3E2E53"/>
<path d="M255.041 671.841C254.793 671.842 254.547 671.788 254.323 671.683C253.912 671.49 253.594 671.142 253.436 670.716C253.279 670.29 253.296 669.82 253.483 669.406L318.42 529.497C318.611 529.085 318.957 528.766 319.383 528.609C319.808 528.453 320.279 528.472 320.69 528.663C321.102 528.853 321.421 529.199 321.577 529.625C321.734 530.051 321.715 530.522 321.524 530.933L256.587 670.843C256.454 671.141 256.237 671.395 255.963 671.572C255.688 671.75 255.368 671.843 255.041 671.841Z" fill="#3E2E53"/>
<path d="M369.652 591.902H245.717C245.491 591.902 245.275 591.812 245.115 591.652C244.955 591.492 244.865 591.275 244.865 591.049C244.865 590.823 244.955 590.607 245.115 590.447C245.275 590.287 245.491 590.197 245.717 590.197H369.652C369.764 590.197 369.875 590.219 369.978 590.262C370.081 590.305 370.175 590.368 370.254 590.447C370.334 590.526 370.396 590.62 370.439 590.723C370.482 590.827 370.504 590.937 370.504 591.049C370.504 591.161 370.482 591.272 370.439 591.376C370.396 591.479 370.334 591.573 370.254 591.652C370.175 591.731 370.081 591.794 369.978 591.837C369.875 591.88 369.764 591.902 369.652 591.902V591.902Z" fill="#3E2E53"/>
<path d="M447.479 673.558C447.111 673.558 446.753 673.44 446.457 673.221C446.161 673.001 445.943 672.693 445.836 672.34L405.596 534.27C405.511 534.048 405.474 533.811 405.486 533.574C405.497 533.337 405.558 533.105 405.664 532.892C405.77 532.68 405.919 532.492 406.101 532.34C406.284 532.188 406.495 532.075 406.723 532.01C406.951 531.944 407.19 531.926 407.426 531.957C407.661 531.988 407.887 532.068 408.09 532.191C408.293 532.314 408.468 532.478 408.604 532.673C408.741 532.867 408.835 533.087 408.882 533.32L449.123 671.366C449.185 671.585 449.203 671.815 449.175 672.041C449.147 672.267 449.075 672.485 448.961 672.683C448.848 672.88 448.696 673.053 448.514 673.191C448.333 673.328 448.126 673.428 447.905 673.485C447.767 673.528 447.624 673.553 447.479 673.558V673.558Z" fill="#3E2E53"/>
<path d="M423.439 592.766H299.505C299.05 592.766 298.613 592.585 298.291 592.263C297.969 591.941 297.789 591.504 297.789 591.049C297.789 590.594 297.969 590.157 298.291 589.835C298.613 589.513 299.05 589.332 299.505 589.332H423.439C423.895 589.332 424.331 589.513 424.653 589.835C424.975 590.157 425.156 590.594 425.156 591.049C425.156 591.504 424.975 591.941 424.653 592.263C424.331 592.585 423.895 592.766 423.439 592.766Z" fill="#3E2E53"/>
<path d="M461.526 462.513C461.526 462.513 473.406 436.285 460.199 415.256C446.992 394.227 387.971 414.403 387.971 414.403L402.114 499.457L461.526 462.513Z" fill="#D8494A"/>
<path d="M313.211 539.213C331.61 539.213 346.525 535.806 346.525 531.603C346.525 527.4 331.61 523.993 313.211 523.993C294.811 523.993 279.896 527.4 279.896 531.603C279.896 535.806 294.811 539.213 313.211 539.213Z" fill="#D8494A"/>
<path d="M287.698 622.148L292.835 648.608L314.623 648.23L313.405 622.769L287.698 622.148Z" fill="#F8A085"/>
<path d="M290.851 638.38L292.835 648.608L314.622 648.231L314.148 638.38H290.851Z" fill="white"/>
<path d="M233.448 631.354C233.448 631.354 155.621 518.915 189.459 475.615C223.297 432.315 394.812 459.225 394.812 459.225C394.812 459.225 433.032 482.568 402.431 510.891C371.831 539.214 243.478 520.34 243.478 520.34L260.762 631.147L233.448 631.354Z" fill="#2756A8"/>
<path d="M243.502 618.873C242.054 614.66 208.106 515.542 217.418 501.077C221.349 494.988 232.718 491.713 251.195 491.335C260.058 491.23 268.92 491.674 277.729 492.663L277.656 493.235C277.157 493.174 227.009 487.147 217.868 501.357C208.727 515.567 243.648 617.655 244.038 618.69L243.502 618.873Z" fill="#1A417A"/>
<path d="M264.827 474.239C271.12 436.139 399.765 472.754 399.765 472.754C399.765 472.754 421.285 469.466 399.132 496.218C385.192 512.756 368.478 526.737 349.739 537.533C349.739 537.533 258.522 512.34 264.827 474.239Z" fill="#2E66C6"/>
<path d="M289.463 630.891C289.463 630.891 228.908 459.7 282.16 461.369C335.412 463.037 318.14 632.024 318.14 632.024L289.463 630.891Z" fill="#2E66C6"/>
<path d="M304.508 618.179C304.179 613.503 296.62 503.512 310.935 491.043C318.445 484.504 332.406 485.795 342.789 488.035C349.911 489.615 356.892 491.773 363.663 494.489L363.444 495.013C363.055 494.854 325.383 479.183 311.312 491.481C305.494 496.535 302.573 520.023 302.792 559.402C302.999 589.211 304.995 617.85 305.007 618.142L304.508 618.179Z" fill="#1A417A"/>
<path d="M323.52 389.161C331.189 395.104 339.04 397.795 341.06 395.189C343.081 392.583 338.504 385.642 330.836 379.712C323.167 373.782 316.741 372.406 313.381 373.624C311.994 375.767 315.852 383.244 323.52 389.161Z" fill="#2E66C6"/>
<path d="M390.503 334.16L389.711 326.111C389.711 326.111 380.363 328.327 377.929 323.676C375.495 319.024 376.554 277.624 389.711 272.534C402.869 267.444 414.128 265.228 417.792 277.039C421.456 288.851 415.102 309.21 415.102 309.21L417.001 333.271C417.001 333.271 405.62 370.604 384.709 367.731C363.797 364.857 390.503 334.16 390.503 334.16Z" fill="#F8A085"/>
<path d="M393.85 288.534L394.543 294.793L404.95 292.552L404.792 289.167L393.85 288.534Z" fill="#EA7D70"/>
<path d="M380.193 287.097L378.61 293.514L387.958 294.805L389.809 287.828L380.193 287.097Z" fill="#EA7D70"/>
<path d="M409.941 300.357C410.708 301.867 409.527 303.901 407.324 304.911C405.121 305.922 402.686 305.508 401.92 304.01C401.153 302.513 402.333 300.467 404.537 299.456C406.74 298.446 409.186 298.848 409.941 300.357Z" fill="#EA7D70"/>
<path d="M271.315 381.113C271.315 381.113 264.255 376.534 262.113 370.957C259.971 365.381 260.104 363.737 260.104 363.737C257.934 361.265 255.45 359.088 252.716 357.259C248.395 354.446 248.76 350.829 250.184 350.269C251.608 349.709 262.235 356.504 265.716 361.094C269.197 365.685 276.086 382.513 271.315 381.113Z" fill="#F8A085"/>
<path d="M318.226 374.744L305.396 386.446L264.45 369.594L255.406 377.204C255.406 377.204 293.821 430.148 310.935 426.519C320.112 424.571 331.006 401.959 331.006 401.959L337.092 388.199C328.085 380.54 323.654 377.74 318.226 374.744Z" fill="#F8A085"/>
<path d="M473.126 402.848C473.126 402.848 460.065 352.376 448.904 345.874C437.742 339.371 417.001 333.332 417.001 333.332L390.223 344.388L390.551 334.16C390.551 334.16 377.26 333.673 357.261 340.893C337.263 348.114 313.442 373.648 313.442 373.648C316.57 372.54 326.052 378.86 337.19 388.26L307.746 451.177C368.021 453.612 365.039 511.585 423.805 475.53L435.307 410.446C446.347 406.647 468.22 397.308 473.126 402.848Z" fill="white"/>
<path d="M326.417 379.797C329.582 382.05 333.112 384.814 336.824 387.919H336.958C341.119 377.413 345.923 367.173 351.345 357.259C342.861 363.274 334.584 371.14 326.417 379.797Z" fill="#DEEFFF"/>
<path d="M318.225 374.744L316.302 376.51C322.96 379.249 331.809 391.122 332.357 398.817L337.128 388.199L331.761 383.791C327.538 380.364 323.007 377.335 318.225 374.744V374.744Z" fill="#EA7D70"/>
<path d="M340.147 381.259L340.598 380.906C335.4 374.367 325.809 367.816 318.907 368.096L318.262 368.717C323.545 368.132 333.368 372.735 340.147 381.259Z" fill="#195F99"/>
<path d="M336.629 387.785L337.092 388.163C341.328 377.654 355.764 343.365 365.745 338.129L363.882 338.677C359.342 342.172 353.694 350.768 347.012 364.358C342.435 373.673 338.589 383.073 336.629 387.785Z" fill="#195F99"/>
<path d="M336.751 389.015L335.741 391.171H335.875L336.751 389.015Z" fill="#195F99"/>
<path d="M272.276 386.787C272.276 386.787 297.387 403.469 300.759 415.353C304.13 427.237 315.365 418.117 315.365 418.117L310.934 395.761L272.301 379.25L272.276 386.787Z" fill="#EA7D70"/>
<path d="M435.21 374.477C435.21 374.477 412.376 394.385 402.224 429.515C392.073 464.644 352.21 450.044 323.192 437.259C319.126 435.457 316.071 436.2 313.807 438.038L307.721 451.116C308.196 451.116 308.658 451.116 309.121 451.189H309.486L310.496 451.262H310.752L311.847 451.347H311.957C354.06 455 364.54 486.66 391.574 487.183C400.094 487.013 410.294 483.688 423.781 475.408L435.283 410.324H435.405L435.6 410.251C435.052 410.264 434.748 374.477 435.21 374.477Z" fill="#DEEFFF"/>
<path d="M371.307 394.117C358.454 388.406 353.719 372.199 334.621 374.05C315.523 375.901 306.212 396.467 306.212 396.467C306.212 396.467 293.407 416.339 302.718 433.594C312.03 450.848 327.963 444.65 339.745 452.321C351.528 459.993 348.85 479.646 367.218 489.63C385.585 499.615 408.261 502.769 429.611 463.439C450.961 424.108 435.916 406.842 417.549 396.857C399.181 386.872 384.149 399.828 371.307 394.117Z" fill="#FFC15F"/>
<path d="M348.57 406.343L338.662 424.583L218.354 356.065L225.499 342.903L348.57 406.343Z" fill="#742D18"/>
<path d="M425.412 470.611C426.823 468.394 428.223 466.008 429.611 463.426C432.155 458.817 434.356 454.027 436.196 449.095C410.282 436.212 350.445 405.868 356.311 423.524C354.766 436.65 404.318 459.152 425.412 470.611Z" fill="#F07932"/>
<path d="M358.674 429.161C364.767 423.539 365.152 414.041 359.533 407.945C353.914 401.85 344.42 401.465 338.326 407.086C332.233 412.707 331.848 422.205 337.467 428.301C343.086 434.397 352.581 434.782 358.674 429.161Z" fill="#4A130C"/>
<path d="M365.793 427.517C363.935 430.939 361.104 433.732 357.658 435.544C354.213 437.356 350.308 438.106 346.437 437.697C342.566 437.289 338.902 435.742 335.91 433.251C332.918 430.76 330.732 427.438 329.627 423.704C328.522 419.97 328.549 415.992 329.704 412.273C330.86 408.555 333.091 405.262 336.117 402.812C339.142 400.362 342.826 398.865 346.702 398.509C350.579 398.153 354.473 398.956 357.894 400.814C362.479 403.309 365.887 407.523 367.368 412.53C368.849 417.537 368.283 422.928 365.793 427.517V427.517ZM331.712 408.985C329.896 412.309 329.107 416.098 329.445 419.871C329.783 423.644 331.232 427.233 333.61 430.181C335.987 433.13 339.186 435.307 342.801 436.435C346.416 437.564 350.284 437.595 353.916 436.523C357.549 435.451 360.781 433.325 363.205 430.414C365.629 427.504 367.134 423.939 367.532 420.171C367.929 416.404 367.2 412.603 365.436 409.25C363.673 405.898 360.955 403.144 357.626 401.338C353.17 398.924 347.94 398.374 343.08 399.807C338.219 401.24 334.123 404.54 331.688 408.985H331.712Z" fill="#742D18"/>
<path d="M207.363 357.198C209.104 358.148 211.088 357.88 210.138 359.633C209.669 360.443 208.903 361.037 208.002 361.29C207.101 361.543 206.137 361.434 205.315 360.986C204.494 360.539 203.879 359.788 203.602 358.894C203.325 358 203.408 357.033 203.833 356.199C204.771 354.446 205.623 356.285 207.363 357.198Z" fill="#742D18"/>
<path d="M197.529 352.741C199.281 353.679 201.253 353.411 200.316 355.177C199.781 355.846 199.027 356.307 198.187 356.476C197.347 356.646 196.473 356.515 195.72 356.105C194.967 355.696 194.382 355.035 194.067 354.237C193.752 353.439 193.728 352.557 193.999 351.743C194.96 349.977 195.788 351.792 197.529 352.741Z" fill="#742D18"/>
<path d="M187.389 347.895C189.129 348.845 191.113 348.565 190.164 350.33C189.629 351 188.875 351.46 188.035 351.63C187.195 351.8 186.322 351.669 185.568 351.259C184.815 350.85 184.23 350.188 183.915 349.391C183.6 348.593 183.576 347.71 183.847 346.896C184.796 345.143 185.648 346.957 187.389 347.895Z" fill="#742D18"/>
<path d="M220.022 333.441C221.775 334.379 222.639 336.181 223.564 334.428C223.897 334.008 224.134 333.52 224.257 332.999C224.381 332.477 224.388 331.935 224.279 331.411C224.169 330.886 223.946 330.392 223.625 329.964C223.303 329.535 222.891 329.182 222.418 328.931C221.945 328.679 221.423 328.535 220.888 328.508C220.353 328.481 219.819 328.572 219.323 328.775C218.827 328.977 218.382 329.287 218.019 329.681C217.656 330.075 217.384 330.544 217.223 331.055C216.285 332.808 218.269 332.516 220.022 333.441Z" fill="#742D18"/>
<path d="M210.869 327.706C212.622 328.644 213.486 330.446 214.411 328.692C214.744 328.273 214.98 327.785 215.104 327.264C215.227 326.742 215.235 326.2 215.125 325.676C215.016 325.151 214.793 324.657 214.471 324.228C214.15 323.8 213.738 323.447 213.265 323.196C212.792 322.944 212.27 322.8 211.735 322.773C211.2 322.746 210.665 322.837 210.17 323.04C209.674 323.242 209.229 323.552 208.866 323.946C208.503 324.34 208.231 324.809 208.069 325.32C207.132 327.061 209.116 326.781 210.869 327.706Z" fill="#742D18"/>
<path d="M201.229 321.91C202.981 322.848 203.846 324.65 204.783 322.897C205.116 322.477 205.353 321.989 205.476 321.468C205.6 320.946 205.607 320.404 205.498 319.88C205.388 319.355 205.165 318.861 204.843 318.433C204.522 318.004 204.11 317.651 203.637 317.4C203.164 317.148 202.642 317.004 202.107 316.977C201.572 316.95 201.038 317.041 200.542 317.244C200.046 317.446 199.601 317.756 199.238 318.15C198.875 318.544 198.603 319.013 198.441 319.524C197.504 321.277 199.488 320.973 201.229 321.91Z" fill="#742D18"/>
<path d="M236.601 366.464L237.087 366.732L244.658 352.778L244.159 352.534L236.601 366.464Z" fill="#FFD28F"/>
<path d="M228.494 361.849L235.87 348.26L235.383 348.004L228.019 361.581L228.494 361.849Z" fill="#FFD28F"/>
<path d="M338.93 401.375L329.253 419.225L329.728 419.493L339.429 401.63L338.93 401.375Z" fill="#FFD28F"/>
<path d="M324.944 416.778L325.419 417.046L335.023 399.353L334.536 399.11L324.944 416.778Z" fill="#FFD28F"/>
<path d="M320.696 414.355L321.171 414.623L330.677 397.125L330.19 396.869L320.696 414.355Z" fill="#FFD28F"/>
<path d="M317.264 412.394L326.673 395.055L326.186 394.799L316.789 412.127L317.264 412.394Z" fill="#FFD28F"/>
<path d="M245.182 371.347L245.669 371.627L253.434 357.307L252.947 357.052L245.182 371.347Z" fill="#FFD28F"/>
<path d="M269.209 365.441L261.09 380.406L261.565 380.674L269.696 365.685L269.209 365.441Z" fill="#FFD28F"/>
<path d="M253.13 375.877L253.617 376.157L261.565 361.496L261.078 361.253L253.13 375.877Z" fill="#FFD28F"/>
<path d="M268.345 384.547L268.832 384.814L277.133 369.521L276.634 369.265L268.345 384.547Z" fill="#FFD28F"/>
<path d="M289.123 396.37L289.609 396.65L298.385 380.479L297.899 380.224L289.123 396.37Z" fill="#FFD28F"/>
<path d="M282.525 392.619L283 392.887L291.63 376.997L291.143 376.741L282.525 392.619Z" fill="#FFD28F"/>
<path d="M295.525 400.011L296 400.291L304.922 383.84L304.435 383.597L295.525 400.011Z" fill="#FFD28F"/>
<path d="M312.419 409.642L312.906 409.91L322.206 392.754L321.719 392.51L312.419 409.642Z" fill="#FFD28F"/>
<path d="M275.672 388.711L276.147 388.979L284.619 373.38L284.12 373.125L275.672 388.711Z" fill="#FFD28F"/>
<path d="M299.968 402.543L300.442 402.811L309.462 386.19L308.975 385.935L299.968 402.543Z" fill="#FFD28F"/>
<path d="M308.452 407.378L308.926 407.658L318.153 390.671L317.666 390.416L308.452 407.378Z" fill="#FFD28F"/>
<path d="M304.459 405.101L304.934 405.381L314.063 388.553L313.576 388.309L304.459 405.101Z" fill="#FFD28F"/>
<path d="M185.113 329.374C180.414 338.032 183.616 343.365 183.616 343.365L213.291 358.099L218.342 356.065L225.487 342.89L224.562 338.02L195.642 320.753C195.642 320.753 189.811 320.704 185.113 329.374ZM215.068 346.263C215.432 346.461 215.753 346.729 216.013 347.052C216.273 347.374 216.467 347.745 216.584 348.142C216.701 348.54 216.738 348.956 216.695 349.368C216.651 349.78 216.526 350.179 216.328 350.543C216.13 350.907 215.862 351.228 215.539 351.488C215.217 351.749 214.847 351.943 214.449 352.06C214.052 352.177 213.636 352.214 213.224 352.17C212.812 352.126 212.413 352.002 212.049 351.804L190.249 339.968C189.884 339.769 189.562 339.5 189.3 339.176C188.879 338.819 188.592 338.329 188.485 337.787C188.379 337.245 188.46 336.683 188.716 336.193C188.749 336.128 188.79 336.066 188.837 336.01C188.876 335.897 188.925 335.787 188.983 335.682C189.395 334.957 190.075 334.424 190.877 334.196C191.678 333.968 192.537 334.064 193.268 334.464L215.068 346.263ZM218.939 339.115C219.675 339.514 220.222 340.189 220.461 340.992C220.699 341.795 220.609 342.659 220.211 343.396C219.812 344.132 219.137 344.68 218.335 344.918C217.532 345.157 216.668 345.067 215.932 344.668L194.132 332.832C193.403 332.425 192.866 331.745 192.637 330.941C192.409 330.138 192.509 329.276 192.915 328.546V328.546C193.116 328.186 193.385 327.868 193.708 327.612C194.032 327.355 194.402 327.165 194.799 327.052C195.196 326.939 195.611 326.905 196.021 326.952C196.431 327 196.827 327.128 197.187 327.329L218.939 339.115Z" fill="#FFC15F"/>
<path d="M395.736 455.256L395.469 455.731L213.547 352.169L214.448 352.047L395.736 455.256Z" fill="#FFEEDE"/>
<path d="M400.167 447.086L216.638 348.358L216.407 347.615L400.423 446.611L400.167 447.086Z" fill="#FFEEDE"/>
<path d="M356.311 423.499L400.13 447.098L400.386 446.611L356.104 422.769C356.16 423.016 356.229 423.26 356.311 423.499V423.499Z" fill="#FFC15F"/>
<path d="M401.153 444.382L216.675 344.985H217.843L401.408 443.895L401.153 444.382Z" fill="#FFEEDE"/>
<path d="M403.271 441.387L220.083 343.633L220.314 343.146L403.526 440.9L403.271 441.387Z" fill="#FFEEDE"/>
<path d="M405.571 437.819L220.607 341.953L220.534 341.295L405.815 437.332L405.571 437.819Z" fill="#FFEEDE"/>
<path d="M398.097 450.909L397.83 451.384L216.127 350.878L216.443 350.367L398.097 450.909Z" fill="#FFEEDE"/>
<path d="M358.576 429.673L397.83 451.384L398.098 450.909L357.857 428.638C358.064 428.979 358.308 429.344 358.576 429.673Z" fill="#FFC15F"/>
<path d="M406.354 430.364L390.272 459.995L396.487 463.371L412.569 433.74L406.354 430.364Z" fill="#742D18"/>
<path d="M393.545 453.953C395.631 455.081 397.712 456.189 399.79 457.277L410.951 436.699L404.549 433.691L393.545 453.953Z" fill="#66261B"/>
<path d="M214.399 352.559L211.831 351.718L210.504 350.988L214.545 351.998L214.399 352.559Z" fill="white"/>
<path d="M216.468 350.976L202.738 346.75L200.389 345.472L216.627 350.44L216.468 350.976Z" fill="white"/>
<path d="M216.626 348.321L192.489 341.173L190.322 340.004L216.784 347.785L216.626 348.321Z" fill="white"/>
<path d="M220.582 342.014L217.832 338.482L218.939 339.116L221.033 341.661L220.582 342.014Z" fill="white"/>
<path d="M220.169 343.743L208.179 333.295L210.224 334.318L220.546 343.304L220.169 343.743Z" fill="white"/>
<path d="M217.466 345.569L198.6 328.096L200.596 329.167L217.856 345.155L217.466 345.569Z" fill="white"/>
<path d="M404.792 289.167C405.133 288.546 404.208 288.108 403.77 287.803C398.499 284.15 393.411 287.389 393.85 288.546C394.288 289.703 404.451 289.788 404.792 289.167Z" fill="#6F3D47"/>
<path d="M378.878 287.134C378.635 286.464 379.633 286.184 380.095 285.916C385.901 283.176 390.38 287.231 389.76 288.351C389.139 289.471 379.109 287.803 378.878 287.134Z" fill="#6F3D47"/>
<path d="M385.208 308.053C389.407 309.478 396.625 305.715 397.38 306.836C398.134 307.956 394.008 312.437 389.03 312.924C384.051 313.411 381.008 306.629 385.208 308.053Z" fill="white"/>
<path d="M409.564 292.65C409.564 292.65 411.925 277.733 408.602 274.032C405.279 270.33 390.198 280.717 386.327 278.099C382.457 275.481 379.974 266.665 385.463 263.596C390.953 260.528 402.723 263.255 409.71 262.659C416.696 262.062 424.316 258.738 429.185 273.435C434.054 288.132 423.854 309.271 421.48 311.085C419.106 312.899 415.832 313.423 415.029 310.939C414.226 308.455 419.313 294.561 419.313 294.561L409.564 292.65Z" fill="#6F3D47"/>
<path d="M404.95 292.552C405.169 293.612 403.027 294.988 400.155 295.584C397.282 296.181 394.762 295.852 394.543 294.793C394.324 293.734 396.454 292.358 399.327 291.761C402.199 291.164 404.719 291.493 404.95 292.552Z" fill="white"/>
<path d="M388.409 294.415C388.409 295.487 386.242 296.193 383.601 295.998C380.96 295.803 378.842 294.781 378.866 293.709C378.89 292.638 381.033 291.919 383.662 292.114C386.291 292.309 388.421 293.332 388.409 294.415Z" fill="white"/>
<path d="M389.76 286.866L385.5 304.181L391.537 304.23L389.76 286.866Z" fill="#F8A085"/>
<path d="M389.711 326.099C393.013 325.27 396.216 324.09 399.266 322.58C396.491 326.793 393.485 328.973 390.089 329.886L389.711 326.099Z" fill="#EA7D70"/>
<path d="M392.815 315.761C392.815 316.443 391.208 317.563 389.103 317.685C386.997 317.807 385.232 316.893 385.195 316.212C385.159 315.53 386.863 315.493 388.969 315.371C391.074 315.25 392.779 315.091 392.815 315.761Z" fill="#EA7D70"/>
<path d="M404.975 292.455C404.464 291.456 402.942 291.322 401.944 291.237C400.907 291.207 399.871 291.342 398.877 291.639C397.246 292.102 395.225 292.857 394.325 294.354C394.081 294.744 394.702 295.097 394.945 294.707C395.945 293.51 397.324 292.69 398.853 292.382C399.591 292.149 400.356 292.006 401.129 291.956C401.731 291.918 402.336 291.955 402.93 292.065C403.441 292.175 404.147 292.284 404.366 292.784C404.586 293.283 405.194 292.784 404.975 292.418V292.455Z" fill="#6F3D47"/>
<path d="M388.044 293.49C386.567 292.447 384.787 291.92 382.98 291.992C382.19 291.91 381.391 291.998 380.637 292.25C379.884 292.502 379.193 292.912 378.61 293.453C378.306 293.794 378.805 294.306 379.109 293.965C379.646 293.487 380.28 293.131 380.967 292.921C381.654 292.711 382.378 292.652 383.09 292.747C384.734 292.708 386.347 293.199 387.691 294.147C388.056 294.428 388.409 293.807 388.044 293.539V293.49Z" fill="#6F3D47"/>
<path d="M390.551 303.925L388.25 304.047L387.033 304.12C386.879 304.132 386.725 304.132 386.571 304.12C386.423 304.089 386.287 304.018 386.178 303.915C386.068 303.812 385.989 303.681 385.95 303.535C385.95 303.28 386.193 302.768 386.266 302.525L386.595 301.539C386.826 300.796 387.045 300.053 387.252 299.298C388.019 296.473 388.58 293.596 388.932 290.689C388.932 290.226 388.275 290.239 388.214 290.689C387.809 294.229 387.088 297.726 386.059 301.137C385.753 301.9 385.505 302.686 385.317 303.487C385.261 303.716 385.279 303.958 385.369 304.177C385.458 304.395 385.615 304.58 385.816 304.704C386.447 304.919 387.125 304.957 387.776 304.814L390.612 304.656C391.062 304.656 391.062 303.925 390.612 303.949L390.551 303.925Z" fill="#EA8577"/>
<path d="M384.088 273.07C383.21 271.235 382.733 269.234 382.688 267.201C382.713 266.253 383 265.332 383.518 264.538C384.036 263.745 384.764 263.111 385.621 262.708C387.557 261.957 389.652 261.714 391.707 262.001C393.813 262.163 395.893 262.571 397.903 263.219C397.993 263.245 398.09 263.234 398.172 263.188C398.255 263.142 398.315 263.066 398.341 262.975C398.367 262.885 398.356 262.788 398.31 262.706C398.264 262.624 398.188 262.563 398.098 262.537C395.851 261.835 393.523 261.426 391.172 261.319C389.011 261.064 386.821 261.423 384.855 262.354C384.053 262.808 383.373 263.45 382.873 264.224C382.372 264.998 382.067 265.881 381.982 266.799C381.911 269.056 382.391 271.296 383.382 273.326C383.54 273.74 384.234 273.557 384.063 273.131L384.088 273.07Z" fill="#6F3D47"/>
<path d="M418.68 262.61C423.354 262.464 427.262 265.715 429.075 269.916C431.12 274.568 430.67 279.816 429.55 284.65C429.44 285.088 430.134 285.283 430.232 284.833C431.449 279.731 431.838 274.227 429.587 269.332C427.639 265.094 423.501 261.807 418.632 261.953C418.548 261.968 418.472 262.013 418.417 262.078C418.363 262.144 418.333 262.227 418.333 262.312C418.333 262.397 418.363 262.48 418.417 262.546C418.472 262.611 418.548 262.656 418.632 262.671L418.68 262.61Z" fill="#6F3D47"/>
<path d="M387.532 277.137C385.611 276.244 383.969 274.845 382.782 273.091C381.594 271.337 380.905 269.292 380.789 267.176C380.789 266.714 380.059 266.714 380.083 267.176C380.195 269.417 380.914 271.584 382.164 273.447C383.415 275.309 385.148 276.795 387.179 277.746C387.593 277.94 387.958 277.332 387.532 277.137Z" fill="#6F3D47"/>
<path d="M461.525 462.513L446.846 495.292C440.994 507.986 431.668 518.763 419.947 526.374C408.227 533.985 394.591 538.12 380.619 538.3L319.601 539.116C319.601 539.116 334.816 536.498 351.978 509.466C369.14 482.434 408.797 455.39 461.525 462.513Z" fill="#FF6361"/>
<path d="M428.54 468.565C398.11 473.082 381.544 485.015 372.987 494.245C364.889 503.016 357.302 512.245 350.262 521.886C344.468 529.618 340.293 535.195 335.217 538.933H336.215C341.084 535.22 345.137 529.752 350.712 522.3C357.746 512.664 365.321 503.436 373.401 494.659C388.798 478.075 411.925 471.646 428.613 469.162C438.757 467.675 449.019 467.157 459.262 467.615L459.505 467.055C449.159 466.569 438.79 467.075 428.54 468.565V468.565Z" fill="#FFC15F"/>
<path d="M435.551 410.215L438.289 430.976C438.289 430.976 406.167 429.344 393.18 421.161C389.821 413.466 385.463 399.024 382.347 398.44C379.231 397.855 380.107 410.434 380.107 410.434C380.107 410.434 363.87 391.11 360.705 393.655C357.541 396.199 371.258 409.241 371.258 409.241C371.258 409.241 357.443 394.3 354.51 396.589C351.576 398.878 367.485 415.244 367.485 415.244C367.485 415.244 352.745 400.827 351.016 403.883C349.288 406.939 364.406 422.05 364.406 422.05C364.406 422.05 351.016 411.091 350.724 414.489C350.432 417.886 364.32 428.93 364.32 428.93C364.32 428.93 369.749 435.335 383.929 442.081C398.11 448.827 451.338 465.022 462.901 454.745C474.464 444.467 465.42 401.265 465.42 401.265C453.857 402.726 441.904 407.889 435.551 410.215Z" fill="#F8A085"/>
<path d="M466.735 408.912C466.029 404.285 465.396 401.265 465.396 401.265C453.955 402.714 442.111 407.792 435.733 410.154L435.563 410.263L435.892 412.699C442.051 411.177 459.493 406.294 466.735 408.912Z" fill="#EA7D70"/>
<path d="M438.289 430.976L448.55 431.658L437.814 427.372L438.289 430.976Z" fill="#EA7D70"/>
<path d="M380.108 410.434L383.516 413.88C381.008 410.58 380.436 406.379 380.278 401.983C379.977 404.79 379.92 407.617 380.108 410.434V410.434Z" fill="#EA7D70"/>
<path d="M254.871 352.291L254.798 352.364C254.723 352.416 254.641 352.457 254.554 352.486C254.105 352.668 253.603 352.668 253.154 352.486C252.181 352.082 251.265 351.554 250.428 350.915L249.953 350.562H249.868C249.685 350.714 249.539 350.905 249.442 351.122C250.079 351.616 250.746 352.072 251.438 352.486C251.916 352.879 252.484 353.149 253.091 353.273C253.698 353.396 254.326 353.368 254.919 353.192C255.147 353.102 255.342 352.944 255.479 352.741C255.272 352.534 255.078 352.4 254.871 352.291Z" fill="#EA8577"/>
<path d="M258.413 355.481C258.297 355.799 258.297 356.148 258.413 356.467C258.449 356.546 258.513 356.608 258.591 356.645C258.67 356.681 258.759 356.688 258.842 356.664C258.926 356.641 258.998 356.589 259.046 356.517C259.095 356.445 259.116 356.358 259.106 356.272C259.101 356.211 259.101 356.15 259.106 356.09V356.09C259.106 356.09 259.106 356.09 259.106 356.004C259.101 355.972 259.101 355.939 259.106 355.907C259.101 355.846 259.101 355.785 259.106 355.724V355.724V355.651C259.11 355.627 259.11 355.602 259.106 355.578L259.228 355.444L258.644 355.018C258.545 355.16 258.467 355.316 258.413 355.481V355.481Z" fill="#EA8577"/>
<path d="M381.093 292.699C380.229 292.851 379.452 293.32 378.915 294.014C379.255 294.976 381.215 295.828 383.601 295.998C384.131 296.041 384.665 296.041 385.195 295.998C385.195 295.84 385.195 295.694 385.195 295.536C385.113 295.079 384.942 294.644 384.691 294.254C384.44 293.864 384.115 293.528 383.734 293.264C383.353 293.001 382.923 292.815 382.47 292.718C382.017 292.621 381.549 292.614 381.093 292.699V292.699Z" fill="#6F3D47"/>
<path d="M400.155 295.584L400.995 295.377C400.739 294.56 400.193 293.863 399.46 293.419C398.727 292.976 397.858 292.814 397.014 292.966C396.495 293.067 396.006 293.285 395.584 293.604C395.163 293.922 394.819 294.333 394.58 294.805V294.805C394.763 295.852 397.282 296.205 400.155 295.584Z" fill="#6F3D47"/>
<path d="M435.709 410.203C435.234 400.035 433.445 351.463 442.123 342.452L441.564 342.196C437.522 346.629 435.222 359.621 434.735 380.845C434.419 394.239 434.966 406.891 435.161 410.836L435.246 410.361L435.709 410.203Z" fill="#195F99"/>
<path d="M289.463 630.891L314.039 636.03L313.844 631.877L289.463 630.891Z" fill="#EA7D70"/>
<path d="M233.46 631.354L257.78 634.739L256.696 631.159L233.46 631.354Z" fill="#EA7D70"/>
<path d="M385.573 402.434C384.643 402.213 383.805 401.707 383.177 400.986C382.549 400.266 382.161 399.367 382.067 398.416C381.811 398.446 381.573 398.567 381.398 398.757C381.565 399.899 382.102 400.954 382.926 401.762C383.751 402.569 384.818 403.083 385.962 403.226L385.573 402.434Z" fill="#EA8577"/>
<path d="M360.243 394.714C360.32 395.669 360.634 396.59 361.156 397.393C361.412 397.638 361.693 397.854 361.996 398.038C362.318 398.295 362.728 398.418 363.139 398.379C363.55 398.341 363.93 398.144 364.199 397.831C364.661 397.149 364.333 396.163 364.114 395.396C363.99 394.981 363.84 394.574 363.663 394.178C363.331 393.969 362.981 393.789 362.617 393.642C362.961 394.263 363.234 394.921 363.432 395.603C363.602 396.151 364.102 397.539 363.116 397.588C362.659 397.559 362.228 397.369 361.898 397.052C361.106 396.423 360.514 395.577 360.194 394.616L360.243 394.714Z" fill="#EA8577"/>
<path d="M367.278 402.081L368.349 401.289C368.427 401.244 368.484 401.17 368.508 401.082C368.543 400.993 368.543 400.892 368.508 400.802C368.486 400.763 368.456 400.729 368.42 400.702C368.385 400.675 368.344 400.655 368.301 400.644C368.257 400.623 368.209 400.613 368.161 400.613C368.112 400.613 368.064 400.623 368.021 400.644L366.95 401.423C366.874 401.477 366.818 401.554 366.791 401.643C366.778 401.687 366.774 401.734 366.78 401.781C366.785 401.827 366.799 401.872 366.822 401.913C366.844 401.953 366.875 401.989 366.911 402.018C366.948 402.047 366.99 402.068 367.035 402.081C367.079 402.102 367.126 402.112 367.175 402.112C367.223 402.112 367.271 402.102 367.315 402.081H367.278Z" fill="#EA8577"/>
<path d="M385.561 409.594C386.207 409.64 386.856 409.582 387.484 409.423C387.529 409.411 387.571 409.389 387.607 409.36C387.644 409.331 387.674 409.295 387.697 409.255C387.719 409.214 387.734 409.169 387.739 409.123C387.744 409.076 387.74 409.03 387.727 408.985C387.699 408.896 387.638 408.821 387.557 408.776C387.475 408.731 387.379 408.718 387.289 408.741L386.851 408.827H386.741H386.51C386.21 408.845 385.909 408.845 385.609 408.827C385.516 408.827 385.426 408.864 385.36 408.93C385.294 408.996 385.256 409.086 385.256 409.18C385.259 409.272 385.298 409.36 385.363 409.426C385.429 409.492 385.517 409.53 385.609 409.533L385.561 409.594Z" fill="#EA8577"/>
<path d="M458.86 447.779C456.073 450.751 455.44 454.818 457.095 457.582C459.213 457.088 461.19 456.118 462.877 454.745C465.226 452.65 466.723 449.204 467.624 445.003C466.05 444.602 464.394 444.649 462.846 445.139C461.297 445.63 459.916 446.545 458.86 447.779V447.779Z" fill="#EA7D70"/>
<path d="M237.1 374.05C232.304 368.644 230.928 363.737 231.939 361.484C232.949 359.231 241.603 355.712 243.259 355.651C244.914 355.591 244.902 357.685 244.902 357.685C244.902 357.685 250.391 355.53 251.852 357.064C253.313 358.598 249.418 361.046 249.418 361.046C249.418 361.046 253.507 359.584 255.893 361.63C258.279 363.676 254.104 364.76 254.104 364.76C254.104 364.76 259.593 363.785 260.847 365.977C262.101 368.169 253.982 372.613 253.982 372.613L260.068 379.919C257.341 383.743 242.346 379.98 237.1 374.05Z" fill="#F8A085"/>
<path d="M424.815 298.835C423.367 303.937 419.301 307.237 415.735 306.227C412.168 305.216 410.403 300.272 411.876 295.17C413.349 290.068 417.39 286.768 420.957 287.779C424.523 288.79 426.227 293.746 424.815 298.835Z" fill="#F8A085"/>
<path d="M319.309 618.081L285.033 617.728L285.227 618.301L319.248 618.629L319.309 618.081Z" fill="#1A417A"/>
<path d="M258.814 618.666L225.122 618.495L225.475 619.068L258.899 619.238L258.814 618.666Z" fill="#1A417A"/>
<path d="M237.745 645.418L186.27 671.756L271.972 672.072L260.457 645.418C252.631 649.083 245.011 649.935 237.745 645.418Z" fill="#3E2E53"/>
<path d="M196.177 666.788C208.787 666.422 221.402 666.341 234.02 666.544C237.671 666.544 241.226 666.678 244.829 666.776C245.194 666.776 245.194 666.215 244.829 666.203C232.218 665.846 219.604 665.769 206.986 665.972C203.687 665.972 200.401 666.106 197.102 666.191L196.019 666.739C196.067 666.768 196.121 666.785 196.177 666.788Z" fill="#775AA0"/>
<path d="M291.837 643.542L230.259 671.938L326.125 672.097L314.61 643.542C306.759 648.925 299.176 649.265 291.837 643.542Z" fill="#503C6B"/>
<path d="M254.031 372.565L254.14 372.504L250.014 374.355C249.588 374.537 250.014 375.158 250.367 374.976L254.493 373.125L254.031 372.565Z" fill="#EA8577"/>
<path d="M245.973 367.767C248.806 366.502 251.737 365.467 254.737 364.674L254.153 364.759C255.002 364.552 255.785 364.134 256.429 363.542C252.711 364.404 249.087 365.627 245.608 367.195C245.194 367.341 245.559 367.95 245.973 367.767Z" fill="#EA8577"/>
<path d="M242.078 364.516C244.669 363.048 247.391 361.825 250.209 360.863C249.957 360.923 249.71 360.996 249.466 361.082C250.017 360.723 250.534 360.316 251.012 359.865C247.781 360.902 244.668 362.277 241.725 363.968C241.685 364.025 241.664 364.093 241.663 364.163C241.662 364.233 241.681 364.301 241.719 364.36C241.757 364.418 241.811 364.464 241.875 364.492C241.939 364.52 242.009 364.528 242.078 364.516V364.516Z" fill="#EA8577"/>
<path d="M259.009 367.402C258.657 367.432 258.303 367.432 257.95 367.402C257.58 367.413 257.211 367.368 256.855 367.268C255.991 366.964 256.648 366.05 257.086 365.673C257.646 365.176 258.371 364.907 259.119 364.918C259.164 364.92 259.209 364.912 259.251 364.896C259.293 364.879 259.331 364.853 259.362 364.821C258.781 364.646 258.179 364.548 257.573 364.528C257.39 364.605 257.215 364.699 257.05 364.808C256.717 364.999 256.427 365.256 256.199 365.564C255.97 365.872 255.808 366.224 255.723 366.598C255.504 368.315 258.048 368.218 259.131 368.06C259.582 367.992 260.024 367.87 260.445 367.694C260.688 367.4 260.871 367.061 260.981 366.696C260.365 367.032 259.699 367.271 259.009 367.402V367.402Z" fill="#EA8577"/>
<path d="M251.973 361.74C252.596 361.256 253.343 360.96 254.128 360.887C254.198 360.868 254.261 360.831 254.31 360.778C253.76 360.624 253.19 360.546 252.619 360.546C252.334 360.643 252.063 360.778 251.815 360.948C251.479 361.119 251.211 361.398 251.054 361.741C250.897 362.084 250.861 362.47 250.951 362.836C251.267 363.615 252.095 363.81 252.825 364.053C253.473 364.258 254.137 364.409 254.809 364.504H255.053C255.689 364.286 256.231 363.856 256.587 363.286C256.032 363.648 255.371 363.812 254.712 363.749C254.007 363.627 253.312 363.456 252.631 363.237C252.436 363.214 252.249 363.151 252.079 363.052C251.91 362.954 251.762 362.822 251.645 362.665C251.462 362.288 251.718 361.971 251.973 361.74Z" fill="#EA8577"/>
<path d="M246.666 359.938C246.984 360.123 247.346 360.215 247.713 360.205C248.419 360.205 249.125 360.303 249.819 360.291C250.083 360.289 250.346 360.248 250.598 360.169C251.052 359.814 251.461 359.405 251.815 358.951H251.706C251.236 359.253 250.71 359.456 250.16 359.548C249.641 359.591 249.12 359.591 248.602 359.548C248.273 359.548 247.932 359.548 247.592 359.548C247.251 359.548 247.007 359.463 246.983 359.158C246.998 358.995 247.045 358.837 247.122 358.692C247.2 358.548 247.306 358.421 247.433 358.318C247.673 358.052 247.947 357.818 248.249 357.624C248.917 357.203 249.626 356.852 250.367 356.577C249.668 356.554 248.968 356.62 248.285 356.772L247.92 356.979C247.158 357.388 246.58 358.071 246.301 358.89C246.259 359.082 246.271 359.281 246.336 359.466C246.4 359.65 246.515 359.814 246.666 359.938V359.938Z" fill="#EA8577"/>
<path d="M238.317 360.668C240.835 359.283 243.475 358.134 246.204 357.234C245.425 357.478 244.902 357.685 244.902 357.685C244.895 357.443 244.862 357.202 244.804 356.966L243.916 357.295H243.806C243.292 357.497 242.75 357.62 242.2 357.66C241.928 357.679 241.656 357.679 241.384 357.66H241.116H240.97L241.08 357.453C241.246 357.162 241.442 356.889 241.664 356.638C241.806 356.479 241.961 356.333 242.127 356.199C242.265 356.092 242.417 356.002 242.577 355.931V355.931C242 356.075 241.431 356.25 240.873 356.455C240.716 356.667 240.569 356.886 240.435 357.113C240.313 357.344 240.106 357.673 240.191 357.953C240.254 358.083 240.346 358.197 240.46 358.285C240.574 358.374 240.707 358.435 240.849 358.464C240.995 358.51 241.146 358.539 241.299 358.549C240.155 359.061 239.011 359.621 237.903 360.23C237.562 360.278 237.915 360.887 238.317 360.668ZM240.897 357.514C240.824 357.502 240.909 357.502 240.897 357.502V357.514Z" fill="#EA8577"/>
<path d="M245.547 367.244C244.486 369.656 243.856 372.236 243.685 374.866C243.685 375.317 244.366 375.317 244.403 374.866C244.555 372.347 245.148 369.874 246.155 367.56C246.338 367.146 245.729 366.781 245.547 367.195V367.244Z" fill="#EA8577"/>
<path d="M241.555 364.272C240.653 366.706 239.973 369.217 239.522 371.773C239.437 372.224 240.13 372.418 240.204 371.968C240.664 369.413 241.349 366.903 242.248 364.467C242.407 364.029 241.725 363.846 241.555 364.272V364.272Z" fill="#EA8577"/>
<path d="M237.696 360.498C236.849 363.191 236.29 365.967 236.028 368.778C236.028 369.228 236.71 369.228 236.746 368.778C237 366.027 237.551 363.312 238.39 360.68C238.524 360.242 237.83 360.059 237.696 360.498V360.498Z" fill="#EA8577"/>
<path d="M286.165 331.931C286.078 332.715 285.76 333.454 285.253 334.057C284.745 334.66 284.071 335.098 283.314 335.317C282.557 335.536 281.753 335.525 281.002 335.286C280.251 335.047 279.589 334.591 279.097 333.975C278.606 333.359 278.309 332.611 278.243 331.826C278.176 331.041 278.345 330.253 278.726 329.564C279.107 328.874 279.685 328.314 280.385 327.953C281.085 327.592 281.877 327.446 282.659 327.536C283.706 327.655 284.663 328.185 285.32 329.009C285.977 329.833 286.281 330.884 286.165 331.931V331.931Z" fill="#503C6B"/>
<path d="M297.679 329.094C297.59 329.877 297.271 330.615 296.762 331.216C296.253 331.817 295.578 332.253 294.821 332.47C294.065 332.687 293.261 332.675 292.511 332.435C291.761 332.195 291.1 331.738 290.61 331.122C290.12 330.505 289.823 329.758 289.758 328.973C289.693 328.188 289.861 327.402 290.243 326.713C290.624 326.024 291.201 325.464 291.901 325.103C292.6 324.743 293.391 324.597 294.173 324.686C294.693 324.745 295.196 324.906 295.653 325.16C296.111 325.413 296.514 325.754 296.839 326.164C297.165 326.573 297.406 327.043 297.55 327.545C297.695 328.048 297.738 328.575 297.679 329.094V329.094Z" fill="#503C6B"/>
<path d="M285.666 332.492H285.52C285.386 332.469 285.265 332.401 285.176 332.299C285.087 332.197 285.036 332.067 285.033 331.931L286.25 316.102C286.263 315.966 286.322 315.839 286.417 315.742C286.512 315.644 286.638 315.582 286.773 315.566L299.408 314.348C299.496 314.341 299.584 314.354 299.666 314.385C299.748 314.417 299.822 314.467 299.882 314.531C299.941 314.597 299.985 314.674 300.01 314.758C300.035 314.842 300.042 314.931 300.029 315.018L297.667 329.374C297.657 329.45 297.631 329.523 297.593 329.588C297.554 329.654 297.502 329.711 297.441 329.756C297.38 329.802 297.31 329.834 297.236 329.852C297.162 329.87 297.085 329.874 297.01 329.861C296.858 329.835 296.722 329.75 296.631 329.625C296.541 329.5 296.502 329.345 296.523 329.192L298.763 315.578L287.37 316.638L286.153 332.029C286.129 332.147 286.069 332.254 285.982 332.337C285.895 332.42 285.785 332.474 285.666 332.492V332.492Z" fill="#503C6B"/>
<path d="M313.028 274.702C313.363 275.34 313.502 276.064 313.427 276.781C313.352 277.499 313.067 278.178 312.606 278.733C312.146 279.288 311.531 279.695 310.84 279.901C310.149 280.108 309.413 280.105 308.724 279.893C308.034 279.681 307.423 279.27 306.967 278.711C306.511 278.152 306.231 277.471 306.161 276.753C306.092 276.035 306.236 275.312 306.577 274.676C306.917 274.041 307.438 273.52 308.074 273.18C308.499 272.952 308.964 272.811 309.444 272.765C309.923 272.719 310.407 272.768 310.868 272.909C311.328 273.051 311.756 273.282 312.127 273.589C312.498 273.897 312.804 274.275 313.028 274.702V274.702Z" fill="#503C6B"/>
<path d="M312.529 275.396C312.411 275.417 312.289 275.402 312.18 275.352C312.071 275.301 311.981 275.219 311.92 275.116L304.617 262.367C304.572 262.28 304.549 262.184 304.549 262.087C304.549 261.989 304.572 261.893 304.617 261.807C304.661 261.718 304.729 261.642 304.812 261.589C304.896 261.535 304.992 261.505 305.092 261.502C306.595 261.343 308.116 261.508 309.55 261.987C310.984 262.466 312.299 263.247 313.405 264.278C313.462 264.329 313.508 264.39 313.541 264.458C313.574 264.526 313.594 264.6 313.598 264.676C313.603 264.752 313.592 264.828 313.568 264.9C313.543 264.971 313.504 265.037 313.454 265.094C313.403 265.151 313.342 265.197 313.274 265.23C313.206 265.264 313.132 265.283 313.056 265.288C312.98 265.292 312.905 265.282 312.833 265.257C312.761 265.232 312.695 265.193 312.638 265.143C310.877 263.481 308.535 262.576 306.114 262.622L312.967 274.531C313.042 274.665 313.061 274.824 313.02 274.972C312.979 275.12 312.881 275.246 312.748 275.323L312.529 275.396Z" fill="#503C6B"/>
<path d="M262.319 304.497C262.442 305.15 262.368 305.824 262.108 306.434C261.848 307.045 261.414 307.565 260.858 307.929C260.303 308.292 259.653 308.484 258.99 308.478C258.326 308.473 257.679 308.271 257.13 307.898C256.582 307.525 256.155 306.998 255.905 306.383C255.656 305.768 255.593 305.093 255.727 304.443C255.86 303.793 256.182 303.196 256.654 302.729C257.125 302.262 257.725 301.945 258.376 301.819C259.254 301.651 260.162 301.839 260.902 302.341C261.642 302.844 262.151 303.619 262.319 304.497V304.497Z" fill="#503C6B"/>
<path d="M273.311 296.802C273.446 297.455 273.384 298.132 273.133 298.75C272.882 299.367 272.453 299.896 271.901 300.268C271.349 300.641 270.698 300.841 270.032 300.844C269.366 300.846 268.714 300.65 268.16 300.28C267.605 299.911 267.173 299.385 266.918 298.77C266.663 298.154 266.596 297.477 266.727 296.823C266.858 296.17 267.18 295.57 267.652 295.1C268.124 294.63 268.725 294.311 269.379 294.184C270.247 294.015 271.147 294.195 271.883 294.685C272.619 295.175 273.132 295.936 273.311 296.802V296.802Z" fill="#503C6B"/>
<path d="M261.748 304.863C261.601 304.892 261.449 304.862 261.324 304.78C261.199 304.698 261.111 304.571 261.078 304.425L257.536 288.887C257.506 288.755 257.524 288.616 257.586 288.496C257.649 288.375 257.752 288.281 257.877 288.23L269.587 283.359C269.663 283.323 269.746 283.305 269.83 283.305C269.914 283.305 269.997 283.323 270.074 283.359C270.219 283.447 270.328 283.586 270.378 283.749L273.25 296.619C273.283 296.769 273.256 296.926 273.174 297.056C273.092 297.186 272.962 297.279 272.812 297.313C272.662 297.343 272.507 297.314 272.378 297.233C272.249 297.151 272.156 297.023 272.118 296.875L269.392 284.699L258.766 289.131L262.21 304.193C262.24 304.343 262.211 304.499 262.13 304.628C262.048 304.757 261.92 304.85 261.772 304.887L261.748 304.863Z" fill="#503C6B"/>
<path d="M259.204 293.551C259.074 293.574 258.94 293.552 258.823 293.491C258.706 293.429 258.613 293.33 258.559 293.21C258.497 293.069 258.493 292.91 258.548 292.766C258.602 292.623 258.711 292.507 258.851 292.443L270.426 287.219C270.495 287.185 270.569 287.165 270.646 287.16C270.722 287.156 270.799 287.167 270.87 287.193C270.942 287.219 271.008 287.26 271.064 287.313C271.119 287.365 271.163 287.429 271.193 287.499C271.255 287.64 271.259 287.799 271.204 287.943C271.15 288.086 271.041 288.202 270.901 288.266L259.289 293.502L259.204 293.551Z" fill="#503C6B"/>
<path d="M424.669 335.767C422.357 336.644 414.213 339.895 384.672 351.743L387.35 334.233H386.754L383.942 352.632L384.417 352.449C398.013 346.994 423.476 336.802 425.485 336.023L424.669 335.767Z" fill="#195F99"/>
<path d="M470.131 392.206C469.034 391.783 467.883 391.516 466.711 391.414C457.059 390.391 439.848 396.126 435.064 400.924L435.466 401.326C440.213 396.601 457.18 390.976 466.699 391.974C467.961 392.084 469.195 392.405 470.35 392.924L470.131 392.206Z" fill="#195F99"/>
<path d="M356.628 400.559C356.959 400.725 357.341 400.757 357.695 400.648C358.048 400.539 358.347 400.298 358.527 399.974C358.632 399.591 358.659 399.191 358.604 398.797C358.55 398.403 358.416 398.025 358.21 397.685L358.089 397.429C357.697 397.195 357.291 396.987 356.871 396.808C357.131 397.189 357.348 397.597 357.517 398.026C357.723 398.513 358.32 399.84 357.431 400.011C357.05 400.033 356.673 399.926 356.36 399.706C356.029 399.525 355.715 399.313 355.423 399.073C354.917 398.652 354.474 398.16 354.108 397.612C354.185 398.221 354.37 398.81 354.656 399.353C355.232 399.875 355.901 400.284 356.628 400.559V400.559Z" fill="#EA8577"/>
<path d="M354.327 406.635C354.359 406.92 354.295 407.207 354.145 407.451C354.045 407.563 353.914 407.642 353.768 407.677C353.622 407.712 353.469 407.701 353.329 407.645C352.666 407.405 352.084 406.983 351.65 406.428C351.504 406.257 351.358 406.087 351.224 405.904C351.536 406.633 351.911 407.334 352.343 407.999C352.6 408.16 352.879 408.283 353.171 408.364C353.361 408.426 353.563 408.447 353.762 408.425C353.961 408.403 354.153 408.338 354.325 408.235C354.497 408.133 354.645 407.994 354.758 407.829C354.872 407.665 354.949 407.477 354.985 407.28C355.118 406.455 355.008 405.609 354.668 404.845C354.668 404.711 354.547 404.589 354.498 404.467C354.105 404.233 353.698 404.022 353.281 403.834C353.931 404.626 354.299 405.611 354.327 406.635V406.635Z" fill="#EA8577"/>
<path d="M352.915 415.28C353.061 415.612 353.171 415.959 353.244 416.315C353.244 416.571 353.402 416.924 353.086 417.058C352.927 417.096 352.762 417.101 352.601 417.074C352.44 417.047 352.286 416.987 352.148 416.9C351.898 416.788 351.661 416.65 351.442 416.486C351.719 416.909 352.02 417.315 352.343 417.703C352.501 417.772 352.672 417.807 352.844 417.806C353.017 417.804 353.187 417.765 353.344 417.693C353.5 417.62 353.64 417.515 353.752 417.385C353.865 417.254 353.949 417.101 353.999 416.936C354.037 416.587 354 416.234 353.889 415.901C353.791 415.557 353.674 415.22 353.536 414.89C353.451 414.708 353.366 414.525 353.268 414.355C352.898 414.18 352.516 414.034 352.124 413.916C352.442 414.337 352.708 414.795 352.915 415.28V415.28Z" fill="#EA8577"/>
<path d="M361.825 405.222L363.043 404.09C363.11 404.022 363.147 403.93 363.147 403.834C363.147 403.739 363.11 403.647 363.043 403.578C362.974 403.518 362.885 403.484 362.793 403.484C362.701 403.484 362.613 403.518 362.544 403.578L361.326 404.711C361.259 404.777 361.22 404.868 361.219 404.962C361.218 405.057 361.254 405.148 361.32 405.216C361.387 405.284 361.477 405.323 361.572 405.324C361.666 405.325 361.758 405.288 361.825 405.222V405.222Z" fill="#EA8577"/>
<path d="M358.32 412.005L359.026 411.018C359.062 410.928 359.062 410.828 359.026 410.738C359.014 410.693 358.993 410.652 358.964 410.616C358.934 410.58 358.897 410.551 358.856 410.531C358.814 410.511 358.768 410.5 358.722 410.5C358.675 410.5 358.629 410.511 358.588 410.531C358.499 410.558 358.422 410.614 358.369 410.69L357.663 411.676C357.627 411.766 357.627 411.866 357.663 411.956C357.674 412.001 357.695 412.043 357.725 412.078C357.754 412.114 357.791 412.143 357.833 412.163C357.875 412.183 357.921 412.194 357.967 412.194C358.013 412.194 358.059 412.183 358.101 412.163C358.19 412.136 358.267 412.08 358.32 412.005Z" fill="#EA8577"/>
<path d="M356.652 420.078C356.762 419.725 356.871 419.372 356.969 419.018C356.982 418.974 356.986 418.927 356.98 418.88C356.975 418.834 356.961 418.789 356.938 418.748C356.916 418.708 356.885 418.672 356.849 418.643C356.812 418.614 356.77 418.593 356.725 418.58C356.633 418.558 356.536 418.572 356.454 418.619C356.373 418.667 356.313 418.745 356.287 418.836C356.177 419.189 356.08 419.542 355.971 419.895C355.958 419.94 355.954 419.987 355.959 420.033C355.964 420.079 355.978 420.124 356.001 420.165C356.024 420.206 356.054 420.242 356.091 420.271C356.127 420.299 356.169 420.321 356.214 420.333C356.306 420.356 356.403 420.342 356.485 420.294C356.566 420.246 356.626 420.169 356.652 420.078V420.078Z" fill="#EA8577"/>
<path d="M286.773 645.88C289.293 649.935 294.332 651.518 298.811 652.151C303.622 652.835 308.515 652.674 313.271 651.677C314.68 651.479 316.039 651.017 317.276 650.313L317.057 649.777C316.003 650.403 314.837 650.817 313.624 650.995C311.583 651.455 309.506 651.74 307.417 651.847C302.522 652.324 297.582 651.704 292.956 650.033C290.657 649.181 288.68 647.637 287.296 645.613L286.773 645.856V645.88Z" fill="#775AA0"/>
<path d="M230.977 648.913C234.02 652.675 239.108 653.929 243.721 654.27C248.618 654.598 253.534 654.079 258.254 652.736C259.875 652.379 261.42 651.741 262.819 650.849L262.588 650.325C261.396 651.1 260.084 651.672 258.705 652.018C256.666 652.628 254.582 653.076 252.473 653.357C247.543 654.209 242.485 653.943 237.672 652.578C235.277 651.872 233.133 650.499 231.488 648.62L230.977 648.888V648.913Z" fill="#775AA0"/>
<path d="M271.644 668.127L305.311 668.054H324.299H324.397L324.166 667.494L290.632 667.579L256.964 667.652H239.522L238.305 668.225L271.644 668.127Z" fill="#775AA0"/>
<path d="M90.2816 563.128C98.5805 574.395 108.652 584.24 120.103 592.279C131.517 600.303 144.129 606.468 157.471 610.544C164.976 612.829 172.677 614.411 180.476 615.268C180.853 615.268 181.216 615.118 181.483 614.851C181.75 614.584 181.9 614.222 181.9 613.844C181.89 613.469 181.737 613.112 181.472 612.847C181.207 612.582 180.85 612.428 180.476 612.419C166.98 610.885 153.825 607.163 141.525 601.399C129.161 595.649 117.782 587.981 107.809 578.678C102.265 573.494 97.2122 567.807 92.716 561.691C92.5189 561.373 92.2069 561.142 91.8444 561.046C91.4819 560.951 91.0967 560.999 90.7685 561.18C90.4449 561.373 90.2101 561.685 90.1145 562.05C90.0188 562.414 90.0701 562.801 90.2572 563.128H90.2816Z" fill="#D2F5FF"/>
<path d="M511.431 665.826C521.407 662.995 530.82 658.464 539.256 652.431C547.675 646.41 555.041 639.037 561.056 630.611C564.42 625.888 567.307 620.843 569.673 615.549C569.854 615.22 569.902 614.835 569.807 614.472C569.712 614.11 569.481 613.797 569.162 613.6C568.836 613.41 568.448 613.357 568.082 613.453C567.717 613.549 567.405 613.786 567.215 614.112C563.099 623.29 557.438 631.692 550.478 638.952C543.508 646.255 535.361 652.334 526.378 656.937C521.36 659.504 516.1 661.568 510.676 663.098C510.311 663.198 510.001 663.439 509.814 663.768C509.627 664.097 509.578 664.487 509.678 664.852C509.778 665.217 510.019 665.527 510.347 665.714C510.676 665.901 511.066 665.95 511.431 665.85V665.826Z" fill="#D2F5FF"/>
<path d="M159.479 300.516C162.395 290.822 166.837 281.656 172.637 273.362C178.351 265.148 185.302 257.869 193.244 251.785C197.805 248.311 202.669 245.254 207.778 242.653C209.409 241.825 207.972 239.365 206.329 240.217C197.1 244.944 188.681 251.109 181.389 258.482C174.082 265.838 167.96 274.284 163.241 283.517C160.59 288.739 158.411 294.188 156.729 299.797C156.628 300.162 156.677 300.552 156.865 300.881C157.052 301.21 157.362 301.451 157.727 301.551C158.091 301.651 158.481 301.602 158.81 301.415C159.138 301.227 159.379 300.917 159.479 300.552V300.516Z" fill="#D2F5FF"/>
<path d="M563.441 449.557C568.62 438.792 572.11 427.292 573.787 415.463C575.486 403.604 575.4 391.558 573.532 379.725C572.484 373.1 570.855 366.581 568.663 360.242C568.558 359.88 568.316 359.574 567.989 359.387C567.662 359.201 567.275 359.149 566.91 359.243C566.547 359.346 566.239 359.587 566.052 359.915C565.865 360.244 565.815 360.632 565.912 360.997C569.727 372.028 571.821 383.581 572.12 395.25C572.439 406.884 571.011 418.499 567.884 429.709C566.127 436.019 563.813 442.159 560.97 448.06C560.792 448.39 560.745 448.777 560.84 449.14C560.935 449.504 561.164 449.819 561.482 450.02C561.81 450.208 562.199 450.259 562.566 450.164C562.932 450.068 563.246 449.833 563.441 449.509V449.557Z" fill="#D2F5FF"/>
</svg>
