<svg width="806" height="980" viewBox="0 0 806 980" fill="none" xmlns="http://www.w3.org/2000/svg">
<path d="M659.676 533.407C659.538 535.031 659.389 536.655 659.228 538.279C658.593 544.747 657.771 551.267 656.762 557.838C656.52 559.422 656.266 561.011 655.998 562.605C654.723 570.23 653.188 577.912 651.394 585.651C650.234 590.649 648.962 595.667 647.576 600.705C645.432 608.507 643.015 616.343 640.325 624.213C639.975 625.234 639.62 626.255 639.26 627.275C635.916 636.796 632.155 646.346 627.979 655.925C624.355 664.211 620.41 672.505 616.144 680.807C614.269 684.448 612.33 688.09 610.327 691.734C608.447 695.153 606.508 698.571 604.511 701.989L603.622 703.504L603.595 703.544L591.388 703.518L189.343 702.639H185.463C185.463 702.639 184.385 701.929 182.443 700.541C181.394 699.784 180.064 698.826 178.526 697.675C177.865 697.182 177.166 696.652 176.428 696.084C172.146 692.811 166.592 688.359 160.314 682.831L159.821 682.393C158.483 681.208 157.108 679.976 155.709 678.693L155.08 678.114L154.765 677.823C154.484 677.561 154.206 677.298 153.923 677.036L153.737 676.866C153.243 676.404 152.747 675.943 152.252 675.471C149.392 672.773 146.44 669.891 143.447 666.818C142.429 665.783 141.409 664.726 140.388 663.647L140.28 663.537C138.339 661.497 136.39 659.387 134.433 657.207C134.034 656.763 133.637 656.319 133.241 655.875L132.717 655.278C130.544 652.818 128.381 650.274 126.226 647.644C125.738 647.052 125.251 646.453 124.765 645.848C122.745 643.341 120.748 640.764 118.775 638.115C118.599 637.885 118.429 637.651 118.251 637.418C118.243 637.413 118.238 637.405 118.235 637.397C117.686 636.654 117.138 635.907 116.592 635.155C116.01 634.351 115.43 633.538 114.853 632.716C111.634 628.149 108.522 623.389 105.568 618.454C103.706 615.345 101.912 612.164 100.187 608.912C99.4721 607.566 98.7725 606.209 98.0886 604.84C77.032 562.77 69.5471 509.863 105.107 451.666C115.937 433.962 129.025 420.059 143.437 409.245C147.228 406.397 151.106 403.759 155.069 401.329C161.904 397.135 169.04 393.454 176.42 390.316C242.008 362.337 317.994 378.419 334.979 386.529C334.979 386.529 378.957 268.925 511.281 283.811C541.418 287.204 568.666 300.577 591.396 321.549C596.01 325.816 600.389 330.33 604.514 335.072C606.497 337.344 608.436 339.682 610.33 342.086C612.319 344.609 614.258 347.199 616.147 349.858C641.66 385.782 657.777 433.802 660.484 488.073C661.229 503.185 660.959 518.331 659.676 533.407V533.407Z" fill="#F7DFC8"/>
<path d="M610.325 342.076V691.734C608.163 695.658 605.928 699.582 603.619 703.504L565.496 703.423L543.495 703.379L471.456 703.226L447.135 703.177L185.461 702.631C185.461 702.631 182.05 700.368 176.417 696.076C164.749 687.114 153.727 677.341 143.434 666.831V409.245C153.625 401.63 164.7 395.273 176.417 390.313C242.006 362.334 317.991 378.416 334.976 386.527C334.976 386.527 340.966 370.505 355.178 351.036C361.904 341.794 369.49 333.209 377.834 325.396C405.578 299.515 448.473 276.744 511.263 283.808C541.399 287.202 568.647 300.575 591.378 321.547C595.669 325.512 599.756 329.692 603.624 334.07C605.917 336.654 608.151 339.322 610.325 342.076Z" fill="#FBECDB"/>
<path d="M610.325 342.076V371.981L306.306 416.771L603.632 334.062C605.92 336.651 608.151 339.322 610.325 342.076Z" fill="#FFF4E9"/>
<path d="M418.46 674.383H447.135V703.19L185.461 702.631C185.461 702.631 182.05 700.368 176.417 696.076C164.749 687.114 153.727 677.341 143.434 666.831V471.293C143.466 471.257 143.5 471.215 143.531 471.17H144.625V521.474H170.992V440.514L171.989 439.547H178.388V439.507H215.642V439.547H215.673V451.685H215.642V460.029H215.673V472.177H215.642V480.542H215.673V492.677H215.642V492.716L219.593 492.677V429.189H261.396V437.229H261.42V449.364H261.396V460.029H261.42V472.177H261.396V480.542H261.42V492.677H261.396V500.428H261.42V512.558H261.396V520.312H261.42V532.445H261.396V539.748H261.42V547.451H261.396V548.293H308.505V617.747H326.111V635.247H345.09V605.121H379.235V523.257H384.588V515.102H385.348V523.257H389.782H411.927V515.102H412.688V523.246H418.46V674.383Z" fill="#F8E7D4"/>
<path d="M543.495 416.771V703.379L471.456 703.226V416.771H543.495Z" fill="#F8E7D4"/>
<path d="M610.325 458.135V691.734C608.163 695.658 605.928 699.582 603.619 703.504L565.497 703.423V458.135H610.325Z" fill="#F8E7D4"/>
<path d="M457.478 702.636C467.883 648.659 465.207 615.536 465.193 615.119C465.167 614.288 466.663 613.533 467.468 613.506C468.273 613.48 471.873 613.263 472.29 613.973C472.833 614.904 474.929 655.715 459.419 702.636H457.478Z" fill="#A0795F"/>
<path d="M410.112 529.437L413.103 528.989C414.249 528.669 415.131 528.152 415.162 527.048L415.338 521.217C415.357 520.756 415.229 520.301 414.97 519.919C414.712 519.537 414.338 519.247 413.903 519.093C411.051 518.13 408.501 515.786 409.118 512.233C409.118 512.233 410.765 503.706 410.802 503.454L421.821 503.785C421.842 504.047 423.177 512.653 423.177 512.653C423.833 515.917 420.869 518.458 417.93 519.229C417.514 519.334 417.142 519.571 416.872 519.905C416.601 520.239 416.446 520.651 416.43 521.08L416.251 526.991C416.217 528.145 417.038 528.695 418.279 529.144L421.126 529.799C421.349 529.799 421.362 530.077 421.126 530.061L410.107 529.728C409.881 529.734 409.892 529.537 410.112 529.437Z" fill="#7693CE"/>
<path d="M409.624 514.016C410.149 517.016 412.89 518.962 415.97 519.053C419.05 519.145 422.107 517.021 422.715 514.286C422.833 513.751 422.853 513.198 422.773 512.655C422.703 512.195 422.604 511.74 422.477 511.292C422.429 511.121 421.272 503.769 421.272 503.769L411.277 503.467L409.718 511.376C409.689 511.499 409.663 511.638 409.645 511.751L409.616 511.887C409.598 512.013 409.577 512.134 409.561 512.259C409.499 512.845 409.521 513.436 409.624 514.016Z" fill="#EBF3FA"/>
<path d="M409.624 514.016C410.149 517.016 412.89 518.962 415.97 519.053C419.05 519.145 422.107 517.021 422.715 514.286C421.493 514.111 418.101 513.694 415.435 514.126C413.651 514.415 411.361 514.242 409.624 514.016Z" fill="#C94C43"/>
<path opacity="0.7" d="M420.283 514.213C420.401 513.678 420.421 513.126 420.341 512.585C420.27 512.124 420.172 511.668 420.047 511.218C419.997 511.048 418.84 503.695 418.84 503.695L420.102 503.732C420.102 503.732 421.259 511.074 421.306 511.258C421.433 511.706 421.531 512.161 421.6 512.621C421.681 513.164 421.662 513.716 421.545 514.252C420.937 516.987 417.872 519.111 414.8 519.019C414.582 519.019 414.365 518.993 414.149 518.97C416.996 518.786 419.717 516.767 420.283 514.213Z" fill="white"/>
<path d="M439.63 619.414L458.847 683.447C458.847 683.447 467.636 681.303 470.879 676.147C470.879 676.147 468.712 613.905 455.4 604.609C442.088 595.314 439.63 619.414 439.63 619.414Z" fill="#2C3A64"/>
<path d="M398.689 701.944H429.938C430.166 701.908 430.389 701.844 430.602 701.753C432.687 700.704 432.525 694.744 430.796 690.624C430.119 689.009 432.16 685.561 431.428 684.245C430.017 681.706 421.325 677.165 419.811 683.888C419.764 684.098 419.097 687.892 419.04 688.083C417.132 694.377 408.606 697.232 403.682 698.029C399.917 698.656 398.941 700.848 398.689 701.944Z" fill="#2C3A64"/>
<path d="M518.629 489.843C518.629 489.843 511.299 498.535 501.965 494.898C501.965 494.898 499.958 490.044 499.929 486.465C499.929 486.025 499.929 485.6 499.913 485.193C499.863 481.163 499.727 478.9 499.727 478.9C500.152 478.725 513.996 473.042 513.983 473.514C513.758 484.412 518.629 489.843 518.629 489.843Z" fill="#FFB27D"/>
<path d="M453.156 701.944H463.414C465.566 701.944 467.956 699.791 468.554 695.853C469.152 691.915 473.573 689.762 474.528 686.536C475.483 683.311 470.592 678.77 470.592 678.77L469.771 677.721L468.921 676.625L460.788 678.534C460.788 678.534 460.589 680.469 460.463 682.931C460.358 684.808 460.347 686.69 460.431 688.569C460.67 692.869 459.224 697.5 455.402 698.336C451.579 699.173 453.156 701.944 453.156 701.944Z" fill="#2C3A64"/>
<path d="M451.763 577.779L447.062 579.528C447.062 579.528 437.599 578.915 435.883 589.076C435.883 589.076 435.487 593.324 438.486 592.595C441.484 591.866 440.228 591.714 444.478 590.778C448.728 589.841 452.167 587.033 452.666 583.889L454.594 580.855L451.763 577.779Z" fill="#FFB27D"/>
<path d="M449.308 582.282C447.267 579.308 447.348 578.71 447.348 578.71C447.348 578.71 471.721 553.978 473.906 551.558C476.091 549.138 496.434 507.768 496.434 507.768L503.534 507.563C514.358 507.251 520.82 519.499 514.45 528.252C503.709 543.01 490.796 560.539 487.627 563.913C478.282 573.878 453.162 585.573 453.162 585.573C451.617 584.823 450.29 583.69 449.308 582.282Z" fill="#1E3D70"/>
<path d="M526.088 586.11C526.749 569.417 528.187 554.906 529.887 544.772C532.61 528.63 535.063 519.337 535.092 519.245C535.451 517.824 540.636 512.081 552.163 512.259C563.691 512.438 562.597 519.969 562.597 519.969C562.599 520.194 562.571 520.419 562.513 520.637C562.403 521.025 551.822 560.337 552.281 611.102C552.281 611.813 552.368 613.045 552.318 613.866C552.318 613.866 525.605 614.571 525.6 613.866C524.663 609.421 525.12 597.131 526.088 586.11Z" fill="#D1A586"/>
<path d="M522.73 610.842C522.73 611.55 523.1 612.117 523.546 612.117C523.989 612.117 524.333 611.54 524.349 610.842H547.247C547.247 611.55 547.62 612.117 548.063 612.117C548.514 612.117 548.874 611.522 548.869 610.806C548.764 597.424 549.398 584.048 550.768 570.736C553.811 540.872 559.426 520.915 559.517 520.637C559.574 520.419 559.601 520.194 559.599 519.969C559.599 519.969 560.693 512.438 549.168 512.259C537.642 512.081 532.456 517.826 532.096 519.245C532.075 519.321 530.685 524.578 528.84 534.031C528.226 537.165 527.568 540.757 526.888 544.782C525.183 554.909 523.74 569.431 523.092 586.121C522.137 597.131 521.799 606.408 522.73 610.842Z" fill="#E5BD9E"/>
<path d="M522.73 610.842C522.73 611.55 523.1 612.117 523.546 612.117C523.989 612.117 524.333 611.54 524.349 610.842H547.247C547.247 611.55 547.62 612.117 548.063 612.117C548.514 612.117 548.874 611.522 548.869 610.806C548.764 597.424 549.398 584.048 550.768 570.736C546.982 551.783 532.356 537.291 528.84 534.026C528.226 537.159 527.568 540.752 526.888 544.777C525.183 554.904 523.74 569.425 523.092 586.115C522.137 597.131 521.799 606.408 522.73 610.842Z" fill="#DFB697"/>
<path d="M545.812 610.578H545.757L545.718 610.538C545.704 610.525 545.694 610.509 545.687 610.491C545.681 610.474 545.679 610.455 545.681 610.436V610.436C545.68 610.416 545.68 610.396 545.681 610.376C545.65 609.426 543.748 609.235 540.696 609.235C540.014 609.235 539.28 609.235 538.501 609.253C537.622 609.253 536.688 609.274 535.714 609.274C532.802 609.274 528.969 609.185 525.144 608.488C522.686 608.044 524.357 588.659 526.089 570.524C526.388 567.44 526.613 565.002 526.726 563.57C527.867 548.099 534.437 520.747 534.5 520.532C534.786 519.397 538.731 515.107 547.318 515.241C550.506 515.291 552.78 516.09 554.084 517.619C554.497 518.099 554.808 518.656 555 519.258C555.193 519.861 555.262 520.495 555.205 521.125C555.208 521.302 555.186 521.479 555.139 521.649C555.105 521.796 549.184 557.193 548.213 565.728C546.586 579.993 545.959 609.932 545.951 610.37V610.433V610.562L545.812 610.578ZM540.691 608.965C543.37 608.965 545.08 609.106 545.694 609.752C545.791 605.367 546.442 578.865 547.943 565.699C548.932 557.001 554.848 521.686 554.879 521.576C554.918 521.425 554.936 521.27 554.934 521.114C554.987 520.519 554.921 519.92 554.741 519.35C554.561 518.78 554.27 518.252 553.885 517.795C552.636 516.329 550.427 515.563 547.326 515.516C538.897 515.385 535.043 519.512 534.767 520.608C534.702 520.871 528.124 548.374 527.002 563.596C526.897 565.033 526.663 567.472 526.364 570.558C525.719 577.276 524.832 586.48 524.409 594.228C523.79 605.574 524.499 608.107 525.197 608.233C529.001 608.918 532.805 609.004 535.72 609.004C536.693 609.004 537.624 609.004 538.503 608.983C539.272 608.975 540.009 608.965 540.689 608.965H540.691Z" fill="#D1A586"/>
<path d="M550.577 612.117H460.828C460.828 612.117 462.927 603.464 514.894 604.741C551.679 605.645 550.577 612.117 550.577 612.117Z" fill="#E5BD9E"/>
<path d="M557.883 702.636C547.475 648.659 550.151 615.536 550.164 615.119C550.191 614.288 548.695 613.533 547.892 613.506C547.09 613.48 543.488 613.263 543.07 613.973C542.525 614.904 540.431 655.715 555.939 702.636H557.883Z" fill="#D1A586"/>
<path d="M474.084 702.636C484.489 648.659 481.813 615.536 481.8 615.119C481.774 614.288 483.269 613.533 484.075 613.506C484.88 613.48 488.48 613.263 488.894 613.973C489.44 614.904 491.536 655.715 476.039 702.636H474.084Z" fill="#D1A586"/>
<path d="M541.163 702.636C530.758 648.659 533.434 615.536 533.447 615.119C533.474 614.288 531.978 613.533 531.173 613.506C530.367 613.48 526.768 613.263 526.353 613.973C525.808 614.904 523.711 655.715 539.222 702.636H541.163Z" fill="#A0795F"/>
<path d="M550.5 614.883H460.796C460.303 614.883 459.83 614.687 459.481 614.339C459.132 613.99 458.936 613.517 458.936 613.024V611.739C458.936 611.246 459.132 610.773 459.481 610.425C459.83 610.076 460.303 609.88 460.796 609.88H550.5C550.994 609.88 551.467 610.076 551.816 610.425C552.164 610.773 552.36 611.246 552.36 611.739V613.024C552.36 613.517 552.163 613.989 551.815 614.338C551.466 614.686 550.993 614.882 550.5 614.883V614.883Z" fill="#D1A586"/>
<path d="M537.559 569.853C537.559 569.853 546.035 601.875 531.312 606.518C531.312 606.518 518.632 612.573 458.249 608.354C458.249 608.354 460.828 635.1 431.827 687.499C431.827 687.499 423.314 689.777 417.993 683.437C417.993 683.437 429.309 607.856 433.068 591.045C435.92 578.293 516.392 574.106 537.559 569.853Z" fill="#2B478B"/>
<path d="M422.555 521.248C422.166 521.151 421.81 520.949 421.526 520.664C421.243 520.38 421.043 520.023 420.947 519.633C420.003 515.946 417.293 514.184 416.991 514.575C416.755 514.884 417.728 516.861 417.901 517.606C412.129 517.493 413.94 513.791 409.028 513.112C408.047 512.978 407.087 517.278 410.986 522.462C413.46 525.753 414.134 524.602 421.65 526.262L425.221 527.159L426.129 521.618C424.927 521.629 423.729 521.505 422.555 521.248V521.248Z" fill="#FFB27D"/>
<path d="M512.617 476.635C511.281 479.107 506.7 483.948 499.924 485.715C499.874 481.685 499.738 479.422 499.738 479.422C500.121 479.315 513.002 475.9 512.617 476.635Z" fill="#ED975D"/>
<path d="M495.325 479.147C495.325 479.147 513.194 483.342 515.639 472.182C518.084 461.022 522.035 454.047 510.73 450.893C499.425 447.738 496.269 451.514 494.545 455.041C492.822 458.568 490.741 477.767 495.325 479.147Z" fill="#FFB27D"/>
<path d="M515.027 475.224C515.271 475.381 519.115 476.561 526.395 462.063C527.539 459.787 528.318 454.865 525.653 450.526C522.987 446.186 513.542 442.754 505.693 441.267C497.843 439.78 495.959 444.193 494.112 448.63C492.171 453.287 486.567 457.121 486.567 457.121C493.336 460.899 501.487 455.495 504.313 456.384C507.138 457.273 508.135 461.72 508.345 463.146C508.555 464.573 508.87 465.768 512.435 464.484C516.001 463.199 514.041 469.513 513.485 470.719C513.472 470.709 512.989 473.921 515.027 475.224Z" fill="#A9453D"/>
<path d="M486.381 532.358C487.357 535.452 486.174 556.663 488.616 569.653C490.054 577.313 493.803 579.466 493.89 579.534C496.775 581.776 508.917 586.986 518.008 590.833C538.28 599.412 542.847 588.307 542.669 585.782C542.588 584.65 534.111 522.753 528.297 504.776C524.929 494.353 521.056 486.137 515.649 482.978C514.943 482.582 512.501 484.129 509.012 486.366C505.787 488.432 502.775 488.51 499.472 488.222L494.826 492.798C491.305 496.886 487.562 502.329 486.538 510.065C486.46 510.636 486.394 511.242 486.339 511.9C486.053 515.039 484.521 526.469 486.381 532.358Z" fill="#2A4E96"/>
<path d="M486.066 523.495C486.158 528.648 486.457 534.443 486.853 540.327C486.879 540.676 486.903 541.025 486.929 541.376C506.931 528.863 510.016 505.977 510.016 505.977C500.178 506.407 492.36 508.667 486.334 511.903C486.053 515.039 485.985 519.027 486.066 523.495Z" fill="#244583"/>
<path d="M421.385 523.8C422.435 520.556 424.405 520.514 424.405 520.514C424.405 520.514 457.868 525.682 460.888 524.841C463.908 523.999 489.485 499.427 489.485 499.427C489.485 499.427 499.278 489.2 507.443 491.594C514.526 493.666 517.37 498.792 518.375 503.656C519.574 509.451 516.769 515.23 511.391 518.233C499.323 524.972 473.919 539.239 468.205 540.72C455.483 544.019 422.157 528.493 422.157 528.493C422.157 528.493 420.603 526.233 421.385 523.8Z" fill="#2A4E96"/>
<path d="M316.189 530.837L319.18 530.392C320.329 530.069 321.208 529.555 321.242 528.451L321.415 522.62C321.435 522.159 321.306 521.704 321.048 521.322C320.79 520.94 320.417 520.65 319.983 520.496C317.131 519.533 314.581 517.189 315.195 513.633C315.195 513.633 316.842 505.106 316.879 504.854L327.898 505.185C327.919 505.447 329.254 514.056 329.254 514.056C329.907 517.318 326.943 519.858 324.007 520.632C323.59 520.736 323.217 520.973 322.946 521.307C322.675 521.64 322.52 522.053 322.504 522.483L322.328 528.394C322.291 529.547 323.115 530.095 324.356 530.546L327.203 531.202C327.423 531.202 327.436 531.48 327.203 531.464L316.184 531.134C315.958 531.134 315.969 530.937 316.189 530.837Z" fill="#7693CE"/>
<path d="M315.703 515.419C316.228 518.419 318.97 520.365 322.05 520.456C325.13 520.548 328.186 518.424 328.795 515.689C328.912 515.153 328.931 514.601 328.85 514.058C328.781 513.598 328.683 513.143 328.556 512.695C328.506 512.524 327.349 505.169 327.349 505.169L317.354 504.87L315.798 512.776C315.767 512.901 315.743 513.027 315.724 513.154L315.696 513.29C315.68 513.416 315.656 513.536 315.643 513.662C315.58 514.248 315.6 514.839 315.703 515.419Z" fill="#EBF3FA"/>
<path d="M315.704 515.419C316.228 518.419 318.97 520.365 322.05 520.456C325.13 520.548 328.186 518.424 328.795 515.689C327.57 515.511 324.178 515.097 321.512 515.529C319.731 515.818 317.438 515.645 315.704 515.419Z" fill="#C94C43"/>
<path opacity="0.7" d="M326.363 515.616C326.48 515.08 326.499 514.527 326.418 513.985C326.349 513.525 326.25 513.069 326.124 512.621C326.074 512.451 324.92 505.096 324.92 505.096L326.179 505.135C326.179 505.135 327.336 512.477 327.386 512.658C327.511 513.107 327.609 513.563 327.68 514.024C327.76 514.567 327.74 515.119 327.622 515.655C327.013 518.39 323.949 520.511 320.877 520.422C320.659 520.422 320.442 520.396 320.229 520.37C323.076 520.189 325.794 518.17 326.363 515.616Z" fill="white"/>
<path d="M241.964 585.192C241.302 568.5 239.865 553.989 238.165 543.854C235.441 527.712 232.988 518.419 232.96 518.327C232.6 516.906 227.416 511.163 215.888 511.342C204.36 511.52 205.454 519.051 205.454 519.051C205.453 519.276 205.481 519.501 205.538 519.72C205.648 520.108 216.229 559.419 215.77 610.184C215.77 610.895 215.684 612.127 215.733 612.948C215.733 612.948 242.446 613.653 242.454 612.948C243.386 608.503 242.932 596.205 241.964 585.192Z" fill="#D1A586"/>
<path d="M245.322 609.925C245.322 610.633 244.949 611.199 244.506 611.199C244.063 611.199 243.719 610.622 243.703 609.925H220.8C220.8 610.633 220.427 611.199 219.984 611.199C219.532 611.199 219.173 610.604 219.178 609.888C219.283 596.507 218.649 583.13 217.279 569.819C214.236 539.955 208.621 519.997 208.529 519.719C208.473 519.501 208.446 519.276 208.448 519.051C208.448 519.051 207.354 511.52 218.879 511.342C230.404 511.163 235.591 516.909 235.951 518.327C235.974 518.403 237.362 523.661 239.206 533.114C239.82 536.247 240.479 539.839 241.158 543.864C242.866 553.991 244.307 568.513 244.955 585.203C245.912 596.205 246.253 605.491 245.322 609.925Z" fill="#E5BD9E"/>
<path d="M245.322 609.925C245.322 610.633 244.949 611.199 244.506 611.199C244.063 611.199 243.719 610.622 243.703 609.925H220.8C220.8 610.633 220.427 611.199 219.984 611.199C219.532 611.199 219.173 610.604 219.178 609.888C219.283 596.507 218.649 583.13 217.279 569.819C221.062 550.866 235.691 536.373 239.206 533.108C239.82 536.242 240.479 539.834 241.158 543.859C242.866 553.986 244.307 568.508 244.955 585.198C245.912 596.205 246.253 605.491 245.322 609.925Z" fill="#DFB697"/>
<path d="M222.112 609.66V609.516V609.453C222.112 609.015 221.477 579.075 219.853 564.81C218.879 556.286 212.958 520.878 212.924 520.726C212.877 520.556 212.855 520.379 212.858 520.202C212.802 519.576 212.872 518.945 213.065 518.346C213.257 517.747 213.568 517.193 213.979 516.717C215.29 515.188 217.557 514.389 220.745 514.339C229.339 514.21 233.277 518.495 233.566 519.633C233.626 519.845 240.201 547.276 241.337 562.668C241.442 564.1 241.678 566.538 241.974 569.622C243.719 587.757 245.385 607.142 242.919 607.586C239.094 608.273 235.261 608.372 232.349 608.372C231.373 608.372 230.441 608.372 229.562 608.351C228.775 608.351 228.049 608.336 227.367 608.336C224.31 608.336 222.408 608.524 222.382 609.476C222.382 609.576 222.382 609.602 222.345 609.641L222.306 609.681L222.112 609.66ZM221.141 514.593H220.755C217.649 514.64 215.44 515.409 214.196 516.874C213.424 517.791 213.047 518.976 213.147 520.171C213.146 520.333 213.165 520.495 213.205 520.653C213.236 520.763 219.152 556.094 220.141 564.776C221.642 577.942 222.293 604.442 222.39 608.829C223.004 608.183 224.714 608.042 227.393 608.042C228.078 608.042 228.812 608.042 229.591 608.06C230.47 608.06 231.402 608.081 232.375 608.081C235.277 608.081 239.094 607.995 242.898 607.31C243.601 607.184 244.309 604.651 243.685 593.305C243.263 585.557 242.373 576.353 241.73 569.635C241.434 566.549 241.206 564.11 241.093 562.673C239.952 547.202 233.393 519.932 233.33 519.688C233.031 518.61 229.292 514.593 221.141 514.593Z" fill="#D1A586"/>
<path d="M217.468 611.199H307.217C307.217 611.199 305.118 602.546 253.151 603.823C216.374 604.738 217.468 611.199 217.468 611.199Z" fill="#E5BD9E"/>
<path d="M210.169 701.719C220.577 647.741 217.901 614.618 217.887 614.201C217.861 613.37 219.357 612.615 220.159 612.589C220.962 612.562 224.567 612.345 224.981 613.055C225.525 613.986 227.621 654.798 212.126 701.719H210.169Z" fill="#D1A586"/>
<path d="M293.968 701.719C283.563 647.741 286.239 614.618 286.252 614.201C286.278 613.37 284.783 612.615 283.977 612.589C283.172 612.562 279.573 612.345 279.158 613.055C278.612 613.986 276.516 654.798 292.026 701.719H293.968Z" fill="#D1A586"/>
<path d="M310.575 701.719C300.17 647.741 302.846 614.618 302.859 614.201C302.885 613.37 301.39 612.615 300.584 612.589C299.779 612.562 296.179 612.345 295.765 613.055C295.219 613.986 293.123 654.798 308.62 701.719H310.575Z" fill="#A0795F"/>
<path d="M226.889 701.719C237.294 647.741 234.618 614.618 234.605 614.201C234.578 613.37 236.074 612.615 236.879 612.589C237.685 612.562 241.284 612.345 241.701 613.055C242.244 613.986 244.34 654.798 228.83 701.719H226.889Z" fill="#A0795F"/>
<path d="M307.253 608.96H217.552C216.523 608.96 215.689 609.793 215.689 610.821V612.104C215.689 613.132 216.523 613.965 217.552 613.965H307.253C308.282 613.965 309.116 613.132 309.116 612.104V610.821C309.116 609.793 308.282 608.96 307.253 608.96Z" fill="#D1A586"/>
<path d="M260.877 444.343C260.877 444.343 248.707 440.488 239.797 452.852C230.887 465.215 224.103 466.01 226.496 471.469C228.888 476.928 222.56 480.122 224.945 485.162C227.33 490.202 229.93 489.646 227.427 494.636C224.394 500.667 228.445 508.158 230.441 510.61C235.584 516.924 233.351 529.151 241.198 530.615C241.198 530.615 279.706 514.947 283.093 509.957C286.48 504.967 285.15 496.859 280.095 490.346C275.039 483.833 284.085 484.362 282.091 478.515C280.097 472.667 278.765 471.993 280.627 465.622C282.49 459.25 278.5 460.039 276.771 455.12C275.042 450.201 275.847 449.089 271.141 446.259C266.14 443.236 260.877 444.343 260.877 444.343Z" fill="#2C3A64"/>
<path d="M279.137 498.978C279.137 498.978 295.125 532.398 297.386 532.487C299.648 532.576 318.799 538.067 318.799 538.067V541.122H290.99C290.99 541.122 269.645 514.095 274.076 506.829C278.507 499.563 279.137 498.978 279.137 498.978Z" fill="#ED985F"/>
<path d="M336.065 602.719C336.065 602.719 358.921 683.447 365.186 690.276L355.28 687.916C355.28 687.916 355.516 685.849 355.28 685.22C350.447 672.319 326.507 654.771 323.026 616.365L336.065 602.719Z" fill="#ED985F"/>
<path d="M267.995 511.182C253.017 517.291 248.507 493.388 249.478 493.181C251.01 491.56 252.726 485.665 251.925 477.073L252.689 477.151L263.939 478.357C263.787 480.964 263.776 483.577 263.905 486.185C263.905 486.447 263.936 486.685 263.957 486.927C264.219 489.84 266.549 491.909 267.205 492.496C268.197 492.549 271.99 509.551 267.995 511.182Z" fill="#FFB27D"/>
<path d="M263.905 486.185C258.012 485.505 254.355 480.245 252.689 477.154L263.939 478.357C263.787 480.964 263.776 483.577 263.905 486.185V486.185Z" fill="#ED985F"/>
<path d="M268.163 481.848C268.163 481.848 251.524 483.604 250.585 473.234C249.646 462.863 246.87 456.103 257.453 454.543C268.037 452.983 270.458 456.753 271.621 460.139C272.783 463.524 272.465 481.121 268.163 481.848Z" fill="#FFB27D"/>
<path d="M243.919 490.603C243.919 490.603 254.014 485.096 268.617 490.946C269.974 491.491 271.203 492.312 272.227 493.356C273.25 494.401 274.045 495.646 274.562 497.014C276.957 503.386 274.336 510.156 274.677 514.625C274.677 514.625 269.244 540.453 268.656 552.195C268.068 563.937 275.739 575.697 272.825 576.521C267.213 578.112 232.139 596.371 232.509 582.99C232.732 574.934 248.108 558.866 248.174 550.645C248.24 542.425 232.291 495.388 243.919 490.603Z" fill="#FFB27D"/>
<path d="M240.46 565.243C240.46 565.243 221.175 588.842 228.584 601.536C237.596 616.986 313.998 606.041 319.285 608.315C319.285 608.315 312.267 621.706 317.776 657.934C318.999 665.966 324.597 680.917 320.88 687.509L329.427 683.094C329.427 683.094 329.039 652.912 338.216 604.017C338.216 604.017 338.082 594.024 333.478 591.567C323.771 586.388 240.46 565.243 240.46 565.243Z" fill="#FFB27D"/>
<path d="M339.402 697.767C339.402 697.767 337.419 697.18 336.621 696.115C335.824 695.051 332.161 689.035 330.54 686.395C328.919 683.754 328.906 677.437 328.906 677.437L321.79 675.379C321.79 675.379 324.627 684.032 320.88 687.509L325.781 692.992C325.781 692.992 331.875 698.708 332.319 698.84C332.762 698.971 337.566 699.904 337.566 699.904L339.402 697.767Z" fill="#FFB27D"/>
<path d="M333.478 591.567C333.478 591.567 332.011 602.278 324.469 613.265C319.823 620.102 313.592 625.713 306.306 629.62C300.904 632.522 294.448 634.762 286.745 635.897C286.745 635.897 290.176 613.368 283.754 611.461C283.475 611.381 283.186 611.339 282.896 611.335C275.317 611.233 229.512 613.027 224.782 597.962C220.115 583.123 243.286 552.94 243.202 551.629C241.103 518.327 237.475 499.025 239.602 495.797C242.389 491.563 251.408 488.503 251.408 488.503C251.408 488.503 261.968 502.898 270.775 506.965C273.905 508.41 268.606 490.97 268.606 490.97C268.606 490.97 276.028 491.702 281.613 501.983C281.613 501.983 278.37 505.326 276.98 506.79C276.98 506.79 279.968 514.695 280.262 517.69C280.566 520.779 280.031 523.946 278.323 531.189C278.19 531.753 278.029 532.336 277.841 532.938C276.146 538.36 272.363 545.561 269.773 556.684C269.673 557.278 269.673 557.884 269.773 558.478C270.416 563.586 275.503 574.297 279.137 574.761C283.287 575.281 329.755 587.883 333.478 591.567Z" fill="#F99746"/>
<path d="M269.784 556.671C269.683 557.265 269.683 557.871 269.784 558.465C246.141 529.175 244.674 499.545 244.674 499.545L277.862 532.925C276.157 538.347 272.373 545.548 269.784 556.671Z" fill="#ED7D2B"/>
<path d="M242.743 495.155C242.35 496.369 240.629 501.545 241.392 502.568C246.309 509.142 274.748 540.209 282.975 541.803C292.058 543.565 315.712 521.044 315.712 521.044L312.826 519.675C312.826 519.675 286.412 530.777 284.977 529.419C283.253 527.785 263.899 505.004 259.581 500.313C253.017 493.178 244.921 488.461 242.743 495.155Z" fill="#FFB27D"/>
<path d="M373.807 697.767C373.807 697.767 370.659 696.456 368.985 694.621C364.024 689.159 363.594 688.385 361.217 683.836C360.244 681.971 355.285 687.507 355.285 687.507L364.546 698.905L369.917 700.853L373.807 697.767Z" fill="#ED985F"/>
<path d="M251.421 488.492C251.421 488.492 239.539 488.054 239.072 497.166C238.605 506.278 245.246 510.235 245.246 510.235C245.246 510.235 253.953 513.222 262.579 502.141C262.579 502.141 258.416 497.782 256.333 495.787C253.19 492.782 251.421 488.492 251.421 488.492Z" fill="#F99746"/>
<path d="M320.311 693.194L322.105 701.719H323.986V693.923L320.311 693.194Z" fill="#C94C43"/>
<path d="M354.713 693.194L356.508 701.719H358.389V693.923L354.713 693.194Z" fill="#C94C43"/>
<path d="M376.922 701.719H363.56C363.56 701.719 362.07 695.074 358.594 694.854C355.117 694.634 353.47 692.347 354.286 690.493C354.726 689.538 355.061 688.537 355.285 687.509C355.285 687.509 361.183 689.691 363.355 695.051C365.528 700.41 373.808 697.767 373.808 697.767C375.581 698.562 376.979 698.994 376.922 701.719Z" fill="#C94C43"/>
<path d="M342.519 701.719H329.157C329.157 701.719 327.667 695.074 324.191 694.854C320.715 694.634 319.067 692.347 319.883 690.493C320.323 689.538 320.658 688.537 320.88 687.509C320.88 687.509 326.778 689.691 328.952 695.051C331.127 700.41 339.402 697.767 339.402 697.767C341.178 698.562 342.582 698.994 342.519 701.719Z" fill="#C94C43"/>
<path d="M312.505 519.809C312.505 519.809 315.066 518.411 317.128 518.285C319.19 518.159 321.656 517.2 321.467 517.934C321.279 518.668 318.66 519.714 319.248 520.073C320.359 520.629 321.589 520.906 322.832 520.881C324.178 520.808 326.835 519.09 326.313 520.27C325.791 521.45 323.01 523.965 320.638 523.747C318.54 523.553 314.179 522.465 314.179 522.465L312.505 519.809Z" fill="#FFB27D"/>
<path d="M318.8 538.056C318.8 538.056 325.235 536.286 326.917 536.375C328.599 536.465 334.892 539.554 334.979 541.111H317.776L318.8 538.056Z" fill="#ED985F"/>
<path d="M270.61 454.414C267.756 451.53 265.872 452.382 264.865 453.418C248.885 447.932 242.056 462.575 242.056 462.575C242.056 462.575 236.52 495.795 241.969 491.256C243.299 490.149 245.928 488.828 247.542 489.538C250.165 490.689 259.946 491.681 254.68 481.958C251.102 475.355 254.066 472.964 254.066 472.964C262.084 468.357 266.038 456.355 266.263 455.096C267.362 455.92 270.02 458.371 270.343 460.39C271.096 465.134 273.006 466.159 274.575 465.818C274.575 465.81 274.889 458.752 270.61 454.414Z" fill="#2C3A64"/>
<path d="M324.469 613.265C324.925 608.611 320.796 601.544 317.776 597.346C313.962 592.031 279.137 574.748 279.137 574.748C283.287 575.273 329.771 587.883 333.478 591.567C333.478 591.567 332.012 602.278 324.469 613.265Z" fill="#ED7D2B"/>
<path d="M286.745 635.897C286.745 635.897 290.177 613.368 283.754 611.461C297.525 611.086 306.317 629.62 306.317 629.62C300.896 632.522 294.448 634.751 286.745 635.897Z" fill="#ED7D2B"/>
<path d="M389.496 443.913C381.801 442.263 381.673 435.973 381.673 435.973C390.735 438.834 389.496 443.913 389.496 443.913Z" fill="#6BB7BF"/>
<path d="M390.026 442.478C390.026 442.478 394.827 444.424 398.241 439.531C398.23 439.531 392.7 438.592 390.026 442.478Z" fill="#6BB7BF"/>
<path d="M379.493 537.319L378.498 538.465C378.462 538.498 378.418 538.52 378.371 538.53C378.323 538.539 378.274 538.535 378.228 538.517C378.183 538.5 378.143 538.471 378.113 538.433C378.084 538.394 378.065 538.348 378.06 538.3C378.118 505.916 382.231 477.146 385.687 460.16C389.457 441.634 393.295 430.681 393.319 430.574C393.282 430.681 389.832 441.81 386.072 460.283C382.612 477.288 378.653 499.508 379.655 536.874C379.66 537.038 379.602 537.197 379.493 537.319V537.319Z" fill="#6BB7BF"/>
<path d="M393.245 426.171C392.02 427.157 387.319 431.358 391.878 434.599C391.878 434.599 395.373 435.703 396.53 433.012C397.414 430.959 397.653 428.67 397.716 427.7C397.723 427.579 397.682 427.46 397.603 427.369C397.523 427.278 397.411 427.222 397.291 427.212C396.953 427.182 396.621 427.106 396.304 426.987C395.871 426.819 395.651 426.166 395.066 426.024C394.688 425.914 394.294 425.869 393.901 425.893C393.66 425.919 393.431 426.016 393.245 426.171V426.171Z" fill="#F99746"/>
<path d="M390.645 433.424C391.048 433.774 391.344 434.23 391.499 434.74C391.654 435.25 391.662 435.794 391.522 436.308V436.967C391.659 436.462 391.92 435.999 392.283 435.622C392.646 435.245 393.097 434.965 393.597 434.809C393.597 434.809 392.046 434.995 390.645 433.424Z" fill="#6BB7BF"/>
<path d="M389.496 443.913C381.801 442.263 381.673 435.973 381.673 435.973C381.673 435.973 387.767 439.319 389.496 443.913Z" fill="#8AD8DB"/>
<path d="M382.105 439.602C382.105 439.602 377.265 441.453 373.951 436.492C373.951 436.492 379.508 435.663 382.105 439.602Z" fill="#6BB7BF"/>
<path d="M390.735 534.637L391.705 535.801C391.74 535.835 391.784 535.857 391.832 535.867C391.879 535.877 391.928 535.874 391.974 535.858C392.02 535.842 392.06 535.813 392.09 535.775C392.121 535.737 392.14 535.692 392.146 535.644C392.739 503.268 389.202 474.419 386.088 457.38C382.678 438.781 379.086 427.75 379.049 427.645C379.086 427.755 382.313 438.949 385.7 457.493C388.819 474.563 392.33 496.859 390.58 534.196C390.575 534.357 390.63 534.514 390.735 534.637V534.637Z" fill="#6BB7BF"/>
<path d="M379.204 423.234C380.411 424.244 385.026 428.539 380.403 431.688C380.403 431.688 376.887 432.724 375.783 430.01C374.941 427.938 374.749 425.644 374.704 424.674C374.699 424.552 374.743 424.433 374.825 424.343C374.907 424.253 375.021 424.198 375.143 424.191C375.481 424.168 375.814 424.099 376.134 423.987C376.57 423.827 376.803 423.179 377.388 423.048C377.769 422.946 378.164 422.911 378.556 422.943C378.796 422.974 379.022 423.075 379.204 423.234V423.234Z" fill="#F99746"/>
<path d="M381.667 430.54C381.253 430.882 380.945 431.335 380.78 431.846C380.614 432.357 380.598 432.904 380.733 433.424V434.085C380.606 433.577 380.353 433.11 379.998 432.725C379.642 432.341 379.196 432.052 378.7 431.885C378.7 431.885 380.235 432.079 381.667 430.54Z" fill="#6BB7BF"/>
<path d="M384.155 433.93C384.155 433.93 389.265 434.785 391.53 429.265C391.53 429.265 385.918 429.556 384.155 433.93Z" fill="#6BB7BF"/>
<path d="M394.57 528.787L393.849 530.122C393.821 530.161 393.783 530.192 393.738 530.211C393.694 530.23 393.646 530.236 393.598 530.229C393.55 530.223 393.505 530.203 393.468 530.172C393.431 530.142 393.403 530.102 393.387 530.056C386.374 498.438 384.113 469.466 383.782 452.146C383.42 433.243 384.761 421.729 384.774 421.606C384.774 421.721 383.824 433.332 384.186 452.18C384.519 469.529 385.498 492.079 394.633 528.325C394.67 528.482 394.648 528.646 394.57 528.787V528.787Z" fill="#6BB7BF"/>
<path d="M383.748 417.313C382.764 418.543 379.097 423.667 384.252 425.835C384.252 425.835 387.904 426.153 388.45 423.276C388.864 421.079 388.596 418.792 388.45 417.833C388.431 417.712 388.365 417.604 388.267 417.532C388.168 417.459 388.046 417.429 387.925 417.447C387.589 417.493 387.248 417.493 386.912 417.447C386.453 417.376 386.096 416.789 385.495 416.776C385.103 416.752 384.709 416.794 384.331 416.902C384.1 416.979 383.898 417.122 383.748 417.313V417.313Z" fill="#F99746"/>
<path d="M382.785 424.962C383.255 425.215 383.645 425.595 383.908 426.059C384.171 426.523 384.298 427.052 384.273 427.584L384.401 428.23C384.425 427.707 384.581 427.199 384.853 426.752C385.125 426.305 385.506 425.934 385.96 425.673C385.96 425.673 384.493 426.187 382.785 424.962Z" fill="#6BB7BF"/>
<path d="M388.374 428.243C388.374 428.243 388.374 424.199 391.86 422.93C391.86 422.93 392.629 426.305 388.374 428.243Z" fill="#6BB7BF"/>
<path d="M380.183 421.745C380.183 421.745 380.285 418.659 377.431 417.767C377.431 417.767 376.743 420.641 380.183 421.745Z" fill="#ED9F4A"/>
<path d="M389.554 440.31C389.659 440.399 391.044 437.307 388.224 434.822C388.224 434.822 387.046 438.131 389.554 440.31Z" fill="#ED9F4A"/>
<path d="M391.529 440.069C391.451 440.09 391.508 438.529 392.972 438.307C392.983 438.307 393.222 439.604 391.529 440.069Z" fill="#6BB7BF"/>
<path d="M376.921 434.822C376.921 434.822 375.686 432.265 371.729 432.708C371.732 432.708 372.322 435.467 376.921 434.822Z" fill="#6BB7BF"/>
<path d="M401.486 537.993L389.399 456.656C389.341 456.266 389.144 455.909 388.844 455.651C388.545 455.393 388.163 455.251 387.767 455.251H383.997C383.628 455.25 383.27 455.382 382.989 455.623C382.709 455.864 382.524 456.197 382.468 456.562L370.662 537.904C370.604 538.301 370.633 538.706 370.745 539.09C370.858 539.475 371.052 539.831 371.315 540.135C371.577 540.438 371.902 540.681 372.267 540.848C372.632 541.014 373.028 541.101 373.43 541.101H398.799C399.189 541.1 399.574 541.015 399.928 540.853C400.282 540.69 400.597 540.454 400.852 540.159C401.106 539.865 401.295 539.519 401.404 539.145C401.513 538.772 401.541 538.379 401.486 537.993V537.993Z" fill="#F99746"/>
<path d="M379.047 538.652L385.317 455.267C384.986 455.313 384.679 455.467 384.442 455.703C384.205 455.94 384.052 456.247 384.005 456.578L372.199 537.92C372.142 538.317 372.17 538.721 372.283 539.106C372.396 539.491 372.59 539.847 372.852 540.15C373.115 540.454 373.44 540.697 373.805 540.863C374.169 541.03 374.566 541.116 374.967 541.116H380.039C379.695 540.809 379.427 540.427 379.255 540C379.083 539.572 379.012 539.111 379.047 538.652V538.652Z" fill="#FFB278"/>
<path d="M393.297 541.111H400.328C400.917 541.112 401.49 540.922 401.96 540.568L393.297 541.111Z" fill="#FFB278"/>
<path d="M361.062 492.016V499.579C361.062 500.124 360.719 500.572 360.299 500.572H358.224C357.804 500.572 357.46 500.124 357.46 499.579V492.04C357.551 492.024 357.643 492.016 357.736 492.016H361.062Z" fill="#2B478B"/>
<path d="M360.036 497.465H358.693C357.272 497.469 355.911 498.035 354.906 499.04C353.901 500.044 353.335 501.405 353.331 502.825V539.097C353.332 539.617 353.539 540.114 353.906 540.482C354.273 540.849 354.771 541.057 355.29 541.059H363.436C363.902 541.057 364.347 540.871 364.676 540.542C365.005 540.213 365.19 539.767 365.192 539.302V502.618C365.188 501.252 364.644 499.944 363.678 498.978C362.712 498.013 361.403 497.469 360.036 497.465V497.465Z" fill="#2B478B"/>
<path d="M361.062 488.867V492.674C361.062 492.879 360.719 493.049 360.299 493.049H358.224C357.804 493.049 357.46 492.879 357.46 492.674V488.867C357.46 488.663 357.804 488.492 358.224 488.492H360.299C360.713 488.492 361.062 488.663 361.062 488.867Z" fill="#233862"/>
<path d="M365.192 505.216H353.331V528.011H365.192V505.216Z" fill="#233862"/>
<path d="M437.583 701.719C437.137 701.718 436.706 701.56 436.365 701.272C436.025 700.984 435.797 700.585 435.723 700.145L426.609 647.102L413.491 570.812L409.818 549.478L419.153 549.216L420.792 561.593L432.165 648.623L438.908 700.208C438.933 700.397 438.917 700.589 438.862 700.771C438.807 700.953 438.714 701.121 438.588 701.264C438.463 701.407 438.308 701.522 438.135 701.6C437.961 701.678 437.773 701.719 437.583 701.719V701.719Z" fill="#C69D7F"/>
<path d="M342.052 549.486L337.888 573.655L326.413 640.439L316.155 700.14C316.082 700.58 315.855 700.979 315.515 701.267C315.175 701.555 314.743 701.713 314.298 701.713C314.107 701.714 313.919 701.674 313.746 701.596C313.572 701.518 313.417 701.403 313.292 701.261C313.166 701.118 313.072 700.95 313.017 700.768C312.961 700.586 312.945 700.394 312.97 700.206L321.817 632.525L331.28 560.13L332.707 549.208L342.052 549.486Z" fill="#C69D7F"/>
<path d="M337.888 573.655C338.434 563.263 331.28 560.124 331.28 560.124L332.707 549.203L342.044 549.465L337.888 573.655Z" fill="#A0795F"/>
<path d="M420.792 561.593C414.742 564.336 413.501 570.818 413.501 570.818L409.828 549.484L419.163 549.221L420.792 561.593Z" fill="#A0795F"/>
<path d="M463.813 541.111H288.086C283.866 541.111 280.446 544.53 280.446 548.747V550.226C280.446 554.443 283.866 557.862 288.086 557.862H463.813C468.033 557.862 471.453 554.443 471.453 550.226V548.747C471.453 544.53 468.033 541.111 463.813 541.111Z" fill="#E0B594"/>
<path d="M155.07 401.321V678.106C151.339 674.674 147.43 670.908 143.437 666.831V409.245C147.229 406.392 151.106 403.751 155.07 401.321Z" fill="#E5BD9E"/>
<path d="M506.057 301.277L355.185 351.033C361.911 341.791 369.497 333.206 377.842 325.393L506.057 301.277Z" fill="#FFF4E9"/>
<path d="M426.129 353.849C426.128 352.068 426.656 350.327 427.646 348.846C428.635 347.365 430.042 346.21 431.688 345.528C433.335 344.846 435.146 344.668 436.894 345.015C438.642 345.362 440.247 346.219 441.507 347.478C442.768 348.738 443.626 350.342 443.974 352.089C444.322 353.836 444.143 355.646 443.462 357.292C442.78 358.937 441.625 360.344 440.143 361.333C438.662 362.323 436.92 362.851 435.138 362.851C433.955 362.851 432.783 362.619 431.69 362.167C430.597 361.714 429.604 361.051 428.768 360.215C427.931 359.379 427.267 358.387 426.815 357.295C426.362 356.202 426.129 355.032 426.129 353.849Z" fill="#FFF4E9"/>
<path d="M616.141 349.848V680.807C614.266 684.448 612.327 688.091 610.325 691.734C608.444 695.153 606.506 698.571 604.508 701.989V335.061C606.492 337.334 608.43 339.672 610.325 342.076C612.313 344.598 614.252 347.189 616.141 349.848Z" fill="#E5BD9E"/>
<path d="M647.576 600.705C645.432 608.507 643.015 616.343 640.325 624.213C639.975 625.234 639.62 626.255 639.26 627.275C635.916 636.796 632.155 646.346 627.979 655.925C625.451 656.774 622.858 657.412 620.226 657.834C609.664 659.423 612.93 655.084 616.569 648.657C620.208 642.23 631.725 639.343 634.351 636.382C636.977 633.422 631.547 633.411 625.182 636.314C618.817 639.217 617.951 646.965 607.741 651.853C597.53 656.741 582.172 639.809 582.172 639.809C590.305 639.392 601.927 630.564 601.504 627.863C601.082 625.162 581.783 632.522 578.486 632.876C575.188 633.23 567.682 629.129 566.52 615.845C565.357 602.562 587.141 598.856 587.141 598.856C587.141 598.856 608.759 614.92 612.969 613.947C617.18 612.974 597.176 596.607 597.176 596.607C604.705 592.988 628.112 595.259 628.112 595.259C628.112 595.259 635.91 620.387 639.756 618.407C643.602 616.428 631.715 596.507 631.715 596.507C637.392 596.158 643.94 598.901 647.576 600.705Z" fill="#599DAD"/>
<path d="M640.325 624.213C639.975 625.234 639.62 626.255 639.26 627.275C630.059 622.241 612.104 617.34 577.221 616.199C577.221 616.199 619.297 614.579 640.325 624.213Z" fill="#599DAD"/>
<path d="M116.587 635.168C116.005 634.364 115.425 633.551 114.848 632.73C111.629 628.162 108.517 623.403 105.563 618.468C105.807 609.272 105.348 600.236 105.348 600.236C105.348 600.236 136.167 585.418 148.261 586.6C148.261 586.6 129.144 618.966 135.388 618.184C141.632 617.403 163.084 584.652 163.084 584.652C163.084 584.652 194.688 578.789 199.759 597.517C204.83 616.244 196.637 625.574 191.954 626.751C187.271 627.928 157.234 627.538 158.016 631.432C158.798 635.326 179.08 641.569 190.396 638.058C190.396 638.058 177.91 668.863 161.537 667.303C146.716 665.892 141.152 657.462 132.717 655.291C130.545 652.831 128.381 650.287 126.226 647.658C125.738 647.065 125.251 646.466 124.765 645.861C122.745 643.355 120.748 640.777 118.775 638.129L116.587 635.168Z" fill="#6BB7BF"/>
<path d="M118.765 638.129C131.652 628.377 152.347 616.69 185.309 603.361C184.414 603.65 143.594 616.968 116.588 635.168L118.765 638.129Z" fill="#599DAD"/>
<path d="M655.998 562.605C654.723 570.23 653.188 577.912 651.394 585.651C640.918 585.583 629.356 583.158 621.396 579.943C605.917 573.676 613.77 570.432 623.791 564.669C633.068 559.333 649.004 563.462 655.998 562.605Z" fill="#86D1CD"/>
<path d="M659.676 533.407C659.538 535.031 659.389 536.655 659.228 538.279C658.593 544.747 657.771 551.267 656.762 557.838C654.185 556.561 650.053 555.423 645.218 554.909C634.336 553.758 626.992 563.489 609.36 561.942C591.727 560.394 584.533 525.383 584.533 525.383C595.814 531.302 618.487 528.658 620.077 524.686C621.667 520.713 589.812 515.267 585.092 513.119C580.372 510.972 573.527 499.484 582.547 480.665C591.567 461.846 623.855 474.207 623.855 474.207C623.855 474.207 640.157 513.033 646.606 515.078C653.055 517.124 639.155 479.155 639.155 479.155C644.52 479.619 652.714 483.568 660.498 488.07C661.238 503.184 660.964 518.33 659.676 533.407V533.407Z" fill="#86D1CD"/>
<path d="M596.683 489.672C597.278 489.995 634.477 510.172 659.677 533.407C659.538 535.031 659.389 536.655 659.228 538.279C647.39 525.627 628 509.595 596.683 489.672Z" fill="#6BB7BF"/>
<path d="M652.887 701.59H132.919C132.489 701.59 132.14 701.939 132.14 702.369V703.221C132.14 703.651 132.489 704 132.919 704H652.887C653.317 704 653.666 703.651 653.666 703.221V702.369C653.666 701.939 653.317 701.59 652.887 701.59Z" fill="#0B0101"/>
</svg>
