<svg width="806" height="980" viewBox="0 0 806 980" fill="none" xmlns="http://www.w3.org/2000/svg">
<g opacity="0.38">
<path opacity="0.38" d="M99.1447 690.323C102.627 695.493 106.336 699.671 110.062 702.557H543.178C543.574 702.228 543.931 701.855 544.242 701.444C546.498 698.376 548.649 695.124 550.695 691.687C552.098 690.066 553.469 688.418 554.807 686.745C567.913 670.321 577.749 651.398 583.916 631.322C590.106 611.097 592.615 589.924 591.322 568.811C590.662 558.289 589.079 547.845 586.589 537.601C585.354 532.479 583.912 527.413 582.262 522.404C580.606 517.44 578.818 512.51 576.899 507.614C574.975 502.727 572.907 497.893 570.66 493.132C568.322 488.137 565.813 483.272 563.131 478.538C554.219 461.277 542.099 447.013 527.723 434.271C524.13 431.087 520.4 427.989 516.533 424.978C488.902 407.046 474.281 376.943 459.232 348.133C441.387 314.162 407.847 289.437 369.738 285.824C363.16 285.178 356.534 285.161 349.953 285.774C343.318 286.392 336.764 287.684 330.391 289.628C317.39 293.863 305.198 300.266 294.333 308.566C285.953 315.231 273.907 307.923 263.377 307.499C254.92 306.451 246.42 305.674 237.92 305.454C229.42 305.235 220.919 305.571 212.458 306.751C194.392 309.265 176.426 315.845 162.348 327.7C155.3 333.633 149.473 340.881 145.194 349.039C140.91 357.226 138.188 366.176 136.814 375.297C133.915 394.57 136.913 414.078 143.271 432.362C145.82 439.691 148.854 446.815 152.199 453.795C162.512 502.469 125.807 541.836 104.771 561.632C66.6706 597.494 79.0204 660.438 99.1447 690.323ZM519.549 428.079C535.058 441.367 548.374 457.017 559.009 474.453C562.544 480.191 565.805 486.063 568.793 492.068C571.777 498.185 574.452 504.45 576.862 510.795C579.272 517.14 581.424 523.567 583.329 530.016C584.763 535.027 585.992 540.088 587.016 545.201C593.226 576.09 590.977 608.083 580.507 637.8C574.396 655.145 565.448 671.356 554.028 685.771C572.51 651.041 580.985 601.522 577.564 555.553C576.995 547.892 576.095 540.331 574.859 532.952C574.007 526.972 572.855 521.039 571.409 515.175C569.963 509.304 568.208 503.513 566.151 497.826C564.093 492.175 561.736 486.636 559.089 481.235C551.045 464.665 540.512 449.83 528.068 436.559C525.137 433.512 522.283 430.718 519.549 428.079ZM149.564 444.155C149.94 445.273 150.289 446.387 150.612 447.497C147.402 440.324 144.57 432.991 142.304 425.442C136.873 407.343 135.023 387.952 139.145 369.377C141.118 360.486 144.475 351.892 149.398 344.213C154.322 336.534 160.795 329.939 168.236 324.672C183.398 313.931 201.878 308.593 220.251 307.112C227.993 306.488 235.731 306.485 243.455 306.89C251.18 307.296 258.889 308.112 266.583 309.124C271.708 309.795 276.845 310.581 282.021 311.415C276.707 312.201 270.355 312.756 262.49 313.081C258.557 313.249 254.24 313.338 249.484 313.371C244.727 313.405 239.532 313.371 233.844 313.284C157.87 312.045 131.763 391.058 149.564 444.155Z" fill="#E5CFDA"/>
</g>
<path d="M98.8047 690.567C102.287 695.634 105.996 699.728 109.722 702.552H542.838C543.234 702.23 543.591 701.864 543.902 701.461C546.516 697.964 548.937 694.328 551.154 690.567H98.8047Z" fill="#E5CFDA"/>
<path d="M168.046 438.432C167.928 438.286 167.792 438.155 167.643 438.04C164.049 435.313 149.052 435.31 145.036 438.04C144.334 438.518 143.863 439.471 143.588 440.755C140.888 439.987 138.011 439.639 135.934 440.631C134.46 441.333 133.518 442.617 133.203 444.34C132.09 450.477 134.786 456.103 141.009 460.615C142.541 461.714 144.159 462.689 145.847 463.529C146.518 466.66 147.088 468.878 147.166 469.189L147.208 469.348H165.261L165.3 469.194C165.58 468.099 172.054 443.267 168.046 438.432ZM136.64 444.958C136.781 444.186 137.121 443.926 137.439 443.775C138.628 443.205 140.873 443.566 143.251 444.315C143.198 448.578 144.027 454.203 144.936 459.026C140.419 456.264 135.427 451.62 136.64 444.958V444.958Z" fill="#5DAFD8"/>
<path d="M167.643 438.04C164.049 435.313 149.052 435.31 145.036 438.04C144.334 438.518 143.863 439.471 143.588 440.755C140.888 439.987 138.011 439.639 135.934 440.631C134.46 441.333 133.518 442.617 133.203 444.34C132.09 450.477 134.786 456.103 141.009 460.615C142.541 461.714 144.159 462.689 145.847 463.529C146.518 466.66 147.088 468.878 147.166 469.189L147.208 469.348H149.064C153.555 468.099 164.706 462.579 168.047 438.439C167.928 438.29 167.793 438.157 167.643 438.04V438.04ZM136.638 444.958C136.779 444.186 137.119 443.926 137.438 443.775C138.626 443.205 140.872 443.566 143.25 444.315C143.196 448.578 144.026 454.203 144.934 459.026C140.419 456.264 135.427 451.62 136.64 444.958H136.638Z" fill="#80C1E8"/>
<path d="M150.096 440.963C149.293 440.715 148.457 440.725 147.616 440.817C147.542 440.814 147.47 440.829 147.403 440.861C147.337 440.892 147.279 440.939 147.235 440.998C145.435 444.119 147.106 452.292 147.106 452.292C147.106 452.522 147.332 453.346 147.379 453.7C147.512 454.705 148.956 454.732 149.121 453.732C149.121 453.737 151.345 441.35 150.096 440.963Z" fill="#A6E8FF"/>
<path d="M156.917 401.448C154.738 403.228 153.062 406.245 153.47 409.132C153.676 410.622 154.547 411.668 155.663 412.607C156.878 413.629 157.948 414.608 158.377 416.198C158.557 416.907 158.582 417.646 158.45 418.365C158.318 419.084 158.031 419.766 157.611 420.364C156.904 421.39 155.71 421.786 154.634 422.3C153.515 422.836 152.325 423.473 151.479 424.402C150.383 425.602 150.183 427.378 150.657 428.896C151.132 430.415 152.26 431.598 153.622 432.364C154.197 432.686 154.701 432.785 155.338 432.902C155.236 432.883 154.991 432.847 155.439 432.935C155.678 432.984 155.925 433.009 156.168 433.041C157.125 433.168 157.882 433.168 158.782 432.778C159.642 432.406 159.528 431.27 159.052 430.693C158.65 430.202 158.144 429.92 157.597 429.617C156.865 429.208 156.803 429.049 156.072 428.6C155.861 428.471 155.647 428.353 155.442 428.213C155.238 428.072 155.471 428.228 155.499 428.255C155.404 428.167 155.313 428.07 155.216 427.986C154.934 427.738 155.348 428.191 155.06 427.76C154.924 427.559 155.07 427.834 155.085 427.874C155.029 427.723 154.983 427.568 154.949 427.41C154.889 427.155 154.96 427.474 154.961 427.509C154.961 427.363 154.961 427.222 154.961 427.076C154.973 426.923 154.973 426.769 154.961 426.616C154.961 426.604 154.914 426.986 154.933 426.756C154.948 426.56 154.896 426.869 154.872 426.905C154.941 426.802 154.998 426.693 155.07 426.59C154.923 426.8 155.37 426.255 155.451 426.173C156.243 425.347 156.984 424.968 157.877 424.206C159.823 422.548 160.884 419.669 160.513 417.167C160.322 415.841 159.79 414.587 158.97 413.528C158.132 412.466 156.986 411.842 155.975 410.981C153.089 408.521 155.09 404.031 157.391 401.914C157.706 401.624 157.249 401.19 156.929 401.452L156.917 401.448Z" fill="white"/>
<path d="M461.466 636.444H468.711C469.136 636.444 469.544 636.613 469.844 636.913C470.145 637.214 470.313 637.621 470.313 638.046V679.636H459.869V638.046C459.869 637.622 460.037 637.215 460.337 636.915C460.636 636.615 461.042 636.445 461.466 636.444V636.444Z" fill="#896A7B"/>
<path d="M316.118 362.76C326.378 374.491 317.626 387.366 313.708 388.874C309.789 390.382 297.363 382.552 292.99 375.388C287.032 365.619 303.674 348.543 316.118 362.76Z" fill="#5B1F3A"/>
<path d="M307.908 358.327C307.908 358.327 289.156 351.131 287.939 370.794C287.241 382.115 300.205 384.478 300.205 384.478" stroke="#5B1F3A" stroke-width="6.12" stroke-miterlimit="10"/>
<path d="M401.683 400.83C398.973 398.609 395.583 397.386 392.08 397.365C388.576 397.343 385.172 398.526 382.435 400.714C380.759 402.055 379.481 403.811 378.111 405.459C376.931 406.883 375.743 408.303 374.55 409.717C372.204 412.51 369.834 415.283 367.441 418.035C364.696 421.187 334.09 446.639 332.022 447.765C331.768 447.904 331.511 448.044 331.25 448.169C322.431 440.643 320.33 411.931 320.227 411.945C317.192 412.365 305.789 413.02 304.152 413.272C303.984 414.564 306.285 443.514 311.94 458.66C312.847 461.089 314.573 464.503 316.204 466.577C317.341 468.018 318.938 469.024 320.728 469.426C321.967 469.703 323.214 469.594 324.462 469.477C329.145 469.034 333.765 467.824 338.205 466.336C342.626 464.842 346.938 463.041 351.109 460.948C355.201 458.9 359.181 456.635 363.032 454.162C366.963 451.648 370.786 448.957 374.537 446.182C378.246 443.44 381.886 440.608 385.497 437.74C388.427 435.416 391.336 433.064 394.224 430.685C395.574 429.57 396.929 428.461 398.273 427.333C399.754 426.098 401.311 424.908 402.689 423.559C404.225 422.057 405.427 420.248 406.217 418.25C407.006 416.252 407.365 414.11 407.27 411.964C407.175 409.817 406.629 407.715 405.666 405.795C404.703 403.874 403.346 402.178 401.683 400.818V400.83Z" fill="#80C1E8"/>
<path d="M390.302 669.007L403.558 668.894L403.416 652.323L390.16 652.437L390.302 669.007Z" fill="#E28F8F"/>
<path d="M402.831 666.647L408.07 681.151C408.254 681.591 408.266 682.085 408.105 682.534C407.943 682.983 407.619 683.356 407.197 683.579C404.625 684.933 399.702 687.551 399.198 688.022C391.102 695.548 392.905 696.336 386.57 697.072C382.979 697.487 380.57 697.058 377.353 696.904C376.988 696.887 376.635 696.764 376.339 696.551C376.042 696.338 375.813 696.044 375.68 695.703C375.547 695.363 375.515 694.991 375.588 694.634C375.662 694.276 375.838 693.947 376.094 693.686C380.855 688.853 389.759 679.609 389.919 677.96C390.133 675.699 390.515 665.3 390.515 665.3L402.831 666.647Z" fill="#E28F8F"/>
<path d="M408.275 681.967L408.419 702.901L402.516 702.951L403.009 687.724C403.009 687.724 397.797 695.845 396.89 698.96C395.984 702.076 396.148 702.849 396.148 702.849L367.311 703.095C367.311 703.095 366.984 701.285 368.936 699.408C370.889 697.531 378.112 691.667 378.112 691.667C378.112 691.667 394.981 693.559 408.275 681.967Z" fill="#132B42"/>
<path d="M404.81 672.275C404.81 672.275 401.039 680.721 396.277 687.569C394.537 690.075 394.341 691.213 394.341 691.213L406.992 685.307C406.992 685.307 408.073 684.584 408.289 683.571C408.951 680.46 405.771 671.581 404.81 672.275Z" fill="#132B42"/>
<path d="M478.385 545.087C479.37 529.199 477.75 513.228 479.332 497.355C479.336 495.797 479.454 494.24 479.684 492.698C469.638 494.446 460.799 496.31 456.605 497.54C457.701 498.931 458.338 499.76 458.338 499.76C458.338 499.76 376.305 502.876 369.035 512.226C361.765 521.576 383.652 664.152 383.652 664.152L405.406 662.277C405.406 662.277 406.562 639.422 410.717 598.927C414.871 558.432 406.46 544.723 406.46 544.723C406.46 544.723 448.001 545.912 478.385 545.087Z" fill="#132B42"/>
<path d="M379.354 669.006L392.61 668.893L392.469 652.322L379.213 652.435L379.354 669.006Z" fill="#F79A9A"/>
<path d="M391.884 666.647L397.123 681.157C397.306 681.598 397.318 682.091 397.157 682.541C396.995 682.99 396.672 683.363 396.25 683.586C393.677 684.94 388.755 687.558 388.25 688.029C380.154 695.555 381.957 696.343 375.621 697.078C372.031 697.494 369.623 697.065 366.403 696.911C366.038 696.894 365.686 696.771 365.389 696.558C365.092 696.345 364.864 696.05 364.731 695.71C364.597 695.37 364.566 694.998 364.639 694.64C364.713 694.282 364.888 693.953 365.145 693.693C369.906 688.86 378.81 679.615 378.969 677.966C379.184 675.706 379.566 665.307 379.566 665.307L391.884 666.647Z" fill="#F79A9A"/>
<path d="M397.328 681.967L397.472 702.901L391.569 702.951L392.062 687.724C392.062 687.724 386.85 695.845 385.943 698.96C385.036 702.076 385.201 702.849 385.201 702.849L356.363 703.095C356.363 703.095 356.037 701.285 357.989 699.408C359.941 697.531 367.165 691.667 367.165 691.667C367.165 691.667 384.034 693.559 397.328 681.967Z" fill="#133B56"/>
<path d="M393.862 672.275C393.862 672.275 390.093 680.721 385.33 687.569C383.59 690.07 383.393 691.209 383.393 691.209L396.044 685.303C396.044 685.303 397.125 684.581 397.341 683.567C398.005 680.46 394.824 671.581 393.862 672.275Z" fill="#133B56"/>
<path d="M467.877 543.619H462.438V680.958H467.877V543.619Z" fill="#896A7B"/>
<g opacity="0.12">
<path opacity="0.12" d="M462.757 584.151H467.877V546.917H462.438V584.198C462.542 584.168 462.649 584.152 462.757 584.151V584.151Z" fill="#1C5B77"/>
</g>
<path d="M523.154 451.779C522.196 442.865 518.15 441.053 515.309 440.911H515.299C515.19 440.911 515.08 440.911 514.964 440.911C514.85 440.911 514.738 440.911 514.629 440.911C511.78 441.047 507.743 442.865 506.782 451.779C505.428 464.348 508.135 523.126 509.214 548.342H520.736C521.803 523.119 524.508 464.35 523.154 451.779Z" fill="#6399C1"/>
<path d="M411.965 545.29C418.198 542.831 444.464 542.33 462.913 542.293H467.411C485.846 542.33 512.117 542.831 518.358 545.29C522.753 547.023 520.559 551.94 516.389 557.294C508.998 566.787 499.442 571.915 489.593 571.915H440.73C430.881 571.915 421.325 566.787 413.934 557.294C409.76 551.945 407.571 547.023 411.965 545.29Z" fill="#6399C1"/>
<path d="M432.381 702.508C436.633 702.508 440.08 698.565 440.08 693.701C440.08 688.838 436.633 684.895 432.381 684.895C428.129 684.895 424.682 688.838 424.682 693.701C424.682 698.565 428.129 702.508 432.381 702.508Z" fill="#6399C1"/>
<path d="M465.156 702.508C469.408 702.508 472.855 698.565 472.855 693.701C472.855 688.838 469.408 684.895 465.156 684.895C460.904 684.895 457.457 688.838 457.457 693.701C457.457 698.565 460.904 702.508 465.156 702.508Z" fill="#6399C1"/>
<path d="M497.933 702.508C502.185 702.508 505.632 698.565 505.632 693.701C505.632 688.838 502.185 684.895 497.933 684.895C493.68 684.895 490.233 688.838 490.233 693.701C490.233 698.565 493.68 702.508 497.933 702.508Z" fill="#6399C1"/>
<path d="M427.408 679.627H502.904C503.958 679.627 504.97 680.046 505.715 680.791C506.461 681.537 506.879 682.548 506.879 683.602V691.276H423.433V683.602C423.433 682.548 423.851 681.537 424.597 680.791C425.342 680.046 426.354 679.627 427.408 679.627V679.627Z" fill="#AA8F9C"/>
<path d="M131.07 702.441L127.572 702.565C126.707 702.347 126.511 700.174 126.788 698.724L168.674 482.73C169.024 480.886 170.35 479.475 171.437 479.753L174.699 480.578C175.563 480.797 175.996 482.021 175.719 483.471L133.833 699.468C133.483 701.302 132.166 702.721 131.07 702.441Z" fill="#896A7B"/>
<path d="M348.642 702.441L352.109 702.502C352.974 702.284 353.202 700.174 352.924 698.724L311.038 482.73C310.688 480.886 309.362 479.475 308.276 479.753L305.013 480.578C304.148 480.797 303.716 482.021 303.994 483.471L345.88 699.468C346.23 701.302 347.548 702.721 348.642 702.441Z" fill="#896A7B"/>
<path d="M358.031 470.533H125.983C123.645 470.533 121.75 472.428 121.75 474.766V491.111C121.75 493.449 123.645 495.344 125.983 495.344H358.031C360.369 495.344 362.264 493.449 362.264 491.111V474.766C362.264 472.428 360.369 470.533 358.031 470.533Z" fill="#896A7B"/>
<path d="M377.626 469.304H106.387C104.262 469.305 102.224 470.149 100.722 471.651C99.2199 473.154 98.376 475.192 98.376 477.317V477.317C98.3764 479.442 99.2207 481.479 100.723 482.982C102.226 484.484 104.264 485.329 106.388 485.329H377.626C379.751 485.329 381.788 484.484 383.291 482.982C384.793 481.479 385.638 479.442 385.638 477.317V477.317C385.638 475.192 384.794 473.154 383.291 471.651C381.789 470.148 379.751 469.304 377.626 469.304V469.304Z" fill="#AA8F9C"/>
<path d="M415.352 466.534C419.929 467.677 427.053 475.151 434.488 483.874C437.152 487 439.601 492.174 441.481 494.516C442.247 495.472 445.465 496.943 446.03 497.659C447.231 499.182 447.538 499.76 447.538 499.76C447.538 499.76 430.04 500.431 410.49 502.061C412.967 503.033 415.384 504.207 417.553 505.17C419.988 506.253 422.326 507.53 424.7 508.73C426.781 509.415 428.901 509.974 431.049 510.406C438.067 510.979 445.156 510.831 452.177 510.511C459.603 510.176 467.007 509.487 474.386 508.582C479.916 507.775 485.447 506.863 490.957 505.901C491.553 505.211 492.185 504.555 492.853 503.935C495.259 501.344 497.101 498.452 500.267 497.158C495.806 488.237 499.323 484.384 497.022 478.709C495.045 473.831 491.954 470.804 487.723 465.111C477.92 451.925 467.65 437.931 451.691 423.964C410.16 387.617 370.711 395.918 370.711 395.918C358.251 396.955 354.098 423.952 354.098 423.952C354.098 423.952 375.005 446.889 380.267 455.181C390.758 471.736 407.046 464.462 415.352 466.534Z" fill="#90D5F4"/>
<path d="M498.247 488.637C480.205 490.26 454.054 495.125 445.813 497.54C446.909 498.931 447.546 499.76 447.546 499.76C447.546 499.76 365.516 502.876 358.242 512.226C350.969 521.576 372.859 664.152 372.859 664.152L394.613 662.277C394.613 662.277 395.769 639.422 399.922 598.927C404.075 558.432 395.665 544.723 395.665 544.723C395.665 544.723 490.929 547.479 498.447 541.759C507.772 534.656 505.137 501.207 498.247 488.637Z" fill="#133B56"/>
<path d="M295.109 385.695C295.498 383.21 296.618 380.898 298.327 379.053C300.035 377.208 302.255 375.914 304.702 375.336C313.839 373.174 324.446 369.442 330.833 375.671C334.342 379.098 341.17 388.899 342.013 393.062C344.024 402.998 332.214 411.693 322.866 407.77L302.711 399.31C300.104 398.216 297.939 396.28 296.561 393.811C295.183 391.342 294.672 388.483 295.109 385.69V385.695Z" fill="#5B1F3A"/>
<path d="M302.167 376.405C302.167 376.405 270.128 396.98 291.756 430.034C298.215 439.909 321.512 430.441 324.516 423.48C327.521 416.518 304.28 381.889 304.28 381.889C304.28 381.889 302.554 375.049 302.167 376.405Z" fill="#5B1F3A"/>
<path d="M366.878 397.133C366.878 397.133 371.738 398.35 372.943 410.428C373.634 417.37 372.608 423.82 371.514 424.445C370.311 425.131 369.191 425.841 365.816 425.1C364.7 424.857 361.655 423.495 361.655 423.495L355.013 419.883L327 404.881C327 404.881 326.442 401.423 326.212 398.045C325.988 394.721 325.971 390.671 327.245 390.88L366.878 397.133Z" fill="#F6A29B"/>
<g opacity="0.89">
<path opacity="0.89" d="M336.421 394.798C346.333 397.683 354.83 408.304 352.845 418.764L324.833 403.761C324.833 403.761 324.275 400.304 324.045 396.925C328.52 394.389 331.221 393.285 336.421 394.798Z" fill="#D87C7C"/>
</g>
<path d="M340.588 395.966C346.811 404.879 349.599 412.144 346.583 422.513C344.989 427.986 338.874 429.597 324.461 427.779C322.532 427.536 320.549 426.927 318.459 426.342C315.845 425.613 313.112 424.68 310.247 423.629C286.84 415.023 297.306 401.391 297.306 401.391C299.976 389.682 301.27 383.794 315.765 385.313C330.259 386.831 340.588 395.966 340.588 395.966Z" fill="#F6A29B"/>
<path d="M323.04 390.9C323.04 390.9 317.174 380.57 322.738 379.589C328.302 378.609 334.364 384.522 335.771 393.992C337.179 403.463 323.807 392.471 323.04 390.9Z" fill="#F6A29B"/>
<path d="M315.791 425.322C315.791 425.322 324.204 433.624 326.232 432.913C327.296 432.541 329.949 428.439 328.746 427.718C327.543 426.997 316.914 425.694 315.791 425.322Z" fill="#EE7D7D"/>
<path d="M332.173 388.866C332.152 388.938 332.114 389.003 332.062 389.057C332.009 389.111 331.945 389.151 331.873 389.174L328.857 390.158C328.595 390.267 328.302 390.28 328.032 390.193C327.618 390.025 327.466 389.61 327.394 389.407L325.82 385.03C325.779 384.915 325.785 384.789 325.837 384.678C325.889 384.568 325.983 384.483 326.097 384.442C326.212 384.401 326.338 384.407 326.448 384.459C326.559 384.511 326.644 384.605 326.685 384.719L328.258 389.095C328.282 389.181 328.32 389.261 328.369 389.335C328.438 389.325 328.506 389.307 328.572 389.283L331.588 388.301C331.668 388.275 331.753 388.272 331.834 388.29C331.915 388.309 331.99 388.35 332.05 388.408C332.11 388.466 332.153 388.539 332.175 388.62C332.197 388.7 332.196 388.785 332.173 388.866V388.866Z" fill="#D27371"/>
<path d="M325.493 409.012C326.69 408.576 328.312 410.017 329.118 412.216C329.924 414.415 329.609 416.573 328.414 417.002C327.219 417.431 325.595 415.997 324.789 413.798C323.983 411.599 324.298 409.449 325.493 409.012Z" fill="#EE7D7D"/>
<path d="M297.127 394.25L296.306 394.348L313.745 374.597C313.745 374.597 317.645 372.266 323.239 375.18C325.009 376.102 342.753 383.761 336.479 395.165C323.864 418.04 292.278 417.406 292.278 417.406L297.127 394.25Z" fill="#5B1F3A"/>
<path d="M296.404 424.506L304.63 424.243L304.039 405.764L295.813 406.027L296.404 424.506Z" fill="#F6A29B"/>
<path d="M299.327 415.285C299.813 414.835 307.284 409.184 308.432 398.693C309.102 392.521 312.672 379.69 311.316 379.13C309.007 378.173 307.418 384.931 306.689 387.037C305.974 389.109 306.019 387.572 306.471 386.189C309.178 377.84 308.067 377.58 307.396 377.848C306.726 378.116 305.095 379.45 305.095 379.45C305.095 379.45 303.988 377.124 303.448 377.858C301.72 380.204 301.717 383.602 300.599 382.048C299.194 380.106 296.119 390.315 295.112 396.752C294.105 403.19 295.92 418.432 299.327 415.285Z" fill="#F6A29B"/>
<path d="M298.312 415.256C298.312 415.256 304.745 415.869 312.104 404.091C313.326 402.134 315.361 396.436 315.711 395.423C316.443 393.308 314.561 393.27 313.561 394.827C313.225 395.341 310.128 399.751 309.736 400.357C308.62 402.083 303.497 406.915 302.54 406.996C301.583 407.076 298.312 415.256 298.312 415.256Z" fill="#F6A29B"/>
<path d="M391.142 400.83C388.432 398.609 385.042 397.386 381.539 397.365C378.035 397.343 374.631 398.526 371.894 400.714C370.218 402.055 368.938 403.811 367.571 405.459C366.388 406.883 365.201 408.303 364.008 409.717C361.661 412.51 359.292 415.283 356.9 418.035C354.155 421.187 323.549 446.639 321.481 447.765C321.227 447.904 320.979 448.044 320.709 448.169C311.89 440.643 309.789 411.931 309.685 411.945C306.651 412.365 295.248 413.02 293.611 413.272C293.443 414.564 295.744 443.514 301.399 458.66C302.306 461.089 304.03 464.503 305.662 466.577C306.8 468.018 308.397 469.024 310.187 469.426C311.426 469.703 312.673 469.594 313.921 469.477C318.602 469.034 323.223 467.824 327.672 466.336C332.09 464.842 336.399 463.041 340.567 460.948C344.659 458.9 348.64 456.635 352.491 454.162C356.422 451.648 360.245 448.957 363.996 446.182C367.703 443.44 371.345 440.608 374.956 437.74C377.886 435.416 380.795 433.064 383.683 430.685C385.033 429.57 386.388 428.461 387.732 427.333C389.213 426.098 390.77 424.908 392.148 423.559C393.684 422.057 394.886 420.248 395.676 418.25C396.465 416.252 396.824 414.11 396.729 411.964C396.634 409.817 396.088 407.715 395.125 405.795C394.162 403.874 392.805 402.178 391.142 400.818V400.83Z" fill="#A6E8FF"/>
<path d="M319.41 443.406C319.41 443.42 319.4 443.38 319.393 443.366C319.386 443.353 319.376 443.331 319.366 443.302C319.354 443.245 319.339 443.194 319.324 443.135L319.349 443.194L319.386 443.296C319.398 443.328 319.407 443.361 319.413 443.395C319.413 443.395 319.413 443.403 319.41 443.406Z" fill="#6399C1"/>
<path d="M334.64 424.415L334.143 428.439" stroke="#F86472" stroke-width="5.49" stroke-linecap="round" stroke-linejoin="round"/>
<path d="M317.752 422.639C317.752 422.639 318.868 421.187 318.731 419.632C318.592 418.047 318.293 417.678 318.293 417.678" stroke="#132B42" stroke-width="4.61" stroke-linecap="round" stroke-linejoin="round"/>
<path d="M318.667 420.609L319.991 417.991" stroke="#132B42" stroke-width="4.61" stroke-linecap="round" stroke-linejoin="round"/>
<path d="M312.193 423.285C312.193 423.285 316.452 421.561 316.147 414.415" stroke="#132B42" stroke-width="6.12" stroke-linecap="round" stroke-linejoin="round"/>
<path d="M203.6 459.331H291.216C291.7 459.331 292.164 459.523 292.507 459.865C292.849 460.208 293.041 460.672 293.041 461.156V463.348C293.041 464.918 292.417 466.424 291.307 467.535C290.196 468.645 288.69 469.269 287.12 469.269H203.6V459.331Z" fill="#133B56"/>
<path d="M203.622 469.224L173.382 391.462C173.096 390.726 172.958 389.941 172.975 389.152C172.992 388.363 173.165 387.585 173.483 386.863C173.801 386.14 174.258 385.488 174.828 384.942C175.398 384.396 176.07 383.968 176.806 383.682L179.278 382.722C179.434 382.661 179.601 382.631 179.768 382.635C179.935 382.638 180.101 382.675 180.254 382.742C180.407 382.81 180.546 382.907 180.662 383.028C180.777 383.149 180.868 383.291 180.929 383.447L212.883 465.619L203.622 469.224Z" fill="#133B56"/>
</svg>
