<svg width="806" height="981" viewBox="0 0 806 981" fill="none" xmlns="http://www.w3.org/2000/svg">
<path d="M178.256 491.381C170.591 497.033 135.476 496.25 127.567 491.381C126.871 488.32 127.219 481.511 128.315 472.554L137.738 477.615L129.22 465.685C130.455 456.989 132.196 446.98 134.231 436.719L140.061 439.963L135.075 432.484C135.476 430.563 135.867 428.632 136.276 426.71L142.932 429.971L137.224 422.345C138.912 414.588 140.705 406.98 142.532 400.006L147.83 401.545C147.83 401.545 145.838 398.562 143.732 395.458C145.594 388.588 147.447 382.492 149.196 377.658C149.47 376.893 149.974 376.232 150.638 375.764C151.302 375.297 152.095 375.046 152.907 375.046C153.719 375.046 154.512 375.297 155.176 375.764C155.841 376.232 156.344 376.893 156.618 377.658C158.967 384.153 161.525 392.988 164.031 402.875L159.332 410.754L164.788 405.936C165.919 410.51 167.041 415.275 168.102 420.11L160.576 433.597L169.651 427.232C171.148 434.328 172.548 441.45 173.775 448.276L166.415 455.58L174.584 452.971C174.732 453.841 174.863 454.624 175.002 455.432L167.467 465.589L175.889 460.972C178.16 475.502 179.222 487.12 178.256 491.381Z" fill="#E0E0E0"/>
<path d="M154.765 458.815L165.458 438.693L154.582 452.024L152.911 389.588L151.598 427.511L143.985 416.554L151.38 434.406L150.058 472.885L135.537 459.52L149.849 478.485L148.631 544.251C148.631 546.495 156.244 546.495 156.244 544.251L154.765 458.815Z" fill="#F0F0F0"/>
<path d="M324.694 445.701C318.603 450.188 290.692 449.562 284.402 445.701C283.967 443.806 284.045 440.093 284.506 435.171L291.753 437.78L285.019 430.536C285.785 424.214 287.003 416.562 288.5 408.484L292.589 410.223L289.03 405.701C289.178 404.91 289.343 404.11 289.491 403.318L299.236 408.266L290.805 396.805C292.119 390.501 293.528 384.196 294.981 378.292L301.307 383.57L295.834 374.874C296.226 373.292 296.634 371.744 297.035 370.248L302.638 373.292L298.053 366.57C299.262 362.222 300.463 358.431 301.602 355.266C301.822 354.661 302.222 354.138 302.749 353.768C303.276 353.399 303.904 353.201 304.548 353.201C305.191 353.201 305.819 353.399 306.346 353.768C306.873 354.138 307.274 354.661 307.493 355.266C309.233 359.979 311.042 366.231 312.87 373.266C311.277 376.961 310.016 379.848 310.016 379.848L314.053 377.979C314.497 379.77 314.923 381.605 315.367 383.466C313.452 389.327 311.069 396.675 311.069 396.831C311.19 396.596 314.018 391.553 316.289 387.492C321.788 411.927 326.164 439.275 324.694 445.701Z" fill="#E0E0E0"/>
<path d="M306.031 419.788L314.523 403.796L305.883 414.388L304.552 364.761L303.508 394.962L297.461 386.266L303.325 400.457L302.272 430.988L290.744 420.362L302.116 435.432L301.15 544.329C301.15 546.068 307.24 546.068 307.24 544.329L306.066 419.779L306.031 419.788Z" fill="#F0F0F0"/>
<path d="M495.049 461.197C488.359 466.136 457.707 465.449 450.799 461.197C450.424 459.536 450.398 456.606 450.668 452.736L461.109 457.536L451.112 447.632C451.703 442.075 452.687 435.327 453.931 428.014L457.75 430.066L454.27 426.049C454.983 421.919 455.784 417.64 456.645 413.301L462.875 418.301L457.315 409.988C457.489 409.118 457.681 408.171 457.863 407.284L466.381 414.301L459.168 401.17C460.5 395.083 461.9 389.127 463.31 383.553L468.861 387.77C468.73 387.535 466.512 383.762 464.284 379.831C466.12 372.874 467.956 366.709 469.679 361.953C469.934 361.301 470.379 360.742 470.958 360.347C471.536 359.953 472.22 359.742 472.92 359.742C473.62 359.742 474.303 359.953 474.881 360.347C475.46 360.742 475.905 361.301 476.16 361.953C477.787 366.483 479.536 372.274 481.285 378.822L477.892 386.266L481.938 381.318C483.034 385.509 484.113 389.962 485.165 394.527L477.892 410.536L486.488 400.379C486.618 401.005 486.766 401.64 486.897 402.266L483.417 410.536L487.48 404.91C488.959 411.866 490.325 418.91 491.491 425.545L481.407 437.719L492.317 430.44C492.57 431.971 492.804 433.475 493.039 434.945L487.924 440.597L493.64 438.962C495.18 449.588 495.824 457.945 495.049 461.197Z" fill="#E0E0E0"/>
<path opacity="0.15" d="M495.049 461.197C488.359 466.136 457.707 465.449 450.799 461.197C450.424 459.536 450.398 456.606 450.668 452.736L461.109 457.536L451.112 447.632C451.703 442.075 452.687 435.327 453.931 428.014L457.75 430.066L454.27 426.049C454.983 421.919 455.784 417.64 456.645 413.301L462.875 418.301L457.315 409.988C457.489 409.118 457.681 408.171 457.863 407.284L466.381 414.301L459.168 401.17C460.5 395.083 461.9 389.127 463.31 383.553L468.861 387.77C468.73 387.535 466.512 383.762 464.284 379.831C466.12 372.874 467.956 366.709 469.679 361.953C469.934 361.301 470.379 360.742 470.958 360.347C471.536 359.953 472.22 359.742 472.92 359.742C473.62 359.742 474.303 359.953 474.881 360.347C475.46 360.742 475.905 361.301 476.16 361.953C477.787 366.483 479.536 372.274 481.285 378.822L477.892 386.266L481.938 381.318C483.034 385.509 484.113 389.962 485.165 394.527L477.892 410.536L486.488 400.379C486.618 401.005 486.766 401.64 486.897 402.266L483.417 410.536L487.48 404.91C488.959 411.866 490.325 418.91 491.491 425.545L481.407 437.719L492.317 430.44C492.57 431.971 492.804 433.475 493.039 434.945L487.924 440.597L493.64 438.962C495.18 449.588 495.824 457.945 495.049 461.197Z" fill="black"/>
<path d="M474.568 432.727L483.904 415.171L474.412 426.797L472.95 372.318L471.81 405.466L464.232 396.918L471.601 411.457L470.453 445.032L457.785 433.362L470.279 449.884L469.218 544.189C469.218 546.155 475.865 546.155 475.865 544.189L474.568 432.727Z" fill="#E0E0E0"/>
<path d="M533.14 479.928C525.579 484.589 491.978 485.328 484.644 479.928C483.974 476.998 484.322 470.415 485.374 461.789L494.884 465.841L486.114 456.111C486.984 450.189 488.037 443.589 489.29 436.693L495.119 439.241L489.681 434.641C489.977 433.035 490.281 431.423 490.595 429.806L500.322 435.406L491.569 424.823C492.657 419.458 493.814 414.058 495.049 408.788L500.069 411.484L495.919 404.423C497.164 399.293 499.547 390.084 500.8 385.571L505.916 389.623L501.566 382.779C502.836 378.431 504.098 374.44 505.29 371.127C505.554 370.398 506.037 369.768 506.672 369.323C507.307 368.878 508.064 368.64 508.84 368.64C509.615 368.64 510.372 368.878 511.007 369.323C511.642 369.768 512.125 370.398 512.389 371.127C514.216 376.179 516.174 382.701 518.123 390.04L514.19 399.058L519.463 395.066C520.838 400.484 522.195 406.223 523.5 412.084L516.853 428.849L524.822 418.188C525.292 420.426 525.759 422.667 526.223 424.91L521.473 434.215L526.902 428.389C528.207 435.023 529.381 441.537 530.382 447.606L519.524 464.641L531.269 453.415C531.557 455.25 531.8 457.024 532.035 458.728L523.848 468.78L532.679 464.059C533.532 471.58 533.758 477.259 533.14 479.928Z" fill="#E0E0E0"/>
<path d="M521.49 438.389L511.311 452.797L510.241 421.71L515.739 403.162L510.041 415.849L508.892 382.544L507.604 430.606L501.888 423.78L507.439 436.91L506.7 464.189L494.884 452.441L506.491 472.172L505.708 544.285C505.708 546.433 512.981 546.433 512.981 544.285L511.633 462.111L521.49 438.389Z" fill="#F0F0F0"/>
<path d="M369.71 483.206C362.524 487.632 330.558 488.337 323.598 483.206C322.962 480.415 323.293 474.162 324.294 465.962L333.325 469.815L325.007 460.554C325.808 454.936 326.834 448.658 328.035 442.11L333.568 444.527L328.4 440.179C328.685 438.661 328.975 437.127 329.27 435.579L338.51 440.91L330.21 430.849C331.237 425.753 332.333 420.623 333.481 415.614L338.249 418.17L334.351 411.466C335.543 406.588 337.832 397.831 338.997 393.544L343.852 397.396L339.754 390.901C340.955 386.718 342.156 382.97 343.287 379.822C343.537 379.129 343.995 378.53 344.599 378.107C345.202 377.684 345.921 377.457 346.658 377.457C347.395 377.457 348.115 377.684 348.718 378.107C349.321 378.53 349.779 379.129 350.03 379.822C351.77 384.622 353.632 390.822 355.485 397.796L351.718 406.353L356.712 402.553C358.017 407.701 359.322 413.153 360.549 418.727L354.223 434.658L361.801 424.527C362.245 426.649 362.671 428.788 363.124 430.91L358.617 439.753L363.776 434.223C365.012 440.527 366.134 446.71 367.074 452.484L356.755 468.667L367.918 458.006C368.188 459.745 368.422 461.441 368.64 463.058L360.862 472.623L369.258 468.136C370.076 475.267 370.293 480.667 369.71 483.206Z" fill="#E0E0E0"/>
<path d="M358.635 443.728L348.96 457.415L347.942 427.849L353.162 410.188L347.75 422.293L346.663 390.64L345.401 436.293L339.972 429.806L345.279 442.293L344.583 468.206L333.342 457.076L344.375 475.832L343.661 544.338C343.661 546.372 350.621 546.372 350.621 544.338L349.334 466.232L358.635 443.728Z" fill="#F0F0F0"/>
<path d="M216.138 456.406C208.89 460.858 176.777 461.563 169.764 456.406C169.44 454.476 169.344 452.515 169.477 450.563L176.96 453.902L169.999 443.223C170.434 438.806 171.13 433.658 172.018 427.945L179.3 431.754L172.905 422.484C173.053 421.614 173.218 420.675 173.384 419.754L185.199 426.641L174.872 411.388C176.464 402.997 178.3 394.266 180.222 385.962L187.07 391.11L181.606 380.084C181.867 379.023 182.136 377.988 182.38 376.953L189.166 382.292L183.998 370.796C185.886 363.64 187.783 357.283 189.558 352.379C189.81 351.68 190.271 351.075 190.879 350.648C191.487 350.221 192.212 349.992 192.956 349.992C193.699 349.992 194.424 350.221 195.032 350.648C195.64 351.075 196.101 351.68 196.353 352.379C198.093 357.083 199.833 363.118 201.686 369.918L199.651 382.292L203.548 377.127C205.288 384.031 206.959 391.449 208.508 398.866L203.4 414.84L209.978 406.145C211.483 413.667 212.806 421.058 213.85 427.78L210.892 435.023L214.607 432.78C214.868 434.562 215.103 436.302 215.303 437.945L208.847 448.684L215.877 443.006C216.538 449.319 216.677 454.076 216.138 456.406Z" fill="#E0E0E0"/>
<path opacity="0.15" d="M216.138 456.406C208.89 460.858 176.777 461.563 169.764 456.406C169.44 454.476 169.344 452.515 169.477 450.563L176.96 453.902L169.999 443.223C170.434 438.806 171.13 433.658 172.018 427.945L179.3 431.754L172.905 422.484C173.053 421.614 173.218 420.675 173.384 419.754L185.199 426.641L174.872 411.388C176.464 402.997 178.3 394.266 180.222 385.962L187.07 391.11L181.606 380.084C181.867 379.023 182.136 377.988 182.38 376.953L189.166 382.292L183.998 370.796C185.886 363.64 187.783 357.283 189.558 352.379C189.81 351.68 190.271 351.075 190.879 350.648C191.487 350.221 192.212 349.992 192.956 349.992C193.699 349.992 194.424 350.221 195.032 350.648C195.64 351.075 196.101 351.68 196.353 352.379C198.093 357.083 199.833 363.118 201.686 369.918L199.651 382.292L203.548 377.127C205.288 384.031 206.959 391.449 208.508 398.866L203.4 414.84L209.978 406.145C211.483 413.667 212.806 421.058 213.85 427.78L210.892 435.023L214.607 432.78C214.868 434.562 215.103 436.302 215.303 437.945L208.847 448.684L215.877 443.006C216.538 449.319 216.677 454.076 216.138 456.406Z" fill="black"/>
<path d="M191.254 426.588L181.475 408.188L191.402 420.38L192.934 363.283L194.126 398.066L201.086 388.014L194.361 404.301L195.57 439.493L208.847 427.267L195.753 444.606L196.858 544.251C196.858 546.303 189.897 546.303 189.897 544.251L191.254 426.588Z" fill="#E0E0E0"/>
<path d="M532.165 548.381C531.906 547.414 531.428 546.519 530.769 545.766C530.11 545.012 529.287 544.419 528.363 544.033C529.078 543.712 529.676 543.178 530.075 542.503C530.474 541.829 530.654 541.048 530.591 540.267C530.419 538.72 529.895 537.233 529.059 535.92C530.024 535.535 530.843 534.858 531.403 533.984C531.962 533.11 532.234 532.082 532.179 531.046C532.124 530.01 531.746 529.017 531.098 528.206C530.449 527.396 529.563 526.809 528.563 526.528C530.303 524.363 531.113 521.102 529.433 518.884C528.076 517.058 525.562 516.571 523.3 516.58C521.037 516.589 518.68 517.102 517.505 518.928C517.425 518.268 517.199 517.635 516.845 517.073C516.49 516.51 516.016 516.033 515.455 515.676C514.895 515.319 514.262 515.09 513.603 515.005C512.943 514.921 512.273 514.984 511.641 515.189C512.141 514.551 512.497 513.812 512.685 513.024C512.911 512.103 512.951 511.146 512.802 510.21C512.652 509.273 512.317 508.376 511.815 507.571C511.408 506.805 510.759 506.194 509.97 505.832C509.659 505.764 509.339 505.744 509.022 505.771C508.015 505.716 507.006 505.739 506.003 505.841C506.5 504.389 506.537 502.82 506.108 501.347C505.68 499.874 504.807 498.569 503.609 497.61C502.41 496.651 500.945 496.085 499.413 495.99C497.882 495.894 496.357 496.273 495.049 497.076C495.115 495.487 494.582 493.932 493.556 492.717C492.53 491.502 491.085 490.717 489.507 490.516C487.929 490.314 486.333 490.712 485.034 491.631C483.736 492.549 482.829 493.921 482.494 495.476C482.155 494.487 481.494 493.64 480.616 493.071C479.739 492.502 478.695 492.244 477.653 492.339C476.612 492.433 475.632 492.874 474.87 493.591C474.109 494.308 473.61 495.259 473.454 496.293C473.559 495.422 473.488 494.538 473.245 493.695C473.002 492.852 472.592 492.066 472.04 491.384C471.487 490.702 470.803 490.138 470.028 489.725C469.254 489.312 468.404 489.058 467.529 488.98C468.48 488.716 469.307 488.127 469.866 487.314C470.425 486.501 470.679 485.518 470.583 484.536C470.449 483.556 470.084 482.622 469.519 481.81C468.953 480.998 468.203 480.332 467.329 479.867C467.982 479.318 468.44 478.574 468.635 477.745C468.83 476.916 468.752 476.046 468.413 475.264C468.074 474.483 467.492 473.831 466.752 473.407C466.013 472.983 465.157 472.809 464.31 472.91C464.111 471.566 463.425 470.341 462.383 469.467C461.341 468.594 460.014 468.133 458.655 468.171C457.3 468.286 456.009 468.796 454.94 469.636C453.872 470.477 453.073 471.612 452.643 472.901C451.431 472.265 450.058 472 448.696 472.139C447.334 472.278 446.044 472.816 444.986 473.685C443.928 474.554 443.151 475.715 442.75 477.023C442.349 478.332 442.343 479.729 442.733 481.041C441.375 479.627 439.623 478.655 437.704 478.249C435.773 477.962 433.58 478.806 432.788 480.588C432.241 478.529 430.94 476.751 429.143 475.606C427.29 474.606 424.61 474.962 423.557 476.78C423.39 475.726 423.023 474.714 422.478 473.797C422.204 473.341 421.889 472.91 421.539 472.51C421.391 472.354 421.252 472.162 421.104 472.014C420.956 471.867 421.008 471.901 420.947 471.858C420.886 471.814 419.999 471.301 419.825 471.38C421.843 470.51 421.974 467.388 420.469 465.788C418.963 464.188 416.527 463.84 414.335 464.049C414.378 463.383 414.285 462.715 414.062 462.087C413.838 461.458 413.487 460.882 413.033 460.393C412.578 459.905 412.028 459.514 411.416 459.246C410.805 458.978 410.145 458.837 409.477 458.833C408.81 458.829 408.148 458.961 407.534 459.222C406.919 459.482 406.364 459.866 405.903 460.349C405.442 460.832 405.085 461.403 404.853 462.029C404.621 462.655 404.52 463.322 404.555 463.988C403.537 461.875 400.266 461.866 398.509 463.414C396.751 464.962 396.133 467.406 395.664 469.701C394.569 468.591 393.121 467.898 391.57 467.739C390.018 467.58 388.46 467.967 387.163 468.832C387.355 467.983 387.37 467.103 387.207 466.248C387.045 465.393 386.709 464.581 386.219 463.861C385.73 463.141 385.098 462.529 384.362 462.064C383.627 461.598 382.803 461.288 381.943 461.153C383.474 458.301 380.368 454.684 377.131 454.623C373.895 454.562 371.041 456.806 368.91 459.223C364.29 456.832 357.825 461.223 358.347 466.397C355.076 462.458 348.011 462.771 345.096 466.971C344.589 465.317 343.463 463.923 341.952 463.079C340.441 462.235 338.663 462.006 336.987 462.44C338.362 458.214 332.924 453.658 329 455.753C328.99 455.037 328.826 454.33 328.519 453.682C328.212 453.034 327.77 452.46 327.223 451.997C326.675 451.534 326.035 451.193 325.344 450.999C324.654 450.804 323.93 450.759 323.221 450.868C322.512 450.976 321.835 451.235 321.234 451.628C320.634 452.02 320.125 452.536 319.741 453.141C319.357 453.747 319.107 454.428 319.008 455.138C318.91 455.848 318.964 456.571 319.169 457.258C314.645 456.797 310.825 462.475 312.992 466.501C311.744 465.732 310.249 465.47 308.814 465.771C307.379 466.072 306.115 466.913 305.283 468.119C306.075 466.11 303.543 463.771 301.594 464.64C301.857 463.616 301.728 462.531 301.231 461.597C300.735 460.664 299.907 459.95 298.91 459.596C297.913 459.241 296.82 459.273 295.845 459.683C294.87 460.094 294.084 460.854 293.642 461.814C293.694 459.284 290.414 457.727 288.065 458.658C285.716 459.588 284.358 462.093 283.714 464.545C282.183 461.014 276.319 460.675 274.388 464.006C274.522 461.993 273.866 460.007 272.559 458.469C271.252 456.932 269.397 455.963 267.388 455.77C265.379 455.576 263.373 456.173 261.797 457.433C260.22 458.693 259.197 460.517 258.944 462.519C258.131 461.124 256.838 460.073 255.305 459.563C253.773 459.053 252.107 459.118 250.62 459.747C249.133 460.377 247.926 461.526 247.226 462.981C246.525 464.435 246.38 466.095 246.816 467.649C242.187 466.884 238.602 473.736 241.883 477.11C240.055 474.806 235.792 475.371 234.609 478.084C235.662 475.423 232.921 472.119 230.111 472.658C230.333 472.019 230.422 471.341 230.372 470.666C230.322 469.992 230.134 469.334 229.819 468.735C229.504 468.136 229.069 467.608 228.541 467.184C228.014 466.76 227.405 466.449 226.752 466.27C226.099 466.091 225.416 466.048 224.746 466.143C224.076 466.239 223.433 466.471 222.856 466.825C222.279 467.18 221.781 467.649 221.394 468.203C221.006 468.758 220.736 469.386 220.601 470.049C218.861 466.988 213.902 467.562 211.666 470.258C209.43 472.954 209.151 476.727 208.986 480.232C207.194 478.884 204.392 480.501 203.853 482.675C203.313 484.849 204.349 487.102 205.593 488.962C203.946 488.57 202.213 488.79 200.717 489.582C199.221 490.374 198.066 491.684 197.467 493.267C197.646 492.302 197.481 491.304 197.001 490.448C196.521 489.592 195.756 488.93 194.839 488.579C193.922 488.228 192.911 488.209 191.981 488.525C191.051 488.841 190.261 489.473 189.749 490.31C189.61 487.136 184.616 486.241 182.467 488.571C180.318 490.902 180.562 494.615 181.658 497.606C179.918 494.936 175.263 496.241 174.08 499.18C172.896 502.119 174.184 505.493 175.959 508.128C172.427 507.258 168.624 510.997 169.495 514.537C166.519 511.667 160.498 515.18 161.542 519.18C160.672 516.293 156.322 515.867 153.99 517.85C151.659 519.832 151.102 523.128 151.032 526.154C150.005 523.972 146.456 524.337 145.003 526.259C143.55 528.18 143.593 530.824 143.724 533.215C140.67 531.841 136.937 535.867 138.503 538.806C136.558 539.601 134.925 541.009 133.855 542.817C132.785 544.625 132.336 546.733 132.576 548.82C132.817 550.907 133.734 552.858 135.187 554.375C136.641 555.892 138.551 556.893 140.626 557.224H530.356C531.957 556.076 532.635 550.311 532.165 548.381Z" fill="#F0F0F0"/>
<path d="M332.507 703C446.797 703 539.448 651.874 539.448 588.807C539.448 525.74 446.797 474.614 332.507 474.614C218.217 474.614 125.566 525.74 125.566 588.807C125.566 651.874 218.217 703 332.507 703Z" fill="#BA68C8"/>
<path opacity="0.55" d="M332.507 703C446.797 703 539.448 651.874 539.448 588.807C539.448 525.74 446.797 474.614 332.507 474.614C218.217 474.614 125.566 525.74 125.566 588.807C125.566 651.874 218.217 703 332.507 703Z" fill="white"/>
<path d="M168.024 576.45C168.024 576.45 167.363 574.572 165.806 574.772C165.806 574.772 164.518 574.902 164.353 577.007C163.704 576.944 163.051 577.037 162.445 577.277C161.84 577.518 161.301 577.899 160.873 578.389C160.943 578.95 161.218 579.465 161.645 579.836C162.072 580.206 162.621 580.407 163.187 580.398C163.187 580.398 162.317 581.607 163.396 583.581C163.396 583.581 166.754 583.763 166.989 581.641C166.989 581.641 167.729 583.276 170.739 582.459C170.97 581.864 171.003 581.21 170.834 580.595C170.665 579.979 170.302 579.435 169.799 579.041C169.799 579.041 171.905 578.389 171.818 576.728C171.853 576.728 169.756 574.72 168.024 576.45Z" fill="#FAFAFA"/>
<path d="M166.258 577.259C165.756 577.323 165.293 577.561 164.948 577.931C164.603 578.301 164.399 578.78 164.37 579.285C164.37 579.285 164.675 580.398 166.641 580.041C168.607 579.685 168.59 578.476 168.59 578.476C168.422 578.02 168.09 577.643 167.659 577.418C167.228 577.193 166.729 577.136 166.258 577.259V577.259Z" fill="#F0997A"/>
<path d="M188.505 563.467C188.505 563.467 187.809 562.059 186.661 561.894C186.038 562.399 185.633 563.124 185.53 563.92C185.093 563.823 184.639 563.828 184.204 563.935C183.77 564.042 183.366 564.248 183.024 564.537C183.123 564.949 183.32 565.331 183.597 565.652C183.874 565.972 184.223 566.222 184.616 566.381C184.311 567.229 184.338 568.161 184.694 568.989C184.694 568.989 186.904 569.155 187.679 567.32C187.679 567.32 188.497 568.537 190.741 568.111C190.92 567.637 190.936 567.117 190.788 566.633C190.64 566.148 190.336 565.726 189.923 565.433C190.3 565.22 190.612 564.91 190.828 564.535C191.044 564.16 191.155 563.735 191.15 563.302C190.281 563.007 189.331 563.066 188.505 563.467V563.467Z" fill="#FAFAFA"/>
<path d="M187.253 564.302C186.877 564.307 186.515 564.442 186.229 564.685C185.943 564.928 185.751 565.263 185.687 565.633C185.687 565.633 185.817 566.502 187.296 566.38C188.775 566.259 188.862 565.398 188.862 565.398C188.779 565.047 188.568 564.741 188.27 564.538C187.972 564.335 187.609 564.251 187.253 564.302V564.302Z" fill="#F0997A"/>
<path d="M154.217 552.78C154.217 552.78 153.782 551.519 152.955 551.954C152.129 552.389 152.407 553.18 153.129 553.354C153.129 553.354 151.581 553.858 152.016 554.693C152.451 555.528 153.756 554.693 154.069 554.224C154.069 554.224 154.356 555.493 155.444 555.041C156.531 554.589 155.444 553.502 155.444 553.502C155.444 553.502 157.097 552.85 156.2 552.093C155.304 551.337 154.217 552.78 154.217 552.78Z" fill="#FAFAFA"/>
<path d="M184.442 544.719C184.442 544.719 184.564 543.389 183.633 543.441C182.702 543.493 182.632 544.311 183.215 544.797C183.215 544.797 181.597 544.615 181.649 545.545C181.701 546.476 183.267 546.25 183.711 545.971C183.711 545.971 183.45 547.25 184.581 547.276C185.712 547.302 185.216 545.876 185.216 545.876C185.216 545.876 186.956 545.971 186.487 544.911C186.017 543.85 184.442 544.719 184.442 544.719Z" fill="#FAFAFA"/>
<path d="M142.619 575.163C142.619 575.163 144.089 574.172 144.359 574.998C144.629 575.824 143.419 576.111 143.419 576.111C143.419 576.111 144.342 576.98 143.628 577.32C142.915 577.659 142.254 576.641 142.254 576.641C142.254 576.641 141.592 577.728 141.027 577.05C140.461 576.372 141.444 575.659 141.444 575.659C141.444 575.659 140.4 575.154 140.74 574.493C141.079 573.833 142.323 574.328 142.619 575.163Z" fill="#FAFAFA"/>
<path d="M157.949 599.276C157.949 599.276 157.827 598.024 158.706 598.076C159.585 598.128 159.646 598.946 159.098 599.346C159.098 599.346 160.62 599.181 160.577 600.059C160.533 600.937 159.046 600.711 158.628 600.459C158.628 600.459 158.88 601.659 157.758 601.685C156.636 601.711 157.158 600.363 157.158 600.363C157.158 600.363 155.478 600.459 155.957 599.494C156.435 598.528 157.949 599.276 157.949 599.276Z" fill="#FAFAFA"/>
<path d="M333.368 682.634C333.368 682.634 333.499 680.765 334.969 680.565C334.969 680.565 336.17 680.365 336.84 682.234C337.41 682.022 338.023 681.948 338.628 682.017C339.233 682.087 339.812 682.298 340.32 682.634C340.397 683.161 340.276 683.698 339.98 684.141C339.685 684.584 339.235 684.903 338.719 685.034C338.719 685.034 339.85 685.904 339.319 687.974C339.319 687.974 336.318 688.974 335.578 687.104C335.578 687.104 335.309 688.774 332.376 688.774C332.018 688.291 331.824 687.705 331.824 687.104C331.824 686.503 332.018 685.917 332.376 685.434C332.376 685.434 330.306 685.374 329.975 683.834C329.966 683.834 331.367 681.504 333.368 682.634Z" fill="#FAFAFA"/>
<path d="M335.178 682.93C335.649 682.868 336.128 682.971 336.532 683.222C336.937 683.472 337.242 683.854 337.396 684.304C337.396 684.304 337.396 685.4 335.517 685.556C333.638 685.713 333.359 684.617 333.359 684.617C333.396 684.16 333.604 683.732 333.94 683.42C334.277 683.108 334.718 682.933 335.178 682.93V682.93Z" fill="#F0997A"/>
<path d="M323.649 663.278C323.649 663.278 324.311 661.947 325.39 661.799C325.975 662.275 326.358 662.956 326.46 663.704C326.872 663.611 327.301 663.616 327.712 663.717C328.122 663.818 328.504 664.013 328.826 664.286C328.731 664.675 328.545 665.035 328.284 665.337C328.022 665.64 327.692 665.876 327.321 666.025C327.612 666.825 327.584 667.707 327.243 668.486C326.672 668.53 326.102 668.403 325.604 668.123C325.105 667.843 324.701 667.422 324.441 666.912C324.441 666.912 323.667 668.06 321.553 667.66C321.385 667.214 321.369 666.725 321.507 666.27C321.646 665.814 321.931 665.416 322.318 665.138C321.964 664.938 321.67 664.646 321.467 664.292C321.265 663.939 321.162 663.537 321.17 663.13C321.573 662.99 321.999 662.932 322.424 662.957C322.85 662.983 323.266 663.091 323.649 663.278Z" fill="#FAFAFA"/>
<path d="M324.807 664.034C325.159 664.041 325.498 664.169 325.766 664.397C326.034 664.626 326.215 664.94 326.277 665.286C326.277 665.286 326.155 666.086 324.763 665.999C323.371 665.912 323.293 665.069 323.293 665.069C323.37 664.738 323.568 664.449 323.849 664.257C324.129 664.066 324.471 663.986 324.807 664.034V664.034Z" fill="#F0997A"/>
<path d="M341.608 668.878C341.608 668.878 342.017 667.686 342.791 668.095C343.565 668.504 343.304 669.252 342.626 669.417C342.626 669.417 344.087 669.895 343.678 670.669C343.269 671.443 342.017 670.669 341.738 670.234C341.738 670.234 341.468 671.426 340.45 671C339.433 670.573 340.45 669.547 340.45 669.547C340.45 669.547 338.893 668.939 339.737 668.226C340.581 667.513 341.608 668.878 341.608 668.878Z" fill="#FAFAFA"/>
<path d="M300.593 678.347C300.593 678.347 300.994 677.156 301.777 677.565C302.56 677.974 302.29 678.721 301.611 678.887C301.611 678.887 303.064 679.365 302.664 680.139C302.264 680.913 300.994 680.139 300.724 679.704C300.724 679.704 300.454 680.895 299.436 680.469C298.418 680.043 299.436 679.017 299.436 679.017C299.436 679.017 297.87 678.408 298.723 677.695C299.576 676.982 300.593 678.347 300.593 678.347Z" fill="#FAFAFA"/>
<path d="M359 678.521C359 678.521 360.009 677.182 359.243 676.861C358.478 676.539 358.147 677.687 358.147 677.687C358.147 677.687 357.382 676.817 357.016 677.426C356.651 678.035 357.582 678.756 357.582 678.756C357.582 678.756 356.538 679.322 357.138 679.887C357.738 680.452 358.469 679.565 358.469 679.565C358.469 679.565 358.887 680.574 359.531 680.295C360.174 680.017 359.766 678.817 359 678.521Z" fill="#FAFAFA"/>
<path d="M513.781 573.703C513.781 573.703 513.912 571.833 515.382 571.633C515.382 571.633 516.583 571.433 517.253 573.303C517.823 573.088 518.436 573.012 519.041 573.082C519.647 573.151 520.227 573.364 520.733 573.703C520.808 574.23 520.686 574.765 520.391 575.208C520.095 575.651 519.647 575.969 519.132 576.103C519.132 576.103 520.263 576.972 519.732 579.033C519.732 579.033 516.722 580.042 515.991 578.164C515.991 578.164 515.722 579.833 512.789 579.833C512.431 579.35 512.237 578.765 512.237 578.164C512.237 577.562 512.431 576.977 512.789 576.494C512.789 576.494 510.719 576.425 510.379 574.894C510.371 574.903 511.78 572.564 513.781 573.703Z" fill="#FAFAFA"/>
<path d="M515.582 573.998C516.054 573.933 516.534 574.035 516.939 574.285C517.344 574.536 517.649 574.921 517.801 575.372C517.801 575.372 517.801 576.459 515.93 576.616C514.06 576.772 513.772 575.685 513.772 575.685C513.809 575.229 514.015 574.803 514.35 574.491C514.685 574.179 515.124 574.003 515.582 573.998V573.998Z" fill="#F0997A"/>
<path d="M482.164 557.129C482.164 557.129 482.825 555.798 483.904 555.642C484.49 556.12 484.87 556.804 484.965 557.555C485.378 557.462 485.807 557.467 486.217 557.568C486.628 557.669 487.01 557.864 487.332 558.137C487.237 558.526 487.051 558.886 486.789 559.188C486.528 559.491 486.198 559.727 485.827 559.876C486.118 560.676 486.09 561.558 485.748 562.337C485.178 562.378 484.608 562.249 484.109 561.967C483.611 561.686 483.207 561.264 482.947 560.755C482.947 560.755 482.173 561.903 480.058 561.503C479.891 561.058 479.876 560.57 480.014 560.116C480.153 559.662 480.437 559.266 480.824 558.989C480.471 558.788 480.178 558.495 479.976 558.142C479.774 557.788 479.67 557.388 479.675 556.981C480.08 556.84 480.507 556.781 480.934 556.806C481.361 556.832 481.779 556.941 482.164 557.129V557.129Z" fill="#FAFAFA"/>
<path d="M483.347 557.946C483.7 557.951 484.039 558.079 484.308 558.307C484.576 558.536 484.756 558.851 484.817 559.198C484.817 559.198 484.695 559.998 483.303 559.903C481.911 559.807 481.833 558.981 481.833 558.981C481.912 558.652 482.111 558.363 482.39 558.172C482.67 557.981 483.011 557.9 483.347 557.946V557.946Z" fill="#F0997A"/>
<path d="M500.731 549.998C500.731 549.998 501.14 548.807 501.923 549.215C502.706 549.624 502.427 550.372 501.749 550.537C501.749 550.537 503.21 551.015 502.802 551.798C502.393 552.581 501.14 551.798 500.87 551.354C500.87 551.354 500.6 552.554 499.582 552.12C498.564 551.685 499.582 550.676 499.582 550.676C499.582 550.676 498.016 550.067 498.869 549.354C499.722 548.641 500.731 549.998 500.731 549.998Z" fill="#FAFAFA"/>
<path d="M493.553 576.877C493.553 576.877 493.961 575.685 494.745 576.094C495.528 576.503 495.258 577.251 494.579 577.416C494.579 577.416 496.032 577.894 495.632 578.668C495.232 579.442 493.961 578.668 493.692 578.233C493.692 578.233 493.422 579.425 492.404 578.999C491.386 578.572 492.404 577.546 492.404 577.546C492.404 577.546 490.838 576.938 491.691 576.225C492.543 575.512 493.553 576.877 493.553 576.877Z" fill="#FAFAFA"/>
<path d="M518.123 559.685C518.123 559.685 519.132 558.355 518.367 558.033C517.601 557.711 517.279 558.859 517.279 558.859C517.279 558.859 516.513 557.946 516.148 558.598C515.783 559.25 516.714 559.929 516.714 559.929C516.714 559.929 515.661 560.494 516.27 561.059C516.879 561.624 517.601 560.737 517.601 560.737C517.601 560.737 518.019 561.746 518.654 561.459C519.289 561.172 518.889 559.963 518.123 559.685Z" fill="#FAFAFA"/>
<path d="M507.178 599.051C507.178 599.051 508.187 597.72 507.421 597.399C506.656 597.077 506.334 598.225 506.334 598.225C506.334 598.225 505.568 597.312 505.203 597.964C504.837 598.616 505.768 599.294 505.768 599.294C505.768 599.294 504.715 599.86 505.324 600.425C505.934 600.99 506.656 600.103 506.656 600.103C506.656 600.103 507.073 601.112 507.708 600.825C508.344 600.538 507.943 599.373 507.178 599.051Z" fill="#FAFAFA"/>
<path d="M223.734 318.891C222.688 318.505 221.585 318.299 220.471 318.283C219.418 318.204 219.079 317.996 218.879 317.761C217.861 316.312 216.383 315.251 214.684 314.75C212.985 314.249 211.167 314.339 209.526 315.004C209.074 313.57 208.097 312.36 206.79 311.615C205.483 310.87 203.943 310.646 202.478 310.987C202.591 307.7 198.398 304.169 194.648 303.369C191.028 302.604 187.879 302.926 185.817 305.3C183.607 300.952 174.95 299.778 170.269 302.056C167.572 303.369 165.284 304.709 164.179 307.178C163.442 308.705 163.092 310.389 163.161 312.083C161.334 310.474 157.679 310.039 155.243 310.987C152.633 312.004 152.416 313.978 152.285 315.996C150.726 315.545 149.075 315.515 147.5 315.909C145.847 316.404 144.89 317.7 145.116 318.752C143.802 318.674 140.679 319.735 141.044 321.117C141.444 322.674 145.012 322.517 146.343 322.465C147.597 322.362 148.841 322.168 150.067 321.883C150.688 322.114 151.344 322.238 152.007 322.248C154.278 322.248 155.243 321.257 155.6 320.413C156.714 322.744 160.655 324.526 163.43 325.239C168.651 326.578 176.107 325.761 179.344 321.839C179.723 322.579 180.257 323.228 180.91 323.744C182.288 324.879 183.971 325.584 185.747 325.77C187.896 325.97 193.682 326.248 195.318 322.822C196.466 325.1 201.617 326.135 205.532 325.578C207.039 325.352 208.504 324.906 209.882 324.257C210.751 323.803 211.594 323.301 212.406 322.752C212.716 322.534 213.081 322.405 213.459 322.379C213.838 322.352 214.217 322.431 214.555 322.604C217.243 323.413 220.366 323.744 223.107 322.604C225.334 321.648 225.787 319.813 223.734 318.891Z" fill="#F0F0F0"/>
<path d="M512.45 335.509C511.614 335.2 510.731 335.036 509.84 335.022C508.97 334.952 508.718 334.787 508.561 334.604C507.746 333.434 506.556 332.577 505.189 332.172C503.821 331.767 502.356 331.84 501.035 332.378C500.667 331.229 499.878 330.261 498.826 329.667C497.774 329.074 496.537 328.899 495.362 329.178C495.458 326.57 492.082 323.691 489.046 323.048C486.009 322.404 483.599 322.691 481.937 324.604C480.197 321.126 473.193 320.161 469.426 321.996C467.26 323.056 465.424 324.135 464.519 326.126C463.928 327.356 463.647 328.711 463.701 330.074C462.24 328.778 459.299 328.43 457.333 329.204C455.218 330.022 455.053 331.613 454.949 333.23C453.695 332.87 452.369 332.846 451.103 333.161C449.772 333.561 448.997 334.604 449.18 335.448C448.127 335.396 445.613 336.248 445.909 337.352C446.231 338.604 449.102 338.483 450.172 338.439C451.183 338.358 452.186 338.201 453.174 337.97C453.672 338.158 454.199 338.258 454.731 338.265C456.558 338.265 457.341 337.474 457.62 336.787C458.49 338.665 461.691 340.1 463.927 340.665C468.156 341.752 474.133 341.091 476.735 337.935C477.037 338.529 477.465 339.051 477.987 339.465C479.106 340.365 480.465 340.915 481.894 341.048C483.634 341.213 488.289 341.439 489.594 338.683C490.525 340.509 494.666 341.344 497.825 340.9C499.045 340.717 500.232 340.357 501.348 339.831C502.046 339.465 502.722 339.062 503.375 338.622C503.627 338.445 503.922 338.34 504.229 338.319C504.535 338.297 504.842 338.36 505.116 338.5C507.341 339.291 509.772 339.291 511.998 338.5C513.703 337.726 514.077 336.257 512.45 335.509Z" fill="#F5F5F5"/>
<path opacity="0.2" d="M250.131 671.8C289.638 671.8 321.666 653.319 321.666 630.521C321.666 607.723 289.638 589.242 250.131 589.242C210.623 589.242 178.595 607.723 178.595 630.521C178.595 653.319 210.623 671.8 250.131 671.8Z" fill="#BA68C8"/>
<path opacity="0.2" d="M414.892 671.8C454.4 671.8 486.427 653.319 486.427 630.521C486.427 607.723 454.4 589.242 414.892 589.242C375.384 589.242 343.356 607.723 343.356 630.521C343.356 653.319 375.384 671.8 414.892 671.8Z" fill="#BA68C8"/>
<path d="M334.638 507.711L325.068 502.554C302.159 490.232 292.128 473.649 298.235 458.206C299.677 454.562 302.207 451.45 305.482 449.295C308.756 447.14 312.616 446.046 316.535 446.162C320.454 446.278 324.242 447.598 327.384 449.943C330.525 452.288 332.867 455.544 334.09 459.267C335.321 455.509 337.69 452.226 340.869 449.873C344.048 447.52 347.881 446.213 351.836 446.133C355.792 446.053 359.674 447.203 362.947 449.425C366.219 451.647 368.719 454.831 370.101 458.536C375.539 473.128 366.256 488.589 344 502.076L334.638 507.711Z" fill="#BA68C8"/>
<path opacity="0.8" d="M334.638 507.711L325.068 502.554C302.159 490.232 292.128 473.649 298.235 458.206C299.677 454.562 302.207 451.45 305.482 449.295C308.756 447.14 312.616 446.046 316.535 446.162C320.454 446.278 324.242 447.598 327.384 449.943C330.525 452.288 332.867 455.544 334.09 459.267C335.321 455.509 337.69 452.226 340.869 449.873C344.048 447.52 347.881 446.213 351.836 446.133C355.792 446.053 359.674 447.203 362.947 449.425C366.219 451.647 368.719 454.831 370.101 458.536C375.539 473.128 366.256 488.589 344 502.076L334.638 507.711Z" fill="white"/>
<g opacity="0.8">
<path opacity="0.8" d="M334.638 508.163C334.563 508.163 334.488 508.145 334.421 508.11L324.85 502.945C301.733 490.502 291.623 473.71 297.818 458.023C299.256 454.393 301.751 451.279 304.979 449.081C308.208 446.883 312.021 445.704 315.927 445.696C319.833 445.687 323.652 446.85 326.89 449.034C330.128 451.217 332.636 454.321 334.09 457.945C335.552 454.285 338.089 451.153 341.366 448.961C344.643 446.77 348.508 445.622 352.451 445.668C356.394 445.714 360.23 446.952 363.455 449.22C366.68 451.487 369.143 454.677 370.519 458.371C376.044 473.154 366.691 488.806 344.2 502.45L334.873 508.084C334.804 508.133 334.722 508.16 334.638 508.163V508.163ZM315.976 446.571C312.227 446.561 308.562 447.679 305.458 449.781C302.354 451.883 299.955 454.87 298.575 458.353C292.571 473.58 302.525 489.954 325.207 502.154L334.577 507.197L343.687 501.693C365.769 488.328 375.008 473.058 369.623 458.692C368.274 455.075 365.833 451.966 362.638 449.796C359.443 447.627 355.652 446.503 351.79 446.581C347.929 446.66 344.186 447.936 341.082 450.234C337.978 452.531 335.665 455.736 334.464 459.406C334.434 459.495 334.377 459.573 334.3 459.629C334.224 459.685 334.132 459.716 334.038 459.719V459.719C333.943 459.716 333.852 459.685 333.775 459.629C333.699 459.573 333.642 459.495 333.612 459.406C332.39 455.679 330.024 452.433 326.85 450.128C323.676 447.824 319.855 446.579 315.932 446.571H315.976Z" fill="#BA68C8"/>
</g>
<path d="M426.907 368.944C433.154 368.822 440.767 369.814 444.778 384.675C448.441 398.257 451.286 408.075 452.608 415.275C453.931 422.475 453.478 428.397 452.948 435.649C452.608 440.11 451.982 444.545 451.408 448.98C451.112 451.241 450.816 453.51 450.538 455.78C450.194 457.74 450.057 459.73 450.129 461.719C450.572 466.258 450.903 470.928 449.833 475.415C449.581 476.484 449.241 477.537 448.911 478.589C448.189 480.876 447.458 483.163 446.736 485.45C446.358 487.034 445.414 488.425 444.082 489.363C442.96 490.145 441.646 490.145 440.323 490.372C439.87 490.489 439.394 490.489 438.94 490.372C438.614 490.238 438.318 490.04 438.07 489.789C437.061 488.919 435.982 487.832 435.947 486.485C435.947 485.676 436.286 484.806 435.903 484.093C435.784 483.9 435.653 483.714 435.512 483.537C435.044 482.795 434.887 481.898 435.077 481.041C435.262 480.193 435.533 479.365 435.886 478.571C437.375 474.781 437.971 470.699 437.626 466.641C437.626 466.258 437.348 465.771 436.991 465.876C436.908 465.922 436.837 465.985 436.781 466.062C436.726 466.139 436.687 466.226 436.669 466.319C436.275 467.512 435.984 468.737 435.799 469.98C435.72 471.102 435.425 472.197 434.929 473.206C434.664 473.702 434.228 474.086 433.702 474.287C433.176 474.489 432.596 474.494 432.067 474.302C432.159 472.389 432.261 470.476 432.371 468.563C432.397 467.587 432.484 466.614 432.632 465.65C433.136 463.388 433.889 461.189 434.877 459.093C435.723 457.007 436.251 454.805 436.443 452.562C436.965 447.467 436.539 442.345 436.295 437.241C436.06 432.458 435.756 427.675 435.355 422.884L424.793 389.701L426.907 368.944Z" fill="#FFA8A7"/>
<path d="M422.835 368.779C435.355 366.222 439.218 370.726 442.594 377.135C445.97 383.544 451.66 409.249 451.66 409.249C451.66 409.249 446.257 418.814 429.387 416.788L422.835 368.779Z" fill="#263238"/>
<path d="M349.394 632.452C348.62 632.382 348.603 634.26 349.081 635.165C350.465 637.773 354.302 640.556 359.887 641.8C365.473 643.043 376.418 641.556 379.768 641.434C383.118 641.313 388.825 642.991 392.131 643.521C398.161 644.495 402.285 642.826 404.26 640.913C404.593 640.524 404.843 640.071 404.993 639.582C405.142 639.092 405.189 638.577 405.13 638.069C405.069 635.773 404.869 635.312 404.616 635.33L349.394 632.452Z" fill="#37474F"/>
<path d="M403.92 628.634C404.501 631.347 404.679 634.131 404.451 636.895C403.755 638.635 401.884 639.574 400.388 640.035C396.447 641.269 392.557 641.035 388.251 640.104C385.457 639.395 382.58 639.068 379.698 639.13C376.261 639.321 368.701 640.087 365.264 640.13C362.053 640.175 358.867 639.562 355.902 638.33C353.631 637.269 350.186 634.93 349.42 633.174C348.672 629.061 349.099 626.608 351.465 625.217C353.979 623.739 357.555 623.478 362.515 623.078C363.994 622.965 365.864 622.878 366.656 622.791C369.658 622.46 372.459 622.243 374.73 622.095C376.666 622.111 378.581 621.692 380.333 620.869C381.14 620.512 381.794 619.88 382.178 619.086C382.656 618.034 382.648 616.478 383.57 616.408C383.57 616.408 400.527 619.286 401.893 619.426C403.477 619.591 402.441 621.852 403.92 628.634Z" fill="#455A64"/>
<path d="M365.342 622.635C364.829 623.038 364.405 623.545 364.098 624.121C363.755 624.741 363.492 625.401 363.315 626.087C363.089 626.956 364.185 627.122 364.577 626.13C364.885 625.298 365.295 624.507 365.795 623.774C366.15 623.266 366.669 622.898 367.265 622.73L368.135 622.635C367.892 622 366.004 622.2 365.342 622.635Z" fill="#FAFAFA"/>
<path d="M372.999 621.747C372.715 621.711 372.426 621.735 372.152 621.818C371.878 621.9 371.624 622.039 371.407 622.225C370.85 622.701 370.434 623.321 370.206 624.017C369.909 624.849 369.679 625.704 369.519 626.573C369.458 627.13 370.772 627.112 370.911 626.504C371.09 625.715 371.314 624.937 371.581 624.173C371.729 623.79 372.451 622.33 373.321 622.19H373.73C373.73 621.999 373.477 621.86 373.295 621.817L372.999 621.747Z" fill="#FAFAFA"/>
<path d="M377.488 621.617C377.1 621.683 376.747 621.887 376.496 622.191C376.189 622.595 375.951 623.048 375.792 623.53C375.52 624.417 375.388 625.341 375.4 626.269C375.4 626.982 376.679 626.8 376.723 626.321C376.862 624.808 376.862 623.826 377.593 622.721C377.866 622.243 378.251 621.837 378.715 621.539C378.715 621.408 378.489 621.399 378.367 621.417C378.07 621.466 377.777 621.532 377.488 621.617V621.617Z" fill="#FAFAFA"/>
<path d="M403.607 601.173C403.607 601.173 402.145 616.764 401.771 620.364C401.658 621.512 399.483 621.973 398.361 622.46C396.962 622.982 395.66 623.731 394.506 624.677C391.653 627.512 389.504 628.156 387.79 623.216C387.731 622.977 387.623 622.753 387.472 622.558C387.32 622.364 387.129 622.204 386.911 622.088C386.693 621.973 386.453 621.906 386.207 621.89C385.961 621.875 385.715 621.912 385.484 621.999C384.509 622.173 383.518 622.608 382.534 622.408C382.387 622.312 382.482 622.077 382.578 621.929C383.02 621.389 383.341 620.76 383.52 620.085C383.699 619.41 383.73 618.705 383.613 618.016C383.126 611.642 382.856 605.242 382.491 598.886L403.607 601.173Z" fill="#FFA8A7"/>
<path d="M467.791 588.651C465.772 585.425 462.631 576.755 460.047 567.564L440.906 576.434C440.906 576.434 452.617 597.677 453.957 599.59C456.158 602.756 467.791 588.651 467.791 588.651Z" fill="#FFA8A7"/>
<path d="M474.09 595.521C474.09 595.338 474.168 593.781 474.09 593.634C473.664 591.999 472.654 591.547 471.349 590.634C470.042 589.753 468.839 588.726 467.765 587.573C467.33 586.964 467.251 586.651 466.573 586.381C465.424 585.912 463.571 585.877 461.291 587.068C457.559 589.034 456.419 591.416 456.637 593.947C456.802 595.903 456.959 598.494 455.245 599.651C454.523 600.138 452.809 597.738 452.809 597.738C451.747 599.521 453.826 601.216 454.601 604.851C455.052 606.852 455.088 608.923 454.705 610.938C454.331 614.095 453.887 614.086 452.217 614.303C450.764 614.495 446.666 614.216 444.169 615.956C440.732 618.356 441.654 621.556 441.654 621.556C442.098 622.764 445.839 628.66 459.499 626.46C463.458 625.825 471.784 619.59 471.68 619.016C471.61 618.421 471.61 617.82 471.68 617.225C471.732 615.825 471.793 614.434 471.854 613.034C471.802 611.702 471.878 610.368 472.08 609.051C472.339 607.965 472.511 606.86 472.593 605.747L473.376 597.338C473.49 596.503 474.168 596.321 474.09 595.521Z" fill="#455A64"/>
<path d="M475.813 594.973C477.161 596.277 476.335 600.051 474.534 604.59C473.733 606.608 472.237 610.069 472.672 613.756C473.107 617.443 473.194 619.182 472.245 620.904C470.758 623.608 462.814 627.06 458.133 628.147C460.951 624.178 462.589 619.493 462.858 614.634C463.327 606.503 463.945 601.26 467.669 597.651C472.428 593.095 475.813 594.973 475.813 594.973Z" fill="black"/>
<path d="M441.681 621.529C441.681 621.529 444.421 626.66 454.984 626.486C459.151 626.425 461.378 624.399 461.474 618.077C461.605 610.46 462.214 602.764 464.676 598.946C467.138 595.129 471.071 593.329 474.116 593.599C474.831 593.814 475.438 594.292 475.813 594.938C475.813 594.938 472.759 593.938 467.982 597.868C464.502 600.773 463.536 606.842 463.588 614.39C463.588 617.634 463.815 621.303 462.858 623.764C462.424 624.849 461.741 625.818 460.865 626.591C459.988 627.364 458.942 627.921 457.811 628.216C452.069 629.825 444.204 627.164 442.211 624.738C441.887 624.277 441.671 623.75 441.58 623.194C441.488 622.639 441.522 622.07 441.681 621.529V621.529Z" fill="#37474F"/>
<path d="M454.374 612.895C453.937 613.192 453.627 613.642 453.504 614.156C453.458 614.805 453.588 615.455 453.881 616.036C454.173 616.618 454.617 617.11 455.166 617.46C455.801 617.86 456.358 617.721 455.349 616.382C454.706 615.333 454.368 614.125 454.374 612.895V612.895Z" fill="#FAFAFA"/>
<path d="M454.94 608.947C454.94 608.947 454.609 609.164 454.522 610.225C454.479 610.79 455.393 613.077 456.471 613.625C457.55 614.173 456.985 612.886 456.471 612.26C455.725 611.281 455.202 610.15 454.94 608.947Z" fill="#FAFAFA"/>
<path d="M454.566 604.591C454.566 604.591 454.209 604.695 454.566 606.147C455.081 607.065 455.895 607.78 456.871 608.173C457.585 608.26 457.933 607.904 457.054 607.26C456.393 606.765 454.705 605.304 454.566 604.591Z" fill="#FAFAFA"/>
<path d="M446.144 586.538C446.144 586.538 436.739 570.181 422.653 545.363C420.483 541.879 418.979 538.022 418.215 533.989C417.267 529.85 412.351 509.015 412.351 509.015L407.131 542.929C407.879 546.555 408.967 552.085 408.984 556.303C408.984 561.894 408.279 570.39 406.696 581.912C404.277 599.521 403.155 608.869 403.155 608.869C401.902 609.738 400.371 611.016 391.688 610.903C387.337 610.843 382.822 608.442 382.822 608.442C382.822 608.442 381.29 590.112 380.655 577.338C380.072 565.538 379.107 552.216 378.602 545.103C377.662 531.737 377.358 525.972 377.219 504.92C377.079 483.084 378.75 451.006 378.75 451.006H440.906C440.906 451.006 445.457 458.676 444.212 477.484C444.691 495.85 445.674 529.424 445.674 529.424C449.859 534.259 452.782 540.155 455.654 550.624C458.838 562.259 460.778 569.016 463.319 577.512C458.29 577.355 447.98 583.042 446.144 586.538Z" fill="#37474F"/>
<path d="M451.121 582.068C450.807 582.26 450.512 582.468 450.251 582.66C445.083 573.799 432.058 551.355 427.873 543.094C423.566 534.624 420.486 521.772 416.397 503.007C415.849 500.502 415.292 497.902 414.7 495.18L414.439 493.998L414.874 490.928L415.745 494.954C416.11 496.659 416.472 498.323 416.832 499.946C421.182 520.181 424.375 533.859 428.83 542.607C432.971 550.816 445.926 573.164 451.121 582.068Z" fill="#263238"/>
<path d="M385.893 450.988H384.814C384.153 460.284 383.796 471.858 383.7 484.902C381.508 483.858 379.176 481.623 377.653 477.076C377.653 477.945 377.601 478.815 377.575 479.684C379.315 483.284 381.569 485.11 383.666 485.997C383.431 522.98 385.206 571.042 387.746 610.268C388.103 610.364 388.468 610.451 388.842 610.521C385.423 556.99 383.326 486.771 385.893 450.988Z" fill="#263238"/>
<path opacity="0.2" d="M412.273 509.19L415.701 484.902C415.701 484.902 423.732 484.285 433.398 476.207C433.398 476.207 432.127 483.407 418.416 488.32L415.135 511.798L417.659 531.685C417.659 531.685 412.334 509.65 412.273 509.19Z" fill="black"/>
<path d="M416.545 370.935C415.318 366.327 414.848 363.109 415.231 359.753C415.675 355.84 419.868 347.579 419.581 338.5C419.294 329.422 405.782 316.761 395.429 318.891C385.075 321.022 380.072 327.344 378.028 335.413C376.784 340.344 378.637 341.1 378.245 343.909C377.471 349.431 375.94 353.787 379.472 363.857C380.76 367.535 384.092 368.675 387.172 369.075C389.446 369.289 391.74 369.139 393.967 368.631C394.332 370.936 394.579 373.258 394.707 375.588C394.76 376.393 394.51 377.189 394.006 377.82C393.503 378.45 392.781 378.87 391.983 378.996C391.983 378.996 417.276 373.701 416.545 370.935Z" fill="#FFA8A7"/>
<path d="M386.711 357.518C386.867 357.912 387.1 358.271 387.396 358.575C387.691 358.879 388.044 359.122 388.433 359.29C388.822 359.458 389.241 359.548 389.665 359.554C390.089 359.56 390.51 359.483 390.905 359.327C391.299 359.17 391.658 358.938 391.963 358.642C392.267 358.347 392.51 357.995 392.678 357.606C392.846 357.216 392.936 356.798 392.942 356.374C392.948 355.95 392.871 355.529 392.714 355.135L386.711 357.518Z" fill="#B16668"/>
<path d="M389.347 359.527C389.569 358.691 390.024 357.935 390.659 357.348C391.293 356.76 392.081 356.363 392.932 356.205C392.962 356.872 392.782 357.531 392.419 358.091C392.055 358.651 391.526 359.083 390.905 359.327C390.411 359.525 389.875 359.594 389.347 359.527V359.527Z" fill="#F28F8F"/>
<path d="M390.495 345.335C390.441 345.66 390.484 345.992 390.617 346.293C390.751 346.593 390.97 346.847 391.247 347.024C391.523 347.202 391.846 347.294 392.175 347.289C392.504 347.285 392.824 347.184 393.096 346.999C393.368 346.814 393.579 346.554 393.704 346.25C393.83 345.946 393.863 345.612 393.8 345.29C393.737 344.967 393.581 344.67 393.351 344.436C393.121 344.201 392.827 344.039 392.505 343.97C392.058 343.891 391.598 343.989 391.222 344.244C390.847 344.499 390.586 344.891 390.495 345.335Z" fill="#263238"/>
<path d="M391.696 339.857L395.655 340.944C395.8 340.401 395.724 339.823 395.446 339.334C395.168 338.846 394.708 338.487 394.167 338.335C393.905 338.265 393.631 338.25 393.362 338.29C393.094 338.329 392.836 338.423 392.605 338.565C392.374 338.708 392.174 338.896 392.018 339.118C391.862 339.34 391.752 339.591 391.696 339.857V339.857Z" fill="#263238"/>
<path d="M377.75 339.744L381.682 338.457C381.614 338.195 381.492 337.949 381.325 337.736C381.158 337.523 380.949 337.346 380.711 337.216C380.473 337.086 380.211 337.007 379.941 336.983C379.671 336.958 379.399 336.989 379.142 337.074C378.608 337.252 378.165 337.63 377.905 338.128C377.646 338.626 377.59 339.205 377.75 339.744V339.744Z" fill="#263238"/>
<path d="M378.889 344.753C378.93 345.052 379.059 345.333 379.258 345.56C379.458 345.788 379.72 345.951 380.012 346.03C380.304 346.109 380.613 346.101 380.9 346.005C381.187 345.91 381.44 345.733 381.627 345.495C381.813 345.257 381.926 344.97 381.95 344.668C381.975 344.367 381.91 344.065 381.763 343.8C381.617 343.536 381.396 343.32 381.128 343.18C380.86 343.04 380.556 342.982 380.255 343.014C380.051 343.037 379.854 343.101 379.674 343.202C379.495 343.302 379.337 343.437 379.21 343.599C379.083 343.76 378.989 343.946 378.934 344.144C378.879 344.342 378.864 344.549 378.889 344.753Z" fill="#263238"/>
<path d="M379.733 352.57L385.963 354.657L386.694 342.761C384.397 342.178 382.048 347.839 379.733 352.57Z" fill="#F28F8F"/>
<path d="M393.95 368.692C393.95 368.692 399.518 367.292 401.032 366.223C405.139 363.31 406.531 361.24 407.235 358.396C407.132 360.278 406.573 362.107 405.606 363.725C404.639 365.342 403.294 366.701 401.684 367.684C399.329 368.959 396.848 369.988 394.28 370.753L393.95 368.692Z" fill="#F28F8F"/>
<path d="M408.227 353.179C408.314 354.857 408.915 357.683 410.759 358.762C412.604 359.84 413.656 360.353 415.231 359.753C415.623 358.196 416.971 354.135 418.268 350.657C419.564 347.179 425.689 334.039 418.207 329.987C419.251 324.77 416.319 319.926 411.577 317.239C407.583 314.987 398.813 315.709 392.993 317.239C379.229 320.822 376.636 317.239 374.722 318.361C372.808 319.483 374.217 324.265 375.94 325.526C373.721 325.292 372.903 327.726 374.287 330.309C375.67 332.892 378.95 334.379 384.005 334.657C392.871 335.161 399.144 331.231 401.223 330.083C400.553 332.114 400.112 334.214 399.91 336.344C399.862 337.289 400.024 338.234 400.385 339.109C400.746 339.984 401.297 340.768 401.998 341.405C403.172 342.274 401.902 345.161 402.241 346.274C402.581 347.387 404.182 349.474 405.835 344.961C407.488 340.448 411.968 339.892 414.004 341.874C416.04 343.857 416.188 346.074 414.822 350.118C413.761 353.309 410.385 354.883 408.227 353.179Z" fill="#263238"/>
<path d="M405.826 466.363C396.369 466.331 386.946 465.22 377.741 463.05C377.845 461.876 378.08 458.093 378.08 448.049C378.08 439.18 377.663 426.536 377.262 418.623C376.305 400.153 377.497 395.101 378.759 389.753C378.924 389.057 379.09 388.362 379.255 387.631C380.464 383.866 382.056 379.657 385.441 378.005C390.105 376.413 394.847 375.061 399.649 373.953C401.754 373.492 403.512 373.083 405.174 372.701C409.48 371.692 413.195 370.822 420.73 369.561C421.88 369.371 423.044 369.278 424.21 369.283C426.534 369.249 428.842 369.668 431.005 370.518C437.383 373.127 440.776 379.605 441.098 389.727C441.394 399.423 441.402 405.727 441.098 416.727V417.91C440.832 424.435 441.036 430.971 441.707 437.467C442.638 446.206 443.395 451.936 443.508 452.797C443.212 453.667 440.08 461.623 422.862 464.867C417.242 465.891 411.539 466.392 405.826 466.363Z" fill="#F5F5F5"/>
<path d="M424.201 368.779V369.788C426.457 369.76 428.696 370.167 430.796 370.988C436.982 373.527 440.271 379.832 440.576 389.745C440.88 399.432 440.889 405.736 440.576 416.702C440.576 417.067 440.576 417.467 440.576 417.902C440.314 424.444 440.521 430.997 441.194 437.511C442.064 445.911 442.821 451.545 442.934 452.737C442.499 453.919 439.123 461.267 422.714 464.354C417.126 465.375 411.454 465.873 405.774 465.841C396.505 465.805 387.268 464.735 378.237 462.65C378.35 461.067 378.541 457.067 378.541 448.041C378.541 439.163 378.132 426.502 377.724 418.589C376.775 400.188 377.958 395.171 379.211 389.893C379.377 389.206 379.533 388.519 379.69 387.806C380.882 384.101 382.422 380.032 385.615 378.484C390.257 376.899 394.979 375.558 399.762 374.466C401.867 374.005 403.607 373.597 405.287 373.205C409.585 372.205 413.291 371.345 420.817 370.075C421.936 369.893 423.068 369.803 424.201 369.805V368.797V368.779ZM424.201 368.797C423.01 368.796 421.82 368.889 420.643 369.075C410.202 370.814 407.149 371.805 399.544 373.475C395.385 374.397 386.555 376.953 385.215 377.571C381.534 379.362 379.873 384.049 378.759 387.545C377.384 393.797 375.67 397.684 376.749 418.667C377.132 426.102 377.619 438.876 377.619 448.067C377.619 460.789 377.228 463.459 377.228 463.459C386.604 465.721 396.215 466.871 405.861 466.885C411.606 466.913 417.34 466.41 422.992 465.38C441.776 461.841 444.065 452.859 444.065 452.859C444.065 452.859 443.264 446.972 442.246 437.432C441.553 430.562 441.361 423.651 441.672 416.754C441.942 406.067 441.95 399.806 441.672 389.727C441.333 378.84 437.4 372.588 431.231 370.066C429.014 369.201 426.651 368.77 424.271 368.797H424.201Z" fill="#E0E0E0"/>
<path d="M347.507 453.597C341.616 463.241 340.337 465.893 336.196 468.38C332.055 470.867 328.453 474.032 324.572 476.832C322.673 478.202 320.949 479.8 319.439 481.589C318.812 482.284 318.272 483.052 317.829 483.876C317.623 484.249 317.496 484.66 317.455 485.085C317.432 485.296 317.456 485.51 317.525 485.712C317.595 485.913 317.707 486.097 317.855 486.25C318.224 486.493 318.64 486.658 319.075 486.734C319.511 486.811 319.957 486.797 320.387 486.693C320.422 486.892 320.51 487.078 320.642 487.231C320.773 487.384 320.944 487.499 321.135 487.563C322.004 487.843 322.938 487.843 323.806 487.563C323.806 487.563 323.693 487.972 324.207 488.302C325.166 488.728 326.251 488.774 327.243 488.432C327.331 488.407 327.425 488.407 327.513 488.432C327.583 488.47 327.642 488.524 327.687 488.589C327.908 488.794 328.171 488.947 328.459 489.037C328.746 489.128 329.05 489.153 329.349 489.111C331.959 488.946 333.969 486.893 336.205 485.728C338.589 484.485 339.633 483.067 341.033 482.545C342.434 482.024 342.887 483.145 340.242 486.893C339.208 488.234 338.601 489.855 338.502 491.546C338.58 493.241 339.685 494.459 340.625 493.511C341.564 492.563 342.304 491.354 345.906 487.58C348.629 484.719 349.003 483.693 350.908 479.241C352.14 476.019 353.799 472.977 355.842 470.197C358.591 466.319 369.762 452.015 375.4 444.328C376.879 442.31 378.837 440.606 381.117 431.884C383.239 423.762 386.093 414.292 387.79 405.684C390.087 394.118 387.79 386.553 382.709 382.483C377.836 383.353 372.033 387.536 370.728 391.597C367.248 402.336 363.324 417.571 360.74 428.814C356.973 436.649 350.456 448.736 347.507 453.597Z" fill="#FFA8A7"/>
<path d="M342.852 471.198C342.241 471.55 341.743 472.069 341.416 472.694C340.991 473.4 340.663 474.161 340.442 474.955C340.195 475.784 340.071 476.646 340.076 477.511C340.085 477.922 340.12 478.331 340.181 478.737C340.265 479.229 340.465 479.694 340.764 480.094C340.851 480.233 341.094 480.311 341.12 480.094C341.141 479.387 341.1 478.68 340.999 477.981C340.956 477.239 340.997 476.496 341.12 475.763C341.24 475.06 341.444 474.374 341.729 473.72C342.086 472.92 342.643 472.189 342.947 471.372C342.965 471.294 342.93 471.163 342.852 471.198Z" fill="#F28F8F"/>
<path d="M385.215 377.553C372.973 379.875 370.232 383.875 366.204 399.936C364.342 407.388 363.011 415.38 361.454 421.945C362.158 424.093 365.369 426.849 370.337 429.076C374.197 430.845 378.568 431.154 382.639 429.945C384.731 423.673 386.46 417.286 387.816 410.814C387.816 410.814 396.395 383.962 385.215 377.553Z" fill="#263238"/>
<path d="M238.455 377.396C232.512 377.283 225.274 378.205 221.454 392.37C217.974 405.292 215.259 414.64 213.98 421.492C212.701 428.344 213.11 433.979 213.658 440.884C213.98 445.127 214.528 449.353 215.129 453.571C215.407 455.727 215.694 457.919 215.947 460.041C216.269 461.906 216.397 463.801 216.329 465.693C215.912 470.041 215.599 474.458 216.617 478.736C216.86 479.754 217.173 480.754 217.487 481.754C218.177 483.934 218.867 486.11 219.557 488.284C219.918 489.79 220.811 491.115 222.072 492.015C223.151 492.754 224.395 492.754 225.656 492.971C226.023 493.108 226.423 493.128 226.802 493.028C227.18 492.929 227.519 492.714 227.771 492.415C228.728 491.545 229.754 490.554 229.789 489.276C229.789 488.502 229.458 487.676 229.789 486.989C229.904 486.806 230.032 486.631 230.172 486.467C230.616 485.761 230.766 484.908 230.59 484.093C230.406 483.288 230.147 482.501 229.815 481.745C228.421 478.116 227.885 474.215 228.249 470.345C228.249 469.98 228.51 469.475 228.858 469.615C229.023 469.675 229.102 469.867 229.163 470.041C229.549 471.174 229.84 472.337 230.033 473.519C230.118 474.589 230.414 475.632 230.903 476.589C231.157 477.061 231.573 477.427 232.074 477.619C232.576 477.81 233.13 477.815 233.635 477.632L233.348 472.171C233.316 471.242 233.232 470.316 233.095 469.397C232.613 467.244 231.895 465.15 230.955 463.154C230.148 461.168 229.646 459.072 229.467 456.936C228.971 452.093 229.38 447.214 229.615 442.362C229.833 437.805 230.12 433.24 230.485 428.692L240.534 397.075L238.455 377.396Z" fill="#B16668"/>
<path d="M260.641 625.294C260.064 627.74 259.876 630.26 260.084 632.764C260.676 634.442 263.869 636.173 265.304 636.608C269.411 637.825 269.924 637.616 276.571 638.408C278.374 638.575 280.159 638.901 281.905 639.381C287.499 641.051 291.728 643.555 296.983 643.808C304.813 644.19 310.703 642.286 313.714 639.016C314.294 637.325 314.294 635.49 313.714 633.799C312.791 631.19 309.459 629.451 306.997 628.581C300.341 626.373 297.096 625.103 292.076 623.112C289.409 622.022 286.813 620.765 284.306 619.346C282.148 618.146 280.826 616.199 278.216 615.868C275.606 615.538 273.161 616.233 270.681 616.633C268.071 617.051 265.287 617.581 262.633 617.92C261.772 618.077 262.39 618.816 260.641 625.294Z" fill="#455A64"/>
<path d="M261.415 600.303C261.554 603.416 262.433 609.26 262.572 612.373C262.685 614.93 262.572 617.538 262.572 620.095C262.528 620.681 262.593 621.271 262.764 621.834C263.189 622.701 263.894 623.399 264.765 623.817C270.812 627.382 275.205 627.982 281.939 629.721C286.716 630.956 292.25 632.469 296.147 632.886C299.845 633.278 303.978 633.365 306.031 631.556C307.006 630.686 306.849 629.008 302.916 627.504C298.81 625.938 295.39 624.73 291.449 622.878C288.972 621.798 286.581 620.53 284.297 619.086C283.18 618.475 282.248 617.574 281.6 616.477C281.141 615.245 280.971 613.924 281.104 612.617C281.209 610.93 281.391 609.251 281.565 607.573C281.861 604.712 282.148 601.851 282.435 598.99C282.435 598.982 261.406 600.147 261.415 600.303Z" fill="#B16668"/>
<path d="M199.502 588.433C200.159 587.72 200.742 586.942 201.243 586.112C203.148 581.92 205.253 574.564 207.281 567.346L226.422 576.216C224.763 579.225 223.098 582.228 221.428 585.225C220.61 586.703 219.809 588.199 218.948 589.668C218.135 590.898 217.397 592.176 216.738 593.494C216.052 594.963 215.521 596.498 215.155 598.077C214.721 600.504 214.683 602.986 215.042 605.425C215.196 607.262 215.6 609.07 216.242 610.799C216.966 612.411 218.115 613.797 219.566 614.808C220.236 615.338 220.679 615.364 220.21 616.503C220.027 616.947 219.444 617.034 218.957 617.051C218.217 617.099 217.475 617.082 216.738 616.999C215.213 616.7 213.785 616.031 212.579 615.051C211.43 614.235 210.42 613.239 209.586 612.103C207.455 609.068 207.246 605.147 207.324 601.399C207.383 600.596 207.336 599.789 207.185 598.999C207.048 598.483 206.868 597.98 206.646 597.494C205.071 593.938 201.939 591.381 199.502 588.433Z" fill="#B16668"/>
<path d="M192.421 596.46C192.145 595.489 192.216 594.453 192.621 593.529C193.447 591.79 194.613 591.329 195.918 590.416C196.605 589.929 197.232 589.346 197.902 588.851C198.434 588.297 199.04 587.82 199.703 587.433C200.231 587.263 200.791 587.221 201.339 587.312C203.635 587.581 206.463 588.572 207.968 590.399C209.604 592.39 209.821 594.903 209.891 597.355L210.048 603.694C209.966 606.199 210.316 608.7 211.083 611.086C211.518 612.43 212.308 613.632 213.371 614.564C214.428 615.515 215.773 616.084 217.191 616.181C219.209 616.181 219.523 614.755 219.523 614.755L220.88 615.242C221.7 615.553 222.482 615.955 223.212 616.442C224.19 617.149 224.926 618.141 225.318 619.282C225.711 620.423 225.741 621.658 225.404 622.816C224.96 624.025 219.801 627.616 210.3 626.651C209.343 626.347 205.776 625.129 204.836 624.677C202.165 623.408 198.363 622.451 197.71 619.086C197.57 618.13 197.546 617.16 197.641 616.199C197.832 612.721 197.841 609.242 196.771 605.964C195.923 603.82 194.935 601.734 193.813 599.72C193.23 598.688 192.763 597.594 192.421 596.46V596.46Z" fill="#455A64"/>
<path d="M192.62 593.529C191.272 594.833 192.429 597.781 194.239 602.32C195.039 604.329 197.475 607.938 197.04 611.616C196.605 615.294 196.623 618.816 197.493 620.503C198.981 623.207 205.575 625.625 210.265 626.703C207.435 622.738 205.785 618.053 205.506 613.19C205.027 605.059 204.41 599.816 200.686 596.216C196.022 591.65 192.62 593.529 192.62 593.529Z" fill="black"/>
<path d="M221.141 586.32C221.141 586.32 230.546 569.964 244.632 545.146C246.801 541.661 248.306 537.805 249.069 533.772C250.018 529.633 254.933 508.798 254.933 508.798L257.692 542.711C256.943 546.337 255.856 551.868 255.838 556.085C255.885 564.566 256.527 573.034 257.761 581.425C260.18 599.042 261.415 608.486 261.415 608.486C262.659 609.355 264.487 610.799 273.178 610.686C277.529 610.625 282.035 608.225 282.035 608.225C282.035 608.225 284.097 589.877 285.037 577.12C286.368 558.911 287.03 552.607 287.525 545.503C288.474 532.137 289.962 525.763 290.136 504.702C290.275 482.867 288.604 450.788 288.604 450.788L226.448 447.493C226.448 447.493 219.488 454.823 223.142 477.267C222.655 495.632 221.68 529.207 221.68 529.207C217.495 534.042 214.572 539.937 211.701 550.407C208.516 562.042 206.576 568.798 204.036 577.294C209.004 577.138 219.314 582.825 221.141 586.32Z" fill="#37474F"/>
<path d="M216.173 581.851C216.486 582.042 216.773 582.251 217.043 582.442C222.211 573.581 235.236 551.137 239.421 542.876C243.727 534.407 246.799 521.554 250.896 502.789C251.445 500.284 252.001 497.684 252.637 494.963L252.898 493.78L252.463 490.71L251.593 494.737C251.227 496.441 250.865 498.105 250.505 499.728C246.155 519.963 242.962 533.641 238.507 542.389C234.322 550.598 221.358 572.946 216.173 581.851Z" fill="#263238"/>
<path d="M281.4 450.754H282.479C283.141 460.05 283.497 471.624 283.593 484.667C285.786 483.624 288.117 481.389 289.64 476.841C289.64 477.711 289.692 478.58 289.718 479.45C287.978 483.05 285.716 484.876 283.628 485.763C283.863 522.746 279.626 570.807 277.085 610.034C276.728 610.13 276.363 610.217 275.989 610.286C279.443 556.773 283.958 486.554 281.4 450.754Z" fill="#263238"/>
<path opacity="0.2" d="M255.02 508.971L251.592 484.702C251.592 484.702 243.553 484.084 233.896 476.006C233.896 476.006 235.166 483.206 248.869 488.119L252.158 511.598L249.635 531.485C249.635 531.485 254.959 509.432 255.02 508.971Z" fill="black"/>
<path d="M284.932 357.805C284.607 358.891 283.987 359.867 283.14 360.622C282.316 361.309 281.368 361.832 280.347 362.161C277.548 363.112 274.503 363.054 271.742 361.996C272.108 362.135 268.88 364.718 268.523 364.874C266.922 365.561 265.583 364.97 264.043 365.257C261.311 365.77 260.214 370.04 257.665 371.205C256.131 371.794 254.443 371.852 252.871 371.37C252.245 371.222 250.757 370.361 250.157 370.5C249.556 370.64 249.287 371.474 248.843 371.787C248.149 372.157 247.417 372.449 246.659 372.657C242.022 374.266 237.663 372.266 236.775 367.37C236.669 366.044 236.361 364.742 235.862 363.509C235.228 362.539 234.464 361.661 233.591 360.9C232.241 359.549 231.263 357.871 230.754 356.031C230.263 354.173 230.529 352.197 231.494 350.535C232.477 348.961 234.182 347.831 234.809 346.083C235.566 343.961 234.522 341.665 234.4 339.413C234.365 337.958 234.659 336.513 235.262 335.188C235.865 333.863 236.76 332.691 237.88 331.761C240.149 329.91 242.93 328.797 245.85 328.569C246.407 325.161 249.382 322.526 252.662 321.456C255.491 320.662 258.454 320.466 261.363 320.882C264.138 321.161 265.713 320.169 268.227 319.143C272.003 317.665 276.571 319.378 279.025 322.622C279.731 323.711 280.495 324.762 281.313 325.769C282.757 327.282 284.793 328.048 286.533 329.196C287.804 329.985 288.893 331.033 289.73 332.273C290.566 333.512 291.132 334.914 291.388 336.387C291.78 339.344 290.353 342.596 287.664 343.891C288.339 344.615 288.803 345.509 289.007 346.478C289.211 347.446 289.146 348.451 288.82 349.385C288.494 350.319 287.919 351.147 287.158 351.778C286.396 352.41 285.476 352.822 284.497 352.97C284.885 353.707 285.124 354.514 285.198 355.344C285.273 356.174 285.183 357.01 284.932 357.805V357.805Z" fill="#263238"/>
<path d="M246.65 377.196C247.164 371.605 247.816 366.283 247.781 366.048C247.198 362.257 240.777 354.404 240.534 345.57C240.29 336.735 249.852 325.387 263.155 325.848C273.43 326.204 278.729 331.587 281.182 339.335C282.688 344.048 281.444 346.1 281.992 348.796C283.062 354.117 284.663 359.335 281.287 367.413C280.601 368.931 279.569 370.266 278.275 371.314C276.98 372.362 275.458 373.093 273.831 373.448C271.638 373.8 269.402 373.8 267.21 373.448C266.983 375.719 266.879 378.001 266.896 380.283C266.89 381.069 267.179 381.829 267.706 382.413C268.232 382.997 268.958 383.364 269.741 383.44C269.741 383.44 252.132 385.474 246.65 377.196Z" fill="#B16668"/>
<path d="M274.379 362.726C274.095 363.491 273.526 364.115 272.791 364.469C272.056 364.822 271.212 364.877 270.438 364.621C269.663 364.365 269.018 363.819 268.639 363.097C268.259 362.376 268.174 361.535 268.402 360.752L274.379 362.726Z" fill="#9A4A4D"/>
<path d="M271.934 364.822C271.669 364.024 271.182 363.317 270.53 362.785C269.879 362.252 269.089 361.915 268.254 361.813C268.267 362.461 268.481 363.089 268.866 363.611C269.251 364.132 269.788 364.522 270.403 364.727C270.897 364.887 271.424 364.92 271.934 364.822V364.822Z" fill="#F28F8F"/>
<path d="M268.837 351.118C268.909 351.43 268.888 351.756 268.776 352.057C268.664 352.357 268.466 352.618 268.207 352.806C267.948 352.995 267.639 353.104 267.318 353.118C266.998 353.133 266.68 353.053 266.405 352.889C266.13 352.725 265.909 352.484 265.77 352.195C265.63 351.906 265.579 351.583 265.622 351.266C265.665 350.948 265.801 350.65 266.012 350.409C266.223 350.168 266.501 349.994 266.81 349.909C267.239 349.801 267.693 349.868 268.073 350.094C268.454 350.321 268.728 350.689 268.837 351.118Z" fill="#263238"/>
<path d="M266.566 345.613L263.364 347.996C263.051 347.555 262.921 347.01 263 346.475C263.08 345.94 263.363 345.457 263.791 345.126C264.003 344.97 264.244 344.859 264.501 344.798C264.757 344.738 265.023 344.731 265.282 344.776C265.542 344.822 265.789 344.92 266.01 345.063C266.231 345.207 266.42 345.394 266.566 345.613V345.613Z" fill="#263238"/>
<path d="M281.078 345.622L277.181 344.605C277.237 344.35 277.345 344.109 277.498 343.897C277.65 343.685 277.844 343.506 278.068 343.371C278.292 343.236 278.54 343.148 278.799 343.112C279.058 343.076 279.321 343.092 279.573 343.161C280.089 343.304 280.532 343.638 280.811 344.095C281.091 344.552 281.186 345.097 281.078 345.622V345.622Z" fill="#263238"/>
<path d="M279.869 349.709C279.845 350.002 279.736 350.282 279.555 350.513C279.374 350.745 279.129 350.918 278.85 351.012C278.571 351.106 278.271 351.117 277.987 351.042C277.702 350.967 277.446 350.811 277.249 350.592C277.053 350.374 276.925 350.102 276.881 349.811C276.837 349.521 276.879 349.224 277.002 348.957C277.125 348.69 277.324 348.465 277.574 348.309C277.824 348.154 278.113 348.075 278.407 348.083C278.611 348.093 278.81 348.143 278.993 348.23C279.177 348.318 279.341 348.44 279.477 348.592C279.613 348.743 279.718 348.919 279.785 349.111C279.852 349.303 279.881 349.506 279.869 349.709V349.709Z" fill="#263238"/>
<path d="M280.548 357.213L274.614 359.605L272.708 348.431L280.548 357.213Z" fill="#9A4A4D"/>
<path d="M267.175 373.413C267.175 373.413 262.381 372.004 260.85 371.057C257.429 368.841 254.88 365.511 253.637 361.63C254.151 364.691 255.482 369.117 259.014 372.222C261.624 374.535 266.975 375.457 266.975 375.457L267.175 373.413Z" fill="#9A4A4D"/>
<path d="M252.932 359.144C252.932 360.778 252.001 363.587 250.279 364.735C248.556 365.883 247.555 366.474 245.989 365.961C245.006 362.874 243.57 359.97 242.37 356.97C240.914 353.236 240.17 349.263 240.177 345.256C240.332 341.641 241.522 338.146 243.605 335.187C245.47 332.436 247.902 330.118 250.74 328.387C252.249 327.459 253.876 326.736 255.577 326.239C257.83 325.654 260.149 325.362 262.477 325.369C263.956 325.31 265.437 325.376 266.905 325.569C272.43 326.378 279.242 331.735 280.504 337.448C278.955 334.491 276.641 334.682 274.666 335.265C273.056 335.743 271.656 338.369 271.186 339.969C270.28 338.917 269.147 338.084 267.871 337.535C266.442 337.21 264.963 337.174 263.521 337.43C262.808 337.519 262.12 337.751 261.499 338.112C260.879 338.474 260.338 338.958 259.91 339.535C259.3 340.535 259.034 341.708 259.153 342.874C259.349 344.077 259.349 345.305 259.153 346.509C258.892 347.491 258.283 347.839 257.822 348.656C257.389 349.456 257.176 350.356 257.204 351.265C257.299 351.965 257.203 352.677 256.926 353.326C256.737 353.6 256.495 353.833 256.214 354.011C255.933 354.189 255.618 354.308 255.29 354.361C255.177 354.361 255.038 354.361 254.968 354.309C254.925 354.251 254.903 354.18 254.907 354.109C254.777 351.77 253.802 349.222 251.653 348.022C249.957 347.048 247.555 347.048 246.163 348.57C244.301 350.604 243.614 353.152 245.58 356.796C247.164 359.77 250.931 360.918 252.932 359.144Z" fill="#263238"/>
<path d="M226.204 391.361C227.327 385.735 228.875 378.883 237.35 377.553C247.555 375.944 253.42 378.17 260.998 379.97C268.576 381.77 273.909 383.57 277.181 385.622C277.181 385.622 282.923 388.327 288.778 400.405C292.015 407.083 293.598 414.536 285.907 422.057C285.907 428.718 285.907 433.632 286.49 436.936C288.622 448.875 289.266 457.806 289.266 457.806C289.266 457.806 277.494 466.501 255.525 466.432C236.758 466.371 225.595 454.432 223.742 451.649C225.344 448.024 227.13 444.483 229.093 441.04C232.869 434.266 232.756 429.858 231.494 423.44C229.545 413.405 224.395 400.553 226.204 391.361Z" fill="#BA68C8"/>
<path d="M339.963 483.006C339.434 483.341 338.936 483.722 338.475 484.146C337.666 484.146 335.813 483.641 333.385 481.537C331.477 479.915 329.867 477.973 328.626 475.798C327.843 474.371 327.756 472.615 329.427 473.041L333.568 469.998C332.676 469.494 331.755 469.044 330.81 468.65C328.567 467.606 326.256 466.714 323.893 465.98C321.666 465.397 320.187 465.197 318.09 462.997C317.638 462.519 314.096 458.241 310.26 453.302C306.022 447.789 295.199 434.101 295.199 434.101C295.199 434.101 291.066 417.258 287.577 402.145C284.436 388.518 281.061 386.492 273.926 383.944C270.063 386.675 268.314 391.492 267.54 395.875C266.773 400.425 266.951 405.084 268.062 409.562C269.533 415.649 272.265 426.797 273.735 431.588C275.823 438.345 276.345 443.067 280.025 446.884C284.993 452.032 295.034 461.154 298.731 464.276C302.087 467.155 305.15 470.359 307.876 473.841C310.964 478.189 314.288 482.806 317.951 484.815C319.426 485.458 321.034 485.742 322.64 485.641C324.129 486.415 325.663 487.097 327.234 487.685C328.504 488.146 331.071 487.589 331.071 487.589C332.15 488.182 333.33 488.568 334.551 488.728C336.587 488.527 338.512 487.708 340.067 486.38C340.99 485.363 339.963 483.006 339.963 483.006Z" fill="#B16668"/>
</svg>
