<svg width="806" height="980" viewBox="0 0 806 980" fill="none" xmlns="http://www.w3.org/2000/svg">
<g opacity="0.13">
<path opacity="0.13" d="M149.56 719.713L444.714 715.705C495.78 715.775 546.005 678.649 576.662 621.272C607.318 563.895 618.42 487.976 608.397 418.476C598.375 348.976 567.957 286.428 526.703 245.224C501.275 219.843 471.53 202.1 440.284 197.349C409.039 192.598 376.364 201.245 349.535 224.72C302.87 265.545 277.596 346.047 227.582 378.169C204.298 393.137 178.128 395.786 153.401 405.05C104.745 423.269 58.4874 475.615 52.0253 545.101C47.2874 596.087 59.1603 634.04 83.6911 674.15C103.975 707.338 120.053 723.525 149.574 719.713" fill="#C1BDB2"/>
</g>
<path d="M553.687 717.695C553.687 722.263 452.452 725.963 327.583 725.963C202.714 725.963 101.465 722.263 101.465 717.695C101.465 713.126 202.7 709.426 327.583 709.426C452.466 709.426 553.687 713.126 553.687 717.695Z" fill="#B3DAC9"/>
<path d="M396.605 672.861C405.198 655.16 415.725 637.824 431.187 625.645C437.102 620.978 443.803 617.082 451.26 615.834C458.717 614.587 466.89 616.157 472.357 621.342C473.38 622.309 474.529 623.486 475.931 623.346C476.842 623.16 477.677 622.706 478.328 622.043C488.056 613.914 499.789 608.546 511.704 604.174C536.417 595.12 563.989 590.047 588.941 598.428C599.734 602.057 610.542 609.247 613.275 620.291C616.009 631.335 609.911 642.547 602.286 650.885C589.67 664.662 572.596 673.73 554.738 679.154C536.879 684.577 518.166 686.567 499.551 687.871C467.198 690.155 427.01 684.213 396.605 672.917" fill="#B3DAC9"/>
<path d="M405.156 669.792C417.996 668.152 430.85 666.526 443.662 664.676C456.475 662.826 469.259 660.794 481.973 658.342C494.686 655.889 507.204 653.044 519.638 649.582C532.071 646.121 544.028 641.958 556.083 637.866C568.07 633.629 580.296 630.101 592.697 627.299C594.225 626.962 595.767 626.668 597.309 626.388C598.318 626.191 598.22 624.58 597.197 624.762C584.767 627.231 572.524 630.561 560.555 634.726C548.458 638.735 536.445 643.051 524.207 646.639C511.97 650.227 499.228 653.268 486.556 655.833C473.884 658.398 461.044 660.528 448.218 662.434C435.392 664.34 422.552 665.994 409.712 667.619L405.044 668.222C404.007 668.348 404.119 669.96 405.156 669.834V669.792Z" fill="white"/>
<path d="M433.318 665.797L456.629 654.053C464.498 650.101 472.357 646.144 480.207 642.182L493.257 635.623C493.434 635.504 493.558 635.319 493.6 635.109C493.642 634.899 493.599 634.681 493.481 634.502C493.361 634.325 493.178 634.202 492.968 634.157C492.759 634.113 492.541 634.151 492.36 634.264L469.049 646.008L445.471 657.879L432.435 664.452C432.257 664.572 432.134 664.757 432.092 664.967C432.05 665.176 432.093 665.394 432.21 665.573C432.335 665.745 432.519 665.864 432.727 665.905C432.935 665.947 433.151 665.908 433.332 665.797H433.318Z" fill="white"/>
<path d="M486.43 657.403C495.037 659.309 503.588 661.425 512.138 663.569C520.955 665.769 529.758 668.026 538.59 670.17C543.262 671.319 547.986 672.422 552.761 673.478C553.771 673.716 554.079 672.076 553.056 671.894C544.463 669.988 535.898 667.872 527.347 665.727C518.544 663.513 509.727 661.271 500.896 659.126C496.224 657.977 491.504 656.87 486.738 655.805C486.527 655.764 486.307 655.809 486.128 655.93C485.95 656.051 485.826 656.238 485.785 656.449C485.744 656.661 485.789 656.881 485.91 657.059C486.031 657.238 486.218 657.362 486.43 657.403V657.403Z" fill="white"/>
<path d="M535.226 644.775C543.074 637.19 551.739 630.497 561.06 624.818C563.583 623.29 566.162 621.861 568.812 620.613C569.013 620.537 569.178 620.388 569.274 620.196C569.37 620.004 569.39 619.783 569.33 619.576C569.257 619.377 569.11 619.213 568.92 619.119C568.729 619.025 568.51 619.008 568.307 619.072C558.372 624.05 549.119 630.286 540.777 637.627C538.464 639.603 536.193 641.636 534.006 643.738C533.935 643.817 533.881 643.909 533.847 644.009C533.812 644.109 533.797 644.214 533.804 644.32C533.81 644.426 533.838 644.529 533.884 644.624C533.931 644.719 533.996 644.804 534.076 644.873C534.232 645.019 534.438 645.1 534.651 645.1C534.864 645.1 535.07 645.019 535.226 644.873V644.775Z" fill="white"/>
<path d="M395.989 626.906C390.26 610.6 389.369 592.986 393.424 576.186C395.182 568.099 398.694 560.497 403.712 553.916C408.885 547.512 416.328 542.704 424.472 541.625C424.993 541.728 425.531 541.704 426.041 541.555C426.55 541.406 427.017 541.137 427.4 540.77C427.784 540.403 428.073 539.949 428.244 539.447C428.415 538.944 428.463 538.408 428.383 537.883C429.687 514.997 445.204 495.558 461.661 479.553C469.203 472.209 477.179 465.146 486.43 460.129C495.682 455.111 506.377 452.224 516.806 453.724C522.924 454.701 528.794 456.857 534.09 460.072C539.212 462.82 543.553 466.822 546.706 471.705C550.378 477.942 550.911 485.72 549.341 492.727C547.543 499.754 544.432 506.378 540.174 512.25C534.373 520.768 527.441 528.458 519.568 535.108C518.572 535.75 517.868 536.756 517.605 537.911C517.479 539.551 519.077 540.714 520.409 541.723C527.418 547.217 529.254 557.532 526.731 566.081C524.208 574.63 518.138 581.68 511.578 587.72C498.051 600.18 481.874 609.528 464.857 616.493C457.337 619.726 449.467 622.078 441.406 623.5C435.308 624.454 429.126 624.622 422.973 625.056C415.109 625.631 403.825 625.869 396.003 626.892" fill="#509D7F"/>
<path d="M401.189 624.495C409.6 615.218 417.889 605.837 426.057 596.354C434.224 586.87 442.308 577.237 450.307 567.455C458.241 557.775 466.049 547.988 473.73 538.094C481.412 528.199 488.968 518.225 496.397 508.172C503.873 498.1 511.171 487.929 518.292 477.661L521.012 473.779C521.6 472.938 520.395 471.845 519.806 472.7C512.657 482.977 505.387 493.171 497.995 503.28C490.603 513.39 483.043 523.429 475.314 533.399C467.67 543.302 459.895 553.113 451.989 562.83C444.083 572.547 436.065 582.156 427.935 591.659C419.805 601.179 411.548 610.588 403.166 619.885L399.984 623.402C399.865 623.565 399.811 623.766 399.832 623.967C399.853 624.168 399.948 624.353 400.098 624.488C400.248 624.622 400.443 624.696 400.645 624.695C400.847 624.694 401.041 624.618 401.189 624.481V624.495Z" fill="white"/>
<path d="M424.108 598.512C426.561 590.005 429.295 581.568 432.196 573.187C435.098 564.806 438.14 556.621 441.266 548.395C443.032 543.714 444.84 539.061 446.634 534.38C446.715 534.287 446.774 534.177 446.807 534.058C446.839 533.94 446.844 533.815 446.821 533.694C446.798 533.573 446.748 533.459 446.675 533.36C446.601 533.261 446.506 533.18 446.397 533.124C446.288 533.067 446.167 533.036 446.044 533.032C445.921 533.029 445.799 533.054 445.687 533.104C445.575 533.155 445.475 533.231 445.397 533.325C445.318 533.42 445.262 533.531 445.233 533.651C442.023 541.948 438.826 550.259 435.757 558.612C432.687 566.964 429.715 575.429 426.968 583.838C425.426 588.585 423.958 593.359 422.566 598.162C422.272 599.157 423.856 599.479 424.15 598.484L424.108 598.512Z" fill="white"/>
<path d="M453.335 563.615C461.185 559.877 468.89 555.888 476.45 551.646C484.131 547.273 491.631 542.592 498.878 537.505C502.821 534.702 506.653 531.801 510.372 528.802C510.547 528.68 510.668 528.495 510.709 528.286C510.751 528.077 510.711 527.86 510.597 527.68C510.477 527.503 510.292 527.38 510.082 527.338C509.872 527.296 509.654 527.338 509.475 527.456C502.771 532.894 495.75 537.93 488.449 542.536C481.075 547.245 473.478 551.604 465.726 555.668C461.465 557.901 457.166 560.041 452.83 562.087C452.63 562.16 452.465 562.307 452.369 562.496C452.273 562.686 452.252 562.906 452.311 563.11C452.346 563.212 452.4 563.305 452.471 563.385C452.542 563.466 452.629 563.531 452.725 563.578C452.821 563.625 452.926 563.652 453.033 563.659C453.14 563.665 453.248 563.65 453.349 563.615H453.335Z" fill="white"/>
<path d="M484.51 523.98C485.965 517.222 487.767 510.542 489.906 503.967C492.037 497.338 494.462 490.793 497.083 484.346C498.485 480.744 500.069 477.171 501.639 473.625C502.06 472.672 500.63 471.929 500.237 472.882C497.434 479.245 494.757 485.692 492.332 492.223C489.907 498.754 487.65 505.509 485.771 512.292C484.725 516.029 483.79 519.827 482.968 523.686C482.925 523.898 482.968 524.118 483.088 524.298C483.207 524.478 483.394 524.603 483.606 524.646C483.817 524.689 484.038 524.646 484.218 524.526C484.398 524.407 484.523 524.22 484.566 524.008L484.51 523.98Z" fill="white"/>
<path d="M485.912 597.699C490.285 594.074 494.808 590.635 499.481 587.384C504.153 584.133 508.966 581.077 513.919 578.218C518.816 575.415 523.82 572.799 528.932 570.37C534.09 567.945 539.361 565.745 544.701 563.769C550.042 561.793 555.453 560.055 560.934 558.555C561.607 558.359 562.335 558.177 562.966 558.009C563.204 557.933 563.402 557.765 563.516 557.543C563.631 557.321 563.652 557.062 563.576 556.824C563.5 556.587 563.332 556.389 563.11 556.274C562.888 556.16 562.629 556.139 562.392 556.215C556.855 557.616 551.374 559.382 545.991 561.302C540.608 563.222 535.366 565.367 530.207 567.721C525.049 570.076 519.82 572.724 514.788 575.555C509.755 578.386 504.975 581.358 500.238 584.567C495.5 587.776 490.944 591.182 486.528 594.77L484.888 596.171C484.686 596.313 484.545 596.526 484.493 596.768C484.441 597.01 484.482 597.262 484.608 597.475C484.745 597.679 484.956 597.822 485.196 597.874C485.437 597.926 485.688 597.884 485.898 597.755L485.912 597.699Z" fill="#1E976F"/>
<path d="M550.056 560.63C562.775 552.647 576.794 546.955 591.478 543.812C597.323 542.578 603.491 541.765 609.21 543.475C611.888 544.274 614.817 546.755 613.71 549.306C613.284 550.135 612.646 550.836 611.86 551.338C605.047 556.061 596.665 557.841 588.492 559.2C575.372 561.372 563.387 560.139 550.112 560.602" fill="#1E976F"/>
<path d="M528.581 568.996C534.332 555.133 542.479 542.391 552.649 531.352C556.701 526.952 561.256 522.733 566.919 520.813C569.555 519.916 573.409 520.225 573.928 522.957C574.039 523.885 573.894 524.825 573.508 525.676C570.704 533.469 564.901 539.775 559.013 545.62C549.58 554.982 539.094 560.91 528.553 568.996" fill="#1E976F"/>
<path d="M534.244 566.095C549.025 563.474 564.152 563.474 578.932 566.095C584.82 567.132 590.833 568.674 595.501 572.416C597.674 574.154 599.496 577.559 597.491 579.493C596.77 580.084 595.904 580.471 594.982 580.615C586.894 582.451 578.456 580.965 570.367 579.213C557.401 576.326 546.734 570.706 534.244 566.193" fill="#1E976F"/>
<path d="M505.326 582.072C507.915 567.269 513.092 553.036 520.619 540.028C523.619 534.856 527.138 529.741 532.254 526.643C534.637 525.242 538.464 524.653 539.585 527.204C539.896 528.081 539.964 529.025 539.781 529.937C538.73 538.164 534.441 545.578 529.969 552.557C522.792 563.769 513.849 571.828 505.326 581.988" fill="#1E976F"/>
<path d="M491.308 592.261C490.808 579.648 492.526 567.044 496.383 555.024C497.911 550.245 499.901 545.409 503.546 541.948C505.242 540.336 508.284 539.145 509.671 541.093C510.084 541.763 510.307 542.534 510.316 543.321C510.919 550.259 508.718 557.126 506.293 563.657C502.41 574.126 496.481 582.367 491.308 592.261Z" fill="#1E976F"/>
<path d="M509.125 580.026C523.911 577.412 539.041 577.412 553.827 580.026C559.7 581.077 565.728 582.619 570.396 586.347C572.569 588.099 574.391 591.505 572.386 593.439C571.665 594.029 570.798 594.416 569.877 594.56C561.789 596.382 553.351 594.91 545.248 593.158C532.282 590.271 521.629 584.651 509.125 580.138" fill="#1E976F"/>
<path d="M496.369 588.575C507.768 588.424 519.104 590.284 529.857 594.069C534.132 595.569 538.449 597.475 541.477 600.838C542.879 602.422 543.846 605.197 542.094 606.444C541.483 606.804 540.785 606.988 540.076 606.977C533.796 607.355 527.656 605.197 521.853 602.856C512.489 599.086 505.2 593.564 496.397 588.631" fill="#1E976F"/>
<path d="M215.61 690.366C213.774 673.464 210.256 656.309 201.242 641.902C197.78 636.38 193.435 631.237 187.786 628.027C182.136 624.818 174.987 623.739 169.016 626.359C168.507 626.694 167.934 626.92 167.333 627.023C166.733 627.127 166.118 627.106 165.526 626.962C164.838 626.547 164.295 625.931 163.97 625.196C158.363 615.75 150.443 607.958 142.018 600.95C124.552 586.375 103.61 574.224 80.8734 573.775C71.0611 573.593 60.1554 576.284 54.7166 584.483C49.2778 592.682 50.9739 603.557 54.7166 612.513C60.9684 627.369 72.1825 639.73 85.1768 649.344C98.1711 658.958 112.834 666.008 127.524 672.497C153.162 683.708 187.589 690.646 215.61 690.31" fill="#B3DAC9"/>
<path d="M209.555 685.32C199.574 680.261 189.608 675.188 179.711 669.904C169.815 664.62 160.087 659.281 150.415 653.577C140.743 647.873 131.421 641.93 122.379 635.497C113.338 629.065 104.717 622.253 96.0124 615.4C87.5185 608.458 78.6255 602.019 69.379 596.115C68.2295 595.401 67.0661 594.714 65.9026 594.027C65.1316 593.579 65.6783 592.303 66.4633 592.752C75.8541 598.376 84.8423 604.647 93.3631 611.518C102.04 618.315 110.535 625.308 119.45 631.797C128.365 638.286 137.841 644.411 147.387 650.241C156.933 656.071 166.773 661.453 176.656 666.765C186.538 672.076 196.49 677.122 206.457 682.181L210.088 684.031C210.887 684.437 210.326 685.713 209.527 685.306L209.555 685.32Z" fill="white"/>
<path d="M187.814 673.87L172.268 657.543L156.541 641.019C153.653 637.964 150.756 634.918 147.85 631.881C147.738 631.733 147.69 631.546 147.717 631.362C147.743 631.178 147.841 631.012 147.99 630.9C148.14 630.792 148.326 630.747 148.509 630.773C148.692 630.799 148.857 630.895 148.971 631.041L164.517 647.382L180.23 663.891L188.935 673.043C189.022 673.192 189.05 673.368 189.015 673.537C188.98 673.706 188.884 673.857 188.745 673.959C188.606 674.062 188.434 674.109 188.262 674.093C188.091 674.076 187.931 673.997 187.814 673.87V673.87Z" fill="white"/>
<path d="M147.064 651.586C139.509 650.633 131.925 649.862 124.356 649.106C116.534 648.335 108.726 647.606 100.918 646.779C96.7599 646.34 92.5966 645.873 88.4287 645.378C87.5316 645.266 87.7559 643.878 88.639 643.976C96.1945 644.929 103.778 645.7 111.348 646.457C119.155 647.228 126.977 647.956 134.785 648.783C138.943 649.213 143.107 649.68 147.275 650.185C148.172 650.297 147.947 651.684 147.064 651.586Z" fill="white"/>
<path d="M111.053 627.102C106.875 618.651 101.779 610.684 95.8583 603.347C94.2463 601.371 92.5642 599.465 90.7839 597.643C90.6433 597.525 90.5523 597.359 90.5289 597.177C90.5055 596.995 90.5515 596.811 90.6578 596.662C90.7734 596.518 90.9415 596.425 91.1253 596.404C91.3091 596.383 91.4938 596.435 91.639 596.55C98.2674 603.49 103.977 611.252 108.628 619.646C109.937 621.926 111.18 624.262 112.357 626.654C112.422 626.825 112.417 627.015 112.343 627.182C112.27 627.35 112.134 627.482 111.964 627.551C111.791 627.616 111.6 627.612 111.43 627.538C111.26 627.465 111.125 627.329 111.053 627.158V627.102Z" fill="white"/>
<path d="M215.162 595.064C210.396 591.953 205.77 588.655 201.285 585.17C196.799 581.685 192.453 577.989 188.248 574.084C184.113 570.258 180.118 566.25 176.319 562.073C172.52 557.897 168.82 553.482 165.343 548.955C161.867 544.428 158.615 539.789 155.531 535.01L154.396 533.23C154.254 533.026 154.037 532.887 153.793 532.842C153.549 532.798 153.297 532.851 153.092 532.992C152.889 533.138 152.752 533.359 152.71 533.605C152.668 533.851 152.725 534.104 152.868 534.31C155.896 539.159 159.134 543.877 162.582 548.465C165.988 553.005 169.591 557.392 173.39 561.639C177.188 565.885 181.239 570.048 185.417 574.028C189.594 578.008 193.827 581.694 198.327 585.24C202.826 588.786 207.41 592.163 212.148 595.317L213.914 596.48C214.092 596.622 214.313 596.699 214.541 596.697C214.768 596.694 214.988 596.612 215.162 596.466C215.261 596.378 215.34 596.27 215.394 596.149C215.448 596.028 215.476 595.897 215.476 595.765C215.476 595.633 215.448 595.502 215.394 595.381C215.34 595.26 215.261 595.152 215.162 595.064V595.064Z" fill="#1E976F"/>
<path d="M160.704 544.821C149.333 535.03 139.773 523.318 132.458 510.218C129.542 505.004 126.949 499.356 126.851 493.4C126.851 490.597 128.253 487.051 131.056 487.374C131.976 487.561 132.828 487.992 133.523 488.621C140.042 493.722 144.233 501.234 147.948 508.606C153.905 520.491 156.274 532.291 160.676 544.835" fill="#1E976F"/>
<path d="M175.058 562.83C160.106 561.442 145.515 557.434 131.954 550.987C126.571 548.423 121.174 545.381 117.67 540.49C116.044 538.234 115.189 534.464 117.67 533.132C118.525 532.759 119.463 532.619 120.389 532.726C128.674 533.104 136.411 536.776 143.743 540.672C155.475 546.909 164.25 555.164 175.1 562.83" fill="#1E976F"/>
<path d="M170.6 558.303C163.708 544.971 159.214 530.53 157.326 515.641C156.583 509.713 156.288 503.505 158.461 497.941C159.484 495.348 162.204 492.601 164.643 493.946C165.424 494.459 166.05 495.177 166.451 496.02C170.656 503.196 171.68 511.689 172.352 519.944C173.432 533.188 171.217 545.031 170.6 558.303Z" fill="#1E976F"/>
<path d="M194.43 581.246C179.539 583.136 164.432 582.396 149.798 579.059C143.967 577.728 138.037 575.878 133.566 571.926C131.477 570.076 129.837 566.586 131.926 564.75C132.676 564.194 133.562 563.85 134.491 563.755C142.663 562.353 151.017 564.231 159.008 566.432C171.82 569.964 182.179 576.116 194.43 581.246" fill="#1E976F"/>
<path d="M208.322 591.589C196.419 595.798 183.87 597.889 171.245 597.769C166.227 597.769 161.012 597.251 156.625 594.798C154.592 593.649 152.602 591.084 154.003 589.192C154.516 588.594 155.186 588.152 155.938 587.917C162.386 585.282 169.591 585.352 176.558 585.73C187.772 586.347 197.332 589.542 208.322 591.575" fill="#1E976F"/>
<path d="M191.332 578.162C184.439 564.83 179.946 550.39 178.058 535.501C177.301 529.572 177.006 523.364 179.193 517.8C180.202 515.207 182.922 512.46 185.361 513.806C186.146 514.318 186.776 515.035 187.183 515.88C191.318 523.056 192.412 531.549 193.084 539.803C194.164 553.047 191.935 564.89 191.332 578.162" fill="#1E976F"/>
<path d="M203.289 587.818C199.77 576.967 198.19 565.582 198.621 554.183C198.789 549.642 199.336 544.961 201.663 541.065C202.742 539.243 205.111 537.519 206.779 538.836C207.298 539.317 207.68 539.926 207.887 540.602C210.101 546.488 209.863 552.991 209.288 559.27C208.461 569.319 205.335 577.91 203.233 587.776" fill="#1E976F"/>
<path d="M361.87 420.452C361.87 394.062 342.834 377.37 314.07 377.37C290.45 377.37 271.456 387.853 257.579 405.708C255.347 408.648 252.063 410.607 248.416 411.174C244.769 411.741 241.044 410.872 238.024 408.75L206.962 386.564C203.995 384.462 201.956 381.295 201.269 377.725C200.582 374.156 201.3 370.458 203.275 367.406C227.918 329.986 267.251 306.805 321.597 306.805C387.971 306.805 433.99 342.894 433.99 406.451C433.99 486.504 369.846 500.561 360.72 547.918C360.107 551.15 358.386 554.068 355.853 556.168C353.32 558.268 350.134 559.42 346.843 559.424H307.958C305.941 559.429 303.946 559.001 302.108 558.169C300.27 557.338 298.632 556.122 297.303 554.604C295.975 553.086 294.987 551.301 294.407 549.369C293.827 547.437 293.668 545.404 293.941 543.405C302.8 481.347 361.87 463.8 361.87 420.452ZM283.974 645.602C283.974 618.133 301.678 604.02 326.461 604.02C351.245 604.02 368.949 618.133 368.949 645.602C368.949 672.539 351.245 688.698 326.461 688.698C301.678 688.698 283.974 672.539 283.974 645.602Z" fill="#E0AB6C"/>
<path d="M370.827 420.214C370.827 393.824 351.792 377.118 323.028 377.118C299.422 377.118 280.414 387.615 266.537 405.47C264.308 408.409 261.024 410.368 257.378 410.932C253.733 411.497 250.01 410.624 246.996 408.497L215.919 386.312C212.957 384.21 210.92 381.046 210.233 377.479C209.546 373.913 210.262 370.219 212.233 367.167C236.889 329.734 276.209 306.567 330.555 306.567C396.928 306.567 442.962 342.655 442.962 406.213C442.962 486.266 378.803 500.323 369.692 547.68C369.076 550.913 367.352 553.831 364.817 555.931C362.281 558.031 359.093 559.182 355.801 559.186H316.93C314.913 559.19 312.918 558.762 311.08 557.931C309.242 557.099 307.603 555.884 306.275 554.366C304.947 552.848 303.959 551.063 303.379 549.131C302.799 547.199 302.64 545.165 302.912 543.167C311.757 481.095 370.827 463.562 370.827 420.214ZM292.946 645.364C292.946 617.894 310.636 603.781 335.419 603.781C360.202 603.781 377.906 617.894 377.906 645.364C377.906 672.3 360.202 688.46 335.419 688.46C310.636 688.46 292.946 672.3 292.946 645.364Z" fill="#F3D1A4"/>
<path d="M529.366 327.856C530.614 322.782 527.74 318.662 522.217 317.303C520.106 316.767 517.897 316.742 515.774 317.23C513.651 317.717 511.675 318.703 510.008 320.106C509.442 320.572 508.715 320.799 507.984 320.736C507.253 320.673 506.575 320.326 506.097 319.769L501.177 314.023C500.71 313.478 500.47 312.774 500.506 312.057C500.543 311.34 500.853 310.664 501.373 310.169C507.891 304.143 516.554 301.55 526.997 304.114C539.767 307.254 546.902 316.378 543.903 328.599C540.104 344.015 527.081 343.665 523.1 352.34C522.829 352.931 522.361 353.41 521.775 353.694C521.189 353.978 520.523 354.049 519.89 353.895L512.419 352.06C512.029 351.965 511.664 351.789 511.348 351.541C511.032 351.294 510.773 350.982 510.589 350.625C510.404 350.269 510.298 349.878 510.278 349.477C510.257 349.077 510.323 348.676 510.471 348.304C515.138 336.769 527.306 336.195 529.366 327.856ZM503.714 367.462C505.018 362.178 509.097 360.3 513.863 361.478C518.629 362.655 521.362 366.201 520.059 371.484C519.525 373.651 518.152 375.518 516.243 376.673C514.333 377.828 512.042 378.177 509.875 377.644C507.707 377.11 505.841 375.738 504.685 373.829C503.53 371.919 503.181 369.629 503.714 367.462V367.462Z" fill="#B3DAC9"/>
<path d="M148.438 396.697C145.915 392.128 141.009 391.091 136.032 393.81C134.132 394.853 132.505 396.331 131.287 398.124C130.068 399.917 129.293 401.974 129.024 404.125C128.926 404.852 128.546 405.512 127.967 405.963C127.388 406.413 126.655 406.619 125.926 406.535L118.412 405.666C117.699 405.582 117.045 405.226 116.585 404.673C116.126 404.12 115.897 403.412 115.945 402.695C116.632 393.852 121.216 386.06 130.636 380.86C142.144 374.497 153.582 376.347 159.68 387.363C167.348 401.238 157.577 409.787 160.535 418.897C160.738 419.515 160.718 420.185 160.48 420.792C160.242 421.398 159.801 421.902 159.232 422.218L152.489 425.946C152.142 426.14 151.757 426.258 151.36 426.291C150.963 426.325 150.564 426.274 150.189 426.141C149.814 426.009 149.471 425.798 149.184 425.522C148.896 425.247 148.671 424.914 148.522 424.545C144.036 412.87 152.601 404.209 148.438 396.697ZM156.526 443.184C153.891 438.419 155.601 434.285 159.904 431.973C164.208 429.66 168.623 430.347 171.245 435.112C172.325 437.063 172.585 439.364 171.969 441.507C171.352 443.65 169.909 445.461 167.958 446.541C166.006 447.621 163.705 447.881 161.561 447.265C159.417 446.648 157.606 445.206 156.526 443.254V443.184Z" fill="#B3DAC9"/>
<path d="M338.881 231.839C338.951 227.635 335.952 224.832 331.34 224.832C329.577 224.784 327.829 225.157 326.239 225.92C324.65 226.683 323.265 227.814 322.2 229.219C321.833 229.68 321.302 229.983 320.717 230.064C320.133 230.144 319.54 229.997 319.06 229.653L314.14 226.009C313.671 225.664 313.352 225.151 313.25 224.577C313.148 224.003 313.271 223.412 313.594 222.926C317.659 216.998 324.023 213.382 332.742 213.536C343.381 213.718 350.67 219.632 350.488 229.821C350.264 242.659 339.933 244.747 338.349 252.245C338.241 252.76 337.956 253.222 337.544 253.549C337.132 253.877 336.618 254.05 336.092 254.039L329.854 253.941C329.531 253.934 329.212 253.859 328.92 253.72C328.628 253.582 328.369 253.382 328.16 253.136C327.95 252.89 327.796 252.602 327.706 252.291C327.616 251.98 327.593 251.654 327.639 251.334C329.237 241.44 338.755 238.791 338.881 231.839ZM325.761 267.732C325.845 263.331 328.719 261.117 332.7 261.187C336.681 261.257 339.47 263.569 339.386 267.97C339.354 269.776 338.606 271.496 337.306 272.751C336.006 274.006 334.261 274.694 332.454 274.662C330.647 274.63 328.927 273.883 327.672 272.583C326.417 271.283 325.729 269.538 325.761 267.732V267.732Z" fill="#B3DAC9"/>
<path d="M441.027 680.317C438.926 687.64 438.386 695.322 439.443 702.867C439.443 702.867 428.776 708.473 418.319 701.325C418.319 701.325 427.01 694.724 424.276 676.995" fill="#FF9670"/>
<path d="M394.054 713.546C394.352 712.889 394.84 712.337 395.456 711.962C399.002 709.944 407.637 705.165 420.688 698.746C426.69 700.359 432.959 700.722 439.107 699.811C439.794 704.212 440.146 708.658 440.158 713.112C433.402 713.406 407.203 714.471 394.054 713.546Z" fill="#602B29"/>
<path d="M440.214 713.112C440.214 714.611 440.116 716.055 440.018 717.316H393.676V715.144C393.686 714.604 393.816 714.073 394.054 713.588C407.203 714.471 433.402 713.406 440.214 713.112Z" fill="#400E09"/>
<path d="M409.376 706.329C409.378 706.493 409.332 706.655 409.242 706.793C409.152 706.931 409.023 707.039 408.872 707.104C408.72 707.168 408.552 707.186 408.391 707.154C408.229 707.123 408.08 707.044 407.964 706.927C407.847 706.811 407.768 706.662 407.737 706.5C407.705 706.339 407.723 706.171 407.787 706.02C407.852 705.868 407.96 705.739 408.098 705.649C408.236 705.559 408.398 705.513 408.563 705.516C408.778 705.516 408.985 705.601 409.138 705.754C409.29 705.906 409.376 706.113 409.376 706.329V706.329Z" fill="#400E09"/>
<path d="M415.515 703.708C415.515 703.872 415.467 704.032 415.375 704.169C415.284 704.305 415.153 704.411 415.002 704.473C414.85 704.535 414.683 704.551 414.522 704.518C414.361 704.485 414.214 704.404 414.099 704.287C413.984 704.17 413.906 704.022 413.876 703.86C413.845 703.699 413.864 703.532 413.928 703.382C413.993 703.231 414.101 703.103 414.239 703.013C414.377 702.924 414.538 702.878 414.702 702.881C414.81 702.881 414.917 702.902 415.017 702.944C415.116 702.986 415.207 703.047 415.282 703.124C415.358 703.201 415.418 703.292 415.458 703.393C415.498 703.493 415.517 703.6 415.515 703.708Z" fill="#400E09"/>
<path d="M421.585 700.498C421.585 700.718 421.498 700.928 421.343 701.083C421.187 701.238 420.977 701.325 420.758 701.325C420.538 701.325 420.328 701.238 420.173 701.083C420.018 700.928 419.931 700.718 419.931 700.498C419.931 700.279 420.018 700.069 420.173 699.914C420.328 699.758 420.538 699.671 420.758 699.671C420.977 699.671 421.187 699.758 421.343 699.914C421.498 700.069 421.585 700.279 421.585 700.498V700.498Z" fill="#400E09"/>
<path d="M470.17 675.328C470.17 675.328 475.469 695.607 473.044 703.666C473.044 703.666 483.711 709.272 494.168 702.138C494.168 702.138 483.963 698.704 487.44 669.904" fill="#FF9670"/>
<path d="M518.489 714.359C518.191 713.703 517.703 713.151 517.087 712.776C513.54 710.757 504.906 705.978 491.855 699.56C485.853 701.171 479.583 701.529 473.436 700.611C472.749 705.016 472.397 709.467 472.385 713.925C479.141 714.191 505.326 715.27 518.489 714.359Z" fill="#602B29"/>
<path d="M472.329 713.925C472.329 715.424 472.427 716.854 472.525 718.129H518.867V715.957C518.858 715.417 518.729 714.885 518.489 714.401C505.326 715.27 479.141 714.191 472.329 713.925Z" fill="#400E09"/>
<path d="M493.565 701.844C493.565 702.007 493.517 702.167 493.426 702.303C493.335 702.439 493.206 702.545 493.055 702.608C492.904 702.67 492.737 702.687 492.577 702.655C492.416 702.623 492.269 702.544 492.153 702.429C492.038 702.313 491.959 702.166 491.927 702.005C491.895 701.845 491.911 701.678 491.974 701.527C492.037 701.376 492.143 701.247 492.279 701.156C492.415 701.065 492.575 701.017 492.738 701.017C492.847 701.015 492.956 701.035 493.057 701.076C493.158 701.117 493.25 701.178 493.327 701.255C493.404 701.332 493.465 701.424 493.506 701.525C493.547 701.626 493.567 701.735 493.565 701.844V701.844Z" fill="#400E09"/>
<path d="M507.583 708.585C507.583 708.749 507.534 708.91 507.442 709.046C507.351 709.182 507.221 709.288 507.069 709.35C506.917 709.412 506.75 709.428 506.589 709.395C506.428 709.362 506.281 709.282 506.166 709.165C506.051 709.048 505.973 708.899 505.943 708.738C505.913 708.576 505.931 708.41 505.996 708.259C506.061 708.108 506.169 707.98 506.307 707.891C506.444 707.802 506.606 707.755 506.77 707.758C506.987 707.762 507.193 707.851 507.346 708.005C507.498 708.16 507.583 708.368 507.583 708.585V708.585Z" fill="#400E09"/>
<path d="M499.873 705.39C499.876 705.554 499.83 705.715 499.741 705.853C499.652 705.991 499.523 706.099 499.373 706.163C499.222 706.228 499.055 706.247 498.894 706.216C498.732 706.186 498.584 706.108 498.466 705.993C498.349 705.878 498.269 705.731 498.236 705.57C498.203 705.409 498.219 705.242 498.281 705.091C498.343 704.939 498.449 704.809 498.585 704.717C498.722 704.626 498.882 704.577 499.046 704.577C499.154 704.575 499.261 704.595 499.362 704.635C499.462 704.675 499.553 704.734 499.63 704.81C499.707 704.886 499.768 704.976 499.81 705.075C499.852 705.175 499.873 705.282 499.873 705.39V705.39Z" fill="#400E09"/>
<path d="M435.322 353.713C438.509 359.33 439.441 365.948 437.929 372.227C436.353 378.546 433.532 384.488 429.631 389.703C436.731 394.406 444.957 397.129 453.461 397.594C456.797 397.951 460.17 397.469 463.273 396.192C460.458 393.432 458.476 389.935 457.554 386.102C455.398 378.883 454.759 371.296 455.676 363.818" fill="#FF9670"/>
<path d="M444.616 366.004C447.961 367.881 451.545 369.295 455.269 370.209C455.279 368.058 455.415 365.91 455.676 363.776L435.322 353.713C436.113 355.041 436.757 356.45 437.243 357.918C438.888 361.255 441.444 364.058 444.616 366.004V366.004Z" fill="#FC7F51"/>
<path d="M472.988 337.345L466.925 338.552L467.106 339.46L473.169 338.252L472.988 337.345Z" fill="#D03711"/>
<path d="M446.662 321.843C452.27 320.302 458.591 322.488 462.811 326.552C467.144 330.971 470.021 336.61 471.053 342.712C471.824 347.768 471.852 352.909 471.137 357.974C470.863 360.12 470.147 362.186 469.035 364.042C468.106 365.305 466.837 366.277 465.376 366.845C461.971 367.694 458.424 367.799 454.975 367.154C449.214 366.13 444.153 364.351 440.046 360.216C435.939 356.082 435.771 352.13 436.556 346.313" fill="#FF9670"/>
<path d="M437.705 351.205C436.884 350.501 435.931 349.967 434.902 349.635C434.39 349.471 433.849 349.417 433.315 349.478C432.781 349.538 432.266 349.711 431.804 349.985C431.384 350.282 431.034 350.666 430.777 351.111C430.521 351.556 430.364 352.052 430.318 352.564C430.227 353.592 430.421 354.625 430.879 355.549C431.225 356.397 431.766 357.152 432.457 357.753C433.149 358.355 433.972 358.785 434.86 359.011C435.756 359.198 436.691 359.052 437.488 358.601C438.285 358.149 438.89 357.423 439.191 356.558C439.375 355.35 439.158 354.114 438.574 353.04" fill="#FF9670"/>
<path d="M436.303 352.312C436.018 352.063 435.684 351.877 435.322 351.765C435.142 351.709 434.952 351.69 434.764 351.71C434.576 351.729 434.394 351.786 434.229 351.877C434.079 351.985 433.954 352.123 433.862 352.282C433.77 352.442 433.714 352.619 433.696 352.802C433.67 353.164 433.737 353.526 433.892 353.853C434.018 354.151 434.209 354.417 434.452 354.631C434.695 354.844 434.982 355 435.294 355.087C435.612 355.141 435.939 355.085 436.219 354.926C436.5 354.768 436.718 354.518 436.836 354.218C436.901 353.789 436.822 353.35 436.612 352.971" fill="#FC7F51"/>
<path d="M430.542 331.766C428.542 332.039 426.514 332.039 424.515 331.766C422.781 331.587 421.099 331.068 419.566 330.238C418.246 329.421 417.114 328.333 416.246 327.045C415.378 325.757 414.795 324.299 414.534 322.768C414.047 319.683 414.537 316.522 415.936 313.729C416.992 311.28 418.844 309.26 421.192 307.996C423.818 306.914 426.722 306.702 429.477 307.394C432.785 308.024 436.191 309.426 437.985 312.285C440.088 315.649 439.387 320.007 438.21 323.805" fill="#2D0E0B"/>
<path d="M470.562 332.887C469.888 329.422 468.313 326.196 465.994 323.534C463.676 320.872 460.697 318.867 457.358 317.723C453.996 316.648 450.442 316.313 446.939 316.738C443.436 317.164 440.066 318.341 437.06 320.19C435.133 321.4 433.284 322.729 431.523 324.17C429.925 325.329 428.467 326.669 427.178 328.164C425.009 331.044 423.9 334.583 424.038 338.185C424.198 341.758 425.065 345.264 426.589 348.5C426.955 349.632 427.678 350.615 428.65 351.303C430.794 352.522 433.359 350.742 435.813 350.504C436.095 350.453 436.386 350.497 436.64 350.63C436.795 350.78 436.917 350.961 436.997 351.162C437.077 351.362 437.112 351.578 437.102 351.793C437.681 358.379 439.493 364.797 442.443 370.713C442.962 371.94 443.753 373.032 444.756 373.909C442.458 366.686 441.378 359.132 441.56 351.555C441.56 351.555 441.644 350.406 441.644 350.378C441.742 349.172 442.036 347.112 442.12 346.678C442.905 342.908 443.718 341.66 444.503 337.876L446.648 342.487C446.684 342.75 446.793 342.997 446.963 343.2C447.134 343.403 447.358 343.553 447.61 343.634C447.863 343.714 448.133 343.722 448.389 343.656C448.645 343.589 448.878 343.451 449.059 343.258L457.287 338.535C457.451 338.485 457.604 338.404 457.736 338.295C457.868 338.187 457.978 338.053 458.059 337.902C458.14 337.751 458.19 337.586 458.206 337.416C458.223 337.245 458.206 337.073 458.157 336.909L457.652 332.018L461.857 336.068C462.106 336.345 462.426 336.549 462.782 336.657C463.14 336.689 463.499 336.621 463.82 336.461L469.833 334.162C470.064 334.101 470.27 333.969 470.422 333.784C470.508 333.653 470.565 333.506 470.59 333.351C470.614 333.196 470.604 333.038 470.562 332.887V332.887Z" fill="#2D0E0B"/>
<path d="M425.258 332.887C429.104 327.328 433.993 322.569 439.654 318.872C440.063 318.611 440.372 318.219 440.53 317.76C440.687 317.301 440.685 316.802 440.522 316.345C440.359 315.887 440.046 315.499 439.634 315.243C439.221 314.986 438.734 314.878 438.252 314.934C431.832 315.789 423.828 319.321 421.431 331.149C421.336 331.627 421.406 332.122 421.628 332.555C421.85 332.988 422.212 333.333 422.656 333.534C423.099 333.735 423.597 333.781 424.069 333.663C424.542 333.546 424.96 333.272 425.258 332.887V332.887Z" fill="#D03711"/>
<path d="M456.265 340.161C453.461 340.161 449.957 340.497 448.597 342.165C447.924 343.006 447.041 342.879 447.658 341.983C449.536 339.18 452.284 338.801 456.321 338.437C456.436 338.44 456.55 338.467 456.654 338.516C456.759 338.565 456.852 338.635 456.929 338.722C457.005 338.809 457.063 338.911 457.098 339.021C457.133 339.131 457.145 339.247 457.134 339.362C457.13 339.472 457.105 339.58 457.059 339.68C457.013 339.779 456.948 339.869 456.867 339.944C456.786 340.018 456.691 340.075 456.588 340.113C456.484 340.15 456.374 340.166 456.265 340.161V340.161Z" fill="#2D0E0B"/>
<path d="M447.742 354.007C448.373 356.04 451.303 356.937 454.274 356.012C457.246 355.087 459.166 352.704 458.48 350.672C457.793 348.64 454.933 347.743 451.947 348.668C448.962 349.593 447.125 351.961 447.742 354.007Z" fill="#FC7F51"/>
<path d="M466.413 339.278C466.637 340.049 467.198 340.567 467.633 340.427C468.067 340.287 468.25 339.558 468.011 338.787C467.773 338.017 467.226 337.512 466.778 337.652C466.329 337.792 466.175 338.591 466.413 339.278Z" fill="#2D0E0B"/>
<path d="M453.629 344.407C453.895 345.276 454.61 345.809 455.213 345.641C455.533 345.455 455.772 345.157 455.883 344.804C455.995 344.452 455.971 344.07 455.816 343.735C455.535 342.866 454.835 342.333 454.232 342.501C453.629 342.67 453.363 343.538 453.629 344.407Z" fill="#2D0E0B"/>
<path d="M464.675 348.037C465.124 347.76 465.511 347.393 465.81 346.958C464.863 346.468 464.034 345.775 463.382 344.93C462.731 344.085 462.273 343.108 462.04 342.067C462.003 341.931 462.019 341.787 462.084 341.662C462.149 341.537 462.258 341.442 462.39 341.394C462.457 341.372 462.528 341.364 462.599 341.37C462.669 341.376 462.737 341.396 462.8 341.428C462.863 341.461 462.918 341.506 462.963 341.56C463.008 341.614 463.042 341.677 463.063 341.744C463.274 342.754 463.731 343.695 464.394 344.485C465.056 345.275 465.904 345.888 466.862 346.271C466.989 346.337 467.086 346.45 467.13 346.587C467.175 346.723 467.164 346.871 467.1 347C466.675 347.8 466.041 348.468 465.264 348.934C464.675 349.284 464.142 348.401 464.675 348.037Z" fill="#F46E45"/>
<path d="M468.362 352.326C467.556 353.046 466.613 353.595 465.589 353.939C464.565 354.284 463.481 354.417 462.404 354.33C462.404 354.33 468.208 357.063 468.362 352.326Z" fill="#E53E3E"/>
<path d="M453.769 351.275C452.705 351.265 451.659 350.991 450.728 350.476C449.22 349.628 448.096 348.233 447.588 346.58C447.051 344.951 447.182 343.177 447.952 341.645C448.722 340.114 450.068 338.95 451.695 338.409C452.496 338.159 453.339 338.077 454.174 338.166C455.008 338.255 455.815 338.514 456.545 338.927C458.056 339.772 459.181 341.168 459.685 342.824C459.953 343.629 460.059 344.479 459.999 345.325C459.938 346.172 459.711 346.998 459.331 347.757C458.951 348.515 458.425 349.192 457.783 349.747C457.142 350.303 456.397 350.727 455.592 350.994C455.001 351.177 454.387 351.272 453.769 351.275V351.275ZM453.503 339.054C452.98 339.056 452.46 339.137 451.961 339.292C450.58 339.774 449.442 340.776 448.79 342.086C448.138 343.395 448.023 344.907 448.471 346.299C448.897 347.731 449.868 348.939 451.176 349.663C451.798 350.016 452.486 350.239 453.197 350.316C453.908 350.393 454.628 350.323 455.311 350.111C456.692 349.629 457.83 348.627 458.482 347.318C459.135 346.008 459.249 344.496 458.802 343.104C458.375 341.672 457.404 340.464 456.096 339.74C455.294 339.281 454.385 339.044 453.461 339.054H453.503Z" fill="#D03711"/>
<path d="M468.446 345.599C467.038 345.496 465.703 344.937 464.643 344.006C463.583 343.075 462.856 341.823 462.572 340.441C461.675 336.924 463.385 333.434 466.385 332.677C467.132 332.498 467.909 332.487 468.66 332.644C469.412 332.802 470.119 333.124 470.73 333.588C472.083 334.594 473.041 336.042 473.436 337.68V337.68C473.873 339.305 473.724 341.032 473.015 342.557C472.701 343.259 472.235 343.882 471.651 344.381C471.067 344.88 470.379 345.244 469.637 345.445C469.248 345.544 468.848 345.596 468.446 345.599V345.599ZM467.576 333.448C467.25 333.448 466.925 333.491 466.609 333.574C464.114 334.205 462.698 337.19 463.469 340.217C464.24 343.244 466.904 345.192 469.413 344.548C470.03 344.389 470.603 344.092 471.089 343.679C471.575 343.266 471.96 342.749 472.216 342.165C472.814 340.846 472.937 339.361 472.567 337.961V337.961C472.23 336.536 471.401 335.275 470.226 334.401C469.462 333.824 468.534 333.505 467.576 333.49V333.448Z" fill="#D03711"/>
<path d="M447.931 345.955L441.868 347.163L442.049 348.07L448.112 346.863L447.931 345.955Z" fill="#D03711"/>
<path d="M459.362 342.585L458.633 342.025C458.731 341.913 460.876 339.222 463.315 340.315L462.937 341.156C461.156 340.343 459.39 342.571 459.362 342.585Z" fill="#D03711"/>
<path d="M416.16 460.521C416.16 460.521 409.656 476.918 406.67 507.345C403.684 537.771 388.531 685.797 388.531 685.797C388.531 685.797 439.205 691.991 455.998 688.32C455.998 688.32 449.858 534.744 452.886 506.952L464.703 687.745C464.703 687.745 505.354 690.029 528.651 683.218C528.651 683.218 493.958 496.175 478.188 461.53" fill="#EF7926"/>
<path d="M452.059 528.97L451.513 525.634C448.807 563.475 445.906 601.567 441.7 639.281C440.298 652.455 441.546 671.179 428.075 678.523C422.076 681.817 415.095 682.84 408.451 683.961C403.138 684.844 397.825 685.629 392.499 686.245C404.764 687.647 442.037 691.361 455.97 688.305C455.998 688.334 451.681 580.18 452.059 528.97Z" fill="#E26A1A"/>
<path d="M428.426 471.733C444.784 469.028 463.231 469.476 478.146 461.53V459.946L416.174 460.577C416.174 460.577 412.698 469.35 409.656 485.972C413.735 478.852 419.356 473.134 428.426 471.733Z" fill="#E26A1A"/>
<path d="M509.825 682.699C501.513 681.606 491.603 681.158 483.879 677.654C478.272 675.131 475.076 670.731 473.282 665.041C470.576 656.379 469.511 646.821 468.067 637.922C464.675 616.801 463.652 595.401 460.512 574.252C459.11 565.142 457.316 556.131 455.507 547.119L464.675 687.689C464.675 687.689 500.406 689.707 524.095 684.325C519.189 684.143 514.129 683.274 509.825 682.699Z" fill="#E26A1A"/>
<path d="M402.675 685.741C402.498 670.885 402.657 656.034 403.152 641.187C403.647 626.341 404.502 611.518 405.717 596.718C406.913 581.993 408.451 567.301 410.329 552.641C412.198 537.823 414.45 523.06 417.085 508.354C419.721 493.647 422.641 479.105 425.846 464.725C426.253 462.931 426.659 461.152 427.08 459.358C427.234 458.685 426.197 458.405 426.043 459.077C422.678 473.578 419.66 488.163 416.987 502.832C414.315 517.501 411.978 532.104 409.979 546.643C407.988 561.386 406.348 576.163 405.058 590.972C403.769 605.781 402.834 620.599 402.255 635.427C401.657 650.376 401.409 665.298 401.512 680.191C401.512 682.027 401.512 683.863 401.512 685.713C401.512 685.854 401.568 685.989 401.668 686.089C401.768 686.189 401.903 686.245 402.045 686.245C402.186 686.245 402.321 686.189 402.421 686.089C402.521 685.989 402.577 685.854 402.577 685.713L402.675 685.741Z" fill="#F3D1A4"/>
<path d="M435.939 456.499C436.009 471.452 435.631 486.42 435.056 501.346C434.467 516.595 433.654 531.829 432.897 547.063C432.14 562.297 431.355 577.601 430.837 592.878C430.318 608.154 430.22 623.108 430.206 638.244C430.206 652.918 430.206 667.591 429.855 682.265C429.855 683.989 429.785 685.713 429.743 687.436C429.743 687.578 429.799 687.713 429.899 687.813C429.999 687.913 430.135 687.969 430.276 687.969C430.417 687.969 430.553 687.913 430.653 687.813C430.752 687.713 430.809 687.578 430.809 687.436C431.173 672.973 431.243 658.51 431.271 643.99C431.271 628.826 431.271 613.662 431.734 598.498C432.196 583.334 432.911 568.015 433.668 552.781C434.425 537.547 435.252 522.271 435.897 507.022C436.528 492.012 436.976 477.002 437.018 461.978C437.018 460.128 437.018 458.278 437.018 456.372C437.018 456.231 436.962 456.096 436.862 455.996C436.762 455.896 436.627 455.84 436.486 455.84C436.344 455.84 436.209 455.896 436.109 455.996C436.009 456.096 435.953 456.231 435.953 456.372L435.939 456.499Z" fill="#F3D1A4"/>
<path d="M449.368 459.554C450.741 472.046 451.718 484.561 452.297 497.1C452.452 500.646 452.592 504.206 452.69 507.751C452.69 508.438 453.783 508.452 453.755 507.751C453.409 495.222 452.662 482.707 451.512 470.205C451.19 466.66 450.826 463.1 450.433 459.554C450.433 458.881 449.284 458.867 449.368 459.554V459.554Z" fill="#F3D1A4"/>
<path d="M460.876 461.25C464.171 475.727 466.652 490.387 468.544 505.116C470.436 519.846 471.768 534.548 472.847 549.404C473.927 564.259 474.726 578.933 475.567 593.705C476.408 608.477 477.263 623.402 478.454 638.23C479.646 653.058 481.104 667.479 483.178 682.027C483.445 683.891 483.725 685.755 484.005 687.633C484.118 688.32 485.141 688.025 485.043 687.353C482.786 672.651 481.174 657.851 479.912 643.023C478.651 628.196 477.754 613.354 476.899 598.512C476.043 583.67 475.272 568.954 474.263 554.197C473.254 539.439 471.978 524.611 470.212 509.882C468.446 495.152 466.175 480.843 463.133 466.519C462.741 464.669 462.334 462.833 461.914 460.998C461.76 460.325 460.722 460.605 460.876 461.278V461.25Z" fill="#F3D1A4"/>
<path d="M473.086 460.296C476.768 474.76 480.263 489.265 483.571 503.813C486.879 518.36 489.981 532.945 492.878 547.567C495.794 562.18 498.514 576.835 501.037 591.532C503.56 606.229 505.896 620.945 508.045 635.679C510.195 650.507 512.139 665.372 513.877 680.275L514.508 685.74C514.592 686.413 515.657 686.427 515.587 685.74C513.905 670.969 512.036 656.22 509.98 641.495C507.924 626.77 505.649 612.045 503.153 597.32C500.677 582.549 498 567.814 495.121 553.117C492.243 538.42 489.173 523.756 485.912 509.124C482.65 494.493 479.193 479.903 475.539 465.356C475.09 463.576 474.628 461.796 474.137 460.016C474.119 459.948 474.087 459.884 474.044 459.828C474.001 459.772 473.947 459.726 473.886 459.691C473.825 459.655 473.757 459.633 473.687 459.624C473.617 459.615 473.546 459.619 473.478 459.638C473.41 459.656 473.346 459.688 473.29 459.731C473.234 459.774 473.188 459.828 473.152 459.889C473.117 459.95 473.095 460.017 473.086 460.087C473.076 460.157 473.081 460.228 473.1 460.296H473.086Z" fill="#F3D1A4"/>
<path d="M477.768 386.438C481.749 387.926 485.019 390.865 486.921 394.665C488.795 398.423 490.333 402.339 491.519 406.367C495.079 416.542 500.224 426.577 500.07 437.354C500.221 440.735 499.206 444.064 497.196 446.786C494.785 449.589 490.986 450.739 487.384 451.734C485.498 452.388 483.505 452.683 481.51 452.603C479.972 452.365 478.508 451.781 477.228 450.895C475.948 450.009 474.886 448.844 474.123 447.487C472.612 444.769 471.682 441.768 471.39 438.672C470.254 430.529 470.829 422.246 471.39 414.048C471.95 405.849 472.595 397.594 476.212 390.306" fill="#8969E2"/>
<path d="M436.416 379.066C429.028 381.126 418.894 384.784 412.431 388.877C411.422 389.507 412.025 390.881 411.478 391.946C410.245 394.258 413.188 395.814 414.184 398.239C416.903 404.868 415.585 412.408 416.581 419.513C418.081 430.151 424.795 439.947 424.108 450.668C423.962 451.505 424.04 452.366 424.332 453.163C425.005 454.565 426.757 454.789 428.257 454.887C441.602 455.821 454.965 456.475 468.348 456.849C469.122 456.944 469.907 456.792 470.59 456.415C471.291 455.745 471.707 454.832 471.754 453.864C472.667 448.669 474.143 443.589 476.155 438.714C478.188 433.78 480.781 428.973 481.482 423.676C481.727 421.325 481.784 418.958 481.65 416.598C481.398 409.049 481.155 401.495 480.921 393.936C480.989 392.636 480.728 391.34 480.164 390.166C479.383 389.077 478.329 388.211 477.109 387.657C471.679 384.719 465.95 382.37 460.021 380.65C458.853 380.218 457.6 380.064 456.363 380.201C454.582 380.51 453.223 381.897 451.667 382.822C447.77 385.149 439.373 382.528 436.416 379.094" fill="#8969E2"/>
<path d="M476.674 390.25C476.67 389.199 476.395 388.166 475.874 387.252C475.353 386.339 474.605 385.576 473.702 385.037C471.978 383.817 469.973 383.075 468.277 381.827C467.378 381.273 466.644 380.488 466.151 379.554C465.658 378.62 465.424 377.571 465.474 376.516C465.666 375.652 466.002 374.828 466.469 374.077C467.338 372.507 468.193 370.938 469.048 369.368C469.494 368.648 469.838 367.87 470.072 367.055C470.323 365.136 470.001 363.186 469.146 361.449C468.389 359.487 467.647 357.525 466.904 355.563C466.741 355.253 466.701 354.893 466.791 354.554C467.1 353.797 468.193 354.134 468.894 354.554C471.265 356.199 473.493 358.041 475.552 360.062C477.933 362.244 479.842 364.892 481.16 367.84C481.894 369.998 482.516 372.192 483.024 374.413C484.317 378.251 485.867 381.996 487.664 385.625C490.487 392.448 492.88 399.441 494.827 406.564C496.114 410.467 497.052 414.477 497.63 418.546C497.906 421.537 497.985 424.543 497.868 427.544C497.924 432.247 497.497 436.943 496.593 441.559C495.99 444.208 494.406 447.305 491.687 447.263C489.626 447.263 488.126 445.385 487.047 443.633C482.717 436.232 479.928 428.033 478.847 419.527C477.529 409.769 476.784 399.942 476.618 390.096" fill="#FF9670"/>
<path d="M424.417 443.493C441.448 441.629 458.69 446.702 475.721 444.894C479.239 444.516 483.29 444.011 485.842 446.45C488.14 448.678 488.042 452.63 486.22 455.251C484.223 457.789 481.328 459.465 478.132 459.932C474.968 460.369 471.78 460.603 468.586 460.633C464.535 460.899 460.526 461.642 456.475 462.034C446.294 462.941 436.043 461.423 426.561 457.606" fill="#FF9670"/>
<path d="M435.897 378.744C435.897 378.744 448.947 387.812 456.615 379.837C460.417 380.829 464.161 382.031 467.829 383.439C467.829 383.439 461.858 395.169 450.055 385.037C450.055 385.037 438.771 399.906 427.402 382.304L435.897 378.744Z" fill="#7359D1"/>
<path d="M436.191 378.071C436.191 378.071 449.228 385.233 455.816 378.351C455.816 378.351 460.021 380.313 464.745 382.163C464.745 382.163 459.587 392.282 449.41 383.565C449.41 383.565 439.668 396.389 429.855 381.21L436.191 378.071Z" fill="#A694EA"/>
<path d="M413.805 388.961C413.805 388.961 419.16 390.474 422.076 412.674C424.991 434.874 427.417 435.56 427.417 435.56C427.417 435.56 453.251 442.75 457.526 444.782L459.068 463.394C459.068 463.394 421.964 464.795 409.74 460.591C397.517 456.387 404.4 402.808 404.4 402.808C404.4 402.808 406.769 387.643 413.805 388.961Z" fill="#8969E2"/>
<path d="M418.053 400.159C418.194 400.159 418.329 400.103 418.429 400.003C418.529 399.903 418.585 399.767 418.585 399.626C418.585 399.485 418.529 399.349 418.429 399.249C418.329 399.15 418.194 399.094 418.053 399.094C417.911 399.094 417.776 399.15 417.676 399.249C417.576 399.349 417.52 399.485 417.52 399.626C417.52 399.767 417.576 399.903 417.676 400.003C417.776 400.103 417.911 400.159 418.053 400.159Z" fill="#F3D1A4"/>
<path d="M408.366 420.424C408.507 420.424 408.643 420.368 408.743 420.268C408.843 420.168 408.899 420.033 408.899 419.892C408.899 419.75 408.843 419.615 408.743 419.515C408.643 419.415 408.507 419.359 408.366 419.359C408.225 419.359 408.089 419.415 407.99 419.515C407.89 419.615 407.833 419.75 407.833 419.892C407.833 420.033 407.89 420.168 407.99 420.268C408.089 420.368 408.225 420.424 408.366 420.424Z" fill="#F3D1A4"/>
<path d="M430.388 427.179C430.529 427.179 430.665 427.123 430.765 427.023C430.865 426.924 430.921 426.788 430.921 426.647C430.921 426.506 430.865 426.37 430.765 426.27C430.665 426.17 430.529 426.114 430.388 426.114C430.247 426.114 430.111 426.17 430.011 426.27C429.912 426.37 429.855 426.506 429.855 426.647C429.855 426.788 429.912 426.924 430.011 427.023C430.111 427.123 430.247 427.179 430.388 427.179V427.179Z" fill="#F3D1A4"/>
<path d="M412.81 444.221C412.938 444.201 413.055 444.135 413.139 444.036C413.223 443.937 413.269 443.812 413.269 443.682C413.269 443.552 413.223 443.426 413.139 443.328C413.055 443.229 412.938 443.163 412.81 443.142C412.682 443.163 412.565 443.229 412.481 443.328C412.397 443.426 412.351 443.552 412.351 443.682C412.351 443.812 412.397 443.937 412.481 444.036C412.565 444.135 412.682 444.201 412.81 444.221V444.221Z" fill="#F3D1A4"/>
<path d="M419.819 459.792C419.947 459.772 420.064 459.706 420.148 459.607C420.232 459.508 420.278 459.383 420.278 459.253C420.278 459.123 420.232 458.997 420.148 458.898C420.064 458.8 419.947 458.734 419.819 458.713C419.691 458.734 419.574 458.8 419.49 458.898C419.406 458.997 419.359 459.123 419.359 459.253C419.359 459.383 419.406 459.508 419.49 459.607C419.574 459.706 419.691 459.772 419.819 459.792V459.792Z" fill="#F3D1A4"/>
<path d="M437.733 444.81C437.862 444.789 437.978 444.724 438.062 444.625C438.147 444.526 438.193 444.4 438.193 444.271C438.193 444.141 438.147 444.015 438.062 443.916C437.978 443.817 437.862 443.752 437.733 443.731C437.605 443.752 437.489 443.817 437.404 443.916C437.32 444.015 437.274 444.141 437.274 444.271C437.274 444.4 437.32 444.526 437.404 444.625C437.489 444.724 437.605 444.789 437.733 444.81V444.81Z" fill="#F3D1A4"/>
<path d="M453.895 459.204C454.024 459.183 454.14 459.117 454.224 459.018C454.309 458.919 454.355 458.794 454.355 458.664C454.355 458.534 454.309 458.409 454.224 458.31C454.14 458.211 454.024 458.145 453.895 458.125C453.767 458.145 453.651 458.211 453.566 458.31C453.482 458.409 453.436 458.534 453.436 458.664C453.436 458.794 453.482 458.919 453.566 459.018C453.651 459.117 453.767 459.183 453.895 459.204V459.204Z" fill="#F3D1A4"/>
<path d="M453.895 434.818C454.037 434.818 454.172 434.761 454.272 434.662C454.372 434.562 454.428 434.426 454.428 434.285C454.428 434.144 454.372 434.008 454.272 433.908C454.172 433.809 454.037 433.752 453.895 433.752C453.754 433.752 453.619 433.809 453.519 433.908C453.419 434.008 453.363 434.144 453.363 434.285C453.363 434.426 453.419 434.562 453.519 434.662C453.619 434.761 453.754 434.818 453.895 434.818V434.818Z" fill="#F3D1A4"/>
<path d="M438.041 414.846C438.183 414.846 438.318 414.79 438.418 414.69C438.518 414.591 438.574 414.455 438.574 414.314C438.574 414.173 438.518 414.037 438.418 413.937C438.318 413.837 438.183 413.781 438.041 413.781C437.9 413.781 437.765 413.837 437.665 413.937C437.565 414.037 437.509 414.173 437.509 414.314C437.509 414.455 437.565 414.591 437.665 414.69C437.765 414.79 437.9 414.846 438.041 414.846V414.846Z" fill="#F3D1A4"/>
<path d="M426.828 385.765C426.969 385.765 427.104 385.709 427.204 385.609C427.304 385.509 427.36 385.374 427.36 385.233C427.36 385.092 427.304 384.956 427.204 384.856C427.104 384.756 426.969 384.7 426.828 384.7C426.686 384.7 426.551 384.756 426.451 384.856C426.351 384.956 426.295 385.092 426.295 385.233C426.295 385.374 426.351 385.509 426.451 385.609C426.551 385.709 426.686 385.765 426.828 385.765V385.765Z" fill="#F3D1A4"/>
<path d="M438.322 398.113C438.45 398.092 438.567 398.026 438.651 397.927C438.735 397.828 438.781 397.703 438.781 397.573C438.781 397.443 438.735 397.318 438.651 397.219C438.567 397.12 438.45 397.054 438.322 397.033C438.194 397.054 438.077 397.12 437.993 397.219C437.909 397.318 437.862 397.443 437.862 397.573C437.862 397.703 437.909 397.828 437.993 397.927C438.077 398.026 438.194 398.092 438.322 398.113V398.113Z" fill="#F3D1A4"/>
<path d="M456.839 412.786C456.981 412.786 457.116 412.73 457.216 412.63C457.316 412.53 457.372 412.395 457.372 412.254C457.372 412.112 457.316 411.977 457.216 411.877C457.116 411.777 456.981 411.721 456.839 411.721C456.698 411.721 456.563 411.777 456.463 411.877C456.363 411.977 456.307 412.112 456.307 412.254C456.307 412.395 456.363 412.53 456.463 412.63C456.563 412.73 456.698 412.786 456.839 412.786V412.786Z" fill="#F3D1A4"/>
<path d="M460.652 395.758C460.78 395.737 460.897 395.671 460.981 395.573C461.065 395.474 461.111 395.348 461.111 395.218C461.111 395.088 461.065 394.963 460.981 394.864C460.897 394.765 460.78 394.699 460.652 394.679C460.524 394.699 460.407 394.765 460.323 394.864C460.239 394.963 460.192 395.088 460.192 395.218C460.192 395.348 460.239 395.474 460.323 395.573C460.407 395.671 460.524 395.737 460.652 395.758V395.758Z" fill="#F3D1A4"/>
<path d="M474.165 389.297C474.293 389.276 474.41 389.211 474.494 389.112C474.578 389.013 474.624 388.887 474.624 388.758C474.624 388.628 474.578 388.502 474.494 388.403C474.41 388.304 474.293 388.239 474.165 388.218C474.037 388.239 473.92 388.304 473.836 388.403C473.752 388.502 473.706 388.628 473.706 388.758C473.706 388.887 473.752 389.013 473.836 389.112C473.92 389.211 474.037 389.276 474.165 389.297V389.297Z" fill="#F3D1A4"/>
<path d="M474.165 408.385C474.293 408.365 474.41 408.299 474.494 408.2C474.578 408.101 474.624 407.976 474.624 407.846C474.624 407.716 474.578 407.59 474.494 407.491C474.41 407.393 474.293 407.327 474.165 407.306C474.037 407.327 473.92 407.393 473.836 407.491C473.752 407.59 473.706 407.716 473.706 407.846C473.706 407.976 473.752 408.101 473.836 408.2C473.92 408.299 474.037 408.365 474.165 408.385V408.385Z" fill="#F3D1A4"/>
<path d="M472.693 429.239C472.834 429.239 472.97 429.183 473.069 429.083C473.169 428.984 473.226 428.848 473.226 428.707C473.226 428.566 473.169 428.43 473.069 428.33C472.97 428.23 472.834 428.174 472.693 428.174C472.552 428.174 472.416 428.23 472.316 428.33C472.216 428.43 472.16 428.566 472.16 428.707C472.16 428.848 472.216 428.984 472.316 429.083C472.416 429.183 472.552 429.239 472.693 429.239V429.239Z" fill="#F3D1A4"/>
<path d="M473.576 441.867C473.717 441.867 473.853 441.811 473.953 441.711C474.053 441.611 474.109 441.476 474.109 441.334C474.109 441.193 474.053 441.058 473.953 440.958C473.853 440.858 473.717 440.802 473.576 440.802C473.435 440.802 473.299 440.858 473.199 440.958C473.1 441.058 473.043 441.193 473.043 441.334C473.043 441.476 473.1 441.611 473.199 441.711C473.299 441.811 473.435 441.867 473.576 441.867Z" fill="#F3D1A4"/>
<path d="M488.855 449.211C488.997 449.211 489.132 449.155 489.232 449.055C489.332 448.955 489.388 448.82 489.388 448.678C489.388 448.537 489.332 448.402 489.232 448.302C489.132 448.202 488.997 448.146 488.855 448.146C488.714 448.146 488.579 448.202 488.479 448.302C488.379 448.402 488.323 448.537 488.323 448.678C488.323 448.82 488.379 448.955 488.479 449.055C488.579 449.155 488.714 449.211 488.855 449.211V449.211Z" fill="#F3D1A4"/>
<path d="M418.571 408.554C418.926 413.057 419.272 417.556 419.608 422.05C419.903 425.694 419.875 429.576 421.01 433.066C421.468 434.532 422.254 435.874 423.309 436.99C424.578 438.189 426.164 439.001 427.879 439.331C429.836 439.708 431.817 439.947 433.808 440.045C436.051 440.227 438.294 440.354 440.537 440.452C445.597 440.662 450.657 440.704 455.718 440.732C455.859 440.732 455.994 440.676 456.094 440.576C456.194 440.476 456.25 440.341 456.25 440.199C456.25 440.058 456.194 439.923 456.094 439.823C455.994 439.723 455.859 439.667 455.718 439.667C447.234 439.782 438.751 439.44 430.304 438.644C428.431 438.535 426.612 437.972 425.005 437.004C423.722 436.09 422.745 434.81 422.202 433.332C420.954 430.109 420.94 426.507 420.688 423.115L419.566 408.554C419.566 407.867 418.431 407.853 418.487 408.554H418.571Z" fill="#7359D1"/>
<path d="M415.613 435.602C417.427 435.609 419.238 435.721 421.038 435.939C421.179 435.932 421.313 435.872 421.412 435.77C421.511 435.669 421.567 435.534 421.571 435.392C421.564 435.253 421.506 435.122 421.407 435.023C421.309 434.925 421.177 434.866 421.038 434.86C419.238 434.647 417.426 434.539 415.613 434.537C415.472 434.537 415.336 434.593 415.237 434.693C415.137 434.793 415.081 434.929 415.081 435.07C415.081 435.211 415.137 435.347 415.237 435.446C415.336 435.546 415.472 435.602 415.613 435.602V435.602Z" fill="#7359D1"/>
<path d="M470.282 409.058C472.202 418.126 474.137 427.277 474.053 436.611C474.044 439.281 473.837 441.947 473.436 444.586C473.338 445.259 474.375 445.553 474.473 444.88C475.875 435.476 474.726 425.974 472.945 416.71C472.422 414.057 471.88 411.413 471.319 408.778C471.179 408.105 470.142 408.385 470.282 409.058Z" fill="#7359D1"/>
<path d="M219.367 677.991C217.284 685.317 216.764 693 217.839 700.541C217.839 700.541 207.172 706.147 196.715 699.013C196.715 699.013 205.406 692.398 202.686 674.683" fill="#FF9670"/>
<path d="M172.338 711.234C172.631 710.574 173.121 710.021 173.74 709.65C177.287 707.632 185.935 702.853 198.972 696.434C204.974 698.046 211.244 698.404 217.391 697.485C218.079 701.885 218.43 706.332 218.442 710.785C211.7 711.094 185.459 712.145 172.338 711.234Z" fill="#D03711"/>
<path d="M218.498 710.785C218.498 712.299 218.4 713.728 218.302 714.99H171.96V712.789C171.971 712.254 172.1 711.727 172.338 711.248C185.459 712.145 211.7 711.093 218.498 710.785Z" fill="#400E09"/>
<path d="M186.832 704.843C187.289 704.843 187.659 704.473 187.659 704.016C187.659 703.559 187.289 703.189 186.832 703.189C186.376 703.189 186.005 703.559 186.005 704.016C186.005 704.473 186.376 704.843 186.832 704.843Z" fill="#400E09"/>
<path d="M193.799 701.381C193.799 701.598 193.714 701.806 193.562 701.961C193.41 702.116 193.203 702.204 192.986 702.208C192.768 702.205 192.56 702.116 192.405 701.962C192.251 701.808 192.163 701.599 192.159 701.381C192.163 701.164 192.252 700.958 192.406 700.806C192.561 700.654 192.769 700.568 192.986 700.568C193.202 700.568 193.409 700.654 193.561 700.806C193.714 700.959 193.799 701.166 193.799 701.381V701.381Z" fill="#400E09"/>
<path d="M199.869 698.172C199.872 698.336 199.825 698.497 199.736 698.635C199.647 698.773 199.519 698.881 199.368 698.946C199.217 699.01 199.051 699.029 198.889 698.999C198.728 698.968 198.579 698.891 198.462 698.776C198.345 698.66 198.265 698.513 198.232 698.352C198.199 698.192 198.214 698.025 198.276 697.873C198.339 697.721 198.445 697.591 198.581 697.499C198.717 697.408 198.878 697.359 199.042 697.359C199.15 697.357 199.257 697.377 199.357 697.417C199.457 697.457 199.549 697.516 199.626 697.592C199.703 697.668 199.764 697.758 199.806 697.858C199.847 697.957 199.869 698.064 199.869 698.172V698.172Z" fill="#400E09"/>
<path d="M264.742 675.622C264.742 675.622 265.625 693.519 263.242 701.578C263.242 701.578 273.91 707.184 284.367 700.05C284.367 700.05 276.895 697.457 280.372 668.671" fill="#FF9670"/>
<path d="M308.687 712.271C308.391 711.614 307.902 711.062 307.286 710.687C303.739 708.669 295.104 703.89 282.054 697.471C276.052 699.084 269.783 699.447 263.635 698.536C262.939 702.936 262.588 707.383 262.583 711.836C269.34 712.131 295.581 713.196 308.687 712.271Z" fill="#D03711"/>
<path d="M262.542 711.836C262.542 713.336 262.64 714.78 262.738 716.041H309.08V713.855C309.076 713.314 308.946 712.781 308.701 712.299C295.581 713.196 269.34 712.131 262.542 711.836Z" fill="#400E09"/>
<path d="M283.764 699.756C283.738 699.955 283.641 700.137 283.49 700.27C283.339 700.402 283.145 700.475 282.944 700.475C282.743 700.475 282.55 700.402 282.399 700.27C282.248 700.137 282.15 699.955 282.124 699.756C282.109 699.639 282.119 699.52 282.153 699.408C282.187 699.295 282.245 699.191 282.323 699.103C282.4 699.014 282.496 698.943 282.603 698.895C282.71 698.846 282.827 698.821 282.944 698.821C283.062 698.821 283.178 698.846 283.285 698.895C283.393 698.943 283.488 699.014 283.566 699.103C283.643 699.191 283.701 699.295 283.736 699.408C283.77 699.52 283.78 699.639 283.764 699.756V699.756Z" fill="#400E09"/>
<path d="M297.866 706.511C297.862 706.729 297.774 706.937 297.619 707.092C297.465 707.246 297.257 707.334 297.039 707.338C296.822 707.334 296.615 707.245 296.463 707.091C296.311 706.936 296.226 706.728 296.226 706.511C296.226 706.295 296.311 706.088 296.464 705.936C296.616 705.784 296.823 705.698 297.039 705.698C297.256 705.698 297.464 705.783 297.619 705.935C297.773 706.087 297.862 706.294 297.866 706.511V706.511Z" fill="#400E09"/>
<path d="M290.072 703.315C290.072 703.531 289.987 703.738 289.834 703.89C289.682 704.043 289.475 704.128 289.259 704.128C289.143 704.144 289.024 704.134 288.911 704.1C288.799 704.065 288.695 704.007 288.606 703.93C288.518 703.852 288.447 703.757 288.398 703.649C288.35 703.542 288.325 703.426 288.325 703.308C288.325 703.191 288.35 703.074 288.398 702.967C288.447 702.86 288.518 702.764 288.606 702.687C288.695 702.609 288.799 702.551 288.911 702.517C289.024 702.483 289.143 702.473 289.259 702.488C289.367 702.488 289.474 702.51 289.574 702.552C289.673 702.593 289.763 702.655 289.839 702.731C289.915 702.808 289.974 702.9 290.014 703C290.054 703.1 290.074 703.207 290.072 703.315Z" fill="#400E09"/>
<path d="M251.51 319.769C253.711 328.416 251.902 337.722 248.033 345.767C247.728 346.226 247.518 346.742 247.417 347.283C247.316 347.825 247.325 348.382 247.445 348.92C247.825 349.653 248.443 350.236 249.197 350.574C252.639 352.427 256.5 353.367 260.409 353.303C264.319 353.239 268.147 352.174 271.527 350.21C271.76 350.112 271.949 349.932 272.06 349.705C272.256 349.257 271.863 348.794 271.527 348.416C269.691 346.397 270.658 343.973 269.859 341.408C266.425 330.196 268.541 319.951 272.508 309.174" fill="#FF9670"/>
<path d="M252.379 330.014C256.075 328.993 259.53 327.245 262.541 324.871C265.194 322.953 267.32 320.399 268.723 317.443C269.111 316.565 269.714 315.799 270.475 315.214C271.064 313.196 271.765 311.164 272.508 309.104L251.481 319.769C252.114 323.146 252.406 326.579 252.351 330.014H252.379Z" fill="#FC7F51"/>
<path d="M257.074 276.771C254.715 276.579 252.36 277.186 250.388 278.495C245.087 281.564 241.097 286.471 239.174 292.286C238.462 294.599 237.964 296.973 237.688 299.377C236.931 304.983 236.132 307.198 236.37 312.888C236.783 316.449 237.549 319.961 238.655 323.371C238.958 324.245 239.492 325.02 240.2 325.615C240.909 326.21 241.765 326.602 242.678 326.748C244.991 327.491 248.117 326.875 250.514 326.51C254.1 325.963 257.531 324.67 260.586 322.714C263.641 320.759 266.251 318.184 268.249 315.157C270.246 312.129 271.586 308.717 272.182 305.139C272.778 301.562 272.617 297.899 271.709 294.388" fill="#FF9670"/>
<path d="M289.918 281.48C286.702 281.72 283.543 282.457 280.554 283.667C280.891 282.405 285.825 275.692 282.433 277.038C282.11 278.846 276.419 285.545 279.377 285.671C280.722 283.849 293.212 283.33 289.918 281.48Z" fill="#2D0E0B"/>
<path d="M259.317 314.177C258.841 316.153 256.093 317.162 253.206 316.447C250.318 315.733 248.37 313.644 248.86 311.612C249.351 309.58 252.07 308.627 254.972 309.328C257.874 310.029 259.808 312.215 259.317 314.177Z" fill="#FC7F51"/>
<path d="M250.416 300.484C253.36 300.344 257.131 300.484 258.673 302.138C259.43 302.979 260.355 302.797 259.654 301.886C257.481 299.083 254.552 298.803 250.248 298.677C250.127 298.687 250.008 298.722 249.901 298.78C249.794 298.837 249.7 298.917 249.625 299.013C249.549 299.109 249.495 299.22 249.465 299.338C249.435 299.456 249.429 299.579 249.449 299.7C249.458 299.816 249.49 299.929 249.544 300.033C249.598 300.136 249.673 300.227 249.763 300.301C249.854 300.375 249.958 300.429 250.071 300.46C250.183 300.492 250.301 300.5 250.416 300.484V300.484Z" fill="#2D0E0B"/>
<path d="M243.015 296.546C241.627 295.633 240.147 294.867 238.599 294.262C238.529 294.514 238.445 294.766 238.361 295.005C238.277 295.243 238.361 295.453 238.291 295.677C239.563 296.315 240.777 297.061 241.922 297.906C242.007 297.978 242.106 298.033 242.213 298.066C242.32 298.099 242.433 298.11 242.544 298.098C242.656 298.086 242.764 298.052 242.861 297.997C242.959 297.943 243.045 297.869 243.113 297.78C243.192 297.694 243.253 297.594 243.291 297.484C243.329 297.374 243.344 297.257 243.335 297.142C243.325 297.026 243.292 296.913 243.237 296.81C243.182 296.708 243.106 296.618 243.015 296.546V296.546Z" fill="#2D0E0B"/>
<path d="M240.716 301.227C240.534 301.97 240.043 302.488 239.609 302.39C239.174 302.292 238.978 301.592 239.16 300.849C239.342 300.106 239.847 299.587 240.268 299.685C240.688 299.784 240.898 300.484 240.716 301.227Z" fill="#2D0E0B"/>
<path d="M253.178 305.39C252.967 306.231 252.323 306.791 251.776 306.651C251.229 306.511 250.879 305.712 251.089 304.871C251.299 304.03 251.944 303.47 252.491 303.61C253.038 303.75 253.388 304.549 253.178 305.39Z" fill="#2D0E0B"/>
<path d="M242.819 309.482C242.376 309.238 241.985 308.91 241.669 308.515C242.542 307.991 243.29 307.283 243.861 306.441C244.432 305.599 244.813 304.642 244.977 303.638C245.008 303.508 244.987 303.371 244.919 303.256C244.851 303.141 244.741 303.057 244.613 303.021C244.549 303.004 244.481 303 244.416 303.01C244.35 303.019 244.286 303.041 244.229 303.075C244.171 303.109 244.121 303.154 244.081 303.207C244.042 303.26 244.013 303.321 243.996 303.385C243.851 304.358 243.468 305.28 242.881 306.07C242.294 306.859 241.522 307.492 240.632 307.912C240.573 307.946 240.522 307.99 240.481 308.044C240.44 308.097 240.41 308.159 240.393 308.224C240.376 308.289 240.372 308.358 240.382 308.424C240.392 308.491 240.415 308.555 240.45 308.613C240.895 309.355 241.535 309.961 242.3 310.365C242.875 310.659 243.393 309.776 242.819 309.482Z" fill="#F46E45"/>
<path d="M239.595 313.757C240.401 314.401 241.33 314.873 242.326 315.143C243.322 315.413 244.363 315.475 245.384 315.326C245.384 315.326 240.001 318.255 239.595 313.757Z" fill="#E53E3E"/>
<path d="M286.652 297.261C286.273 291.921 285.755 287.24 281.045 284.648L280.358 283.905C279.773 280.645 278.018 277.71 275.424 275.65C273.665 274.235 271.704 273.092 269.606 272.258C259.64 268.699 245.678 272.258 237.73 274.949L239.651 277.864C236.933 277.926 234.216 277.733 231.535 277.29C232.586 282.088 234.656 286.605 237.604 290.534C241.277 295.061 246.562 296.925 252.127 298.705C257.691 300.484 261.154 302.334 266.929 303.133C267.574 303.217 266.621 311.318 267.181 311.668C268.121 312.257 271.218 307.1 271.471 308.179C272.943 314.57 266.691 319.194 268.359 325.529C273.223 324.002 280.204 317.555 282.881 312.916C285.642 308.179 286.953 302.736 286.652 297.261V297.261Z" fill="#2D0E0B"/>
<path d="M266.06 312.762C267.345 309.736 269.29 307.036 271.751 304.857C272.282 304.468 272.896 304.209 273.545 304.1C273.869 304.047 274.201 304.077 274.51 304.187C274.819 304.298 275.095 304.485 275.311 304.731C275.601 305.143 275.766 305.629 275.788 306.133C276.002 308.217 275.493 310.312 274.348 312.067C273.202 313.822 271.489 315.131 269.494 315.775C268.966 316.031 268.37 316.114 267.792 316.014C267.213 315.913 266.681 315.633 266.27 315.214C266.075 314.839 265.957 314.43 265.92 314.009C265.884 313.588 265.932 313.164 266.06 312.762" fill="#FF9670"/>
<path d="M268.134 310.561C268.039 310.976 268.039 311.408 268.134 311.823C268.169 312.012 268.265 312.186 268.406 312.317C268.548 312.448 268.728 312.53 268.919 312.551C269.422 312.568 269.916 312.415 270.321 312.117C270.77 311.822 271.159 311.447 271.471 311.01C271.737 310.716 271.933 310.364 272.042 309.983C272.151 309.601 272.172 309.2 272.101 308.809C271.877 308.207 271.008 307.968 270.167 308.431C269.611 308.754 269.133 309.194 268.765 309.72" fill="#FC7F51"/>
<path d="M281.423 437.214C281.423 437.214 296.604 460.661 298.567 488.032C300.529 515.403 294.544 690.436 294.544 690.436L258.841 691.711C258.841 691.711 261.532 539.201 258.14 520.281L224.4 690.45L188.375 689.469C188.375 689.469 218.596 457.718 230.581 439.036L281.423 437.214Z" fill="#400E09"/>
<g opacity="0.5">
<path opacity="0.5" d="M250.711 466.589C249.956 471.475 249.642 476.419 249.771 481.361C249.898 485.65 250.346 490.232 252.967 493.792C254.201 495.526 255.924 496.853 257.916 497.604C258.051 497.643 258.197 497.627 258.32 497.558C258.444 497.49 258.535 497.376 258.574 497.24C261.154 487.64 259.976 477.619 261.728 467.879C261.855 467.206 260.817 466.912 260.691 467.598C258.967 477.311 260.116 487.373 257.551 496.946L258.21 496.581C254.565 495.18 252.449 491.662 251.58 488.074C251.12 485.955 250.876 483.795 250.851 481.627C250.781 479.329 250.851 477.03 250.935 474.746C251.075 472.111 251.355 469.476 251.748 466.87C251.86 466.197 250.823 465.903 250.711 466.589V466.589Z" fill="#F3D1A4"/>
</g>
<g opacity="0.5">
<path opacity="0.5" d="M273.461 464.978C278.129 472.265 283.274 479.96 291.558 483.379C292.203 483.632 292.483 482.594 291.852 482.342C283.82 479.049 278.886 471.453 274.386 464.431C274.008 463.856 273.083 464.431 273.461 464.978Z" fill="#F3D1A4"/>
</g>
<g opacity="0.5">
<path opacity="0.5" d="M221.736 478.558C225.225 476.779 228.311 474.303 230.806 471.284C233.641 468.167 236.233 464.835 238.557 461.32C238.936 460.745 238.011 460.213 237.632 460.787C235.356 464.222 232.821 467.479 230.049 470.528C227.615 473.479 224.599 475.897 221.19 477.633C220.573 477.928 221.105 478.853 221.736 478.558Z" fill="#F3D1A4"/>
</g>
<g opacity="0.5">
<path opacity="0.5" d="M260.439 527.414C262.981 547.969 264.882 568.595 266.144 589.29C267.406 609.986 268.022 630.597 267.994 651.124C267.994 662.738 267.779 674.351 267.349 685.965C267.349 686.652 268.387 686.652 268.415 685.965C269.162 665.27 269.265 644.556 268.723 623.823C268.181 603.09 266.999 582.535 265.177 562.157C264.149 550.6 262.925 539.051 261.504 527.512C261.42 526.84 260.355 526.84 260.439 527.512V527.414Z" fill="#F3D1A4"/>
</g>
<g opacity="0.5">
<path opacity="0.5" d="M214.363 681.957C215.526 670.955 217.335 660.023 219.493 649.176C221.652 638.328 224.175 627.537 226.783 616.773C229.264 606.486 231.745 596.185 234.408 585.94C237.072 575.695 239.861 565.899 243.197 556.075C246.495 546.214 250.467 536.591 255.084 527.274C255.673 526.111 256.276 524.947 256.878 523.784C257.201 523.182 256.276 522.635 255.953 523.252C251.141 532.464 246.995 542.009 243.548 551.814C240.029 561.624 237.072 571.743 234.38 581.862C231.689 591.981 229.166 602.422 226.656 612.695C224.035 623.444 221.47 634.222 219.227 645.069C216.984 655.917 215.022 666.792 213.76 677.766C213.592 679.168 213.438 680.569 213.284 681.971C213.284 682.643 214.293 682.643 214.363 681.971V681.957Z" fill="#F3D1A4"/>
</g>
<path d="M231.549 344.926C226.783 346.622 223.236 351.667 220.208 356.698C214.79 365.749 210.201 375.271 206.499 385.149C206.148 385.886 206.012 386.706 206.107 387.517C206.317 388.265 206.783 388.915 207.424 389.353C214.471 395.379 221.676 401.098 229.039 406.507C229.418 406.802 229.895 407.082 230.287 406.802C230.594 406.485 230.774 406.066 230.792 405.624C234.128 387.335 233.525 368.289 232.894 349.565" fill="#1E976F"/>
<path d="M290.044 343.889C296.184 345.584 300.739 350.63 304.636 355.661C311.472 364.511 317.372 374.046 322.242 384.111C322.515 384.443 322.703 384.834 322.791 385.254C322.88 385.673 322.865 386.108 322.75 386.521C322.634 386.933 322.421 387.312 322.127 387.625C321.834 387.937 321.47 388.174 321.065 388.316C312 394.342 302.739 400.06 293.282 405.47C293.111 405.677 292.879 405.825 292.619 405.892C292.359 405.96 292.084 405.943 291.834 405.845C291.584 405.747 291.371 405.573 291.226 405.347C291.081 405.121 291.01 404.855 291.025 404.587C286.736 386.298 287.521 367.252 288.32 348.528" fill="#1E976F"/>
<path d="M250.977 337.736C254.734 339.25 262.387 339.923 266.186 338.493C267.071 338.078 268.018 337.813 268.99 337.708C269.688 337.736 270.377 337.869 271.036 338.101L288.628 343.37C289.476 343.531 290.257 343.941 290.871 344.548C291.34 345.265 291.598 346.101 291.614 346.958L293.422 364.393C293.969 369.508 294.502 374.638 294.558 379.809C294.614 384.981 294.221 390.026 293.913 395.127C292.623 416.052 292.777 437.018 292.511 457.97C292.567 458.408 292.524 458.853 292.385 459.273C292.247 459.692 292.017 460.076 291.712 460.395C291.327 460.636 290.89 460.781 290.437 460.815C267.924 464.389 244.949 461.474 222.353 458.559C222.867 453.203 223.03 447.819 222.844 442.442C222.563 437.438 223.713 417.649 223.32 412.66C222.647 403.705 221.54 409.549 222.465 400.607L227.68 349.971C227.702 348.695 228.049 347.446 228.689 346.341C229.557 345.321 230.686 344.555 231.955 344.127C238.111 341.491 244.473 339.363 250.977 337.764" fill="#1E976F"/>
<g opacity="0.5">
<path opacity="0.5" d="M292.722 426.885C291.474 432.87 289.918 439.218 286.484 444.334C280.624 452.939 268.359 453.612 258.897 454.144C249.435 454.677 236.02 455.63 228.423 448.636C226.024 446.376 224.116 443.648 222.816 440.62C222.816 441.349 222.816 442.021 222.816 442.442C223.003 447.819 222.839 453.203 222.325 458.559C244.922 461.474 267.896 464.389 290.409 460.815C290.862 460.781 291.299 460.636 291.684 460.395C291.989 460.075 292.219 459.692 292.357 459.273C292.496 458.853 292.539 458.408 292.483 457.97C292.595 447.487 292.623 436.948 292.764 426.521C292.778 426.619 292.736 426.731 292.722 426.885Z" fill="#06593B"/>
</g>
<g opacity="0.5">
<path opacity="0.5" d="M322.243 384.112C318.049 375.432 313.08 367.148 307.398 359.361C308.916 364.715 309.805 370.227 310.047 375.787C310.706 386.522 303.431 395.548 296.45 403.634C304.805 398.767 313.01 393.66 321.065 388.316C321.47 388.175 321.834 387.937 322.128 387.625C322.421 387.312 322.634 386.934 322.75 386.521C322.866 386.108 322.88 385.673 322.791 385.254C322.703 384.835 322.515 384.443 322.243 384.112V384.112Z" fill="#06593B"/>
</g>
<path d="M210.859 386.466C211.688 384.317 212.657 382.224 213.76 380.201C214.083 379.599 213.157 379.052 212.835 379.669C211.692 381.774 210.685 383.951 209.821 386.186C209.787 386.323 209.807 386.469 209.877 386.592C209.948 386.714 210.064 386.805 210.2 386.844C210.337 386.879 210.483 386.859 210.606 386.788C210.729 386.718 210.819 386.602 210.859 386.466V386.466Z" fill="#06593B"/>
<path d="M291.011 395.099C292.329 397.594 293.548 400.159 294.642 402.765C294.676 402.827 294.723 402.88 294.779 402.922C294.835 402.965 294.899 402.996 294.967 403.013C295.035 403.03 295.106 403.033 295.175 403.022C295.245 403.01 295.311 402.985 295.371 402.948C295.491 402.875 295.578 402.758 295.615 402.623C295.651 402.487 295.634 402.342 295.567 402.219C294.473 399.612 293.254 397.061 291.936 394.553C291.614 393.936 290.689 394.483 291.011 395.099V395.099Z" fill="#06593B"/>
<path d="M296.366 391.624C297.827 394.023 299.143 396.508 300.305 399.066C300.585 399.682 301.51 399.15 301.23 398.519C300.065 395.967 298.749 393.487 297.291 391.091C297.22 390.968 297.104 390.879 296.967 390.842C296.83 390.805 296.685 390.824 296.562 390.895C296.439 390.966 296.35 391.082 296.313 391.219C296.276 391.355 296.295 391.501 296.366 391.624V391.624Z" fill="#06593B"/>
<path d="M302.253 387.167C303.135 389.735 304.232 392.225 305.533 394.609C305.856 395.211 306.781 394.679 306.459 394.062C305.201 391.765 304.141 389.364 303.291 386.887C303.066 386.242 302.029 386.522 302.253 387.167Z" fill="#06593B"/>
<path d="M307.566 383.943C308.811 386.002 309.925 388.136 310.902 390.334C310.975 390.454 311.092 390.542 311.227 390.578C311.363 390.615 311.508 390.598 311.631 390.53C311.755 390.457 311.845 390.338 311.882 390.199C311.919 390.06 311.899 389.912 311.827 389.788C310.846 387.599 309.737 385.469 308.505 383.411C308.141 382.822 307.216 383.411 307.566 383.943V383.943Z" fill="#06593B"/>
<path d="M314.252 380.454C315.376 382.36 316.369 384.341 317.224 386.382C317.266 386.516 317.358 386.628 317.481 386.696C317.603 386.764 317.747 386.782 317.883 386.747C318.019 386.707 318.135 386.617 318.205 386.494C318.276 386.371 318.296 386.225 318.261 386.088C317.378 383.959 316.347 381.894 315.178 379.907C315.105 379.785 314.987 379.696 314.849 379.66C314.711 379.625 314.564 379.646 314.442 379.718C314.319 379.791 314.23 379.909 314.195 380.047C314.159 380.185 314.18 380.331 314.252 380.454V380.454Z" fill="#06593B"/>
<path d="M226.642 448.048L225.717 456.667C225.647 457.354 226.726 457.34 226.796 456.667C227.105 453.794 227.399 450.921 227.708 448.048C227.778 447.361 226.712 447.375 226.642 448.048V448.048Z" fill="#06593B"/>
<path d="M233.945 456.961C234.454 454.02 234.74 451.045 234.8 448.062C234.78 447.933 234.714 447.817 234.615 447.733C234.516 447.649 234.391 447.602 234.261 447.602C234.131 447.602 234.005 447.649 233.906 447.733C233.808 447.817 233.742 447.933 233.721 448.062C233.675 450.951 233.403 453.833 232.908 456.681C232.782 457.354 233.819 457.648 233.945 456.961Z" fill="#06593B"/>
<path d="M241.515 457.62C241.739 454.439 241.95 451.243 242.174 448.048C242.174 447.361 241.137 447.361 241.095 448.048C240.884 451.243 240.66 454.439 240.45 457.62C240.45 458.307 241.473 458.307 241.515 457.62V457.62Z" fill="#06593B"/>
<path d="M250.711 458.25C250.427 454.986 250.673 451.696 251.44 448.51C251.477 448.373 251.458 448.226 251.387 448.102C251.316 447.979 251.199 447.889 251.061 447.851C250.924 447.814 250.777 447.833 250.653 447.904C250.53 447.975 250.44 448.092 250.402 448.23C249.614 451.508 249.354 454.89 249.631 458.25C249.631 458.937 250.767 458.951 250.711 458.25Z" fill="#06593B"/>
<path d="M258.827 459.372C258.953 455.924 258.939 452.462 258.827 449.015C258.827 448.328 257.733 448.328 257.761 449.015C257.887 452.462 257.887 455.924 257.761 459.372C257.782 459.5 257.848 459.617 257.947 459.701C258.045 459.785 258.171 459.831 258.301 459.831C258.431 459.831 258.556 459.785 258.655 459.701C258.754 459.617 258.82 459.5 258.841 459.372H258.827Z" fill="#06593B"/>
<path d="M268.261 458.895C268.655 455.885 268.791 452.847 268.667 449.813C268.667 449.127 267.56 449.127 267.588 449.813C267.717 452.846 267.585 455.885 267.195 458.895C267.195 459.036 267.251 459.172 267.351 459.272C267.451 459.372 267.587 459.428 267.728 459.428C267.869 459.428 268.005 459.372 268.105 459.272C268.205 459.172 268.261 459.036 268.261 458.895V458.895Z" fill="#06593B"/>
<path d="M276.096 459.694L276.769 449.645C276.769 448.959 275.746 448.959 275.69 449.645L275.017 459.694C275.017 460.381 276.04 460.381 276.096 459.694Z" fill="#06593B"/>
<path d="M284.381 449.729V458.643C284.381 459.231 285.446 459.231 285.446 458.643V449.729C285.446 449.155 284.381 449.155 284.381 449.729Z" fill="#06593B"/>
<path d="M247.206 345.024C248.436 343.624 249.578 342.15 250.626 340.609C250.699 340.487 250.72 340.34 250.684 340.202C250.649 340.064 250.56 339.946 250.437 339.874C250.315 339.801 250.168 339.78 250.03 339.816C249.892 339.851 249.774 339.94 249.701 340.063C248.709 341.533 247.623 342.938 246.449 344.267C246.355 344.371 246.302 344.506 246.302 344.646C246.302 344.786 246.355 344.921 246.449 345.024C246.499 345.074 246.558 345.114 246.623 345.141C246.688 345.168 246.757 345.182 246.828 345.182C246.898 345.182 246.968 345.168 247.033 345.141C247.098 345.114 247.157 345.074 247.206 345.024V345.024Z" fill="#06593B"/>
<path d="M253.949 342.894C253.724 344.645 253.514 346.397 253.304 348.149C253.304 348.29 253.36 348.426 253.46 348.526C253.56 348.626 253.695 348.682 253.836 348.682C253.978 348.678 254.113 348.622 254.214 348.523C254.316 348.424 254.376 348.291 254.383 348.149L255.014 342.894C255.016 342.823 255.003 342.753 254.977 342.688C254.951 342.622 254.912 342.563 254.862 342.513C254.812 342.463 254.753 342.424 254.687 342.398C254.622 342.372 254.552 342.359 254.481 342.361C254.34 342.361 254.204 342.417 254.105 342.517C254.005 342.617 253.949 342.752 253.949 342.894V342.894Z" fill="#06593B"/>
<path d="M259.598 343.511C259.916 345.255 260.094 347.022 260.13 348.794C260.151 348.922 260.217 349.039 260.316 349.123C260.415 349.207 260.54 349.254 260.67 349.254C260.8 349.254 260.925 349.207 261.024 349.123C261.123 349.039 261.189 348.922 261.21 348.794C261.168 346.913 260.976 345.039 260.635 343.188C260.596 343.06 260.513 342.95 260.399 342.878C260.286 342.806 260.151 342.777 260.018 342.796C259.884 342.841 259.771 342.935 259.703 343.06C259.636 343.185 259.618 343.331 259.654 343.469L259.598 343.511Z" fill="#06593B"/>
<path d="M265.009 342.207C265.975 343.792 266.814 345.451 267.518 347.168C267.555 347.306 267.645 347.423 267.769 347.494C267.892 347.565 268.039 347.584 268.177 347.547C268.314 347.51 268.431 347.419 268.502 347.296C268.573 347.172 268.592 347.026 268.555 346.888C267.813 345.085 266.942 343.338 265.948 341.66C265.868 341.552 265.751 341.478 265.619 341.45C265.487 341.423 265.35 341.446 265.234 341.513C265.117 341.581 265.03 341.689 264.989 341.817C264.947 341.945 264.954 342.084 265.009 342.207V342.207Z" fill="#06593B"/>
<path d="M269.83 339.992C271.746 341.268 273.505 342.764 275.073 344.449C275.55 344.954 276.307 344.183 275.83 343.678C274.188 341.945 272.359 340.398 270.377 339.067C269.802 338.689 269.256 339.614 269.83 339.992V339.992Z" fill="#06593B"/>
<path d="M228.745 348.948C231.45 337.736 233.861 330.729 239.749 320.764C240.352 319.755 241.529 318.62 242.552 319.293C243.253 319.797 243.113 320.876 242.875 321.717C242.165 324.389 241.44 327.071 240.702 329.762C240.488 330.402 240.398 331.078 240.436 331.752C240.688 333.602 242.693 334.555 244.361 335.41C246.029 336.265 247.851 337.792 247.346 339.614C247.059 340.338 246.603 340.982 246.015 341.492C241.908 345.823 239.707 351.639 238.529 357.483C237.352 363.328 234.464 377.356 233.665 383.257C231.633 398.141 228.605 409.184 218.961 416.612C218.302 417.101 217.541 417.434 216.735 417.587C215.929 417.74 215.099 417.708 214.307 417.495C213.698 417.239 213.17 416.823 212.779 416.29C209.177 412.085 208.013 406.199 208.574 400.663C209.134 395.127 211.013 389.872 213.017 384.7C216.83 374.89 223.951 362.36 228.871 348.976" fill="#FF9670"/>
<path d="M323.91 419.527C321.713 410.189 318.595 401.09 314.603 392.366L298.048 402.597C300.366 407.643 302.52 412.782 304.51 418.014C305.632 419.96 306.158 422.192 306.024 424.434C305.889 426.676 305.1 428.829 303.753 430.627C296.639 442.986 288.578 454.775 279.643 465.889C279.047 466.475 278.684 467.256 278.62 468.089C278.707 468.708 278.964 469.29 279.363 469.771L283.876 476.358C284.143 476.736 284.465 477.157 284.928 477.171C285.143 477.142 285.35 477.067 285.534 476.95C285.717 476.834 285.874 476.68 285.993 476.498L307.622 451.271C312.921 445.105 318.247 438.896 322.172 431.79C323.453 429.728 324.275 427.415 324.583 425.007C324.636 423.157 324.409 421.31 323.91 419.527V419.527Z" fill="#FF9670"/>
</svg>
