<svg width="806" height="980" viewBox="0 0 806 980" fill="none" xmlns="http://www.w3.org/2000/svg">
<path d="M147.35 686.137H74.0541C72.7686 686.137 71.7266 687.179 71.7266 688.465V689.755C71.7266 691.04 72.7686 692.082 74.0541 692.082H147.35C148.636 692.082 149.678 691.04 149.678 689.755V688.465C149.678 687.179 148.636 686.137 147.35 686.137Z" fill="#0B0101"/>
<path d="M611.72 686.137H591.663C590.378 686.137 589.336 687.179 589.336 688.465V689.755C589.336 691.04 590.378 692.082 591.663 692.082H611.72C613.005 692.082 614.047 691.04 614.047 689.755V688.465C614.047 687.179 613.005 686.137 611.72 686.137Z" fill="#0B0101"/>
<path d="M285.271 686.137H211.975C210.69 686.137 209.647 687.179 209.647 688.465V689.755C209.647 691.04 210.69 692.082 211.975 692.082H285.271C286.557 692.082 287.599 691.04 287.599 689.755V688.465C287.599 687.179 286.557 686.137 285.271 686.137Z" fill="#0B0101"/>
<path d="M392.882 686.137H319.585C318.3 686.137 317.258 687.179 317.258 688.465V689.755C317.258 691.04 318.3 692.082 319.585 692.082H392.882C394.167 692.082 395.209 691.04 395.209 689.755V688.465C395.209 687.179 394.167 686.137 392.882 686.137Z" fill="#0B0101"/>
<path d="M524.658 686.137H424.748C423.463 686.137 422.421 687.179 422.421 688.465V689.755C422.421 691.04 423.463 692.082 424.748 692.082H524.658C525.943 692.082 526.986 691.04 526.986 689.755V688.465C526.986 687.179 525.943 686.137 524.658 686.137Z" fill="#0B0101"/>
<path d="M171.916 359.21C171.916 359.21 164.175 353.89 152.843 358C141.512 362.109 138.985 377.311 141.778 389.72C144.571 402.129 129.01 444.25 129.01 444.25C129.01 444.25 137.109 455.648 165.412 451.286C165.412 451.286 186.532 412.915 184.963 385.384C183.393 357.853 171.916 359.21 171.916 359.21Z" fill="#0E3944"/>
<path d="M180.88 406.811C191.52 403.406 198.024 412.264 204.128 428.756C210.233 445.248 212.241 446.91 212.241 446.91L235.769 462.032L233.814 470.85C233.814 470.85 211.417 462.085 206.004 456.499C200.59 450.913 185.016 422.677 185.016 422.677L180.88 406.811Z" fill="#EF6E4B"/>
<path d="M129.01 513.33C129.01 513.33 124.394 536.712 125.153 571.85C125.153 571.85 106.971 598.676 121.974 675.218H129.861C129.861 675.218 136.285 610.048 141.206 592.452C146.127 574.856 164.308 569.39 165.292 515.737L129.01 513.33Z" fill="#FF8B66"/>
<path d="M92.9938 582.078C88.4186 566.996 76.6614 541.739 46.4438 507.505C45.7481 507.238 44.9968 507.149 44.2581 507.247C43.5194 507.344 42.8169 507.625 42.2144 508.063C39.6475 509.633 39.6475 511.482 39.6475 511.482C39.6475 511.482 54.7829 544.452 64.4254 568.605C66.0122 572.584 68.7569 575.996 72.3042 578.398C75.8515 580.8 80.0381 582.082 84.3222 582.078H92.9938Z" fill="#FF8B66"/>
<path d="M147.922 611.245C147.922 611.245 148.029 622.497 140.647 622.683C130.22 622.962 129.834 611.604 118.037 611.976C106.24 612.349 81.8613 615.301 74.1473 596.841C70.1573 587.305 75.6236 575.069 62.7093 565.839C49.795 556.608 56.0593 546.274 62.7093 540.728C69.3593 535.182 59.8365 529.157 66.6993 526.338C68.2304 525.723 69.9335 525.69 71.4873 526.245C72.3719 526.584 73.2116 527.031 73.9877 527.575C76.4673 529.378 78.5837 531.635 80.2254 534.225C99.7498 480.599 134.636 473.51 134.636 473.51L169.083 485.4C169.921 568.791 147.922 611.245 147.922 611.245Z" fill="#164353"/>
<path d="M180.879 406.81C174.538 408.55 167.892 408.882 161.408 407.781C149.97 406.039 146.26 398.87 138.213 403.485C126.15 410.428 131.802 434.302 134.835 446.71C135.965 451.339 137.388 463.495 134.662 473.537C134.662 473.537 150.728 486.025 169.122 485.413L179.15 463.588C179.15 463.588 200.936 437.494 180.879 406.81Z" fill="#CFD8DC"/>
<path d="M160.438 386.781C161.102 394.089 160.13 401.454 157.592 408.34C157.592 408.34 163.564 417.145 169.256 411.346C170.026 403.595 172.38 396.085 176.172 389.281C180.441 381.461 160.438 386.781 160.438 386.781Z" fill="#EF6E4B"/>
<path d="M151.287 387.166C151.287 387.166 146.26 383.988 146.831 388.895C147.483 394.588 153.043 395.692 153.628 393.697C154.213 391.702 151.287 387.166 151.287 387.166Z" fill="#FF8B66"/>
<path d="M180.162 381.009C180.162 381.009 183.354 375.981 184.937 380.663C186.759 386.089 182.277 389.467 180.84 387.911C179.404 386.355 180.162 381.009 180.162 381.009Z" fill="#FF8B66"/>
<path d="M169.775 404.177C160.638 406.212 154.161 401.411 150.157 383.535C148.096 374.305 151.487 367.575 161.742 365.314C171.996 363.053 177.529 367.722 179.59 376.939C183.899 396.144 179.191 402.062 169.775 404.177Z" fill="#FF8B66"/>
<path d="M177.994 383.988C178.075 384.481 177.987 384.987 177.744 385.425C177.501 385.862 177.118 386.204 176.656 386.396C176.195 386.589 175.682 386.62 175.201 386.484C174.719 386.349 174.298 386.055 174.004 385.65C173.867 385.151 173.929 384.618 174.177 384.164C174.425 383.71 174.84 383.37 175.334 383.216C175.79 382.969 176.325 382.911 176.823 383.055C177.321 383.2 177.742 383.535 177.994 383.988V383.988Z" fill="#DB614D"/>
<path d="M159.347 388.696C159.526 389.121 159.568 389.592 159.468 390.043C159.367 390.493 159.128 390.901 158.785 391.209C158.442 391.518 158.011 391.712 157.552 391.764C157.094 391.817 156.63 391.725 156.226 391.502C155.822 391.279 155.498 390.935 155.298 390.519C155.098 390.103 155.033 389.635 155.111 389.18C155.19 388.725 155.408 388.306 155.736 387.981C156.064 387.656 156.485 387.441 156.94 387.366C157.435 387.233 157.963 387.297 158.412 387.545C158.861 387.793 159.196 388.206 159.347 388.696V388.696Z" fill="#DB614D"/>
<path d="M171.65 375.662C171.555 375.662 171.463 375.634 171.384 375.582C170.221 374.951 168.865 374.775 167.58 375.09C167.458 375.118 167.33 375.098 167.224 375.033C167.117 374.969 167.039 374.865 167.008 374.744C166.98 374.626 166.998 374.502 167.061 374.397C167.123 374.293 167.223 374.217 167.341 374.186C168.879 373.804 170.506 374.023 171.889 374.797C171.941 374.83 171.985 374.872 172.02 374.922C172.055 374.972 172.079 375.029 172.092 375.088C172.104 375.148 172.104 375.209 172.092 375.269C172.08 375.329 172.057 375.386 172.022 375.436C171.982 375.5 171.928 375.554 171.863 375.594C171.798 375.633 171.725 375.656 171.65 375.662V375.662Z" fill="#0E3944"/>
<path d="M154.467 379.506C154.389 379.531 154.305 379.531 154.227 379.506C154.173 379.475 154.126 379.435 154.089 379.386C154.052 379.337 154.025 379.281 154.01 379.221C153.995 379.161 153.992 379.099 154.002 379.038C154.012 378.977 154.034 378.919 154.068 378.867C154.981 377.574 156.357 376.683 157.911 376.38C157.972 376.368 158.034 376.368 158.094 376.379C158.154 376.391 158.212 376.415 158.263 376.449C158.314 376.483 158.358 376.526 158.393 376.577C158.427 376.628 158.451 376.686 158.463 376.746C158.475 376.806 158.476 376.868 158.464 376.929C158.452 376.989 158.429 377.046 158.395 377.098C158.361 377.149 158.317 377.193 158.266 377.227C158.215 377.262 158.158 377.286 158.097 377.298C156.803 377.556 155.652 378.286 154.866 379.346C154.817 379.403 154.755 379.447 154.686 379.475C154.616 379.502 154.541 379.513 154.467 379.506Z" fill="#0E3944"/>
<path d="M172.048 380.663C172.301 381.806 172.048 382.831 171.37 382.977C170.692 383.123 170.04 382.312 169.761 381.181C169.481 380.051 169.761 379.013 170.439 378.867C171.117 378.721 171.796 379.532 172.048 380.663Z" fill="#1A4850"/>
<path d="M159.36 383.403C159.626 384.533 159.36 385.557 158.682 385.703C158.004 385.85 157.352 385.038 157.086 383.908C156.82 382.777 157.086 381.74 157.764 381.594C158.443 381.447 159.108 382.259 159.36 383.403Z" fill="#1A4850"/>
<path d="M163.471 394.122C163.471 394.122 169.323 393.657 171.916 391.462C171.916 391.462 171.198 396.038 168.006 396.357C167.115 396.461 166.213 396.305 165.409 395.909C164.604 395.512 163.931 394.892 163.471 394.122V394.122Z" fill="#1A4850"/>
<path d="M168.91 380.796C168.91 380.796 169.11 377.817 170.24 377.763C171.371 377.71 172.74 379.931 172.74 379.931L174.177 378.708L172.607 379.28C172.607 379.28 171.198 376.979 170.12 377.218C168.524 377.551 168.91 380.796 168.91 380.796Z" fill="#1A4850"/>
<path d="M160.065 383.07C160.065 383.07 158.615 380.41 157.565 380.902C156.514 381.394 156.235 383.921 156.235 383.921L154.426 383.429L156.088 383.283C156.088 383.283 156.381 380.623 157.418 380.357C158.974 380.051 160.065 383.07 160.065 383.07Z" fill="#1A4850"/>
<path d="M166.423 388.842L165.957 387.951C166.221 387.857 166.443 387.671 166.58 387.426C166.717 387.181 166.76 386.895 166.702 386.621C166.656 386.392 166.551 386.18 166.397 386.005C166.243 385.83 166.045 385.698 165.824 385.624C165.651 385.624 165.492 385.77 165.372 386.089L164.428 385.743C164.505 385.413 164.694 385.12 164.963 384.913C165.232 384.707 165.565 384.601 165.904 384.613C166.348 384.697 166.756 384.914 167.074 385.234C167.392 385.555 167.605 385.964 167.686 386.408C167.786 386.897 167.715 387.406 167.485 387.849C167.255 388.292 166.88 388.642 166.423 388.842V388.842Z" fill="#DB614D"/>
<path d="M152.019 390.385C152.019 390.385 149.199 380.024 150.875 372.709C150.875 372.709 158.855 361.657 174.137 367.11C177.261 372.591 179.535 378.515 180.88 384.679C180.88 384.679 181.452 380.995 179.922 372.802C178.393 364.61 171.131 359.502 161.169 361.165C151.208 362.827 140.581 372.709 152.019 390.385Z" fill="#0E3944"/>
<path d="M168.085 364.822C168.085 364.822 168.684 367.482 166.064 374.478C165.795 374.206 165.475 373.99 165.122 373.842C164.77 373.695 164.391 373.619 164.009 373.619C163.626 373.619 163.248 373.695 162.895 373.842C162.542 373.99 162.222 374.206 161.954 374.478C159.746 376.46 155.304 375.808 153.708 376.859C153.224 377.306 152.838 377.85 152.575 378.454C152.311 379.058 152.176 379.711 152.178 380.37C151.39 378.224 151.39 375.867 152.178 373.72C150.344 376.16 149.405 379.156 149.518 382.206C149.518 382.206 145.528 381.554 145.648 374.864C145.768 368.174 155.331 357.361 165.997 358.066C176.664 358.771 179.191 375.649 179.191 375.649C178.83 375.406 178.422 375.242 177.993 375.169C177.564 375.095 177.125 375.114 176.704 375.223C176.346 372.381 175.442 369.636 174.044 367.137C174.692 369.342 174.692 371.688 174.044 373.893C172.409 373.034 170.562 372.665 168.724 372.829C168.724 372.829 170.24 369.97 168.085 364.822Z" fill="#0E3944"/>
<path d="M135.487 405.68C140.674 401.584 144.717 406.784 145.701 413.979C146.686 421.175 137.309 463.628 130.074 462.072C127.281 461.46 126.084 450.341 126.084 450.341C128.229 440.477 129.784 430.493 130.739 420.443C131.67 412.131 132.787 407.755 135.487 405.68Z" fill="#FF8B66"/>
<path d="M120.392 456.007C113.409 449.357 100.881 427.266 97.7021 416.014L103.022 413.886C103.022 413.886 118.982 436.722 126.271 442.481C133.559 448.24 136.099 454.651 132.921 460.143C129.742 465.636 121.855 457.417 120.392 456.007Z" fill="#FF8B66"/>
<path d="M99.8825 401.291C99.5101 408.513 105.402 410.215 102.782 415.761C102.575 416.238 102.272 416.667 101.892 417.022C101.512 417.376 101.064 417.649 100.574 417.823C99.7705 418.081 98.9101 418.106 98.093 417.894C97.276 417.682 96.5359 417.242 95.959 416.626C93.0977 413.898 89.934 411.506 86.5293 409.497C83.8693 407.981 85.3988 407.569 85.3988 407.569L84.6407 407.249C82.7787 406.478 81.2891 406.172 82.6324 405.348C83.9757 404.523 89.5617 406.372 89.5617 406.372C82.5393 401.69 80.6241 402.834 81.9142 401.836C83.6565 400.506 90.3464 403.605 90.5459 403.698C86.8352 400.187 84.1353 399.389 85.6116 398.857C87.0879 398.325 94.4295 403.645 97.0895 405.68L98.0604 406.425C98.0205 400.48 99.8825 401.291 99.8825 401.291Z" fill="#FF8B66"/>
<path d="M97.0897 405.68L98.0606 406.425C97.6911 407.195 97.5309 408.05 97.5963 408.902C97.6617 409.754 97.9502 410.574 98.433 411.279C97.5673 410.668 96.9535 409.763 96.7063 408.733C96.4591 407.702 96.5954 406.617 97.0897 405.68V405.68Z" fill="#EF6E4B"/>
<path d="M90.9724 409.79C90.3473 409.457 86.8095 407.449 85.3997 407.569L84.6416 407.249C85.5992 405.999 90.2675 409.284 90.9724 409.79Z" fill="#EF6E4B"/>
<path d="M118.862 516.961C118.862 517.243 118.778 517.518 118.622 517.752C118.466 517.986 118.243 518.168 117.983 518.276C117.723 518.384 117.437 518.412 117.161 518.357C116.885 518.302 116.631 518.166 116.432 517.967C116.233 517.768 116.098 517.515 116.043 517.239C115.988 516.963 116.016 516.677 116.124 516.417C116.232 516.157 116.414 515.934 116.648 515.778C116.882 515.622 117.157 515.538 117.439 515.538C117.816 515.538 118.178 515.688 118.445 515.955C118.712 516.222 118.862 516.584 118.862 516.961V516.961Z" fill="#6097B2"/>
<path d="M144.185 526.71C144.188 526.992 144.106 527.268 143.952 527.504C143.797 527.74 143.576 527.924 143.316 528.034C143.056 528.144 142.769 528.174 142.493 528.121C142.216 528.067 141.961 527.933 141.76 527.734C141.56 527.536 141.423 527.282 141.367 527.006C141.311 526.729 141.339 526.443 141.446 526.182C141.553 525.921 141.736 525.698 141.97 525.541C142.204 525.384 142.48 525.3 142.762 525.3C143.137 525.3 143.497 525.448 143.764 525.712C144.03 525.976 144.182 526.335 144.185 526.71V526.71Z" fill="#6097B2"/>
<path d="M165.758 532.03C165.758 532.312 165.675 532.587 165.518 532.821C165.362 533.055 165.14 533.237 164.88 533.345C164.62 533.453 164.334 533.481 164.058 533.426C163.782 533.371 163.528 533.235 163.329 533.036C163.13 532.837 162.994 532.584 162.939 532.308C162.885 532.032 162.913 531.745 163.02 531.485C163.128 531.225 163.311 531.003 163.545 530.847C163.779 530.69 164.054 530.607 164.335 530.607C164.713 530.607 165.075 530.757 165.341 531.024C165.608 531.291 165.758 531.653 165.758 532.03V532.03Z" fill="#6097B2"/>
<path d="M132.601 498.421C132.601 498.702 132.518 498.978 132.361 499.212C132.205 499.446 131.983 499.628 131.723 499.736C131.463 499.843 131.176 499.872 130.9 499.817C130.624 499.762 130.371 499.626 130.172 499.427C129.973 499.228 129.837 498.975 129.782 498.699C129.727 498.422 129.756 498.136 129.863 497.876C129.971 497.616 130.153 497.394 130.387 497.238C130.621 497.081 130.897 496.998 131.178 496.998C131.555 496.998 131.917 497.148 132.184 497.415C132.451 497.681 132.601 498.043 132.601 498.421V498.421Z" fill="#6097B2"/>
<path d="M135.966 513.344C136.752 513.344 137.389 512.706 137.389 511.92C137.389 511.134 136.752 510.497 135.966 510.497C135.18 510.497 134.543 511.134 134.543 511.92C134.543 512.706 135.18 513.344 135.966 513.344Z" fill="#6097B2"/>
<path d="M159.839 519.594C159.842 519.877 159.761 520.153 159.606 520.389C159.451 520.624 159.23 520.809 158.97 520.919C158.71 521.028 158.424 521.059 158.147 521.005C157.87 520.952 157.615 520.817 157.415 520.619C157.214 520.42 157.077 520.167 157.021 519.89C156.966 519.614 156.993 519.327 157.1 519.066C157.208 518.805 157.39 518.582 157.624 518.426C157.859 518.269 158.134 518.185 158.416 518.185C158.791 518.185 159.151 518.333 159.418 518.597C159.684 518.861 159.836 519.219 159.839 519.594V519.594Z" fill="#6097B2"/>
<path d="M162.912 496.333C162.912 496.615 162.828 496.891 162.671 497.125C162.514 497.359 162.291 497.542 162.03 497.649C161.769 497.756 161.482 497.784 161.206 497.728C160.93 497.672 160.676 497.535 160.478 497.334C160.279 497.134 160.145 496.879 160.091 496.602C160.038 496.325 160.068 496.039 160.178 495.779C160.287 495.519 160.472 495.298 160.708 495.143C160.943 494.988 161.22 494.907 161.502 494.91C161.688 494.91 161.873 494.947 162.044 495.018C162.216 495.09 162.372 495.195 162.503 495.327C162.635 495.46 162.738 495.617 162.808 495.789C162.878 495.962 162.913 496.147 162.912 496.333Z" fill="#6097B2"/>
<path d="M146.792 492.915C147.578 492.915 148.215 492.278 148.215 491.492C148.215 490.706 147.578 490.068 146.792 490.068C146.006 490.068 145.369 490.706 145.369 491.492C145.369 492.278 146.006 492.915 146.792 492.915Z" fill="#6097B2"/>
<path d="M106.293 544.652C106.293 544.933 106.21 545.208 106.054 545.442C105.897 545.676 105.675 545.859 105.415 545.966C105.155 546.074 104.869 546.102 104.593 546.047C104.317 545.992 104.063 545.857 103.864 545.658C103.665 545.459 103.53 545.205 103.475 544.929C103.42 544.653 103.448 544.367 103.556 544.107C103.663 543.847 103.846 543.625 104.08 543.468C104.314 543.312 104.589 543.229 104.87 543.229C105.058 543.227 105.244 543.262 105.417 543.333C105.591 543.404 105.748 543.509 105.881 543.641C106.013 543.774 106.118 543.931 106.189 544.105C106.26 544.278 106.295 544.464 106.293 544.652V544.652Z" fill="#6097B2"/>
<path d="M86.064 538.68C86.064 538.961 85.9805 539.237 85.8241 539.471C85.6678 539.705 85.4455 539.887 85.1855 539.995C84.9254 540.102 84.6393 540.131 84.3632 540.076C84.0872 540.021 83.8336 539.885 83.6346 539.686C83.4356 539.487 83.3 539.234 83.2451 538.958C83.1902 538.682 83.2184 538.395 83.3261 538.135C83.4338 537.875 83.6162 537.653 83.8502 537.497C84.0843 537.34 84.3594 537.257 84.6409 537.257C85.0183 537.257 85.3803 537.407 85.6472 537.674C85.9141 537.941 86.064 538.303 86.064 538.68Z" fill="#6097B2"/>
<path d="M74.0012 527.508C73.8715 527.706 73.6938 527.869 73.4846 527.981C73.2753 528.092 73.0414 528.149 72.8042 528.146C72.6174 528.145 72.4326 528.106 72.2606 528.033C72.0887 527.96 71.9327 527.854 71.8018 527.72C71.6709 527.587 71.5676 527.429 71.4977 527.256C71.4278 527.082 71.3927 526.897 71.3944 526.71C71.3872 526.54 71.4239 526.37 71.5008 526.218C72.3835 526.545 73.2231 526.978 74.0012 527.508V527.508Z" fill="#6097B2"/>
<path d="M112.119 564.588C112.905 564.588 113.542 563.951 113.542 563.165C113.542 562.379 112.905 561.742 112.119 561.742C111.333 561.742 110.696 562.379 110.696 563.165C110.696 563.951 111.333 564.588 112.119 564.588Z" fill="#6097B2"/>
<path d="M77.2331 583.275C77.2523 583.472 77.2299 583.672 77.1674 583.86C77.105 584.049 77.0038 584.222 76.8704 584.369C76.737 584.516 76.5744 584.633 76.3929 584.714C76.2114 584.794 76.0151 584.835 75.8167 584.835C75.6182 584.835 75.4219 584.794 75.2404 584.714C75.059 584.633 74.8963 584.516 74.7629 584.369C74.6295 584.222 74.5283 584.049 74.4659 583.86C74.4034 583.672 74.381 583.472 74.4002 583.275C74.4344 582.923 74.5983 582.596 74.8602 582.359C75.122 582.121 75.463 581.989 75.8167 581.989C76.1703 581.989 76.5113 582.121 76.7731 582.359C77.035 582.596 77.199 582.923 77.2331 583.275V583.275Z" fill="#6097B2"/>
<path d="M90.6526 572.515C91.4386 572.515 92.0757 571.878 92.0757 571.092C92.0757 570.306 91.4386 569.669 90.6526 569.669C89.8666 569.669 89.2295 570.306 89.2295 571.092C89.2295 571.878 89.8666 572.515 90.6526 572.515Z" fill="#6097B2"/>
<path d="M68.5618 561.729C69.3477 561.729 69.9849 561.092 69.9849 560.306C69.9849 559.52 69.3477 558.883 68.5618 558.883C67.7758 558.883 67.1387 559.52 67.1387 560.306C67.1387 561.092 67.7758 561.729 68.5618 561.729Z" fill="#6097B2"/>
<path d="M87.7798 602.786C87.7792 603.071 87.6928 603.35 87.5319 603.585C87.3711 603.821 87.1431 604.003 86.8776 604.107C86.6121 604.212 86.3213 604.234 86.043 604.171C85.7647 604.108 85.5118 603.963 85.317 603.755C85.1222 603.546 84.9945 603.284 84.9506 603.002C84.9066 602.72 84.9484 602.432 85.0706 602.174C85.1927 601.916 85.3895 601.701 85.6354 601.556C85.8814 601.412 86.1651 601.344 86.4498 601.363C86.8109 601.387 87.1493 601.547 87.3964 601.811C87.6435 602.076 87.7806 602.424 87.7798 602.786V602.786Z" fill="#6097B2"/>
<path d="M101.32 528.146C101.317 528.428 101.231 528.702 101.073 528.935C100.914 529.167 100.69 529.348 100.429 529.453C100.168 529.558 99.8816 529.584 99.606 529.526C99.3305 529.469 99.0782 529.331 98.8811 529.13C98.6839 528.929 98.5508 528.674 98.4984 528.398C98.4461 528.121 98.477 527.835 98.5871 527.576C98.6972 527.317 98.8817 527.097 99.1172 526.942C99.3526 526.788 99.6285 526.707 99.91 526.71C100.097 526.71 100.283 526.747 100.456 526.82C100.628 526.892 100.785 526.999 100.916 527.132C101.048 527.266 101.151 527.425 101.22 527.599C101.289 527.773 101.323 527.959 101.32 528.146V528.146Z" fill="#6097B2"/>
<path d="M114.965 504.246C114.955 504.525 114.863 504.795 114.7 505.022C114.537 505.249 114.312 505.423 114.051 505.523C113.79 505.622 113.506 505.643 113.233 505.582C112.961 505.521 112.712 505.382 112.519 505.181C112.325 504.98 112.195 504.726 112.144 504.452C112.093 504.177 112.124 503.894 112.233 503.637C112.342 503.38 112.525 503.161 112.757 503.007C112.99 502.852 113.263 502.77 113.542 502.77C113.734 502.768 113.925 502.805 114.102 502.879C114.279 502.953 114.439 503.063 114.572 503.201C114.705 503.34 114.809 503.503 114.877 503.683C114.944 503.863 114.974 504.054 114.965 504.246V504.246Z" fill="#6097B2"/>
<path d="M130.34 484.35C130.305 484.702 130.141 485.028 129.88 485.266C129.618 485.504 129.277 485.635 128.923 485.635C128.569 485.635 128.228 485.504 127.967 485.266C127.705 485.028 127.541 484.702 127.507 484.35C127.487 484.152 127.51 483.953 127.572 483.764C127.635 483.576 127.736 483.403 127.869 483.256C128.003 483.109 128.165 482.991 128.347 482.911C128.528 482.831 128.725 482.789 128.923 482.789C129.122 482.789 129.318 482.831 129.499 482.911C129.681 482.991 129.843 483.109 129.977 483.256C130.11 483.403 130.211 483.576 130.274 483.764C130.336 483.953 130.359 484.152 130.34 484.35V484.35Z" fill="#6097B2"/>
<path d="M99.1245 513.33C99.1245 513.612 99.0411 513.887 98.8847 514.121C98.7283 514.355 98.5061 514.537 98.246 514.645C97.986 514.753 97.6998 514.781 97.4238 514.726C97.1477 514.671 96.8942 514.536 96.6951 514.336C96.4961 514.137 96.3606 513.884 96.3057 513.608C96.2508 513.332 96.2789 513.046 96.3866 512.786C96.4944 512.526 96.6768 512.303 96.9108 512.147C97.1448 511.991 97.42 511.907 97.7014 511.907C98.0788 511.907 98.4408 512.057 98.7077 512.324C98.9746 512.591 99.1245 512.953 99.1245 513.33V513.33Z" fill="#6097B2"/>
<path d="M116.388 490.069C116.388 490.35 116.305 490.625 116.148 490.859C115.992 491.093 115.77 491.276 115.51 491.383C115.25 491.491 114.964 491.519 114.687 491.464C114.411 491.409 114.158 491.274 113.959 491.075C113.76 490.876 113.624 490.622 113.569 490.346C113.514 490.07 113.543 489.784 113.65 489.524C113.758 489.264 113.94 489.042 114.174 488.885C114.408 488.729 114.684 488.645 114.965 488.645C115.343 488.645 115.704 488.795 115.971 489.062C116.238 489.329 116.388 489.691 116.388 490.069V490.069Z" fill="#6097B2"/>
<path d="M89.23 553.988C89.2299 554.269 89.1471 554.543 88.9919 554.776C88.8366 555.009 88.616 555.192 88.3575 555.3C88.099 555.409 87.8142 555.438 87.5389 555.386C87.2636 555.333 87.01 555.2 86.81 555.004C86.6099 554.807 86.4723 554.556 86.4145 554.282C86.3566 554.008 86.381 553.722 86.4846 553.462C86.5883 553.201 86.7665 552.977 86.997 552.818C87.2275 552.658 87.5 552.57 87.7803 552.565C87.9694 552.562 88.1573 552.596 88.3331 552.666C88.5088 552.736 88.6688 552.84 88.8038 552.972C88.9388 553.105 89.046 553.263 89.1192 553.437C89.1924 553.612 89.23 553.799 89.23 553.988V553.988Z" fill="#6097B2"/>
<path d="M71.3942 541.446C71.4134 541.644 71.391 541.843 71.3286 542.032C71.2661 542.22 71.1649 542.393 71.0315 542.54C70.8981 542.687 70.7355 542.805 70.554 542.885C70.3725 542.965 70.1763 543.007 69.9778 543.007C69.7793 543.007 69.583 542.965 69.4016 542.885C69.2201 542.805 69.0574 542.687 68.924 542.54C68.7906 542.393 68.6895 542.22 68.627 542.032C68.5645 541.843 68.5422 541.644 68.5613 541.446C68.5955 541.094 68.7595 540.768 69.0213 540.53C69.2832 540.292 69.6242 540.161 69.9778 540.161C70.3314 540.161 70.6724 540.292 70.9343 540.53C71.1961 540.768 71.3601 541.094 71.3942 541.446V541.446Z" fill="#6097B2"/>
<path d="M121.695 538.627C122.481 538.627 123.118 537.99 123.118 537.204C123.118 536.418 122.481 535.781 121.695 535.781C120.909 535.781 120.271 536.418 120.271 537.204C120.271 537.99 120.909 538.627 121.695 538.627Z" fill="#6097B2"/>
<path d="M151.048 546.075C151.834 546.075 152.471 545.438 152.471 544.652C152.471 543.866 151.834 543.229 151.048 543.229C150.262 543.229 149.625 543.866 149.625 544.652C149.625 545.438 150.262 546.075 151.048 546.075Z" fill="#6097B2"/>
<path d="M151.048 504.246C151.038 504.525 150.946 504.795 150.783 505.022C150.62 505.249 150.395 505.423 150.134 505.523C149.873 505.622 149.589 505.643 149.316 505.582C149.044 505.521 148.795 505.382 148.602 505.181C148.408 504.98 148.278 504.726 148.227 504.452C148.176 504.177 148.207 503.894 148.316 503.637C148.425 503.38 148.608 503.161 148.84 503.007C149.073 502.852 149.346 502.77 149.625 502.77C149.817 502.768 150.008 502.805 150.185 502.879C150.362 502.953 150.522 503.063 150.655 503.201C150.788 503.34 150.892 503.503 150.96 503.683C151.027 503.863 151.057 504.054 151.048 504.246V504.246Z" fill="#6097B2"/>
<path d="M168.112 507.212C168.114 507.494 168.033 507.771 167.878 508.006C167.724 508.242 167.502 508.427 167.243 508.536C166.983 508.646 166.696 508.676 166.419 508.623C166.142 508.569 165.888 508.435 165.687 508.236C165.487 508.038 165.35 507.784 165.294 507.508C165.238 507.232 165.265 506.945 165.373 506.684C165.48 506.423 165.662 506.2 165.897 506.043C166.131 505.886 166.407 505.802 166.689 505.802C167.064 505.802 167.424 505.95 167.69 506.214C167.957 506.478 168.108 506.837 168.112 507.212V507.212Z" fill="#6097B2"/>
<path d="M134.024 555.411C134.024 555.693 133.94 555.968 133.784 556.202C133.628 556.436 133.405 556.618 133.145 556.726C132.885 556.834 132.599 556.862 132.323 556.807C132.047 556.752 131.794 556.617 131.595 556.418C131.396 556.219 131.26 555.965 131.205 555.689C131.15 555.413 131.178 555.127 131.286 554.867C131.394 554.607 131.576 554.385 131.81 554.228C132.044 554.072 132.319 553.988 132.601 553.988C132.788 553.987 132.974 554.022 133.148 554.093C133.321 554.164 133.479 554.269 133.611 554.401C133.744 554.534 133.848 554.691 133.919 554.865C133.99 555.038 134.026 555.224 134.024 555.411V555.411Z" fill="#6097B2"/>
<path d="M120.272 582.091C121.058 582.091 121.695 581.454 121.695 580.668C121.695 579.882 121.058 579.245 120.272 579.245C119.486 579.245 118.849 579.882 118.849 580.668C118.849 581.454 119.486 582.091 120.272 582.091Z" fill="#6097B2"/>
<path d="M98.4866 586.134C99.2725 586.134 99.9097 585.497 99.9097 584.711C99.9097 583.925 99.2725 583.288 98.4866 583.288C97.7006 583.288 97.0635 583.925 97.0635 584.711C97.0635 585.497 97.7006 586.134 98.4866 586.134Z" fill="#6097B2"/>
<path d="M158.416 564.588C159.202 564.588 159.839 563.951 159.839 563.165C159.839 562.379 159.202 561.742 158.416 561.742C157.63 561.742 156.993 562.379 156.993 563.165C156.993 563.951 157.63 564.588 158.416 564.588Z" fill="#6097B2"/>
<path d="M140.222 573.925C140.222 574.207 140.139 574.482 139.982 574.716C139.826 574.95 139.604 575.132 139.344 575.24C139.084 575.348 138.797 575.376 138.521 575.321C138.245 575.266 137.992 575.13 137.793 574.931C137.594 574.732 137.458 574.479 137.403 574.203C137.348 573.927 137.377 573.64 137.484 573.38C137.592 573.12 137.774 572.898 138.008 572.742C138.242 572.585 138.518 572.502 138.799 572.502C139.177 572.502 139.538 572.652 139.805 572.919C140.072 573.186 140.222 573.548 140.222 573.925V573.925Z" fill="#6097B2"/>
<path d="M110.709 605.619C110.712 605.901 110.631 606.177 110.476 606.413C110.321 606.649 110.1 606.833 109.84 606.943C109.58 607.053 109.294 607.083 109.017 607.03C108.74 606.976 108.485 606.842 108.285 606.643C108.084 606.445 107.948 606.191 107.892 605.915C107.836 605.638 107.863 605.352 107.97 605.091C108.078 604.83 108.26 604.607 108.494 604.45C108.729 604.293 109.004 604.209 109.286 604.209C109.661 604.209 110.021 604.357 110.288 604.621C110.554 604.885 110.706 605.244 110.709 605.619V605.619Z" fill="#6097B2"/>
<path d="M131.178 599.661C131.964 599.661 132.601 599.023 132.601 598.237C132.601 597.451 131.964 596.814 131.178 596.814C130.392 596.814 129.755 597.451 129.755 598.237C129.755 599.023 130.392 599.661 131.178 599.661Z" fill="#6097B2"/>
<path d="M152.272 591.295C153.058 591.295 153.695 590.658 153.695 589.872C153.695 589.086 153.058 588.449 152.272 588.449C151.486 588.449 150.849 589.086 150.849 589.872C150.849 590.658 151.486 591.295 152.272 591.295Z" fill="#6097B2"/>
<path d="M144.185 614.291C144.185 614.572 144.102 614.847 143.945 615.081C143.789 615.315 143.567 615.498 143.307 615.605C143.047 615.713 142.76 615.741 142.484 615.686C142.208 615.631 141.955 615.496 141.756 615.297C141.557 615.098 141.421 614.844 141.366 614.568C141.311 614.292 141.339 614.006 141.447 613.746C141.555 613.486 141.737 613.264 141.971 613.107C142.205 612.951 142.481 612.867 142.762 612.867C143.139 612.867 143.501 613.017 143.768 613.284C144.035 613.551 144.185 613.913 144.185 614.291Z" fill="#6097B2"/>
<path d="M142.629 689.05H119.314C117.785 684.701 120.644 680.352 120.126 676.521C119.314 670.057 123.078 673.622 123.078 673.622C123.743 666.679 133.519 665.363 133.412 668.461C133.253 673.023 134.131 675.843 135.434 677.771C138.094 681.562 142.377 681.535 143.108 684.262C143.188 684.515 143.241 684.781 143.294 685.02C144.013 688.385 142.629 689.05 142.629 689.05Z" fill="#164353"/>
<path d="M143.294 684.98C138.466 686.11 127.334 684.647 126.882 681.841C126.429 679.035 132.454 677.851 135.433 677.731C138.093 681.522 142.376 681.495 143.108 684.222C143.187 684.475 143.241 684.741 143.294 684.98Z" fill="#205260"/>
<path d="M46.776 508.436C44.3022 506.175 40.2723 509.912 40.2723 509.912C40.2723 509.912 42.4402 513.131 41.0304 514.434C39.6206 515.737 38.0113 512.758 35.2449 514.062C35.0105 514.175 34.7839 514.304 34.5666 514.447C32.412 515.777 30.1643 518.437 28.3555 520.486L27.3048 521.616C25.1901 523.837 19.7371 525.141 18.7263 519.235C17.7155 513.33 24.3522 506.401 31.6406 500.03C38.929 493.659 43.6106 497.45 43.6106 497.45C44.4494 498.768 45.0106 500.243 45.2598 501.786C45.2598 503.448 46.7361 504.273 47.5607 505.856C47.7735 506.306 47.8109 506.82 47.6659 507.297C47.5209 507.774 47.2037 508.18 46.776 508.436V508.436Z" fill="#164353"/>
<path d="M34.58 514.447C32.4254 515.777 30.1777 518.437 28.3689 520.486C25.6291 521.137 23.1819 520.938 22.7962 518.371C21.8652 512.173 34.2342 504.286 33.25 508.649C33.0783 509.655 33.1074 510.686 33.3356 511.681C33.5639 512.676 33.9868 513.616 34.58 514.447V514.447Z" fill="#205260"/>
<path d="M466.324 678.955C464.965 678.06 463.871 676.815 463.159 675.351C462.683 671.976 462.683 668.551 463.159 665.176C463.983 659.963 461.709 655.693 454.328 654.097C447.159 652.541 442.89 655.999 444.552 670.43C443.462 676.428 443.222 683.278 445.723 689.05H467.814C467.814 689.05 471.298 681.575 466.324 678.955Z" fill="#CFD8DC"/>
<path d="M485.702 601.19C485.255 611.399 482.48 621.371 477.589 630.344C469.317 645.386 459.089 666.027 459.089 666.027C459.089 666.027 452.28 672.677 447.957 661.665C447.957 661.665 451.003 623.334 458.025 609.303C465.048 595.271 485.702 601.19 485.702 601.19Z" fill="#FF8B66"/>
<path d="M591.664 554.294C591.664 554.294 604.817 609.635 613.183 624.239C613.183 624.239 611.268 630.344 602.197 632.219C602.197 632.219 573.562 590.138 571.727 572.369C569.892 554.6 591.664 554.294 591.664 554.294Z" fill="#FF8B66"/>
<path d="M598.022 567.315C594.524 575.747 567.432 576.199 567.432 576.199L565.37 573.154L564.825 572.356L560.595 566.131C560.595 566.131 515.788 522.241 507.063 525.872C506.805 525.988 506.559 526.13 506.331 526.298C500.333 530.58 499.774 554.055 492.686 593.436C491.892 597.225 490.78 600.94 489.361 604.542C489.228 604.861 489.108 605.167 488.988 605.473C488.336 607.135 487.884 608.133 487.884 608.133C460.539 619.211 451.509 597.32 451.509 597.32C451.509 597.32 451.841 596.681 452.307 595.67L452.653 594.926C454.089 591.774 456.377 586.294 456.35 583.395C456.35 580.229 456.323 577.175 456.27 574.231C456.27 573.965 456.27 573.712 456.27 573.459C456.27 563.99 456.27 555.77 456.27 548.628V547.99C456.27 544.878 456.35 541.965 456.403 539.252V538.48C456.643 526.032 457.042 517.719 457.467 512.186C457.467 511.934 457.467 511.668 457.467 511.428C458.225 502.118 459.023 501.201 459.023 501.201L453.544 463.109H513.38C513.38 463.109 522.358 472.1 534.009 483.977L534.74 484.695C538.956 488.991 543.518 493.659 548.107 498.408L548.639 498.953L553.959 504.512C554.171 504.738 554.384 504.978 554.61 505.191C560.595 511.415 566.421 517.546 571.395 522.906C571.568 523.079 571.741 523.252 571.9 523.438C578.71 530.806 583.87 536.738 585.679 539.398C590 546.488 593.511 554.041 596.146 561.915V561.915C596.253 562.181 596.332 562.42 596.426 562.673C597.49 565.506 598.022 567.315 598.022 567.315Z" fill="#8B383E"/>
<path d="M468.08 506.84C465.357 509.883 461.585 511.783 457.52 512.16C457.52 511.907 457.52 511.641 457.52 511.402C461.35 511.036 464.901 509.241 467.468 506.374C469.977 503.113 471.194 499.04 470.886 494.936L471.631 494.843C471.986 499.145 470.719 503.424 468.08 506.84V506.84Z" fill="#662C33"/>
<path d="M534.779 484.642H534.088C527.438 484.642 520.495 477.367 520.149 477.008L520.681 476.489C520.761 476.596 527.677 483.831 534.048 483.884L534.779 484.642Z" fill="#662C33"/>
<path d="M489.44 604.542C489.307 604.861 489.187 605.167 489.067 605.473C485.169 606.95 481.04 607.725 476.871 607.76C465.061 607.76 456.921 600.924 452.386 595.79L452.732 595.045C458.437 601.735 470.7 611.67 489.44 604.542Z" fill="#662C33"/>
<path d="M505.4 512.16C506.457 516.655 507.011 521.254 507.049 525.872C506.791 525.988 506.546 526.13 506.318 526.298C506.318 504.007 493.377 486.611 493.23 486.398L493.816 485.946C499.127 493.654 502.985 502.267 505.2 511.362C505.951 510.888 506.599 510.268 507.106 509.539C507.613 508.81 507.969 507.988 508.153 507.119C510.015 499.299 501.503 486.517 501.503 486.384L502.102 485.959C502.461 486.517 510.813 499.152 508.898 507.239C508.687 508.256 508.267 509.219 507.665 510.066C507.063 510.913 506.292 511.626 505.4 512.16Z" fill="#662C33"/>
<path d="M572.007 523.385C569.799 525.766 567.737 527.814 567.551 527.987L567.152 528.386L566.953 527.854C564.053 520.273 545.46 503.914 545.26 503.701L545.034 503.488L548.146 498.354L548.678 498.9L546.018 503.209C548.55 504.221 551.278 504.649 553.998 504.459C554.211 504.685 554.424 504.925 554.65 505.137C554.009 505.251 553.359 505.308 552.708 505.31C550.768 505.257 548.846 504.921 547.003 504.313C551.219 508.13 564.293 520.273 567.365 527.069C568.522 525.925 570.025 524.409 571.435 522.853C571.674 523.026 571.9 523.199 572.007 523.385Z" fill="#662C33"/>
<path d="M469.902 574.164H469.61C467.146 574.674 464.637 574.933 462.122 574.936C460.162 574.967 458.207 574.734 456.31 574.244C456.31 573.978 456.31 573.725 456.31 573.473C461.177 574.883 467.694 573.792 469.171 573.473L467.934 542.75C467.068 545.002 465.42 546.867 463.292 548.003C462.015 548.634 460.606 548.948 459.182 548.921C458.225 548.913 457.271 548.806 456.336 548.602V547.99C458.542 548.621 460.901 548.442 462.986 547.485C464.153 546.824 465.175 545.937 465.993 544.875C466.811 543.812 467.408 542.597 467.748 541.3C465.287 541.672 460.3 540.409 456.509 539.252V538.48C460.605 539.717 466.138 541.14 468.133 540.462L468.599 540.303L469.902 574.164Z" fill="#662C33"/>
<path d="M596.531 562.62C593.019 566.067 588.862 568.787 584.298 570.627C579.734 572.466 574.852 573.388 569.931 573.34C568.438 573.337 566.947 573.257 565.462 573.1L564.917 572.302C581.369 574.191 591.703 566.477 596.292 561.862C596.358 562.181 596.438 562.42 596.531 562.62Z" fill="#662C33"/>
<path d="M524.472 301.155C524.472 301.155 522.823 297.365 515.894 297.365C510.574 297.365 508.499 300.317 508.499 300.317C505.293 309.627 501.849 345.537 500.625 346.748C500 347.399 460.326 374.119 460.326 374.119C481.859 374.518 495.292 401.052 495.292 401.052C495.983 392.34 520.296 357.787 520.562 354.701C521.054 348.889 531.335 322.927 524.472 301.155Z" fill="#CE364C"/>
<path d="M455.605 488.379C455.605 488.379 455.405 495.854 457.826 496.359C472.761 500.138 488.536 498.731 502.567 492.369C525.177 482.075 529.167 474.454 522.517 468.789C515.867 463.123 455.605 488.379 455.605 488.379Z" fill="#CE364C"/>
<path d="M446.534 379.293C446.534 379.293 425.933 376.846 414.122 381.953C414.122 381.953 410.824 396.583 427.05 429.288C443.276 461.992 439.512 482.62 457.826 490.374C474.052 497.25 521.892 476.782 523.395 469.999C527.172 452.908 497.912 422.97 496.09 405.547C494.268 388.124 477.244 362.056 446.534 379.293Z" fill="#F24052"/>
<path d="M414.122 381.953C399.718 387.073 383.532 403.233 383.532 411.027C383.532 418.82 397.032 421.826 397.032 421.826L419.19 411C419.19 411 425.547 406.571 421.504 393.71C417.461 380.849 414.122 381.953 414.122 381.953Z" fill="#CE364C"/>
<path d="M473.281 396.37C468.679 396.311 464.188 394.951 460.326 392.447C459.545 391.985 458.864 391.371 458.323 390.643C457.782 389.914 457.391 389.085 457.174 388.204C456.363 383.097 461.337 380.49 461.55 380.383L462.215 381.713C462.042 381.807 457.986 383.948 458.624 387.991C459.022 389.37 459.937 390.542 461.178 391.263C465.404 394.036 470.462 395.258 475.488 394.721C476.21 394.677 476.914 394.475 477.549 394.127C478.183 393.78 478.733 393.297 479.159 392.713C479.352 392.298 479.459 391.849 479.475 391.392C479.491 390.935 479.415 390.48 479.252 390.053L480.582 389.467C480.827 390.094 480.94 390.765 480.915 391.438C480.889 392.11 480.727 392.77 480.436 393.378C479.913 394.17 479.216 394.833 478.398 395.315C477.579 395.797 476.661 396.085 475.715 396.157C474.911 396.297 474.096 396.368 473.281 396.37Z" fill="#CFD8DC"/>
<path d="M455.02 411.944C451.828 411.944 446.548 410.614 445.803 405.387C445.524 403.115 445.551 400.816 445.883 398.551C446.202 395.665 446.441 393.391 444.765 390.651C441.986 386.156 438.208 385.85 438.049 385.836L438.142 384.36C438.328 384.36 442.824 384.693 446.029 389.88C447.971 393.045 447.665 395.798 447.359 398.711C447.042 400.852 447.015 403.026 447.279 405.175C448.077 410.827 455.259 410.495 455.578 410.495L455.658 411.971L455.02 411.944Z" fill="#CFD8DC"/>
<path d="M459.501 385.437C459.501 385.437 470.394 378.029 467.801 369.996C465.207 361.963 430.148 362.521 421.104 372.124C412.06 381.727 440.669 388.084 440.669 388.084C442.89 383.629 457.041 383.136 459.501 385.437Z" fill="#CE364C"/>
<path d="M439.924 384.187C434.75 382.432 431.691 378.708 432.795 374.398C433.899 370.089 456.123 369.97 460.326 373.414C464.529 376.859 458.61 390.531 439.924 384.187Z" fill="#A02E44"/>
<path d="M437.464 372.084C437.464 372.084 442.026 379.891 439.924 384.187C439.924 384.187 455.605 389.6 455.605 380.822C455.605 380.822 452.652 374.252 453.756 369.996L437.464 372.084Z" fill="#EF6E4B"/>
<path d="M432.25 365.261C432.25 365.261 424.549 352.919 425.267 341.135C425.626 335.243 428.658 332.929 428.658 332.929C428.658 332.929 426.211 329.524 428.831 324.324C428.831 324.324 432.462 328.527 445.19 327.197C457.48 325.867 458.703 334.685 458.703 334.685C467.481 336.015 461.563 362.548 455.431 365.275L432.25 365.261Z" fill="#FFB878"/>
<path d="M428.965 353.81C428.965 353.81 424.536 349.394 423.99 354.555C423.352 360.54 428.792 362.96 429.856 361.059C430.92 359.157 428.965 353.81 428.965 353.81Z" fill="#FF8B66"/>
<path d="M459.981 354.182C459.981 354.182 464.409 349.753 464.955 354.927C465.58 360.912 460.14 363.319 459.076 361.418C458.012 359.516 459.981 354.182 459.981 354.182Z" fill="#FF8B66"/>
<path d="M444.008 375.542C434.179 375.542 428.633 369.132 428.633 349.873C428.633 339.951 433.687 333.913 444.686 333.913C455.685 333.913 460.327 340.005 460.327 349.873C460.327 370.568 454.156 375.542 444.008 375.542Z" fill="#FF8B66"/>
<path d="M457.081 356.749C457.263 357.195 457.303 357.687 457.195 358.156C457.087 358.625 456.835 359.05 456.475 359.37C456.116 359.691 455.665 359.892 455.186 359.945C454.708 359.999 454.224 359.903 453.802 359.67C453.38 359.437 453.041 359.079 452.832 358.645C452.622 358.211 452.552 357.723 452.632 357.248C452.711 356.773 452.936 356.334 453.276 355.992C453.615 355.65 454.052 355.422 454.527 355.339C455.053 355.191 455.615 355.256 456.093 355.52C456.571 355.784 456.926 356.226 457.081 356.749V356.749Z" fill="#DB614D"/>
<path d="M436.865 357.281C436.941 357.757 436.868 358.246 436.655 358.678C436.441 359.111 436.099 359.466 435.675 359.696C435.251 359.926 434.766 360.018 434.287 359.96C433.809 359.902 433.36 359.697 433.003 359.373C432.646 359.049 432.398 358.622 432.294 358.151C432.19 357.68 432.235 357.189 432.422 356.744C432.61 356.3 432.931 355.925 433.341 355.671C433.75 355.417 434.229 355.296 434.71 355.326C435.253 355.308 435.782 355.502 436.184 355.867C436.586 356.232 436.831 356.739 436.865 357.281V357.281Z" fill="#DB614D"/>
<path d="M452.745 346.415C452.68 346.429 452.612 346.428 452.548 346.412C452.483 346.395 452.423 346.365 452.372 346.322C451.183 345.582 449.762 345.307 448.382 345.551C448.256 345.571 448.127 345.542 448.02 345.471C447.914 345.399 447.839 345.29 447.811 345.165C447.799 345.101 447.8 345.036 447.814 344.973C447.828 344.909 447.854 344.849 447.891 344.796C447.928 344.743 447.975 344.698 448.03 344.663C448.085 344.628 448.146 344.604 448.21 344.593C449.848 344.293 451.539 344.636 452.931 345.551C453.032 345.63 453.097 345.744 453.115 345.871C453.132 345.998 453.1 346.126 453.024 346.229C452.957 346.324 452.858 346.39 452.745 346.415V346.415Z" fill="#FFB878"/>
<path d="M433.939 346.495C433.814 346.473 433.7 346.407 433.62 346.309C433.537 346.208 433.498 346.079 433.51 345.949C433.523 345.82 433.586 345.7 433.686 345.617C435.058 344.675 436.733 344.281 438.381 344.513C438.511 344.536 438.626 344.609 438.703 344.715C438.781 344.822 438.813 344.955 438.793 345.085C438.771 345.211 438.7 345.324 438.595 345.398C438.491 345.473 438.362 345.504 438.235 345.484C436.862 345.296 435.468 345.613 434.311 346.375C434.261 346.42 434.202 346.453 434.138 346.474C434.073 346.494 434.006 346.502 433.939 346.495V346.495Z" fill="#FFB878"/>
<path d="M451.734 351.961C451.734 353.185 451.189 354.182 450.51 354.182C449.832 354.182 449.273 353.185 449.273 351.961C449.273 350.738 449.832 349.753 450.51 349.753C451.189 349.753 451.734 350.751 451.734 351.961Z" fill="#1A4850"/>
<path d="M438.607 351.961C438.607 353.185 438.062 354.182 437.383 354.182C436.705 354.182 436.146 353.185 436.146 351.961C436.146 350.738 436.705 349.753 437.383 349.753C438.062 349.753 438.607 350.751 438.607 351.961Z" fill="#1A4850"/>
<path d="M431.639 335.988C439.881 338.536 448.538 339.471 457.135 338.741C457.135 338.741 460.327 342.731 459.941 356.816C459.941 356.816 468.732 331.453 443.063 331.453C417.394 331.453 428.965 356.257 428.965 356.257C428.965 356.257 426.93 340.736 431.639 335.988Z" fill="#FFB878"/>
<path d="M444.619 358.531L443.888 357.787L445.829 355.858C443.941 353.198 443.954 347.027 443.954 346.748H445.005C445.005 346.814 445.005 353.398 446.92 355.526L447.253 355.898L444.619 358.531Z" fill="#DB614D"/>
<path d="M438.102 361.79C438.102 361.79 447.771 362.189 452.652 360.899C452.785 361.837 452.71 362.793 452.434 363.699C452.157 364.605 451.685 365.439 451.051 366.143C450.417 366.847 449.636 367.403 448.764 367.772C447.891 368.142 446.948 368.315 446.002 368.28C438.102 368.613 438.102 361.79 438.102 361.79Z" fill="#1A4850"/>
<path d="M479.439 388.39C481.274 388.044 481.101 392.872 479.439 391.476C477.776 390.079 477.59 388.683 479.439 388.39Z" fill="#CFD8DC"/>
<path d="M457.174 411.745C456.895 413.594 452.386 411.838 454.262 410.734C456.137 409.63 457.52 409.883 457.174 411.745Z" fill="#CFD8DC"/>
<path d="M437.357 421.826C437.357 421.826 434.431 429.341 434.591 433.583C434.75 437.826 436.147 437.281 436.147 437.281C435.465 437.575 434.866 438.032 434.402 438.612C433.939 439.191 433.624 439.876 433.487 440.606C433.061 443.053 439.246 444.848 439.671 444.848C440.097 444.848 444.446 443.186 444.446 443.186L445.364 429.287L441.507 426.867L437.357 421.826Z" fill="#EF6E4B"/>
<path d="M439.698 420.855C442.295 422.437 444.767 424.216 447.093 426.175C449.167 428.21 447.984 443.891 447.093 444.636C446.202 445.381 439.405 446.897 438.102 446.046C436.798 445.194 438.607 440.579 438.607 440.579C438.607 440.579 442.025 439.834 441.533 441.125C441.241 441.9 441.241 442.756 441.533 443.532L442.863 442.973C442.486 440.96 442.486 438.895 442.863 436.882C443.555 434.302 438.062 431.562 437.397 426.84C436.732 422.119 439.698 420.855 439.698 420.855Z" fill="#FF8B66"/>
<path d="M384.37 413.208C382.667 405.826 389.982 403.219 400.17 404.47C411.98 405.933 436.24 409.018 441.52 421.76C441.52 421.76 443.235 426.8 438.78 429.221C426.331 436.071 387.601 427.066 384.37 413.208Z" fill="#CE364C"/>
<path d="M421.344 408.34C421.344 408.34 407.259 402.501 400.25 401.903C393.241 401.304 409.946 407.409 421.344 408.34Z" fill="#A02E44"/>
<path d="M526.879 281.564C525.737 283.434 524.792 285.418 524.06 287.483C523.315 291.473 522.889 293.627 521.506 295.463C520.123 297.298 520.854 300.477 520.854 300.477C520.854 300.477 515.534 303.243 510.959 299.825C510.959 299.825 511.438 296.66 510.959 295.755C510.028 293.947 507.049 292.989 506.025 289.358C505.074 286.597 503.701 283.999 501.955 281.658C501.955 281.658 502.82 279.756 504.416 280.913C506.012 282.07 507.076 284.996 507.913 285.288C508.086 285.346 508.265 285.386 508.445 285.408C508.754 285.461 509.071 285.447 509.374 285.367C509.677 285.286 509.959 285.142 510.201 284.943C510.238 284.924 510.27 284.897 510.294 284.863C511.757 283.16 512.103 278.213 512.036 275.938C511.957 272.84 512.036 268.557 513.965 269.288C515.893 270.02 514.125 271.749 515.588 278.598L516.292 278.678C516.425 279.17 517.729 274.529 518.035 270.18C518.261 267.174 520.229 268.291 520.695 269.235C521.16 270.18 520.469 273.225 520.336 275.327C520.229 276.763 520.11 278.253 520.043 279.144L520.868 279.596C523.847 274.396 522.836 272.241 524.578 272.135C526.321 272.028 525.682 276.417 524.751 278.093C524.241 279.282 523.875 280.528 523.661 281.804C526.72 278.266 526.321 276.484 527.784 276.643C529.247 276.803 528.01 280.354 526.879 281.564Z" fill="#FF8B66"/>
<path d="M513.673 289.704C512.649 286.858 508.951 285.554 508.499 285.408C508.808 285.461 509.125 285.447 509.428 285.367C509.731 285.286 510.013 285.142 510.255 284.943C511.239 285.297 512.093 285.943 512.703 286.793C513.313 287.643 513.651 288.658 513.673 289.704Z" fill="#EF6E4B"/>
<path d="M449.54 667.384C449.54 667.384 447.505 663.221 449.327 661.426C451.15 659.63 453.317 662.955 456.403 662.21C459.489 661.466 460.233 659.271 461.045 662.277C461.856 665.283 460.859 674.766 449.54 667.384Z" fill="#CFD8DC"/>
<path d="M461.244 667.198C461.244 667.198 452.891 670.164 448.556 667.198L449.66 670.816C449.66 670.816 458.743 671.786 459.994 669.486L461.244 667.198Z" fill="#ADBEC4"/>
<path d="M461.125 671.68C461.125 671.68 453.477 670.616 449.793 672.518V674.34C449.793 674.34 459.768 672.012 462.987 674.34L461.125 671.68Z" fill="#ADBEC4"/>
<path d="M449.42 678.051C449.989 676.903 450.864 675.935 451.948 675.252C453.032 674.569 454.284 674.198 455.565 674.18C458.35 674.026 461.103 674.839 463.358 676.481C463.358 676.481 455.977 673.436 449.42 678.051Z" fill="#ADBEC4"/>
<path d="M646.38 627.79C637.871 639.362 625.612 647.626 611.693 651.171C605.894 646.53 605.748 641.037 605.748 641.037C605.748 641.037 600.149 636.049 599.404 633.655C598.659 631.261 604.205 624.053 607.53 624.797C608.433 625.041 609.275 625.469 610.003 626.055C610.731 626.641 611.329 627.373 611.76 628.202C609.007 622.018 611.214 619.863 615.111 620.395C619.008 620.927 615.324 621.898 618.237 625.17C618.445 625.394 618.677 625.595 618.928 625.768C619.496 626.153 620.14 626.412 620.817 626.526C621.506 626.644 622.207 626.68 622.905 626.633C623.291 626.633 623.69 626.566 624.089 626.513C624.872 626.378 625.645 626.191 626.403 625.955C627.698 625.54 628.95 625.001 630.14 624.345C635.221 621.566 637.362 620.621 641.232 621.605C645.103 622.59 645.023 625.502 645.023 625.502L646.38 627.79Z" fill="#CFD8DC"/>
<path d="M646.38 627.79C637.871 639.362 625.613 647.626 611.693 651.171C621.894 646.782 631.271 641.037 637.682 633.961C644.092 626.886 646.38 627.79 646.38 627.79Z" fill="#ADBEC4"/>
<path d="M618.928 625.782C619.496 626.167 620.14 626.425 620.817 626.54C619.757 626.705 618.779 627.209 618.029 627.976C617.278 628.743 616.796 629.732 616.654 630.796L615.005 630.264C615.364 626.101 618.649 625.795 618.928 625.782Z" fill="#ADBEC4"/>
<path d="M621.549 631.208H619.82C619.528 630.407 619.467 629.539 619.643 628.705C619.82 627.87 620.227 627.102 620.818 626.487C621.507 626.604 622.208 626.64 622.906 626.593C622.305 627.183 621.864 627.916 621.627 628.724C621.39 629.532 621.363 630.387 621.549 631.208Z" fill="#ADBEC4"/>
<path d="M625.818 630.264L624.102 630.477C623.811 629.852 623.66 629.171 623.66 628.482C623.66 627.792 623.811 627.111 624.102 626.487C624.885 626.351 625.658 626.164 626.417 625.928C625.994 626.558 625.72 627.275 625.616 628.027C625.513 628.778 625.582 629.543 625.818 630.264V630.264Z" fill="#ADBEC4"/>
<path d="M461.391 448.24C461.391 448.24 465.194 468.695 457.52 476.848C449.846 485.001 454.927 478.311 457.214 467.791C459.502 457.271 457.76 446.139 461.391 448.24Z" fill="#CE364C"/>
<path d="M496.781 439.036C496.781 439.036 508.871 443.026 515.188 454.172C515.188 454.172 506.73 435.991 496.781 439.036Z" fill="#CE364C"/>
<path d="M182.836 287.004C184.991 287.413 187.099 288.041 189.126 288.879C192.545 290.994 194.446 292.138 196.734 292.337C199.022 292.537 199.939 296.434 199.939 296.434C199.939 296.434 208.877 298.389 209.382 292.75C209.382 292.75 204.382 285.674 204.062 284.77C203.344 282.868 204.634 280.022 202.626 276.79C201.225 274.221 200.225 271.454 199.66 268.584C199.66 268.584 197.665 267.972 197.452 269.914C197.239 271.855 198.702 274.595 198.343 275.433C198.271 275.601 198.182 275.761 198.077 275.912V275.912C197.914 276.18 197.694 276.409 197.432 276.582C197.169 276.754 196.872 276.866 196.561 276.909C196.518 276.924 196.471 276.924 196.428 276.909C194.18 276.909 190.257 273.757 188.648 272.215C186.413 270.073 183.155 267.28 182.423 269.169C181.692 271.057 184.126 270.938 188.209 276.603L187.81 277.189C188.076 277.614 183.82 275.473 180.335 272.773C177.968 270.924 177.462 273.119 177.875 274.103C178.287 275.087 180.88 276.67 182.583 278C183.713 278.891 184.897 279.796 185.602 280.341L185.389 281.258C179.537 279.928 178.619 277.774 177.409 278.998C176.199 280.221 179.843 282.695 181.705 283.12C182.928 283.547 184.097 284.114 185.19 284.81C180.521 284.703 179.378 283.214 178.54 284.397C177.702 285.581 181.226 286.977 182.836 287.004Z" fill="#FF8B66"/>
<path d="M197.731 282.682C196.308 280.022 197.824 276.391 198.024 275.952C197.861 276.22 197.64 276.449 197.378 276.621C197.116 276.794 196.818 276.906 196.507 276.949C196.111 277.917 196.016 278.982 196.235 280.004C196.453 281.027 196.974 281.96 197.731 282.682Z" fill="#EF6E4B"/>
<path d="M445.989 287.004C443.838 287.412 441.734 288.041 439.712 288.879C436.28 290.994 434.392 292.138 432.091 292.337C429.79 292.537 428.899 296.434 428.899 296.434C428.899 296.434 419.948 298.389 419.442 292.75C419.442 292.75 424.443 285.674 424.762 284.77C425.481 282.868 424.191 280.022 426.199 276.79C427.607 274.224 428.612 271.456 429.178 268.584C429.178 268.584 431.16 267.972 431.372 269.914C431.585 271.855 430.122 274.595 430.481 275.433C430.553 275.604 430.647 275.765 430.761 275.912V275.912C430.925 276.179 431.146 276.407 431.408 276.579C431.67 276.752 431.967 276.864 432.277 276.909C432.32 276.924 432.367 276.924 432.41 276.909C434.658 276.909 438.581 273.757 440.19 272.215C442.438 270.073 445.683 267.28 446.415 269.169C447.146 271.057 444.712 270.938 440.629 276.603L441.042 277.189C440.762 277.614 445.032 275.473 448.503 272.773C450.884 270.924 451.376 273.119 450.963 274.103C450.551 275.087 447.944 276.67 446.242 278C445.111 278.891 443.928 279.796 443.223 280.341L443.436 281.258C449.301 279.928 450.205 277.774 451.416 278.998C452.626 280.221 448.982 282.695 447.12 283.12C445.901 283.547 444.736 284.114 443.648 284.81C448.317 284.703 449.447 283.214 450.232 284.397C451.017 285.581 447.598 286.977 445.989 287.004Z" fill="#FF8B66"/>
<path d="M431.092 282.682C432.516 280.022 430.999 276.391 430.8 275.952C430.964 276.219 431.185 276.447 431.447 276.619C431.709 276.791 432.006 276.904 432.316 276.949C432.712 277.917 432.807 278.982 432.589 280.004C432.37 281.027 431.849 281.96 431.092 282.682Z" fill="#EF6E4B"/>
<path d="M367.385 558.111L350.202 451.711L315.795 455.555L281.388 451.711L264.217 558.111L255.958 661.293C255.958 661.293 258.618 669.845 275.748 663.953C275.748 663.953 288.477 568.193 290.378 566.144C292.28 564.096 312.576 501.52 312.576 501.52H318.894C318.894 501.52 339.11 564.03 341.078 566.144C343.046 568.259 355.788 663.953 355.788 663.953C372.945 669.858 375.578 661.293 375.578 661.293L367.385 558.111Z" fill="#0E3944"/>
<path d="M304.955 348.703C307.137 350.818 317.83 354.635 323.469 348.703L327.299 352.467C327.299 352.467 322.937 362.721 315.329 363.107C307.722 363.492 302.136 353.983 302.136 353.983L304.955 348.703Z" fill="#0C476B"/>
<path d="M335.24 347.546C348.035 342.039 389.385 327.383 389.385 327.383C389.385 327.383 417.182 292.563 422.847 287.403C422.847 287.403 429.005 288.507 430.827 296.168C430.827 296.168 412.926 334.485 403.203 345.458C393.481 356.43 344.204 380.157 344.204 380.157L335.24 347.546Z" fill="#0C476B"/>
<path d="M290.445 346.748C294.262 344.34 313.374 357.135 313.374 357.135C313.374 357.135 338.219 343.941 344.057 346.495C344.057 346.495 349.311 353.531 351.426 371.605C353.54 389.68 353.673 464.094 353.673 464.094C340.949 468.068 327.689 470.06 314.359 469.999C288.61 469.999 274.738 462.617 274.738 462.617C274.738 462.617 270.149 359.596 290.445 346.748Z" fill="#FFB878"/>
<path d="M305.967 344.819C305.967 344.819 308.72 353.478 305.967 356.789C305.967 356.789 308.826 362.787 313.947 363.053C319.892 363.359 321.927 356.789 321.927 356.789C321.927 356.789 318.788 348.424 321.927 345.484L305.967 344.819Z" fill="#EF6E4B"/>
<path d="M299.104 336.294C299.104 336.294 293.318 325.148 294.462 313.232C295.606 301.315 313.561 298.602 325.664 304.44C325.664 304.44 322.073 300.929 323.47 299.958C324.866 298.987 327.3 305.278 327.3 305.278C327.3 305.278 331.117 304.108 331.702 305.278C332.287 306.449 327.792 307.087 327.792 307.087C327.792 307.087 335.599 311.423 328.311 334.458L299.104 336.294Z" fill="#8B383E"/>
<path d="M298.239 329.245C298.239 329.245 293.917 324.936 293.385 329.963C292.773 335.802 298.08 338.156 299.104 336.294C300.128 334.432 298.239 329.245 298.239 329.245Z" fill="#FF8B66"/>
<path d="M328.51 329.538C328.51 329.538 332.819 325.228 333.351 330.269C333.976 336.108 328.67 338.462 327.632 336.6C326.595 334.738 328.51 329.538 328.51 329.538Z" fill="#FF8B66"/>
<path d="M312.909 350.379C303.319 350.379 297.906 344.128 297.906 325.348C297.906 315.666 302.841 309.72 313.574 309.72C324.307 309.72 328.829 315.666 328.829 325.348C328.829 345.524 322.804 350.379 312.909 350.379Z" fill="#FF8B66"/>
<path d="M325.65 332.051C325.62 332.563 325.418 333.05 325.076 333.432C324.735 333.814 324.274 334.07 323.769 334.158C323.264 334.246 322.744 334.16 322.294 333.915C321.843 333.671 321.489 333.281 321.288 332.809C321.262 332.28 321.443 331.762 321.793 331.365C322.144 330.967 322.635 330.722 323.163 330.681C323.674 330.537 324.222 330.6 324.687 330.856C325.153 331.113 325.499 331.542 325.65 332.051Z" fill="#DB614D"/>
<path d="M305.9 332.53C305.971 332.993 305.896 333.466 305.687 333.884C305.477 334.303 305.142 334.646 304.729 334.866C304.316 335.086 303.845 335.173 303.381 335.114C302.917 335.055 302.482 334.854 302.137 334.537C301.792 334.221 301.554 333.805 301.455 333.348C301.356 332.89 301.402 332.413 301.586 331.983C301.77 331.552 302.083 331.19 302.482 330.945C302.88 330.7 303.345 330.584 303.812 330.615C304.342 330.597 304.858 330.787 305.248 331.145C305.639 331.504 305.873 332.001 305.9 332.53V332.53Z" fill="#DB614D"/>
<path d="M321.275 322.302C321.21 322.302 321.146 322.29 321.087 322.264C321.027 322.239 320.974 322.202 320.929 322.156C319.905 321.269 318.586 320.794 317.232 320.826C317.106 320.826 316.984 320.778 316.893 320.691C316.801 320.605 316.746 320.486 316.739 320.36C316.738 320.298 316.748 320.235 316.771 320.176C316.793 320.117 316.827 320.064 316.87 320.018C316.913 319.972 316.965 319.936 317.023 319.91C317.08 319.884 317.142 319.87 317.205 319.868C318.829 319.829 320.408 320.409 321.621 321.491C321.708 321.582 321.756 321.704 321.756 321.83C321.756 321.956 321.708 322.078 321.621 322.169C321.575 322.214 321.521 322.249 321.461 322.272C321.402 322.295 321.338 322.305 321.275 322.302V322.302Z" fill="#8B383E"/>
<path d="M303.24 322.302C303.178 322.303 303.117 322.292 303.06 322.269C303.003 322.246 302.951 322.212 302.907 322.169C302.863 322.125 302.827 322.072 302.803 322.014C302.779 321.956 302.767 321.893 302.767 321.83C302.767 321.767 302.779 321.705 302.803 321.646C302.827 321.588 302.863 321.535 302.907 321.491C304.12 320.409 305.699 319.829 307.323 319.868C307.385 319.87 307.447 319.884 307.503 319.91C307.56 319.936 307.611 319.973 307.653 320.019C307.695 320.065 307.728 320.119 307.749 320.177C307.77 320.236 307.779 320.298 307.775 320.36C307.768 320.486 307.714 320.605 307.622 320.691C307.53 320.778 307.409 320.826 307.283 320.826C305.933 320.798 304.62 321.272 303.599 322.156C303.553 322.204 303.497 322.242 303.435 322.267C303.373 322.292 303.307 322.304 303.24 322.302V322.302Z" fill="#8B383E"/>
<path d="M320.437 327.383C320.437 328.58 319.905 329.537 319.24 329.537C318.575 329.537 318.043 328.58 318.043 327.383C318.043 326.186 318.588 325.228 319.24 325.228C319.892 325.228 320.437 326.199 320.437 327.383Z" fill="#1A4850"/>
<path d="M307.642 327.383C307.642 328.58 307.11 329.537 306.445 329.537C305.78 329.537 305.248 328.58 305.248 327.383C305.248 326.186 305.793 325.228 306.445 325.228C307.097 325.228 307.642 326.199 307.642 327.383Z" fill="#1A4850"/>
<path d="M307.643 340.124C307.643 340.124 316.101 341.215 320.437 339.127C320.437 339.127 317.99 344.872 313.375 344.354C312.114 344.275 310.902 343.833 309.886 343.083C308.869 342.333 308.09 341.306 307.643 340.124V340.124Z" fill="#1A4850"/>
<path d="M327.832 331.665C327.832 331.665 327.526 321.252 323.469 313.232C323.469 313.232 316.314 316.543 314.744 315.759C313.175 314.974 316.247 313.232 316.247 313.232C316.247 313.232 304.437 317.129 303.732 316.344C303.027 315.559 307.642 313.232 307.642 313.232L300.287 315.759C300.287 315.759 298.026 325.135 298.957 331.719C298.957 331.719 295.792 326.266 295.406 322.502C295.021 318.738 296.67 308.005 307.735 307.233C318.801 306.462 325.025 308.962 327.778 314.043C330.532 319.124 330.199 325.335 327.832 331.665Z" fill="#8B383E"/>
<path d="M314.572 337.105C313.843 337.09 313.119 336.983 312.417 336.786L312.683 335.815C313.694 336.081 315.263 336.254 315.609 335.815C315.729 335.682 315.609 335.35 315.476 334.924C314.146 331.971 313.8 324.523 313.787 324.204H314.811C314.811 324.284 315.104 331.772 316.394 334.525C316.596 334.818 316.705 335.166 316.705 335.523C316.705 335.879 316.596 336.227 316.394 336.52C316.149 336.742 315.86 336.909 315.546 337.01C315.232 337.111 314.899 337.143 314.572 337.105V337.105Z" fill="#DB614D"/>
<path d="M325.172 351.443C325.172 351.443 342.462 405.281 344.178 449.091C344.178 449.091 350.429 450.807 357.478 441.218C364.527 431.628 360.337 355.592 346.838 342.931C346.838 342.931 340.706 341.534 325.172 351.443Z" fill="#105E99"/>
<path d="M328.004 360.859C328.004 360.859 331.103 353.65 329.733 348.703C328.363 343.755 323.469 348.703 323.469 348.703C323.469 348.703 325.437 356.802 328.004 360.859Z" fill="#0C476B"/>
<path d="M293.198 347.546C280.39 342.04 239.054 327.383 239.054 327.383C239.054 327.383 211.124 291.553 205.511 286.379C203.402 287.687 201.626 289.47 200.327 291.585C199.027 293.7 198.238 296.089 198.023 298.562C198.023 298.562 215.526 334.472 225.262 345.458C234.997 356.443 284.261 380.157 284.261 380.157L293.198 347.546Z" fill="#0C476B"/>
<path d="M303.24 351.443C303.24 351.443 285.95 405.281 284.247 449.091C284.247 449.091 277.983 450.807 270.947 441.218C263.912 431.628 268.101 355.592 281.587 342.931C281.601 342.931 287.732 341.534 303.24 351.443Z" fill="#105E99"/>
<path d="M300.434 360.859C300.434 360.859 297.322 353.65 298.705 348.703C300.088 343.755 304.956 348.703 304.956 348.703C304.956 348.703 302.988 356.802 300.434 360.859Z" fill="#0C476B"/>
<path d="M390.94 689.05H356.506C354.099 675.351 357.93 661.652 357.93 661.652L373.677 658.992C375.113 667.637 376.842 671.055 379.223 672.811C380.965 674.141 383.04 674.5 385.634 675.391C386.839 675.755 387.945 676.391 388.867 677.248C389.789 678.106 390.503 679.163 390.954 680.338C391.834 683.176 391.829 686.215 390.94 689.05Z" fill="#662C33"/>
<path d="M391.02 680.298C382.535 681.362 363.888 683.185 365.019 678.264C365.963 674.154 373.837 673.05 379.263 672.771C381.005 674.101 383.08 674.46 385.674 675.351C386.884 675.712 387.995 676.346 388.922 677.203C389.849 678.061 390.567 679.12 391.02 680.298V680.298Z" fill="#8B383E"/>
<path d="M275.616 689.05H241.182C240.513 686.901 240.309 684.634 240.583 682.4C240.765 680.778 241.417 679.246 242.459 677.991C243.501 676.736 244.888 675.813 246.449 675.337C249.428 674.313 251.769 673.928 253.591 672.172C255.413 670.416 257.155 666.706 258.445 658.939L274.179 661.599C274.179 661.599 277.97 675.351 275.616 689.05Z" fill="#662C33"/>
<path d="M240.584 682.413C240.765 680.792 241.417 679.259 242.459 678.004C243.502 676.749 244.889 675.827 246.449 675.351C249.428 674.327 251.769 673.941 253.591 672.185C257.954 673.515 264.045 675.989 265.947 679.726C268.567 684.847 248.444 684.036 240.584 682.413Z" fill="#8B383E"/>
<path d="M522.836 686.576C522.84 687.403 522.791 688.229 522.689 689.05H480.848C480.848 688.212 480.848 687.387 480.848 686.576C481.24 679.616 482.583 672.743 484.838 666.147L495.291 661.652C495.808 666.005 498.009 669.982 501.423 672.731C502.17 673.316 502.972 673.828 503.817 674.26C504.202 674.473 504.575 674.659 504.974 674.832C505.837 675.224 506.726 675.558 507.634 675.83C510.931 676.672 514.288 677.259 517.675 677.585C522.157 678.33 522.836 683.437 522.836 686.576Z" fill="#164353"/>
<path d="M522.836 686.576C522.84 687.403 522.791 688.229 522.689 689.05H480.848C480.848 688.212 480.848 687.387 480.848 686.576H522.836Z" fill="#225866"/>
<path d="M503.817 674.26L498.005 676.122L496.781 673.994L501.423 672.731C502.17 673.316 502.972 673.828 503.817 674.26V674.26Z" fill="#225866"/>
<path d="M507.648 675.83L503.737 678.423L501.33 677.479L504.974 674.819C505.841 675.216 506.735 675.554 507.648 675.83V675.83Z" fill="#225866"/>
<path d="M362.997 686.576C362.937 687.416 362.781 688.246 362.532 689.05H334.668C334.319 688.256 334.056 687.426 333.884 686.576C331.13 673.276 349.657 656.93 349.657 656.93L355.523 664.764C355.523 664.764 354.844 677.319 359.832 679.939C360.985 680.578 361.909 681.561 362.477 682.751C363.044 683.941 363.226 685.278 362.997 686.576V686.576Z" fill="#164353"/>
<path d="M333.83 686.576H362.944C362.884 687.416 362.728 688.246 362.478 689.05H334.668C334.3 688.258 334.02 687.428 333.83 686.576Z" fill="#225866"/>
<path d="M358.554 678.928C358.554 678.928 346.81 676.268 341.464 679.726V677.785C341.464 677.785 351.332 673.01 358.554 678.928Z" fill="#225866"/>
<path d="M356.227 675.949C356.227 675.949 348.726 672.531 341.464 675.949L342.288 673.994C342.288 673.994 350.973 670.722 356.227 675.949Z" fill="#225866"/>
<path d="M510.201 568.033C510.201 579.245 500.266 670.616 500.266 670.616C494.274 671.208 488.226 670.867 482.338 669.605C479.611 623.308 479.345 583.474 479.345 583.474L431.651 547.724L431.532 547.644C431.532 547.644 431.359 548.455 431.026 549.905C428.672 560.386 418.671 604.302 414.508 614.357C409.76 625.808 357.943 673.994 357.943 673.994C348.314 672.664 340.147 665.695 340.147 665.695C358.767 634.839 384.117 603.89 384.117 603.89C386.099 592.771 387.509 567.98 388.36 549.546V548.695C388.919 536.166 389.198 526.723 389.198 526.723L380.46 508.795L436.001 488.379L448.449 504.339C448.449 504.339 451.296 506.999 455.778 511.216L456.403 511.787C473.108 527.481 510.201 563.019 510.201 568.033Z" fill="#8BBDDB"/>
<path d="M388.36 549.546V548.695C400.051 542.337 398.096 532.216 398.056 532.11L398.788 531.964C398.854 532.03 400.955 542.949 388.36 549.546Z" fill="#6097B2"/>
<path d="M430.787 540.569C431.213 542.935 431.502 545.324 431.651 547.724L431.531 547.644C431.531 547.644 431.358 548.456 431.026 549.905C430.507 532.535 423.352 522.268 423.259 522.148L423.871 521.723C427.263 527.235 429.561 533.349 430.64 539.731C439.086 532.23 430.826 516.855 430.733 516.708L431.385 516.349C431.478 516.509 440.23 532.788 430.787 540.569Z" fill="#6097B2"/>
<path d="M456.442 511.761C456.071 511.893 455.679 511.956 455.285 511.947C451.189 511.947 444.326 506.228 444.007 505.949L444.486 505.377C446.72 507.279 452.931 511.801 455.87 511.162L456.442 511.761Z" fill="#6097B2"/>
<path d="M384.37 413.208C384.37 413.208 401.261 410.548 409.733 415.868C418.205 421.188 429.311 435.352 429.311 435.352C429.311 435.352 416.117 437.095 414.681 446.059C414.641 446.072 405.052 423.236 384.37 413.208Z" fill="#ADBEC4"/>
<path d="M358.967 422.012C351.825 425.883 339.881 440.38 339.336 449.304C338.817 458.002 345.255 466.009 349.604 472.805C363.156 494.085 377.441 512.785 383.505 537.683C383.505 537.842 414.508 550.131 450.857 506.441C450.857 506.441 430.321 478.803 423.219 455.276C420.333 445.7 417.394 435.525 411.848 427.093C408.937 422.524 404.849 418.824 400.014 416.381C395.179 413.938 389.775 412.842 384.37 413.208C375.18 413.953 366.016 418.209 358.967 422.012Z" fill="#CFD8DC"/>
<path d="M355.975 413.115C355.975 413.115 360.55 420.922 358.435 425.218C358.435 425.218 374.116 430.631 374.116 421.853C374.116 421.853 371.163 415.283 372.28 411.027L355.975 413.115Z" fill="#EF6E4B"/>
<path d="M390.82 466.594C390.82 466.594 382.096 469.068 379.901 472.153C377.707 475.239 375.738 482.168 375.738 482.168H390.82L393.667 476.955L396.978 469.999L390.82 466.594Z" fill="#EF6E4B"/>
<path d="M376.39 404.35C376.39 404.35 382.521 401.783 378.557 383.363C375.897 371.153 372.147 369.331 369.7 369.225C369.7 369.225 366.707 364.716 356.4 366.884C352.814 367.502 349.477 369.123 346.775 371.559C344.073 373.995 342.116 377.147 341.131 380.649C338.471 388.975 343.791 406.837 350.588 408.579L376.39 404.35Z" fill="#164353"/>
<path d="M377.853 391.954C377.853 391.954 381.71 386.634 383.173 391.875C384.862 398.019 379.609 401.464 378.173 399.655C376.736 397.846 377.853 391.954 377.853 391.954Z" fill="#FF8B66"/>
<path d="M345.56 397.62C345.56 397.62 340.24 393.763 340.493 399.256C340.866 405.6 346.957 407.236 347.728 405.015C348.5 402.794 345.56 397.62 345.56 397.62Z" fill="#FF8B66"/>
<path d="M365.896 417.158C376.151 415.469 380.832 407.848 377.507 387.738C375.805 377.378 369.527 371.898 358.009 373.787C346.492 375.675 342.728 382.831 344.443 393.191C348.008 414.777 355.309 418.98 365.896 417.158Z" fill="#FF8B66"/>
<path d="M349.018 399.801C348.903 400.298 348.944 400.818 349.136 401.29C349.329 401.761 349.663 402.162 350.093 402.435C350.523 402.709 351.027 402.843 351.536 402.817C352.045 402.792 352.534 402.609 352.935 402.295C353.335 401.98 353.628 401.548 353.773 401.06C353.918 400.571 353.908 400.05 353.744 399.567C353.58 399.085 353.27 398.665 352.857 398.366C352.444 398.068 351.948 397.905 351.439 397.899C350.867 397.839 350.294 398.004 349.842 398.359C349.39 398.714 349.095 399.232 349.018 399.801V399.801Z" fill="#DB614D"/>
<path d="M370.193 396.875C370.195 397.386 370.356 397.882 370.653 398.297C370.95 398.712 371.369 399.024 371.851 399.19C372.333 399.357 372.855 399.369 373.345 399.226C373.834 399.082 374.267 398.79 374.584 398.39C374.9 397.989 375.084 397.501 375.11 396.991C375.137 396.482 375.004 395.976 374.73 395.546C374.457 395.115 374.056 394.78 373.584 394.587C373.112 394.394 372.591 394.352 372.094 394.468C371.527 394.545 371.012 394.838 370.657 395.287C370.302 395.736 370.136 396.306 370.193 396.875V396.875Z" fill="#DB614D"/>
<path d="M351.904 388.603C351.801 388.603 351.7 388.575 351.612 388.523C351.498 388.443 351.421 388.321 351.396 388.184C351.371 388.048 351.401 387.907 351.479 387.792C352.58 386.419 354.165 385.519 355.908 385.278C355.975 385.267 356.044 385.269 356.111 385.285C356.177 385.301 356.24 385.331 356.294 385.372C356.349 385.413 356.395 385.465 356.429 385.524C356.463 385.583 356.485 385.649 356.493 385.717C356.502 385.785 356.498 385.854 356.48 385.921C356.462 385.987 356.431 386.05 356.389 386.104C356.347 386.159 356.295 386.204 356.235 386.238C356.175 386.272 356.109 386.294 356.041 386.302C354.591 386.514 353.27 387.252 352.33 388.377C352.283 388.446 352.219 388.503 352.145 388.542C352.071 388.582 351.988 388.602 351.904 388.603V388.603Z" fill="#1A4850"/>
<path d="M371.203 385.424C371.092 385.421 370.985 385.384 370.897 385.318C369.648 384.553 368.16 384.278 366.721 384.546C366.654 384.56 366.584 384.56 366.517 384.546C366.45 384.533 366.386 384.506 366.329 384.468C366.272 384.43 366.223 384.38 366.185 384.323C366.148 384.266 366.122 384.201 366.109 384.134C366.093 384.068 366.092 383.999 366.103 383.931C366.115 383.864 366.14 383.8 366.178 383.743C366.215 383.686 366.264 383.637 366.32 383.599C366.377 383.561 366.441 383.535 366.508 383.522C368.242 383.2 370.034 383.547 371.522 384.493C371.576 384.534 371.621 384.584 371.656 384.643C371.69 384.701 371.712 384.766 371.72 384.833C371.729 384.899 371.724 384.967 371.706 385.033C371.688 385.098 371.657 385.158 371.615 385.211C371.57 385.279 371.509 385.334 371.437 385.371C371.364 385.408 371.284 385.426 371.203 385.424Z" fill="#1A4850"/>
<path d="M353.78 393.896C353.993 395.226 354.737 396.104 355.442 395.984C356.147 395.865 356.559 394.747 356.347 393.471C356.134 392.194 355.389 391.263 354.684 391.382C353.979 391.502 353.567 392.619 353.78 393.896Z" fill="#1A4850"/>
<path d="M367.466 391.635C367.665 392.965 368.41 393.843 369.128 393.723C369.846 393.604 370.232 392.486 370.019 391.21C369.806 389.933 369.075 389.002 368.357 389.121C367.638 389.241 367.253 390.358 367.466 391.635Z" fill="#1A4850"/>
<path d="M371.31 403.193C371.31 403.193 362.412 405.574 357.478 404.629C357.478 404.629 360.882 408.925 365.75 407.688C370.618 406.451 371.31 403.193 371.31 403.193Z" fill="#1A4850"/>
<path d="M371.722 378.415C371.722 378.415 360.151 386.794 345.627 387.432L346.04 400.36C346.04 400.36 332.5 375.423 359.273 371.007C386.046 366.591 378.252 394.442 378.252 394.442C378.252 394.442 377.428 382.432 371.722 378.415Z" fill="#0E3944"/>
<path d="M362.265 399.722L362.185 398.604C362.185 398.604 363.741 398.485 364.153 397.527C364.313 397.128 363.661 395.878 363.076 394.774C362.067 393.029 361.315 391.147 360.842 389.188L361.932 388.975C362.387 390.842 363.108 392.634 364.074 394.295C364.925 395.931 365.55 397.115 365.178 398.006C364.875 398.513 364.449 398.936 363.94 399.236C363.431 399.536 362.855 399.703 362.265 399.722V399.722Z" fill="#DB614D"/>
<path d="M377.999 378.442C358.541 369.996 340.174 387.512 340.174 387.512C340.174 387.512 338.033 373.321 341.783 369.996C342.753 369.137 343.794 368.363 344.896 367.682C353.487 362.269 364.925 362.362 370.165 364.224C371.041 364.493 371.848 364.947 372.533 365.554C375.645 368.772 377.999 378.442 377.999 378.442Z" fill="#CE364C"/>
<path d="M375.646 375.289C364.635 373.682 353.414 376.115 344.058 382.139C344.058 382.139 343.087 372.989 344.896 367.682C353.488 362.269 364.926 362.362 370.166 364.224C373.225 367.708 375.646 375.289 375.646 375.289Z" fill="#CFD8DC"/>
<path d="M341.81 385.85C341.81 385.85 344.403 374.837 347.888 371.738C353.7 366.578 370.019 364.809 378.597 367.908C387.176 371.007 378.597 380.383 378.597 380.383C378.597 380.383 364.898 370.595 341.81 385.85Z" fill="#A02E44"/>
<path d="M367.08 458.973C371.776 465.746 377.947 471.367 385.128 475.412C385.128 475.412 399.359 463.056 417.819 464.173C417.819 464.173 402.524 491.771 389.384 494.763C382.494 496.373 357.464 479.854 357.464 479.854C357.464 479.854 362.465 462.338 367.08 458.973Z" fill="#FF8B66"/>
<path d="M342.422 440.26C348.54 430.312 362.638 445.021 367.439 455.528C372.241 466.035 375.738 468.257 375.738 468.257C375.738 468.257 361.654 474.148 361.747 484.709C361.76 484.669 329.082 461.939 342.422 440.26Z" fill="#ADBEC4"/>
<path d="M385.075 470.85C385.075 470.85 393.667 462.431 421.89 451.445L418.245 439.981C421.477 435.711 427.436 435.711 427.436 435.711C427.436 435.711 441.893 456.14 439.406 462.232C437.85 466.062 407.685 470.052 385.075 470.85Z" fill="#EF6E4B"/>
<path d="M415.984 454.212C416.247 453.246 416.699 452.341 417.314 451.552C418.352 450.075 418.072 447.402 418.445 446.564C418.817 445.726 421.038 442.348 422.515 441.683C423.991 441.018 425.919 439.941 426.332 441.816C426.744 443.691 423.672 443.146 422.342 445.806C424.082 445.26 425.925 445.119 427.728 445.394C430.096 445.966 430.774 448.134 427.835 448.054C425.967 448.203 424.152 448.752 422.515 449.663C422.515 449.663 425.574 450.115 425.082 451.525C424.27 453.56 420.546 452.31 415.984 454.212Z" fill="#FF8B66"/>
<path d="M207.24 492.649C209.767 499.112 220.101 510.191 220.101 510.191C220.101 510.191 245.371 495.056 256.996 501.413C268.62 507.771 277.903 511.668 285.458 508.901C293.012 506.135 260.68 447.216 260.68 447.216L218.678 431.256C218.678 431.256 217.761 441.896 212.959 443.758C208.158 445.62 203.051 463.189 203.397 466.501C203.742 469.813 207.24 492.649 207.24 492.649Z" fill="#3E6575"/>
<path d="M254.496 510.577C254.496 510.577 243.669 531.857 221.246 558.989C221.246 558.989 218.958 591.321 159.839 642.194L153.642 637.313C153.642 637.313 188.86 582.158 195.949 565.28C203.038 548.402 192.065 532.868 224.464 490.095L254.496 510.577Z" fill="#EF6E4B"/>
<path d="M220.022 473.005C210.712 490.867 207.573 513.689 207.573 513.689L203.33 524.409C213.555 529.637 224.48 533.364 235.769 535.475L242.751 517.014L220.022 473.005Z" fill="#662C33"/>
<path d="M268.66 508.901C268.66 508.901 273.275 532.283 272.517 567.421C272.517 567.421 290.712 594.247 275.696 670.789H267.822C267.822 670.789 261.385 605.619 256.464 588.023C251.543 570.427 233.362 564.961 232.378 511.309L268.66 508.901Z" fill="#FF8B66"/>
<path d="M273.262 533.998C273.262 533.998 258.459 536.658 232.364 535.435L231.952 532.495L231.846 531.737L229.186 512.718C227.234 510.168 225.528 507.438 224.092 504.565C223.772 503.98 223.48 503.368 223.187 502.73C219.676 495.255 216.537 484.363 220.062 473.018L225.568 473.257H226.326L244.76 474.095H245.545L251.596 474.374H252.54L256.53 474.547C256.53 474.547 276.48 492.516 272.929 525.739L273.182 530.367V531.112L273.262 533.998Z" fill="#8B383E"/>
<path d="M226.286 473.31C225.78 474.827 222.296 486.105 224.051 504.566C223.732 503.98 223.44 503.369 223.147 502.73C221.817 485.852 224.863 475.332 225.528 473.257C225.607 473.018 225.661 472.898 225.661 472.885L226.352 473.124C226.336 473.188 226.314 473.251 226.286 473.31V473.31Z" fill="#662C33"/>
<path d="M273.116 531.259C267.876 532.589 258.991 532.974 250.506 532.974C242.925 532.974 235.729 532.668 231.886 532.496L231.779 531.737C238.429 532.057 255.866 532.748 267.117 531.511L266.386 519.634C266.404 507.861 263.643 496.25 258.326 485.746C248.085 483.884 245.265 476.29 244.654 474.148C244.561 473.803 244.521 473.603 244.521 473.59L245.252 473.47C245.301 473.713 245.363 473.953 245.438 474.188C246.328 476.948 247.962 479.408 250.161 481.297C252.36 483.187 255.038 484.432 257.901 484.895C256.059 481.246 253.915 477.758 251.49 474.468C251.171 474.029 250.958 473.776 250.945 473.763L251.503 473.297C251.503 473.297 251.876 473.736 252.434 474.521C255.866 479.176 267.423 496.665 267.131 519.595L267.849 531.432C269.592 531.242 271.321 530.935 273.023 530.514L273.116 531.259Z" fill="#662C33"/>
<path d="M235.41 392.899C229.545 389.654 187.185 406.265 187.185 406.265C187.185 406.265 180.92 417.437 184.83 421.826C188.741 426.215 202.586 424.273 206.842 421.826C211.098 419.379 222.323 417.517 222.323 417.517L235.41 392.899Z" fill="#8BBDDB"/>
<path d="M272.836 357.64C275.662 358.917 278.188 360.774 280.251 363.091C282.313 365.407 283.865 368.131 284.806 371.087C287.998 381.168 278.435 406.691 281.747 418.421C285.058 430.152 284.54 452.297 274.206 456.991C263.872 461.686 242.711 453.307 238.163 440.513C233.614 427.718 235.569 379.226 244.321 362.734C253.072 346.242 270.734 354.528 272.836 357.64Z" fill="#F24052"/>
<path d="M262.781 401.118C265.095 403.605 271.027 399.176 271.027 399.176C271.027 399.176 270.907 421.175 264.51 422.85C258.113 424.526 241.9 405.56 242.499 400.36C243.097 395.16 257.674 395.599 262.781 401.118Z" fill="#8BBDDB"/>
<path d="M238.149 395.625C243.4 399.582 249.45 402.346 255.878 403.725C267.143 406.385 273.248 401.065 279.007 408.3C287.652 419.206 273.581 439.302 266.186 449.716C263.419 453.6 257.607 464.346 256.424 474.694C256.424 474.694 236.886 480.373 220.021 473.005L218.771 449.065C218.771 449.065 208.145 416.706 238.149 395.625Z" fill="#0E3944"/>
<path d="M258.353 418.98C258.353 418.98 267.29 397.7 269.87 396.37C272.451 395.04 279.021 398.272 280.337 401.185C281.654 404.097 280.337 410.495 280.337 410.495C280.337 410.495 273.288 402.342 258.353 418.98Z" fill="#8BBDDB"/>
<path d="M301.125 508.888C297.135 517.214 287.107 519.528 287.107 519.528C287.107 519.528 286.349 518.384 285.072 516.309C284.939 516.11 284.793 515.871 284.66 515.631C276.826 502.916 252.86 462.245 253.325 441.085C253.423 433.751 254.982 426.51 257.909 419.785C260.837 413.06 265.075 406.985 270.376 401.916C278.741 403.911 281.388 406.199 281.388 406.199C283.093 416.689 283.174 427.378 281.627 437.893C279.034 455.183 274.339 459.758 276.706 461.061C279.074 462.365 276.706 464.932 276.706 464.932C276.706 464.932 290.605 484.283 293.198 490.308L299.529 505.071C299.649 505.377 299.769 505.669 299.888 505.935C300.646 507.758 301.125 508.888 301.125 508.888Z" fill="#6097B2"/>
<path d="M276.999 406.265C276.999 406.265 267.051 413.633 272.836 424.885L300.421 453.427C285.285 469.56 283.782 476.183 272.836 483.618L276.999 490.042C276.999 490.042 315.317 460.596 315.37 453.427C315.396 450.381 291.962 413.274 276.999 406.265Z" fill="#FF8B66"/>
<path d="M272.238 483.645C269.36 483.965 266.501 484.436 263.673 485.054C260.361 485.879 255.945 486.704 255.812 487.395C255.679 488.087 263.114 487.395 263.114 487.395C263.114 487.395 257.049 489.896 256.916 490.853C256.783 491.811 264.63 490.162 264.63 490.162C264.63 490.162 259.669 493.194 259.949 494.019C260.228 494.843 266.333 492.782 266.333 492.782C265.746 494.297 264.968 495.732 264.018 497.051C264.018 497.051 265.202 497.703 267.609 495.029C270.017 492.356 273.847 493.221 276.919 490.853C279.992 488.486 275.004 483.286 272.238 483.645Z" fill="#FF8B66"/>
<path d="M244.055 399.163C244.055 399.163 236.488 404.057 231.713 415.868C226.938 427.678 211.843 449.902 208.318 455.648C204.794 461.394 207.241 492.649 207.241 492.649C207.241 492.649 202.812 473.696 200.844 466.315C198.875 458.933 207.201 440.686 208.451 439.715C209.701 438.744 216.099 440.513 214.875 433.065C213.652 425.617 230.835 393.737 235.384 392.845C235.41 392.899 242.725 394.269 244.055 399.163Z" fill="#6097B2"/>
<path d="M220.647 400.759C220.514 401.018 220.363 401.266 220.195 401.504C218.826 403.251 217.166 404.75 215.287 405.933C215.287 405.933 209.515 414.019 209.462 414.95C209.409 415.881 199.434 422.93 195.005 422.837C194.471 422.859 193.948 422.679 193.542 422.332C190.882 419.858 202.493 399.03 205.046 394.548C205.206 394.242 205.339 394.029 205.432 393.883L205.525 393.683C205.525 393.683 203.49 386.102 212.002 387.512C219.064 388.683 220.474 394.309 221.206 398.072C221.343 399.006 221.145 399.958 220.647 400.759V400.759Z" fill="#6097B2"/>
<path d="M190.948 408.633C196.8 400.945 217.362 386.023 228.188 381.647L230.848 386.674C230.848 386.674 209.927 405.068 205.006 412.942C200.085 420.815 194.007 424.061 188.182 421.44C182.356 418.82 189.725 410.242 190.948 408.633Z" fill="#FF8B66"/>
<path d="M218.612 399.176L217.508 400.506L216.95 401.158L215.114 403.246C215.114 403.246 210.512 408.832 210.685 411.08C210.818 412.689 201.947 419.884 195.005 422.89C192.185 424.114 189.685 424.646 188.208 423.808C183.194 420.909 184.311 412.21 187.158 406.318C189.645 401.185 200.617 394.548 203.437 392.925L204.089 392.54L205.139 388.47C205.139 388.47 208.956 386.169 211.975 387.579C211.975 387.579 205.325 387.858 206.416 390.452C207.507 393.045 216.79 399.097 218.612 399.176Z" fill="#8BBDDB"/>
<path d="M242.738 377.87C236.088 380.623 237.019 386.674 230.888 386.674C227.084 386.674 226.592 382.325 226.592 382.325C228.225 378.149 229.246 373.759 229.624 369.291C229.877 366.285 230.888 367.442 230.888 367.442C230.888 367.163 230.888 366.897 230.888 366.631C230.795 364.61 230.422 363.133 231.752 363.971C233.082 364.809 233.774 370.621 233.774 370.621C235.011 362.255 233.175 361.019 234.612 361.763C236.593 362.761 236.607 370.142 236.607 370.368C238.203 365.514 237.777 362.734 238.881 363.838C239.985 364.942 238.322 373.88 237.657 377.138C237.511 377.87 237.405 378.322 237.405 378.322C242.685 375.848 242.738 377.87 242.738 377.87Z" fill="#FF8B66"/>
<path d="M237.632 377.258C237.485 377.989 237.379 378.442 237.379 378.442C236.525 378.44 235.686 378.662 234.945 379.084C234.203 379.506 233.584 380.115 233.149 380.849C233.333 379.808 233.889 378.869 234.713 378.208C235.538 377.547 236.576 377.21 237.632 377.258V377.258Z" fill="#EF6E4B"/>
<path d="M231.26 373.441C231.26 372.736 231.593 368.666 230.888 367.443C230.888 367.163 230.888 366.897 230.888 366.631C232.391 366.964 231.42 372.59 231.26 373.441Z" fill="#EF6E4B"/>
<path d="M235.41 408.673C235.41 408.673 239.919 396.423 241.369 393.683C242.818 390.944 250.293 391.422 255.999 392.473C261.704 393.524 262.821 401.118 262.821 401.118C262.821 401.118 245.545 392.979 235.41 408.673Z" fill="#8BBDDB"/>
<path d="M264.511 384.56C261.193 391.104 259.376 398.305 259.191 405.64C259.191 405.64 250.399 411.625 247.221 404.137C249.374 396.654 249.962 388.808 248.95 381.088C247.886 372.217 264.511 384.56 264.511 384.56Z" fill="#EF6E4B"/>
<path d="M247.234 370.688C247.234 370.688 245.624 364.955 242.765 368.972C239.453 373.64 242.831 378.189 244.6 377.098C246.369 376.008 247.234 370.688 247.234 370.688Z" fill="#FF8B66"/>
<path d="M272.809 385.424C272.809 385.424 278.542 383.828 276.587 388.363C274.312 393.683 268.607 393.085 268.686 391.023C268.766 388.962 272.809 385.424 272.809 385.424Z" fill="#FF8B66"/>
<path d="M249.588 395.678C241.435 391.09 239.839 383.176 248.83 367.216C253.458 358.984 260.494 356.297 269.618 361.431C278.742 366.565 279.752 373.787 275.111 382.019C265.455 399.176 258.02 400.427 249.588 395.678Z" fill="#FF8B66"/>
<path d="M269.206 386.195C269.15 386.649 268.955 387.074 268.647 387.411C268.34 387.749 267.935 387.983 267.489 388.082C267.043 388.18 266.578 388.137 266.157 387.96C265.736 387.783 265.38 387.479 265.139 387.091C264.898 386.703 264.783 386.25 264.811 385.794C264.838 385.338 265.006 384.902 265.291 384.545C265.577 384.189 265.966 383.93 266.405 383.804C266.844 383.677 267.311 383.691 267.743 383.841C268.248 383.962 268.685 384.276 268.959 384.717C269.233 385.158 269.322 385.689 269.206 386.195V386.195Z" fill="#DB614D"/>
<path d="M252.195 377.205C252.03 377.633 251.737 378 251.355 378.255C250.973 378.51 250.522 378.64 250.063 378.628C249.604 378.616 249.16 378.462 248.792 378.188C248.425 377.913 248.151 377.531 248.009 377.095C247.867 376.658 247.864 376.188 248 375.75C248.136 375.311 248.405 374.926 248.769 374.646C249.133 374.367 249.575 374.207 250.033 374.189C250.492 374.171 250.945 374.295 251.33 374.545C251.797 374.784 252.15 375.198 252.312 375.696C252.474 376.195 252.432 376.737 252.195 377.205Z" fill="#DB614D"/>
<path d="M270.375 375.875C270.27 375.874 270.169 375.839 270.087 375.774C270.005 375.709 269.947 375.618 269.923 375.516C269.472 374.276 268.582 373.245 267.423 372.616C267.313 372.559 267.231 372.462 267.194 372.345C267.157 372.228 267.167 372.101 267.223 371.991C267.282 371.881 267.382 371.799 267.502 371.761C267.621 371.724 267.75 371.735 267.861 371.792C269.258 372.54 270.318 373.79 270.827 375.289C270.856 375.411 270.835 375.539 270.771 375.646C270.706 375.753 270.602 375.83 270.482 375.861L270.375 375.875Z" fill="#1A4850"/>
<path d="M259.177 367.908C259.099 367.932 259.016 367.932 258.938 367.908C257.804 367.241 256.463 367.019 255.174 367.283C255.114 367.301 255.052 367.307 254.99 367.301C254.928 367.295 254.868 367.276 254.814 367.247C254.759 367.217 254.711 367.177 254.673 367.128C254.634 367.079 254.605 367.023 254.589 366.964C254.568 366.906 254.56 366.845 254.565 366.784C254.569 366.723 254.587 366.664 254.615 366.61C254.644 366.556 254.684 366.509 254.732 366.472C254.78 366.434 254.835 366.407 254.895 366.392C256.443 366.046 258.064 366.303 259.43 367.11C259.533 367.176 259.607 367.279 259.637 367.397C259.666 367.516 259.649 367.642 259.589 367.748C259.538 367.805 259.474 367.849 259.402 367.877C259.331 367.905 259.254 367.915 259.177 367.908Z" fill="#1A4850"/>
<path d="M267.011 379.745C266.439 380.756 265.521 381.314 264.963 380.995C264.404 380.676 264.404 379.665 264.963 378.588C265.521 377.511 266.439 377.018 267.011 377.338C267.583 377.657 267.583 378.734 267.011 379.745Z" fill="#1A4850"/>
<path d="M255.586 373.614C255.014 374.625 254.097 375.183 253.538 374.944C252.979 374.704 252.979 373.547 253.538 372.536C254.097 371.526 255.014 370.954 255.586 371.273C256.158 371.592 256.158 372.603 255.586 373.614Z" fill="#1A4850"/>
<path d="M251.622 384.001C251.622 384.001 256.304 387.565 259.682 387.672C259.682 387.672 256.078 390.598 253.498 388.709C252.765 388.188 252.198 387.467 251.866 386.632C251.533 385.797 251.448 384.883 251.622 384.001V384.001Z" fill="#1A4850"/>
<path d="M264.55 377.75C264.55 377.75 266.691 375.675 267.569 376.42C268.447 377.165 267.994 379.705 267.994 379.705H269.87L268.314 379.08C268.314 379.08 268.819 376.42 267.848 375.888C266.478 375.09 264.55 377.75 264.55 377.75Z" fill="#1A4850"/>
<path d="M256.464 373.547C256.464 373.547 257.129 370.634 256.052 370.262C254.975 369.89 253.02 371.592 253.02 371.592L252.009 370.009L253.339 371.02C253.339 371.02 255.347 369.211 256.318 369.757C257.714 370.541 256.464 373.547 256.464 373.547Z" fill="#1A4850"/>
<path d="M271.785 364.849C271.411 364.303 270.925 363.843 270.359 363.5C269.793 363.157 269.16 362.939 268.503 362.86C267.846 362.78 267.18 362.842 266.549 363.041C265.917 363.239 265.336 363.57 264.843 364.011C260.853 367.23 251.715 372.39 247.233 370.661C242.751 368.932 257.022 349.887 269.404 355.473C281.787 361.059 280.67 379.226 275.522 384.999C270.375 390.771 272.862 385.398 272.862 385.398C273.066 380.793 273.757 376.224 274.924 371.765C275.205 371.108 275.345 370.4 275.337 369.686C275.329 368.971 275.173 368.266 274.878 367.616C274.582 366.965 274.155 366.383 273.623 365.907C273.09 365.431 272.464 365.07 271.785 364.849Z" fill="#F24052"/>
<path d="M258.02 382.139C257.782 382.14 257.545 382.108 257.315 382.046L257.568 381.075C257.825 381.178 258.111 381.187 258.374 381.099C258.637 381.011 258.861 380.833 259.005 380.596C259.13 380.397 259.196 380.166 259.196 379.931C259.196 379.696 259.13 379.465 259.005 379.266C258.885 379.133 258.659 379.146 258.353 379.266L257.887 378.362C258.166 378.168 258.503 378.078 258.841 378.107C259.178 378.136 259.495 378.283 259.736 378.521C260.013 378.88 260.172 379.314 260.194 379.766C260.215 380.218 260.097 380.666 259.856 381.048C259.681 381.382 259.417 381.661 259.093 381.854C258.768 382.046 258.397 382.145 258.02 382.139V382.139Z" fill="#DB614D"/>
<path d="M317.737 452.323C317.258 459.492 299.529 482.807 296.577 483.631C295.76 483.885 294.987 484.267 294.289 484.762L293.372 485.453C292.304 486.34 291.316 487.32 290.419 488.379C285.259 488.047 270.735 481.33 275.403 479.854C275.736 479.737 276.05 479.571 276.334 479.362C276.551 479.22 276.756 479.06 276.946 478.883C282.439 474.281 293.132 455.582 293.199 454.172C293.265 452.762 295.101 452.323 295.101 452.323C295.101 452.323 285.019 437.507 279.141 435.725C273.262 433.942 270.349 426.867 270.349 426.867C264.564 402.435 281.362 406.265 281.362 406.265C293.757 413.66 318.229 445.141 317.737 452.323Z" fill="#8BBDDB"/>
<path d="M294.289 484.762L293.371 485.453C287.276 484.862 281.422 482.769 276.334 479.362C276.551 479.22 276.756 479.06 276.946 478.883C282.12 482.312 288.096 484.338 294.289 484.762V484.762Z" fill="#3E6575"/>
<path d="M220.647 400.759C220.514 401.018 220.363 401.267 220.195 401.504C219.104 401.457 218.019 401.324 216.95 401.105C212.417 400.103 208.264 397.829 204.98 394.548C204.368 393.954 203.836 393.395 203.384 392.872L204.035 392.486C204.421 392.912 204.86 393.391 205.365 393.816C208.652 397.161 212.861 399.449 217.455 400.387C218.506 400.604 219.574 400.729 220.647 400.759V400.759Z" fill="#3E6575"/>
<path d="M299.889 506.002C298.361 508.736 296.235 511.09 293.669 512.886C291.103 514.682 288.164 515.876 285.072 516.376C284.939 516.176 284.793 515.937 284.66 515.698C287.792 515.225 290.77 514.023 293.352 512.188C295.935 510.354 298.051 507.939 299.53 505.137C299.649 505.43 299.769 505.736 299.889 506.002Z" fill="#3E6575"/>
<path d="M165.506 640.359C164.041 641.919 162.773 643.652 161.728 645.519C159.813 648.844 161.928 651.916 152.644 659.657C152.644 659.657 133.905 648.684 125.433 634.586C125.511 633.411 125.967 632.293 126.731 631.397C127.495 630.501 128.528 629.875 129.675 629.612C131.883 629.107 137.935 631.94 143.747 633.03C144.571 633.177 145.409 633.31 146.221 633.376C147.211 633.483 148.21 633.483 149.2 633.376C150.063 633.297 150.91 633.091 151.713 632.764V632.764C152.802 632.298 153.763 631.579 154.519 630.668C155.276 629.757 155.804 628.68 156.063 627.524C156.063 627.524 161.037 630.357 157.725 635.158C157.738 635.145 163.59 632.565 165.506 640.359Z" fill="#CFD8DC"/>
<path d="M152.644 659.71C152.644 659.71 133.905 648.738 125.433 634.64C125.433 634.64 128.585 633.975 131.178 638.63C133.772 643.285 154.161 653.885 152.644 659.71Z" fill="#ADBEC4"/>
<path d="M152.71 637.486C151.194 639.893 151.221 635.438 149.199 633.363C150.063 633.284 150.91 633.078 151.713 632.751C152.617 633.735 153.907 635.61 152.71 637.486Z" fill="#ADBEC4"/>
<path d="M146.818 637.619C145.209 639.135 144.69 635.158 143.746 633.03C144.571 633.176 145.409 633.309 146.22 633.376C147.164 634.653 148.042 636.448 146.818 637.619Z" fill="#ADBEC4"/>
<path d="M280.776 689.05H254.269C253.619 686.506 253.619 683.84 254.269 681.296C254.748 679.54 257.488 677.891 260.055 675.604C260.775 674.968 261.45 674.283 262.076 673.555C262.58 672.951 263.025 672.301 263.406 671.614C263.905 670.755 264.272 669.827 264.497 668.86C264.944 666.423 264.633 663.907 263.606 661.652C263.606 661.652 272.637 659.763 275.855 664.684C275.855 664.684 276.161 662.41 279.021 663.926C278.791 666.721 278.84 669.533 279.167 672.318C279.752 676.122 283.29 677.226 280.776 689.05Z" fill="#CFD8DC"/>
<path d="M273.887 673.076C273.775 673.203 273.638 673.303 273.485 673.372C273.331 673.441 273.164 673.476 272.996 673.476C272.712 673.479 272.435 673.385 272.211 673.209C270.981 672.258 269.54 671.616 268.01 671.338C266.48 671.061 264.906 671.155 263.42 671.614C263.918 670.755 264.286 669.827 264.511 668.86C266.279 668.209 269.618 667.823 273.741 671.334C273.866 671.438 273.97 671.566 274.045 671.71C274.121 671.854 274.166 672.012 274.18 672.175C274.194 672.337 274.175 672.5 274.124 672.655C274.074 672.81 273.993 672.953 273.887 673.076V673.076Z" fill="#ADBEC4"/>
<path d="M271.652 677.479L271.506 677.705C271.339 677.967 271.077 678.155 270.775 678.229C270.472 678.304 270.153 678.259 269.883 678.104C268.088 677.04 264.031 675.032 260.055 675.604C260.775 674.968 261.45 674.283 262.076 673.555C263.7 673.175 265.392 673.187 267.01 673.589C268.629 673.992 270.129 674.773 271.386 675.87C271.621 676.058 271.777 676.327 271.827 676.623C271.876 676.92 271.814 677.225 271.652 677.479V677.479Z" fill="#ADBEC4"/>
</svg>
