<svg width="806" height="980" viewBox="0 0 806 980" fill="none" xmlns="http://www.w3.org/2000/svg">
<path d="M594.78 511.28C594.78 644.28 477.53 620.58 332.89 620.58C188.25 620.58 71 629.95 71 511.28C71 405.13 113.22 298 332.89 298C560.32 298 594.78 405.13 594.78 511.28Z" fill="#EFDED7"/>
<path d="M538.2 509.1C536.35 511.1 533.4 510.85 502.26 502.98C478.57 496.98 475.8 495.98 475.12 493.42C472.89 484.78 494.89 463.3 515.3 468.66C535.31 473.9 544.35 502.4 538.2 509.1Z" fill="#C93C31"/>
<path d="M534.74 506.17C532.88 508.17 529.94 507.92 498.8 500.06C475.1 494.06 472.34 493.06 471.65 490.5C469.39 481.86 491.4 460.4 511.89 465.74C531.89 470.98 540.89 499.45 534.74 506.17Z" fill="#FE6B5B"/>
<path d="M564.43 671.3C565.62 696.5 449.23 730.3 340.69 730.8C229.51 731.29 110.19 696.87 111.38 671.3C112.62 644.46 246.54 627.01 345.87 627.96C434.95 628.81 563.19 645.11 564.43 671.3Z" fill="#EFDED7"/>
<g style="mix-blend-mode:multiply" opacity="0.8">
<path d="M473.41 663C462.35 662.972 451.295 663.509 440.29 664.61C421.03 657.12 381.94 652 336.89 652C293.12 652 255.01 656.83 235.2 663.95C227.2 663.34 218.43 663 209.31 663C169.65 663 137.5 669.4 137.5 677.31C137.5 685.22 169.65 691.62 209.31 691.62C221.592 691.667 233.866 691 246.07 689.62C267.36 694.93 300.13 698.34 336.89 698.34C375.44 698.34 409.6 694.6 430.74 688.83C444.891 690.785 459.165 691.724 473.45 691.64C513.11 691.64 545.26 685.23 545.26 677.33C545.26 669.43 513.07 663 473.41 663Z" fill="#EFDED7"/>
</g>
<path d="M172.41 434.95C185.19 422.08 204.28 468.29 210.12 477.45C210.777 478.484 211.212 479.642 211.398 480.853C211.583 482.064 211.513 483.3 211.195 484.482C210.876 485.665 210.314 486.768 209.545 487.721C208.777 488.675 207.818 489.458 206.73 490.02C204.744 490.986 202.474 491.193 200.345 490.604C198.217 490.015 196.377 488.67 195.17 486.82C188.77 477.4 162.21 445.22 172.41 434.95Z" fill="#FF8B6A"/>
<path d="M186.73 433.47L201.89 457.82C202.219 458.342 202.386 458.951 202.37 459.568C202.354 460.186 202.155 460.785 201.8 461.29C198.003 466.581 192.467 470.369 186.16 471.99C185.518 472.158 184.84 472.119 184.222 471.879C183.604 471.638 183.078 471.208 182.72 470.65L170.89 452.09L186.73 433.47Z" fill="#105F9A"/>
<path d="M253.74 505.6C252.09 504.36 220.56 484.6 206.69 474.26C202.89 471.42 197.3 473.62 194.96 477.75C194.386 478.763 194.019 479.88 193.879 481.036C193.74 482.192 193.831 483.364 194.147 484.484C194.463 485.605 194.998 486.652 195.721 487.564C196.445 488.477 197.341 489.237 198.36 489.8L247.63 514L253.74 505.6Z" fill="#FF8B6A"/>
<path d="M256.46 517.91C254.016 517.445 251.639 516.682 249.38 515.64C248.64 515.305 247.982 514.813 247.45 514.2C244.1 509.9 246.79 502.44 251.97 501.28C253.298 500.989 254.687 501.199 255.87 501.87C256.719 502.547 257.671 503.084 258.69 503.46C259.686 503.588 260.694 503.588 261.69 503.46C262.93 503.35 264.64 503.3 264.97 504.9C265.25 506.3 263.18 507.41 263.53 508.8C263.73 509.62 264.67 510.16 264.7 511.04C264.7 512.09 263.7 512.53 263.15 513.22C262.564 514.066 262.102 514.992 261.78 515.97C260.78 518.09 259.06 518.51 256.78 517.97L256.46 517.91Z" fill="#FF8B6A"/>
<path d="M249.56 502.54C251.36 501.47 256.13 501.81 257.56 502.97C258.99 504.13 254.05 509.38 250.41 506.73" fill="#FF8B6A"/>
<path d="M128.64 517.6C130.5 519.6 133.44 519.34 164.58 511.48C188.28 505.48 191.04 504.48 191.73 501.92C193.99 493.28 171.98 471.8 151.54 477.16C131.54 482.4 122.5 510.88 128.64 517.6Z" fill="#C93C31"/>
<path d="M132.11 514.67C133.96 516.67 136.91 516.42 168.05 508.55C191.74 502.55 194.51 501.55 195.19 499C197.45 490.36 175.45 468.88 155.01 474.23C135 479.48 125.96 507.95 132.11 514.67Z" fill="#FE6B5B"/>
<path d="M177.02 526.99C177.02 526.99 258.22 547.48 270.02 557.17C281.82 566.86 267.55 582.08 259.93 580.01C255.24 578.74 223 576.12 198.88 574.29C195.379 574.026 191.968 573.056 188.851 571.44C185.734 569.824 182.975 567.595 180.741 564.887C178.507 562.178 176.844 559.046 175.85 555.679C174.857 552.311 174.554 548.778 174.96 545.29L177.02 526.99Z" fill="#FF8B6A"/>
<path d="M234.31 555.89C234.912 551.585 235.126 547.234 234.95 542.89L234.84 542.75C209.16 534.75 179.15 527.12 177.12 526.61L176.67 526.49L174.58 544.69C174.109 548.483 174.44 552.331 175.553 555.987C176.666 559.643 178.536 563.024 181.04 565.91C185.584 571.055 191.964 574.214 198.81 574.71C209.25 575.5 220.69 576.4 230.81 577.27C230.848 577.273 230.886 577.261 230.916 577.237C230.946 577.213 230.965 577.178 230.97 577.14C232.18 570.06 233.49 563.01 234.31 555.89Z" fill="#381905"/>
<path d="M270.55 571.85C271 576.32 218.41 624.85 209.24 635.72C201.73 644.63 204.24 645.67 204.24 645.67C204.24 645.67 192.08 637.05 192.54 635.56C193 634.07 197.96 627.05 201.46 622.72C204.96 618.39 230.35 581.5 240.63 572.14C250.91 562.78 258.38 558.62 264.81 557.27C270.43 556.08 274.78 565.75 270.55 571.85Z" fill="#FF8B6A"/>
<path d="M193.28 631.64C194.92 630.98 196.64 630.51 196.72 631.35C196.85 632.74 196.45 634.19 196.53 635.61C196.71 638.8 200.01 641.26 202.83 642.18C204.65 642.78 204.62 644.63 204.83 646.18C205.04 647.73 205.36 649.52 205.67 651.18C206.05 653.29 206.44 655.39 206.87 657.49C206.87 657.49 207.87 660.49 207.71 661.22C207.186 662.135 206.477 662.932 205.63 663.56C203.142 662.764 200.863 661.421 198.96 659.63C195.806 656.28 193.255 652.41 191.42 648.19C190.8 646.4 190.05 644.66 189.33 642.92C188.46 640.8 186.18 637.55 187.56 635.29C188.76 633.4 191.29 632.4 193.28 631.64Z" fill="#EA3E3C"/>
<path d="M207.74 661.24C207.782 661.731 207.699 662.225 207.5 662.676C207.3 663.126 206.99 663.52 206.598 663.819C206.206 664.118 205.745 664.313 205.258 664.387C204.77 664.46 204.272 664.41 203.81 664.24C201.66 663.34 193.98 656.24 191.63 650.89C189.28 645.54 184.47 635.65 187.63 633.56L189.72 633.3C189.72 633.3 187.37 640.13 193.72 649.96C200.07 659.79 205.18 662.75 205.55 661.96C205.92 661.17 199.46 657.76 199.98 653.17C200.5 648.58 207.46 652.06 207.74 661.24Z" fill="white"/>
<path d="M218.17 668.3L211.29 579.37L164.94 581.92L158.06 669.18" stroke="#381905" stroke-width="2.96" stroke-miterlimit="10" stroke-linecap="round"/>
<path d="M136.69 682.71L157.32 578.19L195.51 586.93L199.81 683.6" stroke="#381905" stroke-width="2.96" stroke-miterlimit="10" stroke-linecap="round"/>
<path d="M144.95 578.98H165.06C177.572 577.526 190.209 577.526 202.72 578.98H224L223.42 586.93C223.42 591.93 205.72 595.98 183.89 595.98C162.06 595.98 144.36 591.93 144.36 586.93L144.95 578.98Z" fill="#C93C31"/>
<path d="M184.48 588.02C206.312 588.02 224.01 583.973 224.01 578.98C224.01 573.988 206.312 569.94 184.48 569.94C162.648 569.94 144.95 573.988 144.95 578.98C144.95 583.973 162.648 588.02 184.48 588.02Z" fill="#FE6B5B"/>
<path d="M158.44 534.74C158.44 534.74 247.74 546.88 260.35 555.42C272.96 563.96 253.71 581.06 245.92 579.72C241.14 578.9 208.8 579.32 184.61 579.77C181.102 579.837 177.617 579.194 174.364 577.881C171.11 576.568 168.156 574.611 165.677 572.128C163.198 569.645 161.247 566.686 159.94 563.43C158.633 560.174 157.997 556.688 158.07 553.18L158.44 534.74Z" fill="#FF8B6A"/>
<path d="M274.18 669.72C273.67 657.72 298.54 644.33 312.6 625.84" stroke="#381905" stroke-width="2.96" stroke-miterlimit="10" stroke-linecap="round"/>
<path d="M263.47 558.49C267.86 559.4 298.39 636.21 306.04 648.23C312.29 658.07 314.04 656.02 314.04 656.02C314.04 656.02 302.17 665.02 300.89 664.14C299.61 663.26 294.4 656.42 291.32 651.78C288.24 647.14 260.67 611.85 254.82 599.24C248.97 586.63 244.47 572.6 245.11 566.06C245.65 560.31 258.89 552.63 263.47 558.49Z" fill="#FF8B6A"/>
<path d="M297.46 663.21C297.05 661.5 296.83 659.73 297.66 659.77C299.07 659.84 300.44 660.45 301.86 660.57C305.04 660.85 307.95 657.94 309.26 655.28C310.12 653.56 311.94 653.85 313.53 653.85C315.12 653.85 316.91 653.79 318.61 653.73C320.736 653.664 322.873 653.57 325.02 653.45C325.02 653.45 328.13 652.85 328.83 653.15C329.651 653.804 330.331 654.617 330.83 655.54C329.681 657.877 328.024 659.927 325.98 661.54C322.214 664.183 318.019 666.152 313.58 667.36C311.72 667.72 309.89 668.21 308.06 668.67C305.84 669.23 302.3 671.03 300.26 669.33C298.54 667.94 297.96 665.3 297.46 663.21Z" fill="#EA3E3C"/>
<path d="M328.83 653.15C330.75 653.37 332.41 655.47 331.21 657.47C330.01 659.47 321.86 666.05 316.21 667.61C310.56 669.17 300.1 672.51 298.5 669.02V666.92C298.5 666.92 304.93 670.23 315.56 665.35C326.19 660.47 329.87 655.84 329.17 655.35C328.47 654.86 324.17 660.78 319.67 659.6C315.17 658.42 319.71 652.11 328.83 653.15Z" fill="white"/>
<path d="M235.37 548.33C235.395 548.054 235.319 547.778 235.155 547.555C234.991 547.332 234.751 547.177 234.48 547.12C204.67 540.65 161.07 534.68 158.48 534.33L158.03 534.27L157.65 553.17C157.579 556.73 158.228 560.269 159.557 563.573C160.885 566.878 162.867 569.88 165.383 572.401C167.899 574.921 170.898 576.909 174.2 578.243C177.502 579.578 181.039 580.233 184.6 580.17C199.22 579.9 215.79 579.65 228.09 579.65C228.334 579.648 228.571 579.568 228.767 579.423C228.963 579.277 229.108 579.073 229.18 578.84C232.313 568.916 234.388 558.689 235.37 548.33V548.33Z" fill="#381905"/>
<path d="M222.23 546.07C200.416 556.033 176.895 561.726 152.94 562.84C149.31 521.73 133.84 476.77 130.21 435.66C129.07 429.31 150.48 426.12 163.43 423.81C176.38 421.5 188.05 426.22 191.43 445.34C201.736 478.92 212.003 512.496 222.23 546.07Z" fill="#105F9A"/>
<path d="M140.75 431.58C158.12 436.79 118.14 484.93 112.81 494.4C112.209 495.468 111.392 496.399 110.411 497.134C109.43 497.869 108.307 498.392 107.113 498.668C105.919 498.945 104.68 498.97 103.476 498.741C102.272 498.512 101.129 498.035 100.12 497.34C98.335 496.039 97.0856 494.133 96.6052 491.977C96.1248 489.822 96.4463 487.565 97.5096 485.63C102.83 475.53 126.89 427.4 140.75 431.58Z" fill="#FF8B6A"/>
<path d="M154.07 431.19C143.41 425.39 127.78 427.87 113.62 454.42C113.409 454.824 113.307 455.278 113.327 455.734C113.346 456.191 113.485 456.634 113.73 457.02C115.886 460.385 118.691 463.287 121.981 465.557C125.27 467.826 128.979 469.418 132.89 470.24C133.429 470.356 133.991 470.298 134.495 470.073C134.999 469.849 135.417 469.469 135.69 468.99L155.07 434.73C155.24 434.432 155.349 434.104 155.39 433.764C155.432 433.424 155.405 433.08 155.312 432.75C155.219 432.421 155.061 432.113 154.848 431.845C154.635 431.577 154.37 431.354 154.07 431.19Z" fill="#105F9A"/>
<path d="M143.78 434.09C144.3 436.09 154.23 447.56 159.44 446.16C164.65 444.76 163.17 430.99 162.64 429.02C162.11 427.05 157.46 426.59 152.25 428.02C147.04 429.45 143.25 432.12 143.78 434.09Z" fill="#FF8B6A"/>
<path d="M159.07 382.54C160.204 382.087 161.424 381.887 162.643 381.956C163.863 382.024 165.053 382.359 166.129 382.936C167.205 383.514 168.142 384.321 168.873 385.299C169.604 386.278 170.111 387.405 170.36 388.6C170.505 389.209 170.521 389.84 170.407 390.455C170.293 391.07 170.053 391.654 169.7 392.17C166.7 396.31 150.7 386.23 152.33 385.3C153.11 384.86 156.12 383.67 159.07 382.54Z" fill="#381905"/>
<path d="M158.17 433.45L149.32 435.93L143.41 414.84L153.23 415.81L158.17 433.45Z" fill="#FF8B6A"/>
<path d="M157.59 431.4L153.23 415.83L144.4 415.27C147.05 420.86 152.15 428.55 157.59 431.4Z" fill="#381905"/>
<path d="M143.56 415.89C143.56 415.89 144.69 417.14 146.56 418.89C151.68 423.61 160.69 427.19 168.47 422.96C181.15 416.06 172.35 388.89 166.68 384.89C153.53 375.58 132.27 389.73 143.56 415.89Z" fill="#FF8B6A"/>
<path d="M152.31 402.2C151.586 402.836 151.111 403.707 150.97 404.66C150.932 404.786 150.929 404.92 150.963 405.047C150.996 405.174 151.065 405.289 151.16 405.38C151.269 405.44 151.396 405.462 151.519 405.442C151.642 405.422 151.755 405.361 151.84 405.27C152.008 405.086 152.146 404.877 152.25 404.65C152.59 404.092 153.102 403.66 153.71 403.42C154.29 403.2 156.39 402.56 155.3 401.59C154.46 400.84 152.99 401.62 152.31 402.2Z" fill="#381905"/>
<path d="M170.41 395.93C171.37 395.984 172.279 396.381 172.97 397.05C173.075 397.129 173.157 397.235 173.208 397.356C173.259 397.477 173.277 397.61 173.26 397.74C173.21 397.856 173.123 397.951 173.012 398.011C172.901 398.071 172.774 398.092 172.65 398.07C172.405 398.03 172.168 397.949 171.95 397.83C171.342 397.598 170.675 397.57 170.05 397.75C169.44 397.92 167.39 398.75 167.67 397.26C167.89 396.16 169.51 395.88 170.41 395.93Z" fill="#381905"/>
<path d="M161.46 414.72C161.67 415.49 163.92 416.58 166.18 415.97C168.44 415.36 169.85 413.3 169.64 412.52C169.43 411.74 167.71 412.67 165.46 413.27C163.21 413.87 161.25 413.94 161.46 414.72Z" fill="#381905"/>
<path d="M163.62 413.99C163.69 414.25 164.95 414.45 166.34 414.08C167.73 413.71 168.72 412.9 168.65 412.64C168.58 412.38 167.59 412.92 166.2 413.3C164.81 413.68 163.55 413.73 163.62 413.99Z" fill="white"/>
<path d="M137.27 411.61C142.61 412.56 144.12 411.82 144.55 411.02C145.55 409.14 141.2 405.86 142.35 403.52C143.21 401.76 146.06 402.85 148.06 400.93C150.75 398.37 147.98 394.47 149.62 390.59C152.71 383.25 163.76 385.88 164.05 382.26C164.18 380.55 162.49 378.57 161.31 378.03C152.56 374.03 140.96 373.93 132.76 383.33C130.92 385.44 125.97 391.12 127.25 398.79C128.65 407.17 136.35 411.15 137.27 411.61Z" fill="#381905"/>
<path d="M165.24 404.47L166.68 407.89L168.85 407.06C168.915 407.554 168.858 408.057 168.684 408.524C168.509 408.991 168.223 409.409 167.85 409.74C167.478 410.066 167.032 410.294 166.55 410.406C166.069 410.518 165.567 410.509 165.09 410.38" stroke="#381905" stroke-width="0.74" stroke-linecap="round" stroke-linejoin="round"/>
<path d="M158.72 408.3C158.99 409.3 158.72 410.17 158.2 410.3C157.68 410.43 156.97 409.8 156.7 408.83C156.43 407.86 156.7 406.96 157.22 406.83C157.74 406.7 158.45 407.33 158.72 408.3Z" fill="#381905"/>
<path d="M171.99 402.98C172.26 403.98 171.99 404.85 171.46 404.98C170.93 405.11 170.24 404.48 169.97 403.51C169.7 402.54 169.97 401.64 170.49 401.51C171.01 401.38 171.72 402.01 171.99 402.98Z" fill="#381905"/>
<path d="M144.55 411.02C146.15 413.26 146.06 416.02 144.36 417.27C142.66 418.52 139.99 417.66 138.36 415.42C136.73 413.18 136.84 410.42 138.54 409.16C140.24 407.9 142.95 408.78 144.55 411.02Z" fill="#FF8B6A"/>
<path d="M139.89 410.88C141.89 410.22 143.73 413.56 142.97 414.96C142.97 414.96 142.54 413.3 141.68 413.96C140.82 414.62 142.04 415.25 142.04 415.25" stroke="#381905" stroke-width="0.74" stroke-linecap="round" stroke-linejoin="round"/>
<path d="M144.3 496.4C144.3 496.4 165.38 524.51 154.65 580.55" stroke="#381905" stroke-width="2.96" stroke-miterlimit="10" stroke-linecap="round"/>
<path d="M160.52 500.63C158.62 499.83 124.06 485.63 107.25 481.69C105.03 481.166 102.693 481.523 100.731 482.687C98.7686 483.851 97.3344 485.73 96.73 487.93V487.93C96.4201 489.052 96.3357 490.225 96.4816 491.38C96.6275 492.535 97.001 493.649 97.5803 494.659C98.1596 495.669 98.9333 496.554 99.8567 497.263C100.78 497.972 101.835 498.491 102.96 498.79L156.64 510.26L160.52 500.63Z" fill="#FF8B6A"/>
<path d="M162.11 514.09C160.55 513.21 159.04 512.09 157.84 511.36C155.08 509.72 152.68 507.36 153.84 503.88C154.84 500.97 157.46 499.2 160.17 498.12C162.88 497.04 165.87 495.88 168.68 496.42C169.862 496.713 170.994 497.178 172.04 497.8C172.622 498.066 173.154 498.431 173.61 498.88C174.1 499.42 174.31 500.37 173.75 500.88C173.19 501.39 172.41 501.02 171.75 500.75C171.09 500.48 170.21 500.35 169.84 500.94C170.979 501.962 172.284 502.78 173.7 503.36C174.85 503.83 176.4 504.56 175.96 506.13C175.58 507.51 173.23 507.55 172.9 508.95C172.71 509.78 173.3 510.69 172.9 511.48C172.38 512.58 170.77 512.48 169.84 512.98C168.6 513.69 167.97 515.27 166.39 515.42C164.863 515.414 163.372 514.951 162.11 514.09V514.09Z" fill="#FF8B6A"/>
<path d="M271.89 574.52C270.28 571.17 268.65 567.83 266.95 564.52C265.25 561.21 263.5 557.52 260.34 555.42C256.34 552.73 244.78 549.68 230.77 546.76" stroke="#381905" stroke-width="0.74" stroke-linecap="round" stroke-linejoin="round"/>
<path d="M222.22 579.27C234.08 579.21 243.51 579.27 245.92 579.72C246.39 579.797 246.866 579.817 247.34 579.78C248.69 584.287 250.276 588.72 252.09 593.06" stroke="#381905" stroke-width="0.74" stroke-linecap="round" stroke-linejoin="round"/>
<path d="M135.35 468.91C139.25 463.78 143.28 458.31 144.05 451.91C144.425 448.299 143.741 444.656 142.083 441.427C140.425 438.197 137.863 435.519 134.71 433.72" stroke="#381905" stroke-width="0.74" stroke-linecap="round" stroke-linejoin="round"/>
<path d="M185.62 435.47L206.22 493.66" stroke="#381905" stroke-width="0.74" stroke-linecap="round" stroke-linejoin="round"/>
<path d="M312.6 625.84C318.12 618.57 321.98 610.52 321.98 601.45C321.98 569.27 298.04 546.52 298.04 546.52" stroke="#381905" stroke-width="2.96" stroke-miterlimit="10" stroke-linecap="round"/>
<path d="M358.75 546.52C358.75 546.52 334.81 569.27 334.81 601.45C334.81 633.63 383.32 652.98 382.61 669.72" stroke="#381905" stroke-width="2.96" stroke-miterlimit="10" stroke-linecap="round"/>
<path d="M339.13 574.25C339.13 576.14 333.76 577.67 327.13 577.67C320.5 577.67 316.33 576.14 316.33 574.25C316.33 572.36 320.51 570.84 327.13 570.84C333.75 570.84 339.13 572.4 339.13 574.25Z" stroke="#381905" stroke-width="2.61" stroke-miterlimit="10"/>
<path d="M343.43 546.52C343.43 546.52 334.89 566.59 329.95 570.62C329.95 570.62 330.62 625.79 337.02 665.54" stroke="#381905" stroke-width="2.96" stroke-miterlimit="10" stroke-linecap="round"/>
<path d="M489.33 520.69C489.33 520.69 408.13 541.18 396.33 550.87C384.53 560.56 398.8 575.78 406.42 573.71C411.11 572.44 443.35 569.82 467.47 568C470.971 567.734 474.381 566.764 477.497 565.148C480.614 563.531 483.371 561.302 485.605 558.594C487.839 555.886 489.503 552.754 490.497 549.387C491.491 546.021 491.795 542.488 491.39 539L489.33 520.69Z" fill="#FF8B6A"/>
<path d="M395.8 565.56C395.35 570.02 447.94 618.56 457.11 629.42C464.62 638.34 462.11 639.42 462.11 639.42C462.11 639.42 474.27 630.8 473.81 629.31C473.35 627.82 468.39 620.81 464.89 616.48C461.39 612.15 436 575.26 425.72 565.89C415.44 556.52 407.97 552.37 401.54 551.02C395.89 549.78 391.57 559.46 395.8 565.56Z" fill="#FF8B6A"/>
<path d="M473.07 625.34C471.43 624.69 469.71 624.22 469.63 625.05C469.5 626.45 469.91 627.9 469.82 629.31C469.64 632.5 466.35 634.96 463.52 635.89C461.7 636.48 461.73 638.33 461.52 639.89C461.31 641.45 460.99 643.23 460.69 644.89C460.3 646.99 459.91 649.1 459.48 651.2C459.48 651.2 458.48 654.2 458.64 654.92C459.162 655.837 459.87 656.634 460.72 657.26C463.21 656.468 465.49 655.125 467.39 653.33C470.532 649.986 473.07 646.122 474.89 641.91C475.51 640.13 476.26 638.39 476.98 636.64C477.85 634.53 480.13 631.28 478.75 629.01C477.59 627.09 475.06 626.14 473.07 625.34Z" fill="#EA3E3C"/>
<path d="M458.61 654.94C458.55 656.88 460.39 658.82 462.54 657.94C464.69 657.06 472.38 649.94 474.73 644.58C477.08 639.22 481.88 629.34 478.67 627.25L476.58 627C476.58 627 478.93 633.83 472.58 643.65C466.23 653.47 461.12 656.44 460.75 655.65C460.38 654.86 466.84 651.44 466.32 646.86C465.8 642.28 458.89 645.77 458.61 654.94Z" fill="white"/>
<path d="M455.89 633.9C459.003 633.104 461.894 631.609 464.343 629.53C466.793 627.451 468.738 624.842 470.03 621.9C468.48 619.75 466.83 617.56 465.52 615.9C464.67 614.85 462.52 611.85 459.52 607.71C452.38 597.79 440.6 581.43 432.15 571.53C441.66 570.7 453.56 569.74 467.58 568.67C471.177 568.396 474.681 567.4 477.884 565.739C481.086 564.079 483.921 561.79 486.218 559.009C488.515 556.227 490.226 553.011 491.251 549.552C492.275 546.094 492.591 542.464 492.18 538.88L489.98 519.74L489.19 519.91C473.539 522.669 458.037 526.21 442.74 530.52C429.66 534.2 417.51 538.23 406.33 542.37C403.6 543.27 393.02 548.6 391.9 557.85C391.9 565.85 390.2 565.53 401.22 577.27C408.35 584.88 415.39 592.64 423.22 599.51C435.061 610.031 445.99 621.536 455.89 633.9V633.9Z" fill="#105F9A"/>
<path d="M448.18 662.01L455.06 573.07L501.41 575.63L508.29 662.88" stroke="#381905" stroke-width="2.96" stroke-miterlimit="10" stroke-linecap="round"/>
<path d="M529.66 676.42L509.03 571.9L470.84 580.64L466.54 677.31" stroke="#381905" stroke-width="2.96" stroke-miterlimit="10" stroke-linecap="round"/>
<path d="M521.4 572.68H501.29C488.779 571.227 476.141 571.227 463.63 572.68H442.35L442.93 580.68C442.93 585.68 460.63 589.68 482.46 589.68C504.29 589.68 521.99 585.68 521.99 580.68L521.4 572.68Z" fill="#C93C31"/>
<path d="M481.87 581.72C503.702 581.72 521.4 577.672 521.4 572.68C521.4 567.687 503.702 563.64 481.87 563.64C460.038 563.64 442.34 567.687 442.34 572.68C442.34 577.672 460.038 581.72 481.87 581.72Z" fill="#FE6B5B"/>
<path d="M473.89 422.16C466.89 405.42 420.61 450.31 411.75 456.59C410.751 457.298 409.91 458.207 409.281 459.258C408.652 460.309 408.249 461.48 408.098 462.695C407.947 463.91 408.05 465.144 408.401 466.317C408.753 467.491 409.345 468.578 410.14 469.51C411.617 471.154 413.643 472.202 415.837 472.458C418.032 472.714 420.245 472.16 422.06 470.9C431.57 464.57 479.48 435.52 473.89 422.16Z" fill="#FF8B6A"/>
<path d="M507.89 528.4C507.89 528.4 418.59 540.54 405.98 549.08C393.37 557.62 412.62 574.73 420.41 573.39C425.19 572.56 457.54 572.99 481.72 573.44C485.228 573.506 488.713 572.862 491.966 571.549C495.22 570.235 498.174 568.278 500.653 565.795C503.133 563.312 505.085 560.355 506.394 557.1C507.702 553.844 508.341 550.358 508.27 546.85L507.89 528.4Z" fill="#FF8B6A"/>
<path d="M399.23 557.06C396.64 560.71 426.64 637.73 429.23 651.74C431.35 663.2 428.69 662.88 428.69 662.88C428.69 662.88 443.51 661.38 443.85 659.88C444.19 658.38 443.34 649.81 442.43 644.32C441.52 638.83 437.65 594.21 433.33 580.99C429.01 567.77 422.76 554.4 417.89 550.07C413.51 546.24 398.56 549.66 399.23 557.06Z" fill="#FF8B6A"/>
<path d="M445.72 656.86C444.86 655.32 443.81 653.86 443.23 654.48C442.23 655.48 441.66 656.87 440.71 657.92C438.57 660.29 434.45 660.14 431.71 659.09C429.91 658.42 428.77 659.88 427.61 660.95C426.45 662.02 425.1 663.22 423.82 664.33C422.2 665.73 420.57 667.117 418.93 668.49C418.93 668.49 416.24 670.17 415.93 670.87C415.762 671.912 415.813 672.979 416.08 674C418.523 674.936 421.143 675.315 423.75 675.11C428.294 674.475 432.693 673.054 436.75 670.91C438.35 669.91 440.03 669.03 441.68 668.12C443.68 667.02 447.5 665.92 447.84 663.28C448.15 661.05 446.78 658.72 445.72 656.86Z" fill="#EA3E3C"/>
<path d="M415.89 670.87C414.63 672.34 414.89 675.01 417.09 675.65C419.29 676.29 429.78 675.56 434.95 672.88C440.12 670.2 450.08 665.48 448.88 661.88L447.42 660.37C447.42 660.37 444.97 667.17 433.86 670.84C422.75 674.51 416.91 673.64 417.1 672.84C417.29 672.04 424.49 673.38 426.95 669.48C429.41 665.58 421.89 663.9 415.89 670.87Z" fill="white"/>
<path d="M508.64 527.59L507.82 527.71C504.16 528.2 418.2 539.97 405.58 548.51C405.167 548.791 404.77 549.095 404.39 549.42C400.44 551.19 398.3 553.92 398.48 556.95C401.814 573.81 405.507 591.047 409.56 608.66C412.707 622.34 415.957 635.723 419.31 648.81C424.776 648.504 430.176 647.458 435.36 645.7C437.96 644.819 440.496 643.76 442.95 642.53C442.72 640.68 442.41 637.76 442.01 634.1C440.37 618.96 437.32 590.78 434.01 580.74C433.26 578.43 432.43 576.08 431.54 573.74C444.54 573.62 465.86 573.94 481.69 574.23C485.298 574.295 488.881 573.632 492.226 572.28C495.571 570.928 498.609 568.915 501.158 566.361C503.706 563.808 505.714 560.766 507.06 557.419C508.405 554.072 509.062 550.487 508.99 546.88L508.64 527.59Z" fill="#105F9A"/>
<path d="M425.82 543.4C412.45 545.93 393.3 545.07 407.27 586.74" stroke="#381905" stroke-width="0.74" stroke-linecap="round" stroke-linejoin="round"/>
<path d="M443.78 546.82C467.326 551.369 491.525 551.369 515.07 546.82C508.95 506.026 502.827 465.22 496.7 424.4C496.31 417.96 485.35 413.4 472.22 414.17C459.09 414.94 448.85 422.31 450.02 441.69L443.78 546.82Z" fill="#FDAD34"/>
<path d="M479.5 418.23C479.79 420.23 475.2 434.73 469.86 435.5C464.52 436.27 460.45 423.03 460.16 421.02C459.87 419.01 463.96 416.74 469.3 416.02C474.64 415.3 479.21 416.22 479.5 418.23Z" fill="#FF8B6A"/>
<path d="M493.89 421.94C475.99 418.99 490.79 479.8 491.43 490.65C491.501 491.873 491.827 493.068 492.385 494.159C492.944 495.249 493.724 496.211 494.675 496.984C495.626 497.756 496.728 498.322 497.91 498.645C499.092 498.968 500.328 499.041 501.54 498.86C503.715 498.473 505.675 497.308 507.054 495.582C508.432 493.856 509.135 491.686 509.03 489.48C508.7 478.07 508.19 424.29 493.89 421.94Z" fill="#FF8B6A"/>
<path d="M438.26 377.2C438.16 377.65 434.74 387.33 439.14 389.94C443.54 392.55 454.26 376.94 452.4 376.78C450.54 376.62 438.26 377.2 438.26 377.2Z" fill="#381905"/>
<path d="M466.02 423.32L475.13 422.11L472.24 400.4L463.6 405.17L466.02 423.32Z" fill="#FF8B6A"/>
<path d="M465.74 421.2L463.6 405.2L471.49 401.2C471.27 407.4 469.62 416.4 465.74 421.2Z" fill="#381905"/>
<path d="M472.52 401.4C472.52 401.4 471.97 403 470.95 405.3C468.1 411.65 461.24 418.5 452.42 417.68C438.05 416.33 435.42 387.9 439.05 381.99C447.46 368.32 472.58 372.93 472.52 401.4Z" fill="#FF8B6A"/>
<path d="M455.61 407.4C455.72 408.19 454.08 410.08 451.76 410.4C449.44 410.72 447.34 409.4 447.23 408.59C447.12 407.78 449.05 407.97 451.37 407.59C453.69 407.21 455.49 406.61 455.61 407.4Z" fill="#381905"/>
<path d="M453.33 407.59C453.33 407.86 452.33 408.54 450.87 408.74C449.41 408.94 448.22 408.6 448.18 408.33C448.14 408.06 449.27 408.18 450.7 407.97C452.13 407.76 453.3 407.32 453.33 407.59Z" fill="white"/>
<path d="M476.61 395.02C472.09 398.02 470.4 397.91 469.69 397.34C468.03 396.01 470.69 391.28 468.76 389.58C467.28 388.3 465.08 390.42 462.49 389.46C459.01 388.16 460.01 383.46 456.97 380.57C451.24 375.04 442.12 381.81 440.43 378.57C439.63 377.05 440.43 374.57 441.28 373.57C447.73 366.41 458.37 361.78 469.61 367.19C472.13 368.4 478.92 371.66 480.76 379.19C482.79 387.54 477.28 394.23 476.61 395.02Z" fill="#381905"/>
<path d="M467.65 383.75L454.36 396.49C453.559 397.463 452.433 398.113 451.19 398.32C449.93 398.37 448.85 397.52 447.83 396.78C444.35 394.28 438.46 391.19 434.05 391.86C432.663 392.072 431.342 392.599 430.19 393.4C429.69 393.75 428.42 395.4 427.67 394.81C426.92 394.22 428.67 392.26 429.2 391.81L436.13 386.74" fill="#EA3E3C"/>
<path d="M435.81 386.82C443.68 390.91 465.97 387.3 480.97 380.27C480.97 380.27 479.17 358.03 450.76 363.69C431.55 367.51 435.81 386.82 435.81 386.82Z" fill="#EA3E3C"/>
<path d="M448.09 399.48V403.19L445.77 403.29C445.901 403.764 446.146 404.199 446.484 404.556C446.823 404.912 447.243 405.181 447.709 405.337C448.176 405.493 448.673 405.532 449.158 405.451C449.643 405.369 450.1 405.17 450.49 404.87" stroke="#381905" stroke-width="0.74" stroke-linecap="round" stroke-linejoin="round"/>
<path d="M437.58 386.25C437.58 386.25 466.24 387.97 480.29 379.17" stroke="#381905" stroke-width="0.74" stroke-linecap="round" stroke-linejoin="round"/>
<path d="M458.19 363.98C458.6 364.07 470.45 364.15 475.52 381.27" stroke="#381905" stroke-width="0.74" stroke-linecap="round" stroke-linejoin="round"/>
<path d="M456.63 364.55C460.333 370.746 462.115 377.901 461.75 385.11" stroke="#381905" stroke-width="0.74" stroke-linecap="round" stroke-linejoin="round"/>
<path d="M454.96 377.82C455.35 380.19 452.64 382.62 448.9 383.24C445.16 383.86 441.8 382.46 441.4 380.09C441 377.72 443.71 375.29 447.46 374.66C451.21 374.03 454.56 375.4 454.96 377.82Z" fill="#381905"/>
<path d="M439.96 378.9C440.427 378.593 440.989 378.468 441.541 378.547C442.094 378.626 442.598 378.905 442.96 379.33C443.102 379.559 443.293 379.754 443.52 379.9C443.97 380.1 444.52 379.71 444.7 379.27C444.856 378.805 445.05 378.353 445.28 377.92C445.49 377.65 446 377.36 446.34 377.56C446.68 377.76 446.49 378.42 446.95 378.75C447.097 378.847 447.267 378.903 447.442 378.914C447.618 378.924 447.793 378.888 447.95 378.81C448.317 378.523 448.583 378.127 448.71 377.68C448.769 377.456 448.879 377.249 449.031 377.075C449.184 376.901 449.376 376.766 449.59 376.68C449.781 376.652 449.976 376.662 450.163 376.71C450.35 376.758 450.526 376.843 450.68 376.96C450.975 377.195 451.315 377.365 451.68 377.46C452.3 377.54 452.51 377.01 452.75 376.57C452.994 376.002 453.376 375.503 453.86 375.12C454.75 374.56 457.16 375.2 456.86 376.56C456.814 376.736 456.727 376.898 456.606 377.035C456.485 377.171 456.335 377.278 456.166 377.346C455.997 377.414 455.814 377.441 455.633 377.426C455.451 377.412 455.276 377.354 455.12 377.26C454.993 377.151 454.852 377.06 454.7 376.99C454.545 376.967 454.387 376.997 454.251 377.075C454.115 377.153 454.009 377.274 453.95 377.42C453.841 377.71 453.75 378.007 453.68 378.31C453.536 378.696 453.276 379.028 452.936 379.26C452.596 379.493 452.192 379.615 451.78 379.61C451.22 379.61 450.65 379.31 450.12 379.5C449.36 379.76 449.05 380.86 448.24 380.94C447.72 380.94 447.24 380.56 446.78 380.42C445.57 380.08 445.37 381.57 444.34 381.53C443.48 381.53 443.13 380.13 442.27 380.13C441.1 380.13 441.03 382.35 439.67 381.94C438.31 381.53 439.16 379.4 439.96 378.9Z" fill="white"/>
<path d="M456.35 361.4C454.35 361.59 452.86 364.47 453.76 364.97C454.66 365.47 458.96 365.3 459.27 364.15C459.58 363 458.16 361.17 456.35 361.4Z" fill="#381905"/>
<path d="M455.59 400.4C455.73 401.4 456.3 402.13 456.87 402.06C457.44 401.99 457.81 401.11 457.67 400.12C457.53 399.13 456.97 398.38 456.39 398.46C455.81 398.54 455.46 399.4 455.59 400.4Z" fill="#381905"/>
<path d="M441.31 400.77C441.44 401.77 442.01 402.5 442.59 402.43C443.17 402.36 443.52 401.48 443.39 400.49C443.26 399.5 442.68 398.75 442.11 398.83C441.54 398.91 441.17 399.77 441.31 400.77Z" fill="#381905"/>
<path d="M469.69 397.34C469.1 400.03 470.29 402.57 472.33 403.01C474.37 403.45 476.5 401.64 477.09 398.95C477.68 396.26 476.49 393.72 474.45 393.28C472.41 392.84 470.28 394.65 469.69 397.34Z" fill="#FF8B6A"/>
<path d="M473.89 395.4C471.8 395.58 471.41 399.4 472.66 400.4C472.66 400.4 472.41 398.7 473.45 398.95C474.49 399.2 473.62 400.27 473.62 400.27" stroke="#381905" stroke-width="0.74" stroke-linecap="round" stroke-linejoin="round"/>
<path d="M443.68 393.49C443.84 393.82 442.6 394.96 440.81 395.86C439.02 396.76 437.35 397.07 437.19 396.74C437.03 396.41 438.11 394.96 439.9 394.06C441.69 393.16 443.51 393.15 443.68 393.49Z" fill="#381905"/>
<path d="M454.63 393.87C454.56 394.23 456.06 395.01 458.02 395.41C459.98 395.81 461.67 395.68 461.75 395.32C461.83 394.96 460.39 393.84 458.43 393.44C456.47 393.04 454.71 393.51 454.63 393.87Z" fill="#381905"/>
<path d="M442.69 640.94C438.38 586.94 431.58 573.73 431.58 573.73L476.49 574.25" stroke="#381905" stroke-width="0.74" stroke-linecap="round" stroke-linejoin="round"/>
<path d="M482.11 415.74C494.24 415.21 507.19 424.3 508.26 454.37C508.275 454.827 508.169 455.279 507.953 455.681C507.737 456.083 507.419 456.421 507.03 456.66C503.615 458.728 499.825 460.1 495.877 460.695C491.93 461.291 487.903 461.099 484.03 460.13C483.488 460.003 483.001 459.705 482.641 459.28C482.281 458.855 482.067 458.326 482.03 457.77C481.243 444.684 480.45 431.587 479.65 418.48C479.629 418.138 479.675 417.795 479.788 417.471C479.9 417.148 480.076 416.849 480.305 416.594C480.534 416.339 480.812 416.132 481.122 415.986C481.432 415.839 481.768 415.756 482.11 415.74V415.74Z" fill="#FDAD34"/>
<path d="M458.51 418.55L426.76 441.5C426.259 441.863 425.876 442.366 425.659 442.946C425.442 443.526 425.4 444.157 425.54 444.76C427.064 451.086 430.759 456.677 435.98 460.56C436.513 460.957 437.157 461.176 437.822 461.185C438.486 461.194 439.137 460.993 439.68 460.61L457.68 447.92L458.51 418.55Z" fill="#FDAD34"/>
<path d="M482.46 429.1C482.46 429.81 485.93 457.89 485.93 457.89" stroke="#381905" stroke-width="0.74" stroke-linecap="round" stroke-linejoin="round"/>
<path d="M316.34 550.34C316.34 550.34 323.74 569.43 327.14 577.67" stroke="#381905" stroke-width="2.96" stroke-miterlimit="10" stroke-linecap="round"/>
<path d="M194.69 516.24V522.07C194.69 538.6 255.55 552.01 330.62 552.01C405.69 552.01 466.54 538.6 466.54 522.07V516.24H194.69Z" fill="#C93C31"/>
<path d="M330.62 546.18C405.687 546.18 466.54 532.775 466.54 516.24C466.54 499.704 405.687 486.3 330.62 486.3C255.554 486.3 194.7 499.704 194.7 516.24C194.7 532.775 255.554 546.18 330.62 546.18Z" fill="#FE6B5B"/>
<path d="M269.83 530.92L287.39 483.09H373.9L387.6 530.92H269.83Z" fill="#9CD2FF"/>
<path d="M385.7 530.02H271.79L288.42 483.59H372.83L385.7 530.02Z" fill="#FFFFFA"/>
<path d="M277.58 527.36L291.56 485.09H369.57L380.13 527.36H277.58Z" fill="#9CD2FF"/>
<path d="M325.63 488.81C325.57 489.54 324.14 490.13 322.43 490.13C320.72 490.13 319.43 489.54 319.49 488.81C319.55 488.08 321.01 487.53 322.68 487.53C324.35 487.53 325.68 488.1 325.63 488.81Z" fill="#FFFFFA"/>
<path d="M333.48 488.81C333.48 489.54 332.07 490.13 330.36 490.13C328.65 490.13 327.3 489.54 327.36 488.81C327.42 488.08 328.8 487.53 330.48 487.53C332.16 487.53 333.49 488.1 333.48 488.81Z" fill="#FFFFFA"/>
<path d="M341.34 488.81C341.34 489.54 340 490.13 338.29 490.13C336.58 490.13 335.2 489.54 335.2 488.81C335.2 488.08 336.57 487.53 338.25 487.53C339.93 487.53 341.31 488.1 341.34 488.81Z" fill="#FFFFFA"/>
<path d="M325.37 492.17C325.32 492.92 323.85 493.54 322.1 493.54C320.35 493.54 319 492.92 319.1 492.17C319.2 491.42 320.66 490.82 322.37 490.82C324.08 490.82 325.43 491.4 325.37 492.17Z" fill="#FFFFFA"/>
<path d="M333.42 492.17C333.42 492.92 331.97 493.54 330.22 493.54C328.47 493.54 327.09 492.92 327.14 492.17C327.19 491.42 328.61 490.82 330.33 490.82C332.05 490.82 333.43 491.4 333.42 492.17Z" fill="#FFFFFA"/>
<path d="M330.24 493.05C329.12 493.05 328.24 492.65 328.24 492.17C328.24 491.69 329.19 491.3 330.29 491.3C331.39 491.3 332.29 491.69 332.29 492.17C332.29 492.65 331.36 493.05 330.24 493.05Z" fill="#48C6D5"/>
<path d="M341.47 492.17C341.47 492.92 340.1 493.54 338.35 493.54C336.6 493.54 335.18 492.92 335.18 492.17C335.18 491.42 336.58 490.82 338.3 490.82C340.02 490.82 341.44 491.4 341.47 492.17Z" fill="#FFFFFA"/>
<path d="M325.11 495.69C325.05 496.48 323.55 497.14 321.75 497.14C319.95 497.14 318.57 496.48 318.67 495.69C318.77 494.9 320.27 494.27 322.03 494.27C323.79 494.27 325.17 494.9 325.11 495.69Z" fill="#FFFFFA"/>
<path d="M333.36 495.69C333.36 496.48 331.87 497.14 330.08 497.14C328.29 497.14 326.87 496.48 326.92 495.69C326.97 494.9 328.43 494.27 330.19 494.27C331.95 494.27 333.37 494.9 333.36 495.69Z" fill="#FFFFFA"/>
<path d="M330.1 496.62C328.95 496.62 328.04 496.2 328.1 495.69C328.16 495.18 329.1 494.77 330.21 494.77C331.32 494.77 332.26 495.18 332.21 495.69C332.16 496.2 331.25 496.62 330.1 496.62Z" fill="#48C6D5"/>
<path d="M341.6 495.69C341.6 496.48 340.2 497.14 338.41 497.14C336.62 497.14 335.16 496.48 335.16 495.69C335.16 494.9 336.6 494.27 338.36 494.27C340.12 494.27 341.57 494.9 341.6 495.69Z" fill="#FFFFFA"/>
<path d="M324.83 499.4C324.77 500.24 323.22 500.92 321.38 500.92C319.54 500.92 318.13 500.24 318.23 499.4C318.33 498.56 319.87 497.91 321.67 497.91C323.47 497.91 324.89 498.56 324.83 499.4Z" fill="#FFFFFA"/>
<path d="M333.29 499.4C333.29 500.24 331.77 500.92 329.92 500.92C328.07 500.92 326.63 500.24 326.68 499.4C326.73 498.56 328.24 497.91 330.05 497.91C331.86 497.91 333.3 498.56 333.29 499.4Z" fill="#FFFFFA"/>
<path d="M329.95 500.4C328.77 500.4 327.83 499.97 327.86 499.4C327.89 498.83 328.86 498.4 330.02 498.4C331.18 498.4 332.12 498.83 332.11 499.4C332.1 499.97 331.13 500.4 329.95 500.4Z" fill="#48C6D5"/>
<path d="M333.22 503.4C333.22 504.28 331.65 505 329.76 505C327.87 505 326.38 504.28 326.44 503.4C326.5 502.52 328.04 501.83 329.89 501.83C331.74 501.83 333.23 502.48 333.22 503.4Z" fill="#FFFFFA"/>
<path d="M341.74 499.4C341.74 500.24 340.31 500.92 338.47 500.92C336.63 500.92 335.13 500.24 335.14 499.4C335.15 498.56 336.61 497.91 338.42 497.91C340.23 497.91 341.71 498.56 341.74 499.4Z" fill="#FFFFFA"/>
<path d="M363.69 500.91C361.84 500.91 360.24 500.23 360.1 499.39C359.96 498.55 361.32 497.9 363.1 497.9C364.88 497.9 366.51 498.56 366.68 499.39C366.85 500.22 365.53 500.91 363.69 500.91Z" fill="#FFFFFA"/>
<path d="M364.43 504.95C362.54 504.95 360.89 504.23 360.74 503.35C360.59 502.47 361.99 501.78 363.85 501.78C365.71 501.78 367.35 502.48 367.53 503.35C367.71 504.22 366.32 504.95 364.43 504.95Z" fill="#FFFFFA"/>
<path d="M365.22 509.22C363.27 509.22 361.57 508.46 361.42 507.52C361.27 506.58 362.7 505.87 364.6 505.87C366.5 505.87 368.2 506.6 368.39 507.52C368.58 508.44 367.16 509.22 365.22 509.22Z" fill="#FFFFFA"/>
<path d="M355.28 500.91C353.44 500.91 351.87 500.23 351.78 499.39C351.69 498.55 353.09 497.9 354.89 497.9C356.69 497.9 358.26 498.56 358.39 499.39C358.52 500.22 357.12 500.91 355.28 500.91Z" fill="#FFFFFA"/>
<path d="M355.8 504.95C353.91 504.95 352.3 504.23 352.2 503.35C352.1 502.47 353.54 501.78 355.39 501.78C357.24 501.78 358.85 502.48 358.98 503.35C359.11 504.22 357.69 504.95 355.8 504.95Z" fill="#FFFFFA"/>
<path d="M353.41 503.4C353.35 502.84 354.27 502.4 355.46 502.4C356.65 502.4 357.69 502.86 357.77 503.4C357.85 503.94 356.93 504.4 355.72 504.4C354.51 504.4 353.48 503.91 353.41 503.4Z" fill="#EA3E3C"/>
<path d="M356.35 509.22C354.4 509.22 352.74 508.46 352.65 507.52C352.56 506.58 354.01 505.87 355.92 505.87C357.83 505.87 359.47 506.6 359.61 507.52C359.75 508.44 358.29 509.22 356.35 509.22Z" fill="#FFFFFA"/>
<path d="M346.89 500.91C345.05 500.91 343.52 500.23 343.48 499.39C343.44 498.55 344.87 497.9 346.68 497.9C348.49 497.9 350.01 498.56 350.09 499.39C350.17 500.22 348.72 500.91 346.89 500.91Z" fill="#FFFFFA"/>
<path d="M347.17 504.95C345.27 504.95 343.7 504.23 343.66 503.35C343.62 502.47 345.08 501.78 346.94 501.78C348.8 501.78 350.36 502.48 350.44 503.35C350.52 504.22 349.06 504.95 347.17 504.95Z" fill="#FFFFFA"/>
<path d="M344.89 503.4C344.89 502.84 345.8 502.4 347 502.4C348.2 502.4 349.2 502.86 349.25 503.4C349.3 503.94 348.35 504.4 347.14 504.4C345.93 504.4 344.89 503.91 344.89 503.4Z" fill="#EA3E3C"/>
<path d="M347.48 509.22C345.53 509.22 343.92 508.46 343.87 507.52C343.82 506.58 345.33 505.87 347.23 505.87C349.13 505.87 350.75 506.6 350.84 507.52C350.93 508.44 349.42 509.22 347.48 509.22Z" fill="#FFFFFA"/>
<path d="M338.53 504.95C336.64 504.95 335.11 504.23 335.12 503.35C335.13 502.47 336.63 501.78 338.48 501.78C340.33 501.78 341.86 502.48 341.9 503.35C341.94 504.22 340.43 504.95 338.53 504.95Z" fill="#FFFFFA"/>
<path d="M336.33 503.4C336.33 502.84 337.33 502.4 338.49 502.4C339.65 502.4 340.67 502.86 340.69 503.4C340.71 503.94 339.69 504.4 338.52 504.4C337.35 504.4 336.33 503.91 336.33 503.4Z" fill="#EA3E3C"/>
<path d="M338.6 509.22C336.66 509.22 335.09 508.46 335.09 507.52C335.09 506.58 336.65 505.87 338.55 505.87C340.45 505.87 342.02 506.6 342.06 507.52C342.1 508.44 340.55 509.22 338.6 509.22Z" fill="#FFFFFA"/>
<path d="M335.01 521.3C335.01 520.21 336.7 519.3 338.77 519.3C340.84 519.3 342.55 520.17 342.59 521.3C342.63 522.43 340.95 523.3 338.84 523.3C336.73 523.3 335.01 522.4 335.01 521.3Z" fill="#FFFFFA"/>
<path d="M325.31 521.3C325.38 520.21 327.11 519.3 329.18 519.3C331.25 519.3 332.91 520.17 332.89 521.3C332.87 522.43 331.14 523.3 329.02 523.3C326.9 523.3 325.24 522.4 325.31 521.3Z" fill="#FFFFFA"/>
<path d="M315.61 521.3C315.74 520.21 317.52 519.3 319.61 519.3C321.7 519.3 323.29 520.17 323.21 521.3C323.13 522.43 321.34 523.3 319.21 523.3C317.08 523.3 315.48 522.4 315.61 521.3Z" fill="#FFFFFA"/>
<path d="M335.04 516.45C335.04 515.45 336.68 514.6 338.69 514.6C340.7 514.6 342.36 515.42 342.4 516.45C342.44 517.48 340.81 518.34 338.75 518.34C336.69 518.34 335.04 517.49 335.04 516.45Z" fill="#FFFFFA"/>
<path d="M325.61 516.45C325.68 515.45 327.36 514.6 329.37 514.6C331.38 514.6 333 515.42 332.98 516.45C332.96 517.48 331.28 518.34 329.22 518.34C327.16 518.34 325.55 517.49 325.61 516.45Z" fill="#FFFFFA"/>
<path d="M329.34 515.25C330.64 515.25 331.68 515.79 331.66 516.45C331.64 517.11 330.56 517.66 329.25 517.66C327.94 517.66 326.89 517.12 326.93 516.45C326.97 515.78 328.05 515.25 329.34 515.25Z" fill="#BBA0FD"/>
<path d="M316.19 516.45C316.31 515.45 318.04 514.6 320.05 514.6C322.06 514.6 323.63 515.42 323.55 516.45C323.47 517.48 321.74 518.34 319.69 518.34C317.64 518.34 316.06 517.49 316.19 516.45Z" fill="#FFFFFA"/>
<path d="M335.07 511.86C335.07 510.86 336.66 510.11 338.62 510.11C340.58 510.11 342.19 510.89 342.23 511.86C342.27 512.83 340.68 513.65 338.68 513.65C336.68 513.65 335.06 512.85 335.07 511.86Z" fill="#FFFFFA"/>
<path d="M325.89 511.86C325.95 510.86 327.59 510.11 329.54 510.11C331.49 510.11 333.07 510.89 333.05 511.86C333.03 512.83 331.4 513.65 329.4 513.65C327.4 513.65 325.89 512.85 325.89 511.86Z" fill="#FFFFFA"/>
<path d="M329.53 510.73C330.79 510.73 331.8 511.24 331.78 511.86C331.76 512.48 330.71 513.01 329.44 513.01C328.17 513.01 327.15 512.49 327.18 511.86C327.21 511.23 328.27 510.73 329.53 510.73Z" fill="#BBA0FD"/>
<path d="M316.74 511.86C316.85 510.86 318.53 510.11 320.49 510.11C322.45 510.11 323.97 510.89 323.9 511.86C323.83 512.83 322.14 513.65 320.14 513.65C318.14 513.65 316.62 512.85 316.74 511.86Z" fill="#FFFFFA"/>
<path d="M326.17 507.52C326.23 506.6 327.82 505.87 329.72 505.87C331.62 505.87 333.16 506.6 333.14 507.52C333.12 508.44 331.53 509.22 329.59 509.22C327.65 509.22 326.12 508.46 326.17 507.52Z" fill="#FFFFFA"/>
<path d="M329.7 506.45C330.93 506.45 331.91 506.93 331.9 507.52C331.89 508.11 330.9 508.61 329.61 508.61C328.32 508.61 327.38 508.12 327.42 507.52C327.46 506.92 328.47 506.45 329.7 506.45Z" fill="#BBA0FD"/>
<path d="M317.25 507.52C317.37 506.6 319 505.87 320.9 505.87C322.8 505.87 324.29 506.6 324.22 507.52C324.15 508.44 322.52 509.22 320.57 509.22C318.62 509.22 317.14 508.46 317.25 507.52Z" fill="#FFFFFA"/>
<path d="M294.89 505.87C296.79 505.87 298.16 506.6 297.89 507.52C297.62 508.44 295.89 509.22 293.96 509.22C292.03 509.22 290.66 508.46 290.96 507.52C291.26 506.58 292.95 505.87 294.89 505.87Z" fill="#FFFFFA"/>
<path d="M295.89 501.78C297.75 501.78 299.08 502.48 298.89 503.35C298.7 504.22 296.96 504.95 295.07 504.95C293.18 504.95 291.85 504.23 292.07 503.35C292.29 502.47 294.08 501.78 295.89 501.78Z" fill="#FFFFFA"/>
<path d="M296.96 497.9C298.77 497.9 300.07 498.56 299.87 499.39C299.67 500.22 298.01 500.91 296.16 500.91C294.31 500.91 293.02 500.23 293.26 499.39C293.5 498.55 295.16 497.9 296.96 497.9Z" fill="#FFFFFA"/>
<path d="M303.53 505.87C305.44 505.87 306.84 506.6 306.67 507.52C306.5 508.44 304.78 509.22 302.83 509.22C300.88 509.22 299.49 508.46 299.7 507.52C299.91 506.58 301.63 505.87 303.53 505.87Z" fill="#FFFFFA"/>
<path d="M304.39 501.78C306.24 501.78 307.61 502.48 307.45 503.35C307.29 504.22 305.62 504.95 303.72 504.95C301.82 504.95 300.46 504.23 300.67 503.35C300.88 502.47 302.53 501.78 304.39 501.78Z" fill="#FFFFFA"/>
<path d="M306.24 503.4C306.13 503.96 305.05 504.4 303.84 504.4C302.63 504.4 301.75 503.93 301.84 503.4C301.93 502.87 303.04 502.4 304.23 502.4C305.42 502.4 306.35 502.79 306.24 503.4Z" fill="#F3A749"/>
<path d="M305.2 497.9C307.01 497.9 308.35 498.56 308.2 499.39C308.05 500.22 306.42 500.91 304.58 500.91C302.74 500.91 301.4 500.23 301.58 499.39C301.76 498.55 303.39 497.9 305.2 497.9Z" fill="#FFFFFA"/>
<path d="M312.22 505.87C314.12 505.87 315.57 506.6 315.45 507.52C315.33 508.44 313.65 509.22 311.7 509.22C309.75 509.22 308.32 508.46 308.48 507.52C308.64 506.58 310.31 505.87 312.22 505.87Z" fill="#FFFFFA"/>
<path d="M312.89 501.78C314.75 501.78 316.16 502.48 316.04 503.35C315.92 504.22 314.3 504.95 312.41 504.95C310.52 504.95 309.11 504.23 309.26 503.35C309.41 502.47 310.99 501.78 312.89 501.78Z" fill="#FFFFFA"/>
<path d="M314.78 503.4C314.7 503.96 313.65 504.4 312.44 504.4C311.23 504.4 310.33 503.93 310.44 503.4C310.55 502.87 311.58 502.4 312.78 502.4C313.98 502.4 314.89 502.79 314.78 503.4Z" fill="#F3A749"/>
<path d="M313.44 497.9C315.24 497.9 316.62 498.56 316.51 499.39C316.4 500.22 314.82 500.91 312.98 500.91C311.14 500.91 309.76 500.23 309.91 499.39C310.06 498.55 311.63 497.9 313.44 497.9Z" fill="#FFFFFA"/>
<path d="M321.3 501.78C323.15 501.78 324.6 502.48 324.54 503.35C324.48 504.22 322.88 504.95 320.99 504.95C319.1 504.95 317.65 504.23 317.75 503.35C317.85 502.47 319.44 501.78 321.3 501.78Z" fill="#FFFFFA"/>
<path d="M323.32 503.4C323.32 503.96 322.26 504.4 321.04 504.4C319.82 504.4 318.9 503.93 318.96 503.4C319.02 502.87 320.05 502.4 321.24 502.4C322.43 502.4 323.37 502.79 323.32 503.4Z" fill="#F3A749"/>
<path d="M295.34 492.17C296.09 489.57 301.46 487.53 307.34 487.53C313.22 487.53 317.77 489.53 317.43 492.17C317.09 494.81 311.65 497.17 305.33 497.17C299.01 497.17 294.56 494.87 295.34 492.17Z" fill="#FFFFFA"/>
<path d="M305.67 495.65C301.25 495.65 298.06 494.07 298.57 492.17C299.08 490.27 302.88 488.85 307.09 488.85C311.3 488.85 314.52 490.32 314.23 492.17C313.94 494.02 310.1 495.65 305.67 495.65Z" fill="#F3A749"/>
<path d="M343.1 492.17C342.97 489.57 347.65 487.53 353.56 487.53C359.47 487.53 364.68 489.53 365.22 492.17C365.76 494.81 361.12 497.17 354.79 497.17C348.46 497.17 343.23 494.87 343.1 492.17Z" fill="#FFFFFA"/>
<path d="M354.6 495.65C350.18 495.65 346.46 494.07 346.33 492.17C346.2 490.27 349.51 488.85 353.73 488.85C357.95 488.85 361.65 490.32 361.99 492.17C362.33 494.02 359.03 495.65 354.6 495.65Z" fill="#48C6D5"/>
<path d="M288.36 516.45C289.36 512.89 295.76 510.11 302.64 510.11C309.52 510.11 314.74 512.89 314.28 516.45C313.79 520.17 307.34 523.31 299.88 523.31C292.42 523.31 287.29 520.17 288.36 516.45Z" fill="#FFFFFA"/>
<path d="M300.31 521.25C295.11 521.25 291.45 519.06 292.14 516.45C292.83 513.84 297.35 511.91 302.27 511.91C307.19 511.91 310.88 513.91 310.5 516.45C310.12 518.99 305.52 521.25 300.31 521.25Z" fill="#BBA0FD"/>
<path d="M344.32 516.45C344.14 512.89 349.58 510.11 356.46 510.11C363.34 510.11 369.46 512.89 370.23 516.45C371 520.17 365.61 523.31 358.16 523.31C350.71 523.31 344.5 520.17 344.32 516.45Z" fill="#FFFFFA"/>
<path d="M357.89 521.25C352.68 521.25 348.29 519.06 348.1 516.45C347.91 513.84 351.77 511.91 356.69 511.91C361.61 511.91 365.99 513.91 366.45 516.45C366.91 518.99 363.1 521.25 357.89 521.25Z" fill="#EA3E3C"/>
<path d="M387.6 530.92H269.83V533.85H387.6V530.92Z" fill="#6CADD8"/>
<path d="M443.19 499.25C445.11 498.48 479.93 484.99 496.82 481.34C499.05 480.86 501.379 481.263 503.318 482.464C505.257 483.665 506.655 485.57 507.22 487.78V487.78C507.508 488.909 507.57 490.084 507.401 491.236C507.232 492.389 506.837 493.497 506.237 494.496C505.637 495.495 504.845 496.365 503.906 497.056C502.968 497.746 501.902 498.244 500.77 498.52L446.89 508.96L443.19 499.25Z" fill="#FF8B6A"/>
<path d="M441.34 512.68C442.92 511.83 444.45 510.68 445.66 510.03C448.45 508.45 450.9 506.1 449.85 502.63C448.95 499.7 446.32 497.88 443.63 496.75C440.94 495.62 437.98 494.4 435.16 494.89C433.972 495.154 432.83 495.592 431.77 496.19C431.181 496.445 430.643 496.804 430.18 497.25C429.67 497.78 429.45 498.73 430 499.25C430.55 499.77 431.33 499.42 432 499.17C432.67 498.92 433.55 498.79 433.91 499.39C432.751 500.389 431.428 501.181 430 501.73C428.84 502.18 427.28 502.89 427.69 504.46C428.05 505.85 430.39 505.94 430.69 507.34C430.87 508.17 430.26 509.07 430.62 509.87C431.11 510.98 432.72 510.87 433.62 511.43C434.85 512.16 435.45 513.75 437.03 513.94C438.56 513.958 440.061 513.519 441.34 512.68V512.68Z" fill="#FF8B6A"/>
<path d="M360.75 466.2C362.75 465.68 399.39 459.31 416.15 454.93C420.74 453.73 425.09 457.88 425.69 462.58C425.84 463.735 425.759 464.908 425.453 466.032C425.147 467.156 424.621 468.208 423.906 469.127C423.191 470.047 422.301 470.816 421.287 471.389C420.274 471.963 419.156 472.33 418 472.47L363.24 476.29L360.75 466.2Z" fill="#FF8B6A"/>
<path d="M327.14 577.67C329.84 584.21 321.98 684.89 321.98 684.89" stroke="#381905" stroke-width="2.96" stroke-miterlimit="10" stroke-linecap="round"/>
<path d="M353.59 476.58C356.028 477.068 358.516 477.26 361 477.15C361.812 477.117 362.606 476.909 363.33 476.54C368.06 473.82 368.38 465.9 364.01 462.87C362.89 462.102 361.527 461.774 360.18 461.95C359.139 462.258 358.055 462.396 356.97 462.36C355.994 462.099 355.056 461.712 354.18 461.21C353.07 460.65 351.51 459.96 350.6 461.31C349.81 462.5 351.31 464.31 350.46 465.47C349.96 466.15 348.89 466.3 348.53 467.1C348.09 468.1 348.87 468.85 349.15 469.71C349.367 470.714 349.444 471.744 349.38 472.77C349.5 475.11 350.94 476.15 353.19 476.52L353.59 476.58Z" fill="#FF8B6A"/>
<path d="M361.02 470.94L358.08 460.03C358.576 459.901 359.011 459.601 359.307 459.183C359.603 458.765 359.742 458.256 359.698 457.745C359.655 457.234 359.432 456.756 359.07 456.394C358.707 456.031 358.228 455.809 357.718 455.766C357.207 455.724 356.698 455.863 356.28 456.159C355.862 456.456 355.563 456.891 355.435 457.387C355.307 457.883 355.359 458.409 355.581 458.871C355.804 459.332 356.182 459.7 356.65 459.91L353.65 470.66C353.27 471.66 354.65 472.57 356.65 472.79C358.65 473.01 360.65 472.39 361 471.42C361.058 471.266 361.065 471.098 361.02 470.94V470.94Z" fill="#EA3E3C"/>
<path d="M359.1 457.4C358.97 457.84 357.98 457.91 357.4 457.84C356.82 457.77 355.98 457.52 355.93 457.07C355.88 456.62 356.79 455.96 357.64 456.07C358.49 456.18 359.24 456.9 359.1 457.4Z" fill="#FF7676"/>
<path d="M358.51 459.45C358.51 459.55 357.95 459.83 357.33 459.77C356.71 459.71 356.2 459.31 356.23 459.22C356.26 459.13 356.55 459.22 357.37 459.33C358.19 459.44 358.5 459.4 358.51 459.45Z" fill="#CE2C2C"/>
<path d="M356.97 460.11C356.74 460.29 354.57 468.86 354.09 470.82C353.84 471.99 357.35 472.41 357.43 471.74C357.57 470.47 357.19 459.93 356.97 460.11Z" fill="#FF7676"/>
<path d="M352.89 460.66C354.72 461.46 358.44 464.01 358.49 465.36C358.54 466.71 356.55 467.73 354.11 466.45" fill="#FF8B6A"/>
<path d="M365.78 464.95C364.51 463.28 359.96 461.8 358.19 462.33C356.42 462.86 359.03 469.59 363.4 468.5" fill="#FF8B6A"/>
<path d="M522.55 487.94C522.55 487.94 501.46 516.05 512.2 572.1" stroke="#381905" stroke-width="2.96" stroke-miterlimit="10" stroke-linecap="round"/>
<path d="M448.18 470.6C448.28 470.17 450.1 438.6 450.1 438.6" stroke="#381905" stroke-width="0.74" stroke-linecap="round" stroke-linejoin="round"/>
</svg>
