<svg width="806" height="980" viewBox="0 0 806 980" fill="none" xmlns="http://www.w3.org/2000/svg">
<path opacity="0.3" d="M126.68 675.494C126.68 675.494 62.4047 673.968 34.9392 635.107C-14.8186 564.707 7.60447 502.97 96.1886 507.566C195.287 512.705 209.879 328.347 381.471 433.415C418.741 456.226 552.985 400.995 546.123 467.869C543.911 489.434 564.264 493.242 631.538 518.288C694.333 541.671 656.31 675.986 599.639 676.493C542.968 676.999 126.68 675.494 126.68 675.494Z" fill="#A6D9F1"/>
<path d="M599.674 673.467C599.482 675.829 596.147 675.829 592.364 675.363C588.581 674.897 589.581 675.859 584.279 675.894C578.977 675.929 577.163 674.166 576.918 673.406C576.695 672.734 579.253 672.18 581.989 671.543C582.332 671.463 582.678 671.38 583.023 671.296C586.121 670.557 588.871 668.778 590.814 666.257C593.114 663.313 595.216 649.915 595.216 649.915L603.5 651.459C603.5 651.459 598.678 662.947 598.183 666.714C597.96 668.406 599.165 669.533 599.447 671.004C599.632 671.811 599.709 672.64 599.674 673.467V673.467Z" fill="#B77446"/>
<path d="M592.635 675.717C588.852 675.249 589.58 675.86 584.278 675.894C578.976 675.929 577.162 674.166 576.917 673.406C576.694 672.734 579.252 672.181 581.988 671.543L582.019 671.594C584.43 672.769 587.115 673.27 589.789 673.043C593.351 672.714 596.993 671.255 599.448 671C599.635 671.803 599.713 672.627 599.681 673.451C599.481 675.829 596.418 676.184 592.635 675.717Z" fill="#365DA4"/>
<path d="M592.265 659.434C592.265 659.434 594.436 660.863 596.475 661.239C599.542 661.795 600.957 661.178 600.957 661.178C600.957 661.178 615.68 624.26 614.835 611.785C614.815 611.485 614.802 611.172 614.8 610.829C614.776 608.664 615.087 605.779 615.618 602.454C615.823 601.228 616.046 599.962 616.299 598.642C616.89 595.566 617.62 592.248 618.424 588.864C618.775 587.374 619.145 585.873 619.52 584.37C623.219 569.609 627.742 555.061 627.742 555.061C627.742 555.061 601.18 546.393 599.677 554.495C599.1 557.604 597.182 570.044 598.041 589.064C598.738 604.384 598.289 616.32 596.964 630.18C595.81 642.36 593.817 652.831 592.265 659.434Z" fill="#365DA4"/>
<path d="M614.8 610.83C614.776 608.665 615.087 605.78 615.618 602.455C615.823 601.229 616.046 599.963 616.299 598.643C616.89 595.567 617.62 592.249 618.424 588.864C618.775 587.375 619.146 585.874 619.52 584.37C618.994 579.876 618.571 576.776 618.571 576.776C618.571 576.776 607.55 591.747 614.8 610.83Z" fill="#285493"/>
<path d="M633.174 673.468C632.981 675.829 629.646 675.829 625.863 675.363C622.081 674.898 623.078 675.86 617.778 675.894C612.478 675.929 610.662 674.166 610.417 673.406C610.194 672.734 612.75 672.181 615.488 671.543C615.832 671.464 616.177 671.38 616.523 671.296C619.608 670.536 621.663 668.248 624.313 666.257C626.824 664.371 625.068 655.226 625.068 655.226L632.857 652.448C632.857 652.448 631.683 661.64 631.683 666.714C631.683 668.42 632.664 669.533 632.947 671.004C633.132 671.812 633.208 672.64 633.174 673.468Z" fill="#B77446"/>
<path d="M626.284 675.743C622.501 675.275 623.086 675.86 617.786 675.894C612.486 675.929 610.67 674.166 610.425 673.406C610.202 672.734 612.758 672.181 615.496 671.543L615.527 671.594C617.938 672.769 620.623 673.27 623.297 673.043C626.859 672.714 630.499 671.255 632.956 671C633.143 671.803 633.221 672.627 633.189 673.451C632.989 675.829 630.067 676.209 626.284 675.743Z" fill="#365DA4"/>
<path d="M611.748 552.181C611.748 552.181 620.39 595.207 621.85 618.623C623.31 642.038 625.131 661.426 625.131 661.426C626.436 661.853 627.808 662.041 629.18 661.981C630.576 661.897 631.952 661.616 633.27 661.148C633.27 661.148 641.835 625.917 638.995 611.814C636.155 597.711 638.521 584.703 639.883 573.002C641.835 556.23 634.323 548.435 629.078 543.119C623.78 537.745 611.748 552.181 611.748 552.181Z" fill="#365DA4"/>
<path d="M605.625 473.384C604.766 466.38 606.956 455.171 620.96 456.963C634.965 458.754 639.363 472.488 636.544 478.602C633.724 484.715 640.607 486.184 642.768 492.754C644.625 498.398 645.273 505.406 648.277 508.55C657.965 518.69 638.975 534.288 627.528 530.993C606.671 525.006 603.991 524.111 604.731 507.745C605.111 499.37 611.642 496.102 607.496 493.683C597.468 487.816 607.567 489.228 605.625 473.384Z" fill="#AA443E"/>
<path d="M609.862 495.873L614.001 502.077L622.341 501.668L626.194 491.72C626.194 491.72 625.006 491.493 624.452 479.088L614.042 482.26C614.36 484.507 614.298 486.791 613.858 489.018C613.338 491.471 612.216 494.092 609.862 495.873Z" fill="#D9935C"/>
<path d="M608.699 491.496C609.235 491.496 619.041 488.227 633.044 493.916C633.044 493.916 626.396 531.911 629.253 539.163C630.989 543.593 632.308 548.174 633.193 552.849L602.215 553.233C602.215 553.233 602.648 528.344 601.221 519.528C599.794 510.712 608.699 491.496 608.699 491.496Z" fill="#D9935C"/>
<path d="M557.251 517.062C557.343 515.98 557.684 515.733 557.684 515.733C567.587 517.187 574.151 517.105 577.367 517.73C579.895 518.221 580.927 518.29 581.361 517.679C595.042 498.459 604.727 492.423 604.727 492.423C604.727 492.423 605.759 491.81 609.798 491.255C609.798 491.255 610.378 498.561 614.139 499.182C620.641 500.253 625.504 494.298 627.033 491.904C627.033 491.904 634.877 493.792 637.069 496.286C638.643 498.079 638.439 502.371 637.971 505.07C637.868 505.733 637.71 506.387 637.496 507.024C637.034 508.25 635.286 517.207 634.488 520.774C634.469 520.864 634.451 520.948 634.433 521.025C634.378 521.264 634.331 521.473 634.286 521.638C634.286 521.643 634.286 521.648 634.286 521.652C634.239 521.842 634.2 521.992 634.169 522.088L634.114 522.261C634.115 522.265 634.115 522.269 634.114 522.273C632.963 525.95 632.274 529.68 632.683 534.266C632.753 534.915 632.872 535.558 633.039 536.188C634.079 541.516 638.402 552.022 639.3 556.844C638.782 557.933 637.611 558.795 636.184 559.484C634.325 560.38 632.037 560.979 630.217 561.396C628.209 561.825 626.18 562.147 624.138 562.362C622.813 562.511 621.392 562.636 619.944 562.719C619.739 562.734 619.535 562.744 619.33 562.752C609.998 563.216 599.549 562.987 598.187 558.554C597.535 556.428 600.136 543.642 600.484 539.841C601.097 533.167 600.101 524.028 599.656 516.952C591.996 525.382 584.093 528.416 584.093 528.416C581.953 528.276 579.828 527.957 577.742 527.462C575.288 526.917 572.728 526.189 570.274 525.419C565.686 523.931 561.189 522.176 556.807 520.163C556.807 520.163 557.046 519.45 557.251 517.062Z" fill="#80BDCC"/>
<path d="M612.694 548.475C614.463 554.467 615.489 559.396 619.928 562.73C621.376 562.646 622.791 562.525 624.122 562.372C626.164 562.157 628.193 561.835 630.201 561.406C632.021 560.997 634.309 560.385 636.168 559.494C637.599 558.806 638.767 557.944 639.284 556.855C638.387 552.032 634.064 541.534 633.023 536.199C632.93 535.737 632.862 535.271 632.819 534.801C632.434 530.028 633.054 526.108 634.107 522.284C634.108 522.28 634.108 522.275 634.107 522.271L634.279 521.659C634.278 521.654 634.278 521.649 634.279 521.644C634.315 521.512 634.366 521.299 634.426 521.031C634.443 520.954 634.462 520.87 634.481 520.78C635.193 517.4 637.057 506.794 637.532 505.411C637.741 504.72 637.896 504.014 637.996 503.299L634.266 499.714C634.266 499.714 612.868 508.843 608.154 521.434C603.441 534.025 610.156 539.884 612.694 548.475Z" fill="#5F9AA8"/>
<path d="M570.263 525.421C575.001 526.922 580.154 528.238 584.082 528.426C584.082 528.426 591.938 525.521 599.644 516.962C599.97 515.508 600.436 512.899 598.671 513.602C596.197 514.59 587.049 526.326 583.585 526.573C581.109 526.749 574.064 525.913 570.263 525.421Z" fill="#5F9AA8"/>
<path d="M587.165 522.079C587.165 522.079 597.712 527.372 606.859 529.562C609.49 530.193 612.026 530.638 614.187 530.74C614.187 530.74 624.022 527.719 631.529 517.216C646.026 496.927 634.833 494.746 634.833 494.746C634.833 494.746 625.149 500.782 611.47 520.002C610.991 520.674 609.789 520.521 606.677 519.894C603.352 519.224 596.737 519.303 587.605 517.963C587.605 517.963 587.452 518.302 587.357 519.393C587.153 521.767 587.165 522.079 587.165 522.079Z" fill="#80BDCC"/>
<path d="M556.806 520.163C561.185 522.179 565.678 523.936 570.263 525.427C572.716 526.206 575.283 526.933 577.73 527.47C578.714 523.105 578.035 519.708 577.366 517.728C574.15 517.103 567.277 517.06 557.372 515.608L556.806 520.163Z" fill="#A86337"/>
<path d="M559.847 516.225C559.847 516.225 557.342 515.739 555.254 514.695C553.166 513.651 547.598 512.959 546.417 514.07C545.235 515.181 547.668 519.702 552.755 519.84C557.843 519.979 559.299 520.813 559.299 520.813L559.847 516.225Z" fill="#A86337"/>
<path d="M550.817 500.831L579.14 506.33C580.379 506.571 581.389 507.782 581.389 509.02V528.575C581.389 529.813 580.367 530.63 579.14 530.389L550.817 524.888C549.576 524.649 548.568 523.438 548.568 522.2V502.645C548.562 501.407 549.576 500.59 550.817 500.831Z" fill="#CA5F00"/>
<path d="M549.685 500.831L578.007 506.33C579.246 506.571 580.257 507.782 580.257 509.02V528.575C580.257 529.813 579.234 530.63 578.007 530.389L549.685 524.888C548.446 524.649 547.436 523.438 547.436 522.2V502.645C547.43 501.407 548.446 500.59 549.685 500.831Z" fill="#E69D43"/>
<path d="M577.54 507.858C577.795 507.914 578.024 508.053 578.192 508.253C578.359 508.453 578.456 508.703 578.466 508.963C578.471 509.078 578.448 509.193 578.4 509.298C578.352 509.403 578.28 509.495 578.19 509.568C578.1 509.64 577.995 509.691 577.882 509.715C577.769 509.74 577.652 509.737 577.54 509.709C577.285 509.653 577.056 509.514 576.888 509.314C576.721 509.114 576.624 508.864 576.614 508.604C576.609 508.488 576.632 508.374 576.68 508.269C576.728 508.164 576.8 508.071 576.89 507.999C576.98 507.926 577.085 507.876 577.198 507.852C577.311 507.827 577.428 507.829 577.54 507.858V507.858Z" fill="#CA5F00"/>
<path d="M574.378 515.576C575.642 514.389 581.584 515.13 583.813 516.244C585.013 516.818 586.266 517.273 587.555 517.602V517.586C596.687 518.926 603.349 519.22 606.674 519.888C605.633 522.135 604.848 525.597 606.856 529.562C598.12 527.472 587.886 522.803 586.982 522.388C585.96 522.127 584.142 521.818 581.136 521.736C575.714 521.593 573.117 516.762 574.378 515.576Z" fill="#B77446"/>
<path d="M613.857 489.016C618.161 488.666 624.451 479.086 624.451 479.086L614.041 482.258C614.359 484.505 614.297 486.789 613.857 489.016V489.016Z" fill="#CC7C46"/>
<path d="M611.313 482.963C611.313 482.963 623.786 485.463 625.217 477.684C626.649 469.906 629.235 464.989 621.332 463.063C613.429 461.136 611.335 463.82 610.223 466.3C609.111 468.78 608.107 482.111 611.313 482.963Z" fill="#D9935C"/>
<path d="M610.067 461.669C616.216 455.617 621.884 458.646 620.98 459.864C623.111 459.929 625.769 460.515 627.671 462.652C631.351 466.795 624.479 479.743 624.479 479.743C624.479 479.743 625.426 471.777 621.326 467.309C619.7 465.534 618.756 464.041 618.206 462.903C617.377 463.641 616.421 464.221 615.384 464.615C611.417 466.006 609.237 472.377 609.237 472.377C607.818 469.405 607.421 464.278 610.067 461.669Z" fill="#AA443E"/>
<path d="M615.197 479.135C615.197 479.135 614.864 480.058 612.517 479.639C612.517 479.639 610.547 479.288 610.727 478.252C610.727 478.252 612.737 477.731 615.197 479.135Z" fill="white"/>
<path d="M368.124 352.002H521.299C526.121 352.002 530.03 355.907 530.03 360.724V666.728C530.03 671.545 526.121 675.451 521.299 675.451H368.124C363.302 675.451 359.393 671.545 359.393 666.728V360.724C359.393 355.907 363.302 352.002 368.124 352.002Z" fill="#CA5F00"/>
<path d="M351.584 352.002H504.759C509.581 352.002 513.49 355.907 513.49 360.724V666.728C513.49 671.545 509.581 675.451 504.759 675.451H351.584C346.762 675.451 342.853 671.545 342.853 666.728V360.724C342.853 355.907 346.762 352.002 351.584 352.002Z" fill="#E69D43"/>
<path opacity="0.4" d="M403.162 364.244H447.52C447.977 364.245 448.415 364.427 448.738 364.75C449.062 365.073 449.244 365.511 449.246 365.968V365.968C449.245 366.425 449.062 366.863 448.739 367.186C448.416 367.509 447.977 367.691 447.52 367.692H403.162C402.705 367.691 402.267 367.509 401.943 367.186C401.62 366.863 401.438 366.425 401.436 365.968V365.968C401.438 365.511 401.62 365.073 401.944 364.75C402.267 364.427 402.705 364.245 403.162 364.244V364.244Z" fill="#CA5F00"/>
<path opacity="0.4" d="M455.399 364.244C455.856 364.245 456.294 364.427 456.618 364.75C456.941 365.073 457.123 365.511 457.125 365.968V365.968C457.125 366.425 456.943 366.863 456.62 367.187C456.296 367.51 455.857 367.692 455.399 367.692C454.941 367.692 454.503 367.51 454.179 367.187C453.855 366.863 453.673 366.425 453.673 365.968V365.968C453.675 365.511 453.857 365.073 454.181 364.75C454.504 364.427 454.942 364.245 455.399 364.244V364.244Z" fill="#CA5F00"/>
<path opacity="0.4" d="M426.057 646.461C428.259 646.461 430.411 647.112 432.242 648.334C434.073 649.556 435.5 651.293 436.343 653.325C437.186 655.357 437.407 657.593 436.977 659.751C436.548 661.908 435.487 663.89 433.93 665.445C432.374 667 430.39 668.059 428.23 668.489C426.071 668.918 423.832 668.697 421.798 667.855C419.764 667.013 418.026 665.588 416.802 663.759C415.579 661.929 414.927 659.779 414.927 657.579C414.927 654.631 416.1 651.803 418.187 649.717C420.274 647.632 423.105 646.461 426.057 646.461Z" fill="#CA5F00"/>
<path d="M357.418 377.65H499.287V639.27H357.418V377.65Z" fill="#A6D9F1"/>
<path d="M357.417 377.65H499.286V413.612H357.417V377.65Z" fill="#D5E7F7"/>
<path d="M476.632 405.986C470.718 403.781 467.712 397.204 469.919 391.296C472.125 385.387 478.709 382.384 484.623 384.589C490.538 386.793 493.544 393.37 491.337 399.279C489.131 405.187 482.547 408.19 476.632 405.986Z" fill="#C4D9ED"/>
<path d="M392.775 394.864H459.231C460.293 394.859 461.31 394.436 462.061 393.685C462.812 392.935 463.236 391.919 463.241 390.858V390.858C463.238 389.794 462.814 388.775 462.061 388.023C461.308 387.271 460.288 386.847 459.223 386.844H392.767C391.704 386.849 390.686 387.274 389.934 388.026C389.183 388.778 388.76 389.796 388.757 390.858C388.762 391.921 389.187 392.938 389.94 393.688C390.693 394.439 391.712 394.861 392.775 394.864V394.864Z" fill="#C4D9ED"/>
<path d="M421.052 404.544H461.031C461.674 404.544 462.291 404.289 462.745 403.836C463.2 403.382 463.456 402.766 463.456 402.124V402.124C463.455 401.484 463.2 400.87 462.747 400.418C462.294 399.965 461.68 399.709 461.039 399.707H421.06C420.419 399.709 419.805 399.965 419.352 400.418C418.9 400.87 418.644 401.484 418.643 402.124V402.124C418.643 402.763 418.897 403.376 419.348 403.83C419.799 404.283 420.412 404.54 421.052 404.544V404.544Z" fill="#C4D9ED"/>
<path d="M377.017 510.835C377.017 510.835 378.256 504.854 376.275 503.247C374.293 501.639 368.29 496.081 367.167 496.71C366.045 497.339 364.204 501.118 364.804 503.328C365.403 505.539 372.97 513.542 372.97 513.542L377.017 510.835Z" fill="#D9935C"/>
<path d="M416.439 592.095C417.071 604.382 419.216 621.919 420.809 639.638H447.71C448.288 634.886 449.129 630.256 450.057 625.735C451.564 618.41 453.298 611.364 454.513 604.548C456.967 590.827 456.502 580.103 454.382 571.781C452.564 564.631 449.519 559.261 446.039 555.277C438.412 546.549 417.175 563.608 417.175 563.608C417.175 563.608 415.811 579.88 416.439 592.095Z" fill="#415DA5"/>
<path d="M428.657 596.001C428.657 596.001 428.657 596.089 428.676 596.258C428.868 598.779 430.561 619.421 435.877 639.637H447.71C448.289 634.886 449.13 630.255 450.058 625.735C448.042 613.887 446.126 604.47 446.126 604.47L428.657 596.001Z" fill="#355493"/>
<path d="M427.08 591.005C427.37 592.169 427.937 594.011 428.675 596.258C431.709 605.469 437.66 621.476 439.355 625.469C441.338 630.151 443.209 634.886 444.972 639.632H474.417C473.803 628.223 473.66 604.536 473.11 598.228C470.898 572.869 466.094 570.402 466.094 570.402L454.386 571.774L427.102 574.973C427.102 574.973 422.618 573.045 427.08 591.005Z" fill="#415DA5"/>
<path d="M422.15 453.774C420.833 443.027 424.194 425.834 445.665 428.581C467.135 431.328 473.897 452.405 469.568 461.777C465.239 471.149 475.801 473.409 479.117 483.485C481.966 492.142 482.958 502.891 487.566 507.716C502.428 523.269 473.3 547.188 455.739 542.144C423.755 532.952 419.635 531.585 420.774 506.48C421.356 493.611 431.374 488.633 425.012 484.911C409.642 475.921 425.133 478.082 422.15 453.774Z" fill="#163560"/>
<path d="M428.651 488.267L435.018 497.801L447.792 497.188L453.701 481.914C453.701 481.914 452.601 481.71 451.702 472.638C451.481 470.255 451.26 467.266 451.06 463.507C451.062 463.505 451.064 463.502 451.066 463.499C451.067 463.496 451.068 463.493 451.068 463.489C451.068 463.486 451.067 463.482 451.066 463.479C451.064 463.476 451.062 463.473 451.06 463.471C451.06 463.16 451.041 462.858 451.023 462.535L449.371 463.032L435.057 467.395C435.057 467.395 435.131 467.871 435.223 468.696C435.507 471.708 435.364 474.745 434.799 477.717C434.026 481.483 432.303 485.518 428.651 488.267Z" fill="#D9935C"/>
<path d="M428.61 481.361C429.428 481.361 443.371 478.526 466.915 484.544C466.915 484.544 454.02 543.558 458.402 554.68C461.065 561.476 463.089 568.505 464.447 575.676L416.928 576.266C416.928 576.266 417.593 538.087 415.403 524.575C413.213 511.062 428.61 481.361 428.61 481.361Z" fill="#D9935C"/>
<path d="M377.264 504.879C377.264 504.879 392.44 525.449 395.121 525.247C398.002 525.01 405.232 499.451 410.702 490.026C414.536 483.449 427.743 481.484 428.606 481.361H428.649L428.617 481.492C428.731 482.717 429.807 492.467 435.215 493.36C445.187 494.994 453.223 485.878 455.573 482.203C455.573 482.203 467.024 485.091 470.387 488.919C473.573 492.543 469.216 519.401 468.249 521.977C467.412 524.187 466.613 526.344 465.934 528.513C464.112 534.233 463 540.042 463.64 547.196C464.333 555.007 471.639 572.859 470.058 576.66C468.404 580.654 466.101 582.678 461.061 583.832C457.585 584.631 452.823 585.015 446.073 585.352C431.759 586.061 416.423 584.265 414.33 577.465C413.328 574.197 413.716 561.577 414.244 555.749C414.941 548.087 414.268 538.31 413.598 529.324L413.501 529.473C413.501 529.478 413.5 529.483 413.496 529.486C413.493 529.49 413.488 529.492 413.483 529.492C411.941 531.855 410.16 534.394 408.345 536.752C405.592 540.29 402.727 543.388 400.288 544.818C399.756 545.136 399.181 545.377 398.581 545.533C396.965 545.917 393.79 545.917 390.708 544.158C390.181 543.861 389.678 543.524 389.203 543.149C380.206 536.018 372.207 513.734 372.207 513.734C371.354 508.546 377.264 504.879 377.264 504.879Z" fill="#EBBA56"/>
<path d="M470.061 576.652C468.406 580.646 466.104 582.67 461.064 583.824C454.334 582.531 449.895 570.16 447.611 564.071C444.975 557.056 455.815 524.152 459.602 524.481C462.415 524.724 465.102 528.628 465.196 530.977C463.374 536.696 462.996 540.034 463.636 547.188C464.335 554.999 471.635 572.851 470.061 576.652Z" fill="#E7A329"/>
<path d="M390.715 544.15C393.797 545.909 396.972 545.909 398.588 545.525C399.188 545.369 399.763 545.128 400.295 544.81C402.735 543.38 405.599 540.281 408.352 536.743C410.167 534.378 411.948 531.841 413.49 529.484C413.141 528.199 411.875 527.594 407.783 531.792C400.9 538.852 399.635 543.583 395.265 543.948C393.76 544.077 392.237 544.15 390.715 544.15Z" fill="#E7A329"/>
<path d="M434.797 477.707C439.331 478.953 450.399 464.378 451.06 463.498L451.096 463.461H451.06L449.371 463.022L435.057 467.385C435.057 467.385 435.131 467.861 435.223 468.686C435.506 471.698 435.363 474.735 434.797 477.707V477.707Z" fill="#CC7C46"/>
<path d="M430.883 468.482C430.883 468.482 450.004 472.318 452.213 460.387C454.421 448.455 458.376 440.913 446.26 437.96C434.145 435.006 430.924 439.12 429.217 442.923C427.51 446.727 425.966 467.168 430.883 468.482Z" fill="#D9935C"/>
<path d="M428.977 435.815C438.41 426.528 446.662 431.97 444.611 434.456C448.014 434.397 452.68 435.106 455.915 438.746C461.569 445.097 451.245 466.643 451.245 466.643C451.245 466.643 452.472 452.753 446.182 445.889C443.184 442.621 441.683 439.986 440.953 438.127C439.81 439.068 438.519 439.814 437.132 440.333C431.048 442.466 427.705 452.244 427.705 452.244C425.528 447.679 424.914 439.814 428.977 435.815Z" fill="#163560"/>
<path d="M451.421 557.653L447.16 559.696C445.275 560.249 444.537 560.76 443.406 560.635C440.672 560.329 435.153 560.5 431.342 565.826C431.342 565.826 429.411 568.986 432.16 569.311C434.908 569.635 433.924 569.147 437.77 569.684C441.617 570.222 445.489 566.596 446.694 565.286L451.158 563.652L451.421 557.653Z" fill="#D9935C"/>
<path d="M455.575 482.196C455.575 482.196 466.879 482.642 472.12 487.507C478.049 493.023 488.682 526.429 488.682 547.412C488.682 547.412 488.887 558.97 448.643 566.759C448.643 566.759 446.715 565.162 445.985 563.619C444.703 560.89 444.705 559.013 444.705 559.013C444.705 559.013 468.308 545.639 469.159 541.429C470.285 535.82 454.128 513.94 455.575 482.196Z" fill="#EBBA56"/>
<path d="M328.756 482.446C328.756 482.446 362.086 475.801 401.945 476.338L404.251 465.487L406.782 453.599C406.782 453.599 365.138 443.508 337.857 424.235L328.756 482.446Z" fill="#AA443E"/>
<path d="M328.757 482.446C328.064 482.374 327.394 482.16 326.787 481.818C326.18 481.475 325.651 481.012 325.231 480.456C324.812 479.9 324.511 479.264 324.348 478.587C324.186 477.911 324.164 477.208 324.285 476.522L333.266 426.823C333.7 424.414 335.45 423.65 337.859 424.235L328.757 482.446Z" fill="#E58638"/>
<path d="M367.451 477.507C344.576 479.292 328.756 482.446 328.756 482.446C328.756 482.446 366.674 464.254 404.251 465.492L401.945 476.343C394.882 476.249 388.022 476.379 381.518 476.657C381.53 476.861 381.534 477.066 381.518 477.27L380.534 511.49C380.475 513.35 379.682 515.112 378.327 516.39C376.972 517.668 375.166 518.358 373.304 518.31V518.31C371.441 518.25 369.678 517.457 368.399 516.104C367.12 514.75 366.429 512.946 366.476 511.085L367.451 477.507Z" fill="#9E3A38"/>
<path d="M390.966 476.371L401.748 476.455C401.591 476.488 411.803 476.745 413.533 467.357C413.723 466.703 413.823 466.026 413.827 465.344C414.463 453.905 408.122 452.884 408.122 452.884L393.749 449.871L392.079 465.882L392.091 465.937L390.966 476.371Z" fill="#E58638"/>
<path d="M390.966 476.371L401.748 476.455C401.591 476.487 411.803 476.745 413.532 467.356C406.869 464.012 392.079 465.882 392.079 465.882L392.091 465.937L390.966 476.371Z" fill="#DB772C"/>
<path d="M357.418 598.005H499.287V639.289H357.418V598.005Z" fill="#D5E7F7"/>
<path d="M368.199 610.043H488.976C489.627 610.043 490.251 609.785 490.711 609.325C491.171 608.865 491.43 608.242 491.43 607.592C491.427 606.943 491.168 606.322 490.708 605.865C490.248 605.407 489.625 605.151 488.976 605.151H368.199C367.55 605.151 366.927 605.407 366.468 605.865C366.008 606.322 365.748 606.943 365.745 607.592C365.745 608.242 366.004 608.865 366.464 609.325C366.924 609.785 367.548 610.043 368.199 610.043Z" fill="#C4D9ED"/>
<path d="M368.199 619.001H488.976C489.625 619.001 490.248 618.744 490.708 618.286C491.168 617.829 491.427 617.208 491.43 616.56V616.56C491.43 615.91 491.171 615.286 490.711 614.826C490.251 614.367 489.627 614.108 488.976 614.108H368.199C367.548 614.108 366.924 614.367 366.464 614.826C366.004 615.286 365.745 615.91 365.745 616.56C365.748 617.208 366.008 617.829 366.468 618.286C366.927 618.744 367.55 619.001 368.199 619.001V619.001Z" fill="#C4D9ED"/>
<path d="M368.199 628.36H488.976C489.627 628.36 490.251 628.101 490.711 627.642C491.171 627.182 491.43 626.558 491.43 625.908C491.43 625.258 491.171 624.635 490.711 624.175C490.251 623.715 489.627 623.457 488.976 623.457H368.199C367.548 623.457 366.924 623.715 366.464 624.175C366.004 624.635 365.745 625.258 365.745 625.908C365.745 626.558 366.004 627.182 366.464 627.642C366.924 628.101 367.548 628.36 368.199 628.36Z" fill="#C4D9ED"/>
<path d="M24.9603 564.94H212.532C214.942 564.94 216.896 566.891 216.896 569.299V671.858C216.896 674.265 214.942 676.217 212.532 676.217H24.9603C22.5503 676.217 20.5967 674.265 20.5967 671.858V569.299C20.5967 566.891 22.5503 564.94 24.9603 564.94Z" fill="#3B76CA"/>
<path d="M34.1583 564.94H221.73C224.14 564.94 226.094 566.891 226.094 569.299V671.858C226.094 674.265 224.14 676.217 221.73 676.217H34.1583C31.7483 676.217 29.7947 674.265 29.7947 671.858V569.299C29.7947 566.891 31.7483 564.94 34.1583 564.94Z" fill="#699DEE"/>
<path d="M51.5081 570.111H220.467V671.036H51.5081V570.111Z" fill="#A6D9F1"/>
<path d="M39.6291 608.108H40.4613C42.7007 608.108 44.5161 609.922 44.5161 612.159V628.997C44.5161 631.234 42.7007 633.048 40.4613 633.048H39.6291C37.3897 633.048 35.5743 631.234 35.5743 628.997V612.159C35.5743 609.922 37.3897 608.108 39.6291 608.108Z" fill="#3B76CA"/>
<path d="M51.5035 570.111V671.036H168.42L91.845 570.111H51.5035Z" fill="#CFF1FF"/>
<path d="M112.532 570.111L196.127 671.036H207.357L121.813 570.111H112.532Z" fill="#CFF1FF"/>
<path d="M194.974 570.111L220.467 598.219V570.111H194.974Z" fill="#CFF1FF"/>
<path d="M133.527 618.928C133.527 619.758 133.936 620.328 134.633 620.71C135.919 621.418 138.175 621.488 140.63 621.382C140.945 621.369 141.227 621.359 141.481 621.359H141.685H141.837C144.268 621.418 144.01 622.144 148.63 622.54C153.893 622.989 155.833 621.38 156.144 620.646C156.404 620.033 154.146 619.319 151.621 618.514C151.498 618.475 151.378 618.434 151.253 618.397L150.243 618.07C147.239 617.072 144.28 615.887 143.542 612.849C142.759 609.626 145.112 600.632 145.112 600.632L136.77 599.733C136.77 599.733 135.964 609.129 135.441 612.065C135.159 613.63 134.449 614.874 134.034 616.212C134.003 616.306 133.977 616.399 133.95 616.493C133.7 617.282 133.557 618.101 133.527 618.928Z" fill="#E49963"/>
<path d="M133.527 618.929C133.527 619.758 133.936 620.328 134.633 620.71C136.001 621.344 138.222 621.436 140.626 621.368C140.941 621.368 141.223 621.356 141.481 621.368H141.685H141.837C144.268 621.427 144.01 622.153 148.63 622.549C153.893 622.998 155.833 621.389 156.144 620.655C156.404 620.042 154.146 619.327 151.621 618.523C149.036 619.459 146.25 619.696 143.544 619.211C140.031 618.551 136.543 616.805 134.034 616.22C134.003 616.314 133.977 616.408 133.95 616.502C133.701 617.289 133.558 618.105 133.527 618.929Z" fill="#9E3A38"/>
<path d="M187.662 608.29C188.126 610.605 191.428 610.218 195.117 609.312C198.806 608.405 197.931 609.481 203.182 608.903C208.433 608.325 210.024 606.366 210.183 605.586C210.328 604.895 207.729 604.65 204.951 604.329C204.599 604.29 204.247 604.248 203.897 604.205C200.755 603.81 198.452 601.784 195.6 600.119C192.894 598.542 188.852 592.124 188.852 592.124L181.65 592.694C181.65 592.694 185.429 598.428 186.891 600.92C187.752 602.387 187.709 604.325 187.598 605.823C187.551 606.644 187.498 607.475 187.662 608.29Z" fill="#E49963"/>
<path d="M195.117 609.318C198.798 608.417 197.931 609.487 203.182 608.909C208.433 608.331 210.024 606.372 210.183 605.592C210.328 604.902 207.729 604.656 204.951 604.336L204.924 604.389C202.674 605.831 200.075 606.639 197.403 606.726C193.841 606.811 190.067 605.792 187.607 605.831C187.551 606.648 187.498 607.477 187.662 608.292C188.126 610.605 191.428 610.219 195.117 609.318Z" fill="#9E3A38"/>
<path d="M171.637 502.62C171.637 502.62 173.353 498.422 175.242 498.251C177.131 498.079 183.135 497.135 183.562 497.993C183.99 498.851 183.562 501.936 182.276 503.049C180.99 504.162 173.011 505.964 173.011 505.964L171.637 502.62Z" fill="#E49963"/>
<path d="M160.062 562.286L144.54 604.015C142.97 604.132 141.392 603.988 139.87 603.588C137.768 602.975 135.357 601.392 135.357 601.392C135.357 601.392 139.207 561.326 146.266 552.992C153.324 544.657 160.062 562.286 160.062 562.286Z" fill="#9E3A38"/>
<path d="M98.6664 545.405C98.6664 545.405 143.265 530.34 153.211 533.557C163.157 536.774 193.023 596.118 193.023 596.118C193.023 596.118 192.348 597.014 190.51 597.703C188.798 598.344 184.656 598.303 184.656 598.303C184.656 598.303 157.703 575.22 154.495 568.494C151.287 561.767 149.997 555.353 146.794 555.994C143.592 556.636 105.404 571.699 96.7423 562.735C88.0806 553.772 90.3441 542.104 90.3441 542.104L98.6664 545.405Z" fill="#B74B42"/>
<path d="M125.928 475.321C126.639 473.852 127.437 471.236 127.825 466.593C127.766 467.054 126.962 472.925 124.705 476.242C115.434 482.326 97.6442 502.639 98.0041 506.487C98.0041 506.487 91.7409 495.877 91.6346 495.814C91.6346 495.814 80.0836 481.139 93.7734 472.731C100.726 468.46 100.695 462.977 100.405 458.215C100.114 453.454 102.302 432.949 116.242 438.313C116.242 438.313 118.479 437.32 119.48 437.47C119.48 437.47 118.663 437.627 118.254 438.056C119.869 437.96 122.18 438.08 124.108 439.173C129.21 442.076 133.782 468.1 125.928 475.321Z" fill="#163560"/>
<path d="M124.157 476.544C124.202 476.565 119.679 478.912 116.275 477.974C113.072 477.102 110.981 472.955 111.026 472.945C112.381 472.676 112.772 470.815 112.743 462.817L113.357 462.938L123.662 464.981C123.662 464.981 123.427 468.22 123.421 471.272C123.409 473.84 123.568 476.271 124.157 476.544Z" fill="#E49963"/>
<path d="M123.662 464.985C123.662 464.985 123.427 468.225 123.421 471.277C117.653 471.115 114.606 465.859 113.356 462.947L123.662 464.985Z" fill="#D68D5D"/>
<path d="M112.289 461.825C112.289 461.825 109.267 457.055 108.543 452.976C108.024 450.065 109.51 439.269 120.368 440.824C122.555 441.127 124.646 441.916 126.486 443.134C128.844 444.725 132.246 448.159 128.441 457.578L127.453 460.761L112.289 461.825Z" fill="#163560"/>
<path d="M125.588 467.87C125.588 467.87 111.943 468.094 111.933 459.603C111.923 451.111 110.158 445.424 118.869 444.922C127.58 444.419 129.275 447.657 129.968 450.49C130.661 453.323 129.134 467.598 125.588 467.87Z" fill="#E49963"/>
<path d="M125.083 444.719C125.083 444.719 121.347 454.679 115.614 456.158C109.88 457.637 107.394 456.097 107.394 456.097C107.394 456.097 111.792 452.608 112.71 446.514C112.704 446.508 122.265 439.978 125.083 444.719Z" fill="#163560"/>
<path d="M124.157 445.528C124.157 445.528 126.946 447.752 127.633 449.914C128.32 452.075 128.618 456.526 129.917 456.375C129.917 456.375 132.733 449.605 129.569 445.775C126.21 441.722 124.157 445.528 124.157 445.528Z" fill="#163560"/>
<path d="M93.7735 513.218C92.4281 507.582 97.0063 496.641 101.785 487.586C106.12 479.378 110.621 472.719 111.025 472.958C122.462 479.74 123.499 474.102 123.499 474.102C123.499 474.102 133.886 475.481 136.826 480.539C140.896 487.533 145.327 508.524 149.68 508.211C151.678 508.068 171.784 500.519 171.784 500.519C171.784 500.519 175.136 503.654 174.493 507.501C174.493 507.501 164.566 514.141 156.17 518.38C151.729 520.627 147.715 522.19 145.83 521.745C142.004 520.846 136.029 511.988 132.802 506.773L132.78 506.739C128.66 530.038 134.262 535.337 131.426 537.8C128.431 540.395 124.153 536.575 114.741 540.64C108.568 543.316 99.9999 547.176 94.2336 547.857C91.2094 548.212 88.9519 547.685 88.2158 545.644C86.0729 539.71 96.3398 523.961 93.7735 513.218Z" fill="#699DEE"/>
<path d="M122.555 462.728C122.555 462.728 122.81 463.806 125.495 463.641C125.495 463.641 127.744 463.502 127.681 462.315C127.681 462.315 125.495 461.472 122.555 462.728Z" fill="white"/>
<path d="M88.2112 545.64C88.9473 547.683 91.2048 548.208 94.229 547.852C98.2204 546.116 115.464 539.442 115.272 534.92C114.984 528.224 111.955 528.011 114.094 519.746C115.812 513.112 99.8787 500.774 97.337 498.094C92.5584 507.149 92.4296 507.578 93.773 513.21C96.3392 523.961 86.0724 539.71 88.2112 545.64Z" fill="#3B76CA"/>
<path d="M132.797 506.769C136.023 511.984 141.998 520.841 145.824 521.74C147.709 522.185 151.723 520.616 156.165 518.376C152.924 519.211 149.775 519.193 146.716 518.892C143.399 518.572 142.438 514.511 137.197 508.421C133.797 504.473 132.962 505.465 132.797 506.769Z" fill="#3B76CA"/>
<path d="M121.687 518.815C122.116 518.549 122.955 518.651 123.562 518.78V517.902C123.562 517.71 123.574 517.518 123.599 517.328H132.702C132.726 517.518 132.738 517.71 132.739 517.902V519.687C132.741 520.619 132.457 521.529 131.927 522.296C131.397 523.063 130.646 523.65 129.773 523.978C128.9 524.307 127.947 524.361 127.043 524.135C126.138 523.908 125.324 523.411 124.709 522.71V522.71C124.709 522.71 122.542 522.179 121.863 521.372C121.184 520.565 120.955 519.26 121.687 518.815ZM122.167 520.463C122.396 521.058 123.429 521.376 123.938 521.501C123.731 521.022 123.608 520.512 123.572 519.991C123.259 519.562 122.754 519.311 122.399 519.379C122.073 519.436 121.877 519.714 122.167 520.463Z" fill="#C45446"/>
<path d="M131.996 517.902V519.687C131.992 520.902 131.507 522.065 130.648 522.924C129.788 523.783 128.623 524.267 127.407 524.271C127.202 524.271 126.997 524.256 126.794 524.226C127.892 524.075 128.899 523.532 129.629 522.698C130.359 521.864 130.762 520.795 130.765 519.687V517.902C130.765 517.71 130.753 517.518 130.728 517.328H131.955C131.981 517.518 131.995 517.71 131.996 517.902Z" fill="#E37970"/>
<path d="M126.281 523.87H130.027V524.43H126.281V523.87Z" fill="#C45446"/>
<path d="M116.823 519.587C116.823 519.587 119.71 517.34 122.438 517.877C125.166 518.414 126.503 520.281 126.397 521.146C126.29 522.01 124.845 524.414 122.759 524.618C120.673 524.822 114.737 523.337 114.737 523.337L116.823 519.587Z" fill="#E49963"/>
<path d="M111.024 472.954C111.024 472.954 99.9025 473.638 96.0543 479.002C90.6356 486.56 77.6287 520.139 83.7855 524.43C90.7235 529.264 117.619 524.287 117.619 524.287C117.619 524.287 118.436 520.459 117.298 518.607C116.159 516.754 97.6185 513.763 96.7617 512.91C95.905 512.056 107.458 496.241 107.458 493.677C107.458 491.114 111.024 472.954 111.024 472.954Z" fill="#699DEE"/>
<path d="M153.134 385.297H182.427C190.165 385.297 196.438 391.563 196.438 399.293V423.398C196.438 431.128 190.165 437.394 182.427 437.394H153.134C145.396 437.394 139.123 431.128 139.123 423.398V399.293C139.123 391.563 145.396 385.297 153.134 385.297Z" fill="#A6D9F1"/>
<path d="M190.886 400.392L151.256 396.975L171.957 410.408L190.886 400.392Z" fill="#E69D43"/>
<path d="M170.598 431.699L151.256 396.975L171.997 410.346L170.598 431.699Z" fill="#CA5F00"/>
<path d="M173.639 493.589L180.483 491.751C180.582 491.719 180.688 491.714 180.79 491.734C180.893 491.755 180.988 491.802 181.067 491.869H181.071L182.028 492.446L181.264 507.525L174.69 509.286L174.205 509.247L173.097 508.569C173.015 508.513 172.948 508.438 172.903 508.35C172.859 508.261 172.837 508.163 172.841 508.064V494.582C172.855 494.355 172.94 494.137 173.082 493.96C173.225 493.782 173.419 493.653 173.639 493.589V493.589Z" fill="#CA5F00"/>
<path d="M174.695 509.29L181.539 507.451C181.757 507.386 181.95 507.255 182.091 507.076C182.232 506.898 182.314 506.68 182.326 506.453V492.971C182.331 492.874 182.312 492.778 182.27 492.691C182.228 492.604 182.166 492.528 182.088 492.471C182.01 492.414 181.919 492.377 181.823 492.364C181.727 492.35 181.63 492.361 181.539 492.395L174.695 494.233C174.476 494.3 174.284 494.433 174.144 494.614C174.004 494.794 173.924 495.014 173.914 495.242V508.724C173.911 508.819 173.932 508.913 173.974 508.998C174.016 509.083 174.078 509.157 174.155 509.213C174.232 509.268 174.322 509.304 174.416 509.318C174.51 509.331 174.606 509.322 174.695 509.29V509.29Z" fill="#E69D43"/>
<path d="M179.741 494.502L181.336 494.026C181.456 493.987 181.561 493.911 181.636 493.81C181.712 493.709 181.754 493.587 181.757 493.461C181.759 493.407 181.746 493.354 181.722 493.306C181.698 493.258 181.662 493.217 181.617 493.187C181.573 493.156 181.522 493.137 181.469 493.132C181.415 493.126 181.361 493.134 181.311 493.154L179.716 493.63C179.596 493.67 179.492 493.745 179.416 493.846C179.341 493.948 179.299 494.07 179.295 494.196V494.196C179.295 494.249 179.307 494.302 179.331 494.35C179.356 494.397 179.392 494.438 179.436 494.468C179.48 494.499 179.531 494.518 179.584 494.523C179.637 494.529 179.691 494.522 179.741 494.502V494.502Z" fill="#CA5F00"/>
<path d="M145.312 464.965C145.312 464.748 145.248 464.536 145.127 464.355C145.007 464.175 144.835 464.034 144.635 463.951C144.434 463.868 144.213 463.846 144 463.889C143.787 463.931 143.592 464.036 143.438 464.189C143.284 464.342 143.18 464.538 143.137 464.751C143.095 464.963 143.117 465.184 143.2 465.384C143.283 465.585 143.424 465.756 143.604 465.877C143.785 465.997 143.997 466.062 144.214 466.062C144.506 466.062 144.785 465.946 144.991 465.74C145.197 465.535 145.312 465.256 145.312 464.965Z" fill="#A6D9F1"/>
<path d="M157.147 460.689C157.148 460.277 157.027 459.875 156.799 459.532C156.571 459.189 156.247 458.922 155.866 458.764C155.486 458.605 155.068 458.563 154.664 458.642C154.259 458.722 153.888 458.919 153.596 459.209C153.304 459.5 153.105 459.87 153.024 460.274C152.943 460.677 152.984 461.095 153.141 461.476C153.298 461.856 153.564 462.181 153.907 462.41C154.249 462.639 154.651 462.762 155.063 462.762C155.614 462.763 156.143 462.545 156.534 462.156C156.925 461.767 157.145 461.24 157.147 460.689V460.689Z" fill="#A6D9F1"/>
<path d="M168.704 449.987C168.704 449.334 168.51 448.696 168.147 448.153C167.784 447.61 167.268 447.187 166.664 446.937C166.06 446.687 165.396 446.622 164.755 446.749C164.114 446.877 163.525 447.191 163.063 447.653C162.601 448.114 162.286 448.702 162.159 449.343C162.031 449.983 162.097 450.647 162.347 451.25C162.597 451.853 163.02 452.369 163.564 452.732C164.107 453.094 164.746 453.288 165.4 453.288C165.834 453.288 166.263 453.203 166.664 453.037C167.065 452.871 167.43 452.628 167.737 452.322C168.044 452.015 168.287 451.651 168.453 451.25C168.619 450.85 168.704 450.42 168.704 449.987V449.987Z" fill="#A6D9F1"/>
<path d="M279.315 392.26H250.496C242.882 392.26 236.71 386.094 236.71 378.488V354.772C236.71 347.166 242.882 341 250.496 341H279.315C286.929 341 293.101 347.166 293.101 354.772V378.488C293.101 386.094 286.929 392.26 279.315 392.26Z" fill="#A6D9F1"/>
<path d="M251.412 352.75H278.387C280.415 352.755 282.358 353.563 283.792 354.995C285.226 356.428 286.034 358.369 286.04 360.395V366.995C286.031 368.894 285.315 370.72 284.032 372.12C282.749 373.52 280.99 374.393 279.098 374.57L282.36 384.044L265.314 374.648H251.412C249.384 374.642 247.441 373.834 246.006 372.402C244.572 370.969 243.764 369.028 243.758 367.002V360.395C243.764 358.369 244.572 356.428 246.006 354.995C247.441 353.563 249.384 352.755 251.412 352.75Z" fill="#E69D43"/>
<path d="M250.45 359.406H280.154C281.034 359.406 281.747 360.119 281.747 360.998V361.075C281.747 361.954 281.034 362.667 280.154 362.667H250.45C249.57 362.667 248.857 361.954 248.857 361.075V360.998C248.857 360.119 249.57 359.406 250.45 359.406Z" fill="#CA5F00"/>
<path d="M250.45 364.687H280.154C281.034 364.687 281.747 365.399 281.747 366.278V366.356C281.747 367.235 281.034 367.947 280.154 367.947H250.45C249.57 367.947 248.857 367.235 248.857 366.356V366.278C248.857 365.399 249.57 364.687 250.45 364.687Z" fill="#CA5F00"/>
<path d="M245.26 428.953C245.418 428.786 245.623 428.67 245.848 428.62C246.072 428.569 246.307 428.586 246.522 428.668C246.737 428.75 246.923 428.895 247.056 429.082C247.189 429.27 247.264 429.493 247.27 429.723C247.276 429.953 247.214 430.18 247.092 430.375C246.969 430.57 246.791 430.724 246.581 430.818C246.371 430.912 246.137 430.942 245.91 430.903C245.683 430.865 245.472 430.76 245.305 430.602C245.193 430.497 245.104 430.371 245.041 430.231C244.978 430.091 244.944 429.94 244.94 429.787C244.936 429.634 244.962 429.481 245.017 429.338C245.072 429.195 245.154 429.064 245.26 428.953V428.953Z" fill="#A6D9F1"/>
<path d="M239.269 417.03C239.569 416.713 239.957 416.492 240.384 416.395C240.81 416.298 241.256 416.33 241.664 416.486C242.072 416.643 242.425 416.916 242.677 417.273C242.93 417.629 243.071 418.053 243.083 418.489C243.094 418.926 242.976 419.356 242.743 419.726C242.51 420.095 242.173 420.387 241.773 420.565C241.374 420.743 240.931 420.799 240.5 420.725C240.069 420.651 239.67 420.452 239.352 420.151C238.927 419.748 238.679 419.193 238.663 418.608C238.648 418.022 238.865 417.455 239.269 417.03Z" fill="#A6D9F1"/>
<path d="M238.179 400.353C238.656 399.849 239.272 399.498 239.949 399.344C240.625 399.19 241.333 399.24 241.981 399.488C242.629 399.736 243.189 400.17 243.591 400.736C243.992 401.302 244.216 401.974 244.235 402.667C244.254 403.36 244.067 404.043 243.697 404.63C243.327 405.217 242.791 405.681 242.157 405.963C241.524 406.246 240.82 406.334 240.136 406.217C239.452 406.1 238.818 405.783 238.314 405.306C237.639 404.667 237.246 403.786 237.221 402.857C237.196 401.929 237.54 401.028 238.179 400.353Z" fill="#A6D9F1"/>
<path d="M559.614 369.963H595.276C604.695 369.963 612.331 377.592 612.331 387.002V416.348C612.331 425.758 604.695 433.386 595.276 433.386H559.614C550.195 433.386 542.559 425.758 542.559 416.348V387.002C542.559 377.592 550.195 369.963 559.614 369.963Z" fill="#A6D9F1"/>
<path d="M558.901 401.156C560.839 406.263 577.453 419.659 577.453 419.659C577.453 419.659 582.87 415.263 587.882 410.53C591.636 407.027 595.143 403.338 595.975 401.156C597.944 396.084 595.85 388.83 588.589 387.601C581.328 386.371 577.451 393.933 577.451 393.933C577.451 393.933 573.543 386.375 566.285 387.601C565.115 387.789 563.989 388.184 562.96 388.769C558.441 391.29 557.31 396.987 558.901 401.156Z" fill="#D6716B"/>
<path d="M558.902 401.156C560.84 406.262 577.454 419.659 577.454 419.659C577.454 419.659 582.871 415.263 587.882 410.53C568.101 404.998 563.854 393.563 562.963 388.769C558.442 391.289 557.311 396.986 558.902 401.156Z" fill="#AA443E"/>
<path d="M580.693 464.707C580.888 464.79 581.054 464.928 581.17 465.105C581.287 465.282 581.348 465.49 581.346 465.701C581.344 465.913 581.28 466.119 581.16 466.295C581.041 466.47 580.873 466.605 580.676 466.685C580.48 466.764 580.264 466.784 580.057 466.741C579.849 466.698 579.659 466.594 579.511 466.443C579.362 466.292 579.262 466.101 579.222 465.893C579.182 465.685 579.205 465.47 579.288 465.275C579.399 465.014 579.61 464.808 579.873 464.701C580.136 464.595 580.431 464.597 580.693 464.707V464.707Z" fill="#A6D9F1"/>
<path d="M572.958 455.856C573.329 456.012 573.644 456.274 573.865 456.61C574.086 456.945 574.202 457.338 574.199 457.74C574.196 458.141 574.074 458.533 573.848 458.865C573.622 459.197 573.303 459.454 572.93 459.605C572.558 459.755 572.149 459.792 571.755 459.711C571.362 459.629 571.002 459.432 570.72 459.146C570.438 458.86 570.248 458.496 570.173 458.102C570.099 457.707 570.143 457.3 570.3 456.93C570.511 456.437 570.909 456.046 571.407 455.845C571.905 455.644 572.463 455.648 572.958 455.856Z" fill="#A6D9F1"/>
<path d="M564.002 442.922C564.251 442.335 564.669 441.836 565.202 441.486C565.736 441.137 566.361 440.954 566.999 440.96C567.637 440.965 568.258 441.16 568.785 441.518C569.312 441.877 569.721 442.384 569.96 442.975C570.199 443.566 570.257 444.214 570.127 444.838C569.997 445.461 569.685 446.033 569.23 446.479C568.775 446.925 568.197 447.227 567.571 447.346C566.944 447.465 566.296 447.395 565.709 447.146C564.922 446.812 564.3 446.179 563.98 445.387C563.66 444.595 563.668 443.708 564.002 442.922Z" fill="#A6D9F1"/>
<path d="M223.083 537.527L221.504 540.08C220.686 541.02 220.465 541.545 219.817 541.865C218.251 542.635 215.355 544.613 215.137 548.764C215.137 548.764 215.188 551.115 216.772 550.353C218.357 549.591 217.66 549.662 219.903 548.637C222.146 547.612 222.97 544.347 223.175 543.234L225.003 540.834L223.083 537.527Z" fill="#D9935C"/>
<path d="M322.979 500.11C322.979 500.11 324.654 496.024 326.494 495.848C328.334 495.673 334.188 494.762 334.608 495.597C335.027 496.433 334.608 499.442 333.352 500.528C332.097 501.615 324.318 503.37 324.318 503.37L322.979 500.11Z" fill="#D9935C"/>
<path d="M269.687 670.916C269.53 671.809 269.375 672.724 269.46 673.644C269.546 674.563 270.892 675.451 270.906 675.451C271.783 675.833 272.98 675.884 274.382 675.833C274.791 675.819 275.237 675.805 275.679 675.766C276.292 675.713 276.938 675.739 277.597 675.652C277.944 675.607 278.257 675.57 278.537 675.545L278.756 675.527L278.924 675.515C280.523 675.41 281.101 675.656 282.377 675.87H289.931C293.266 675.294 294.521 673.948 294.732 673.29C294.959 672.575 292.38 672.02 289.497 671.382L289.088 671.288C288.704 671.204 288.317 671.115 287.935 671.027C284.498 670.224 281.095 669.209 279.971 665.92C278.776 662.431 279.059 652.07 279.059 652.07H268.63C268.63 652.07 271.368 663.51 271.084 666.813C270.929 668.576 270.084 669.076 269.759 670.6C269.728 670.712 269.708 670.812 269.687 670.916Z" fill="#D9935C"/>
<path d="M257.323 561.495C258.202 566.432 259.46 571.533 260.55 576.838C262.302 585.368 263.617 594.43 262.271 604.188C262.091 605.558 261.995 606.938 261.983 608.32C261.719 625.567 269.434 656.821 269.434 656.821C269.434 656.821 271.528 657.724 275.039 657.55C276.849 657.462 279.621 656.298 279.621 656.298C279.621 656.298 280.351 636.919 280.396 610.858C280.427 591.969 284.14 567.096 284.895 552.481C285.349 543.636 284.363 531.849 284.363 531.849C284.363 531.849 268.986 519.497 263.464 525.817C258.004 532.064 254.029 543.041 257.323 561.495Z" fill="#80BDCC"/>
<path d="M262.273 604.189C262.092 605.559 261.996 606.939 261.984 608.321C273.499 591.652 276.046 555.308 276.046 555.308L263.397 561.437C263.397 561.437 262.011 568.251 260.551 576.835C262.303 585.369 263.626 594.431 262.273 604.189Z" fill="#5F9AA8"/>
<path d="M236.19 673.571C236.276 674.489 236.787 675.079 237.597 675.43H237.609C238.19 675.662 238.804 675.8 239.429 675.839C240.195 675.896 240.965 675.896 241.731 675.839C242.549 675.788 243.434 675.69 244.334 675.569C244.682 675.524 244.995 675.487 245.275 675.463L245.494 675.445C245.551 675.445 245.608 675.445 245.663 675.432C247.389 675.318 247.927 675.614 249.434 675.841H256.353C259.924 675.3 261.261 673.894 261.465 673.216C261.694 672.503 259.116 671.949 256.233 671.314L255.811 671.22C255.429 671.136 255.043 671.049 254.658 670.961C251.221 670.16 247.818 669.149 246.684 665.866C245.489 662.394 247.195 652.219 247.195 652.219L237.533 651.416C237.533 651.416 238.132 663.002 237.846 666.291C237.691 668.046 236.793 669.012 236.468 670.532C236.443 670.64 236.423 670.736 236.404 670.85C236.259 671.747 236.104 672.66 236.19 673.571Z" fill="#D9935C"/>
<path d="M237.552 657.704C237.552 657.704 240.036 658.879 241.823 659.236C243.61 659.593 247.326 658.895 247.326 658.895C247.996 651.39 249.555 639.657 252.579 626.416C256.024 611.34 261.15 593.528 268.297 576.653C269.822 573.049 276.118 555.995 277.186 551.691C280.416 538.687 277.173 540.088 277.173 540.088L248.939 536.779C248.939 536.779 245.463 538.564 243.86 556.928C243.379 562.427 243.322 586.172 242.598 590.674C241.915 594.937 241.114 598.481 240.175 600.783C234.93 613.642 237.552 657.704 237.552 657.704Z" fill="#80BDCC"/>
<path d="M236.19 673.649C236.276 674.569 236.787 675.161 237.597 675.515H237.609C238.403 675.794 239.419 675.907 240.572 675.907C241.828 675.89 243.083 675.8 244.328 675.639C244.676 675.598 244.991 675.568 245.275 675.547L245.494 675.529C245.551 675.529 245.608 675.529 245.664 675.517C247.351 675.406 247.913 675.688 249.344 675.907H256.466C259.957 675.353 261.263 673.964 261.478 673.292C261.707 672.575 259.129 672.021 256.245 671.382C253.47 672.68 250.401 673.222 247.349 672.955C243.384 672.577 239.335 670.994 236.491 670.598C236.466 670.706 236.446 670.802 236.427 670.918C236.26 671.815 236.104 672.73 236.19 673.649Z" fill="#B84C42"/>
<path d="M269.46 673.645C269.546 674.566 270.057 675.157 270.867 675.51H270.879C271.672 675.79 272.688 675.902 273.842 675.902C275.098 675.885 276.352 675.795 277.598 675.633C277.946 675.592 278.258 675.561 278.545 675.543L278.764 675.524L278.931 675.512C280.618 675.402 281.18 675.682 282.612 675.902H289.732C293.224 675.349 294.531 673.96 294.746 673.288C294.973 672.573 292.394 672.017 289.511 671.38C286.736 672.676 283.668 673.217 280.616 672.951C276.651 672.573 272.603 670.99 269.758 670.593C269.734 670.702 269.713 670.798 269.693 670.914C269.529 671.811 269.374 672.726 269.46 673.645Z" fill="#B84C42"/>
<path d="M280.752 452.322C281.707 444.541 279.274 432.099 263.729 434.081C248.185 436.062 243.281 451.331 246.422 458.117C249.563 464.903 241.909 466.54 239.507 473.846C237.445 480.115 236.726 487.898 233.389 491.391C222.627 502.653 243.719 519.973 256.435 516.313C279.595 509.659 282.578 508.667 281.756 490.488C281.335 481.174 274.082 477.566 278.689 474.87C289.812 468.358 278.595 469.926 280.752 452.322Z" fill="#B74B42"/>
<path d="M257.905 472.686L262.189 483.741L271.431 484.193L276.042 477.313C273.131 475.102 271.902 471.785 271.452 468.817C271.172 466.933 271.117 465.023 271.288 463.126C271.35 462.532 271.411 462.184 271.411 462.184L259.893 458.677L259.852 458.656C259.709 461.708 259.545 464.102 259.361 465.965C258.705 472.543 257.905 472.686 257.905 472.686Z" fill="#D9935C"/>
<path d="M276.08 472.298C275.485 472.298 265.392 470.255 248.343 474.602C248.343 474.602 257.679 517.334 254.508 525.388C252.58 530.309 251.115 535.398 250.132 540.59L284.538 541.017C284.538 541.017 284.055 513.373 285.642 503.588C287.229 493.804 276.08 472.298 276.08 472.298Z" fill="#D9935C"/>
<path d="M249.052 506.434C248.554 504.865 247.981 503.302 247.376 501.703C246.674 499.838 243.521 480.391 245.826 477.766C248.261 474.994 256.555 472.902 256.555 472.902C258.254 475.558 264.073 482.172 271.296 480.981C275.191 480.34 275.982 473.346 276.072 472.402L276.046 472.296H276.08L276.164 472.312C277.301 472.48 286.355 473.946 289.046 478.571C293.013 485.392 297.332 505.858 301.577 505.555C303.525 505.416 323.133 498.054 323.133 498.054C323.133 498.054 326.405 501.118 325.773 504.861C325.773 504.861 316.093 511.338 307.905 515.469C306.771 516.043 305.656 516.57 304.619 517.027C301.667 518.322 299.18 519.07 297.823 518.751C297.391 518.639 296.978 518.465 296.596 518.234C294.821 517.213 292.747 514.966 290.76 512.394C289.441 510.687 288.157 508.844 287.024 507.126L286.955 507.018C286.468 513.524 285.981 520.604 286.486 526.152C286.869 530.374 287.149 539.516 286.425 541.881C284.912 546.804 273.805 548.105 263.438 547.601C258.55 547.358 255.099 547.08 252.586 546.5C248.94 545.664 247.269 544.2 246.075 541.309C244.93 538.555 250.22 525.629 250.723 519.973C251.177 514.782 250.371 510.576 249.052 506.434Z" fill="#E69D43"/>
<path d="M256.552 472.902C256.552 472.902 248.373 473.225 244.574 476.753C240.28 480.742 233.894 505.147 232.172 517.015C232.172 517.015 223.511 533.506 220.752 540.047C221.152 540.674 221.68 541.208 222.302 541.615C223.003 542.041 223.768 542.35 224.568 542.529C224.568 542.529 240.192 525.106 241.219 522.353C242.245 519.599 257.603 495.889 256.552 472.902Z" fill="#E69D43"/>
<path d="M246.066 541.299C247.264 544.19 248.928 545.654 252.576 546.49C257.449 545.554 260.663 536.597 262.318 532.191C264.225 527.111 254.29 500.99 251.55 501.227C249.505 501.405 249.118 504.737 249.053 506.436C250.372 510.579 251.178 514.785 250.713 519.965C250.21 525.619 244.921 538.548 246.066 541.299Z" fill="#E58638"/>
<path d="M287.014 507.128C288.147 508.846 289.431 510.689 290.75 512.396C292.644 514.725 294.738 516.978 296.586 518.237C296.968 518.467 297.381 518.641 297.813 518.753C299.171 519.074 301.657 518.324 304.61 517.029C302.885 517.141 301.154 517.116 299.432 516.954C296.461 516.7 295.598 513.481 290.904 508.67C288.102 505.79 287.25 506.236 287.014 507.128Z" fill="#E58638"/>
<path d="M259.891 458.677C261.633 461.522 265.835 467.379 271.45 468.811C271.17 466.927 271.115 465.016 271.286 463.12C271.348 462.525 271.409 462.178 271.409 462.178L259.891 458.677Z" fill="#CC7C46"/>
<path d="M274.431 462.967C274.431 462.967 260.586 465.745 258.987 457.104C257.388 448.463 254.525 443.009 263.297 440.864C272.069 438.72 274.403 441.704 275.638 444.46C276.873 447.215 277.993 462.021 274.431 462.967Z" fill="#D9935C"/>
<path d="M256.307 441.436C258.651 438.803 262.033 438.292 264.486 438.333C263.002 436.536 268.975 432.593 275.804 439.316C278.747 442.214 278.303 447.907 276.727 451.213C276.727 451.213 274.305 444.132 269.901 442.588C268.896 442.212 267.961 441.672 267.134 440.989C266.597 442.335 265.519 444.241 263.348 446.61C258.794 451.582 259.681 461.639 259.681 461.639C259.681 461.639 252.214 446.038 256.307 441.436Z" fill="#B74B42"/>
<path d="M270.121 458.716C270.121 458.716 270.491 459.737 273.098 459.276C273.098 459.276 275.286 458.886 275.083 457.733C275.083 457.733 272.853 457.157 270.121 458.716Z" fill="white"/>
<path d="M1.41327 675.905H661.036C661.34 675.905 661.586 676.151 661.586 676.454V676.507C661.586 676.811 661.34 677.057 661.036 677.057H1.41327C1.1095 677.057 0.86322 676.811 0.86322 676.507V676.454C0.86322 676.151 1.1095 675.905 1.41327 675.905Z" fill="#0B0101"/>
</svg>
