<svg width="806" height="980" viewBox="0 0 806 980" fill="none" xmlns="http://www.w3.org/2000/svg">
<path d="M338.986 180.668C208.525 176.869 95.5203 270.222 78.4471 392.711C59.7805 526.636 162.522 647.132 288.944 666.438C446.185 690.443 598.701 551.566 585.007 400.904C574.686 287.387 471.595 184.53 338.986 180.668Z" fill="#F4F7FA"/>
<path d="M87.8858 593.817C87.7173 590.894 310.31 471.145 362.592 433.093C414.874 395.041 483.862 382.06 514.104 405.99C544.347 429.919 622.786 499.613 622.786 499.613C622.786 499.613 521.665 670.819 414.874 684.056C308.083 697.294 95.4464 724.503 87.8858 593.817Z" fill="url(#paint0_linear_207_1725)"/>
<path opacity="0.3" d="M163.768 241.362C134.165 266.178 110.447 297.406 95.208 332.829L453.36 252.972C453.36 252.972 243.286 243.83 163.768 241.362Z" fill="url(#paint1_linear_207_1725)"/>
<path opacity="0.3" d="M358.771 181.99C352.256 181.308 345.66 180.866 338.984 180.664C314.636 179.947 290.307 182.636 266.703 188.653L453.36 252.972L358.771 181.99Z" fill="url(#paint2_linear_207_1725)"/>
<path d="M113.068 670.459C124.604 681.9 145.25 689.366 235.48 672.809C274.038 665.734 299.996 660.839 334.854 648.035C357.125 639.855 417.079 618.056 413.722 599.664C412.363 592.199 404.939 585.611 390.628 581.333C364.368 573.485 343.891 554.484 347.394 538.187C350.143 525.397 378.683 519.724 413.951 511.223C428.167 507.797 561.19 475.732 560.323 458.387C560.025 452.445 543.832 444.682 467.101 438.089C466.119 441.155 465.137 444.223 464.156 447.293C490.367 450.204 519.656 454.309 519.571 458.575C519.518 461.195 508.397 463.594 473.794 466.903C367.948 477.017 317.517 469.322 287.666 499.249C283.224 503.703 277.113 510.879 274.552 521.375C268.615 545.695 299.37 564.371 293.242 575.328C289.971 581.173 279.537 579.988 261.623 580.035C261.623 580.035 235.765 580.101 198.694 585.099C150.376 591.614 100.566 628.406 103.873 654.787C104.828 662.285 109.863 667.279 113.068 670.459Z" fill="url(#paint3_linear_207_1725)"/>
<path opacity="0.3" d="M77.2784 402.713C71.8437 459.875 88.3146 514.159 118.973 558.632L453.36 252.972C453.36 252.972 177.36 361.148 77.2784 402.713Z" fill="url(#paint4_linear_207_1725)"/>
<path d="M509.103 247.056C517.246 240.864 524.668 233.777 531.231 225.931C540.1 215.33 553.151 199.736 548.774 192.519C544.452 185.396 523.441 187.009 510.152 197.405C508.41 198.766 491.813 212.156 495.924 229.523C498.331 239.689 506.456 245.37 509.103 247.056Z" fill="url(#paint5_linear_207_1725)"/>
<path d="M522.664 298.679C521.911 296.677 513.615 273.499 527.284 256.065C535.797 245.209 552.2 237.39 559.346 242.527C567.532 248.406 564.186 271.669 551.682 285.239C541.377 296.421 527.397 298.263 522.664 298.679Z" fill="url(#paint6_linear_207_1725)"/>
<path d="M476.502 254.377C475.606 259.217 474.889 267.668 478.847 276.27C485.565 290.857 502.943 299.792 522.663 298.676C521.482 293.393 518.204 282.126 508.503 271.757C496.297 258.708 481.632 255.318 476.502 254.377Z" fill="url(#paint7_linear_207_1725)"/>
<path d="M536.252 332.79C538.168 325.31 541.864 315.193 549.426 305.215C555.637 297.018 563.239 286.985 571.949 288.466C578.581 289.592 583.863 297.05 584.551 303.915C585.806 316.502 571.427 325.26 567.636 327.575C554.822 335.371 541.292 333.693 536.252 332.79Z" fill="url(#paint8_linear_207_1725)"/>
<path d="M531.292 334.407C528.002 326.536 520.973 313.524 506.901 305.548C502.041 302.793 490.014 295.971 482.1 301.067C478.053 303.678 475.327 309.251 476.006 313.67C478.415 329.479 524.82 333.842 531.292 334.407Z" fill="url(#paint9_linear_207_1725)"/>
<path d="M537.797 384C539.676 376.651 544.161 363.723 555.647 352.99C564.268 344.924 580.239 334.926 586.178 339.688C591.535 343.99 588.026 359.723 580.316 369.554C566.615 387.029 540.809 384.358 537.797 384Z" fill="url(#paint10_linear_207_1725)"/>
<path d="M529.67 392.95C529.929 386.698 529.491 374.351 521.947 362.458C513.425 349.033 496.775 337.661 490.642 341.725C484.294 345.928 487.388 367.873 499.993 380.754C510.627 391.625 524.851 392.783 529.67 392.95Z" fill="url(#paint11_linear_207_1725)"/>
<path d="M508.12 430.353C510.113 427.872 522.701 412.704 541.459 413.278C556.157 413.728 570.934 423.723 569.918 429.539C568.81 435.877 548.855 437.799 536.863 437.247C524.388 436.686 514.443 433.169 508.12 430.353Z" fill="url(#paint12_linear_207_1725)"/>
<path d="M531.382 199.723C528.808 201.218 526.34 202.887 523.994 204.719C521.647 206.578 519.458 208.629 517.45 210.849C515.427 213.082 513.626 215.507 512.072 218.089C510.536 220.702 509.28 223.471 508.326 226.348C507.402 229.277 506.924 232.329 506.906 235.4C506.886 238.411 507.083 241.42 507.498 244.402C508.308 250.317 509.566 256.114 510.941 261.866C511.276 263.3 511.64 264.734 512.006 266.168C512.372 267.602 512.741 269.036 513.133 270.453C513.893 273.307 514.693 276.153 515.533 278.991C517.217 284.659 519.075 290.308 521.149 295.84C522.167 298.607 523.203 301.352 524.162 304.103C525.121 306.854 526.014 309.624 526.833 312.418C527.24 313.816 527.629 315.22 528.014 316.627L529.117 320.87C529.844 323.718 530.561 326.562 531.25 329.407C531.938 332.252 532.589 335.1 533.151 337.955C533.454 339.389 533.689 340.812 533.96 342.243C534.184 343.677 534.438 345.111 534.614 346.545C535.412 352.274 535.719 358.061 535.53 363.842L535.413 366.007L535.354 367.083L535.259 368.158L535.069 370.32L534.84 372.505C534.523 375.412 534.162 378.293 533.664 381.144C532.664 386.839 531.198 392.437 528.955 397.746C527.88 400.415 526.541 402.966 525.119 405.464C524.365 406.689 523.648 407.938 522.813 409.11C522.402 409.702 522.015 410.309 521.588 410.89L520.292 412.618C516.729 417.171 512.593 421.244 507.985 424.737C503.353 428.242 498.33 431.2 493.018 433.552C490.356 434.734 487.635 435.78 484.866 436.685C482.094 437.599 479.277 438.37 476.426 438.994C476.269 439.027 476.132 439.121 476.044 439.255C475.955 439.388 475.923 439.551 475.954 439.709C475.986 439.866 476.077 440.004 476.21 440.094C476.342 440.184 476.505 440.219 476.662 440.19C479.583 439.668 482.475 438.996 485.327 438.177C488.18 437.344 490.987 436.36 493.735 435.228C499.263 432.969 504.51 430.077 509.373 426.612C514.249 423.109 518.638 418.974 522.425 414.316L523.815 412.541C524.272 411.946 524.691 411.32 525.13 410.713C526.026 409.505 526.806 408.218 527.611 406.949C529.167 404.373 530.548 401.697 531.744 398.936C534.164 393.426 535.801 387.599 536.894 381.729C537.432 378.787 537.833 375.83 538.179 372.892L538.432 370.691L538.649 368.459L538.756 367.343L538.828 366.222L538.968 363.982C539.23 357.994 538.953 351.995 538.14 346.057C537.961 344.573 537.704 343.107 537.478 341.632C537.211 340.169 536.969 338.697 536.665 337.244C536.098 334.326 535.433 331.438 534.759 328.557C534.085 325.677 533.361 322.822 532.641 319.964C532.282 318.53 531.89 317.097 531.515 315.663C531.14 314.229 530.717 312.795 530.296 311.379C529.452 308.53 528.523 305.702 527.541 302.9C526.559 300.099 525.501 297.344 524.48 294.59C522.418 289.098 520.5 283.597 518.789 277.998C517.077 272.398 515.517 266.748 514.033 261.086C512.549 255.424 511.239 249.72 510.353 243.99C509.5 238.275 509.043 232.466 510.685 227.06L510.999 226.044L511.357 225.038C511.61 224.371 511.814 223.685 512.121 223.038C512.427 222.391 512.674 221.72 512.992 221.08L513.97 219.168C515.371 216.654 517.012 214.283 518.871 212.088C522.596 207.676 527.116 203.928 532.008 200.763C532.076 200.721 532.135 200.666 532.182 200.601C532.229 200.536 532.263 200.462 532.281 200.385C532.299 200.307 532.302 200.226 532.29 200.147C532.277 200.068 532.249 199.992 532.207 199.924C532.165 199.856 532.11 199.797 532.045 199.75C531.98 199.703 531.906 199.669 531.829 199.651C531.751 199.632 531.67 199.629 531.591 199.642C531.512 199.655 531.436 199.683 531.368 199.725L531.382 199.723Z" fill="url(#paint13_linear_207_1725)"/>
<path d="M395.505 408.399C393.598 401.829 390.845 388.617 395.785 374.041C400.488 360.176 412.946 342.768 423.15 344.976C428.741 346.186 433.964 353.353 433.726 360.019C433.328 370.953 418.49 373.778 404.455 392.95C400.931 397.766 397.93 402.945 395.505 408.399V408.399Z" fill="url(#paint14_linear_207_1725)"/>
<path d="M392.343 413.061C390.638 407.585 384.501 390.402 367.451 381.566C357.146 376.226 337.41 371.114 329.643 380.754C325.843 385.47 325.002 393.602 328.422 399.047C332.574 405.656 341.149 405.364 363.594 408.39C375.94 410.051 385.915 411.833 392.343 413.061Z" fill="url(#paint15_linear_207_1725)"/>
<path d="M373.144 360.425C373.988 357.473 378.043 342.166 369.129 328.559C363.766 320.373 351.319 309.154 339.511 313.144C334.259 314.917 327.883 320.117 328.016 325.87C328.17 332.434 336.691 335.428 360.031 351.243C365.503 354.949 369.993 358.145 373.144 360.425Z" fill="url(#paint16_linear_207_1725)"/>
<path d="M380.868 360.426C381.741 351.091 384.514 344.114 386.672 339.773C389.719 333.661 395.161 322.702 406.353 319.072C411.623 317.364 420.218 316.614 422.743 320.583C426.09 325.84 417.09 336.701 414.613 339.692C409.917 345.358 399.97 355.079 380.868 360.426Z" fill="url(#paint17_linear_207_1725)"/>
<path d="M386.561 311.226C388.506 308.193 396.588 294.852 392.655 278.7C391.938 275.757 388.532 261.78 376.147 255.886C374.207 254.963 364.374 250.589 359.724 254.714C352.579 261.054 363.257 282.497 364.603 285.205C370.875 297.806 379.791 306.132 386.561 311.226Z" fill="url(#paint18_linear_207_1725)"/>
<path d="M393.065 312.859C394.164 307.267 397.009 297.301 405.301 288.841C415.781 278.145 433.283 271.57 438.192 276.675C442.136 280.775 437.782 292.212 432.501 299.036C419.972 315.222 396.224 313.179 393.065 312.859Z" fill="url(#paint19_linear_207_1725)"/>
<path d="M409.327 263.26C405.468 256.469 399.773 244.113 399.978 228.297C400.135 215.972 403.962 194.697 413.295 193.165C421.159 191.876 430.471 204.995 433.72 215.692C438.004 229.786 434.149 247.533 421.931 257.161C417.386 260.742 412.677 262.418 409.327 263.26Z" fill="url(#paint20_linear_207_1725)"/>
<path d="M417.264 217.827C417.662 220.444 417.942 223.073 418.105 225.714C418.284 228.351 418.314 230.995 418.23 233.631C418.067 238.901 417.37 244.141 416.149 249.27L415.925 250.229L415.67 251.179L415.133 253.078C414.731 254.332 414.365 255.587 413.899 256.815C413.475 258.057 412.964 259.269 412.478 260.488C411.94 261.69 411.433 262.898 410.849 264.072C408.587 268.826 405.864 273.379 403.17 277.982C401.822 280.278 400.481 282.605 399.169 284.926C397.857 287.247 396.54 289.568 395.26 291.916C392.688 296.6 390.182 301.336 387.862 306.175C383.202 315.839 379.361 326.016 377.303 336.658L376.944 338.658C376.828 339.325 376.692 339.988 376.616 340.662L376.351 342.677L376.218 343.684C376.168 344.019 376.131 344.355 376.113 344.693L375.813 348.748L375.738 349.761L375.724 350.777L375.699 352.811L375.674 354.844C375.663 355.522 375.724 356.197 375.745 356.873L375.837 358.902L375.883 359.917C375.896 360.255 375.916 360.592 375.957 360.929L376.364 364.968C376.416 365.644 376.552 366.307 376.643 366.977L376.952 368.983C378.763 379.653 382.201 389.982 387.145 399.609C388.4 402 389.692 404.371 391.144 406.646C391.872 407.781 392.578 408.926 393.327 410.052L395.658 413.357C398.856 417.696 402.384 421.782 406.21 425.58C413.878 433.142 422.678 439.461 432.294 444.311C432.435 444.372 432.594 444.378 432.739 444.327C432.884 444.276 433.004 444.172 433.076 444.036C433.148 443.9 433.165 443.742 433.125 443.593C433.085 443.445 432.99 443.317 432.86 443.235C430.533 441.966 428.263 440.606 426.049 439.156C424.927 438.451 423.846 437.688 422.752 436.946C422.215 436.569 421.677 436.171 421.139 435.786C420.601 435.4 420.064 435.019 419.546 434.605C415.341 431.404 411.383 427.893 407.705 424.099C404.021 420.325 400.633 416.272 397.57 411.979L395.342 408.716C394.636 407.605 393.958 406.476 393.265 405.357C391.885 403.117 390.659 400.785 389.476 398.435C387.147 393.712 385.155 388.831 383.514 383.828C381.889 378.828 380.649 373.711 379.803 368.522L379.511 366.576C379.422 365.925 379.291 365.28 379.244 364.625L378.859 360.709C378.821 360.383 378.801 360.055 378.792 359.727L378.749 358.744L378.665 356.773C378.647 356.117 378.588 355.462 378.602 354.801L378.633 352.829C378.675 347.584 379.197 342.353 380.191 337.203C381.194 332.04 382.583 326.959 384.347 322.005C386.123 317.031 388.147 312.149 390.411 307.378C392.664 302.589 395.111 297.878 397.636 293.2C400.162 288.522 402.7 283.836 405.344 279.219C407.988 274.601 410.662 269.936 412.917 265.028C413.496 263.809 414.009 262.558 414.53 261.314C415.013 260.059 415.52 258.804 415.941 257.51C416.402 256.238 416.762 254.933 417.158 253.639L417.664 251.667L417.909 250.683L418.117 249.692C420.388 239.116 420.437 228.145 418.458 217.596C418.431 217.436 418.342 217.294 418.21 217.2C418.078 217.107 417.914 217.069 417.755 217.096C417.595 217.123 417.453 217.212 417.359 217.344C417.266 217.475 417.228 217.639 417.255 217.799L417.264 217.827Z" fill="url(#paint21_linear_207_1725)"/>
<path d="M388.47 271.264L445.952 244.397L464.165 187.078L472.468 191.365V243.578L518.249 241.909L526.553 242.963V271.423H518.249L472.468 272.226V440.864L464.165 446.7L445.952 272.619L396.772 273.348L388.47 271.264Z" fill="url(#paint22_linear_207_1725)"/>
<path d="M388.47 245.915L437.647 244.397V188.802L464.165 187.078V243.578L518.249 241.909V269.339L464.165 270.14V446.7L437.647 444.266V270.534L388.47 271.264V245.915Z" fill="url(#paint23_linear_207_1725)"/>
<g style="mix-blend-mode:soft-light" opacity="0.5">
<path d="M452.953 330.214C448.056 314.788 435.968 287.691 445.246 257.261C450.109 241.308 457.646 234.93 460.073 218.712C461.701 207.832 460.286 197.481 457.366 188.108L464.167 187.667V244.17L518.252 242.502V269.926L464.167 270.727V447.284L445.689 445.588C463.613 390.453 460.579 354.234 452.953 330.214Z" fill="white"/>
</g>
<path d="M363.951 333.853C363.951 333.853 366.349 330.166 367.835 327.455C369.321 324.745 376.718 316.815 376.718 316.815C376.718 316.815 377.446 317.891 375.879 319.863C374.313 321.834 370.952 325.31 371.924 326.543C372.895 327.776 375.381 328.694 373.91 331.35C372.438 334.007 369.296 332.605 367.968 334.735C366.639 336.864 365.291 339.198 365.291 339.198L363.951 333.853Z" fill="url(#paint24_linear_207_1725)"/>
<path d="M362.666 331.725C364.782 334.334 366.898 336.942 369.013 339.547C367.136 347.492 364.136 355.128 360.104 362.227C357.901 366.099 351.015 377.498 338.432 387.355C321.303 400.77 289.089 414.871 278.139 403.444C268.37 393.247 280.009 367.393 282.163 362.745C290.339 365.653 298.982 367.025 307.657 366.792C311.301 366.69 320.778 366.344 331.074 362.048C350.128 354.094 359.545 337.801 362.666 331.725Z" fill="url(#paint25_linear_207_1725)"/>
<path d="M274.514 456.801C264.439 466.284 238.646 462.562 220.605 458.772C217.36 458.102 214.363 457.415 211.759 456.801C194.652 452.805 207.828 369.705 208.586 361.428C208.875 358.239 211.352 357.033 215.81 356.649C222.937 356.041 235.115 357.536 251.503 356.386C278.142 354.523 282.333 364.862 282.333 364.862C283.864 368.802 286.397 445.614 274.514 456.801Z" fill="url(#paint26_linear_207_1725)"/>
<path style="mix-blend-mode:multiply" opacity="0.5" d="M224.337 380.356C223.888 395.489 224.967 445.96 220.605 458.765C217.36 458.094 214.363 457.408 211.759 456.793C194.652 452.798 207.828 369.698 208.586 361.42C208.875 358.232 211.352 357.025 215.81 356.642C216.392 357.273 216.931 357.944 217.423 358.647C226.733 371.838 224.871 362.514 224.337 380.356Z" fill="url(#paint27_linear_207_1725)"/>
<path d="M281.444 628.684C281.444 628.684 280.632 633.651 280.727 635.418C280.822 637.186 300.444 638.089 300.643 636.764C300.842 635.44 297.401 633.335 294.979 632.592C292.558 631.848 285.479 629.865 285.479 629.865L281.444 628.684Z" fill="url(#paint28_linear_207_1725)"/>
<path d="M286.205 623.733L285.579 629.908C285.579 629.908 283.301 631.414 281.294 630.252L280.288 623.529L286.205 623.733Z" fill="url(#paint29_linear_207_1725)"/>
<path d="M246.447 636.736C246.447 636.736 245.636 641.701 245.73 643.47C245.823 645.239 265.447 646.141 265.646 644.816C265.845 643.492 262.416 641.396 259.992 640.643C257.569 639.891 250.492 637.917 250.492 637.917L246.447 636.736Z" fill="url(#paint30_linear_207_1725)"/>
<path d="M251.209 631.783L250.582 637.96C250.582 637.96 248.304 639.465 246.296 638.302L245.292 631.581L251.209 631.783Z" fill="url(#paint31_linear_207_1725)"/>
<path d="M282.645 462.509L289.456 476.299C291.279 502.531 292.186 531.055 291.607 561.559C291.173 584.255 289.962 605.753 288.219 625.935L278.997 625.511C274.552 616.689 269.304 603.323 268.822 586.825C268.318 569.617 273.536 567.328 273.204 550.85C272.776 529.493 263.819 523.795 259.044 498.106C257.219 488.28 255.997 475.447 257.452 459.88L282.645 462.509Z" fill="url(#paint32_linear_207_1725)"/>
<path style="mix-blend-mode:multiply" opacity="0.3" d="M257.443 459.882L271.053 461.301C279.222 475.514 281.502 490.307 280.068 496.851C278.04 506.107 272.677 509.074 272.971 518.361C273.264 527.558 278.682 529.943 282.113 540.782C284.493 548.287 283.866 555.188 282.511 568.684C279.784 595.866 273.221 604.174 278.72 613.09C280.281 615.623 283.097 618.647 288.612 620.941C288.476 622.608 288.343 624.28 288.202 625.929L278.98 625.506C274.534 616.684 269.286 603.318 268.804 586.82C268.3 569.612 273.518 567.323 273.186 550.845C272.758 529.488 263.801 523.79 259.026 498.101C257.218 488.283 255.983 475.451 257.443 459.882Z" fill="url(#paint33_linear_207_1725)"/>
<path d="M270.448 470.785C266.192 493.994 262.432 518.823 259.499 545.172C255.958 576.979 254.068 606.963 253.324 634.803L243.202 635.09C229.906 608.788 229.094 590.955 231.014 579.345C231.752 574.864 233.758 566.099 234.217 552.996C234.536 543.854 233.953 536.901 233.224 528.541C231.629 510.208 229.689 506.207 229.411 492.185C229.15 479.025 229.096 472.366 232.853 468.48C242.747 458.234 268.494 469.88 270.448 470.785Z" fill="url(#paint34_linear_207_1725)"/>
<path d="M292.03 481.006C295.257 475.643 291.202 470.47 290.277 460.307C289.231 448.788 293.667 446.863 298.055 427.783C300.973 415.087 303.775 402.9 300.432 388.634C298.829 381.797 296.112 370.2 286.513 364.599C281.561 361.709 274.8 361.998 261.476 362.695C245.002 363.555 236.766 363.986 230.623 367.221C229.727 367.694 211.035 377.861 209.748 394.43C208.438 411.296 226.805 413.561 229.253 436.051C230.354 446.148 228.393 461.683 227.122 471.746C225.902 481.416 225.063 483.893 226.97 486.821C231.569 493.877 245.651 491.866 273.816 487.844C284.862 486.267 289.618 485.01 292.03 481.006Z" fill="url(#paint35_linear_207_1725)"/>
<path style="mix-blend-mode:multiply" opacity="0.3" d="M249.178 432.434C247.988 436.816 243.704 440.091 240.723 450.753C240.08 453.056 235.495 469.448 241.44 473.483C244.876 475.813 247.959 471.398 256.296 470.821C270.741 469.823 277.626 481.963 287.06 478.649C288.698 478.071 290.86 476.845 293.018 474.028C293.446 476.568 293.376 478.772 292.028 481.006C289.616 485.01 284.859 486.267 273.814 487.844C245.649 491.866 231.567 493.877 226.968 486.82C225.061 483.893 225.892 481.416 227.12 471.746C228.391 461.676 230.347 446.148 229.251 436.051C226.803 413.561 208.436 411.295 209.746 394.43C210.096 389.922 211.754 385.907 213.973 382.421C237.273 391.842 252.915 418.659 249.178 432.434Z" fill="url(#paint36_linear_207_1725)"/>
<path d="M219.755 465.609L224.416 468.584C225.253 467.618 227.19 465.668 230.216 464.999C233.622 464.25 237.538 465.324 237.63 466.412C237.701 467.283 235.319 468.163 234.952 468.299C231.978 469.396 229.77 468.478 228.569 469.679C228.142 470.102 227.613 470.889 226.395 471.617C226.127 471.78 225.849 471.924 225.561 472.047C223.577 472.82 220.171 469.358 219.879 469.061L219.755 465.609Z" fill="url(#paint37_linear_207_1725)"/>
<path d="M233.523 404.47C236.895 396.393 239.232 384.036 233.905 365.663C198.811 379.492 180.911 412.267 187.9 438.257C193.661 459.681 214.622 470.117 219.297 472.314L222.561 464.886C217.142 458.853 211.037 449.932 211.901 439.751C213.097 425.637 226.696 420.82 233.523 404.47Z" fill="url(#paint38_linear_207_1725)"/>
<path d="M260.623 346.079C260.623 346.079 260.345 352.218 258.44 356.815C256.717 360.97 247.66 363.584 245.824 364.51C243.989 365.437 249.264 368.149 254.563 368.681C259.861 369.214 274.997 368.011 277.719 366.004C280.442 363.996 275.527 364.145 271.745 362.757C267.963 361.37 265.778 353.974 266.445 350.615C267.112 347.256 260.623 346.079 260.623 346.079Z" fill="url(#paint39_linear_207_1725)"/>
<path d="M268.994 343.849C271.743 341.148 272.127 340.832 272.426 339.906C273.629 336.158 270.722 331.026 266.909 329.762C266.712 329.696 264.154 328.879 263.179 329.988C262.349 330.929 263.57 332.23 262.989 334.046C262.451 335.745 260.972 335.873 258.242 338.101C255.993 339.936 254.595 341.078 254.272 342.684C253.607 345.993 257.613 350.788 261.159 350.659C262.435 350.608 262.774 349.958 268.994 343.849Z" fill="url(#paint40_linear_207_1725)"/>
<path d="M261.507 351.168C261.507 351.168 264.429 354.476 268.881 353.383C272.868 352.403 271.849 343.254 268.933 341.793C267.96 341.305 266.192 341.347 264.862 341.987C264.076 342.365 263.859 342.759 262.563 343.352C261.367 343.89 260.989 343.824 260.668 344.209C260.267 344.691 260.093 345.729 261.353 348.231C260.444 347.59 259.469 347.455 258.868 347.873C258.667 348.035 258.513 348.249 258.424 348.491C258.044 349.631 259.222 350.784 261.507 351.168Z" fill="url(#paint41_linear_207_1725)"/>
<path d="M227.801 360.383C227.801 360.383 248.309 353.191 249.908 371.837C251.507 390.482 239.002 434.189 224.057 436.481C219.726 428.492 221.94 424.293 226.733 419.369C231.526 414.445 247.509 370.533 227.809 366.923L225.274 368.268C225.274 368.268 221.942 363.946 227.801 360.383Z" fill="url(#paint42_linear_207_1725)"/>
<path d="M278.501 362.453C278.501 362.453 311.64 379.705 298.815 423.547C298.815 423.547 312.975 398.99 302.746 376.888C292.516 354.785 282.027 357.511 278.501 362.453Z" fill="url(#paint43_linear_207_1725)"/>
<path d="M250.885 383.41C250.791 383.674 250.6 383.891 250.351 384.018C250.102 384.146 249.814 384.173 249.546 384.095C245.678 383.038 241.597 383.038 237.728 384.095C237.46 384.173 237.172 384.145 236.923 384.018C236.673 383.891 236.482 383.674 236.388 383.41V383.41C236.208 382.873 236.567 382.263 237.18 382.089C241.404 380.936 245.861 380.936 250.085 382.089C250.707 382.269 251.059 382.866 250.878 383.41H250.885Z" fill="white"/>
<path d="M305.953 384.179C305.838 384.717 305.458 385.016 305.103 384.862C303.92 384.34 302.642 384.07 301.349 384.07C300.056 384.07 298.777 384.34 297.594 384.862C297.236 385.014 296.858 384.726 296.743 384.179C296.627 383.641 296.852 383.03 297.247 382.858C298.539 382.287 299.936 381.992 301.349 381.992C302.761 381.992 304.159 382.287 305.451 382.858C305.845 383.037 306.069 383.634 305.953 384.179V384.179Z" fill="white"/>
<path d="M195.161 455.802C188.219 462.337 170.448 459.772 158.018 457.157C155.783 456.695 153.716 456.221 151.923 455.802C140.136 453.051 149.215 395.796 149.737 390.092C149.936 387.895 151.642 387.065 154.714 386.8C159.624 386.382 168.014 387.411 179.305 386.62C197.66 385.337 200.551 392.462 200.551 392.462C201.601 395.174 203.347 448.094 195.161 455.802Z" fill="url(#paint44_linear_207_1725)"/>
<path style="mix-blend-mode:multiply" opacity="0.5" d="M160.588 403.134C160.28 413.561 161.024 448.331 158.018 457.157C155.783 456.695 153.716 456.221 151.923 455.802C140.136 453.051 149.215 395.796 149.737 390.093C149.936 387.895 151.642 387.065 154.714 386.8C155.113 387.235 155.483 387.697 155.82 388.182C162.239 397.264 160.963 390.842 160.588 403.134Z" fill="url(#paint45_linear_207_1725)"/>
<path d="M193.155 356.893C193.155 356.893 205.702 362.057 202.194 371.281C198.686 380.505 203.209 385.902 199.147 387.4C195.085 388.899 173.321 392.866 173.694 387.884C174.067 382.903 178.767 381.376 178.858 376.744C178.95 372.112 183.838 353.941 193.155 356.893Z" fill="url(#paint46_linear_207_1725)"/>
<path d="M206.686 388.287C210.312 384.986 223.247 391.351 231.818 399.797C241.888 409.722 241.114 417.766 249.902 430.089C254.272 436.219 253.201 458.901 241.447 451.228C233.283 445.897 229.079 438.833 221.013 424.922C212.917 410.967 202.157 392.424 206.686 388.287Z" fill="url(#paint47_linear_207_1725)"/>
<path d="M186.148 648.724C186.148 648.724 185.693 652.352 185.998 653.563C186.302 654.775 196.847 655.657 200.425 655.234C204.003 654.811 198.294 651.156 196.014 650.471C193.734 649.787 186.148 648.724 186.148 648.724Z" fill="url(#paint48_linear_207_1725)"/>
<path d="M191.456 642.676L190.345 649.95C190.345 649.95 187.511 651.224 186.149 649.966L185.998 642.35L191.456 642.676Z" fill="url(#paint49_linear_207_1725)"/>
<path d="M132.022 642.35C132.022 642.35 134.259 644.011 133.662 645.999C133.065 647.987 127.846 655.952 124.126 658.213C120.407 660.473 121.572 655.764 122.655 652.835C123.737 649.907 126.503 643.439 127.584 642.355C128.665 641.271 132.022 642.35 132.022 642.35Z" fill="url(#paint50_linear_207_1725)"/>
<path d="M136.047 634.357C134.972 637.372 133.925 639.851 133.111 641.677C131.319 645.721 130.328 647.234 129.215 648.555C128.243 649.7 125.942 652.14 125.323 651.738C124.705 651.337 126.379 648.352 129.625 639.646C130.097 638.392 131.584 634.357 131.584 634.357H136.047Z" fill="url(#paint51_linear_207_1725)"/>
<path d="M213.534 508.407C214.671 519.574 214.807 530.822 213.939 542.013C212.505 560.608 208.778 572.374 204.116 592.202C201.266 604.319 197.427 622.152 193.951 644.454C193.147 644.916 190.773 646.13 187.721 645.676C186.386 645.474 185.109 644.99 183.976 644.255C174.86 616.397 177.552 599.132 181.953 588.377C183.828 583.792 186.1 580.175 187.316 573.127C188.929 563.806 186.936 558.592 184.1 536.993C182.08 521.599 182.429 519.219 183.774 516.917C189.149 507.679 205.595 507.858 213.534 508.407Z" fill="url(#paint52_linear_207_1725)"/>
<path d="M182.155 511.646C176.57 540.488 171.089 555.638 166.939 564.206C163.95 570.253 161.39 576.503 159.276 582.909C156.421 591.561 155.231 597.924 154.616 600.726C152.689 609.566 147.932 622.475 135.127 639.407C134.967 639.5 132.784 640.735 130.696 639.634C129.922 639.212 129.296 638.563 128.903 637.774C130.577 621.586 132.499 607.983 134.168 597.487C134.526 595.284 136.059 585.656 138.47 572.93C139.416 567.949 140.8 560.652 142.463 553.156C144.53 543.821 147.701 531.121 152.585 515.905L182.155 511.646Z" fill="url(#paint53_linear_207_1725)"/>
<path style="mix-blend-mode:multiply" opacity="0.3" d="M181.952 588.375C183.827 583.79 186.1 580.173 187.315 573.125C188.928 563.805 186.935 558.59 184.099 536.991C182.079 521.598 182.429 519.217 183.773 516.916C186.695 511.897 192.886 509.672 199.202 508.764C199.118 509.088 199.034 509.413 198.964 509.726C195.65 524.865 208.301 534.104 202.594 550.743C199.781 558.947 195.291 560.825 194.246 570.343C193.266 579.259 196.82 581.116 196.06 589.218C194.926 601.331 186.322 604.262 184.083 613.538C182.628 619.564 183.854 628.378 194.479 641.142C194.3 642.242 194.121 643.345 193.942 644.465C193.135 644.927 190.764 646.141 187.711 645.687C186.376 645.485 185.099 645.001 183.967 644.266C174.859 616.395 177.551 599.13 181.952 588.375Z" fill="url(#paint54_linear_207_1725)"/>
<path d="M103.808 601.163C104.758 602.173 105.837 603.053 107.017 603.781C119.524 611.668 147.971 609.589 171.939 600.403C176.27 598.741 179.745 597.855 182.624 597.479C182.624 597.479 198.858 605.545 214.501 597.207C236.152 585.643 219.807 500.88 217.763 479.606C215.72 458.331 219.298 448.894 219.298 448.894C240.336 403.394 221.535 391.862 221.535 391.862C194.8 376.565 171.884 388.069 160.258 396.644C157.85 398.422 156.123 400.97 155.362 403.864C154.601 406.759 154.852 409.827 156.074 412.559C158.487 417.947 162.012 425.825 166.65 436.194C176.361 457.94 157.921 478.152 143.656 486.093C129.392 494.033 137.997 526.602 123.238 536.934C108.479 547.265 118.567 566.701 111.431 580.508C104.296 594.315 93.7202 590.311 103.808 601.163Z" fill="url(#paint55_linear_207_1725)"/>
<path d="M209.733 427.687C209.733 427.687 184.144 394.274 169.599 390.617C173.237 389.086 177.011 387.901 180.871 387.079C192.429 384.629 201.761 385.966 207.747 387.233C209.119 391.636 214.501 410.265 209.733 427.687Z" fill="url(#paint56_linear_207_1725)"/>
<path d="M187.384 370.686C187.384 370.686 186.034 381.474 182.051 383.95C178.068 386.425 171.632 389.65 170.922 390.526C170.212 391.403 195.591 394.131 208.169 387.784C204.025 386.92 202.897 386.603 202.897 386.603C201.772 386.283 199.671 385.692 197.57 384.495C196.136 383.679 193.831 382.086 191.714 379.078L191.761 373.104L187.384 370.686Z" fill="url(#paint57_linear_207_1725)"/>
<path d="M181.726 370.924C182.011 370.284 183.147 369.945 184.438 370.32C182.646 365.98 185.768 362.108 186.935 361.381C188.595 360.345 191.077 360.126 192.429 360.624C196.483 362.13 199.532 375.322 194.422 377.192C188.717 379.273 185.076 374.279 185.076 374.279C184.181 374.139 183.352 373.723 182.705 373.089C182.459 372.84 181.364 371.736 181.726 370.924Z" fill="url(#paint58_linear_207_1725)"/>
<path style="mix-blend-mode:multiply" opacity="0.3" d="M103.809 601.163C104.759 602.173 105.837 603.053 107.017 603.781C116.722 599.384 123.879 580.361 133.761 562.768C146.747 539.646 134.064 529.319 154.231 520.183C174.397 511.047 183.747 505.211 177.891 494.386C172.035 483.562 176.12 458.48 189.542 457.49C202.964 456.501 212.756 446.178 211.655 436.092C210.555 426.006 188.162 429.207 185.948 420.102C183.734 410.996 167.434 396.791 167.434 396.791C164.638 393.765 160.57 396.303 155.826 402.406C155.183 404.028 154.872 405.763 154.913 407.507C154.954 409.251 155.345 410.969 156.062 412.559C158.475 417.947 162 425.825 166.638 436.194C176.349 457.94 157.909 478.152 143.644 486.092C129.38 494.033 137.986 526.602 123.226 536.934C108.467 547.265 118.555 566.701 111.42 580.508C104.284 594.315 93.7209 590.311 103.809 601.163Z" fill="url(#paint59_linear_207_1725)"/>
<path d="M193.585 359.967C193.833 360.146 185.736 371.035 183.906 370.205C182.076 369.375 182.694 365.109 182.694 365.109C182.694 365.109 186.575 354.801 193.585 359.967Z" fill="url(#paint60_linear_207_1725)"/>
<path d="M211.752 390.811C211.752 390.811 234.584 402.697 225.749 432.904C225.749 432.904 235.506 415.986 228.458 400.756C221.41 385.525 214.183 387.406 211.752 390.811Z" fill="url(#paint61_linear_207_1725)"/>
<path d="M178.58 400.311C186.826 402.894 198.134 395.884 209.203 395.524C216.48 395.28 217.217 393.279 216.066 390.521C215.476 389.087 214.361 387.429 213.388 385.717C211.388 382.189 206.451 382.093 201.432 382.462C201.404 382.462 201.373 382.462 201.352 382.462C201.315 382.459 201.278 382.459 201.241 382.462C203.447 378.366 204.288 371.512 203.913 367.956C203.882 367.536 203.798 367.121 203.662 366.722C202.703 361.417 199.462 355.876 193.589 354.548C165.734 348.248 177.231 375.21 176.241 379.931C175.252 384.652 168.374 388.861 166.286 392.645C164.198 396.429 170.339 397.721 178.58 400.311ZM193.295 359.314C199.271 359.594 200.142 368.635 199.869 373.025C199.755 374.797 199.548 376.563 199.249 378.314C199.19 378.673 198.681 382.189 198.378 382.668C198.366 382.688 198.351 382.705 198.333 382.72C198.33 382.722 198.326 382.722 198.322 382.722C198.319 382.722 198.315 382.722 198.312 382.72C197.279 382.817 196.275 382.899 195.316 382.957C188.808 383.315 186.697 381.799 183.562 375.991C183.154 375.199 182.841 374.362 182.631 373.496C182.631 373.482 182.631 373.475 182.631 373.46C182.472 372.812 182.364 372.153 182.307 371.488C181.791 365.43 186.964 359.009 193.295 359.305V359.314Z" fill="url(#paint62_linear_207_1725)"/>
<path style="mix-blend-mode:multiply" opacity="0.3" d="M187.459 388.748C193.213 388.253 191.25 384.712 197.891 388.748C204.532 392.785 209.447 388.194 214.982 390.313C215.324 390.459 215.695 390.524 216.067 390.505C215.477 389.071 214.362 387.413 213.389 385.701C211.388 382.173 206.452 382.077 201.433 382.446C201.404 382.446 201.374 382.446 201.352 382.446C201.286 382.46 201.241 382.372 201.241 382.372L198.373 382.485H198.345L198.329 382.587C198.329 382.587 198.314 382.65 198.307 382.65C197.275 382.745 196.271 382.855 195.312 382.914C188.804 383.272 186.692 381.768 183.557 375.961C183.149 375.172 182.837 374.337 182.627 373.475V373.475L182.605 373.448C182.605 373.448 181.695 389.234 187.459 388.748Z" fill="url(#paint63_linear_207_1725)"/>
<path d="M165.514 390.521C165.514 390.521 180.63 383.638 181.928 398.766C183.225 413.894 173.075 449.381 160.947 451.238C157.432 444.751 159.228 441.34 163.119 437.347C167.011 433.353 180.883 398.752 164.885 395.821L162.589 396.09C162.589 396.09 160.757 393.412 165.514 390.521Z" fill="url(#paint64_linear_207_1725)"/>
<path d="M182.909 410.089C182.832 410.302 182.677 410.477 182.475 410.58C182.274 410.683 182.041 410.706 181.823 410.645C178.684 409.786 175.371 409.786 172.232 410.645C172.014 410.707 171.78 410.684 171.578 410.581C171.376 410.478 171.221 410.302 171.144 410.089V410.089C171.112 409.976 171.103 409.858 171.119 409.742C171.134 409.625 171.173 409.513 171.234 409.413C171.294 409.312 171.374 409.225 171.469 409.156C171.564 409.087 171.673 409.039 171.787 409.014C175.218 408.076 178.837 408.076 182.268 409.014C182.382 409.039 182.49 409.088 182.585 409.157C182.68 409.225 182.76 409.313 182.82 409.413C182.88 409.514 182.919 409.626 182.934 409.742C182.95 409.858 182.941 409.976 182.909 410.089V410.089Z" fill="white"/>
<path d="M220.282 420.964C222.344 415.922 219.162 410.455 218.951 410.103C218.063 408.635 216.92 407.337 215.575 406.271C215.319 406.121 212.234 404.333 211.388 405.181C210.711 405.862 211.567 408.15 213.596 410.795C214.001 412.445 214.214 414.137 214.229 415.836C214.26 419.745 213.215 421.643 214.408 422.943C215.285 423.896 216.956 424.083 218.135 423.59C219.397 423.061 219.935 421.821 220.282 420.964Z" fill="url(#paint65_linear_207_1725)"/>
<path d="M220.178 420.1L216.505 423.853C216.505 423.853 229.848 444.678 241.447 451.233C253.046 457.788 250.39 447.858 250.519 443.167C250.833 431.83 220.178 420.1 220.178 420.1Z" fill="url(#paint66_linear_207_1725)"/>
<path d="M208.912 424.363L203.037 423.432C198.763 423.334 192.82 423.893 187.301 427.327C181.045 431.217 178.987 436.506 177.252 435.863C174.081 434.685 182.189 417.517 174.384 403.461C173.639 402.12 169.611 394.857 164.346 395.015C157.741 395.194 153.631 406.89 153.312 407.824C146.723 427.182 161.047 454.954 175.049 455.551C176.069 455.594 178.512 455.551 184.191 452.244C189.724 449.009 200.654 441.305 208.912 424.363Z" fill="url(#paint67_linear_207_1725)"/>
<path d="M202.354 422.305C199.811 417.488 202.444 411.729 202.619 411.371C203.36 409.823 204.371 408.42 205.606 407.228C205.846 407.049 208.742 404.973 209.667 405.737C210.408 406.348 209.787 408.705 208.016 411.537C207.774 413.219 207.728 414.923 207.878 416.615C208.237 420.51 209.454 422.297 208.389 423.708C207.61 424.74 205.964 425.09 204.743 424.714C203.433 424.305 202.784 423.12 202.354 422.305Z" fill="url(#paint68_linear_207_1725)"/>
<defs>
<linearGradient id="paint0_linear_207_1725" x1="351.593" y1="561.607" x2="553.834" y2="745.892" gradientUnits="userSpaceOnUse">
<stop stop-color="#FFC444"/>
<stop offset="1" stop-color="#F36F56"/>
</linearGradient>
<linearGradient id="paint1_linear_207_1725" x1="95.208" y1="287.096" x2="453.36" y2="287.096" gradientUnits="userSpaceOnUse">
<stop stop-color="#FFC444"/>
<stop offset="1" stop-color="#F36F56"/>
</linearGradient>
<linearGradient id="paint2_linear_207_1725" x1="266.703" y1="216.768" x2="453.36" y2="216.768" gradientUnits="userSpaceOnUse">
<stop stop-color="#FFC444"/>
<stop offset="1" stop-color="#F36F56"/>
</linearGradient>
<linearGradient id="paint3_linear_207_1725" x1="103.73" y1="560.266" x2="560.335" y2="560.266" gradientUnits="userSpaceOnUse">
<stop stop-color="#FFC444"/>
<stop offset="1" stop-color="#F36F56"/>
</linearGradient>
<linearGradient id="paint4_linear_207_1725" x1="76.2514" y1="405.805" x2="453.36" y2="405.805" gradientUnits="userSpaceOnUse">
<stop stop-color="#FFC444"/>
<stop offset="1" stop-color="#F36F56"/>
</linearGradient>
<linearGradient id="paint5_linear_207_1725" x1="549.647" y1="217.614" x2="495.271" y2="217.614" gradientUnits="userSpaceOnUse">
<stop stop-color="#FF9085"/>
<stop offset="1" stop-color="#FB6FBB"/>
</linearGradient>
<linearGradient id="paint6_linear_207_1725" x1="547.172" y1="238.695" x2="523.999" y2="357.606" gradientUnits="userSpaceOnUse">
<stop stop-color="#FF9085"/>
<stop offset="1" stop-color="#FB6FBB"/>
</linearGradient>
<linearGradient id="paint7_linear_207_1725" x1="522.663" y1="276.575" x2="475.802" y2="276.575" gradientUnits="userSpaceOnUse">
<stop stop-color="#FF9085"/>
<stop offset="1" stop-color="#FB6FBB"/>
</linearGradient>
<linearGradient id="paint8_linear_207_1725" x1="570.145" y1="280.004" x2="546.363" y2="378.182" gradientUnits="userSpaceOnUse">
<stop stop-color="#FF9085"/>
<stop offset="1" stop-color="#FB6FBB"/>
</linearGradient>
<linearGradient id="paint9_linear_207_1725" x1="531.294" y1="316.815" x2="475.9" y2="316.815" gradientUnits="userSpaceOnUse">
<stop stop-color="#FF9085"/>
<stop offset="1" stop-color="#FB6FBB"/>
</linearGradient>
<linearGradient id="paint10_linear_207_1725" x1="581.272" y1="321.664" x2="543.463" y2="418.012" gradientUnits="userSpaceOnUse">
<stop stop-color="#FF9085"/>
<stop offset="1" stop-color="#FB6FBB"/>
</linearGradient>
<linearGradient id="paint11_linear_207_1725" x1="529.719" y1="366.92" x2="487.44" y2="366.92" gradientUnits="userSpaceOnUse">
<stop stop-color="#FF9085"/>
<stop offset="1" stop-color="#FB6FBB"/>
</linearGradient>
<linearGradient id="paint12_linear_207_1725" x1="569.966" y1="425.302" x2="508.12" y2="425.302" gradientUnits="userSpaceOnUse">
<stop stop-color="#FF9085"/>
<stop offset="1" stop-color="#FB6FBB"/>
</linearGradient>
<linearGradient id="paint13_linear_207_1725" x1="502.646" y1="307.338" x2="527.647" y2="519.549" gradientUnits="userSpaceOnUse">
<stop stop-color="#FFC444"/>
<stop offset="1" stop-color="#F36F56"/>
</linearGradient>
<linearGradient id="paint14_linear_207_1725" x1="374.141" y1="273.083" x2="455.415" y2="493.28" gradientUnits="userSpaceOnUse">
<stop stop-color="#AA80F9"/>
<stop offset="1" stop-color="#6165D7"/>
</linearGradient>
<linearGradient id="paint15_linear_207_1725" x1="318.747" y1="293.527" x2="400.022" y2="513.725" gradientUnits="userSpaceOnUse">
<stop stop-color="#AA80F9"/>
<stop offset="1" stop-color="#6165D7"/>
</linearGradient>
<linearGradient id="paint16_linear_207_1725" x1="334.28" y1="287.795" x2="415.554" y2="507.991" gradientUnits="userSpaceOnUse">
<stop stop-color="#AA80F9"/>
<stop offset="1" stop-color="#6165D7"/>
</linearGradient>
<linearGradient id="paint17_linear_207_1725" x1="376.634" y1="272.162" x2="457.908" y2="492.359" gradientUnits="userSpaceOnUse">
<stop stop-color="#AA80F9"/>
<stop offset="1" stop-color="#6165D7"/>
</linearGradient>
<linearGradient id="paint18_linear_207_1725" x1="375.082" y1="272.735" x2="456.355" y2="492.933" gradientUnits="userSpaceOnUse">
<stop stop-color="#AA80F9"/>
<stop offset="1" stop-color="#6165D7"/>
</linearGradient>
<linearGradient id="paint19_linear_207_1725" x1="403.795" y1="262.137" x2="485.069" y2="482.334" gradientUnits="userSpaceOnUse">
<stop stop-color="#AA80F9"/>
<stop offset="1" stop-color="#6165D7"/>
</linearGradient>
<linearGradient id="paint20_linear_207_1725" x1="426.318" y1="253.823" x2="507.593" y2="474.02" gradientUnits="userSpaceOnUse">
<stop stop-color="#AA80F9"/>
<stop offset="1" stop-color="#6165D7"/>
</linearGradient>
<linearGradient id="paint21_linear_207_1725" x1="375.677" y1="330.752" x2="433.186" y2="330.752" gradientUnits="userSpaceOnUse">
<stop stop-color="#FFC444"/>
<stop offset="1" stop-color="#F36F56"/>
</linearGradient>
<linearGradient id="paint22_linear_207_1725" x1="403.851" y1="216.721" x2="664.843" y2="582.109" gradientUnits="userSpaceOnUse">
<stop stop-color="#893976"/>
<stop offset="1" stop-color="#311944"/>
</linearGradient>
<linearGradient id="paint23_linear_207_1725" x1="422.566" y1="196.678" x2="593.189" y2="647.733" gradientUnits="userSpaceOnUse">
<stop stop-color="#FFC444"/>
<stop offset="1" stop-color="#F36F56"/>
</linearGradient>
<linearGradient id="paint24_linear_207_1725" x1="379.14" y1="304.218" x2="360.611" y2="355.902" gradientUnits="userSpaceOnUse">
<stop stop-color="#FFC444"/>
<stop offset="1" stop-color="#F36F56"/>
</linearGradient>
<linearGradient id="paint25_linear_207_1725" x1="334.116" y1="350.567" x2="402.159" y2="278.741" gradientUnits="userSpaceOnUse">
<stop stop-color="#AB316D"/>
<stop offset="1" stop-color="#792D3D"/>
</linearGradient>
<linearGradient id="paint26_linear_207_1725" x1="286.078" y1="375.728" x2="209.156" y2="431.826" gradientUnits="userSpaceOnUse">
<stop stop-color="#311944"/>
<stop offset="1" stop-color="#893976"/>
</linearGradient>
<linearGradient id="paint27_linear_207_1725" x1="239.269" y1="391.118" x2="195.353" y2="423.147" gradientUnits="userSpaceOnUse">
<stop stop-color="#311944"/>
<stop offset="1" stop-color="#893976"/>
</linearGradient>
<linearGradient id="paint28_linear_207_1725" x1="301.712" y1="576.614" x2="283.731" y2="669.86" gradientUnits="userSpaceOnUse">
<stop stop-color="#311944"/>
<stop offset="1" stop-color="#893976"/>
</linearGradient>
<linearGradient id="paint29_linear_207_1725" x1="284.374" y1="642.91" x2="281.545" y2="612.164" gradientUnits="userSpaceOnUse">
<stop stop-color="#FFC444"/>
<stop offset="1" stop-color="#F36F56"/>
</linearGradient>
<linearGradient id="paint30_linear_207_1725" x1="269.363" y1="570.376" x2="251.382" y2="663.621" gradientUnits="userSpaceOnUse">
<stop stop-color="#311944"/>
<stop offset="1" stop-color="#893976"/>
</linearGradient>
<linearGradient id="paint31_linear_207_1725" x1="248.823" y1="646.179" x2="245.994" y2="615.435" gradientUnits="userSpaceOnUse">
<stop stop-color="#FFC444"/>
<stop offset="1" stop-color="#F36F56"/>
</linearGradient>
<linearGradient id="paint32_linear_207_1725" x1="294.198" y1="542.518" x2="261.432" y2="545.14" gradientUnits="userSpaceOnUse">
<stop stop-color="#444B8C"/>
<stop offset="1" stop-color="#26264F"/>
</linearGradient>
<linearGradient id="paint33_linear_207_1725" x1="294.198" y1="542.519" x2="261.432" y2="545.14" gradientUnits="userSpaceOnUse">
<stop stop-color="#444B8C"/>
<stop offset="1" stop-color="#26264F"/>
</linearGradient>
<linearGradient id="paint34_linear_207_1725" x1="276.075" y1="548.678" x2="226.334" y2="552.657" gradientUnits="userSpaceOnUse">
<stop stop-color="#444B8C"/>
<stop offset="1" stop-color="#26264F"/>
</linearGradient>
<linearGradient id="paint35_linear_207_1725" x1="331.701" y1="348.278" x2="399.744" y2="276.455" gradientUnits="userSpaceOnUse">
<stop stop-color="#AB316D"/>
<stop offset="1" stop-color="#792D3D"/>
</linearGradient>
<linearGradient id="paint36_linear_207_1725" x1="176.582" y1="562.58" x2="274.84" y2="394.329" gradientUnits="userSpaceOnUse">
<stop stop-color="#AA80F9"/>
<stop offset="1" stop-color="#6165D7"/>
</linearGradient>
<linearGradient id="paint37_linear_207_1725" x1="237.107" y1="468.77" x2="219.2" y2="470.203" gradientUnits="userSpaceOnUse">
<stop stop-color="#FFC444"/>
<stop offset="1" stop-color="#F36F56"/>
</linearGradient>
<linearGradient id="paint38_linear_207_1725" x1="308.746" y1="326.53" x2="376.789" y2="254.707" gradientUnits="userSpaceOnUse">
<stop stop-color="#AB316D"/>
<stop offset="1" stop-color="#792D3D"/>
</linearGradient>
<linearGradient id="paint39_linear_207_1725" x1="272.335" y1="375.016" x2="252.343" y2="350.264" gradientUnits="userSpaceOnUse">
<stop stop-color="#FFC444"/>
<stop offset="1" stop-color="#F36F56"/>
</linearGradient>
<linearGradient id="paint40_linear_207_1725" x1="255.103" y1="367.393" x2="265.679" y2="332.619" gradientUnits="userSpaceOnUse">
<stop stop-color="#444B8C"/>
<stop offset="1" stop-color="#3E4177"/>
</linearGradient>
<linearGradient id="paint41_linear_207_1725" x1="284.07" y1="353.751" x2="254.322" y2="340.595" gradientUnits="userSpaceOnUse">
<stop stop-color="#FFC444"/>
<stop offset="1" stop-color="#F36F56"/>
</linearGradient>
<linearGradient id="paint42_linear_207_1725" x1="255.099" y1="377.809" x2="213.11" y2="408.431" gradientUnits="userSpaceOnUse">
<stop stop-color="#444B8C"/>
<stop offset="1" stop-color="#26264F"/>
</linearGradient>
<linearGradient id="paint43_linear_207_1725" x1="305.606" y1="380.381" x2="283.841" y2="396.255" gradientUnits="userSpaceOnUse">
<stop stop-color="#444B8C"/>
<stop offset="1" stop-color="#26264F"/>
</linearGradient>
<linearGradient id="paint44_linear_207_1725" x1="203.127" y1="399.946" x2="150.129" y2="438.596" gradientUnits="userSpaceOnUse">
<stop stop-color="#444B8C"/>
<stop offset="1" stop-color="#26264F"/>
</linearGradient>
<linearGradient id="paint45_linear_207_1725" x1="170.877" y1="410.55" x2="140.618" y2="432.617" gradientUnits="userSpaceOnUse">
<stop stop-color="#444B8C"/>
<stop offset="1" stop-color="#26264F"/>
</linearGradient>
<linearGradient id="paint46_linear_207_1725" x1="193.017" y1="351.492" x2="187.706" y2="383.977" gradientUnits="userSpaceOnUse">
<stop stop-color="#444B8C"/>
<stop offset="1" stop-color="#26264F"/>
</linearGradient>
<linearGradient id="paint47_linear_207_1725" x1="227.948" y1="399.659" x2="231.426" y2="455.533" gradientUnits="userSpaceOnUse">
<stop stop-color="#AA80F9"/>
<stop offset="1" stop-color="#6165D7"/>
</linearGradient>
<linearGradient id="paint48_linear_207_1725" x1="195.275" y1="625.4" x2="191.631" y2="690.996" gradientUnits="userSpaceOnUse">
<stop stop-color="#444B8C"/>
<stop offset="1" stop-color="#26264F"/>
</linearGradient>
<linearGradient id="paint49_linear_207_1725" x1="188.393" y1="657.727" x2="190.331" y2="569.158" gradientUnits="userSpaceOnUse">
<stop stop-color="#AB316D"/>
<stop offset="1" stop-color="#792D3D"/>
</linearGradient>
<linearGradient id="paint50_linear_207_1725" x1="129.317" y1="621.736" x2="125.673" y2="687.331" gradientUnits="userSpaceOnUse">
<stop stop-color="#444B8C"/>
<stop offset="1" stop-color="#26264F"/>
</linearGradient>
<linearGradient id="paint51_linear_207_1725" x1="130.321" y1="656.456" x2="132.256" y2="567.891" gradientUnits="userSpaceOnUse">
<stop stop-color="#AB316D"/>
<stop offset="1" stop-color="#792D3D"/>
</linearGradient>
<linearGradient id="paint52_linear_207_1725" x1="216.513" y1="600.162" x2="179.732" y2="550.796" gradientUnits="userSpaceOnUse">
<stop stop-color="#444B8C"/>
<stop offset="1" stop-color="#26264F"/>
</linearGradient>
<linearGradient id="paint53_linear_207_1725" x1="189.189" y1="606.289" x2="103.044" y2="525.95" gradientUnits="userSpaceOnUse">
<stop stop-color="#444B8C"/>
<stop offset="1" stop-color="#26264F"/>
</linearGradient>
<linearGradient id="paint54_linear_207_1725" x1="211.82" y1="603.658" x2="175.038" y2="554.294" gradientUnits="userSpaceOnUse">
<stop stop-color="#444B8C"/>
<stop offset="1" stop-color="#26264F"/>
</linearGradient>
<linearGradient id="paint55_linear_207_1725" x1="229.265" y1="496.517" x2="99.6568" y2="496.517" gradientUnits="userSpaceOnUse">
<stop stop-color="#AA80F9"/>
<stop offset="1" stop-color="#6165D7"/>
</linearGradient>
<linearGradient id="paint56_linear_207_1725" x1="191.882" y1="396.457" x2="156.628" y2="612.046" gradientUnits="userSpaceOnUse">
<stop stop-color="#AA80F9"/>
<stop offset="1" stop-color="#6165D7"/>
</linearGradient>
<linearGradient id="paint57_linear_207_1725" x1="190.908" y1="391.168" x2="165.125" y2="353.741" gradientUnits="userSpaceOnUse">
<stop stop-color="#AB316D"/>
<stop offset="1" stop-color="#792D3D"/>
</linearGradient>
<linearGradient id="paint58_linear_207_1725" x1="194.142" y1="371.024" x2="137.02" y2="336.636" gradientUnits="userSpaceOnUse">
<stop stop-color="#AB316D"/>
<stop offset="1" stop-color="#792D3D"/>
</linearGradient>
<linearGradient id="paint59_linear_207_1725" x1="160.624" y1="437.252" x2="149.742" y2="612.163" gradientUnits="userSpaceOnUse">
<stop stop-color="#AA80F9"/>
<stop offset="1" stop-color="#6165D7"/>
</linearGradient>
<linearGradient id="paint60_linear_207_1725" x1="189.138" y1="356.477" x2="187.26" y2="367.972" gradientUnits="userSpaceOnUse">
<stop stop-color="#444B8C"/>
<stop offset="1" stop-color="#26264F"/>
</linearGradient>
<linearGradient id="paint61_linear_207_1725" x1="230.429" y1="403.165" x2="215.432" y2="414.102" gradientUnits="userSpaceOnUse">
<stop stop-color="#444B8C"/>
<stop offset="1" stop-color="#26264F"/>
</linearGradient>
<linearGradient id="paint62_linear_207_1725" x1="184.664" y1="392.238" x2="192.527" y2="381.098" gradientUnits="userSpaceOnUse">
<stop stop-color="#FF9085"/>
<stop offset="1" stop-color="#FB6FBB"/>
</linearGradient>
<linearGradient id="paint63_linear_207_1725" x1="194.667" y1="388.598" x2="197.594" y2="384.452" gradientUnits="userSpaceOnUse">
<stop stop-color="#FF9085"/>
<stop offset="1" stop-color="#FB6FBB"/>
</linearGradient>
<linearGradient id="paint64_linear_207_1725" x1="186.699" y1="404.287" x2="152.578" y2="429.17" gradientUnits="userSpaceOnUse">
<stop stop-color="#444B8C"/>
<stop offset="1" stop-color="#26264F"/>
</linearGradient>
<linearGradient id="paint65_linear_207_1725" x1="207.01" y1="409.185" x2="190.89" y2="430.17" gradientUnits="userSpaceOnUse">
<stop stop-color="#AB316D"/>
<stop offset="1" stop-color="#792D3D"/>
</linearGradient>
<linearGradient id="paint66_linear_207_1725" x1="233.073" y1="426.239" x2="234.871" y2="455.146" gradientUnits="userSpaceOnUse">
<stop stop-color="#AA80F9"/>
<stop offset="1" stop-color="#6165D7"/>
</linearGradient>
<linearGradient id="paint67_linear_207_1725" x1="188.937" y1="427.11" x2="232.273" y2="431.255" gradientUnits="userSpaceOnUse">
<stop stop-color="#AA80F9"/>
<stop offset="1" stop-color="#6165D7"/>
</linearGradient>
<linearGradient id="paint68_linear_207_1725" x1="202.415" y1="410.463" x2="220.608" y2="429.863" gradientUnits="userSpaceOnUse">
<stop stop-color="#AB316D"/>
<stop offset="1" stop-color="#792D3D"/>
</linearGradient>
</defs>
</svg>
