<svg width="806" height="980" viewBox="0 0 806 980" fill="none" xmlns="http://www.w3.org/2000/svg">
<path d="M166.632 523.759C166.632 523.759 188.998 520.071 198.022 528.312C207.046 536.554 233.688 508.99 233.688 508.99C233.688 508.99 238.309 509.687 246.702 517.089C255.094 524.49 272.477 499.253 272.477 499.253C278.163 500.144 283.483 502.612 287.831 506.377C294.809 512.569 426.723 366.996 426.723 366.996C426.723 366.996 438.44 334.425 460.343 342.633L431.403 315.506C431.403 315.506 417.261 310.944 413.179 312.986C409.096 315.027 393.818 317.598 368.893 342.238C343.968 366.878 309.902 414.428 256.264 446.881C233.629 460.583 179.091 490.373 166.632 523.759Z" fill="url(#paint0_linear_258_2)"/>
<path d="M500.841 280.08C487.709 286.431 457.709 305.602 457.709 305.602C423.567 348.539 469.09 346.128 469.09 346.128C469.09 346.128 511.666 300.276 513.552 298.654C514.163 298.189 514.831 297.802 515.538 297.503C512.536 290.225 510.279 282.662 508.804 274.93C506.346 276.931 503.676 278.658 500.841 280.08V280.08Z" fill="#0071B9" stroke="#0071B9" stroke-width="0.68" stroke-miterlimit="10"/>
<path d="M576.407 238.604C578.71 242.637 580.412 246.984 581.457 251.508C584.235 250.256 586.55 249.962 588.646 250.592C593.823 252.163 601.02 250.357 601.02 250.357L601.601 246.576L610.726 245.106L617.654 239.167L604.817 224.188L576.407 238.604Z" fill="#F7C7AC" stroke="#F09662" stroke-width="0.68" stroke-miterlimit="10"/>
<path d="M514.41 294.646C514.772 295.604 515.143 296.553 515.538 297.502C518.678 296.032 524.461 294.335 530.766 293.235C538.847 291.815 553.67 274.08 565.379 263.545C566.39 262.638 567.358 261.79 568.284 260.975C567.286 261.164 566.354 261.604 565.573 262.252C549.613 274.677 533.123 286.463 514.41 294.646Z" fill="white" stroke="#D2D4D4" stroke-width="0.68" stroke-miterlimit="10"/>
<path d="M578.452 242.535C577.85 241.188 577.173 239.875 576.423 238.604L575.11 239.267C575.11 239.267 560.329 240.519 541.397 249.668C526.54 256.842 518.114 267.57 508.829 274.93C509.3 277.45 509.864 279.895 510.513 282.339C530.673 264.958 551.305 247.021 578.452 242.535Z" fill="#871717" stroke="#5F1717" stroke-width="0.68" stroke-miterlimit="10"/>
<path d="M510.496 282.339C511.287 285.409 512.213 288.427 513.274 291.396C534.318 274.594 554.849 255.591 580.405 247.517C579.864 245.801 579.223 244.118 578.486 242.477C551.305 247.022 530.673 264.958 510.496 282.339Z" fill="white" stroke="#D2D4D4" stroke-width="0.68" stroke-miterlimit="10"/>
<path d="M514.41 294.647C533.123 286.464 549.613 274.677 565.573 262.252C566.354 261.604 567.286 261.165 568.284 260.975C573.789 256.195 578.023 253.087 581.508 251.507C581.171 250.172 580.792 248.844 580.372 247.542C554.815 255.615 534.318 274.644 513.274 291.395C513.611 292.504 513.998 293.58 514.41 294.647Z" fill="#871717" stroke="#5F1717" stroke-width="0.68" stroke-miterlimit="10"/>
<path d="M517.777 266.714L504.856 277.82C504.856 277.82 506.287 287.683 508.375 304.065C508.375 304.065 518.518 294.689 528.038 293.757C528.013 293.757 513.728 274.073 517.777 266.714Z" fill="white" stroke="#D2D4D4" stroke-width="0.68" stroke-miterlimit="10"/>
<path d="M579.252 237.167C579.252 237.167 586.399 244.829 586.474 250.273C586.474 250.273 579.252 251.709 575.136 255.179C575.136 255.179 571.6 245.854 566.146 240.897L579.252 237.167Z" fill="white" stroke="#D2D4D4" stroke-width="1.36" stroke-miterlimit="10"/>
<g style="mix-blend-mode:multiply" opacity="0.2">
<path d="M583.419 242.56C583.419 242.56 557.896 242.182 512.71 284.952C467.524 327.722 455.065 334.241 445.932 337.324C445.932 337.324 438.609 327.05 457.717 305.602C457.717 305.602 500.849 280.079 504.856 277.82C524.217 266.814 521.473 255.464 561.684 241.998L579.277 237.167L583.419 242.56Z" fill="#393B41"/>
</g>
<path d="M217.492 586.272C213.199 594.126 177.567 648.75 172.415 649.783C167.264 650.817 159.73 646.759 157.398 647.507C155.066 648.254 152.045 650.783 148.753 660.948C145.462 671.113 133.265 677.28 133.256 678.59C133.248 679.901 121 706.314 121 706.314L125.68 706.431L139.435 692.62L159.528 677.498L255.389 594.891C242.661 594.051 230.136 589.464 218.688 584.18C218.292 584.894 217.888 585.557 217.492 586.272Z" fill="#992828" stroke="#871717" stroke-width="0.68" stroke-miterlimit="10"/>
<path d="M346.468 446.965C343.017 448.646 260.077 558.859 256.87 560.909C254.345 562.496 251.643 564.361 248.663 564.874C246.596 565.178 244.505 565.291 242.417 565.21C237.981 566.604 227.198 570.133 218.688 584.221C230.119 589.506 242.661 594.059 255.389 594.933L373.775 492.919C374.88 489.261 375.768 485.541 376.435 481.779C383.237 454.904 354.28 443.227 346.468 446.965Z" fill="#2E8AC6" stroke="#0071B9" stroke-width="0.68" stroke-miterlimit="10"/>
<path d="M219.866 578.35C219.866 578.35 251.853 587.473 273.655 581.164L246.432 604.519L214.95 589.632L219.866 578.35Z" fill="white" stroke="#D2D4D4" stroke-width="0.68" stroke-miterlimit="10"/>
<path opacity="0.7" d="M319.759 514.67C319.759 514.67 310.996 486.569 341.241 463.323C371.486 440.077 373.27 484.561 368.658 491.887C364.045 499.212 330.155 532.707 319.759 514.67Z" fill="#0071B9"/>
<path d="M472.566 345.035L468.803 341.104V340.852C459.721 345.22 450.166 348.06 443.904 356.049C435.486 344.674 426.883 334.559 416.016 325.528C410.965 327.343 405.957 329.426 402.615 332.073C393.633 339.188 394.138 347.967 397.093 356.074C400.047 364.181 396.588 396.525 388.675 405.943C377.623 419.065 349.954 434.641 349.954 434.641C328.766 452.527 334.541 475.898 342.033 484.165C349.524 492.431 371.495 496.909 385.426 497.766C399.357 498.623 426.471 508.595 426.471 508.595C426.471 508.595 410.755 512.275 407.287 520.524C407.211 520.718 407.101 520.944 406.975 521.196C420.157 524.557 434.24 527.077 447.481 529.404L467.642 512.115C467.642 512.115 472.229 497.254 470.293 493.255C468.357 489.256 454.653 479.914 452.128 478.301C449.602 476.688 408.17 455.316 408.17 455.316C414.618 447.898 424.787 426.366 446.429 419.485C454.847 416.814 460.276 413.159 463.803 409.681L459.998 403.851L443.02 403.406L453.702 390.225L448.879 373.977L464.738 380.043L478.728 370.44L477.886 387.368L478.054 387.486L484.098 378.539L472.566 345.035Z" fill="#2E8AC6" stroke="#0071B9" stroke-width="0.68" stroke-miterlimit="10"/>
<path d="M478.702 370.44L464.712 380.043L448.853 373.977L453.676 390.225L442.994 403.406L459.973 403.851L463.777 409.682C469.316 404.204 470.091 399.18 470.091 399.18L477.995 387.486L477.827 387.368L478.702 370.44Z" fill="white" stroke="#D2D4D4" stroke-width="0.3" stroke-miterlimit="10"/>
<path d="M435.435 317.262C433.508 320.169 424.602 322.463 416.016 325.529C426.883 334.56 435.444 344.675 443.904 356.05C450.166 348.06 459.72 345.221 468.803 340.852L469.115 320.858L487.255 312.087L488.863 307.358L480.832 295.403L483.871 292.79C483.871 292.79 477.246 283.776 475.453 282.995C473.66 282.213 473.828 278.046 473.828 278.046C473.828 278.046 470.579 274.106 469.839 272.09C460.436 271.636 449.316 273.384 447.203 280.903C445.099 287.229 447.372 292.899 451.724 299.713C452.978 300.595 453.82 300.864 454.687 300.116C452.161 308.181 444.989 290.934 438.289 302.124C436.934 306.047 441.143 309.609 445.023 309.928C442.39 312.128 439.217 313.59 435.831 314.162C436.054 315.211 435.915 316.303 435.435 317.262V317.262Z" fill="#F7C7AC" stroke="#F09662" stroke-width="0.68" stroke-linejoin="round"/>
<path d="M353.758 593.933C348.607 594.958 336.081 588.741 333.657 588.556C331.233 588.372 333.876 593.648 326.923 601.838C319.97 610.029 312.368 614.322 311.872 615.499C311.375 616.675 301.771 639.265 301.771 639.265L305.138 643.171L319.667 627.529L344.751 617.448L447.447 529.38C434.206 527.053 420.124 524.557 406.941 521.172C401.739 531.715 358.801 592.925 353.758 593.933Z" fill="#992828" stroke="#871717" stroke-width="0.68" stroke-miterlimit="10"/>
<path d="M406.84 517.089C406.84 517.089 448.845 519.719 468.458 509.167L467.986 514.485L440.62 540.654C440.62 540.654 414.526 529.363 404.921 524.793L406.84 517.089Z" fill="white" stroke="#D2D4D4" stroke-width="0.68" stroke-miterlimit="10"/>
<path d="M438.247 302.108C444.981 290.917 452.127 308.165 454.644 300.1C453.803 300.847 452.961 300.411 451.681 299.697C447.329 292.883 445.057 287.213 447.161 280.887C449.274 273.326 460.394 271.646 469.796 272.074C469.333 270.814 469.796 270.301 472.709 271.956C479.258 275.72 483.652 270.671 483.652 270.671C476.918 271.074 476.438 264.043 476.438 264.043C476.438 264.043 485.546 257.322 477.919 248.803C472.667 242.922 465.394 243.611 459.165 248.072C452.936 252.533 455.941 257.532 449.762 262.052C443.583 266.571 422.952 284.255 422.952 284.255L426.033 291.035C426.033 291.035 434.804 306.518 435.831 314.163C439.201 313.566 442.353 312.087 444.964 309.879C442.371 309.971 436.252 306.417 438.247 302.108Z" fill="#010002" stroke="#010002" stroke-width="0.68" stroke-linecap="round" stroke-linejoin="round"/>
<path opacity="0.7" d="M474.258 272.704C474.258 272.704 471.556 271.209 469.619 264.597C467.683 257.985 459.249 263.883 455.764 268.176C452.279 272.469 448.121 278.114 448.121 278.114C448.121 278.114 457.717 271.066 469.796 272.074C469.796 272.074 470.343 270.394 474.258 272.704Z" fill="#393B41"/>
<path opacity="0.7" d="M448.121 278.114C448.121 278.114 454.35 266.747 460.377 261.152C466.404 255.557 471.884 255.683 473.677 262.127C475.47 268.57 478.062 273.602 483.685 270.696C483.685 270.696 476.497 272.426 475.503 262.925C474.51 253.423 468.264 246.568 461.033 253.902C453.803 261.236 448.247 277.307 448.121 278.114Z" fill="#393B41"/>
<path d="M416.016 325.528C416.016 325.528 395.417 330.435 385.628 336.618C375.838 342.801 361.385 373.297 352.487 383.185C343.59 393.073 338.042 399.785 345.989 405.943C353.935 412.101 363.666 409.228 379.887 397.491C396.108 385.755 410.418 379.446 418.297 361.367C426.176 343.288 426.445 330.745 416.016 325.528Z" fill="#0071B9" stroke="#0071B9" stroke-width="0.68" stroke-miterlimit="10"/>
<g style="mix-blend-mode:multiply" opacity="0.2">
<path d="M416.748 329.739C416.748 329.739 392.791 332.41 391.655 345.213C390.518 358.017 393.01 361.965 388.456 365.502C383.902 369.039 360.745 383.808 360.745 383.808C360.745 383.808 355.088 382.741 369.954 361.73C384.82 340.719 393.465 329.403 416.748 329.739Z" fill="#393B41"/>
</g>
<path d="M410.393 385.991L426.142 375.91L430.561 381.043L437.801 379.884L442.228 385.025L437.919 388.722L440.208 401.634C440.208 401.634 436.513 408.926 410.536 399.307L410.393 385.991Z" fill="#F7C7AC" stroke="#F09662" stroke-width="0.67" stroke-miterlimit="10"/>
<path d="M407.918 387.571C386.697 391.452 367.942 386.378 347.925 383.144C347.521 383.538 347.125 383.916 346.721 384.353C343.684 387.727 341.901 392.039 341.67 396.568C364.449 393.972 386.646 398.492 408.97 393.754C408.843 391.661 408.49 389.588 407.918 387.571V387.571Z" fill="#871717" stroke="#5F1717" stroke-width="0.68" stroke-miterlimit="10"/>
<path d="M408.995 393.754C386.672 398.492 364.474 393.972 341.696 396.568C341.438 400.561 342.372 404.54 344.381 408.002C366.646 410.522 386.899 403.718 407.682 400.256C408.844 398.492 409.122 396.081 408.995 393.754Z" fill="white" stroke="#D2D4D4" stroke-width="0.68" stroke-miterlimit="10"/>
<path d="M344.381 408.002C345.702 410.299 347.574 412.231 349.83 413.626C352.085 415.021 354.653 415.834 357.302 415.991C372.892 417.184 397.539 405.196 404.913 402.457C406.053 402.047 407.026 401.273 407.682 400.256C386.899 403.717 366.646 410.522 344.381 408.002Z" fill="#871717" stroke="#5F1717" stroke-width="0.68" stroke-miterlimit="10"/>
<path d="M407.918 387.571C407.674 386.731 407.489 386.159 407.489 386.159C407.489 386.159 387.757 387.319 377.328 381.346C367.319 375.616 357.336 373.877 347.925 383.143C367.942 386.378 386.697 391.452 407.918 387.571Z" fill="white" stroke="#D2D4D4" stroke-width="0.68" stroke-miterlimit="10"/>
<path d="M402.53 386.244C402.53 386.244 407.539 396.325 402.109 403.575L414.189 399.769L412.682 384.689L402.53 386.244Z" fill="white" stroke="#D2D4D4" stroke-width="0.68" stroke-miterlimit="10"/>
<path d="M332.293 413.21C332.293 413.21 243.461 496.968 225.599 515.988C225.573 515.963 322.832 429.81 332.293 413.21Z" fill="#560707"/>
<path d="M339.633 421.746C339.633 421.746 280.709 490.887 270.271 502.27C259.833 513.653 334.886 435.49 339.633 421.746Z" fill="#560707"/>
<g style="mix-blend-mode:multiply" opacity="0.2">
<path d="M356.578 458.206C356.578 458.206 425.814 470.572 441.9 487.021C457.986 503.471 357.925 599.99 357.925 599.99C357.925 599.99 337.209 601.737 332.722 606.324C328.235 610.911 305.137 643.171 305.137 643.171C305.137 643.171 314.329 633.544 321.131 626.949L344.776 617.473C344.776 617.473 446.125 529.858 449.998 527.204C453.87 524.549 470.394 506.697 467.919 494.969C465.444 483.241 403.591 457.693 385.03 448.679C371.805 442.244 356.578 458.206 356.578 458.206Z" fill="#393B41"/>
</g>
<g style="mix-blend-mode:multiply" opacity="0.2">
<path d="M387.244 435.381C387.244 435.381 409.004 413.966 417.102 411.202C425.199 408.439 443.373 410.816 451.513 406.943C466.185 399.954 478.054 383.076 475.209 359.897C475.209 359.897 484.039 378.497 456.825 413.966L443.525 420.486C443.525 420.486 439.316 419.982 431.277 427.626C423.238 435.271 409.829 453.014 409.829 453.014C409.829 453.014 374.104 447.529 387.244 435.381Z" fill="#393B41"/>
</g>
<path d="M337.285 447.873C330.054 458.273 332.545 468.548 336.224 475.655C342.689 463.272 345.601 444.512 353.379 431.272C347.12 435.866 341.679 441.478 337.285 447.873V447.873Z" fill="#871717" stroke="#5F1717" stroke-width="0.68" stroke-miterlimit="10"/>
<path d="M381.503 428.711C376.89 437.238 372.345 445.849 367.959 454.645C372.204 453.331 376.594 452.544 381.032 452.301C385.241 447.42 388.397 441.38 391.385 435.499L381.503 428.711Z" fill="#871717" stroke="#5F1717" stroke-width="0.68" stroke-miterlimit="10"/>
<path d="M408.145 455.316L412.261 449.772L406.318 445.697C404.727 448.268 403.28 451.15 401.781 453.813C405.712 454.577 408.145 455.316 408.145 455.316Z" fill="white" stroke="#D2D4D4" stroke-width="0.68" stroke-miterlimit="10"/>
<path d="M393.12 452.552C396.428 452.872 399.382 453.35 401.781 453.813C403.28 451.149 404.728 448.268 406.319 445.697L399.45 441.001C397.715 445.045 395.596 448.913 393.12 452.552Z" fill="#871717" stroke="#5F1717" stroke-width="0.68" stroke-miterlimit="10"/>
<path d="M371.242 421.688C358.371 435.726 348.514 441.674 346.115 467.053C345.946 468.893 345.416 472.53 346.956 472.388C349.005 468.144 351.928 464.379 355.534 461.34C359.814 447.943 366.623 435.487 375.593 424.645L371.242 421.688Z" fill="#871717" stroke="#5F1717" stroke-width="0.68" stroke-miterlimit="10"/>
<path d="M371.242 421.688L369.735 420.654L357.588 428.568C356.129 429.379 354.723 430.282 353.379 431.273C345.601 444.513 337.571 451.394 336.224 475.656C338.007 479.107 340.274 482.287 342.958 485.099C343.66 480.69 345.004 476.408 346.948 472.388C346.005 473.228 345.913 468.885 346.107 467.053C349.288 440.523 359.146 435.6 371.242 421.688Z" fill="white" stroke="#D2D4D4" stroke-width="0.68" stroke-miterlimit="10"/>
<path d="M375.568 424.645C366.597 435.487 359.789 447.943 355.509 461.34C359.182 458.314 363.411 456.031 367.959 454.619C372.344 445.824 376.89 437.212 381.503 428.685L375.568 424.645Z" fill="white" stroke="#D2D4D4" stroke-width="0.68" stroke-miterlimit="10"/>
<path d="M391.386 435.481C388.397 441.362 385.224 447.419 381.032 452.283C385.061 452.055 389.103 452.139 393.12 452.536C395.596 448.896 397.715 445.028 399.45 440.984L391.386 435.481Z" fill="white" stroke="#D2D4D4" stroke-width="0.68" stroke-miterlimit="10"/>
<path d="M385.628 336.618C385.628 336.618 428.432 338.668 443.904 356.05L446.757 352.941C446.757 352.941 428.104 326.671 414.458 321.858C400.813 317.044 376.579 326.218 376.579 326.218C376.579 326.218 305.356 405.12 279.927 422.359C254.497 439.598 178.468 470.615 178.468 470.615C178.468 470.615 134.805 518.744 137.373 591.589C137.373 591.589 167.197 515.98 218.301 479.427C269.404 442.874 288.344 436.792 305.609 419.41C322.874 402.029 371.099 335.03 385.628 336.618Z" fill="#992828" stroke="#871717" stroke-width="0.68" stroke-miterlimit="10"/>
<path opacity="0.5" d="M487.255 312.088C487.255 312.088 463.618 319.649 457.33 318.549L449.914 305.678C449.914 305.678 444.51 300.831 442.144 302.36C439.779 303.889 442.001 305.04 444.779 305.418C447.557 305.796 447.986 301.301 451.252 311.156C452.776 315.734 458.087 330.478 461.926 335.317C465.764 340.156 470.133 328.142 469.115 320.876L487.255 312.105" fill="#F09662"/>
<path opacity="0.4" d="M473.786 278.029C473.786 278.029 471.463 281.785 462.22 283.02L457.397 282.927C457.397 282.927 460.705 286.716 463.331 287.833C465.958 288.951 470.47 289.934 471.749 288.127C473.029 286.321 474.056 281.919 475.377 282.977C476.699 284.036 483.795 292.773 483.795 292.773L476.446 294.756L480.798 295.403L484.216 292.882C484.216 292.882 476.438 283.28 476.143 283.196C474.258 282.591 473.382 279.752 473.786 278.029Z" fill="#F09662"/>
<path d="M473.786 278.029C473.786 278.029 473.079 280.272 471.816 280.852C470.554 281.432 463.634 283.918 458.138 282.944C458.138 282.944 472.759 279.029 473.786 278.029Z" fill="#010002"/>
<path d="M471.757 280.415C471.135 280.768 467.776 281.801 466.976 282.196C465.478 282.935 463.971 283.641 462.54 284.515C461.614 285.069 466.875 284.666 468.618 283.776C469.105 283.539 469.616 283.353 470.141 283.221C470.284 283.952 470.815 284.767 471.589 284.725C471.825 284.725 471.909 284.448 471.875 284.246C471.795 283.76 471.632 283.292 471.395 282.86C471.82 282.741 472.229 282.574 472.616 282.364C473.559 281.835 472.911 279.768 471.757 280.415Z" fill="black"/>
<defs>
<linearGradient id="paint0_linear_258_2" x1="185.728" y1="546.832" x2="444.487" y2="325.086" gradientUnits="userSpaceOnUse">
<stop stop-color="#871717"/>
<stop offset="1" stop-color="#461717"/>
</linearGradient>
</defs>
</svg>
