<svg xmlns="http://www.w3.org/2000/svg" xmlns:xlink="http://www.w3.org/1999/xlink" width="2139.87" height="1209.553" viewBox="0 0 2139.87 1209.553">
  <defs>
    <linearGradient id="linear-gradient" x1="0.002" y1="0.5" x2="0.998" y2="0.5" gradientUnits="objectBoundingBox">
      <stop offset="0" stop-color="#ffdea4"/>
      <stop offset="0.18" stop-color="#b28958"/>
      <stop offset="0.67" stop-color="#edca92"/>
      <stop offset="0.72" stop-color="#fcdba1"/>
      <stop offset="0.8" stop-color="#c49d6a"/>
      <stop offset="0.92" stop-color="#e8c58d"/>
      <stop offset="1" stop-color="#b78e5c"/>
    </linearGradient>
    <linearGradient id="linear-gradient-2" x1="0.002" y1="0.5" x2="0.999" y2="0.5" xlink:href="#linear-gradient"/>
    <linearGradient id="linear-gradient-3" x1="0.002" y1="0.5" x2="0.998" y2="0.5" xlink:href="#linear-gradient"/>
    <linearGradient id="linear-gradient-4" x1="0.002" y1="0.5" x2="0.998" y2="0.5" xlink:href="#linear-gradient"/>
    <linearGradient id="linear-gradient-5" x1="0.001" y1="0.5" x2="0.998" y2="0.5" xlink:href="#linear-gradient"/>
    <linearGradient id="linear-gradient-6" x1="0.001" y1="0.5" x2="0.999" y2="0.5" xlink:href="#linear-gradient"/>
    <linearGradient id="linear-gradient-7" x1="0.001" y1="0.5" x2="0.999" y2="0.5" xlink:href="#linear-gradient"/>
    <linearGradient id="linear-gradient-8" x1="0.001" y1="0.5" x2="0.999" y2="0.5" xlink:href="#linear-gradient"/>
    <linearGradient id="linear-gradient-9" x1="0.001" y1="0.5" x2="0.999" y2="0.5" xlink:href="#linear-gradient"/>
    <linearGradient id="linear-gradient-10" x1="0.001" y1="0.5" x2="0.999" y2="0.5" xlink:href="#linear-gradient"/>
    <linearGradient id="linear-gradient-11" x1="0" y1="0.5" x2="0.998" y2="0.5" xlink:href="#linear-gradient"/>
    <linearGradient id="linear-gradient-12" x1="0" y1="0.5" x2="0.998" y2="0.5" xlink:href="#linear-gradient"/>
    <linearGradient id="linear-gradient-13" x1="0" y1="0.5" x2="0.998" y2="0.5" xlink:href="#linear-gradient"/>
    <linearGradient id="linear-gradient-14" x1="0" y1="0.5" x2="0.999" y2="0.5" xlink:href="#linear-gradient"/>
    <linearGradient id="linear-gradient-15" x1="0" y1="0.5" x2="0.999" y2="0.5" xlink:href="#linear-gradient"/>
    <linearGradient id="linear-gradient-16" x1="0" y1="0.5" x2="0.999" y2="0.5" xlink:href="#linear-gradient"/>
    <linearGradient id="linear-gradient-17" x1="0" y1="0.5" x2="0.999" y2="0.5" xlink:href="#linear-gradient"/>
    <linearGradient id="linear-gradient-18" x1="0" y1="0.5" x2="1" y2="0.5" xlink:href="#linear-gradient"/>
    <linearGradient id="linear-gradient-19" x1="0" y1="0.5" x2="1" y2="0.5" xlink:href="#linear-gradient"/>
    <linearGradient id="linear-gradient-20" x1="0" y1="0.5" x2="1" y2="0.5" xlink:href="#linear-gradient"/>
    <linearGradient id="linear-gradient-22" x1="0" y1="0.5" x2="1" y2="0.5" xlink:href="#linear-gradient"/>
    <linearGradient id="linear-gradient-23" x1="0" y1="0.5" x2="1" y2="0.5" xlink:href="#linear-gradient"/>
  </defs>
  <g id="bg" transform="translate(145.56 41.963)">
    <rect id="Прямоугольник_5300" data-name="Прямоугольник 5300" width="2139.87" height="1209.45" transform="translate(-145.56 -41.86)" fill="#fff" opacity="0"/>
    <g id="pattern" transform="translate(-308 -1593.041)" opacity="0.5">
      <path id="Контур_556" data-name="Контур 556" d="M64.777-14.7C117.106,7.6,173.189,31.924,207.036,79.995c35.559,50.485,41.376,115.15,34.593,174.9-3.885,34.2-11.634,67.8-19.579,101.256Q209.955,406.875,197.9,457.6c-14.377,60.209-32.267,121.164-35.12,183.327-2.458,54.59,10.163,109.75,49.278,149.9,35.6,36.525,85.8,56.324,135.608,63.48,27.2,3.907,54.546,2.854,81.9,4.171,28.886,1.4,58.738,6.256,81.874,24.957,38,30.73,48.071,82.884,71.1,123.733a147.614,147.614,0,0,0,44.734,50.112c18.745,12.929,40.081,21.577,61.614,28.689,44.822,14.838,93.4,22.938,133.786,48.685a144.735,144.735,0,0,1,26.845,21.95c1.471,1.536,3.8-.812,2.327-2.327-32.925-34.2-79.745-47.324-123.952-59.968-44.734-12.819-93.222-26.34-124.786-62.887-31.981-37.1-40.059-87.976-68.287-127.31a107.863,107.863,0,0,0-56.346-41.288c-27-8.363-55.841-7.726-83.783-8.253-53.953-1.01-108.433-12.116-153.519-43.286A170.42,170.42,0,0,1,188,753.072c-14.18-26.033-20.655-55.38-21.95-84.815-2.788-61.46,14.114-122.064,28.25-181.308l24.277-101.695c7.9-33.079,16.243-66.136,21.95-99.675,10.141-59.024,11.48-121.735-13.763-177.357a182.427,182.427,0,0,0-50.485-65.609C154.707,24.637,129.947,11.159,104.792-.716c-12.665-5.927-25.506-11.436-38.347-16.9-1.932-.834-3.6,2-1.668,2.832Z" transform="translate(98.521 1584.316)" fill="url(#linear-gradient)"/>
      <path id="Контур_557" data-name="Контур 557" d="M69.855-15.119C115.291,6.546,162.9,29.747,194.97,70.048c36.9,46.512,44.866,108.916,39.335,166.4-5.927,61.46-24.518,121.34-38.566,181.242-13.521,57.729-28.14,116.072-35.12,175.052-6.278,54.107-4.653,112.341,23.9,160.411,25.4,42.759,69.077,70.24,115.523,85.408a365.517,365.517,0,0,0,81.94,15.936c29.655,2.568,59.858,2.722,88.92,9.746,26.823,6.475,50.485,19.755,68.177,41.178s29.018,47.873,41.31,72.83,25.243,48.466,46.907,66.223c20.194,16.484,44.383,27.811,68.594,37.074,45.744,17.56,95.351,27.2,137.473,53.229a165.35,165.35,0,0,1,29.325,22.916,1.6,1.6,0,0,0,2.2-2.195c-34.571-34.045-82.071-48.29-127.091-62.8-51.495-16.572-107.555-35.713-137.605-83.915-27.591-44.076-40.542-101.3-87.076-130.669-22.389-14.114-48.751-19.492-74.63-22.257-29.9-3.2-60.011-3.556-89.71-8.6-52.022-8.78-104.877-28.952-141.337-68.528-39.51-43.022-49.212-102.068-45.963-158.589,3.446-60.363,18.592-120.045,32.025-178.783q10.36-45.3,21.643-90.368c7.309-29.523,14.553-59.155,19.14-89.271,8.341-54.875,7.331-113.35-18.065-163.923C193.038,51.7,150.367,22.218,105.765-.983,94.417-6.931,82.937-12.375,71.457-17.906c-1.844-.878-3.446,1.844-1.6,2.722Z" transform="translate(104.639 1583.946)" fill="url(#linear-gradient-2)"/>
      <path id="Контур_558" data-name="Контур 558" d="M74.924-15.534c45.5,24.145,93.288,50.485,122.218,94.824,32.706,50.024,35.12,112.977,26.34,170.377-4.675,29.984-12.182,59.441-19.755,88.766S188.692,397.128,182,426.673C169.134,483.436,156.359,541.34,152.8,599.552c-3.2,52.483,2.085,108.236,31.608,153.234,27.306,41.705,72.106,67.606,118.838,82.093A474.323,474.323,0,0,0,385.5,851.67c29.7,3.71,59.792,6.014,88.832,13.609,27.525,7.178,53.031,19.887,72.435,41.047,18.767,20.435,31.7,45.634,44.668,69.933s25.484,47,47.127,64.16c20.7,16.419,45.415,28.316,69.648,38.544,45.876,19.36,95.483,31.037,138.132,57.465a188.769,188.769,0,0,1,29.479,22.433c1.427,1.361,3.6-.812,2.2-2.195-35.91-33.562-83.41-49.08-128.781-65.323a560.966,560.966,0,0,1-75.4-32.223c-24.848-13.17-47.017-29.413-62.382-53.47-28.206-44.164-45-98.2-92.827-126.037-50.244-29.238-112.472-26.121-168.006-36.349-51.758-9.526-104.592-27.9-142.522-65.85-40.169-40.256-53.251-96.8-53.185-152.07,0-59.024,12.577-117.806,24.957-175.271q9.57-44.4,20.918-88.437c7.595-29.5,15.672-58.914,21.621-88.81,10.975-55.512,14.224-114.777-8.122-167.808C194.135,57.516,153.967,25.711,110.462.49c-11.173-6.585-22.587-12.6-34-18.68-1.734-.9-3.271,1.734-1.536,2.656Z" transform="translate(110.763 1583.593)" fill="url(#linear-gradient-3)"/>
      <path id="Контур_559" data-name="Контур 559" d="M80.1-15.956C123.65,9.726,168.867,38,195.119,82.819c30.73,52.285,29.281,116.072,17.889,173.713-5.883,29.764-14.224,58.98-22.257,88.217-7.924,28.908-15.365,57.992-21.643,87.3-12.27,56.324-23.245,114.14-23.9,171.979-.593,52.527,8.231,107.753,40.388,150.8,29.918,40.059,76.211,63.831,123.425,77.33C364.442,848,422.7,850.062,478.034,866.042c27.152,7.836,53.514,19.645,74.345,39.115,19.536,18.241,34.066,41.332,47.5,64.226,14.158,24.145,26.34,48.29,48.8,66,21.335,16.814,46.973,29.238,71.513,40.63,45.678,21.182,95.022,34.813,138.176,61.307a218.042,218.042,0,0,1,30.73,22.652c1.4,1.251,3.49-.812,2.085-2.063-37.425-33.211-85.254-50.024-131.02-68.155a688.608,688.608,0,0,1-74.74-34.7c-26.121-14.246-49.124-30.489-65.016-56.148-14.619-23.6-27.043-48.29-43.7-70.635-14.794-19.755-32.574-36.525-54.568-48.093C471.646,853.6,412.71,850.414,357.506,840.229c-52.68-9.746-106.7-26.077-147.241-62.624-42.078-37.952-58.826-93.046-61.724-148.185-3.073-58.431,7.068-117.082,18.592-174.13q9-44.646,20.655-88.7c7.7-29.106,16.287-57.992,23.179-87.339,12.951-55.139,19.755-114.4,0-168.906-17.341-48.29-55.4-82.093-97.5-109.224-10.536-6.8-21.292-13.17-32.091-19.623a1.471,1.471,0,0,0-1.977.556,1.471,1.471,0,0,0,.507,1.99Z" transform="translate(116.781 1583.225)" fill="url(#linear-gradient-4)"/>
      <path id="Контур_560" data-name="Контур 560" d="M85.052-16.348C127.81,11.595,171.623,42.764,194.8,89.869c26.691,54.458,20.787,117.806,7,174.92-7,29.106-15.98,57.663-24.145,86.439S162.294,408.5,156.3,437.514c-11.524,55.621-20.611,113.021-18.548,170,1.866,51.034,13.17,103.912,45.568,144.761,31.542,39.905,79.218,62.667,127.31,75.925,27.2,7.507,55.051,12.182,82.8,17.187a694.487,694.487,0,0,1,86.22,20.545c27.24,8.626,54.59,19.887,77.154,37.776,21.05,16.7,37.688,38.544,52.263,60.933,15.146,23.223,26.8,47.873,49.036,65.433a239.269,239.269,0,0,0,33.649,21.248c12.841,7.046,25.66,14.18,38.72,20.831,45.9,23.421,95.615,39.159,139.756,66.07a254.858,254.858,0,0,1,32.025,22.872c1.361,1.163,3.38-.812,1.975-2-39.642-33.386-88.722-51.6-135.63-72.172-25.221-10.975-49.41-23.816-73.6-37.03-12.643-6.892-25.308-13.982-36.525-23.114a128.583,128.583,0,0,1-28.14-32.771c-14.421-23.289-28.162-46.644-46.1-67.5a184.907,184.907,0,0,0-60.911-46.556c-51.89-24.935-109.355-33.123-165.284-43.9-52.68-10.119-107.072-25.374-148.69-60.78-42.276-35.976-61.57-88.832-67.123-142.807-5.927-57.378,1.844-115.523,12.336-171.935q8.341-44.778,20.216-88.832c7.639-28.359,16.528-56.346,24.145-84.705,14.838-54.743,25.2-113.262,9.46-169.016-14.026-49.673-49.651-86-90.522-115.436-10.273-7.4-20.809-14.4-31.389-21.335C84.964-19.772,83.537-17.335,85.052-16.348Z" transform="translate(123.003 1582.827)" fill="url(#linear-gradient-5)"/>
      <path id="Контур_561" data-name="Контур 561" d="M90.122-16.746c42.144,30.467,84.793,65.038,104.2,114.975,22.082,56.895,11.546,119.452-4.631,176.347-8.122,28.535-17.56,56.587-25.967,85.013q-12.841,43.9-21.357,88.854c-10.448,55.336-17.209,112.516-11.59,168.8,5.027,50.485,20.5,101.5,55.556,139.361s84.31,57.619,133.127,69.648c27.679,6.826,55.863,11.282,83.762,17.077a607.477,607.477,0,0,1,83.059,23.991c27.306,9.878,54.985,21.423,78.691,38.456,21.467,15.365,39.51,35.559,54.875,57.07,15.826,22.148,27.108,46.446,49.168,63.37a252.88,252.88,0,0,0,34.132,20.984c12.292,6.585,24.408,13.653,36.635,20.458,46.512,25.945,97,44.1,142.566,71.777a310.279,310.279,0,0,1,32.925,22.916c1.339,1.076,3.271-.834,1.91-1.91-41.4-33.1-90.917-52.878-138.285-75.618-24.826-11.919-48.444-25.835-72.633-38.939-12.753-6.914-25.638-13.829-37.074-22.85a122.918,122.918,0,0,1-27.438-31.147c-14.553-22.828-29.018-44.932-47.961-64.446a215.223,215.223,0,0,0-61.46-43.724c-52-25.221-107.775-39.159-164.231-49.893-53.229-10.141-108.06-22.784-152.773-55.095s-68.792-82.137-78.274-135.388c-10.185-57.07-5.158-115.962,4.171-172.835q7.287-44.471,18.943-88.086c7.77-29.238,17.319-57.9,26.121-86.813,16.7-54.875,30.73-112.823,18.855-170.113C194.407,74,160.6,34.837,120.479,2.855c-9.46-7.551-19.184-14.772-29-21.95-1.4-1.01-2.766,1.317-1.361,2.327Z" transform="translate(129.128 1582.435)" fill="url(#linear-gradient-6)"/>
      <path id="Контур_562" data-name="Контур 562" d="M95.022-17.44C135.5,14.914,175.666,51.922,192.085,102.6c18.68,57.86,4.983,119.321-12.885,175.6-8.78,27.877-18.833,55.38-27.328,83.41a777.206,777.206,0,0,0-21.248,87.6c-9.922,55.007-15.014,111.946-7.441,167.545,6.848,50.485,24.518,101.124,60.89,137.934,36.81,37.315,88,56.192,138.088,67.826,28.1,6.585,56.653,10.865,84.771,17.275s54.546,16.068,81.018,26.669c27.46,10.975,55.468,22.63,80.689,38.193a238.84,238.84,0,0,1,58.738,51.89c17.56,21.335,28.667,47.083,50.9,64.292a237.624,237.624,0,0,0,34.44,21.028c13.17,6.936,25.813,14.377,38.522,21.95,46.71,27.943,97.327,48.619,143.861,76.825a388.563,388.563,0,0,1,33.715,22.85c1.317.988,2.612-1.251,1.3-2.195-43.9-33.254-94.693-54.875-143.049-80.315-25.089-13.17-48.927-28.535-73.972-41.881-12.533-6.585-25.133-13.477-36.13-22.565s-19.184-20.26-26.823-32.223a272.924,272.924,0,0,0-50.661-60.1c-20.15-17.56-43.154-30.137-67.233-41.376-25.7-11.963-52.044-22.762-78.779-32.179-27.306-9.614-55.336-15.585-83.718-21.006-53.207-10.185-108.082-21.687-153.936-52.131-46.446-30.862-73.247-79.876-85.144-133.391-12.358-55.731-9.7-113.658-1.493-169.784a766.412,766.412,0,0,1,18.306-88.283c7.726-28.864,17.56-57.07,27-85.408,17.955-53.778,34.923-110.189,27.086-167.5C194.434,81.028,164.252,39.476,125.884,5.1c-9.417-8.429-19.162-16.485-29.04-24.365-1.3-1.032-3.117.768-1.822,1.822Z" transform="translate(135.159 1582.163)" fill="url(#linear-gradient-7)"/>
      <path id="Контур_563" data-name="Контур 563" d="M100.108-17.925c39.247,34.681,76.825,74.389,90,126.7,14.729,59.265-2.854,120-22.652,175.864-9.768,27.613-20.238,54.985-28.864,82.993a664.569,664.569,0,0,0-20.655,88.129c-8.956,54.875-11.919,111.616-1.6,166.535,9.395,50.024,30.2,99.412,68.55,134.093,39.137,35.383,91.378,52.307,142.039,63.194,28.184,6.058,56.763,10.207,84.771,17.1,28.535,6.98,55.095,18.46,81.72,30.423,50.858,22.828,104.7,44.449,143.268,86.286C655.05,973.34,666.113,999.2,687.8,1016.1c11.129,8.67,23.75,15.124,36.261,21.577,12.841,6.585,25.221,13.807,37.315,21.555,47.215,30.028,97.985,53.6,145.792,82.576,11.853,7.2,23.465,14.772,34.7,22.894,1.273.922,2.5-1.207,1.229-2.2-45.371-32.728-96.383-56.082-144.87-83.761-24.628-14.048-47.873-30.247-73.094-43.264-12.973-6.695-26.143-13.368-37.557-22.609s-19.338-20.523-27.24-32.53a225.933,225.933,0,0,0-52.395-56.017c-22.126-16.814-47.061-28.535-72.084-40.366-26.011-12.226-52.109-24.562-78.8-35.23S403.3,831.762,375.428,826.45c-54.085-10.317-109.882-20.238-157.865-48.9-47.3-28.294-77.133-74.345-92.19-126.63-15.65-54.59-15.8-112.209-9.043-168.2a661.244,661.244,0,0,1,17.56-90.544c7.617-28.645,17.56-56.565,27.635-84.42,19.623-53.646,39.817-109.312,35.866-167.413-3.666-52.68-30.6-96.58-67.036-133.259C121.2-2.165,111.61-10.945,101.82-19.572c-1.185-1.054-2.919.68-1.734,1.734Z" transform="translate(141.267 1581.771)" fill="url(#linear-gradient-8)"/>
      <path id="Контур_564" data-name="Контур 564" d="M108.076-18.253c38.083,37.161,73.182,79.92,82.554,133.9,10.47,60.319-10.756,119.891-32.245,175.315-10.646,27.416-21.6,54.743-30.291,82.862a582.051,582.051,0,0,0-19.755,87.273c-8.034,54.875-8.934,111.441,3.929,165.635,11.831,49.849,35.537,98.161,75.9,130.954,41.42,33.649,94.846,48.707,146.319,58.892,28.272,5.6,56.873,9.57,84.771,16.858s53.8,19.755,79.657,32.75c27.262,13.587,54.875,26.34,82.247,39.664,23.926,11.612,47.215,25.33,66.6,43.681a200.054,200.054,0,0,1,27.372,33.43c7.485,10.975,15.365,21.116,26.055,29.281s22.938,14.333,35.12,20.37a345.747,345.747,0,0,1,37.842,21.533c23.838,15.848,47.851,31.081,72.677,45.327s50.375,28.272,75.091,43.22c12.226,7.419,24.3,15.1,36.108,23.179,1.229.856,2.415-1.163,1.163-2.019-47.478-32.53-99.258-57.992-148.141-88.305-12.4-7.7-24.452-15.936-36.613-24.013a353.643,353.643,0,0,0-37.908-21.423c-13.17-6.585-26.34-13.17-37.469-22.631s-18.833-21.643-27.174-33.54c-14.465-20.677-33.342-37.315-54.48-50.814-24.035-15.365-50.485-26.34-76.123-38.654-26.34-12.709-52.088-26.779-78.845-38.5-25.747-11.282-52.68-17.823-80.228-23-54.875-10.317-111.682-18.987-161.355-46.2a195.53,195.53,0,0,1-62.58-53.426,245.842,245.842,0,0,1-35.735-69.406c-17.955-53.361-20.567-110.387-15.058-166.074,5.948-60.385,22.543-117.674,44.493-173.976,20.743-53.58,43.9-108.236,43.7-166.711-.2-53.273-24.145-99.5-58.694-138.7-8.78-9.812-17.845-19.184-27.218-28.316-1.076-1.054-2.744.593-1.668,1.646Z" transform="translate(144.538 1581.418)" fill="url(#linear-gradient-9)"/>
      <path id="Контур_565" data-name="Контур 565" d="M121.633-18.634c37.315,40.213,69.889,86.747,74.916,142.917,5.4,60.253-18.68,117.609-41.508,171.957-11.392,27.174-22.784,54.414-31.52,82.576a521.575,521.575,0,0,0-18.833,86.9c-7.265,55.731-6.014,113.175,9.9,167.369,14.268,48.641,40.322,94.627,81.567,125.115,44.054,32.684,99.609,46.1,152.685,55.534,28.667,5.158,57.685,9.043,85.781,16.924s53.207,21.818,78.647,35.844c26.538,14.663,53.4,28.03,81.215,40.234,24.145,10.646,48.663,21.95,69.34,38.742A156.836,156.836,0,0,1,693.564,978.1c7.573,10.821,15.146,21.226,25.638,29.435,22.148,17.341,50.046,25.484,73.269,41.31,24.65,16.792,48.8,33.979,74.235,49.563s50.573,30.2,75.794,45.349c12.49,7.573,24.891,15.365,37.118,23.245,1.207.768,2.327-1.141,1.12-1.932-49.761-32.376-102.375-60.209-151.7-93.31-12.007-8.056-23.574-16.7-35.515-24.848a280.131,280.131,0,0,0-37.557-20.875c-13.17-6.3-26.538-12.709-37.842-22.17-11.656-9.746-19.25-22.674-28.272-34.659-33.32-44.207-88.2-59.573-135.564-83.41-26.143-13.17-51.1-28.535-77.4-41.376-25.177-12.27-51.868-19.316-79.306-24.474-56.28-10.58-114.382-17.56-166.426-43.11a203.7,203.7,0,0,1-63.941-48.29,239.453,239.453,0,0,1-41.134-69.011C105.214,607.162,99.9,550.18,103.985,494.3c4.39-61.109,20.875-119.211,44.1-175.6,21.95-53.141,47.5-106.48,51.034-164.757a188.771,188.771,0,0,0-12.709-81.215A254.864,254.864,0,0,0,149.092,9.879c-8.165-10.4-16.88-20.348-25.879-30.05-.966-1.054-2.546.527-1.558,1.58Z" transform="translate(142.153 1581.031)" fill="url(#linear-gradient-10)"/>
      <path id="Контур_566" data-name="Контур 566" d="M135.372-19c36.569,43.615,66.311,94.21,66.618,152.773.329,62.053-28.425,118.86-53.141,174.152-11.831,26.494-23.07,53.339-31.3,81.215a473.771,473.771,0,0,0-16.989,87.208c-5.553,55.731-1.317,112.736,17.758,165.679,17.56,48.4,47.171,92.388,91.115,120.265,48.115,30.489,106.546,41.091,161.926,49.914,28.535,4.522,57.356,8.583,84.859,17.56s51.978,25.177,76.825,40.125a550.087,550.087,0,0,0,77.879,39.2c24.979,10.053,50.858,19.536,72.742,35.6a138.459,138.459,0,0,1,30.291,31.389c7.726,10.712,15.365,20.984,26.077,28.974,11.173,8.319,23.926,14,36.547,19.755a227.936,227.936,0,0,1,38.83,21.819c23.926,17.121,47.149,34.922,71.821,51.012,25.265,16.463,51.034,32.069,76.825,47.7q18.7,11.37,37.315,22.806c1.163.724,2.2-1.1,1.076-1.822-51.012-31.52-103.165-61.328-152-96.295-12.029-8.6-23.574-17.911-35.669-26.34a224.793,224.793,0,0,0-37.183-20.545c-13.17-6.014-26.538-11.941-38.018-20.918-11.9-9.285-19.6-21.774-28.667-33.584-34.11-44.449-92.19-55.029-139.668-79.459C545.729,876.011,522,859.988,497,845.984s-51.012-22.389-78.8-27.9c-56.5-11.195-114.4-16.111-168.379-37.6a216.429,216.429,0,0,1-72.128-45.766,233.221,233.221,0,0,1-45.415-64.665C80.08,562.608,96.872,434.046,142.44,327.632c23-53.58,51.78-106.019,59.66-164.45A194.675,194.675,0,0,0,195.516,79a250.449,250.449,0,0,0-35.12-69.1C153.02-.587,145.03-10.662,136.843-20.474c-.856-1.054-2.327.439-1.471,1.471Z" transform="translate(139.608 1580.653)" fill="url(#linear-gradient-11)"/>
      <path id="Контур_567" data-name="Контур 567" d="M149.047-19.688c35.01,46.315,61.372,99.785,57.9,159.292-3.6,62.382-35.405,118-61.46,173.23-12.49,26.34-23.991,53.207-32.157,81.215a431.605,431.605,0,0,0-16.045,88.656c-4.171,55.424,2.349,111.792,23.552,163.4,19.755,47.939,51.692,90.632,97.085,116.73,50.485,29,110.3,37.864,167.018,46.1,28.535,4.149,57.465,8.1,84.881,17.56,27.986,9.57,51.649,26.647,76.1,42.715s49.717,30.379,77.2,40.674c25.726,9.636,52.9,16.88,76.474,31.345a120.921,120.921,0,0,1,33.562,31.015c7.77,10.36,15.1,20.721,25.506,28.535,11.48,8.78,24.76,14.355,37.886,20.04a198.365,198.365,0,0,1,39.51,21.555c23.9,17.56,46.49,36.591,70.9,53.536,25.594,17.78,51.912,34.484,78.537,50.661q18.9,11.458,37.952,22.609a.988.988,0,0,0,1.01-1.69c-52.834-31.015-105.207-63.172-153.87-100.509-11.26-8.648-22.082-17.911-33.54-26.34a199.335,199.335,0,0,0-39.51-21.555c-13.411-5.795-27-11.546-38.588-20.589s-19.009-21.16-27.986-32.42c-16.2-20.326-38.566-32.706-62.426-42.012-27.811-10.843-56.368-19.075-82.8-33.232-25.462-13.609-48.532-30.84-73.05-45.941a237.057,237.057,0,0,0-78.779-29.874c-57.421-11.59-116.335-15.058-172.089-34.462-27.657-9.614-54-23.508-75.947-42.89a231.507,231.507,0,0,1-48.29-61.285c-58.212-104.395-47.237-234.866-.241-341.082,23.662-53.448,54.875-104.5,67.079-162.277a203.522,203.522,0,0,0,.263-86.593,244.016,244.016,0,0,0-30.73-73.489C166.761,1.3,158.969-9.9,150.759-20.7c-.768-.988-2.48,0-1.712,1.01Z" transform="translate(136.974 1580.328)" fill="url(#linear-gradient-12)"/>
      <path id="Контур_568" data-name="Контур 568" d="M163.058-20.1c34.2,50.288,57.07,108.3,48.29,170s-43.066,114.975-70.24,169.652c-13.17,26.582-24.847,53.887-32.815,82.51a400.548,400.548,0,0,0-14.136,89.008c-2.5,55.226,6.717,110.892,30.247,161.114,22.411,47.829,57.487,88.986,105.119,112.933C282.2,791.6,342.829,798.422,400.47,806.1c29.347,3.907,59.265,7.946,87.054,18.46s50.792,29.04,74.806,46.1,49.036,31.893,76.825,41.552c26.121,9.043,54.085,14.2,78.647,27.306a107.556,107.556,0,0,1,33.32,27.438c8.78,10.975,16.309,22.477,27.7,30.95s24.145,13.565,36.832,18.811c14.421,5.9,28.272,12.2,40.849,21.533s24.145,20.019,36.24,29.874q17.187,13.938,35.01,27.043c25.045,18.438,50.968,35.735,77.528,51.934q19.755,12.051,40.059,23.333c1.054.571,1.976-1.032.944-1.6a1055.049,1055.049,0,0,1-155.6-104.79c-11.107-9.088-21.709-18.855-33.255-27.394A170.026,170.026,0,0,0,820,1016.5c-13.872-5.729-28.118-11.151-40.234-20.194s-19.755-21.687-29.281-33.035c-16.726-19.755-39.883-30.73-64.138-38.456-28.711-9.175-57.6-16.375-84.266-30.972-25.55-13.982-48.049-32.267-72.062-48.554a215.947,215.947,0,0,0-77.572-32.618c-28.425-6.08-57.421-8.78-86.132-13.17-30.028-4.522-60.165-9.395-89.381-17.933-28.272-8.275-55.665-20.392-79.284-38.215a228.279,228.279,0,0,1-54.48-60.516c-63.9-100.97-59.265-232.956-11.5-339.238,24.5-54.436,58.563-104.943,74.806-162.892a211.884,211.884,0,0,0,6.344-88.481A241.451,241.451,0,0,0,186.676,15.4,378.916,378.916,0,0,0,164.572-21c-.68-.988-2.2,0-1.6.944Z" transform="translate(134.18 1579.969)" fill="url(#linear-gradient-13)"/>
      <path id="Контур_569" data-name="Контур 569" d="M177.152-20.516c32.464,53.141,51.385,114.14,38.478,176.435-12.643,61-49.168,112.977-77.462,167.369-13.763,26.494-25.616,53.844-33.606,82.708a371.567,371.567,0,0,0-13.17,91.51c-1.032,56.148,10.975,112.384,37.6,162.036,25.2,47.127,62.909,86,112.187,107.555,55.4,24.321,117.74,28.974,177.115,36.284,29.94,3.688,60.516,8.034,88.459,19.975,27.306,11.677,49.344,31.564,72.765,49.3,23.948,18.131,49.388,33.584,78.252,42.517,27.042,8.363,56.192,11.458,81.764,24.145a100.2,100.2,0,0,1,33.342,26.845c9.417,11.612,17.78,23.355,30.555,31.542,11.831,7.573,25.133,12.226,38.127,17.319A151.042,151.042,0,0,1,883,1038.356c23.048,18.855,44.581,39.335,68.155,57.575a842.29,842.29,0,0,0,76.826,53.1q19.36,11.787,39.51,22.367c.988.527,1.866-.966.878-1.493a831.424,831.424,0,0,1-153.651-106.019c-11.26-9.724-21.95-20.15-33.693-29.325a142.439,142.439,0,0,0-35.12-19.755c-14.092-5.685-28.733-10.426-41.705-18.68-13.916-8.934-22.279-22.192-32.925-34.462-17.055-19.755-40.739-29.655-65.5-36.064-30.072-7.792-59.924-13.785-87.383-29.128-25.66-14.355-47.676-33.606-71.184-51.056a201.655,201.655,0,0,0-76.869-35.3c-28.711-6.585-58.146-8.934-87.3-12.731-31.257-4.083-62.667-8.165-93.31-15.782-29.238-7.287-57.882-18.24-82.949-35.12a228.851,228.851,0,0,1-57.509-57.356C78.728,589.586,78.2,453.957,128.884,345.919c25.4-54.129,61.153-103.341,80.4-160.236A218.974,218.974,0,0,0,220.877,96.7a243.3,243.3,0,0,0-21.489-79.284,356.232,356.232,0,0,0-20.721-38.72c-.593-.944-2.195,0-1.515.878Z" transform="translate(131.28 1579.62)" fill="url(#linear-gradient-14)"/>
      <path id="Контур_570" data-name="Контур 570" d="M191.21-20.8c31.147,57.07,45.788,121.977,27.657,185.72C201.461,226.094,161.6,277.105,132.187,332.6c-29,54.678-44.646,114.316-43.132,176.413a321.108,321.108,0,0,0,46.1,159.358,262.828,262.828,0,0,0,49.388,59.682,224.286,224.286,0,0,0,72.633,42.561c58.19,21.2,121.823,23.377,182.756,30.73,30.73,3.666,62.316,8.78,90,23.311,26.669,13.894,47.961,35.647,71.513,54.019,23.97,18.7,49.761,33.342,79.393,40.739,27.306,6.826,56.609,8.122,82.225,20.655a98.775,98.775,0,0,1,33.913,28.381c8.78,11.085,17.56,21.27,30.093,28.4s26.143,11.26,39.51,16.331a132.642,132.642,0,0,1,41.222,24.584c22.872,20.084,44.449,41.42,68.177,60.56a687.649,687.649,0,0,0,74.85,52.965q18.965,11.5,38.808,21.445c.944.483,1.756-.922.834-1.383-55.578-27.9-105.843-65.455-151.807-107.2-11.26-10.229-21.95-21.2-33.606-30.928a127.484,127.484,0,0,0-35.274-20.479c-14.048-5.553-28.711-9.768-41.9-17.3-13.675-7.792-22.455-19.36-32.267-31.279-17.1-20.787-40.081-31.081-65.85-36.657-30.73-6.585-61.614-10.229-89.886-25.308-27.152-14.465-49.563-35.274-73.247-54.568-22.17-18.087-45.963-31.389-73.73-38.7-28.689-7.529-58.409-9.9-87.8-13.17-32.069-3.49-64.314-6.739-96.01-12.907-30.247-5.883-60.143-14.9-87.142-30.05a225.756,225.756,0,0,1-63.984-54.985c-77.2-94.934-86.176-232.671-35.537-341.938C148.144,300.417,186.557,251.753,210,195.166c11.919-28.777,19.009-59.134,18.789-90.368a244.919,244.919,0,0,0-17.714-87.515A341.259,341.259,0,0,0,192.681-21.7c-.5-.922-1.91,0-1.4.834Z" transform="translate(128.439 1579.158)" fill="url(#linear-gradient-15)"/>
      <path id="Контур_571" data-name="Контур 571" d="M205.339-21.226c29.655,61,39.686,129.791,16.287,194.675-21.6,59.924-63.458,109.289-93.661,164.626C98,393.3,83.341,454.257,87.094,516.99a315.049,315.049,0,0,0,53.426,158.194,263.071,263.071,0,0,0,53.492,58.124,231.067,231.067,0,0,0,75.113,38.786c60.78,19.009,125.906,19.1,188.771,26.34,30.73,3.556,62.229,9.219,89.469,24.672,26.143,14.838,46.49,37.315,69.428,56.434s47.566,34.11,76.452,41.047,59.9,5.751,87.8,17.209a92.848,92.848,0,0,1,36.569,28.4c9.131,11.151,17.955,21.314,30.73,28.228s26.691,10.712,40.213,15.65a122.921,122.921,0,0,1,42.43,25.616c22.543,20.831,43.637,42.934,67.079,62.821a586.683,586.683,0,0,0,73.291,53.492,440.549,440.549,0,0,0,40.432,21.95c.878.417,1.646-.878.768-1.3-56.39-26.8-105.887-65.85-150.775-108.916-10.975-10.536-21.423-21.8-32.925-31.894a117.7,117.7,0,0,0-36.108-21.73c-14.575-5.619-29.918-9.483-43.747-16.946s-22.96-19.184-33.057-31.1c-18.241-21.577-43.044-30.576-70.24-34.659-31.806-4.741-62.909-7.485-91.62-23.421-26.516-14.707-47.939-35.91-70.526-55.775-21.665-19.053-45.042-33.649-72.984-41.53-28.535-8.056-58.365-10.4-87.8-13.17-32.925-3.029-65.85-5.553-98.6-10.624-31.323-4.851-62.492-12.533-91.071-26.56a227.225,227.225,0,0,1-67.233-51.341c-82.905-91.005-99.961-230.849-48.949-341.543C143.111,306.6,184.179,258.33,211.31,201.984c13.565-28.316,22.762-58.343,24.8-89.776a247.135,247.135,0,0,0-12.007-91.181,326.327,326.327,0,0,0-17.56-43.022c-.417-.856-1.712-.11-1.3.768Z" transform="translate(125.526 1578.815)" fill="url(#linear-gradient-16)"/>
      <path id="Контур_572" data-name="Контур 572" d="M219.506-21.621c27.525,63.941,33.057,135.322,5.685,200.338C200.124,238.246,155.7,286.58,124.352,342.552a310.089,310.089,0,0,0,21.292,338.36,265.6,265.6,0,0,0,55.512,55.49c24.672,18,52.68,29.962,82.2,37.578,62.689,16.155,128.5,14.377,192.458,21.643,31.454,3.578,63.524,10.075,90.632,27.284,25.923,16.484,45.7,40.5,68.835,60.341s49.1,35.12,79.525,40.651c29.194,5.29,60.121,2.349,88.13,13.39,15.08,5.948,26.34,15.892,36.679,28.206,9.834,11.787,19.623,21.643,33.759,28.184,12.885,5.97,26.779,9.329,40.1,14.18a113.44,113.44,0,0,1,42.1,27.064c21.95,21.665,42.605,44.186,65.7,64.6a508.15,508.15,0,0,0,72.9,54.48,365.707,365.707,0,0,0,39.905,21.094c.812.373,1.515-.834.7-1.185-57.224-25.769-106.041-66.531-149.963-110.738-20.765-20.9-38.961-44.164-67.167-55.139-14.685-5.729-30.2-9.131-44.471-15.892-14.992-7.112-24.694-18.306-35.12-30.73a86.9,86.9,0,0,0-32.837-24.694,135.235,135.235,0,0,0-37.776-8.78c-15.628-1.69-31.345-2.2-46.885-4.39a146.036,146.036,0,0,1-48.137-15.65c-26.977-14.641-48.29-36.613-70.24-57.553-21.094-20.084-43.768-36.481-71.821-45.327-28.974-9.131-59.572-11.524-89.71-13.872-33.035-2.546-66.2-4.39-99.127-8.187-33.43-3.885-66.882-10.36-97.919-23.75a230.476,230.476,0,0,1-71.689-49.739C84.6,621.275,60.631,479.631,113.07,367.444c26.933-57.6,70.24-105.207,100.29-161,14.948-27.767,25.769-57.334,29.742-88.722a251.855,251.855,0,0,0-6.87-95.549,315.018,315.018,0,0,0-15.541-44.493c-.351-.812-1.537-.11-1.185.7Z" transform="translate(122.576 1578.442)" fill="url(#linear-gradient-17)"/>
      <path id="Контур_573" data-name="Контур 573" d="M233.65-22.2c25.4,67.079,26.34,141.051-5.092,206.331-28.535,58.936-75.333,106.216-107.819,162.716A292.7,292.7,0,0,0,83.862,530.109a310.55,310.55,0,0,0,65.587,154.4,267.268,267.268,0,0,0,60.187,55.687c26.12,17.362,55.512,28.272,86.066,34.835,64.775,13.872,131.832,10.141,197.4,17.56,31.433,3.556,63.3,10.58,90,28.535,25.769,17.428,44.976,42.451,67.87,63.194s48.8,36.679,79.657,41.53c30.115,4.7,61.658-.373,90.961,9.417,16.024,5.334,28.074,15.211,38.9,27.9,10.075,11.809,20.084,21.621,34.528,27.92,13.807,6.014,28.645,9.109,42.781,14.224a107.049,107.049,0,0,1,41.815,28.316c21.467,22.543,41.925,45.788,64.863,66.882a451.037,451.037,0,0,0,71.733,54.875,320.853,320.853,0,0,0,40.256,20.677c.724.307,1.383-.79.636-1.1-57.773-24.628-105.777-66.684-148.536-111.814-20.326-21.467-38.215-46.468-66.6-57.641-15.168-5.97-31.345-9.021-46.315-15.541-15.782-6.848-25.9-18.2-36.964-30.84a82.335,82.335,0,0,0-31.5-23.179,127.553,127.553,0,0,0-39.664-7.968c-15.98-1.01-32.025-.571-47.961-2.2a134.512,134.512,0,0,1-50.485-15.124c-27.262-14.816-48.18-37.71-69.67-59.572-21.072-21.423-43.7-39.313-72.567-48.839s-59.265-11.941-89.381-13.872c-33.408-2.2-66.926-3.358-100.29-6.124-33.891-2.81-67.87-7.792-99.961-19.47a232.673,232.673,0,0,1-76.584-46.929c-92.19-83.761-125.006-226.635-73.006-340.687,26.823-58.87,72.282-105.975,105.777-160.74,17.253-28.206,30.6-58.409,36.679-91.049a257.8,257.8,0,0,0-1.1-97.919,307.306,307.306,0,0,0-14-48c-.285-.746-1.515-.417-1.229.329Z" transform="translate(119.561 1578.098)" fill="url(#linear-gradient-18)"/>
      <path id="Контур_574" data-name="Контур 574" d="M247.908-22.669C270.8,46.715,267.663,122.4,232.851,187.305,201.44,245.934,152.1,292.227,118.161,349.187a277.932,277.932,0,0,0-36,184.227,310.329,310.329,0,0,0,73.467,157.36,269.063,269.063,0,0,0,64.16,54.041c27.767,16.572,58.782,26.164,90.544,31.5,66.333,11.129,134.137,5.707,200.821,13.368,32.6,3.732,65.126,11.985,91.663,32.135,25.484,19.36,44.208,45.876,67.694,67.365,22.565,20.655,48.444,35.691,79.24,39.137,31.74,3.556,64.819-3.929,95.637,6.717,15.826,5.466,27.064,15.826,37.842,28.228,10.163,11.677,20.7,20.436,35.274,26.1s29.611,8.3,44.032,13.631c15.98,5.927,28.535,15.87,39.927,28.425,21.182,23.333,41.244,47.412,64.028,69.3a408.424,408.424,0,0,0,72.9,56.96,283.877,283.877,0,0,0,39.51,19.558c.68.285.966-.812.307-1.1-59.529-23.882-107.468-68.374-149.744-115.5-20.062-22.345-37.469-47.851-66.662-58.651-14.443-5.334-29.7-8.056-44.032-13.631a76.1,76.1,0,0,1-22.5-13.016A176.831,176.831,0,0,1,880.2,958.06,80.559,80.559,0,0,0,847.5,934.639c-13.324-4.917-27.679-6.409-41.705-6.585-16.4-.241-32.925.988-49.212-.154a124.084,124.084,0,0,1-50.485-14.026c-27.789-14.992-48.554-38.918-69.67-61.768-20.633-22.345-42.781-41.705-71.821-51.956s-59.88-12.775-90.237-14.4c-34.615-1.866-69.3-2.393-103.89-4.39C336.235,779.474,301.84,775.7,269,765.426A237.279,237.279,0,0,1,186.58,719.77C90.373,638.423,50.314,493.158,104.6,377.151c27.745-59.265,75.245-105.514,111.243-159.4,18.7-27.986,33.562-58.1,41.332-90.961a264.324,264.324,0,0,0,4.039-98.6,302.427,302.427,0,0,0-12.2-51.078c-.241-.68-1.339-.4-1.119.307Z" transform="translate(116.519 1577.734)" fill="url(#linear-gradient-19)"/>
      <path id="Контур_575" data-name="Контур 575" d="M262.2-22.95c20.392,71.689,13.06,149.063-24.979,213.574C203.084,248.594,151.611,293.79,116.14,350.86a258.023,258.023,0,0,0-35.559,90.456,276.9,276.9,0,0,0,.5,98.556,311.889,311.889,0,0,0,79.547,155.6,273.016,273.016,0,0,0,66.333,52.175c29.018,16.045,61.153,24.782,93.858,29.237,69.428,9.5,140.02,1.646,209.535,10.163,32.925,4.017,64.95,13.433,90.829,34.879,24.343,20.172,42.144,46.776,64.862,68.594s48.861,37.447,80.535,40.059c32.925,2.7,66.882-7.09,99.17,3.073,16.046,5.027,27.372,15.124,38.3,27.46,10.36,11.656,21.248,20.414,36.042,25.791,15.255,5.575,31.476,7.924,46.688,13.7,16.836,6.366,29.347,17.78,40.805,31.323,40.191,47.676,80.469,95.966,134.905,127.991a259.3,259.3,0,0,0,38.632,18.57c.615.219.878-.768.263-1.01-59.792-22.762-106.853-68.353-147.834-116.072-19.755-22.982-36.942-50.639-66.465-61.789-14.575-5.531-30.094-7.924-44.8-13.016a77.263,77.263,0,0,1-24.935-13.411,180.765,180.765,0,0,1-16.506-17.3,77.462,77.462,0,0,0-34.769-23.223,125.117,125.117,0,0,0-40.344-4.7c-17.428.373-34.791,2.634-52.263,1.975a114.6,114.6,0,0,1-52.636-14.136c-27.7-15.5-47.873-40.213-68.44-63.655-19.755-22.7-41.2-42.781-69.757-53.822-29.435-11.392-61.46-13.938-92.761-15.365-34.615-1.515-69.231-1.4-103.846-2.349-35.6-.966-71.469-3.534-106-12.819a242.242,242.242,0,0,1-87.032-43.9C92.7,645.1,44.912,497.333,101.631,379.285c28.8-60.012,78.779-105.58,117.323-158.941,19.865-27.5,35.976-57.2,45.349-90a272.18,272.18,0,0,0,8.758-104.5,300.918,300.918,0,0,0-9.768-49.058.511.511,0,0,0-.626-.362.511.511,0,0,0-.362.626Z" transform="translate(113.448 1577.356)" fill="url(#linear-gradient-20)"/>
      <path id="Контур_576" data-name="Контур 576" d="M276.487-23.331c17.56,72.435,7,150.139-32.6,213.75-36.415,58.475-91.005,102.748-128.671,160.236a247.07,247.07,0,0,0-37.1,89.776A265.9,265.9,0,0,0,79,540.149c11.633,59.265,42.5,115.106,84.925,158.04A278.92,278.92,0,0,0,233.4,749.926c29.764,15.365,62.448,23.443,95.614,27.2,71.513,8.1,143.883-1.69,215.4,6.585,34.374,3.995,67.65,14.114,94.012,37.315,23.794,21.028,40.981,48.18,63.282,70.613s48.927,39.115,81.215,40.981c33.847,1.954,68.045-9.856,101.563-1.076,17.011,4.39,29,14.487,40.542,27.24,11.129,12.27,22.7,20.984,38.632,26.121,15.167,4.895,31.125,6.98,46.1,12.577,17.56,6.585,30.181,18.987,41.705,33.408,38.61,48.4,78.01,97.963,132.161,129.9a236.6,236.6,0,0,0,39.861,18.745c.549.2.79-.68.241-.878-60.714-21.95-107.27-68.989-147.329-117.85-19.448-23.706-36.349-52.965-66.4-64.2-14.97-5.6-30.928-7.682-46.1-12.577a80.466,80.466,0,0,1-22.279-10.668c-7.682-5.466-13.675-12.841-20.018-19.755a75.444,75.444,0,0,0-35.12-22.5c-13.741-3.929-28.272-4.28-42.451-3.358-18.153,1.163-36.13,4.39-54.348,4.149a107.908,107.908,0,0,1-52.153-13.3c-28.316-15.848-48.29-41.815-68.682-66.355S626.876,806.25,596.827,794.7c-29.5-11.326-61.614-13.741-92.915-14.75-35.559-1.163-71.074-.351-106.633-.527-37.315-.176-75.047-1.866-111.419-10.975a247.4,247.4,0,0,1-86.549-40.893C94.17,650.4,38.856,498.137,100.667,377.565c30.73-60.033,83.081-104.5,123.623-157.382,21.116-27.591,38.171-57.531,48.641-90.654A280.565,280.565,0,0,0,285.2,27.11a299.728,299.728,0,0,0-7.836-50.683C277.234-24.143,276.356-23.9,276.487-23.331Z" transform="translate(110.373 1576.991)" fill="url(#linear-gradient-20)"/>
      <path id="Контур_577" data-name="Контур 577" d="M290.792-23.754c14.926,74.082.856,152.663-41.178,215.769-38.544,57.86-95.044,100.795-134.664,157.8-19.4,27.964-33.584,58.936-39.752,92.52a257.234,257.234,0,0,0,2.5,102.112c13.3,59.55,46.249,115,90.171,157.075a284.429,284.429,0,0,0,73.555,51.473c31.411,15.014,65.675,21.95,100.224,24.826,72.435,5.817,145.551-5.51,217.964,2.634,34.791,3.907,68.287,14.443,94.517,38.5,23.9,21.95,40.7,50.134,62.887,73.6,21.687,22.938,48.115,40.586,80.447,42.188,35.713,1.756,71.14-12.907,106.721-4.873a70.633,70.633,0,0,1,22.565,9.219c7.946,5.092,14.136,12.116,20.523,18.987a83.212,83.212,0,0,0,39.949,24.848c15.5,4.39,31.74,6.234,46.819,12.094,17.78,6.914,30.006,20.326,41.244,35.12,37.447,49.563,76.43,100.729,131.064,132.513a217.3,217.3,0,0,0,39.51,17.977c.483.154.681-.615.219-.768-61.636-20.9-107.709-69.648-146.868-119.606-18.262-23.289-34.462-53.514-63.041-65.345-15.585-6.453-32.53-8.231-48.663-12.819a83.061,83.061,0,0,1-24.694-10.975c-7.858-5.444-13.938-12.841-20.458-19.755a73.269,73.269,0,0,0-36.064-21.95c-14.882-3.731-30.533-3.358-45.656-1.624-18.723,2.2-37.315,6.08-56.192,6.168a100.97,100.97,0,0,1-51.429-13.17c-28.974-16.66-48.685-44.186-68.989-69.845-19.557-24.738-41-46.929-70.811-58.87s-62.053-14.246-93.6-14.992c-37.074-.878-74.06.7-111.133,1.339-37.644.637-75.662,0-112.626-8.034a252.666,252.666,0,0,1-90.3-39.049c-109-75-172.659-230.629-106.809-353.66,32.6-60.868,88-104.526,130.954-157.448,22.279-27.46,40.41-57.663,52.022-91.159A289.016,289.016,0,0,0,297.4,26.2a300.717,300.717,0,0,0-5.839-50.134c-.11-.483-.856-.285-.768.219Z" transform="translate(107.285 1576.624)" fill="url(#linear-gradient-22)"/>
      <path id="Контур_578" data-name="Контур 578" d="M305.056-24.077c12.27,74.938-4.785,153.76-48.29,216.12-41.244,59-101.607,101.234-143.685,159.511-20.172,27.921-34.791,59.265-40.849,93.2A249.133,249.133,0,0,0,76.38,547.919c14.926,60.341,50.046,115.918,95.944,157.448a289.459,289.459,0,0,0,76.32,50.485C281.2,770.34,316.426,776.53,351.81,778.461c74.521,4.061,149.392-9.307,223.781-.988,35.691,3.995,69.494,15.475,95.659,40.893,24.145,23.4,40.564,53.141,63.348,77.659,21.95,23.772,49.212,41.178,82.532,41.156,36.349,0,71.93-16.243,108.389-8.495a67.586,67.586,0,0,1,23.333,9.351c7.617,5.049,13.653,11.9,19.909,18.46a80.755,80.755,0,0,0,39.071,23.574c16.243,4.39,33.254,5.839,49.036,11.919,18.2,7.024,30.357,21.2,41.464,36.657,36.283,50.485,74.389,103.165,129.088,135.1a203.887,203.887,0,0,0,40.674,18.131c.417.132.593-.527.176-.658-63.151-20.15-109.048-71.25-147.527-122.811-17.889-23.948-33.584-55.073-62.8-66.706-15.694-6.256-32.728-7.748-48.971-12.029a82.245,82.245,0,0,1-24.3-10.119c-7.419-4.829-13.324-11.414-19.36-17.8-10.69-11.3-22.279-19.755-37.666-23.4-14.707-3.49-30.115-2.919-44.976-.922-19.206,2.568-38.039,7.551-57.421,8.78a97.92,97.92,0,0,1-54-11.348c-30.138-16.616-50.024-45.656-70.24-72.435-19.162-25.55-40.191-49.168-70.109-61.987-30.247-12.995-63.853-15.365-96.383-15.892-37.205-.527-74.279,1.646-111.419,3.117-38.742,1.558-77.945,2-116.335-4.873a258.352,258.352,0,0,1-94.649-37.447c-53.251-34.374-95.658-86.022-120.528-144.124C63.057,524.521,59.984,446.532,94.906,381.56c33.869-63.063,93.2-106.414,139.207-159.687a309.8,309.8,0,0,0,55.424-90.105A298.235,298.235,0,0,0,309.71,26.408a301.4,301.4,0,0,0-3.995-50.683c0-.439-.724-.241-.659.176Z" transform="translate(104.237 1576.245)" fill="url(#linear-gradient-23)"/>
      <path id="Контур_579" data-name="Контур 579" d="M319.423-24.561a305.106,305.106,0,0,1-50.771,210.194c-37.688,54.743-92.717,93.815-136.881,142.719C111.139,351.137,92.92,376.467,81.287,405c-14.268,34.835-17.977,73.379-13.324,110.563,8.363,66.816,43.549,129.505,90.764,176.764A308.882,308.882,0,0,0,238.515,750.5c31.7,15.848,65.85,24.255,101.08,27.174,75.508,6.256,150.973-7.968,226.569-5.2,36.042,1.339,73.555,7.243,103.517,28.776s47.566,54.195,69.582,82.576c20.018,25.769,45.854,50.485,79.635,54.766,38.7,4.939,75.42-14.794,114.14-13.038a72.787,72.787,0,0,1,50.683,22.389c11.634,11.831,22.06,22.191,38.215,27.438s32.925,6.256,48.971,10.712c19.184,5.29,32.925,16.616,44.625,32.464,19.887,27.043,37.732,55.314,59.441,81.04,21.006,24.913,44.844,48.049,73.006,64.753a190.952,190.952,0,0,0,42.649,18.767.285.285,0,0,0,.154-.527c-66.641-20-112.955-75.947-151.456-130.735-9.482-13.5-18.131-27.833-28.667-40.542a75.486,75.486,0,0,0-37.776-25.243c-16.067-4.719-32.925-5.795-48.992-10.69a68.637,68.637,0,0,1-25.023-13.17c-6.585-5.575-12.007-12.2-18.219-18.109-24.694-23.487-59.485-21.072-90.522-14.575-20.787,4.39-41.705,10.119-63.194,9.2a93.112,93.112,0,0,1-51.583-19.075c-29.128-21.489-47.039-53.558-68.726-81.764a182.516,182.516,0,0,0-34.945-35.932,138.439,138.439,0,0,0-45.283-21.6c-33.342-9.438-68.616-9.153-102.968-8.495-37.864.7-75.574,4.39-113.394,6.058-38.435,1.6-77.418,1.163-115.062-7.507a268.162,268.162,0,0,1-94.122-43.11C145.534,688.2,101.832,630.715,80.123,566.4A245.665,245.665,0,0,1,69.148,450.065c5.509-34.615,20.194-66.443,40.937-94.517,38.72-52.439,92.8-90.676,135.5-139.537a308.443,308.443,0,0,0,76.54-188.4,300.442,300.442,0,0,0-2.2-52.175c0-.329-.593-.351-.549,0Z" transform="translate(101.087 1575.895)" fill="url(#linear-gradient-18)"/>
    </g>
  </g>
</svg>
