<svg xmlns="http://www.w3.org/2000/svg" height="292.701" width="687.88" xml:space="preserve"><defs><clipPath id="a" clipPathUnits="userSpaceOnUse"><path d="M0 219.526h515.91V0H0Z"/></clipPath></defs><g clip-path="url(#a)" transform="matrix(1.33333 0 0 -1.33333 0 292.701)"><path style="fill:#FFFF;fill-opacity:1;fill-rule:nonzero;stroke:none" d="M0 0c-2.222-3.169-4.943-7.301-8.171-12.401l-10.326-16.601-2.417-3.875c-.463-.561-1.238-1.785-2.325-3.652l3.188.294c4.913.449 9.394 1.597 13.434 3.461 3.969 1.847 6.977 4.044 9.036 6.601 2.116 2.71 3.029 5.596 2.745 8.679-.101 1.098-.331 2.041-.703 2.821l1.806.829c.521-.842.847-1.915.962-3.238.359-3.807-.793-7.353-3.449-10.625-2.574-3.346-6.523-6.228-11.835-8.642-4.969-2.232-10.976-3.74-17.993-4.548l-2.095-3.744c-4.523-7.073-8.745-13.333-12.678-18.797-3.931-5.469-7.623-10.248-11.094-14.342-5.272-6.057-10.604-11.455-15.995-16.249H35.504V13.649H10.69a236.764 236.764 0 0 1-3.082-3.634C4.569 6.184 2.024 2.837 0 0" transform="translate(224.013 148.134)"/><path style="fill:#FFFF;fill-opacity:1;fill-rule:nonzero;stroke:none" d="M0 0c4.335 4.987 8.299 10.121 11.875 15.411 3.844 5.6 8.289 12.709 13.331 21.302.971 1.571 1.711 2.674 2.248 3.319l-.657-.067c-.769-.006-21.335 1.952-38.544.685v-52.541C-7.753-8.265-3.84-4.306 0 0" transform="translate(163.583 66.573)"/><path style="fill:#FFFF;fill-opacity:1;fill-rule:nonzero;stroke:none" d="m0 0 .664.056.29.48c5.555 8.645 10.507 16.031 14.858 22.166a416.554 416.554 0 0 0 13.181 17.58 239.85 239.85 0 0 0 8.521 10.152h-78.933V-1.377C-34.455-.641-25.933-.092-15.631 0z" transform="translate(193.256 111.35)"/><path style="fill:#FFFF;fill-opacity:1;fill-rule:nonzero;stroke:none" d="M0 0c-2.768-1.295-6.06-2.116-9.868-2.475-5.714-.526-11.19-.513-16.419.044 2.347 1.842 5.875 3.651 10.595 5.408 4.644 1.76 8.576 2.796 11.797 3.091 4.692.43 7.131-.263 7.289-2.098C3.678 2.517 2.545 1.188 0 0m-3.854 8.065c-8.509-.786-16.681-3.912-24.535-9.366l-1.474-.798-1.43-.132a35.49 35.49 0 0 1-2.693.303c-.884.067-1.776.128-2.674.195-.157.058-1.132.173-2.912.338-1.801.173-3.576.32-5.374.457C-55.178.179-62.994.819-68.404.988c-6.006.181-12.855-.079-20.554-.796a164.724 164.724 0 0 1-20.771-3.244c-6.522-1.493-12.775-3.366-18.77-5.624-5.562-2.213-11.437-5.05-17.629-8.501-5.83-3.351-11.26-7.032-16.276-11.043-5.796-4.532-10.884-9.406-15.288-14.611-4.461-5.223-8.402-10.971-11.813-17.288-3.276-6.139-5.705-12.238-7.287-18.301-1.579-6.143-2.144-11.699-1.672-16.687.4-4.325 1.776-8.448 4.133-12.367l1.351 2.234c-1.791 3.387-2.849 6.844-3.175 10.352-.868 9.386 1.739 20.304 7.836 32.774 3.576 6.838 7.304 12.582 11.152 17.218 4.209 4.908 9.543 9.905 16.028 15.014 9.443 7.314 19.579 13.237 30.401 17.782 11.043 4.497 21.911 7.247 32.621 8.228 4.251.398 8.853.6 13.796.615 6.725.107 16.942-.47 30.659-1.71a1151.12 1151.12 0 0 1 16.189-1.158l1.561-.083c-4.523-3.894-8.975-8.171-13.347-12.827a195.769 195.769 0 0 1-4.39-4.838h3.933c1.916 2.213 3.635 4.103 5.154 5.661 6.284 6.421 10.386 10.353 12.33 11.787l1.56-.078c7.099-.087 12.271.03 15.485.325C-8.657-5.58-3.481-4.282.324-2.305 4.203-.317 6.025 1.924 5.797 4.418 5.519 7.42 2.301 8.632-3.854 8.065" transform="translate(284.42 185.656)"/><path style="fill:#FFFF;fill-opacity:1;fill-rule:nonzero;stroke:none" d="m0 0-1.694-3.369 3.231 1.078C6.002-.997 11.807.717 18.055 1.681c2.449.388 5.073.661 7.771.858v2.749C7.418 3.33 0 0 0 0" transform="translate(126.01 104.685)"/><path style="fill:#FFFF;fill-opacity:1;fill-rule:nonzero;stroke:none" d="M0 0c-5.689-5.174-11.525-9.661-17.52-13.436l-3.142-1.958c-11.611-6.318-22.884-9.984-33.81-11.001-7.844-.719-15.036-.061-21.581 1.999-6.553 2.057-11.731 5.278-15.538 9.648-3.882 4.447-6.09 9.643-6.646 15.585-.617 6.665.701 12.746 3.968 18.219 3.256 5.472 7.771 9.114 13.516 10.893l-.203 2.198c-6.146-1.448-11.078-5.271-14.795-11.458-3.867-6.195-5.456-12.884-4.801-20.069.892-9.601 5.701-17.183 14.417-22.73 8.642-5.566 19.195-7.756 31.657-6.607 5.644.519 11.588 1.884 17.805 4.08a102.92 102.92 0 0 1 18.327 8.129l2.868 1.374C-8.812-11.202-2.226-6.347 4.267-.578H0z" transform="translate(151.837 54.683)"/><path style="fill:#0B0101;fill-opacity:1;fill-rule:nonzero;stroke:none" d="M0 0h-72.661l1.157 1.254H0Z" transform="translate(259.518 86.225)"/><path style="fill:#FFFF;fill-opacity:1;fill-rule:nonzero;stroke:none" d="M0 0h22.277v-1.218H1.601V-14.21h18.447v-1.347H1.601v-14.961H0Z" transform="translate(269.996 128.367)"/><path style="fill:#FFFF;fill-opacity:1;fill-rule:nonzero;stroke:none" d="m0 0-8.323-17.947H8.323Zm.917 1.263 14.464-30.518h-1.857L8.947-19.3H-8.96l-4.583-9.955h-1.85L-.927 1.263Z" transform="translate(328.588 127.105)"/><path style="fill:#FFFF;fill-opacity:1;fill-rule:nonzero;stroke:none" d="M0 0v-27.578h-1.591V2.939H.262l15.884-29.012L32.033 2.939h1.851v-30.517h-1.588V-.044L17.113-27.578h-1.85z" transform="translate(371.315 125.428)"/><path style="fill:#FFFF;fill-opacity:1;fill-rule:nonzero;stroke:none" d="m0 0-8.317-17.947H8.326Zm.924 1.263 14.463-30.518h-1.85L8.947-19.3H-8.96l-4.577-9.955h-1.85L-.927 1.263z" transform="translate(446.343 127.105)"/><path style="fill:#FFFF;fill-opacity:1;fill-rule:nonzero;stroke:none" d="M0 0h-.497v2.162C-.651 1.6-1.01 1.167-1.347.83-2.155.04-3.289-.18-4.268-.18c-2.113 0-2.953.863-2.953 2.848v5.087h.51V3.388c0-2.162.463-3.141 2.616-3.141 1.914 0 3.598 1.374 3.585 3.592l-.006 3.916H0Z" transform="translate(276.244 68.226)"/><path style="fill:#FFFF;fill-opacity:1;fill-rule:nonzero;stroke:none" d="M0 0h.503v-1.924C.793-.843 2.094.207 4.07.207c1.547 0 3.135-.651 3.135-2.866v-5.096h-.494v4.899c0 1.568-.726 2.652-2.613 2.652C2.554-.204.503-.957.503-3.502v-4.253H0z" transform="translate(284 75.98)"/><path style="fill:#FFFF;fill-opacity:1;fill-rule:nonzero;stroke:none" d="M299.074 75.98h.501v-7.755h-.501zm.501 1.999h-.501v.988h.501z"/><path style="fill:#FFFF;fill-opacity:1;fill-rule:nonzero;stroke:none" d="M0 0c2.134 0 3.595 1.479 3.595 3.625 0 2.196-1.461 3.682-3.595 3.682-2.131 0-3.598-1.513-3.598-3.682C-3.598 1.494-2.131 0 0 0m-.013-.424c-2.523 0-4.113 1.607-4.113 4.049 0 2.456 1.581 4.093 4.113 4.093 1.372 0 2.851-.507 3.608-2.264v2.057h.509V-3.228h-.509v4.982C2.938.107 1.318-.424-.013-.424" transform="translate(311.11 68.47)"/><path style="fill:#FFFF;fill-opacity:1;fill-rule:nonzero;stroke:none" d="M0 0h-.488v2.162C-.651 1.6-1.004 1.167-1.35.83-2.159.04-3.286-.18-4.265-.18c-2.113 0-2.947.863-2.947 2.848v5.087h.504V3.388c0-2.162.457-3.141 2.622-3.141 1.909 0 3.598 1.374 3.589 3.592l-.022 3.916H0Z" transform="translate(330.24 68.226)"/><path style="fill:#FFFF;fill-opacity:1;fill-rule:nonzero;stroke:none" d="M0 0c0 2.165-1.665 3.283-3.549 3.283-1.912 0-3.437-1.174-3.623-3.283Zm-3.549-4.447c-2.563 0-4.157 1.566-4.157 4.049 0 2.496 1.615 4.092 4.157 4.092 2.518 0 4.145-1.636 4.145-4.098h-7.768c.149-2.477 1.564-3.617 3.623-3.617 1.507 0 2.734.742 3.086 1.834h.667c-.331-1.288-1.721-2.26-3.753-2.26" transform="translate(345.241 72.493)"/><path style="fill:#FFFF;fill-opacity:1;fill-rule:nonzero;stroke:none" d="M0 0c-2.128 0-3.602-1.479-3.602-3.672 0-2.146 1.474-3.636 3.602-3.636 2.134 0 3.607 1.511 3.607 3.636C3.607-1.504 2.134 0 0 0m-3.602-10.522h-.497V.21h.497v-2.057C-2.848-.086-1.362.417.016.417c2.526 0 4.116-1.631 4.116-4.089 0-2.436-1.597-4.058-4.116-4.058-1.335 0-2.944.534-3.618 2.174z" transform="translate(367.253 75.622)"/><path style="fill:#FFFF;fill-opacity:1;fill-rule:nonzero;stroke:none" d="M0 0v7.755h.5V5.698c.461 1.613 1.508 2.264 2.585 2.264.402 0 .905-.071 1.088-.161v-.49c-.186.123-.507.24-1.155.24C1.522 7.551.5 5.605.5 4.169V0Z" transform="translate(378.69 68.226)"/><path style="fill:#FFFF;fill-opacity:1;fill-rule:nonzero;stroke:none" d="M0 0c0 2.165-1.662 3.283-3.539 3.283-1.934 0-3.453-1.174-3.629-3.283Zm-3.539-4.447c-2.576 0-4.16 1.566-4.16 4.049 0 2.496 1.615 4.092 4.16 4.092C-1.02 3.694.59 2.058.59-.404h-7.758c.151-2.477 1.553-3.617 3.629-3.617 1.501 0 2.718.742 3.079 1.834h.673c-.33-1.288-1.724-2.26-3.752-2.26" transform="translate(396.677 72.493)"/><path style="fill:#FFFF;fill-opacity:1;fill-rule:nonzero;stroke:none" d="M0 0c.139-1.146 1.304-1.887 3.156-1.887 1.968 0 3.169.67 3.169 1.856 0 .921-.701 1.393-1.809 1.563l-2.412.358c-1.789.254-2.441.756-2.441 1.986 0 1.288 1.128 2.115 3.432 2.115 2.266 0 3.45-.898 3.48-2.062h-.577C5.85 4.963 4.71 5.615 2.935 5.615 1.272 5.615.22 4.938.22 3.929c0-1.044.864-1.415 2.165-1.591l2.131-.327c1.735-.25 2.372-.739 2.372-1.937 0-1.572-1.199-2.372-3.836-2.372C.735-2.298-.457-1.365-.547 0z" transform="translate(404.389 70.224)"/><path style="fill:#FFFF;fill-opacity:1;fill-rule:nonzero;stroke:none" d="M0 0c0 2.165-1.655 3.283-3.539 3.283-1.912 0-3.44-1.174-3.62-3.283zm-3.539-4.447c-2.569 0-4.157 1.566-4.157 4.049 0 2.496 1.615 4.092 4.157 4.092 2.514 0 4.133-1.636 4.133-4.098h-7.753c.148-2.477 1.545-3.617 3.62-3.617 1.498 0 2.727.742 3.079 1.834h.67c-.32-1.288-1.72-2.26-3.749-2.26" transform="translate(425.572 72.493)"/><path style="fill:#FFFF;fill-opacity:1;fill-rule:nonzero;stroke:none" d="M0 0h.497v-1.924C.806-.843 2.091.207 4.076.207c1.538 0 3.138-.651 3.138-2.866v-5.096h-.506v4.899c0 1.568-.726 2.652-2.613 2.652C2.56-.204.497-.957.497-3.502v-4.253H0z" transform="translate(433.42 75.98)"/><path style="fill:#FFFF;fill-opacity:1;fill-rule:nonzero;stroke:none" d="M0 0c.358 0 .801.213.801.213v-.46C.538-.353.118-.427-.284-.427c-1.077 0-1.331.531-1.331 1.971v5.547h-1.457v.432h1.457v2.548h.504V7.523H.778v-.432h-1.889V1.658C-1.111.72-1.019 0 0 0" transform="translate(450.512 68.473)"/><path style="fill:#FFFF;fill-opacity:1;fill-rule:nonzero;stroke:none" d="M0 0c.136-1.146 1.31-1.887 3.156-1.887 1.965 0 3.166.67 3.166 1.856 0 .921-.695 1.393-1.803 1.563l-2.418.358C.309 2.144-.34 2.646-.34 3.876c0 1.288 1.134 2.115 3.438 2.115 2.267 0 3.447-.898 3.477-2.062h-.58c-.142 1.034-1.282 1.686-3.06 1.686-1.66 0-2.712-.677-2.712-1.686 0-1.044.864-1.415 2.168-1.591l2.128-.327c1.732-.25 2.372-.739 2.372-1.937 0-1.572-1.208-2.372-3.833-2.372-2.31 0-3.512.933-3.595 2.298z" transform="translate(457.878 70.224)"/><path style="fill:#FFFF;fill-opacity:1;fill-rule:nonzero;stroke:none" d="M462.925 86.107H259.518v1.072h203.407z"/></g></svg>