<?xml version="1.0" encoding="UTF-8" standalone="no"?>
<svg
   xmlns:dc="http://purl.org/dc/elements/1.1/"
   xmlns:cc="http://creativecommons.org/ns#"
   xmlns:rdf="http://www.w3.org/1999/02/22-rdf-syntax-ns#"
   xmlns:svg="http://www.w3.org/2000/svg"
   xmlns="http://www.w3.org/2000/svg"
   viewBox="0 0 687.88 292.70132"
   height="292.70132"
   width="687.88"
   xml:space="preserve"
   id="svgCool"
   version="1.1"><metadata
     id="metadata8"><rdf:RDF><cc:Work
         rdf:about=""><dc:format>image/svg+xml</dc:format><dc:type
           rdf:resource="http://purl.org/dc/dcmitype/StillImage" /></cc:Work></rdf:RDF></metadata><defs
     id="defs6"><clipPath
       id="clipPath18"
       clipPathUnits="userSpaceOnUse"><path
         id="path16"
         d="M 0,219.526 H 515.91 V 0 H 0 Z" /></clipPath></defs><g
     transform="matrix(1.3333333,0,0,-1.3333333,0,292.70133)"
     id="g10"><g
       id="g12"><g
         clip-path="url(#clipPath18)"
         id="g14"><g
           transform="translate(224.0132,148.1338)"
           id="g20"><path
             id="path22"
             style="fill:#584840;fill-opacity:1;fill-rule:nonzero;stroke:none"
             d="m 0,0 c -2.222,-3.169 -4.943,-7.301 -8.171,-12.401 l -10.326,-16.601 -2.417,-3.875 c -0.463,-0.561 -1.238,-1.785 -2.325,-3.652 l 3.188,0.294 c 4.913,0.449 9.394,1.597 13.434,3.461 3.969,1.847 6.977,4.044 9.036,6.601 2.116,2.71 3.029,5.596 2.745,8.679 -0.101,1.098 -0.331,2.041 -0.703,2.821 l 1.806,0.829 c 0.521,-0.842 0.847,-1.915 0.962,-3.238 0.359,-3.807 -0.793,-7.353 -3.449,-10.625 -2.574,-3.346 -6.523,-6.228 -11.835,-8.642 -4.969,-2.232 -10.976,-3.74 -17.993,-4.548 l -2.095,-3.744 c -4.523,-7.073 -8.745,-13.333 -12.678,-18.797 -3.931,-5.469 -7.623,-10.248 -11.094,-14.342 -5.272,-6.057 -10.604,-11.455 -15.995,-16.249 H 35.504 V 13.649 H 10.69 C 9.711,12.523 8.691,11.313 7.608,10.015 4.569,6.184 2.024,2.837 0,0" /></g><g
           transform="translate(163.5835,66.5732)"
           id="g24"><path
             id="path26"
             style="fill:#584840;fill-opacity:1;fill-rule:nonzero;stroke:none"
             d="m 0,0 c 4.335,4.987 8.299,10.121 11.875,15.411 3.844,5.6 8.289,12.709 13.331,21.302 0.971,1.571 1.711,2.674 2.248,3.319 L 26.797,39.965 C 26.028,39.959 5.462,41.917 -11.747,40.65 V -11.891 C -7.753,-8.265 -3.84,-4.306 0,0" /></g><g
           transform="translate(193.2563,111.3496)"
           id="g28"><path
             id="path30"
             style="fill:#584840;fill-opacity:1;fill-rule:nonzero;stroke:none"
             d="m 0,0 0.664,0.056 0.29,0.48 c 5.555,8.645 10.507,16.031 14.858,22.166 4.354,6.129 8.74,11.979 13.181,17.58 2.801,3.536 5.648,6.91 8.521,10.152 H -41.419 V -1.377 c 6.964,0.736 15.486,1.285 25.788,1.377 z" /></g><g
           transform="translate(284.4199,185.6563)"
           id="g32"><path
             id="path34"
             style="fill:#584840;fill-opacity:1;fill-rule:nonzero;stroke:none"
             d="m 0,0 c -2.768,-1.295 -6.06,-2.116 -9.868,-2.475 -5.714,-0.526 -11.19,-0.513 -16.419,0.044 2.347,1.842 5.875,3.651 10.595,5.408 4.644,1.76 8.576,2.796 11.797,3.091 C 0.797,6.498 3.236,5.805 3.394,3.97 3.678,2.517 2.545,1.188 0,0 M -3.854,8.065 C -12.363,7.279 -20.535,4.153 -28.389,-1.301 l -1.474,-0.798 -1.43,-0.132 c -0.905,0.136 -1.793,0.237 -2.693,0.303 -0.884,0.067 -1.776,0.128 -2.674,0.195 -0.157,0.058 -1.132,0.173 -2.912,0.338 -1.801,0.173 -3.576,0.32 -5.374,0.457 -10.232,1.117 -18.048,1.757 -23.458,1.926 -6.006,0.181 -12.855,-0.079 -20.554,-0.796 -7.113,-0.656 -14.036,-1.741 -20.771,-3.244 -6.522,-1.493 -12.775,-3.366 -18.77,-5.624 -5.562,-2.213 -11.437,-5.05 -17.629,-8.501 -5.83,-3.351 -11.26,-7.032 -16.276,-11.043 -5.796,-4.532 -10.884,-9.406 -15.288,-14.611 -4.461,-5.223 -8.402,-10.971 -11.813,-17.288 -3.276,-6.139 -5.705,-12.238 -7.287,-18.301 -1.579,-6.143 -2.144,-11.699 -1.672,-16.687 0.4,-4.325 1.776,-8.448 4.133,-12.367 l 1.351,2.234 c -1.791,3.387 -2.849,6.844 -3.175,10.352 -0.868,9.386 1.739,20.304 7.836,32.774 3.576,6.838 7.304,12.582 11.152,17.218 4.209,4.908 9.543,9.905 16.028,15.014 9.443,7.314 19.579,13.237 30.401,17.782 11.043,4.497 21.911,7.247 32.621,8.228 4.251,0.398 8.853,0.6 13.796,0.615 6.725,0.107 16.942,-0.47 30.659,-1.71 6.111,-0.473 11.502,-0.863 16.189,-1.158 l 1.561,-0.083 c -4.523,-3.894 -8.975,-8.171 -13.347,-12.827 -1.475,-1.566 -2.936,-3.187 -4.39,-4.838 h 3.933 c 1.916,2.213 3.635,4.103 5.154,5.661 6.284,6.421 10.386,10.353 12.33,11.787 l 1.56,-0.078 c 7.099,-0.087 12.271,0.03 15.485,0.325 6.53,0.598 11.706,1.896 15.511,3.873 3.879,1.988 5.701,4.229 5.473,6.723 C 5.519,7.42 2.301,8.632 -3.854,8.065" /></g><g
           transform="translate(126.0107,104.6846)"
           id="g36"><path
             id="path38"
             style="fill:#584840;fill-opacity:1;fill-rule:nonzero;stroke:none"
             d="m 0,0 -1.694,-3.369 3.231,1.078 c 4.465,1.294 10.27,3.008 16.518,3.972 2.449,0.388 5.073,0.661 7.771,0.858 V 5.288 C 7.418,3.33 0,0 0,0" /></g><g
           transform="translate(151.8369,54.6826)"
           id="g40"><path
             id="path42"
             style="fill:#584840;fill-opacity:1;fill-rule:nonzero;stroke:none"
             d="m 0,0 c -5.689,-5.174 -11.525,-9.661 -17.52,-13.436 l -3.142,-1.958 c -11.611,-6.318 -22.884,-9.984 -33.81,-11.001 -7.844,-0.719 -15.036,-0.061 -21.581,1.999 -6.553,2.057 -11.731,5.278 -15.538,9.648 -3.882,4.447 -6.09,9.643 -6.646,15.585 -0.617,6.665 0.701,12.746 3.968,18.219 3.256,5.472 7.771,9.114 13.516,10.893 l -0.203,2.198 c -6.146,-1.448 -11.078,-5.271 -14.795,-11.458 -3.867,-6.195 -5.456,-12.884 -4.801,-20.069 0.892,-9.601 5.701,-17.183 14.417,-22.73 8.642,-5.566 19.195,-7.756 31.657,-6.607 5.644,0.519 11.588,1.884 17.805,4.08 6.461,2.15 12.566,4.862 18.327,8.129 l 2.868,1.374 c 6.666,3.932 13.252,8.787 19.745,14.556 l -4.267,0 z" /></g><g
           transform="translate(259.5176,86.2246)"
           id="g44"><path
             id="path46"
             style="fill:#ec9e36;fill-opacity:1;fill-rule:nonzero;stroke:none"
             d="m 0,0 h -72.661 l 1.157,1.254 H 0 Z" /></g><g
           transform="translate(269.9961,128.3672)"
           id="g48"><path
             id="path50"
             style="fill:#2a2a2a;fill-opacity:1;fill-rule:nonzero;stroke:none"
             d="M 0,0 H 22.277 V -1.218 H 1.601 V -14.21 h 18.447 v -1.347 H 1.601 V -30.518 H 0 Z" /></g><g
           transform="translate(328.5879,127.1045)"
           id="g52"><path
             id="path54"
             style="fill:#2a2a2a;fill-opacity:1;fill-rule:nonzero;stroke:none"
             d="M 0,0 -8.323,-17.947 H 8.323 Z M 0.917,1.263 15.381,-29.255 H 13.524 L 8.947,-19.3 H -8.96 l -4.583,-9.955 h -1.85 L -0.927,1.263 Z" /></g><g
           transform="translate(371.3145,125.4277)"
           id="g56"><path
             id="path58"
             style="fill:#2a2a2a;fill-opacity:1;fill-rule:nonzero;stroke:none"
             d="M 0,0 V -27.578 H -1.591 V 2.939 H 0.262 L 16.146,-26.073 32.033,2.939 h 1.851 V -27.578 H 32.296 V -0.044 L 17.113,-27.578 h -1.85 z" /></g><g
           transform="translate(446.3428,127.1045)"
           id="g60"><path
             id="path62"
             style="fill:#2a2a2a;fill-opacity:1;fill-rule:nonzero;stroke:none"
             d="M 0,0 -8.317,-17.947 H 8.326 Z m 0.924,1.263 14.463,-30.518 h -1.85 L 8.947,-19.3 H -8.96 l -4.577,-9.955 h -1.85 l 14.46,30.518 z" /></g><g
           transform="translate(276.2441,68.2256)"
           id="g64"><path
             id="path66"
             style="fill:#584840;fill-opacity:1;fill-rule:nonzero;stroke:none"
             d="M 0,0 H -0.497 V 2.162 C -0.651,1.6 -1.01,1.167 -1.347,0.83 -2.155,0.04 -3.289,-0.18 -4.268,-0.18 c -2.113,0 -2.953,0.863 -2.953,2.848 v 5.087 h 0.51 V 3.388 c 0,-2.162 0.463,-3.141 2.616,-3.141 1.914,0 3.598,1.374 3.585,3.592 L -0.516,7.755 H 0 Z" /></g><g
           transform="translate(284,75.9805)"
           id="g68"><path
             id="path70"
             style="fill:#584840;fill-opacity:1;fill-rule:nonzero;stroke:none"
             d="m 0,0 h 0.503 v -1.924 c 0.29,1.081 1.591,2.131 3.567,2.131 1.547,0 3.135,-0.651 3.135,-2.866 V -7.755 H 6.711 v 4.899 c 0,1.568 -0.726,2.652 -2.613,2.652 -1.544,0 -3.595,-0.753 -3.595,-3.298 v -4.253 l -0.503,0 z" /></g><path
           id="path72"
           style="fill:#584840;fill-opacity:1;fill-rule:nonzero;stroke:none"
           d="m 299.074,75.98 h 0.501 v -7.755 h -0.501 z m 0.501,1.999 h -0.501 v 0.988 h 0.501 z" /><g
           transform="translate(311.1104,68.4697)"
           id="g74"><path
             id="path76"
             style="fill:#584840;fill-opacity:1;fill-rule:nonzero;stroke:none"
             d="M 0,0 C 2.134,0 3.595,1.479 3.595,3.625 3.595,5.821 2.134,7.307 0,7.307 -2.131,7.307 -3.598,5.794 -3.598,3.625 -3.598,1.494 -2.131,0 0,0 m -0.013,-0.424 c -2.523,0 -4.113,1.607 -4.113,4.049 0,2.456 1.581,4.093 4.113,4.093 1.372,0 2.851,-0.507 3.608,-2.264 V 7.511 H 4.104 V -3.228 H 3.595 V 1.754 C 2.938,0.107 1.318,-0.424 -0.013,-0.424" /></g><g
           transform="translate(330.2402,68.2256)"
           id="g78"><path
             id="path80"
             style="fill:#584840;fill-opacity:1;fill-rule:nonzero;stroke:none"
             d="M 0,0 H -0.488 V 2.162 C -0.651,1.6 -1.004,1.167 -1.35,0.83 -2.159,0.04 -3.286,-0.18 -4.265,-0.18 c -2.113,0 -2.947,0.863 -2.947,2.848 v 5.087 h 0.504 V 3.388 c 0,-2.162 0.457,-3.141 2.622,-3.141 1.909,0 3.598,1.374 3.589,3.592 L -0.519,7.755 H 0 Z" /></g><g
           transform="translate(345.2412,72.4932)"
           id="g82"><path
             id="path84"
             style="fill:#584840;fill-opacity:1;fill-rule:nonzero;stroke:none"
             d="M 0,0 C 0,2.165 -1.665,3.283 -3.549,3.283 -5.461,3.283 -6.986,2.109 -7.172,0 Z m -3.549,-4.447 c -2.563,0 -4.157,1.566 -4.157,4.049 0,2.496 1.615,4.092 4.157,4.092 2.518,0 4.145,-1.636 4.145,-4.098 h -7.768 c 0.149,-2.477 1.564,-3.617 3.623,-3.617 1.507,0 2.734,0.742 3.086,1.834 h 0.667 c -0.331,-1.288 -1.721,-2.26 -3.753,-2.26" /></g><g
           transform="translate(367.2529,75.6221)"
           id="g86"><path
             id="path88"
             style="fill:#584840;fill-opacity:1;fill-rule:nonzero;stroke:none"
             d="m 0,0 c -2.128,0 -3.602,-1.479 -3.602,-3.672 0,-2.146 1.474,-3.636 3.602,-3.636 2.134,0 3.607,1.511 3.607,3.636 C 3.607,-1.504 2.134,0 0,0 M -3.602,-10.522 H -4.099 V 0.21 h 0.497 v -2.057 c 0.754,1.761 2.24,2.264 3.618,2.264 2.526,0 4.116,-1.631 4.116,-4.089 0,-2.436 -1.597,-4.058 -4.116,-4.058 -1.335,0 -2.944,0.534 -3.618,2.174 z" /></g><g
           transform="translate(378.6895,68.2256)"
           id="g90"><path
             id="path92"
             style="fill:#584840;fill-opacity:1;fill-rule:nonzero;stroke:none"
             d="M 0,0 V 7.755 H 0.5 V 5.698 c 0.461,1.613 1.508,2.264 2.585,2.264 0.402,0 0.905,-0.071 1.088,-0.161 V 7.311 C 3.987,7.434 3.666,7.551 3.018,7.551 1.522,7.551 0.5,5.605 0.5,4.169 V 0 Z" /></g><g
           transform="translate(396.6768,72.4932)"
           id="g94"><path
             id="path96"
             style="fill:#584840;fill-opacity:1;fill-rule:nonzero;stroke:none"
             d="M 0,0 C 0,2.165 -1.662,3.283 -3.539,3.283 -5.473,3.283 -6.992,2.109 -7.168,0 Z m -3.539,-4.447 c -2.576,0 -4.16,1.566 -4.16,4.049 0,2.496 1.615,4.092 4.16,4.092 2.519,0 4.129,-1.636 4.129,-4.098 h -7.758 c 0.151,-2.477 1.553,-3.617 3.629,-3.617 1.501,0 2.718,0.742 3.079,1.834 h 0.673 c -0.33,-1.288 -1.724,-2.26 -3.752,-2.26" /></g><g
           transform="translate(404.3887,70.2236)"
           id="g98"><path
             id="path100"
             style="fill:#584840;fill-opacity:1;fill-rule:nonzero;stroke:none"
             d="m 0,0 c 0.139,-1.146 1.304,-1.887 3.156,-1.887 1.968,0 3.169,0.67 3.169,1.856 0,0.921 -0.701,1.393 -1.809,1.563 L 2.104,1.89 c -1.789,0.254 -2.441,0.756 -2.441,1.986 0,1.288 1.128,2.115 3.432,2.115 2.266,0 3.45,-0.898 3.48,-2.062 H 5.998 C 5.85,4.963 4.71,5.615 2.935,5.615 1.272,5.615 0.22,4.938 0.22,3.929 0.22,2.885 1.084,2.514 2.385,2.338 L 4.516,2.011 c 1.735,-0.25 2.372,-0.739 2.372,-1.937 0,-1.572 -1.199,-2.372 -3.836,-2.372 -2.317,0 -3.509,0.933 -3.599,2.298 z" /></g><g
           transform="translate(425.5723,72.4932)"
           id="g102"><path
             id="path104"
             style="fill:#584840;fill-opacity:1;fill-rule:nonzero;stroke:none"
             d="m 0,0 c 0,2.165 -1.655,3.283 -3.539,3.283 -1.912,0 -3.44,-1.174 -3.62,-3.283 z m -3.539,-4.447 c -2.569,0 -4.157,1.566 -4.157,4.049 0,2.496 1.615,4.092 4.157,4.092 2.514,0 4.133,-1.636 4.133,-4.098 h -7.753 c 0.148,-2.477 1.545,-3.617 3.62,-3.617 1.498,0 2.727,0.742 3.079,1.834 h 0.67 c -0.32,-1.288 -1.72,-2.26 -3.749,-2.26" /></g><g
           transform="translate(433.4209,75.9805)"
           id="g106"><path
             id="path108"
             style="fill:#584840;fill-opacity:1;fill-rule:nonzero;stroke:none"
             d="m 0,0 h 0.497 v -1.924 c 0.309,1.081 1.594,2.131 3.579,2.131 1.538,0 3.138,-0.651 3.138,-2.866 V -7.755 H 6.708 v 4.899 c 0,1.568 -0.726,2.652 -2.613,2.652 -1.535,0 -3.598,-0.753 -3.598,-3.298 v -4.253 l -0.497,0 z" /></g><g
           transform="translate(450.5117,68.4727)"
           id="g110"><path
             id="path112"
             style="fill:#584840;fill-opacity:1;fill-rule:nonzero;stroke:none"
             d="m 0,0 c 0.358,0 0.801,0.213 0.801,0.213 v -0.46 c -0.263,-0.106 -0.683,-0.18 -1.085,-0.18 -1.077,0 -1.331,0.531 -1.331,1.971 v 5.547 h -1.457 v 0.432 h 1.457 v 2.548 h 0.504 V 7.523 H 0.778 V 7.091 H -1.111 V 1.658 C -1.111,0.72 -1.019,0 0,0" /></g><g
           transform="translate(457.8779,70.2236)"
           id="g114"><path
             id="path116"
             style="fill:#584840;fill-opacity:1;fill-rule:nonzero;stroke:none"
             d="m 0,0 c 0.136,-1.146 1.31,-1.887 3.156,-1.887 1.965,0 3.166,0.67 3.166,1.856 0,0.921 -0.695,1.393 -1.803,1.563 L 2.101,1.89 C 0.309,2.144 -0.34,2.646 -0.34,3.876 c 0,1.288 1.134,2.115 3.438,2.115 2.267,0 3.447,-0.898 3.477,-2.062 H 5.995 C 5.853,4.963 4.713,5.615 2.935,5.615 1.275,5.615 0.223,4.938 0.223,3.929 0.223,2.885 1.087,2.514 2.391,2.338 L 4.519,2.011 c 1.732,-0.25 2.372,-0.739 2.372,-1.937 0,-1.572 -1.208,-2.372 -3.833,-2.372 -2.31,0 -3.512,0.933 -3.595,2.298 z" /></g><path
           id="path118"
           style="fill:#74574b;fill-opacity:1;fill-rule:nonzero;stroke:none"
           d="M 462.925,86.107 H 259.518 v 1.072 h 203.407 z" /></g></g></g></svg>